<svg xmlns="http://www.w3.org/2000/svg">
<defs>
<font id="PTSansProRegular" horiz-adv-x="545" >
  <font-face 
    font-family="PTSansProRegular"
    font-weight="400"
    font-stretch="normal"
    units-per-em="1000"
    panose-1="2 11 5 3 2 2 3 2 2 4"
    ascent="770"
    descent="-230"
    x-height="500"
    cap-height="700"
    bbox="-447 -245 1093 1000"
    underline-thickness="50"
    underline-position="-50"
    unicode-range="U+0020-FB04"
  />
<missing-glyph horiz-adv-x="750" 
d="M50 0v700h650v-700h-650zM620 570l-50 50l-195 -217l-195 217l-50 -50l197 -220l-197 -220l50 -50l195 217l195 -217l50 50l-198 220zM129 63v-36h8v12h4q16 0 16 12t-17 12h-11zM137 57h4q8 0 8 -5q0 -6 -9 -6h-3v11zM189 57v6h-31v-6h12v-30h7v30h12zM222 37
q0 -4 -7 -4q-5 0 -9 2l-3 -7q8 -2 13 -2q14 0 14 12q0 7 -9 10t-9 6t6 3q3 0 9 -2l2 7q-8 2 -11 2q-14 0 -14 -11q0 -7 9 -10.5t9 -5.5zM235 52l2 -5q6 2 9 2q5 0 5 -4v-2l-1 1h-4q-12 0 -12 -10q0 -8 8 -8q6 0 9 5l2 -4h6q-1 1 -1 7v11q0 10 -10 10q-4 0 -13 -3zM245 32
q-4 0 -4 4t5 4h4l1 -1v-3q-1 -4 -6 -4zM284 27h8v16q0 12 -9 12q-7 0 -10 -5l-2 4h-5v-27h7v17q1 4 6 4t5 -6v-15zM299 34l-2 -6q6 -2 10 -2q11 0 11 9q0 5 -8 9q-5 2 -5 3q0 2 3 2q2 0 8 -2l2 6q-6 2 -10 2q-10 0 -10 -9q0 -5 8 -9q5 -2 5 -3q0 -2 -3 -2t-9 2zM338 42
q0 -21 20 -21t20 21q0 20 -20 20q-8 0 -14 -5.5t-6 -14.5zM344 42q0 15 14 15t14 -15t-14 -15t-14 15zM365 33l-1 5q-2 -1 -4 -1q-4 0 -4 5q0 4 4 4h3l2 4q-3 2 -7 2q-9 0 -9 -10q0 -11 9 -11q5 0 7 2zM399 63v-36h8v12h4q16 0 16 12t-17 12h-11zM407 57h4q8 0 8 -5
q0 -6 -9 -6h-3v11zM430 52l2 -5q6 2 9 2q5 0 5 -4v-2l-2 1h-3q-13 0 -13 -10q0 -8 9 -8q6 0 9 5l2 -4h6q-1 1 -1 7v11q0 10 -10 10q-4 0 -13 -3zM440 32q-4 0 -4 4t5 4h3l2 -1v-3q-1 -4 -6 -4zM477 47l1 7q-1 1 -4 1q-4 0 -6 -5h-1l-1 4h-6v-27h8v17q0 4 6 4zM482 52l1 -5
q8 2 9 2q5 0 5 -4v-2l-1 1h-4q-13 0 -13 -10q0 -8 9 -8q7 0 9 5h1l1 -4h6q-1 1 -1 7v11q0 10 -10 10q-3 0 -12 -3zM491 32q-4 0 -4 4t5 4h4l1 -1v-3q-1 -4 -6 -4zM533 57v6h-31v-6h12v-30h7v30h12zM547 39l-6 15h-8l12 -27q-2 -5 -5 -5l-1 1l-2 -6q1 -1 5 -1q6 0 10 13

<glyph glyph-name="IJ" unicode="IJ" horiz-adv-x="580" 
d="M104 0v700h83v-700h-83zM401 174v526h83v-546q0 -164 -143 -164q-54 0 -86 16l16 71q28 -13 61 -13q40 0 54.5 27.5t14.5 82.5z" />
    <glyph glyph-name="ij" unicode="ij" horiz-adv-x="486" 
d="M94 0v500h80v-500h-80zM77 652q0 23 15.5 39.5t39.5 16.5t41 -16.5t17 -39.5q0 -22 -17 -37.5t-41 -15.5t-39.5 15t-15.5 38zM312 3v497h80v-527q0 -93 -32.5 -139t-101.5 -46q-8 0 -30 2v68q53 0 68.5 32t15.5 113zM295 652q0 23 15.5 39.5t39.5 16.5t41 -16.5t17 -39.5
q0 -22 -17 -37.5t-41 -15.5t-39.5 15t-15.5 38z" />
    <glyph glyph-name="uniF374.var.accented" unicode="&#xf374;`" horiz-adv-x="492" 
d="M435 87l18 -65q-45 -31 -146 -31q-110 0 -180.5 67t-70.5 205q0 72 22 126.5t59 85t79.5 45t90.5 14.5q86 0 138 -18l-18 -72q-35 16 -113 16q-65 0 -112 -38.5t-57 -117.5h235v-70h-236q7 -81 55.5 -125t123.5 -44q71 0 112 22zM248 596l59 149h89v-21l-101 -128h-47z
" />
    <glyph glyph-name="uniF376.var.accented" unicode="&#xf376;`" horiz-adv-x="291" 
d="M104 0v525h83v-525h-83zM111 596l59 149h89v-21l-101 -128h-47z" />
    <glyph glyph-name="uniF377.var.accented" unicode="&#xf377;`" horiz-adv-x="343" 
d="M130 0v525h83v-525h-83zM9 683q0 22 13.5 36t35.5 14q21 0 34 -14t13 -36q0 -21 -13 -34.5t-34 -13.5q-22 0 -35.5 13.5t-13.5 34.5zM238 683q0 22 13 36t34 14q22 0 35.5 -14t13.5 -36q0 -21 -13.5 -34.5t-35.5 -13.5q-21 0 -34 13.5t-13 34.5zM100 617l58 144h75v-21
l-96 -123h-37z" />
    <glyph glyph-name="uniF350.var.accented" unicode="&#xf350;`" horiz-adv-x="482" 
d="M388 0l-51 131h-198l-50 -131h-81l209 531h48l209 -531h-86zM218 337l-54 -136h149l-54 137l-20 82h-1zM227 596l59 149h89v-21l-101 -128h-47z" />
    <glyph glyph-name="uniF355.var.accented" unicode="&#xf355;`" horiz-adv-x="470" 
d="M85 0v525h316v-70h-233v-153h213v-70h-213v-162h237v-70h-320zM206 596l59 149h89v-21l-101 -128h-47z" />
    <glyph glyph-name="uniF358.var.accented" unicode="&#xf358;`" horiz-adv-x="581" 
d="M413 0v323l7 66h-4l-37 -68l-246 -321h-48v525h83v-321l-7 -67h4l36 68l246 320h49v-525h-83zM247 596l59 149h89v-21l-101 -128h-47z" />
    <glyph glyph-name="uniF35E.var.accented" unicode="&#xf35e;`" horiz-adv-x="577" 
d="M56 263q0 130 60.5 200.5t171.5 70.5q116 0 174.5 -72.5t58.5 -198.5q0 -130 -61 -201t-172 -71q-115 0 -173.5 72.5t-58.5 199.5zM144 263q0 -89 36 -145.5t108 -56.5q145 0 145 202q0 88 -36 144.5t-109 56.5q-69 0 -106.5 -50.5t-37.5 -150.5zM237 596l59 149h89v-21
l-101 -128h-47z" />
    <glyph glyph-name="uniF363.var.accented" unicode="&#xf363;`" horiz-adv-x="455" 
d="M101 525l131 -257l21 -70h4l15 72l99 255h83q-141 -348 -143 -352q-44 -105 -73.5 -141t-83.5 -36q-49 0 -76 17l24 69q23 -12 51 -12q41 0 61 70l-207 385h94zM188 596l59 149h89v-21l-101 -128h-47z" />
    <glyph glyph-name="uniF36B.var.accented" unicode="&#xf36b;`" horiz-adv-x="674" 
d="M506 0v525h83v-525h-83zM85 5v520h83v-196q36 6 67 6q198 0 198 -163q0 -89 -57 -134t-159 -45q-84 0 -132 12zM225 63q55 0 87.5 27t32.5 78q0 97 -123 97q-28 0 -54 -7v-190q22 -5 57 -5zM289 596l59 149h89v-21l-101 -128h-47z" />
    <glyph glyph-name="uniF36D.var.accented" unicode="&#xf36d;`" horiz-adv-x="490" 
d="M126 232v70h224q-7 79 -52 120.5t-119 41.5q-67 0 -117 -27l-20 66q59 31 145 31q114 0 180.5 -65.5t66.5 -205.5t-74 -206t-189 -66q-78 0 -131 22l22 71q48 -23 114 -23q71 0 120.5 42t54.5 129h-225zM150 596l59 149h89v-21l-101 -128h-47z" />
    <glyph glyph-name="uniF36E.var.accented" unicode="&#xf36e;`" horiz-adv-x="758" 
d="M168 525v-221h88q8 111 65 170.5t158 59.5q223 0 223 -271q0 -132 -56 -202t-167 -70q-105 0 -161 63.5t-62 175.5h-88v-230h-83v525h83zM344 263q0 -91 32 -146.5t103 -55.5q69 0 102 49.5t33 152.5q0 201 -135 201t-135 -201zM317 596l59 149h89v-21l-101 -128h-47z
" />
    <glyph glyph-name="uniF36F.var.accented" unicode="&#xf36f;`" horiz-adv-x="496" 
d="M411 520v-520h-83v220l-75 -15l-130 -205h-97l121 181l49 33q-59 13 -94.5 51.5t-35.5 101.5q0 165 219 165q74 0 126 -12zM275 462q-53 0 -87 -22.5t-34 -74.5q0 -49 34 -73.5t88 -24.5h52v191q-19 4 -53 4zM241 596l59 149h89v-21l-101 -128h-47z" />
    <glyph glyph-name="uniF371.var.accented" unicode="&#xf371;`" horiz-adv-x="470" 
d="M85 0v525h316v-70h-233v-153h213v-70h-213v-162h237v-70h-320zM79 683q0 22 13.5 36t35.5 14q21 0 34 -14t13 -36q0 -21 -13 -34.5t-34 -13.5q-22 0 -35.5 13.5t-13.5 34.5zM308 683q0 22 13 36t34 14q22 0 35.5 -14t13.5 -36q0 -21 -13.5 -34.5t-35.5 -13.5
q-21 0 -34 13.5t-13 34.5zM170 617l58 144h75v-21l-96 -123h-37z" />
    <glyph glyph-name="uniF38A.var.accented" unicode="&#xf38a;`" horiz-adv-x="477" 
d="M398 384l-139 -390h-48l-213 531h91l132 -335l18 -85h3l13 87l58 179q31 95 60.5 127.5t84.5 32.5q44 0 78 -17l-22 -69q-24 12 -52 12q-20 0 -34.5 -16.5t-29.5 -56.5zM191 596l59 149h89v-21l-101 -128h-47z" />
    <glyph glyph-name="afii10053.var.accented" unicode="&#x404;`" horiz-adv-x="583" 
d="M523 94l21 -65q-53 -41 -179 -41q-135 0 -222 91.5t-87 270.5q0 94 27 166t72 113.5t98.5 62t111.5 20.5q107 0 169 -24l-20 -74q-50 24 -142 24q-87 0 -151.5 -58.5t-75.5 -181.5h306v-74h-307q6 -126 73.5 -194t166.5 -68q90 0 139 32zM299 752l118 118h114v-21
l-163 -97h-69z" />
    <glyph glyph-name="afii10055.var.accented" unicode="&#x406;`" horiz-adv-x="291" 
d="M104 0v700h83v-700h-83zM62 752l118 118h114v-21l-163 -97h-69z" />
    <glyph glyph-name="afii10056.var.accented" unicode="&#x407;`" horiz-adv-x="294" 
d="M32 793q0 21 14.5 34.5t36.5 13.5q21 0 35.5 -13.5t14.5 -34.5t-14 -34t-36 -13t-36.5 13t-14.5 34zM162 793q0 21 14.5 34.5t35.5 13.5q22 0 36.5 -13.5t14.5 -34.5t-14.5 -34t-36.5 -13t-36 13t-14 34zM112 853l71 80h111v-20l-128 -60h-54zM105 0v700h83v-700h-83z
" />
    <glyph glyph-name="afii10017.var.accented" unicode="&#x410;`" horiz-adv-x="585" 
d="M490 0l-72 194h-258l-70 -194h-82l265 711h38l266 -711h-87zM264 477l-77 -211h206l-78 213l-25 106h-1zM214 752l118 118h114v-21l-163 -97h-69z" />
    <glyph glyph-name="afii10022.var.accented" unicode="&#x415;`" horiz-adv-x="536" 
d="M85 0v700h381v-74h-298v-229h273v-74h-273v-249h303v-74h-386zM193 752l118 118h114v-21l-163 -97h-69z" />
    <glyph glyph-name="afii10026.var.accented" unicode="&#x418;`" horiz-adv-x="681" 
d="M513 0v474l6 80h-4l-43 -82l-338 -472h-49v700h83v-480l-7 -79h4l44 82l338 477h49v-700h-83zM262 752l118 118h114v-21l-163 -97h-69z" />
    <glyph glyph-name="afii10032.var.accented" unicode="&#x41e;`" horiz-adv-x="684" 
d="M56 350q0 174 74.5 268t210.5 94q143 0 215 -96.5t72 -265.5q0 -174 -75 -268t-212 -94q-142 0 -213.5 96.5t-71.5 265.5zM144 350q0 -124 50 -206t147 -82q95 0 147 72t52 216q0 80 -20 143t-66 104t-113 41q-94 0 -145.5 -72.5t-51.5 -215.5zM297 752l118 118h114v-21
l-163 -97h-69z" />
    <glyph glyph-name="afii10037.var.accented" unicode="&#x423;`" horiz-adv-x="553" 
d="M103 700l179 -369l26 -89h5l20 92l134 366h85l-177 -455q-60 -154 -93.5 -202t-99.5 -48q-55 0 -89 22l25 69q29 -17 68 -17q51 0 80 113l-259 518h96zM213 752l118 118h114v-21l-163 -97h-69z" />
    <glyph glyph-name="afii10045.var.accented" unicode="&#x42b;`" horiz-adv-x="769" 
d="M601 0v700h83v-700h-83zM85 7v693h83v-272q37 8 86 8q51 0 92 -10t77 -32.5t56 -65.5t20 -102q0 -117 -70.5 -175.5t-190.5 -58.5q-94 0 -153 15zM245 64q75 0 120.5 40t45.5 116q0 144 -170 144q-41 0 -73 -9v-285q27 -6 77 -6zM293 752l118 118h114v-21l-163 -97h-69z
" />
    <glyph glyph-name="afii10047.var.accented" unicode="&#x42d;`" horiz-adv-x="577" 
d="M150 321v74h287q-8 121 -69.5 182t-157.5 61q-93 0 -143 -30l-22 65q67 39 175 39q137 0 219 -88.5t82 -273.5q0 -95 -25.5 -166.5t-71 -113t-102 -62t-123.5 -20.5q-90 0 -154 25l22 73q50 -24 137 -24q93 0 160.5 62.5t73.5 196.5h-288zM152 752l118 118h114v-21
l-163 -97h-69z" />
    <glyph glyph-name="afii10048.var.accented" unicode="&#x42e;`" horiz-adv-x="893" 
d="M168 700v-305h124q8 154 78 235.5t196 81.5q271 0 271 -362q0 -176 -68 -269t-203 -93q-134 0 -202 87.5t-73 245.5h-123v-321h-83v700h83zM379 350q0 -127 45 -207.5t142 -80.5q93 0 138 70.5t45 217.5q0 60 -9.5 110t-29.5 91t-57 64t-87 23q-187 0 -187 -288zM323 752
l118 118h114v-21l-163 -97h-69z" />
    <glyph glyph-name="afii10049.var.accented" unicode="&#x42f;`" horiz-adv-x="569" 
d="M484 693v-693h-83v305l-103 -22l-174 -283h-98l156 249l61 43q-75 17 -121 69t-46 135q0 212 260 212q87 0 148 -15zM332 636q-168 0 -168 -140q0 -72 47.5 -107.5t121.5 -35.5h68v277q-27 6 -69 6zM271 752l118 118h114v-21l-163 -97h-69z" />
    <glyph glyph-name="afii10023.var.accented" unicode="&#x401;`" horiz-adv-x="536" 
d="M85 0v700h381v-74h-298v-229h273v-74h-273v-249h303v-74h-386zM347 812q0 21 15 34t36 13q24 0 39 -13t15 -34q0 -20 -15 -33t-39 -13q-21 0 -36 13t-15 33zM80 812q0 21 15.5 34t38.5 13q22 0 36.5 -13t14.5 -34q0 -20 -14.5 -33t-36.5 -13q-23 0 -38.5 13t-15.5 33z
M177 753l68 121h100v-21l-107 -100h-61z" />
    <glyph glyph-name="afii10065.var.accented" unicode="&#x430;`" horiz-adv-x="496" 
d="M94 404l-25 59q75 45 194 45q50 0 83.5 -13.5t49 -37.5t21 -48t5.5 -55q0 -42 -3 -117t-3 -108q0 -84 14 -131h-59l-21 70h-5q-51 -76 -156 -76q-65 0 -107.5 39t-42.5 103q0 83 64.5 118t182.5 35q36 0 55 -2q3 30 3 54q0 56 -22 77.5t-80 21.5q-35 0 -78 -9.5
t-70 -24.5zM211 62q52 0 84.5 23.5t45.5 55.5v83q-38 2 -57 2q-162 0 -162 -84q0 -35 25 -57.5t64 -22.5zM206 571l59 149h89v-21l-101 -128h-47z" />
    <glyph glyph-name="afii10070.var.accented" unicode="&#x435;`" horiz-adv-x="508" 
d="M412 98l30 -58q-65 -52 -172 -52q-111 0 -166 69t-55 193q0 126 57.5 194t162.5 68q38 0 68.5 -8t60 -27.5t45.5 -60.5t16 -101q0 -33 -6 -73h-321q1 -91 38.5 -137.5t122.5 -46.5q33 0 67 12t52 28zM270 442q-125 0 -137 -137h248q0 73 -28 105t-83 32zM228 571l59 149
h89v-21l-101 -128h-47z" />
    <glyph glyph-name="afii10074.var.accented" unicode="&#x438;`" horiz-adv-x="546" 
d="M389 0v296l3 62h-3l-41 -64l-225 -294h-46v500h80v-305l-3 -59h4l39 62l225 302h47v-500h-80zM237 571l59 149h89v-21l-101 -128h-47z" />
    <glyph glyph-name="afii10080.var.accented" unicode="&#x43e;`" horiz-adv-x="536" 
d="M49 250q0 126 57 194t162 68q109 0 164 -69.5t55 -192.5q0 -126 -57 -194t-162 -68q-109 0 -164 69.5t-55 192.5zM132 250q0 -84 33 -138t103 -54q136 0 136 192q0 84 -33 138t-103 54q-136 0 -136 -192zM227 571l59 149h89v-21l-101 -128h-47z" />
    <glyph glyph-name="afii10085.var.accented" unicode="&#x443;`" horiz-adv-x="466" 
d="M104 500l120 -324l28 -96h5l22 97l97 323h81l-148 -449q-15 -45 -22.5 -65.5t-22 -57.5t-26 -55t-28 -39.5t-35 -30t-39.5 -8.5q-36 0 -59 10l14 69q13 -5 25 -5q67 0 97 131l-201 500h92zM208 571l59 149h89v-21l-101 -128h-47z" />
    <glyph glyph-name="afii10093.var.accented" unicode="&#x44b;`" horiz-adv-x="660" 
d="M157 243v-173q37 -6 71 -6q113 0 113 94q0 92 -110 92q-47 0 -74 -7zM157 500v-191q45 7 88 7q179 0 179 -149q0 -91 -50.5 -132t-163.5 -41q-64 0 -133 6v500h80zM503 0v500h80v-500h-80zM262 571l59 149h89v-21l-101 -128h-47z" />
    <glyph glyph-name="afii10095.var.accented" unicode="&#x44d;`" horiz-adv-x="465" 
d="M121 219v66h212q-5 72 -42.5 114.5t-102.5 42.5q-70 0 -121 -35l-28 61q64 44 164 44q213 0 213 -262q0 -126 -59 -194t-164 -68q-99 0 -153 30l23 68q51 -28 122 -28q140 0 149 161h-213zM156 571l59 149h89v-21l-101 -128h-47z" />
    <glyph glyph-name="afii10096.var.accented" unicode="&#x44e;`" horiz-adv-x="719" 
d="M465 -12q-197 0 -207 233h-101v-221h-80v500h80v-209h102q14 221 208 221q203 0 203 -262q0 -128 -51.5 -195t-153.5 -67zM336 250q0 -192 131 -192q63 0 91.5 46.5t28.5 145.5q0 192 -121 192q-68 0 -99 -46.5t-31 -145.5zM288 571l59 149h89v-21l-101 -128h-47z" />
    <glyph glyph-name="afii10097.var.accented" unicode="&#x44f;`" horiz-adv-x="475" 
d="M326 0v207l-77 -12l-132 -195h-97l120 171l40 37q-55 9 -90 44t-35 90q0 87 58 128.5t161 41.5q50 0 132 -16v-496h-80zM326 433q-25 9 -57 9q-131 0 -131 -96q0 -44 35.5 -69t93.5 -25q6 0 59 2v179zM229 571l59 149h89v-21l-101 -128h-47z" />
    <glyph glyph-name="afii10071.var.accented" unicode="&#x451;`" horiz-adv-x="508" 
d="M412 98l30 -58q-65 -52 -172 -52q-111 0 -166 69t-55 193q0 126 57.5 194t162.5 68q38 0 68.5 -8t60 -27.5t45.5 -60.5t16 -101q0 -33 -6 -73h-321q1 -91 38.5 -137.5t122.5 -46.5q33 0 67 12t52 28zM270 442q-125 0 -137 -137h248q0 73 -28 105t-83 32zM100 632
q0 22 13.5 36t35.5 14q21 0 34 -14t13 -36q0 -21 -13 -34.5t-34 -13.5q-22 0 -35.5 13.5t-13.5 34.5zM329 632q0 22 13 36t34 14q22 0 35.5 -14t13.5 -36q0 -21 -13.5 -34.5t-35.5 -13.5q-21 0 -34 13.5t-13 34.5zM191 566l58 144h75v-21l-96 -123h-37z" />
    <glyph glyph-name="afii10101.var.accented" unicode="&#x454;`" horiz-adv-x="472" 
d="M412 94l26 -61q-62 -45 -161 -45q-113 0 -170.5 70t-57.5 192q0 124 63.5 193t169.5 69q92 0 147 -29l-23 -69q-51 28 -116 28q-69 0 -111 -39.5t-49 -116.5h236v-66h-237q7 -72 48.5 -117t120.5 -45q69 0 114 36zM243 571l59 149h89v-21l-101 -128h-47z" />
    <glyph glyph-name="afii10103.var.accented" unicode="&#x456;`" horiz-adv-x="268" 
d="M94 0v500h80v-500h-80zM77 652q0 23 15.5 39.5t39.5 16.5t41 -16.5t17 -39.5q0 -22 -17 -37.5t-41 -15.5t-39.5 15t-15.5 38zM86 752l118 118h114v-21l-163 -97h-69z" />
    <glyph glyph-name="afii10104.var.accented" unicode="&#x457;`" horiz-adv-x="272" 
d="M29 633q0 22 12.5 35.5t34.5 13.5q21 0 33.5 -13.5t12.5 -35.5t-12.5 -35t-33.5 -13q-22 0 -34.5 13t-12.5 35zM151 633q0 22 12.5 35.5t33.5 13.5q22 0 34.5 -13.5t12.5 -35.5t-12.5 -35t-34.5 -13q-21 0 -33.5 13t-12.5 35zM95 0v500h80v-500h-80zM87 714l118 118h114
v-21l-163 -97h-69z" />
    <glyph glyph-name="afii10062.var.accented" unicode="&#x40e;`" horiz-adv-x="553" 
d="M103 700l179 -369l26 -89h5l20 92l134 366h85l-177 -455q-60 -154 -93.5 -202t-99.5 -48q-55 0 -89 22l25 69q29 -17 68 -17q51 0 80 113l-259 518h96zM123 850l79 20q4 -37 28.5 -58.5t65.5 -21.5q40 0 65 20.5t30 56.5l68 -17q-24 -115 -166 -115q-154 0 -170 115z
M241 833l113 118h113v-21l-159 -97h-67z" />
    <glyph glyph-name="afii10110.var.accented" unicode="&#x45e;`" horiz-adv-x="466" 
d="M104 500l120 -324l28 -96h5l22 97l97 323h81l-148 -449q-15 -45 -22.5 -65.5t-22 -57.5t-26 -55t-28 -39.5t-35 -30t-39.5 -8.5q-36 0 -59 10l14 69q13 -5 25 -5q67 0 97 131l-201 500h92zM87 678l68 24q17 -82 93 -82q35 0 60.5 20t34.5 61l58 -19q-9 -57 -51.5 -88.5
t-103.5 -31.5q-60 0 -105 29.5t-54 86.5zM217 682l57 149h88v-21l-102 -128h-43z" />
    <glyph glyph-name="afii10148.var.accented" unicode="&#x474;`" horiz-adv-x="598" 
d="M478 520l-174 -531h-37l-269 711h90l178 -481l24 -106h2l16 108q13 47 41 138t40 133q18 61 36 102t32.5 63.5t34.5 33.5t34 13.5t39 2.5q57 0 92 -22l-24 -70q-32 18 -69 18q-27 0 -46.5 -26t-39.5 -87zM227 752l118 118h114v-21l-163 -97h-69z" />
    <glyph glyph-name="afii10196.var.accented" unicode="&#x475;`" horiz-adv-x="507" 
d="M413 356l-152 -367h-34l-217 511h92l120 -293l28 -95h1l25 97q15 38 46 116q16 43 24.5 63.5t23 48.5t27.5 40t32 21t43 9q37 0 58 -9l-12 -74q-22 9 -34 9q-39 0 -71 -77zM218 571l59 149h89v-21l-101 -128h-47z" />
    <glyph glyph-name="uni04AE.var.accented" unicode="&#x4ae;`" horiz-adv-x="558" 
d="M239 0v278l-231 422h97l164 -306l17 -61h1l18 63l157 304h89l-229 -421v-279h-83zM220 752l118 118h114v-21l-163 -97h-69z" />
    <glyph glyph-name="uni04AF.var.accented" unicode="&#x4af;`" horiz-adv-x="484" 
d="M207 0l-197 500h92l122 -324l28 -106h1l25 108l110 322h86l-187 -500v-200h-80v200zM208 571l59 149h89v-21l-101 -128h-47z" />
    <glyph glyph-name="uni04B0.var.accented" unicode="&#x4b0;`" horiz-adv-x="558" 
d="M89 223v62h146l-227 415h97l164 -306l17 -61h1l18 63l157 304h89l-226 -415h147v-62h-150v-223h-83v223h-150zM220 752l118 118h114v-21l-163 -97h-69z" />
    <glyph glyph-name="uni04B1.var.accented" unicode="&#x4b1;`" horiz-adv-x="484" 
d="M84 -60v60h123l-197 500h92l122 -324l28 -106h1l25 108l110 322h86l-187 -500h117v-60h-117v-140h-80v140h-123zM207 571l59 149h89v-21l-101 -128h-47z" />
    <glyph glyph-name="uni04D0.var.accented" unicode="&#x4d0;`" horiz-adv-x="585" 
d="M490 0l-72 194h-258l-70 -194h-82l265 711h38l266 -711h-87zM264 477l-77 -211h206l-78 213l-25 106h-1zM122 850l79 20q4 -37 28.5 -58.5t65.5 -21.5q40 0 65 20.5t30 56.5l68 -17q-24 -115 -166 -115q-154 0 -170 115zM240 833l113 118h113v-21l-159 -97h-67z" />
    <glyph glyph-name="uni04D1.var.accented" unicode="&#x4d1;`" horiz-adv-x="496" 
d="M94 404l-25 59q75 45 194 45q50 0 83.5 -13.5t49 -37.5t21 -48t5.5 -55q0 -42 -3 -117t-3 -108q0 -84 14 -131h-59l-21 70h-5q-51 -76 -156 -76q-65 0 -107.5 39t-42.5 103q0 83 64.5 118t182.5 35q36 0 55 -2q3 30 3 54q0 56 -22 77.5t-80 21.5q-35 0 -78 -9.5
t-70 -24.5zM211 62q52 0 84.5 23.5t45.5 55.5v83q-38 2 -57 2q-162 0 -162 -84q0 -35 25 -57.5t64 -22.5zM99 678l68 24q17 -82 93 -82q35 0 60.5 20t34.5 61l58 -19q-9 -57 -51.5 -88.5t-103.5 -31.5q-60 0 -105 29.5t-54 86.5zM229 682l57 149h88v-21l-102 -128h-43z" />
    <glyph glyph-name="uni04D2.var.accented" unicode="&#x4d2;`" horiz-adv-x="585" 
d="M490 0l-72 194h-258l-70 -194h-82l265 711h38l266 -711h-87zM264 477l-77 -211h206l-78 213l-25 106h-1zM370 812q0 21 15 34t36 13q24 0 39 -13t15 -34q0 -20 -15 -33t-39 -13q-21 0 -36 13t-15 33zM103 812q0 21 15.5 34t38.5 13q22 0 36.5 -13t14.5 -34
q0 -20 -14.5 -33t-36.5 -13q-23 0 -38.5 13t-15.5 33zM200 753l68 121h100v-21l-107 -100h-61z" />
    <glyph glyph-name="uni04D3.var.accented" unicode="&#x4d3;`" horiz-adv-x="496" 
d="M94 404l-25 59q75 45 194 45q50 0 83.5 -13.5t49 -37.5t21 -48t5.5 -55q0 -42 -3 -117t-3 -108q0 -84 14 -131h-59l-21 70h-5q-51 -76 -156 -76q-65 0 -107.5 39t-42.5 103q0 83 64.5 118t182.5 35q36 0 55 -2q3 30 3 54q0 56 -22 77.5t-80 21.5q-35 0 -78 -9.5
t-70 -24.5zM211 62q52 0 84.5 23.5t45.5 55.5v83q-38 2 -57 2q-162 0 -162 -84q0 -35 25 -57.5t64 -22.5zM84 632q0 22 13.5 36t35.5 14q21 0 34 -14t13 -36q0 -21 -13 -34.5t-34 -13.5q-22 0 -35.5 13.5t-13.5 34.5zM313 632q0 22 13 36t34 14q22 0 35.5 -14t13.5 -36
q0 -21 -13.5 -34.5t-35.5 -13.5q-21 0 -34 13.5t-13 34.5zM175 566l58 144h75v-21l-96 -123h-37z" />
    <glyph glyph-name="uni04D4.var.accented" unicode="&#x4d4;`" horiz-adv-x="846" 
d="M395 600h-4l-34 -103l-133 -229h171v332zM395 0v198h-214l-112 -198h-91l415 700h383v-74h-298v-229h273v-74h-273v-249h303v-74h-386zM407 752l118 118h114v-21l-163 -97h-69z" />
    <glyph glyph-name="uni04D5.var.accented" unicode="&#x4d5;`" horiz-adv-x="796" 
d="M211 62q52 0 84.5 23.5t45.5 55.5v83q-38 2 -57 2q-162 0 -162 -84q0 -35 25 -57.5t64 -22.5zM374 84h-7q-67 -92 -178 -92q-65 0 -107.5 39t-42.5 103q0 83 64.5 118t182.5 35q36 0 55 -2q0 5 1.5 25t1.5 29q0 56 -22 77.5t-80 21.5q-35 0 -78 -9.5t-70 -24.5l-25 59
q75 45 194 45q105 0 136 -65q24 34 67.5 51.5t90.5 17.5q38 0 68.5 -8t60 -28t45.5 -61.5t16 -101.5q0 -28 -5 -71h-323q0 -90 38 -137t123 -47q34 0 67.5 11.5t52.5 27.5l30 -57q-65 -52 -172 -52q-61 0 -110.5 25.5t-73.5 70.5zM558 442q-126 0 -137 -137h248v12
q0 125 -111 125zM359 571l59 149h89v-21l-101 -128h-47z" />
    <glyph glyph-name="uni04D6.var.accented" unicode="&#x4d6;`" horiz-adv-x="536" 
d="M85 0v700h381v-74h-298v-229h273v-74h-273v-249h303v-74h-386zM117 850l79 20q4 -37 28.5 -58.5t65.5 -21.5q40 0 65 20.5t30 56.5l68 -17q-24 -115 -166 -115q-154 0 -170 115zM235 833l113 118h113v-21l-159 -97h-67z" />
    <glyph glyph-name="uni04D7.var.accented" unicode="&#x4d7;`" horiz-adv-x="508" 
d="M412 98l30 -58q-65 -52 -172 -52q-111 0 -166 69t-55 193q0 126 57.5 194t162.5 68q38 0 68.5 -8t60 -27.5t45.5 -60.5t16 -101q0 -33 -6 -73h-321q1 -91 38.5 -137.5t122.5 -46.5q33 0 67 12t52 28zM270 442q-125 0 -137 -137h248q0 73 -28 105t-83 32zM110 678l68 24
q17 -82 93 -82q35 0 60.5 20t34.5 61l58 -19q-9 -57 -51.5 -88.5t-103.5 -31.5q-60 0 -105 29.5t-54 86.5zM240 682l57 149h88v-21l-102 -128h-43z" />
    <glyph glyph-name="uni04D8.var.accented" unicode="&#x4d8;`" horiz-adv-x="639" 
d="M500 322h-355q-4 -24 -4 -53q0 -89 42 -150t124 -61q93 0 142.5 67.5t50.5 196.5zM63 392h437q-9 128 -60.5 187t-154.5 59q-42 0 -85.5 -12.5t-69.5 -28.5l-21 67q80 48 192 48q139 0 210.5 -87t71.5 -275q0 -175 -70 -268.5t-207 -93.5q-123 0 -188 77.5t-65 213.5
q0 56 10 113zM240 752l118 118h114v-21l-163 -97h-69z" />
    <glyph glyph-name="afii10846.var.accented" unicode="&#x4d9;`" horiz-adv-x="507" 
d="M95 402l-30 58q65 52 172 52q111 0 166 -69.5t55 -192.5q0 -125 -56 -193.5t-156 -68.5q-36 0 -68.5 10.5t-62.5 34t-48 68.5t-18 107q0 26 5 68h326q-5 87 -42.5 126.5t-123.5 39.5q-33 0 -66.5 -12t-52.5 -28zM248 58q57 0 93.5 40.5t36.5 114.5h-251v-15
q0 -67 33.5 -103.5t87.5 -36.5zM202 571l59 149h89v-21l-101 -128h-47z" />
    <glyph glyph-name="uni04DA.var.accented" unicode="&#x4da;`" horiz-adv-x="639" 
d="M500 322h-355q-4 -24 -4 -53q0 -89 42 -150t124 -61q93 0 142.5 67.5t50.5 196.5zM63 392h437q-9 128 -60.5 187t-154.5 59q-42 0 -85.5 -12.5t-69.5 -28.5l-21 67q80 48 192 48q139 0 210.5 -87t71.5 -275q0 -175 -70 -268.5t-207 -93.5q-123 0 -188 77.5t-65 213.5
q0 56 10 113zM387 812q0 21 15 34t36 13q24 0 39 -13t15 -34q0 -20 -15 -33t-39 -13q-21 0 -36 13t-15 33zM120 812q0 21 15.5 34t38.5 13q22 0 36.5 -13t14.5 -34q0 -20 -14.5 -33t-36.5 -13q-23 0 -38.5 13t-15.5 33zM217 753l68 121h100v-21l-107 -100h-61z" />
    <glyph glyph-name="uni04DB.var.accented" unicode="&#x4db;`" horiz-adv-x="507" 
d="M95 402l-30 58q65 52 172 52q111 0 166 -69.5t55 -192.5q0 -125 -56 -193.5t-156 -68.5q-36 0 -68.5 10.5t-62.5 34t-48 68.5t-18 107q0 26 5 68h326q-5 87 -42.5 126.5t-123.5 39.5q-33 0 -66.5 -12t-52.5 -28zM248 58q57 0 93.5 40.5t36.5 114.5h-251v-15
q0 -67 33.5 -103.5t87.5 -36.5zM88 632q0 22 13.5 36t35.5 14q21 0 34 -14t13 -36q0 -21 -13 -34.5t-34 -13.5q-22 0 -35.5 13.5t-13.5 34.5zM317 632q0 22 13 36t34 14q22 0 35.5 -14t13.5 -36q0 -21 -13.5 -34.5t-35.5 -13.5q-21 0 -34 13.5t-13 34.5zM179 566l58 144h75
v-21l-96 -123h-37z" />
    <glyph glyph-name="uni04E2.var.accented" unicode="&#x4e2;`" horiz-adv-x="681" 
d="M513 0v474l6 80h-4l-43 -82l-338 -472h-49v700h83v-480l-7 -79h4l44 82l338 477h49v-700h-83zM194 753v62h316v-62h-316zM280 825l118 118h114v-21l-163 -97h-69z" />
    <glyph glyph-name="uni04E3.var.accented" unicode="&#x4e3;`" horiz-adv-x="546" 
d="M389 0v296l3 62h-3l-41 -64l-225 -294h-46v500h80v-305l-3 -59h4l39 62l225 302h47v-500h-80zM127 579v62h296v-62h-296zM227 681l59 149h89v-21l-101 -128h-47z" />
    <glyph glyph-name="uni04E4.var.accented" unicode="&#x4e4;`" horiz-adv-x="681" 
d="M513 0v474l6 80h-4l-43 -82l-338 -472h-49v700h83v-480l-7 -79h4l44 82l338 477h49v-700h-83zM425 812q0 21 15 34t36 13q24 0 39 -13t15 -34q0 -20 -15 -33t-39 -13q-21 0 -36 13t-15 33zM158 812q0 21 15.5 34t38.5 13q22 0 36.5 -13t14.5 -34q0 -20 -14.5 -33
t-36.5 -13q-23 0 -38.5 13t-15.5 33zM255 753l68 121h100v-21l-107 -100h-61z" />
    <glyph glyph-name="uni04E5.var.accented" unicode="&#x4e5;`" horiz-adv-x="546" 
d="M389 0v296l3 62h-3l-41 -64l-225 -294h-46v500h80v-305l-3 -59h4l39 62l225 302h47v-500h-80zM113 632q0 22 13.5 36t35.5 14q21 0 34 -14t13 -36q0 -21 -13 -34.5t-34 -13.5q-22 0 -35.5 13.5t-13.5 34.5zM342 632q0 22 13 36t34 14q22 0 35.5 -14t13.5 -36
q0 -21 -13.5 -34.5t-35.5 -13.5q-21 0 -34 13.5t-13 34.5zM204 566l58 144h75v-21l-96 -123h-37z" />
    <glyph glyph-name="uni04E6.var.accented" unicode="&#x4e6;`" horiz-adv-x="684" 
d="M56 350q0 174 74.5 268t210.5 94q143 0 215 -96.5t72 -265.5q0 -174 -75 -268t-212 -94q-142 0 -213.5 96.5t-71.5 265.5zM144 350q0 -124 50 -206t147 -82q95 0 147 72t52 216q0 80 -20 143t-66 104t-113 41q-94 0 -145.5 -72.5t-51.5 -215.5zM421 812q0 21 15 34t36 13
q24 0 39 -13t15 -34q0 -20 -15 -33t-39 -13q-21 0 -36 13t-15 33zM154 812q0 21 15.5 34t38.5 13q22 0 36.5 -13t14.5 -34q0 -20 -14.5 -33t-36.5 -13q-23 0 -38.5 13t-15.5 33zM251 753l68 121h100v-21l-107 -100h-61z" />
    <glyph glyph-name="uni04E7.var.accented" unicode="&#x4e7;`" horiz-adv-x="536" 
d="M49 250q0 126 57 194t162 68q109 0 164 -69.5t55 -192.5q0 -126 -57 -194t-162 -68q-109 0 -164 69.5t-55 192.5zM132 250q0 -84 33 -138t103 -54q136 0 136 192q0 84 -33 138t-103 54q-136 0 -136 -192zM112 632q0 22 13.5 36t35.5 14q21 0 34 -14t13 -36
q0 -21 -13 -34.5t-34 -13.5q-22 0 -35.5 13.5t-13.5 34.5zM341 632q0 22 13 36t34 14q22 0 35.5 -14t13.5 -36q0 -21 -13.5 -34.5t-35.5 -13.5q-21 0 -34 13.5t-13 34.5zM203 566l58 144h75v-21l-96 -123h-37z" />
    <glyph glyph-name="uni04E8.var.accented" unicode="&#x4e8;`" horiz-adv-x="684" 
d="M56 350q0 174 74.5 268t210.5 94q143 0 215 -96.5t72 -265.5q0 -174 -75 -268t-212 -94q-142 0 -213.5 96.5t-71.5 265.5zM144 392h396q-7 116 -61.5 181t-137.5 65q-81 0 -135.5 -58.5t-61.5 -187.5zM540 318h-396q7 -124 61 -190t136 -66q84 0 139 59t60 197zM299 752
l118 118h114v-21l-163 -97h-69z" />
    <glyph glyph-name="uni04E9.var.accented" unicode="&#x4e9;`" horiz-adv-x="536" 
d="M49 250q0 126 57 194t162 68q109 0 164 -69.5t55 -192.5q0 -126 -57 -194t-162 -68q-109 0 -164 69.5t-55 192.5zM132 281h272q-16 161 -136 161q-57 0 -94.5 -38t-41.5 -123zM404 217h-272q5 -76 42.5 -117.5t93.5 -41.5q126 0 136 159zM237 571l59 149h89v-21
l-101 -128h-47z" />
    <glyph glyph-name="uni04EA.var.accented" unicode="&#x4ea;`" horiz-adv-x="684" 
d="M56 350q0 174 74.5 268t210.5 94q143 0 215 -96.5t72 -265.5q0 -174 -75 -268t-212 -94q-142 0 -213.5 96.5t-71.5 265.5zM144 392h396q-7 116 -61.5 181t-137.5 65q-81 0 -135.5 -58.5t-61.5 -187.5zM540 318h-396q7 -124 61 -190t136 -66q84 0 139 59t60 197zM425 812
q0 21 15 34t36 13q24 0 39 -13t15 -34q0 -20 -15 -33t-39 -13q-21 0 -36 13t-15 33zM158 812q0 21 15.5 34t38.5 13q22 0 36.5 -13t14.5 -34q0 -20 -14.5 -33t-36.5 -13q-23 0 -38.5 13t-15.5 33zM255 753l68 121h100v-21l-107 -100h-61z" />
    <glyph glyph-name="uni04EB.var.accented" unicode="&#x4eb;`" horiz-adv-x="536" 
d="M49 250q0 126 57 194t162 68q109 0 164 -69.5t55 -192.5q0 -126 -57 -194t-162 -68q-109 0 -164 69.5t-55 192.5zM132 281h272q-16 161 -136 161q-57 0 -94.5 -38t-41.5 -123zM404 217h-272q5 -76 42.5 -117.5t93.5 -41.5q126 0 136 159zM112 632q0 22 13.5 36t35.5 14
q21 0 34 -14t13 -36q0 -21 -13 -34.5t-34 -13.5q-22 0 -35.5 13.5t-13.5 34.5zM341 632q0 22 13 36t34 14q22 0 35.5 -14t13.5 -36q0 -21 -13.5 -34.5t-35.5 -13.5q-21 0 -34 13.5t-13 34.5zM203 566l58 144h75v-21l-96 -123h-37z" />
    <glyph glyph-name="uni04EC.var.accented" unicode="&#x4ec;`" horiz-adv-x="577" 
d="M150 321v74h287q-8 121 -69.5 182t-157.5 61q-93 0 -143 -30l-22 65q67 39 175 39q137 0 219 -88.5t82 -273.5q0 -95 -25.5 -166.5t-71 -113t-102 -62t-123.5 -20.5q-90 0 -154 25l22 73q50 -24 137 -24q93 0 160.5 62.5t73.5 196.5h-288zM337 812q0 21 15 34t36 13
q24 0 39 -13t15 -34q0 -20 -15 -33t-39 -13q-21 0 -36 13t-15 33zM70 812q0 21 15.5 34t38.5 13q22 0 36.5 -13t14.5 -34q0 -20 -14.5 -33t-36.5 -13q-23 0 -38.5 13t-15.5 33zM167 753l68 121h100v-21l-107 -100h-61z" />
    <glyph glyph-name="uni04ED.var.accented" unicode="&#x4ed;`" horiz-adv-x="465" 
d="M121 219v66h212q-5 72 -42.5 114.5t-102.5 42.5q-70 0 -121 -35l-28 61q64 44 164 44q213 0 213 -262q0 -126 -59 -194t-164 -68q-99 0 -153 30l23 68q51 -28 122 -28q140 0 149 161h-213zM52 632q0 22 13.5 36t35.5 14q21 0 34 -14t13 -36q0 -21 -13 -34.5t-34 -13.5
q-22 0 -35.5 13.5t-13.5 34.5zM281 632q0 22 13 36t34 14q22 0 35.5 -14t13.5 -36q0 -21 -13.5 -34.5t-35.5 -13.5q-21 0 -34 13.5t-13 34.5zM143 566l58 144h75v-21l-96 -123h-37z" />
    <glyph glyph-name="uni04EE.var.accented" unicode="&#x4ee;`" horiz-adv-x="553" 
d="M103 700l179 -369l26 -89h5l20 92l134 366h85l-177 -455q-60 -154 -93.5 -202t-99.5 -48q-55 0 -89 22l25 69q29 -17 68 -17q51 0 80 113l-259 518h96zM130 753v62h316v-62h-316zM216 825l118 118h114v-21l-163 -97h-69z" />
    <glyph glyph-name="uni04EF.var.accented" unicode="&#x4ef;`" horiz-adv-x="466" 
d="M104 500l120 -324l28 -96h5l22 97l97 323h81l-148 -449q-15 -45 -22.5 -65.5t-22 -57.5t-26 -55t-28 -39.5t-35 -30t-39.5 -8.5q-36 0 -59 10l14 69q13 -5 25 -5q67 0 97 131l-201 500h92zM97 579v62h296v-62h-296zM197 681l59 149h89v-21l-101 -128h-47z" />
    <glyph glyph-name="uni04F0.var.accented" unicode="&#x4f0;`" horiz-adv-x="553" 
d="M103 700l179 -369l26 -89h5l20 92l134 366h85l-177 -455q-60 -154 -93.5 -202t-99.5 -48q-55 0 -89 22l25 69q29 -17 68 -17q51 0 80 113l-259 518h96zM371 812q0 21 15 34t36 13q24 0 39 -13t15 -34q0 -20 -15 -33t-39 -13q-21 0 -36 13t-15 33zM104 812q0 21 15.5 34
t38.5 13q22 0 36.5 -13t14.5 -34q0 -20 -14.5 -33t-36.5 -13q-23 0 -38.5 13t-15.5 33zM201 753l68 121h100v-21l-107 -100h-61z" />
    <glyph glyph-name="uni04F1.var.accented" unicode="&#x4f1;`" horiz-adv-x="466" 
d="M104 500l120 -324l28 -96h5l22 97l97 323h81l-148 -449q-15 -45 -22.5 -65.5t-22 -57.5t-26 -55t-28 -39.5t-35 -30t-39.5 -8.5q-36 0 -59 10l14 69q13 -5 25 -5q67 0 97 131l-201 500h92zM79 632q0 22 13.5 36t35.5 14q21 0 34 -14t13 -36q0 -21 -13 -34.5t-34 -13.5
q-22 0 -35.5 13.5t-13.5 34.5zM308 632q0 22 13 36t34 14q22 0 35.5 -14t13.5 -36q0 -21 -13.5 -34.5t-35.5 -13.5q-21 0 -34 13.5t-13 34.5zM170 566l58 144h75v-21l-96 -123h-37z" />
    <glyph glyph-name="uni04F2.var.accented" unicode="&#x4f2;`" horiz-adv-x="553" 
d="M103 700l179 -369l26 -89h5l20 92l134 366h85l-177 -455q-60 -154 -93.5 -202t-99.5 -48q-55 0 -89 22l25 69q29 -17 68 -17q51 0 80 113l-259 518h96zM135 731l25 89h82v-16l-60 -73h-47zM314 731l133 89h100v-16l-173 -73h-60zM228 752l101 118h109v-19l-138 -99h-72z
" />
    <glyph glyph-name="uni04F3.var.accented" unicode="&#x4f3;`" horiz-adv-x="466" 
d="M104 500l120 -324l28 -96h5l22 97l97 323h81l-148 -449q-15 -45 -22.5 -65.5t-22 -57.5t-26 -55t-28 -39.5t-35 -30t-39.5 -8.5q-36 0 -59 10l14 69q13 -5 25 -5q67 0 97 131l-201 500h92zM121 571l15 129h77v-16l-51 -113h-41zM264 571l103 129h85v-16l-144 -113h-44z
M219 622l60 148h85v-19l-99 -129h-46z" />
    <glyph glyph-name="uni04F8.var.accented" unicode="&#x4f8;`" horiz-adv-x="769" 
d="M601 0v700h83v-700h-83zM85 7v693h83v-272q37 8 86 8q51 0 92 -10t77 -32.5t56 -65.5t20 -102q0 -117 -70.5 -175.5t-190.5 -58.5q-94 0 -153 15zM245 64q75 0 120.5 40t45.5 116q0 144 -170 144q-41 0 -73 -9v-285q27 -6 77 -6zM462 812q0 21 15 34t36 13q24 0 39 -13
t15 -34q0 -20 -15 -33t-39 -13q-21 0 -36 13t-15 33zM195 812q0 21 15.5 34t38.5 13q22 0 36.5 -13t14.5 -34q0 -20 -14.5 -33t-36.5 -13q-23 0 -38.5 13t-15.5 33zM292 753l68 121h100v-21l-107 -100h-61z" />
    <glyph glyph-name="uni04F9.var.accented" unicode="&#x4f9;`" horiz-adv-x="660" 
d="M157 243v-173q37 -6 71 -6q113 0 113 94q0 92 -110 92q-47 0 -74 -7zM157 500v-191q45 7 88 7q179 0 179 -149q0 -91 -50.5 -132t-163.5 -41q-64 0 -133 6v500h80zM503 0v500h80v-500h-80zM168 632q0 22 13.5 36t35.5 14q21 0 34 -14t13 -36q0 -21 -13 -34.5t-34 -13.5
q-22 0 -35.5 13.5t-13.5 34.5zM397 632q0 22 13 36t34 14q22 0 35.5 -14t13.5 -36q0 -21 -13.5 -34.5t-35.5 -13.5q-21 0 -34 13.5t-13 34.5zM259 566l58 144h75v-21l-96 -123h-37z" />
    <glyph glyph-name="uniF37E.var.accented" unicode="&#xf37e;`" horiz-adv-x="455" 
d="M101 525l131 -257l21 -70h4l15 72l99 255h83q-141 -348 -143 -352q-44 -105 -73.5 -141t-83.5 -36q-49 0 -76 17l24 69q23 -12 51 -12q41 0 61 70l-207 385h94zM77 703l68 24q17 -82 93 -82q35 0 60.5 20t34.5 61l58 -19q-9 -57 -51.5 -88.5t-103.5 -31.5
q-60 0 -105 29.5t-54 86.5zM207 707l57 149h88v-21l-102 -128h-43z" />
    <glyph glyph-name="uniF3A2.var.accented" unicode="&#xf3a2;`" horiz-adv-x="465" 
d="M192 0v201l-184 324h96l121 -217l13 -51h2l14 52l116 216h87l-182 -323v-202h-83zM200 596l59 149h89v-21l-101 -128h-47z" />
    <glyph glyph-name="uniF3A3.var.accented" unicode="&#xf3a3;`" horiz-adv-x="465" 
d="M75 141v60h117l-184 324h96l121 -217l13 -51h2l14 52l116 216h87l-182 -323v-1h119v-60h-119v-141h-83v141h-117zM209 596l59 149h89v-21l-101 -128h-47z" />
    <glyph glyph-name="uniF3B2.var.accented" unicode="&#xf3b2;`" horiz-adv-x="482" 
d="M388 0l-51 131h-198l-50 -131h-81l209 531h48l209 -531h-86zM218 337l-54 -136h149l-54 137l-20 82h-1zM83 703l68 24q17 -82 93 -82q35 0 60.5 20t34.5 61l58 -19q-9 -57 -51.5 -88.5t-103.5 -31.5q-60 0 -105 29.5t-54 86.5zM213 707l57 149h88v-21l-102 -128h-43z" />
    <glyph glyph-name="uniF3B3.var.accented" unicode="&#xf3b3;`" horiz-adv-x="482" 
d="M388 0l-51 131h-198l-50 -131h-81l209 531h48l209 -531h-86zM218 337l-54 -136h149l-54 137l-20 82h-1zM76 683q0 22 13.5 36t35.5 14q21 0 34 -14t13 -36q0 -21 -13 -34.5t-34 -13.5q-22 0 -35.5 13.5t-13.5 34.5zM305 683q0 22 13 36t34 14q22 0 35.5 -14t13.5 -36
q0 -21 -13.5 -34.5t-35.5 -13.5q-21 0 -34 13.5t-13 34.5zM167 617l58 144h75v-21l-96 -123h-37z" />
    <glyph glyph-name="uniF3B4.var.accented" unicode="&#xf3b4;`" horiz-adv-x="698" 
d="M315 426h-4l-26 -74l-96 -145h126v219zM315 0v137h-164l-84 -137h-89l335 525h316v-70h-231v-153h211v-70h-211v-162h235v-70h-318zM328 596l59 149h89v-21l-101 -128h-47z" />
    <glyph glyph-name="uniF3B5.var.accented" unicode="&#xf3b5;`" horiz-adv-x="470" 
d="M85 0v525h316v-70h-233v-153h213v-70h-213v-162h237v-70h-320zM89 703l68 24q17 -82 93 -82q35 0 60.5 20t34.5 61l58 -19q-9 -57 -51.5 -88.5t-103.5 -31.5q-60 0 -105 29.5t-54 86.5zM219 707l57 149h88v-21l-102 -128h-43z" />
    <glyph glyph-name="uniF3B6.var.accented" unicode="&#xf3b6;`" horiz-adv-x="539" 
d="M400 231h-261q-2 -11 -2 -31q0 -59 31 -99t92 -40q138 0 140 170zM61 301h339q-6 83 -45 123t-117 40q-68 0 -123 -32l-21 66q64 36 158 36q231 0 231 -271q0 -131 -56.5 -201.5t-168.5 -70.5q-101 0 -152.5 60t-51.5 164q0 44 7 86zM227 596l59 149h89v-21l-101 -128
h-47z" />
    <glyph glyph-name="uniF3B7.var.accented" unicode="&#xf3b7;`" horiz-adv-x="539" 
d="M400 231h-261q-2 -11 -2 -31q0 -59 31 -99t92 -40q138 0 140 170zM61 301h339q-6 83 -45 123t-117 40q-68 0 -123 -32l-21 66q64 36 158 36q231 0 231 -271q0 -131 -56.5 -201.5t-168.5 -70.5q-101 0 -152.5 60t-51.5 164q0 44 7 86zM98 683q0 22 13.5 36t35.5 14
q21 0 34 -14t13 -36q0 -21 -13 -34.5t-34 -13.5q-22 0 -35.5 13.5t-13.5 34.5zM327 683q0 22 13 36t34 14q22 0 35.5 -14t13.5 -36q0 -21 -13.5 -34.5t-35.5 -13.5q-21 0 -34 13.5t-13 34.5zM189 617l58 144h75v-21l-96 -123h-37z" />
    <glyph glyph-name="uniF3BB.var.accented" unicode="&#xf3bb;`" horiz-adv-x="581" 
d="M413 0v323l7 66h-4l-37 -68l-246 -321h-48v525h83v-321l-7 -67h4l36 68l246 320h49v-525h-83zM152 604v62h296v-62h-296zM252 706l59 149h89v-21l-101 -128h-47z" />
    <glyph glyph-name="uniF3BC.var.accented" unicode="&#xf3bc;`" horiz-adv-x="581" 
d="M413 0v323l7 66h-4l-37 -68l-246 -321h-48v525h83v-321l-7 -67h4l36 68l246 320h49v-525h-83zM133 683q0 22 13.5 36t35.5 14q21 0 34 -14t13 -36q0 -21 -13 -34.5t-34 -13.5q-22 0 -35.5 13.5t-13.5 34.5zM362 683q0 22 13 36t34 14q22 0 35.5 -14t13.5 -36
q0 -21 -13.5 -34.5t-35.5 -13.5q-21 0 -34 13.5t-13 34.5zM224 617l58 144h75v-21l-96 -123h-37z" />
    <glyph glyph-name="uniF3BD.var.accented" unicode="&#xf3bd;`" horiz-adv-x="577" 
d="M56 263q0 130 60.5 200.5t171.5 70.5q116 0 174.5 -72.5t58.5 -198.5q0 -130 -61 -201t-172 -71q-115 0 -173.5 72.5t-58.5 199.5zM144 263q0 -89 36 -145.5t108 -56.5q145 0 145 202q0 88 -36 144.5t-109 56.5q-69 0 -106.5 -50.5t-37.5 -150.5zM129 683q0 22 13.5 36
t35.5 14q21 0 34 -14t13 -36q0 -21 -13 -34.5t-34 -13.5q-22 0 -35.5 13.5t-13.5 34.5zM358 683q0 22 13 36t34 14q22 0 35.5 -14t13.5 -36q0 -21 -13.5 -34.5t-35.5 -13.5q-21 0 -34 13.5t-13 34.5zM220 617l58 144h75v-21l-96 -123h-37z" />
    <glyph glyph-name="uniF3BE.var.accented" unicode="&#xf3be;`" horiz-adv-x="577" 
d="M56 263q0 130 60.5 200.5t171.5 70.5q116 0 174.5 -72.5t58.5 -198.5q0 -130 -61 -201t-172 -71q-115 0 -173.5 72.5t-58.5 199.5zM288 61q133 0 145 170h-289q6 -77 42.5 -123.5t101.5 -46.5zM288 464q-131 0 -144 -163h288q-6 74 -42 118.5t-102 44.5zM247 596l59 149
h89v-21l-101 -128h-47z" />
    <glyph glyph-name="uniF3BF.var.accented" unicode="&#xf3bf;`" horiz-adv-x="577" 
d="M56 263q0 130 60.5 200.5t171.5 70.5q116 0 174.5 -72.5t58.5 -198.5q0 -130 -61 -201t-172 -71q-115 0 -173.5 72.5t-58.5 199.5zM288 61q133 0 145 170h-289q6 -77 42.5 -123.5t101.5 -46.5zM288 464q-131 0 -144 -163h288q-6 74 -42 118.5t-102 44.5zM125 683
q0 22 13.5 36t35.5 14q21 0 34 -14t13 -36q0 -21 -13 -34.5t-34 -13.5q-22 0 -35.5 13.5t-13.5 34.5zM354 683q0 22 13 36t34 14q22 0 35.5 -14t13.5 -36q0 -21 -13.5 -34.5t-35.5 -13.5q-21 0 -34 13.5t-13 34.5zM216 617l58 144h75v-21l-96 -123h-37z" />
    <glyph glyph-name="uniF3C0.var.accented" unicode="&#xf3c0;`" horiz-adv-x="490" 
d="M126 232v70h224q-7 79 -52 120.5t-119 41.5q-67 0 -117 -27l-20 66q59 31 145 31q114 0 180.5 -65.5t66.5 -205.5t-74 -206t-189 -66q-78 0 -131 22l22 71q48 -23 114 -23q71 0 120.5 42t54.5 129h-225zM49 683q0 22 13.5 36t35.5 14q21 0 34 -14t13 -36q0 -21 -13 -34.5
t-34 -13.5q-22 0 -35.5 13.5t-13.5 34.5zM278 683q0 22 13 36t34 14q22 0 35.5 -14t13.5 -36q0 -21 -13.5 -34.5t-35.5 -13.5q-21 0 -34 13.5t-13 34.5zM140 617l58 144h75v-21l-96 -123h-37z" />
    <glyph glyph-name="uniF3C1.var.accented" unicode="&#xf3c1;`" horiz-adv-x="455" 
d="M101 525l131 -257l21 -70h4l15 72l99 255h83q-141 -348 -143 -352q-44 -105 -73.5 -141t-83.5 -36q-49 0 -76 17l24 69q23 -12 51 -12q41 0 61 70l-207 385h94zM89 604v62h296v-62h-296zM189 706l59 149h89v-21l-101 -128h-47z" />
    <glyph glyph-name="uniF3C2.var.accented" unicode="&#xf3c2;`" horiz-adv-x="455" 
d="M101 525l131 -257l21 -70h4l15 72l99 255h83q-141 -348 -143 -352q-44 -105 -73.5 -141t-83.5 -36q-49 0 -76 17l24 69q23 -12 51 -12q41 0 61 70l-207 385h94zM82 683q0 22 13.5 36t35.5 14q21 0 34 -14t13 -36q0 -21 -13 -34.5t-34 -13.5q-22 0 -35.5 13.5t-13.5 34.5z
M311 683q0 22 13 36t34 14q22 0 35.5 -14t13.5 -36q0 -21 -13.5 -34.5t-35.5 -13.5q-21 0 -34 13.5t-13 34.5zM173 617l58 144h75v-21l-96 -123h-37z" />
    <glyph glyph-name="uniF3C3.var.accented" unicode="&#xf3c3;`" horiz-adv-x="455" 
d="M101 525l131 -257l21 -70h4l15 72l99 255h83q-141 -348 -143 -352q-44 -105 -73.5 -141t-83.5 -36q-49 0 -76 17l24 69q23 -12 51 -12q41 0 61 70l-207 385h94zM122 596l15 129h77v-16l-51 -113h-41zM265 596l103 129h85v-16l-144 -113h-44zM220 647l60 148h85v-19
l-99 -129h-46z" />
    <glyph glyph-name="uniF3C6.var.accented" unicode="&#xf3c6;`" horiz-adv-x="674" 
d="M506 0v525h83v-525h-83zM85 5v520h83v-196q36 6 67 6q198 0 198 -163q0 -89 -57 -134t-159 -45q-84 0 -132 12zM225 63q55 0 87.5 27t32.5 78q0 97 -123 97q-28 0 -54 -7v-190q22 -5 57 -5zM168 683q0 22 13.5 36t35.5 14q21 0 34 -14t13 -36q0 -21 -13 -34.5t-34 -13.5
q-22 0 -35.5 13.5t-13.5 34.5zM397 683q0 22 13 36t34 14q22 0 35.5 -14t13.5 -36q0 -21 -13.5 -34.5t-35.5 -13.5q-21 0 -34 13.5t-13 34.5zM259 617l58 144h75v-21l-96 -123h-37z" />
    <glyph glyph-name="uniF684" unicode="&#xf769;&#xf76a;" horiz-adv-x="534" 
d="M104 0v525h83v-525h-83zM355 149v376h83v-397q0 -62 -30.5 -99.5t-91.5 -37.5q-46 0 -79 15l16 69q22 -10 48 -10q32 0 43 21t11 63z" />
    <glyph glyph-name="f_f" unicode="ff" horiz-adv-x="605" 
d="M385 430h-205v-430h-80v430h-78v70h78v28q0 95 32.5 136.5t111.5 41.5q57 0 103 -18l-18 -66q-34 14 -78 14q-21 0 -34.5 -6t-21 -14t-11 -28t-4 -34.5t-0.5 -46.5v-7h205v28q0 95 32.5 136.5t111.5 41.5q61 0 107 -19l-18 -66q-36 15 -82 15q-21 0 -34.5 -6t-21 -14
t-11 -28t-4 -34.5t-0.5 -46.5v-7h134v-70h-134v-430h-80v430z" />
    <glyph glyph-name="fi" unicode="fi" horiz-adv-x="540" 
d="M180 500h282v-500h-80v430h-202v-430h-80v430h-78v70h78v28q0 179 183 179q112 0 177 -39l-27 -64q-52 33 -143 33q-69 0 -89.5 -31.5t-20.5 -105.5z" />
    <glyph glyph-name="fl" unicode="fl" horiz-adv-x="583" 
d="M376 100v534q-40 8 -98 8q-63 0 -80.5 -32.5t-17.5 -109.5h103v-70h-103v-430h-80v430h-78v70h78v28q0 95 41.5 139.5t134.5 44.5q112 0 180 -18v-571q0 -65 46 -65q32 0 63 11l8 -63q-34 -18 -93 -18q-104 0 -104 112z" />
    <glyph glyph-name="f_f_i" unicode="ffi" horiz-adv-x="824" 
d="M384 430h-204v-430h-80v430h-78v70h78v28q0 95 32.5 136.5t111.5 41.5q57 0 103 -18l-18 -66q-34 14 -78 14q-21 0 -34.5 -6t-21 -14t-11 -28t-4 -34.5t-0.5 -46.5v-7h204v28q0 179 183 179q112 0 177 -39l-27 -64q-52 33 -143 33q-69 0 -89.5 -31.5t-20.5 -105.5h284
v-500h-80v430h-204v-430h-80v430z" />
    <glyph glyph-name="f_f_l" unicode="ffl" horiz-adv-x="868" 
d="M385 430h-205v-430h-80v430h-78v70h78v28q0 95 32.5 136.5t111.5 41.5q57 0 103 -18l-18 -66q-34 14 -78 14q-21 0 -34.5 -6t-21 -14t-11 -28t-4 -34.5t-0.5 -46.5v-7h205v28q0 95 41.5 139.5t135.5 44.5q112 0 180 -18v-571q0 -65 46 -65q31 0 62 11l9 -63
q-34 -18 -94 -18q-103 0 -103 112v534q-40 8 -99 8q-63 0 -80.5 -32.5t-17.5 -109.5h103v-70h-103v-430h-80v430z" />
    <glyph glyph-name=".notdef" horiz-adv-x="750" 
d="M50 0v700h650v-700h-650zM620 570l-50 50l-195 -217l-195 217l-50 -50l197 -220l-197 -220l50 -50l195 217l195 -217l50 50l-198 220zM129 63v-36h8v12h4q16 0 16 12t-17 12h-11zM137 57h4q8 0 8 -5q0 -6 -9 -6h-3v11zM189 57v6h-31v-6h12v-30h7v30h12zM222 37
q0 -4 -7 -4q-5 0 -9 2l-3 -7q8 -2 13 -2q14 0 14 12q0 7 -9 10t-9 6t6 3q3 0 9 -2l2 7q-8 2 -11 2q-14 0 -14 -11q0 -7 9 -10.5t9 -5.5zM235 52l2 -5q6 2 9 2q5 0 5 -4v-2l-1 1h-4q-12 0 -12 -10q0 -8 8 -8q6 0 9 5l2 -4h6q-1 1 -1 7v11q0 10 -10 10q-4 0 -13 -3zM245 32
q-4 0 -4 4t5 4h4l1 -1v-3q-1 -4 -6 -4zM284 27h8v16q0 12 -9 12q-7 0 -10 -5l-2 4h-5v-27h7v17q1 4 6 4t5 -6v-15zM299 34l-2 -6q6 -2 10 -2q11 0 11 9q0 5 -8 9q-5 2 -5 3q0 2 3 2q2 0 8 -2l2 6q-6 2 -10 2q-10 0 -10 -9q0 -5 8 -9q5 -2 5 -3q0 -2 -3 -2t-9 2zM338 42
q0 -21 20 -21t20 21q0 20 -20 20q-8 0 -14 -5.5t-6 -14.5zM344 42q0 15 14 15t14 -15t-14 -15t-14 15zM365 33l-1 5q-2 -1 -4 -1q-4 0 -4 5q0 4 4 4h3l2 4q-3 2 -7 2q-9 0 -9 -10q0 -11 9 -11q5 0 7 2zM399 63v-36h8v12h4q16 0 16 12t-17 12h-11zM407 57h4q8 0 8 -5
q0 -6 -9 -6h-3v11zM430 52l2 -5q6 2 9 2q5 0 5 -4v-2l-2 1h-3q-13 0 -13 -10q0 -8 9 -8q6 0 9 5l2 -4h6q-1 1 -1 7v11q0 10 -10 10q-4 0 -13 -3zM440 32q-4 0 -4 4t5 4h3l2 -1v-3q-1 -4 -6 -4zM477 47l1 7q-1 1 -4 1q-4 0 -6 -5h-1l-1 4h-6v-27h8v17q0 4 6 4zM482 52l1 -5
q8 2 9 2q5 0 5 -4v-2l-1 1h-4q-13 0 -13 -10q0 -8 9 -8q7 0 9 5h1l1 -4h6q-1 1 -1 7v11q0 10 -10 10q-3 0 -12 -3zM491 32q-4 0 -4 4t5 4h4l1 -1v-3q-1 -4 -6 -4zM533 57v6h-31v-6h12v-30h7v30h12zM547 39l-6 15h-8l12 -27q-2 -5 -5 -5l-1 1l-2 -6q1 -1 5 -1q6 0 10 13
l10 25h-8l-5 -15v-5h-1zM565 54v-38h8v12q2 -2 5 -2q14 0 14 15q0 14 -11 14q-5 0 -9 -4h-1l-1 3h-5zM579 49q5 0 5 -8q0 -9 -7 -9q-2 0 -4 2v10q0 5 6 5zM621 29l-3 5q-2 -2 -7 -2q-7 0 -7 6h18v6q0 11 -12 11q-14 0 -14 -15q0 -14 14 -14q5 0 11 3zM610 49q6 0 5 -6h-11
q0 6 6 6z" />
    <glyph glyph-name=".null" horiz-adv-x="0" 
 />
    <glyph glyph-name="nonmarkingreturn" horiz-adv-x="333" 
 />
    <glyph glyph-name="space" unicode=" " horiz-adv-x="267" 
 />
    <glyph glyph-name="exclam" unicode="!" horiz-adv-x="305" 
d="M127 353v347h83v-347l-17 -176h-49zM110 46q0 27 15.5 42.5t41.5 15.5q27 0 43 -15.5t16 -42.5q0 -26 -16 -42t-43 -16q-25 0 -41 16t-16 42z" />
    <glyph glyph-name="quotedbl" unicode="&#x22;" horiz-adv-x="335" 
d="M207 507v193h78l-31 -193h-47zM90 507v193h78l-31 -193h-47z" />
    <glyph glyph-name="numbersign" unicode="#" 
d="M241 58l39 167h-105l-39 -167h-69l39 167h-78l14 64h79l31 131h-74l14 64h75l38 158h69l-38 -158h105l38 158h69l-38 -158h77l-16 -64h-76l-31 -131h73l-16 -64h-72l-39 -167h-69zM221 420l-31 -131h105l31 131h-105z" />
    <glyph glyph-name="dollar" unicode="$" 
d="M242 -100v88q-108 1 -166 32l27 73q49 -29 139 -33v270q-38 19 -61 33.5t-49.5 38.5t-39.5 57t-13 75q0 73 41.5 119t121.5 56v91h68v-88q86 -3 142 -29l-24 -70q-48 23 -118 27v-247q40 -20 63.5 -35t52.5 -40.5t42.5 -58.5t13.5 -74q0 -78 -44.5 -129t-127.5 -64v-92
h-68zM399 178q0 44 -27 73t-78 54v-243q48 8 76.5 37t28.5 79zM162 539q0 -39 25 -66.5t71 -52.5v219q-96 -11 -96 -100z" />
    <glyph glyph-name="percent" unicode="%" horiz-adv-x="773" 
d="M70 542q0 86 42.5 128t112.5 42q71 0 113 -40.5t42 -129.5t-42 -129.5t-113 -40.5t-113 40.5t-42 129.5zM144 542q0 -112 81 -112q40 0 60.5 25t20.5 87t-20.5 87t-60.5 25t-60.5 -25t-20.5 -87zM427 170q0 86 42.5 128t112.5 42q71 0 113 -40.5t42 -129.5t-42 -129.5
t-113 -40.5t-113 40.5t-42 129.5zM501 170q0 -112 81 -112q40 0 60.5 25t20.5 87t-20.5 87t-60.5 25t-60.5 -25t-20.5 -87zM123 27l514 686l49 -38l-513 -687z" />
    <glyph glyph-name="ampersand" unicode="&#x26;" horiz-adv-x="814" 
d="M118 187q0 75 48 138t122 109q-59 89 -59 150q0 53 36 90.5t109 37.5q76 0 111 -34.5t35 -84.5q0 -43 -34 -88t-101 -84q67 -115 182 -234q41 45 78 154l62 -29q-12 -35 -41.5 -89.5t-53.5 -83.5q69 -64 125 -95l-50 -56q-53 26 -121 93q-93 -93 -219 -93q-97 0 -163 53
t-66 146zM519 131q-111 114 -194 252q-62 -46 -94.5 -91t-32.5 -103q0 -60 47 -95.5t114 -35.5q47 0 91.5 21.5t68.5 51.5zM307 584q0 -50 45 -118q94 60 94 111q0 72 -69 72q-70 0 -70 -65z" />
    <glyph glyph-name="quotesingle" unicode="'" horiz-adv-x="218" 
d="M90 507v193h78l-31 -193h-47z" />
    <glyph glyph-name="parenleft" unicode="(" horiz-adv-x="280" 
d="M278 -183l-51 -37q-86 90 -126.5 214.5t-40.5 248.5q0 123 41 248t129 221l48 -35q-138 -174 -138 -434q0 -108 34.5 -226t103.5 -200z" />
    <glyph glyph-name="parenright" unicode=")" horiz-adv-x="280" 
d="M2 675l51 37q86 -90 126.5 -214.5t40.5 -248.5q0 -123 -41 -248t-129 -221l-48 35q138 175 138 434q0 108 -34.5 225.5t-103.5 200.5z" />
    <glyph glyph-name="asterisk" unicode="*" horiz-adv-x="351" 
d="M81 687l49 28l25 -42l18 -56l21 57l24 40l48 -26l-26 -43l-46 -48l68 12h48v-56h-46l-64 12l46 -48l23 -39l-47 -28l-26 42l-23 61l-19 -58l-25 -42l-50 28l27 42l42 42l-58 -12h-50v56h50l62 -12l-45 44z" />
    <glyph glyph-name="plus" unicode="+" horiz-adv-x="505" 
d="M40 302v72h176v181h72v-181h176v-72h-176v-181h-72v181h-176z" />
    <glyph glyph-name="comma" unicode="," horiz-adv-x="225" 
d="M49 43q0 24 16 39t41 15q32 0 51 -22.5t19 -63.5q0 -65 -32.5 -105.5t-76.5 -54.5l-25 39q34 13 52.5 42t18.5 61q-9 -3 -17 -3q-20 0 -33.5 14t-13.5 39z" />
    <glyph glyph-name="hyphen" unicode="-" horiz-adv-x="360" 
d="M59 251v74h242v-74h-242z" />
    <glyph glyph-name="period" unicode="." horiz-adv-x="214" 
d="M49 46q0 27 15.5 42.5t41.5 15.5q27 0 43 -15.5t16 -42.5q0 -26 -16 -42t-43 -16q-25 0 -41 16t-16 42z" />
    <glyph glyph-name="slash" unicode="/" horiz-adv-x="354" 
d="M-37 -112l365 824l63 -28l-365 -824z" />
    <glyph glyph-name="zero" unicode="0" 
d="M43 350q0 179 58.5 270.5t170.5 91.5q119 0 174.5 -89.5t55.5 -272.5q0 -179 -58.5 -270.5t-171.5 -91.5q-229 0 -229 362zM126 350q0 -135 36 -213.5t110 -78.5q76 0 111.5 71t35.5 221q0 292 -147 292q-75 0 -110.5 -71.5t-35.5 -220.5z" />
    <glyph glyph-name="one" unicode="1" 
d="M108 0v74h140v484l10 59l-40 -47l-110 -79l-38 51l220 170h36v-638h137v-74h-355z" />
    <glyph glyph-name="two" unicode="2" 
d="M446 541q0 -159 -219 -431l-49 -43v-4l64 11h218v-74h-398v29q43 45 86 95t96 122.5t86 147.5t33 134q0 51 -29.5 82.5t-83.5 31.5q-70 0 -136 -51l-33 57q75 64 186 64q84 0 131.5 -47t47.5 -124z" />
    <glyph glyph-name="three" unicode="3" 
d="M234 58q69 0 113.5 40.5t44.5 104.5q0 68 -41 103t-115 35h-74v29l144 222l46 44l-65 -10h-198v74h357v-29l-159 -239l-35 -29v-2l34 7q81 -2 133.5 -54.5t52.5 -140.5q0 -105 -68.5 -165t-171.5 -60q-84 0 -144 25l21 71q54 -26 125 -26z" />
    <glyph glyph-name="four" unicode="4" 
d="M524 285v-70h-118v-215h-78v215h-308v33l332 463h54v-426h118zM328 285v218l10 82h-3l-35 -68l-141 -191l-48 -49l70 8h147z" />
    <glyph glyph-name="five" unicode="5" 
d="M213 58q71 0 115 41t44 115q0 72 -44 108.5t-123 36.5l-84 -5v346h312v-74h-237v-199l43 2q99 -1 156 -56t57 -154q0 -109 -68.5 -170t-172.5 -61q-79 0 -134 20l21 67q44 -17 115 -17z" />
    <glyph glyph-name="six" unicode="6" 
d="M492 211q0 -95 -57 -159t-156 -64q-101 0 -160 65t-59 182q0 196 94.5 326.5t241.5 150.5l17 -64q-107 -19 -180 -105t-89 -199q17 30 56.5 51t90.5 21q94 0 147.5 -54.5t53.5 -150.5zM409 203q0 143 -135 143q-46 0 -82.5 -23t-51.5 -55q-2 -18 -2 -43q0 -68 37 -117.5
t105 -49.5q57 0 93 41t36 104z" />
    <glyph glyph-name="seven" unicode="7" 
d="M191 0h-81l251 586l44 49l-59 -9h-285v74h418v-27z" />
    <glyph glyph-name="eight" unicode="8" 
d="M68 167q0 63 33 109t103 85q-58 34 -89 74t-31 102q0 78 53 126.5t141 48.5q83 0 133 -44t50 -115q0 -57 -26 -101t-86 -85q61 -36 94.5 -78t33.5 -107q0 -87 -55.5 -140.5t-154.5 -53.5q-93 0 -146 50.5t-53 128.5zM399 177q0 28 -10.5 51.5t-34 43t-42.5 31.5t-53 30
q-57 -32 -85 -73.5t-28 -82.5q0 -51 33 -85t93 -34q54 0 90.5 30.5t36.5 88.5zM162 539q0 -50 33.5 -81.5t99.5 -65.5q88 69 88 144q0 49 -31 77.5t-76 28.5q-52 0 -83 -30.5t-31 -72.5z" />
    <glyph glyph-name="nine" unicode="9" 
d="M52 488q0 100 56.5 162t160.5 62q101 0 158.5 -66.5t57.5 -185.5q0 -215 -92.5 -334.5t-243.5 -137.5l-18 64q114 18 183 95t85 194q-27 -32 -59 -44.5t-86 -12.5q-85 0 -143.5 55t-58.5 149zM135 496q0 -69 37 -105.5t99 -36.5q48 0 83.5 16t50.5 42q2 17 2 44
q0 79 -36 132.5t-107 53.5q-61 0 -95 -38.5t-34 -107.5z" />
    <glyph glyph-name="colon" unicode=":" horiz-adv-x="219" 
d="M91 449q0 27 15.5 42.5t41.5 15.5q27 0 43 -15.5t16 -42.5q0 -26 -16 -42t-43 -16q-25 0 -41 16t-16 42zM91 46q0 27 15.5 42.5t41.5 15.5q27 0 43 -15.5t16 -42.5q0 -26 -16 -42t-43 -16q-25 0 -41 16t-16 42z" />
    <glyph glyph-name="semicolon" unicode=";" horiz-adv-x="256" 
d="M89 43q0 24 16 39t41 15q32 0 51 -22.5t19 -63.5q0 -65 -32.5 -105.5t-76.5 -54.5l-25 39q34 13 52.5 42t18.5 61q-9 -3 -17 -3q-20 0 -33.5 14t-13.5 39zM96 449q0 27 15.5 42.5t41.5 15.5q27 0 43 -15.5t16 -42.5q0 -26 -16 -42t-43 -16q-25 0 -41 16t-16 42z" />
    <glyph glyph-name="less" unicode="&#x3c;" horiz-adv-x="505" 
d="M425 84l-383 221v29l378 231l38 -62l-237 -145l-91 -38l90 -32l243 -144z" />
    <glyph glyph-name="equal" unicode="=" horiz-adv-x="505" 
d="M40 385v72h424v-72h-424zM40 219v72h424v-72h-424z" />
    <glyph glyph-name="greater" unicode="&#x3e;" horiz-adv-x="505" 
d="M80 565l383 -221v-29l-378 -231l-38 61l237 145l91 38l-90 32l-243 144z" />
    <glyph glyph-name="question" unicode="?" horiz-adv-x="436" 
d="M216 177h-66q-1 7 -1 22q0 47 17 86.5t42 67.5t49.5 54.5t41.5 60t17 70.5q0 104 -115 104q-68 0 -137 -42l-27 62q81 50 184 50q85 0 131.5 -45.5t46.5 -117.5q0 -50 -19 -91t-45.5 -70.5t-53.5 -58.5t-46 -67.5t-19 -84.5zM130 46q0 27 15.5 42.5t41.5 15.5
q27 0 43 -15.5t16 -42.5q0 -26 -16 -42t-43 -16q-25 0 -41 16t-16 42z" />
    <glyph glyph-name="at" unicode="@" horiz-adv-x="1064" 
d="M673 460l34 31h34l-51 -287q-10 -58 -10 -83t8.5 -36.5t29.5 -11.5q72 0 129 71.5t57 181.5q0 150 -97.5 234t-256.5 84q-164 0 -277 -114t-113 -287q0 -176 105 -275.5t281 -99.5q71 0 133 28l20 -64q-76 -32 -165 -32q-194 0 -320.5 115t-126.5 321q0 141 64 251
t170 167.5t234 57.5q184 0 303 -104.5t119 -281.5q0 -129 -82 -225.5t-193 -96.5q-45 0 -68.5 19.5t-23.5 65.5q0 21 4 42h-4q-33 -53 -80 -90t-101 -37q-50 0 -84.5 42t-34.5 109q0 131 78.5 237t182.5 106q33 0 54.5 -9.5t47.5 -28.5zM620 230l30 163q-30 35 -77 35
q-75 0 -130 -82.5t-55 -177.5q0 -94 74 -94q37 0 81.5 46.5t76.5 109.5z" />
    <glyph glyph-name="A" unicode="A" horiz-adv-x="585" 
d="M490 0l-72 194h-258l-70 -194h-82l265 711h38l266 -711h-87zM264 477l-77 -211h206l-78 213l-25 106h-1z" />
    <glyph glyph-name="B" unicode="B" horiz-adv-x="584" 
d="M507 540q0 -55 -34 -102t-98 -63v-4q67 -12 110 -53.5t43 -118.5q0 -102 -76.5 -154.5t-184.5 -52.5q-130 0 -182 13v689q86 14 193 14q43 0 80 -7t72.5 -24t56 -52t20.5 -85zM275 64q69 0 117 33.5t48 95.5q0 129 -185 129h-87v-251q31 -7 107 -7zM168 392h52q53 0 81 4
q52 17 85 49t33 78q0 113 -149 113q-74 0 -102 -6v-238z" />
    <glyph glyph-name="C" unicode="C" horiz-adv-x="571" 
d="M513 94l20 -65q-53 -41 -174 -41q-133 0 -218 91.5t-85 270.5q0 94 26.5 166t70.5 113.5t96.5 62t110.5 20.5q101 0 163 -24l-20 -73q-48 23 -137 23q-93 0 -157.5 -69.5t-64.5 -218.5q0 -139 65 -213.5t169 -74.5q83 0 135 32z" />
    <glyph glyph-name="D" unicode="D" horiz-adv-x="654" 
d="M85 -1v701q57 8 187 8q163 0 244.5 -95t81.5 -258q0 -73 -19 -136.5t-57.5 -115.5t-105 -82t-154.5 -30q-123 0 -177 8zM274 634q-82 0 -106 -5v-560q28 -4 96 -4t117.5 23.5t76.5 65.5t39.5 91.5t12.5 109.5q0 41 -7 79t-24 75t-43 64.5t-67.5 44t-94.5 16.5z" />
    <glyph glyph-name="E" unicode="E" horiz-adv-x="536" 
d="M85 0v700h381v-74h-298v-229h273v-74h-273v-249h303v-74h-386z" />
    <glyph glyph-name="F" unicode="F" horiz-adv-x="517" 
d="M85 0v700h381v-74h-298v-239h278v-74h-278v-313h-83z" />
    <glyph glyph-name="G" unicode="G" horiz-adv-x="612" 
d="M321 302v47h235v-308q-32 -24 -85.5 -38.5t-107.5 -14.5q-140 0 -223.5 91t-83.5 271q0 93 27.5 165t73.5 113.5t100 62.5t113 21q103 0 165 -24l-21 -73q-48 23 -137 23q-44 0 -83.5 -15t-74 -47t-55 -90t-20.5 -136q0 -143 62.5 -215.5t169.5 -72.5q64 0 109 25v195z
" />
    <glyph glyph-name="H" unicode="H" horiz-adv-x="672" 
d="M504 0v321h-336v-321h-83v700h83v-305h336v305h83v-700h-83z" />
    <glyph glyph-name="I" unicode="I" horiz-adv-x="291" 
d="M104 0v700h83v-700h-83z" />
    <glyph glyph-name="J" unicode="J" horiz-adv-x="291" 
d="M112 174v526h83v-546q0 -164 -143 -164q-54 0 -86 16l16 71q28 -13 61 -13q40 0 54.5 27.5t14.5 82.5z" />
    <glyph glyph-name="K" unicode="K" horiz-adv-x="610" 
d="M470 0l-255 324h-47v-324h-83v700h83v-326l45 14l235 312h96l-234 -301l-42 -33l51 -40l256 -326h-105z" />
    <glyph glyph-name="L" unicode="L" horiz-adv-x="517" 
d="M499 74v-74h-414v700h83v-626h331z" />
    <glyph glyph-name="M" unicode="M" horiz-adv-x="791" 
d="M623 0v470l10 105h-5l-38 -96l-182 -316h-25l-193 317l-36 95h-5l14 -104v-471h-78v700h62l219 -358l33 -78h2l31 80l209 356h65v-700h-83z" />
    <glyph glyph-name="N" unicode="N" horiz-adv-x="673" 
d="M544 -11l-333 469l-54 101h-4l10 -101v-458h-78v711h44l335 -467l52 -96h5l-11 96v456h78v-711h-44z" />
    <glyph glyph-name="O" unicode="O" horiz-adv-x="684" 
d="M56 350q0 174 74.5 268t210.5 94q143 0 215 -96.5t72 -265.5q0 -174 -75 -268t-212 -94q-142 0 -213.5 96.5t-71.5 265.5zM144 350q0 -124 50 -206t147 -82q95 0 147 72t52 216q0 80 -20 143t-66 104t-113 41q-94 0 -145.5 -72.5t-51.5 -215.5z" />
    <glyph glyph-name="P" unicode="P" horiz-adv-x="559" 
d="M85 0v693q63 15 169 15q51 0 94.5 -9.5t84.5 -32t65 -67t24 -106.5q0 -61 -22.5 -107t-62 -72.5t-86.5 -39t-101 -12.5q-63 0 -82 4v-266h-83zM256 636q-65 0 -88 -6v-290q14 -4 78 -4q188 0 188 157q0 52 -27.5 85.5t-65.5 45.5t-85 12z" />
    <glyph glyph-name="Q" unicode="Q" horiz-adv-x="684" 
d="M704 -99v-72q-43 -12 -93 -12q-71 0 -189.5 33.5t-163.5 33.5q-24 0 -46 -6v73q32 7 54 7q53 0 167.5 -33.5t183.5 -33.5q44 0 87 10zM56 350q0 174 74.5 268t210.5 94q143 0 215 -96.5t72 -265.5q0 -174 -75 -268t-212 -94q-142 0 -213.5 96.5t-71.5 265.5zM144 350
q0 -124 50 -206t147 -82q95 0 147 72t52 216q0 80 -20 143t-66 104t-113 41q-94 0 -145.5 -72.5t-51.5 -215.5z" />
    <glyph glyph-name="R" unicode="R" horiz-adv-x="595" 
d="M85 0v693q77 15 178 15t165.5 -46.5t64.5 -146.5q0 -79 -43.5 -131.5t-115.5 -69.5l48 -37l174 -277h-97l-193 302l-98 15v-317h-83zM265 636q-74 0 -97 -6v-258h78q72 0 115.5 35.5t43.5 104.5q0 54 -38 89t-102 35z" />
    <glyph glyph-name="S" unicode="S" horiz-adv-x="531" 
d="M401 178q0 46 -35 78.5t-84.5 54t-99 45.5t-84.5 69t-35 109q0 82 58 130t161 48q123 0 189 -32l-25 -73q-64 31 -168 31q-63 0 -97.5 -28.5t-34.5 -70.5t35 -74t84.5 -55t99 -48.5t84.5 -70.5t35 -106q0 -90 -63.5 -143.5t-174.5 -53.5q-130 0 -200 37l28 75
q67 -38 169 -38q70 0 114 29t44 87z" />
    <glyph glyph-name="T" unicode="T" horiz-adv-x="555" 
d="M537 700v-74h-218v-626h-83v626h-218v74h519z" />
    <glyph glyph-name="U" unicode="U" horiz-adv-x="652" 
d="M487 256v444h80v-467q0 -123 -61.5 -182.5t-170.5 -59.5q-250 0 -250 226v483h83v-444q0 -104 40.5 -147.5t127.5 -43.5q80 0 115.5 45t35.5 146z" />
    <glyph glyph-name="V" unicode="V" horiz-adv-x="568" 
d="M89 700l178 -481l24 -106h1l26 108l169 479h83l-265 -711h-37l-270 711h91z" />
    <glyph glyph-name="W" unicode="W" horiz-adv-x="828" 
d="M96 700l126 -469l16 -116h1l17 118l144 467h40l145 -469l17 -116h1l18 118l118 467h81l-195 -711h-46l-142 469l-18 106h-5l-18 -107l-142 -468h-46l-200 711h88z" />
    <glyph glyph-name="X" unicode="X" horiz-adv-x="618" 
d="M26 0l233 356l-213 344h100l142 -237l25 -57l24 57l150 237h92l-220 -337l230 -363h-97l-158 251l-27 60l-26 -60l-162 -251h-93z" />
    <glyph glyph-name="Y" unicode="Y" horiz-adv-x="558" 
d="M239 0v278l-231 422h97l164 -306l17 -61h1l18 63l157 304h89l-229 -421v-279h-83z" />
    <glyph glyph-name="Z" unicode="Z" 
d="M38 0v75l353 511l42 40h-395v74h470v-75l-355 -514l-42 -37h397v-74h-470z" />
    <glyph glyph-name="bracketleft" unicode="[" horiz-adv-x="304" 
d="M85 -230v930h181v-70h-103v-790h103v-70h-181z" />
    <glyph glyph-name="backslash" unicode="\" horiz-adv-x="380" 
d="M30 712l369 -823l-66 -29l-370 824z" />
    <glyph glyph-name="bracketright" unicode="]" horiz-adv-x="304" 
d="M220 700v-930h-182v70h104v790h-104v70h182z" />
    <glyph glyph-name="asciicircum" unicode="^" horiz-adv-x="500" 
d="M48 435l186 276h29l169 -276h-82l-80 135l-23 69l-31 -70l-92 -134h-76z" />
    <glyph glyph-name="underscore" unicode="_" horiz-adv-x="408" 
d="M0 -205v70h408v-70h-408z" />
    <glyph glyph-name="grave" unicode="`" horiz-adv-x="280" 
d="M155 720l65 -149h-45l-115 128v21h95z" />
    <glyph glyph-name="a" unicode="a" horiz-adv-x="496" 
d="M94 404l-25 59q75 45 194 45q50 0 83.5 -13.5t49 -37.5t21 -48t5.5 -55q0 -42 -3 -117t-3 -108q0 -84 14 -131h-59l-21 70h-5q-51 -76 -156 -76q-65 0 -107.5 39t-42.5 103q0 83 64.5 118t182.5 35q36 0 55 -2q3 30 3 54q0 56 -22 77.5t-80 21.5q-35 0 -78 -9.5
t-70 -24.5zM211 62q52 0 84.5 23.5t45.5 55.5v83q-38 2 -57 2q-162 0 -162 -84q0 -35 25 -57.5t64 -22.5z" />
    <glyph glyph-name="b" unicode="b" horiz-adv-x="540" 
d="M77 29v671h80v-249h4q47 61 136 61q194 0 194 -254q0 -129 -64 -198t-180 -69q-110 0 -170 38zM283 442q-96 0 -126 -107v-253q37 -21 102 -21q70 0 109.5 49.5t39.5 148.5q0 84 -30.5 133.5t-94.5 49.5z" />
    <glyph glyph-name="c" unicode="c" horiz-adv-x="451" 
d="M392 94l26 -61q-62 -45 -157 -45q-212 0 -212 262q0 126 56.5 194t160.5 68q87 0 142 -29l-23 -69q-51 28 -111 28q-142 0 -142 -192q0 -84 35.5 -138t113.5 -54q66 0 111 36z" />
    <glyph glyph-name="d" unicode="d" horiz-adv-x="538" 
d="M461 700v-528q0 -121 10 -174h-54l-20 71h-4q-20 -36 -59 -58.5t-88 -22.5q-100 0 -148.5 64t-48.5 196q0 125 60.5 193t166.5 68q58 0 105 -17v208h80zM259 58q100 0 122 107v249q-33 25 -102 25q-147 0 -147 -191q0 -190 127 -190z" />
    <glyph glyph-name="e" unicode="e" horiz-adv-x="508" 
d="M412 98l30 -58q-65 -52 -172 -52q-111 0 -166 69t-55 193q0 126 57.5 194t162.5 68q38 0 68.5 -8t60 -27.5t45.5 -60.5t16 -101q0 -33 -6 -73h-321q1 -91 38.5 -137.5t122.5 -46.5q33 0 67 12t52 28zM270 442q-125 0 -137 -137h248q0 73 -28 105t-83 32z" />
    <glyph glyph-name="f" unicode="f" horiz-adv-x="319" 
d="M22 430v70h78v28q0 95 32.5 136.5t110.5 41.5q62 0 108 -19l-18 -66q-36 15 -82 15q-48 0 -59.5 -26.5t-11.5 -95.5v-14h133v-70h-133v-430h-80v430h-78z" />
    <glyph glyph-name="g" unicode="g" horiz-adv-x="537" 
d="M460 479v-502q0 -189 -204 -189q-100 0 -159 27l21 67q62 -24 124 -24q81 0 110 32t29 111v48h-4q-42 -60 -132 -60q-100 0 -148 63.5t-48 195.5q0 128 61.5 194.5t179.5 66.5q89 0 170 -30zM259 59q51 0 80 25.5t41 79.5v257q-38 18 -102 18q-69 0 -107.5 -47.5
t-38.5 -142.5q0 -190 127 -190z" />
    <glyph glyph-name="h" unicode="h" horiz-adv-x="547" 
d="M478 0h-80v285q0 83 -22.5 120t-84.5 37q-47 0 -85.5 -30.5t-48.5 -78.5v-333h-80v700h80v-256h4q58 68 153 68q88 0 126 -45t38 -165v-302z" />
    <glyph glyph-name="i" unicode="i" horiz-adv-x="268" 
d="M94 0v500h80v-500h-80zM77 652q0 23 15.5 39.5t39.5 16.5t41 -16.5t17 -39.5q0 -22 -17 -37.5t-41 -15.5t-39.5 15t-15.5 38z" />
    <glyph glyph-name="j" unicode="j" horiz-adv-x="267" 
d="M93 3v497h80v-527q0 -93 -32.5 -139t-101.5 -46q-8 0 -30 2v68q53 0 68.5 32t15.5 113zM76 652q0 23 15.5 39.5t39.5 16.5t41 -16.5t17 -39.5q0 -22 -17 -37.5t-41 -15.5t-39.5 15t-15.5 38z" />
    <glyph glyph-name="k" unicode="k" horiz-adv-x="479" 
d="M370 0l-167 225h-46v-225h-80v700h80v-426l41 14l155 212h93l-153 -201l-41 -33l50 -40l167 -226h-99z" />
    <glyph glyph-name="l" unicode="l" horiz-adv-x="292" 
d="M166 700v-577q0 -65 46 -65q31 0 62 11l9 -63q-34 -18 -94 -18q-103 0 -103 112v600h80z" />
    <glyph glyph-name="m" unicode="m" horiz-adv-x="812" 
d="M450 0h-80v283q0 86 -18.5 122.5t-75.5 36.5q-44 0 -75 -27.5t-44 -70.5v-344h-80v500h56l15 -61h4q61 73 155 73q96 0 126 -83q23 39 64 61t91 22q86 0 120.5 -45t34.5 -167v-300h-80v301q0 76 -19 108.5t-76 32.5q-93 0 -118 -108v-334z" />
    <glyph glyph-name="n" unicode="n" horiz-adv-x="547" 
d="M478 0h-80v285q0 81 -23.5 119t-81.5 38q-51 0 -86.5 -27.5t-49.5 -72.5v-342h-80v500h56l15 -61h4q56 73 161 73q86 0 125.5 -45.5t39.5 -164.5v-302z" />
    <glyph glyph-name="o" unicode="o" horiz-adv-x="536" 
d="M49 250q0 126 57 194t162 68q109 0 164 -69.5t55 -192.5q0 -126 -57 -194t-162 -68q-109 0 -164 69.5t-55 192.5zM132 250q0 -84 33 -138t103 -54q136 0 136 192q0 84 -33 138t-103 54q-136 0 -136 -192z" />
    <glyph glyph-name="p" unicode="p" horiz-adv-x="541" 
d="M77 -200v700h55l15 -60h4q46 72 143 72q101 0 149.5 -60t48.5 -192q0 -126 -62.5 -199t-167.5 -73q-58 0 -105 20v-208h-80zM279 442q-98 0 -122 -107v-249q37 -28 102 -28q69 0 109.5 53t40.5 150q0 181 -130 181z" />
    <glyph glyph-name="q" unicode="q" horiz-adv-x="537" 
d="M460 478v-678h-80v250h-4q-40 -62 -131 -62q-100 0 -148 64t-48 196q0 128 62 194.5t181 66.5q104 0 168 -31zM259 58q97 0 121 106v257q-35 18 -102 18q-70 0 -108 -47.5t-38 -142.5q0 -191 127 -191z" />
    <glyph glyph-name="r" unicode="r" horiz-adv-x="340" 
d="M330 500l-17 -77q-30 10 -57 10q-41 0 -67 -23t-32 -60v-350h-80v500h56l15 -61h4q39 71 113 71q29 0 65 -10z" />
    <glyph glyph-name="s" unicode="s" horiz-adv-x="421" 
d="M297 136q0 28 -18 47t-44.5 28.5t-58 22.5t-58 26.5t-44.5 42.5t-18 70q0 139 155 139q86 0 154 -32l-19 -65q-56 27 -125 27q-44 0 -64.5 -15.5t-20.5 -51.5q0 -28 25 -46t60 -30.5t70.5 -28t60.5 -48.5t25 -83q0 -67 -44.5 -109t-129.5 -42q-97 0 -164 37l24 67
q62 -34 135 -34q99 0 99 78z" />
    <glyph glyph-name="t" unicode="t" horiz-adv-x="339" 
d="M11 430v70h78v99l80 23v-122h136v-70h-136v-277q0 -52 13 -73.5t44 -21.5q38 0 84 19l18 -60q-61 -29 -128 -29q-60 0 -85.5 34.5t-25.5 115.5v292h-78z" />
    <glyph glyph-name="u" unicode="u" horiz-adv-x="539" 
d="M69 500h80v-285q0 -83 21 -120t77 -37q95 0 135 108v334h80v-358q0 -88 11 -142h-55l-20 79h-5q-53 -91 -161 -91q-85 0 -124 45.5t-39 164.5v302z" />
    <glyph glyph-name="v" unicode="v" horiz-adv-x="482" 
d="M101 500l120 -293l28 -95h1l25 97l112 291h86l-213 -511h-34l-217 511h92z" />
    <glyph glyph-name="w" unicode="w" horiz-adv-x="735" 
d="M343 500h58l115 -292l25 -96h2l19 98l89 290h76l-168 -511h-39l-131 330l-19 82h-3l-20 -83l-126 -329h-39l-174 511h87l99 -291l17 -97h1l24 99z" />
    <glyph glyph-name="x" unicode="x" horiz-adv-x="515" 
d="M28 0l180 256l-168 244h98l95 -138l28 -57l29 57l97 138h90l-169 -240l179 -260h-95l-106 152l-30 60l-31 -60l-108 -152h-89z" />
    <glyph glyph-name="y" unicode="y" horiz-adv-x="466" 
d="M104 500l120 -324l28 -96h5l22 97l97 323h81l-148 -449q-15 -45 -22.5 -65.5t-22 -57.5t-26 -55t-28 -39.5t-35 -30t-39.5 -8.5q-36 0 -59 10l14 69q13 -5 25 -5q67 0 97 131l-201 500h92z" />
    <glyph glyph-name="z" unicode="z" horiz-adv-x="447" 
d="M42 0v70l231 318l42 42h-273v70h356v-70l-233 -321l-41 -39h274v-70h-356z" />
    <glyph glyph-name="braceleft" unicode="{" horiz-adv-x="346" 
d="M137 -126v238q0 49 -20 68.5t-60 19.5v70q80 0 80 84v242q0 48 24 76.5t71 28.5h85v-70h-50q-27 0 -39.5 -13.5t-12.5 -45.5v-237q0 -41 -20 -65.5t-50 -29.5v-6q28 -4 49 -31.5t21 -67.5v-236q0 -31 12.5 -45t40.5 -14h49v-70h-85q-45 0 -70 27t-25 77z" />
    <glyph glyph-name="bar" unicode="|" horiz-adv-x="238" 
d="M85 -130v830h68v-830h-68z" />
    <glyph glyph-name="braceright" unicode="}" horiz-adv-x="346" 
d="M235 597v-238q0 -49 20 -68.5t60 -19.5v-70q-80 0 -80 -84v-242q0 -48 -24 -76.5t-71 -28.5h-85v70h50q27 0 39.5 13.5t12.5 45.5v237q0 41 19.5 65.5t49.5 29.5v6q-28 4 -48.5 31.5t-20.5 67.5v236q0 31 -12 45t-40 14h-50v70h86q44 0 69 -27t25 -77z" />
    <glyph glyph-name="asciitilde" unicode="~" horiz-adv-x="505" 
d="M65 301l-34 60q76 59 142 59q39 0 98 -27.5t87 -27.5q39 0 82 36l34 -61q-68 -47 -124 -47q-37 0 -92.5 27.5t-85.5 27.5q-49 0 -107 -47z" />
    <glyph glyph-name="uni00A0" unicode="&#xa0;" horiz-adv-x="267" 
 />
    <glyph glyph-name="exclamdown" unicode="&#xa1;" horiz-adv-x="304" 
d="M176 147v-347h-83v347l17 176h49zM77 453q0 27 15.5 42.5t41.5 15.5q27 0 43 -15.5t16 -42.5q0 -26 -16 -42t-43 -16q-25 0 -41 16t-16 42z" />
    <glyph glyph-name="cent" unicode="&#xa2;" 
d="M435 94l26 -61q-47 -34 -120 -42v-91h-71v90q-183 18 -183 260q0 114 47.5 181t135.5 78v91h71v-89q65 -4 111 -28l-23 -68q-43 22 -95 26v-383q60 4 101 36zM170 250q0 -161 110 -188v377q-110 -21 -110 -189z" />
    <glyph glyph-name="sterling" unicode="&#xa3;" 
d="M50 313v70h66q-28 63 -28 130q0 96 55.5 147.5t153.5 51.5q111 0 180 -32l-26 -71q-58 29 -155 29q-59 0 -92 -32.5t-33 -87.5q0 -59 34 -135h161v-70h-131q18 -54 18 -103q0 -72 -36 -113l-39 -33v-4l62 14h256v-74h-446v72q59 1 89.5 39.5t30.5 91.5t-23 110h-97z" />
    <glyph glyph-name="currency" unicode="&#xa4;" 
d="M21 547l49 49l78 -77l21 -35q42 33 103 33q59 0 103 -33l22 35l78 77l49 -49l-77 -78l-35 -22q32 -43 32 -102q0 -60 -32 -103l35 -21l77 -78l-49 -48l-78 77l-21 33q-43 -31 -104 -31q-62 0 -103 31l-21 -33l-78 -77l-49 48l77 78l34 22q-31 42 -31 102q0 56 31 103
l-34 21zM170 345q0 -45 28.5 -75t73.5 -30t74 30t29 75t-29 75.5t-74 30.5t-73.5 -30.5t-28.5 -75.5z" />
    <glyph glyph-name="yen" unicode="&#xa5;" 
d="M111 268v60h94l-203 372h97l164 -306l17 -61h1l18 63l157 304h89l-203 -372h96v-60h-122v-71h122v-60h-122v-137h-83v137h-122v60h122v71h-122z" />
    <glyph glyph-name="brokenbar" unicode="&#xa6;" horiz-adv-x="238" 
d="M85 -130v336h68v-336h-68zM153 700v-336h-68v336h68z" />
    <glyph glyph-name="section" unicode="&#xa7;" horiz-adv-x="497" 
d="M57 353q0 63 57 113l41 14q-61 37 -61 106q0 56 42.5 91t114.5 35q90 0 156 -31l-19 -67q-60 28 -126 28q-88 0 -88 -59q0 -28 27.5 -45.5t66.5 -29.5t78 -28t66.5 -49.5t27.5 -83.5q0 -63 -56 -112l-45 -14q64 -37 64 -107q0 -60 -44 -93t-114 -33q-88 0 -156 33l20 65
q58 -28 126 -28q88 0 88 59q0 28 -27.5 46t-66.5 30t-78 27.5t-66.5 49t-27.5 83.5zM360 345q0 19 -7 33.5t-26.5 26t-31 17t-43.5 16t-42 14.5q-73 -32 -73 -97q0 -16 6.5 -29.5t14.5 -22t26 -17t29 -13t35.5 -12.5t35.5 -12q31 14 53.5 40t22.5 56z" />
    <glyph glyph-name="dieresis" unicode="&#xa8;" horiz-adv-x="411" 
d="M60 653q0 23 13.5 37t35.5 14t35.5 -14t13.5 -37q0 -21 -13.5 -35t-35.5 -14t-35.5 14t-13.5 35zM252 653q0 23 13.5 37t35.5 14t36 -14t14 -37q0 -21 -14 -35t-36 -14t-35.5 14t-13.5 35z" />
    <glyph glyph-name="copyright" unicode="&#xa9;" horiz-adv-x="806" 
d="M51 290q0 161 101 256.5t251 95.5t251 -95.5t101 -256.5t-101 -256.5t-251 -95.5q-161 0 -256.5 94t-95.5 258zM121 290q0 -134 80 -210t202 -76t202 76t80 210t-80 210t-202 76t-202 -76t-80 -210zM498 187l21 -60q-48 -27 -118 -27q-79 0 -122.5 51t-43.5 139
q0 90 45 140t121 50q49 0 111 -27l-26 -61q-37 18 -76 18q-95 0 -95 -120t103 -120q49 0 80 17z" />
    <glyph glyph-name="ordfeminine" unicode="&#xaa;" horiz-adv-x="386" 
d="M83 627l-15 50q60 31 157 31q60 0 84 -25t24 -76q0 -27 -1.5 -73.5t-1.5 -66.5q0 -54 8 -87h-55l-13 46h-4q-39 -50 -104 -50q-52 0 -83 26t-31 69q0 111 190 111q4 0 13 -0.5t14 -0.5q1 8 1 22q0 27 -12.5 38t-45.5 11q-77 0 -125 -25zM173 432q67 0 92 55v42
q-14 1 -42 1q-105 0 -105 -54q0 -20 14.5 -32t40.5 -12z" />
    <glyph glyph-name="guillemotleft" unicode="&#xab;" horiz-adv-x="478" 
d="M387 40l-165 219l158 228l53 -42l-97 -144l-48 -41l48 -36l103 -141zM205 38l-166 221l160 230l54 -43l-98 -145l-48 -41l48 -36l104 -142z" />
    <glyph glyph-name="logicalnot" unicode="&#xac;" horiz-adv-x="505" 
d="M41 320v72h424v-192h-72v120h-352z" />
    <glyph glyph-name="uni00AD" unicode="&#xad;" horiz-adv-x="360" 
d="M58 251v74h244v-74h-244z" />
    <glyph glyph-name="registered" unicode="&#xae;" horiz-adv-x="700" 
d="M85 451q0 124 76 194.5t189 70.5q115 0 190 -70.5t75 -194.5t-76 -194.5t-189 -70.5q-115 0 -190 70.5t-75 194.5zM148 451q0 -99 57.5 -152.5t144.5 -53.5q91 0 146.5 52.5t55.5 153.5q0 99 -57 152.5t-145 53.5q-91 0 -146.5 -53t-55.5 -153zM247 322v259q35 10 100 10
q46 0 74 -19t28 -59q0 -31 -20 -48.5t-51 -19.5l28 -14l74 -109h-61l-72 104l-48 15v-119h-52zM336 546q-29 0 -37 -4v-71h34q61 0 61 40q0 35 -58 35z" />
    <glyph glyph-name="macron" unicode="&#xaf;" horiz-adv-x="416" 
d="M60 581v62h296v-62h-296z" />
    <glyph glyph-name="degree" unicode="&#xb0;" horiz-adv-x="425" 
d="M85 571q0 61 41 101t100 40q60 0 100.5 -38.5t40.5 -102.5t-40.5 -102.5t-100.5 -38.5t-100.5 38.5t-40.5 102.5zM148 571q0 -36 23 -58.5t55 -22.5t55 22.5t23 58.5t-23 58.5t-55 22.5t-55 -22.5t-23 -58.5z" />
    <glyph glyph-name="plusminus" unicode="&#xb1;" horiz-adv-x="505" 
d="M40 421v72h176v181h72v-181h176v-72h-176v-120h-72v120h-176zM40 178v72h424v-72h-424z" />
    <glyph glyph-name="twosuperior" unicode="&#xb2;" horiz-adv-x="394" 
d="M319 690q0 -56 -33.5 -108.5t-97.5 -119.5l-46 -32v-2l57 15h140v-63h-291v33q29 23 58.5 52t64 67t56.5 78t22 71q0 30 -19.5 46t-49.5 16q-49 0 -97 -31l-22 57q54 38 131 38q62 0 94.5 -31t32.5 -86z" />
    <glyph glyph-name="threesuperior" unicode="&#xb3;" horiz-adv-x="394" 
d="M168 433q100 0 100 75q0 72 -98 72h-55v23l97 116l34 27l-49 -6h-130v60h256v-33l-103 -123l-25 -18v-2l23 3q55 -1 87.5 -33t32.5 -86q0 -61 -45 -98t-119 -37q-51 0 -108 19l15 60q42 -19 87 -19z" />
    <glyph glyph-name="acute" unicode="&#xb4;" horiz-adv-x="268" 
d="M60 571l59 149h89v-21l-101 -128h-47z" />
    <glyph glyph-name="mu" unicode="&#xb5;" horiz-adv-x="552" 
d="M68 500h80v-283q0 -81 25.5 -120t84.5 -39q54 0 92.5 32t53.5 86v324h80v-337q0 -103 15 -163h-55l-28 74h-4q-22 -37 -64.5 -61.5t-98.5 -24.5q-76 0 -117 50h-5l21 -105v-133h-80v700z" />
    <glyph glyph-name="mu" unicode="&#x3bc;" horiz-adv-x="552" 
d="M68 500h80v-283q0 -81 25.5 -120t84.5 -39q54 0 92.5 32t53.5 86v324h80v-337q0 -103 15 -163h-55l-28 74h-4q-22 -37 -64.5 -61.5t-98.5 -24.5q-76 0 -117 50h-5l21 -105v-133h-80v700z" />
    <glyph glyph-name="paragraph" unicode="&#xb6;" horiz-adv-x="494" 
d="M341 -130v830h68v-830h-68zM185 -130v440q-61 0 -104.5 60t-43.5 136q0 78 47 136t124 58h45v-830h-68z" />
    <glyph glyph-name="periodcentered" unicode="&#xb7;" horiz-adv-x="267" 
d="M76 296q0 27 15.5 42.5t41.5 15.5q27 0 43 -15.5t16 -42.5q0 -26 -16 -42t-43 -16q-25 0 -41 16t-16 42z" />
    <glyph glyph-name="cedilla" unicode="&#xb8;" horiz-adv-x="287" 
d="M115 0h57l-24 -43q79 -14 79 -75q0 -40 -32.5 -65t-89.5 -25q-24 0 -45 4l9 39q8 -1 21 -1q63 0 63 39q0 28 -86 37z" />
    <glyph glyph-name="onesuperior" unicode="&#xb9;" horiz-adv-x="394" 
d="M72 380v61h106v254l7 36l-27 -28l-78 -47l-27 49l154 102h41v-366h95v-61h-271z" />
    <glyph glyph-name="ordmasculine" unicode="&#xba;" horiz-adv-x="398" 
d="M44 542q0 86 42.5 128t112.5 42q71 0 113 -40.5t42 -129.5t-42 -129.5t-113 -40.5t-113 40.5t-42 129.5zM118 542q0 -112 81 -112q40 0 60.5 25t20.5 87t-20.5 87t-60.5 25t-60.5 -25t-20.5 -87z" />
    <glyph glyph-name="guillemotright" unicode="&#xbb;" horiz-adv-x="478" 
d="M91 487l166 -219l-160 -228l-52 42l96 144l49 41l-49 36l-102 141zM272 489l167 -221l-160 -230l-54 43l98 145l48 41l-48 36l-104 142z" />
    <glyph glyph-name="onequarter" unicode="&#xbc;" horiz-adv-x="837" 
d="M141 24l487 689l52 -35l-487 -690zM797 155v-59h-83v-96h-67v96h-204v37l226 302h45v-280h83zM647 155v128l6 49h-2l-22 -46l-78 -105l-33 -31l50 5h79zM178 280v315l7 36l-27 -28l-78 -47l-27 49l154 102h41v-427h-70z" />
    <glyph glyph-name="onehalf" unicode="&#xbd;" horiz-adv-x="850" 
d="M141 24l487 689l52 -35l-487 -690zM790 310q0 -56 -33.5 -108.5t-97.5 -119.5l-46 -32v-2l57 15h140v-63h-291v33q29 23 58.5 52t64 67t56.5 78t22 71q0 30 -19.5 46t-49.5 16q-49 0 -97 -31l-22 57q54 38 131 38q62 0 94.5 -31t32.5 -86zM178 280v315l7 36l-27 -28
l-78 -47l-27 49l154 102h41v-427h-70z" />
    <glyph glyph-name="threequarters" unicode="&#xbe;" horiz-adv-x="876" 
d="M180 24l487 689l52 -35l-487 -690zM836 155v-59h-83v-96h-67v96h-204v37l226 302h45v-280h83zM686 155v128l6 49h-2l-22 -46l-78 -105l-33 -31l50 5h79zM178 333q100 0 100 75q0 72 -98 72h-55v23l97 116l34 27l-49 -6h-130v60h256v-33l-103 -123l-25 -18v-2l23 3
q55 -1 87.5 -33t32.5 -86q0 -61 -45 -98t-119 -37q-51 0 -108 19l15 60q42 -19 87 -19z" />
    <glyph glyph-name="questiondown" unicode="&#xbf;" horiz-adv-x="436" 
d="M220 323h66q1 -7 1 -22q0 -47 -17 -86.5t-41.5 -67.5t-49.5 -54.5t-42 -60t-17 -70.5q0 -104 115 -104q68 0 137 42l27 -62q-81 -50 -184 -50q-85 0 -131.5 45.5t-46.5 117.5q0 50 19 91t45.5 70.5t53.5 58.5t46 67.5t19 84.5zM191 454q0 27 15.5 42.5t41.5 15.5
q27 0 43 -15.5t16 -42.5q0 -26 -16 -42t-43 -16q-25 0 -41 16t-16 42z" />
    <glyph glyph-name="Agrave" unicode="&#xc0;" horiz-adv-x="585" 
d="M490 0l-72 194h-258l-70 -194h-82l265 711h38l266 -711h-87zM264 477l-77 -211h206l-78 213l-25 106h-1zM249 870l118 -118h-74l-158 97v21h114z" />
    <glyph glyph-name="Aacute" unicode="&#xc1;" horiz-adv-x="585" 
d="M490 0l-72 194h-258l-70 -194h-82l265 711h38l266 -711h-87zM264 477l-77 -211h206l-78 213l-25 106h-1zM213 752l118 118h114v-21l-163 -97h-69z" />
    <glyph glyph-name="Acircumflex" unicode="&#xc2;" horiz-adv-x="585" 
d="M490 0l-72 194h-258l-70 -194h-82l265 711h38l266 -711h-87zM264 477l-77 -211h206l-78 213l-25 106h-1zM132 769l133 101h60l127 -102v-21h-81l-60 49l-17 35l-19 -34l-64 -50h-79v22z" />
    <glyph glyph-name="Atilde" unicode="&#xc3;" horiz-adv-x="585" 
d="M490 0l-72 194h-258l-70 -194h-82l265 711h38l266 -711h-87zM264 477l-77 -211h206l-78 213l-25 106h-1zM159 744l-24 41q54 55 108 55q27 0 71.5 -16.5t63.5 -16.5q26 0 50 21l25 -43q-48 -44 -96 -44q-26 0 -69.5 16.5t-64.5 16.5q-34 0 -64 -30z" />
    <glyph glyph-name="Adieresis" unicode="&#xc4;" horiz-adv-x="585" 
d="M490 0l-72 194h-258l-70 -194h-82l265 711h38l266 -711h-87zM264 477l-77 -211h206l-78 213l-25 106h-1zM144 794q0 21 15 34t39 13q23 0 37.5 -13t14.5 -34q0 -20 -14.5 -33t-37.5 -13q-24 0 -39 13t-15 33zM336 794q0 21 14.5 34t37.5 13q24 0 39 -13t15 -34
q0 -20 -15 -33t-39 -13q-23 0 -37.5 13t-14.5 33z" />
    <glyph glyph-name="Aring" unicode="&#xc5;" horiz-adv-x="585" 
d="M188 768q0 39 26 62t79 23q50 0 78 -22t28 -63q0 -32 -20.5 -53.5t-58.5 -27.5l257 -687h-87l-72 194h-258l-70 -194h-82l256 687q-76 12 -76 81zM264 477l-77 -211h206l-78 213l-25 106h-1zM249 768q0 -40 44 -40q21 0 33 11t12 29q0 42 -45 42q-44 0 -44 -42z" />
    <glyph glyph-name="AE" unicode="&#xc6;" horiz-adv-x="846" 
d="M395 600h-4l-34 -103l-133 -229h171v332zM395 0v198h-214l-112 -198h-91l415 700h383v-74h-298v-229h273v-74h-273v-249h303v-74h-386z" />
    <glyph glyph-name="Ccedilla" unicode="&#xc7;" horiz-adv-x="571" 
d="M513 94l20 -65q-47 -37 -147 -40l-17 -32q79 -14 79 -75q0 -40 -32.5 -65t-89.5 -25q-24 0 -45 4l9 39q8 -1 21 -1q63 0 63 39q0 28 -86 37l42 80q-123 9 -198.5 99.5t-75.5 260.5q0 94 26.5 166t70.5 113.5t96.5 62t110.5 20.5q101 0 163 -24l-20 -73q-48 23 -137 23
q-93 0 -157.5 -69.5t-64.5 -218.5q0 -139 65 -213.5t169 -74.5q83 0 135 32z" />
    <glyph glyph-name="Egrave" unicode="&#xc8;" horiz-adv-x="536" 
d="M85 0v700h381v-74h-298v-229h273v-74h-273v-249h303v-74h-386zM208 870l118 -118h-74l-158 97v21h114z" />
    <glyph glyph-name="Eacute" unicode="&#xc9;" horiz-adv-x="536" 
d="M85 0v700h381v-74h-298v-229h273v-74h-273v-249h303v-74h-386zM212 752l118 118h114v-21l-163 -97h-69z" />
    <glyph glyph-name="Ecircumflex" unicode="&#xca;" horiz-adv-x="536" 
d="M85 0v700h381v-74h-298v-229h273v-74h-273v-249h303v-74h-386zM109 769l133 101h60l127 -102v-21h-81l-60 49l-17 35l-19 -34l-64 -50h-79v22z" />
    <glyph glyph-name="Edieresis" unicode="&#xcb;" horiz-adv-x="536" 
d="M85 0v700h381v-74h-298v-229h273v-74h-273v-249h303v-74h-386zM120 794q0 21 15 34t39 13q23 0 37.5 -13t14.5 -34q0 -20 -14.5 -33t-37.5 -13q-24 0 -39 13t-15 33zM312 794q0 21 14.5 34t37.5 13q24 0 39 -13t15 -34q0 -20 -15 -33t-39 -13q-23 0 -37.5 13t-14.5 33z
" />
    <glyph glyph-name="Igrave" unicode="&#xcc;" horiz-adv-x="291" 
d="M104 0v700h83v-700h-83zM114 870l118 -118h-74l-158 97v21h114z" />
    <glyph glyph-name="Iacute" unicode="&#xcd;" horiz-adv-x="291" 
d="M104 0v700h83v-700h-83zM62 752l118 118h114v-21l-163 -97h-69z" />
    <glyph glyph-name="Icircumflex" unicode="&#xce;" horiz-adv-x="291" 
d="M104 0v700h83v-700h-83zM-16 769l133 101h60l127 -102v-21h-81l-60 49l-17 35l-19 -34l-64 -50h-79v22z" />
    <glyph glyph-name="Idieresis" unicode="&#xcf;" horiz-adv-x="291" 
d="M104 0v700h83v-700h-83zM-3 794q0 21 15 34t39 13q23 0 37.5 -13t14.5 -34q0 -20 -14.5 -33t-37.5 -13q-24 0 -39 13t-15 33zM189 794q0 21 14.5 34t37.5 13q24 0 39 -13t15 -34q0 -20 -15 -33t-39 -13q-23 0 -37.5 13t-14.5 33z" />
    <glyph glyph-name="Eth" unicode="&#xd0;" horiz-adv-x="658" 
d="M-1 332v60h90v308q57 8 187 8q163 0 244.5 -95t81.5 -258q0 -73 -19 -136.5t-57.5 -115.5t-105 -82t-154.5 -30q-123 0 -177 8v333h-90zM278 634q-82 0 -106 -5v-237h147v-60h-147v-263q28 -4 96 -4t117.5 23.5t76.5 65.5t39.5 91.5t12.5 109.5q0 41 -7 79t-24 75
t-43 64.5t-67.5 44t-94.5 16.5z" />
    <glyph glyph-name="Ntilde" unicode="&#xd1;" horiz-adv-x="673" 
d="M544 -11l-333 469l-54 101h-4l10 -101v-458h-78v711h44l335 -467l52 -96h5l-11 96v456h78v-711h-44zM203 744l-24 41q54 55 108 55q27 0 71.5 -16.5t63.5 -16.5q26 0 50 21l25 -43q-48 -44 -96 -44q-26 0 -69.5 16.5t-64.5 16.5q-34 0 -64 -30z" />
    <glyph glyph-name="Ograve" unicode="&#xd2;" horiz-adv-x="684" 
d="M56 350q0 174 74.5 268t210.5 94q143 0 215 -96.5t72 -265.5q0 -174 -75 -268t-212 -94q-142 0 -213.5 96.5t-71.5 265.5zM144 350q0 -124 50 -206t147 -82q95 0 147 72t52 216q0 80 -20 143t-66 104t-113 41q-94 0 -145.5 -72.5t-51.5 -215.5zM292 870l118 -118h-74
l-158 97v21h114z" />
    <glyph glyph-name="Oacute" unicode="&#xd3;" horiz-adv-x="684" 
d="M56 350q0 174 74.5 268t210.5 94q143 0 215 -96.5t72 -265.5q0 -174 -75 -268t-212 -94q-142 0 -213.5 96.5t-71.5 265.5zM144 350q0 -124 50 -206t147 -82q95 0 147 72t52 216q0 80 -20 143t-66 104t-113 41q-94 0 -145.5 -72.5t-51.5 -215.5zM297 752l118 118h114v-21
l-163 -97h-69z" />
    <glyph glyph-name="Ocircumflex" unicode="&#xd4;" horiz-adv-x="684" 
d="M56 350q0 174 74.5 268t210.5 94q143 0 215 -96.5t72 -265.5q0 -174 -75 -268t-212 -94q-142 0 -213.5 96.5t-71.5 265.5zM144 350q0 -124 50 -206t147 -82q95 0 147 72t52 216q0 80 -20 143t-66 104t-113 41q-94 0 -145.5 -72.5t-51.5 -215.5zM179 769l133 101h60
l127 -102v-21h-81l-60 49l-17 35l-19 -34l-64 -50h-79v22z" />
    <glyph glyph-name="Otilde" unicode="&#xd5;" horiz-adv-x="684" 
d="M56 350q0 174 74.5 268t210.5 94q143 0 215 -96.5t72 -265.5q0 -174 -75 -268t-212 -94q-142 0 -213.5 96.5t-71.5 265.5zM144 350q0 -124 50 -206t147 -82q95 0 147 72t52 216q0 80 -20 143t-66 104t-113 41q-94 0 -145.5 -72.5t-51.5 -215.5zM206 744l-24 41
q54 55 108 55q27 0 71.5 -16.5t63.5 -16.5q26 0 50 21l25 -43q-48 -44 -96 -44q-26 0 -69.5 16.5t-64.5 16.5q-34 0 -64 -30z" />
    <glyph glyph-name="Odieresis" unicode="&#xd6;" horiz-adv-x="684" 
d="M56 350q0 174 74.5 268t210.5 94q143 0 215 -96.5t72 -265.5q0 -174 -75 -268t-212 -94q-142 0 -213.5 96.5t-71.5 265.5zM144 350q0 -124 50 -206t147 -82q95 0 147 72t52 216q0 80 -20 143t-66 104t-113 41q-94 0 -145.5 -72.5t-51.5 -215.5zM190 794q0 21 15 34t39 13
q23 0 37.5 -13t14.5 -34q0 -20 -14.5 -33t-37.5 -13q-24 0 -39 13t-15 33zM382 794q0 21 14.5 34t37.5 13q24 0 39 -13t15 -34q0 -20 -15 -33t-39 -13q-23 0 -37.5 13t-14.5 33z" />
    <glyph glyph-name="multiply" unicode="&#xd7;" horiz-adv-x="505" 
d="M76 464l51 53l126 -127l127 127l51 -53l-126 -126l126 -127l-51 -52l-127 128l-127 -128l-52 51l128 129z" />
    <glyph glyph-name="Oslash" unicode="&#xd8;" horiz-adv-x="684" 
d="M75 24l47 67q-66 92 -66 259q0 174 74.5 268t210.5 94q109 0 179 -59l42 60l52 -35l-51 -72q65 -93 65 -256q0 -174 -75 -268t-212 -94q-107 0 -175 56l-39 -56zM144 350q0 -106 35 -179l290 411q-50 56 -128 56q-94 0 -145.5 -72.5t-51.5 -215.5zM540 350q0 103 -34 175
l-290 -411q49 -52 125 -52q95 0 147 72t52 216z" />
    <glyph glyph-name="Ugrave" unicode="&#xd9;" horiz-adv-x="652" 
d="M487 256v444h80v-467q0 -123 -61.5 -182.5t-170.5 -59.5q-250 0 -250 226v483h83v-444q0 -104 40.5 -147.5t127.5 -43.5q80 0 115.5 45t35.5 146zM289 870l118 -118h-74l-158 97v21h114z" />
    <glyph glyph-name="Uacute" unicode="&#xda;" horiz-adv-x="652" 
d="M487 256v444h80v-467q0 -123 -61.5 -182.5t-170.5 -59.5q-250 0 -250 226v483h83v-444q0 -104 40.5 -147.5t127.5 -43.5q80 0 115.5 45t35.5 146zM272 752l118 118h114v-21l-163 -97h-69z" />
    <glyph glyph-name="Ucircumflex" unicode="&#xdb;" horiz-adv-x="652" 
d="M487 256v444h80v-467q0 -123 -61.5 -182.5t-170.5 -59.5q-250 0 -250 226v483h83v-444q0 -104 40.5 -147.5t127.5 -43.5q80 0 115.5 45t35.5 146zM168 769l133 101h60l127 -102v-21h-81l-60 49l-17 35l-19 -34l-64 -50h-79v22z" />
    <glyph glyph-name="Udieresis" unicode="&#xdc;" horiz-adv-x="652" 
d="M487 256v444h80v-467q0 -123 -61.5 -182.5t-170.5 -59.5q-250 0 -250 226v483h83v-444q0 -104 40.5 -147.5t127.5 -43.5q80 0 115.5 45t35.5 146zM178 794q0 21 15 34t39 13q23 0 37.5 -13t14.5 -34q0 -20 -14.5 -33t-37.5 -13q-24 0 -39 13t-15 33zM370 794
q0 21 14.5 34t37.5 13q24 0 39 -13t15 -34q0 -20 -15 -33t-39 -13q-23 0 -37.5 13t-14.5 33z" />
    <glyph glyph-name="Yacute" unicode="&#xdd;" horiz-adv-x="558" 
d="M239 0v278l-231 422h97l164 -306l17 -61h1l18 63l157 304h89l-229 -421v-279h-83zM237 752l118 118h114v-21l-163 -97h-69z" />
    <glyph glyph-name="Thorn" unicode="&#xde;" horiz-adv-x="559" 
d="M85 0v700h83v-75q42 3 86 3q51 0 94.5 -9.5t84.5 -32t65 -67t24 -106.5q0 -61 -22.5 -107.5t-62 -73t-86.5 -39t-101 -12.5q-63 0 -82 4v-185h-83zM256 556q-65 0 -88 -6v-290q17 -5 78 -5q188 0 188 158q0 52 -27.5 85.5t-65.5 45.5t-85 12z" />
    <glyph glyph-name="germandbls" unicode="&#xdf;" horiz-adv-x="592" 
d="M384 559q0 33 -32.5 55t-69.5 22q-57 0 -79.5 -30t-22.5 -108v-498h-80v430h-78v70h78v23q0 183 179 183q83 0 134 -40.5t51 -105.5q0 -34 -19 -61t-41.5 -41.5t-41.5 -34.5t-19 -42q0 -24 21 -40t51 -27t60 -26t51 -47.5t21 -81.5q0 -68 -48.5 -119.5t-131.5 -51.5
q-76 0 -126 28l23 65q19 -10 28 -14.5t26 -7.5t42 -3q44 0 75.5 28.5t31.5 71.5q0 33 -21 54t-51 32.5t-60 24.5t-51 40t-21 69q0 35 19 62.5t41.5 42t41.5 35.5t19 43z" />
    <glyph glyph-name="agrave" unicode="&#xe0;" horiz-adv-x="496" 
d="M94 404l-25 59q75 45 194 45q50 0 83.5 -13.5t49 -37.5t21 -48t5.5 -55q0 -42 -3 -117t-3 -108q0 -84 14 -131h-59l-21 70h-5q-51 -76 -156 -76q-65 0 -107.5 39t-42.5 103q0 83 64.5 118t182.5 35q36 0 55 -2q3 30 3 54q0 56 -22 77.5t-80 21.5q-35 0 -78 -9.5
t-70 -24.5zM211 62q52 0 84.5 23.5t45.5 55.5v83q-38 2 -57 2q-162 0 -162 -84q0 -35 25 -57.5t64 -22.5zM240 720l65 -149h-45l-115 128v21h95z" />
    <glyph glyph-name="aacute" unicode="&#xe1;" horiz-adv-x="496" 
d="M94 404l-25 59q75 45 194 45q50 0 83.5 -13.5t49 -37.5t21 -48t5.5 -55q0 -42 -3 -117t-3 -108q0 -84 14 -131h-59l-21 70h-5q-51 -76 -156 -76q-65 0 -107.5 39t-42.5 103q0 83 64.5 118t182.5 35q36 0 55 -2q3 30 3 54q0 56 -22 77.5t-80 21.5q-35 0 -78 -9.5
t-70 -24.5zM211 62q52 0 84.5 23.5t45.5 55.5v83q-38 2 -57 2q-162 0 -162 -84q0 -35 25 -57.5t64 -22.5zM179 571l59 149h89v-21l-101 -128h-47z" />
    <glyph glyph-name="acircumflex" unicode="&#xe2;" horiz-adv-x="496" 
d="M94 404l-25 59q75 45 194 45q50 0 83.5 -13.5t49 -37.5t21 -48t5.5 -55q0 -42 -3 -117t-3 -108q0 -84 14 -131h-59l-21 70h-5q-51 -76 -156 -76q-65 0 -107.5 39t-42.5 103q0 83 64.5 118t182.5 35q36 0 55 -2q3 30 3 54q0 56 -22 77.5t-80 21.5q-35 0 -78 -9.5
t-70 -24.5zM211 62q52 0 84.5 23.5t45.5 55.5v83q-38 2 -57 2q-162 0 -162 -84q0 -35 25 -57.5t64 -22.5zM116 550l123 182h32l111 -182h-72l-39 66l-21 58l-22 -58l-45 -66h-67z" />
    <glyph glyph-name="atilde" unicode="&#xe3;" horiz-adv-x="496" 
d="M94 404l-25 59q75 45 194 45q50 0 83.5 -13.5t49 -37.5t21 -48t5.5 -55q0 -42 -3 -117t-3 -108q0 -84 14 -131h-59l-21 70h-5q-51 -76 -156 -76q-65 0 -107.5 39t-42.5 103q0 83 64.5 118t182.5 35q36 0 55 -2q3 30 3 54q0 56 -22 77.5t-80 21.5q-35 0 -78 -9.5
t-70 -24.5zM211 62q52 0 84.5 23.5t45.5 55.5v83q-38 2 -57 2q-162 0 -162 -84q0 -35 25 -57.5t64 -22.5zM132 614l-23 42q51 58 97 58q24 0 59.5 -20t52.5 -20q22 0 46 24l24 -43q-46 -50 -87 -50q-22 0 -58 20t-54 20q-26 0 -57 -31z" />
    <glyph glyph-name="adieresis" unicode="&#xe4;" horiz-adv-x="496" 
d="M94 404l-25 59q75 45 194 45q50 0 83.5 -13.5t49 -37.5t21 -48t5.5 -55q0 -42 -3 -117t-3 -108q0 -84 14 -131h-59l-21 70h-5q-51 -76 -156 -76q-65 0 -107.5 39t-42.5 103q0 83 64.5 118t182.5 35q36 0 55 -2q3 30 3 54q0 56 -22 77.5t-80 21.5q-35 0 -78 -9.5
t-70 -24.5zM211 62q52 0 84.5 23.5t45.5 55.5v83q-38 2 -57 2q-162 0 -162 -84q0 -35 25 -57.5t64 -22.5zM104 653q0 23 13.5 37t35.5 14t35.5 -14t13.5 -37q0 -21 -13.5 -35t-35.5 -14t-35.5 14t-13.5 35zM296 653q0 23 13.5 37t35.5 14t36 -14t14 -37q0 -21 -14 -35
t-36 -14t-35.5 14t-13.5 35z" />
    <glyph glyph-name="aring" unicode="&#xe5;" horiz-adv-x="496" 
d="M94 404l-25 59q75 45 194 45q50 0 83.5 -13.5t49 -37.5t21 -48t5.5 -55q0 -42 -3 -117t-3 -108q0 -84 14 -131h-59l-21 70h-5q-51 -76 -156 -76q-65 0 -107.5 39t-42.5 103q0 83 64.5 118t182.5 35q36 0 55 -2q3 30 3 54q0 56 -22 77.5t-80 21.5q-35 0 -78 -9.5
t-70 -24.5zM211 62q52 0 84.5 23.5t45.5 55.5v83q-38 2 -57 2q-162 0 -162 -84q0 -35 25 -57.5t64 -22.5zM152 643q0 41 26.5 66t70.5 25q43 0 70.5 -23t27.5 -68q0 -39 -28 -64.5t-70 -25.5q-43 0 -70 24t-27 66zM206 643q0 -19 13 -30.5t30 -11.5q44 0 44 42
q0 21 -12.5 32t-31.5 11q-18 0 -30.5 -11t-12.5 -32z" />
    <glyph glyph-name="ae" unicode="&#xe6;" horiz-adv-x="796" 
d="M211 62q52 0 84.5 23.5t45.5 55.5v83q-38 2 -57 2q-162 0 -162 -84q0 -35 25 -57.5t64 -22.5zM374 84h-7q-67 -92 -178 -92q-65 0 -107.5 39t-42.5 103q0 83 64.5 118t182.5 35q36 0 55 -2q0 5 1.5 25t1.5 29q0 56 -22 77.5t-80 21.5q-35 0 -78 -9.5t-70 -24.5l-25 59
q75 45 194 45q105 0 136 -65q24 34 67.5 51.5t90.5 17.5q38 0 68.5 -8t60 -28t45.5 -61.5t16 -101.5q0 -28 -5 -71h-323q0 -90 38 -137t123 -47q34 0 67.5 11.5t52.5 27.5l30 -57q-65 -52 -172 -52q-61 0 -110.5 25.5t-73.5 70.5zM558 442q-126 0 -137 -137h248v12
q0 125 -111 125z" />
    <glyph glyph-name="ccedilla" unicode="&#xe7;" horiz-adv-x="451" 
d="M392 94l26 -61q-49 -35 -121 -43l-18 -33q79 -14 79 -75q0 -40 -32.5 -65t-89.5 -25q-24 0 -45 4l9 39q8 -1 21 -1q63 0 63 39q0 28 -86 37l42 79q-191 12 -191 261q0 126 56.5 194t160.5 68q87 0 142 -29l-23 -69q-51 28 -111 28q-142 0 -142 -192q0 -84 35.5 -137.5
t113.5 -53.5q67 0 111 35z" />
    <glyph glyph-name="egrave" unicode="&#xe8;" horiz-adv-x="508" 
d="M412 98l30 -58q-65 -52 -172 -52q-111 0 -166 69t-55 193q0 126 57.5 194t162.5 68q38 0 68.5 -8t60 -27.5t45.5 -60.5t16 -101q0 -33 -6 -73h-321q1 -91 38.5 -137.5t122.5 -46.5q33 0 67 12t52 28zM270 442q-125 0 -137 -137h248q0 73 -28 105t-83 32zM265 720l65 -149
h-45l-115 128v21h95z" />
    <glyph glyph-name="eacute" unicode="&#xe9;" horiz-adv-x="508" 
d="M412 98l30 -58q-65 -52 -172 -52q-111 0 -166 69t-55 193q0 126 57.5 194t162.5 68q38 0 68.5 -8t60 -27.5t45.5 -60.5t16 -101q0 -33 -6 -73h-321q1 -91 38.5 -137.5t122.5 -46.5q33 0 67 12t52 28zM270 442q-125 0 -137 -137h248q0 73 -28 105t-83 32zM232 571l59 149
h89v-21l-101 -128h-47z" />
    <glyph glyph-name="ecircumflex" unicode="&#xea;" horiz-adv-x="508" 
d="M412 98l30 -58q-65 -52 -172 -52q-111 0 -166 69t-55 193q0 126 57.5 194t162.5 68q38 0 68.5 -8t60 -27.5t45.5 -60.5t16 -101q0 -33 -6 -73h-321q1 -91 38.5 -137.5t122.5 -46.5q33 0 67 12t52 28zM270 442q-125 0 -137 -137h248q0 73 -28 105t-83 32zM122 550l123 182
h32l111 -182h-72l-39 66l-21 58l-22 -58l-45 -66h-67z" />
    <glyph glyph-name="edieresis" unicode="&#xeb;" horiz-adv-x="508" 
d="M412 98l30 -58q-65 -52 -172 -52q-111 0 -166 69t-55 193q0 126 57.5 194t162.5 68q38 0 68.5 -8t60 -27.5t45.5 -60.5t16 -101q0 -33 -6 -73h-321q1 -91 38.5 -137.5t122.5 -46.5q33 0 67 12t52 28zM270 442q-125 0 -137 -137h248q0 73 -28 105t-83 32zM118 653
q0 23 13.5 37t35.5 14t35.5 -14t13.5 -37q0 -21 -13.5 -35t-35.5 -14t-35.5 14t-13.5 35zM310 653q0 23 13.5 37t35.5 14t36 -14t14 -37q0 -21 -14 -35t-36 -14t-35.5 14t-13.5 35z" />
    <glyph glyph-name="igrave" unicode="&#xec;" horiz-adv-x="268" 
d="M94 0v500h80v-500h-80zM106 720l65 -149h-45l-115 128v21h95z" />
    <glyph glyph-name="iacute" unicode="&#xed;" horiz-adv-x="268" 
d="M94 0v500h80v-500h-80zM95 571l59 149h89v-21l-101 -128h-47z" />
    <glyph glyph-name="icircumflex" unicode="&#xee;" horiz-adv-x="268" 
d="M94 0v500h80v-500h-80zM-3 550l123 182h32l111 -182h-72l-39 66l-21 58l-22 -58l-45 -66h-67z" />
    <glyph glyph-name="idieresis" unicode="&#xef;" horiz-adv-x="268" 
d="M94 0v500h80v-500h-80zM-14 653q0 23 13.5 37t35.5 14t35.5 -14t13.5 -37q0 -21 -13.5 -35t-35.5 -14t-35.5 14t-13.5 35zM178 653q0 23 13.5 37t35.5 14t36 -14t14 -37q0 -21 -14 -35t-36 -14t-35.5 14t-13.5 35z" />
    <glyph glyph-name="eth" unicode="&#xf0;" horiz-adv-x="561" 
d="M247 552l-27 44l57 31q-38 23 -76 32l35 54q64 -24 104 -52l68 37l26 -45l-50 -27q122 -116 122 -331q0 -154 -63 -230.5t-161 -76.5q-115 0 -170.5 73.5t-55.5 189.5q0 109 59.5 184t164.5 75q42 0 77.5 -13.5t49.5 -32.5q-22 72 -84 129zM139 250q0 -94 40 -143
t107 -49q63 0 101.5 57t38.5 175q0 62 -7 91q-16 27 -53.5 43t-77.5 16q-75 0 -112 -52.5t-37 -137.5z" />
    <glyph glyph-name="ntilde" unicode="&#xf1;" horiz-adv-x="547" 
d="M478 0h-80v285q0 81 -23.5 119t-81.5 38q-51 0 -86.5 -27.5t-49.5 -72.5v-342h-80v500h56l15 -61h4q56 73 161 73q86 0 125.5 -45.5t39.5 -164.5v-302zM157 614l-23 42q51 58 97 58q24 0 59.5 -20t52.5 -20q22 0 46 24l24 -43q-46 -50 -87 -50q-22 0 -58 20t-54 20
q-26 0 -57 -31z" />
    <glyph glyph-name="ograve" unicode="&#xf2;" horiz-adv-x="536" 
d="M49 250q0 126 57 194t162 68q109 0 164 -69.5t55 -192.5q0 -126 -57 -194t-162 -68q-109 0 -164 69.5t-55 192.5zM132 250q0 -84 33 -138t103 -54q136 0 136 192q0 84 -33 138t-103 54q-136 0 -136 -192zM252 720l65 -149h-45l-115 128v21h95z" />
    <glyph glyph-name="oacute" unicode="&#xf3;" horiz-adv-x="536" 
d="M49 250q0 126 57 194t162 68q109 0 164 -69.5t55 -192.5q0 -126 -57 -194t-162 -68q-109 0 -164 69.5t-55 192.5zM132 250q0 -84 33 -138t103 -54q136 0 136 192q0 84 -33 138t-103 54q-136 0 -136 -192zM227 571l59 149h89v-21l-101 -128h-47z" />
    <glyph glyph-name="ocircumflex" unicode="&#xf4;" horiz-adv-x="536" 
d="M49 250q0 126 57 194t162 68q109 0 164 -69.5t55 -192.5q0 -126 -57 -194t-162 -68q-109 0 -164 69.5t-55 192.5zM132 250q0 -84 33 -138t103 -54q136 0 136 192q0 84 -33 138t-103 54q-136 0 -136 -192zM135 550l123 182h32l111 -182h-72l-39 66l-21 58l-22 -58l-45 -66
h-67z" />
    <glyph glyph-name="otilde" unicode="&#xf5;" horiz-adv-x="536" 
d="M49 250q0 126 57 194t162 68q109 0 164 -69.5t55 -192.5q0 -126 -57 -194t-162 -68q-109 0 -164 69.5t-55 192.5zM132 250q0 -84 33 -138t103 -54q136 0 136 192q0 84 -33 138t-103 54q-136 0 -136 -192zM152 614l-23 42q51 58 97 58q24 0 59.5 -20t52.5 -20q22 0 46 24
l24 -43q-46 -50 -87 -50q-22 0 -58 20t-54 20q-26 0 -57 -31z" />
    <glyph glyph-name="odieresis" unicode="&#xf6;" horiz-adv-x="536" 
d="M49 250q0 126 57 194t162 68q109 0 164 -69.5t55 -192.5q0 -126 -57 -194t-162 -68q-109 0 -164 69.5t-55 192.5zM132 250q0 -84 33 -138t103 -54q136 0 136 192q0 84 -33 138t-103 54q-136 0 -136 -192zM120 653q0 23 13.5 37t35.5 14t35.5 -14t13.5 -37
q0 -21 -13.5 -35t-35.5 -14t-35.5 14t-13.5 35zM312 653q0 23 13.5 37t35.5 14t36 -14t14 -37q0 -21 -14 -35t-36 -14t-35.5 14t-13.5 35z" />
    <glyph glyph-name="divide" unicode="&#xf7;" horiz-adv-x="505" 
d="M40 302v72h424v-72h-424zM195 525q0 27 15.5 42.5t41.5 15.5q27 0 43 -15.5t16 -42.5q0 -26 -16 -42t-43 -16q-25 0 -41 16t-16 42zM195 150q0 27 15.5 42.5t41.5 15.5q27 0 43 -15.5t16 -42.5q0 -26 -16 -42t-43 -16q-25 0 -41 16t-16 42z" />
    <glyph glyph-name="oslash" unicode="&#xf8;" horiz-adv-x="536" 
d="M49 250q0 126 57 194t162 68q73 0 122 -32l26 35l50 -37l-29 -42q50 -66 50 -186q0 -126 -57 -194t-162 -68q-78 0 -128 35l-27 -37l-52 38l33 46q-45 68 -45 180zM404 250q0 70 -21 115l-199 -277q33 -30 84 -30q136 0 136 192zM132 250q0 -62 18 -109l197 274
q-32 27 -79 27q-136 0 -136 -192z" />
    <glyph glyph-name="ugrave" unicode="&#xf9;" horiz-adv-x="539" 
d="M69 500h80v-285q0 -83 21 -120t77 -37q95 0 135 108v334h80v-358q0 -88 11 -142h-55l-20 79h-5q-53 -91 -161 -91q-85 0 -124 45.5t-39 164.5v302zM243 720l65 -149h-45l-115 128v21h95z" />
    <glyph glyph-name="uacute" unicode="&#xfa;" horiz-adv-x="539" 
d="M69 500h80v-285q0 -83 21 -120t77 -37q95 0 135 108v334h80v-358q0 -88 11 -142h-55l-20 79h-5q-53 -91 -161 -91q-85 0 -124 45.5t-39 164.5v302zM226 571l59 149h89v-21l-101 -128h-47z" />
    <glyph glyph-name="ucircumflex" unicode="&#xfb;" horiz-adv-x="539" 
d="M69 500h80v-285q0 -83 21 -120t77 -37q95 0 135 108v334h80v-358q0 -88 11 -142h-55l-20 79h-5q-53 -91 -161 -91q-85 0 -124 45.5t-39 164.5v302zM137 550l123 182h32l111 -182h-72l-39 66l-21 58l-22 -58l-45 -66h-67z" />
    <glyph glyph-name="udieresis" unicode="&#xfc;" horiz-adv-x="539" 
d="M69 500h80v-285q0 -83 21 -120t77 -37q95 0 135 108v334h80v-358q0 -88 11 -142h-55l-20 79h-5q-53 -91 -161 -91q-85 0 -124 45.5t-39 164.5v302zM124 653q0 23 13.5 37t35.5 14t35.5 -14t13.5 -37q0 -21 -13.5 -35t-35.5 -14t-35.5 14t-13.5 35zM316 653q0 23 13.5 37
t35.5 14t36 -14t14 -37q0 -21 -14 -35t-36 -14t-35.5 14t-13.5 35z" />
    <glyph glyph-name="yacute" unicode="&#xfd;" horiz-adv-x="466" 
d="M104 500l120 -324l28 -96h5l22 97l97 323h81l-148 -449q-15 -45 -22.5 -65.5t-22 -57.5t-26 -55t-28 -39.5t-35 -30t-39.5 -8.5q-36 0 -59 10l14 69q13 -5 25 -5q67 0 97 131l-201 500h92zM218 571l59 149h89v-21l-101 -128h-47z" />
    <glyph glyph-name="thorn" unicode="&#xfe;" horiz-adv-x="541" 
d="M77 -200v900h80v-250h4q43 62 133 62q101 0 149.5 -60t48.5 -192q0 -126 -62.5 -199t-167.5 -73q-58 0 -105 20v-208h-80zM279 442q-98 0 -122 -107v-249q37 -28 102 -28q69 0 109.5 53t40.5 150q0 181 -130 181z" />
    <glyph glyph-name="ydieresis" unicode="&#xff;" horiz-adv-x="466" 
d="M104 500l120 -324l28 -96h5l22 97l97 323h81l-148 -449q-15 -45 -22.5 -65.5t-22 -57.5t-26 -55t-28 -39.5t-35 -30t-39.5 -8.5q-36 0 -59 10l14 69q13 -5 25 -5q67 0 97 131l-201 500h92zM88 653q0 23 13.5 37t35.5 14t35.5 -14t13.5 -37q0 -21 -13.5 -35t-35.5 -14
t-35.5 14t-13.5 35zM280 653q0 23 13.5 37t35.5 14t36 -14t14 -37q0 -21 -14 -35t-36 -14t-35.5 14t-13.5 35z" />
    <glyph glyph-name="Amacron" unicode="&#x100;" horiz-adv-x="585" 
d="M490 0l-72 194h-258l-70 -194h-82l265 711h38l266 -711h-87zM264 477l-77 -211h206l-78 213l-25 106h-1zM133 781v62h316v-62h-316z" />
    <glyph glyph-name="amacron" unicode="&#x101;" horiz-adv-x="496" 
d="M94 404l-25 59q75 45 194 45q50 0 83.5 -13.5t49 -37.5t21 -48t5.5 -55q0 -42 -3 -117t-3 -108q0 -84 14 -131h-59l-21 70h-5q-51 -76 -156 -76q-65 0 -107.5 39t-42.5 103q0 83 64.5 118t182.5 35q36 0 55 -2q3 30 3 54q0 56 -22 77.5t-80 21.5q-35 0 -78 -9.5
t-70 -24.5zM211 62q52 0 84.5 23.5t45.5 55.5v83q-38 2 -57 2q-162 0 -162 -84q0 -35 25 -57.5t64 -22.5zM101 581v62h296v-62h-296z" />
    <glyph glyph-name="Abreve" unicode="&#x102;" horiz-adv-x="585" 
d="M490 0l-72 194h-258l-70 -194h-82l265 711h38l266 -711h-87zM264 477l-77 -211h206l-78 213l-25 106h-1zM121 847l43 24q35 -71 134 -71q46 0 79.5 20t48.5 51l40 -19q-17 -57 -64 -89.5t-105 -32.5q-57 0 -105.5 29.5t-70.5 87.5z" />
    <glyph glyph-name="abreve" unicode="&#x103;" horiz-adv-x="496" 
d="M94 404l-25 59q75 45 194 45q50 0 83.5 -13.5t49 -37.5t21 -48t5.5 -55q0 -42 -3 -117t-3 -108q0 -84 14 -131h-59l-21 70h-5q-51 -76 -156 -76q-65 0 -107.5 39t-42.5 103q0 83 64.5 118t182.5 35q36 0 55 -2q3 30 3 54q0 56 -22 77.5t-80 21.5q-35 0 -78 -9.5
t-70 -24.5zM211 62q52 0 84.5 23.5t45.5 55.5v83q-38 2 -57 2q-162 0 -162 -84q0 -35 25 -57.5t64 -22.5zM96 697l45 23q18 -36 48 -56.5t64 -20.5q71 0 106 77l42 -18q-5 -51 -48.5 -90t-100.5 -39q-56 0 -99 33.5t-57 90.5z" />
    <glyph glyph-name="Aogonek" unicode="&#x104;" horiz-adv-x="585" 
d="M490 0l-72 194h-258l-70 -194h-82l265 711h38l266 -711h-22q-56 -34 -56 -86q0 -21 13.5 -36.5t37.5 -15.5q19 0 40 10l11 -43q-30 -24 -86 -24q-45 0 -72 24.5t-27 64.5q0 69 80 106h-6zM264 477l-78 -211h208l-79 213l-25 106h-1z" />
    <glyph glyph-name="aogonek" unicode="&#x105;" horiz-adv-x="496" 
d="M94 404l-25 59q75 45 194 45q50 0 83.5 -13.5t49 -37.5t21 -48t5.5 -55q0 -42 -3 -117t-3 -108q0 -84 14 -131h-23q-53 -34 -53 -85q0 -21 13.5 -36t37.5 -15q19 0 40 10l11 -43q-30 -24 -86 -24q-45 0 -72 24.5t-27 64.5q0 77 97 113l-18 61h-5q-51 -76 -156 -76
q-65 0 -107.5 39t-42.5 103q0 83 64.5 118t182.5 35q36 0 55 -2q3 30 3 54q0 56 -22 77.5t-80 21.5q-35 0 -78 -9.5t-70 -24.5zM211 62q52 0 84.5 23.5t45.5 55.5v83q-38 2 -57 2q-162 0 -162 -84q0 -35 25 -57.5t64 -22.5z" />
    <glyph glyph-name="Cacute" unicode="&#x106;" horiz-adv-x="571" 
d="M513 94l20 -65q-53 -41 -174 -41q-133 0 -218 91.5t-85 270.5q0 94 26.5 166t70.5 113.5t96.5 62t110.5 20.5q101 0 163 -24l-20 -73q-48 23 -137 23q-93 0 -157.5 -69.5t-64.5 -218.5q0 -139 65 -213.5t169 -74.5q83 0 135 32zM299 752l118 118h114v-21l-163 -97h-69z
" />
    <glyph glyph-name="cacute" unicode="&#x107;" horiz-adv-x="451" 
d="M392 94l26 -61q-62 -45 -157 -45q-212 0 -212 262q0 126 56.5 194t160.5 68q87 0 142 -29l-23 -69q-51 28 -111 28q-142 0 -142 -192q0 -84 35.5 -138t113.5 -54q66 0 111 36zM231 571l59 149h89v-21l-101 -128h-47z" />
    <glyph glyph-name="Ccircumflex" unicode="&#x108;" horiz-adv-x="571" 
d="M513 94l20 -65q-53 -41 -174 -41q-133 0 -218 91.5t-85 270.5q0 94 26.5 166t70.5 113.5t96.5 62t110.5 20.5q101 0 163 -24l-20 -73q-48 23 -137 23q-93 0 -157.5 -69.5t-64.5 -218.5q0 -139 65 -213.5t169 -74.5q83 0 135 32zM187 769l133 101h60l127 -102v-21h-81
l-60 49l-17 35l-19 -34l-64 -50h-79v22z" />
    <glyph glyph-name="ccircumflex" unicode="&#x109;" horiz-adv-x="451" 
d="M392 94l26 -61q-62 -45 -157 -45q-212 0 -212 262q0 126 56.5 194t160.5 68q87 0 142 -29l-23 -69q-51 28 -111 28q-142 0 -142 -192q0 -84 35.5 -138t113.5 -54q66 0 111 36zM114 550l123 182h32l111 -182h-72l-39 66l-21 58l-22 -58l-45 -66h-67z" />
    <glyph glyph-name="Cdotaccent" unicode="&#x10a;" horiz-adv-x="571" 
d="M513 94l20 -65q-53 -41 -174 -41q-133 0 -218 91.5t-85 270.5q0 94 26.5 166t70.5 113.5t96.5 62t110.5 20.5q101 0 163 -24l-20 -73q-48 23 -137 23q-93 0 -157.5 -69.5t-64.5 -218.5q0 -139 65 -213.5t169 -74.5q83 0 135 32zM297 797q0 22 17 37t45 15t46 -15t18 -37
q0 -23 -17.5 -38t-46.5 -15q-28 0 -45 15t-17 38z" />
    <glyph glyph-name="cdotaccent" unicode="&#x10b;" horiz-adv-x="451" 
d="M392 94l26 -61q-62 -45 -157 -45q-212 0 -212 262q0 126 56.5 194t160.5 68q87 0 142 -29l-23 -69q-51 28 -111 28q-142 0 -142 -192q0 -84 35.5 -138t113.5 -54q66 0 111 36zM207 652q0 23 15.5 39.5t39.5 16.5t41 -16.5t17 -39.5q0 -22 -17 -37.5t-41 -15.5t-39.5 15
t-15.5 38z" />
    <glyph glyph-name="Ccaron" unicode="&#x10c;" horiz-adv-x="571" 
d="M513 94l20 -65q-53 -41 -174 -41q-133 0 -218 91.5t-85 270.5q0 94 26.5 166t70.5 113.5t96.5 62t110.5 20.5q101 0 163 -24l-20 -73q-48 23 -137 23q-93 0 -157.5 -69.5t-64.5 -218.5q0 -139 65 -213.5t169 -74.5q83 0 135 32zM515 848l-133 -102h-58l-127 103v21h82
l59 -50l17 -34l19 33l63 51h78v-22z" />
    <glyph glyph-name="ccaron" unicode="&#x10d;" horiz-adv-x="451" 
d="M392 94l26 -61q-62 -45 -157 -45q-212 0 -212 262q0 126 56.5 194t160.5 68q87 0 142 -29l-23 -69q-51 28 -111 28q-142 0 -142 -192q0 -84 35.5 -138t113.5 -54q66 0 111 36zM393 732l-123 -182h-37l-115 182h78l39 -66l21 -58l22 58l45 66h70z" />
    <glyph glyph-name="Dcaron" unicode="&#x10e;" horiz-adv-x="654" 
d="M85 -1v701q57 8 187 8q163 0 244.5 -95t81.5 -258q0 -73 -19 -136.5t-57.5 -115.5t-105 -82t-154.5 -30q-123 0 -177 8zM274 634q-82 0 -106 -5v-560q28 -4 96 -4t117.5 23.5t76.5 65.5t39.5 91.5t12.5 109.5q0 41 -7 79t-24 75t-43 64.5t-67.5 44t-94.5 16.5zM439 848
l-133 -102h-58l-127 103v21h82l59 -50l17 -34l19 33l63 51h78v-22z" />
    <glyph glyph-name="dcaron" unicode="&#x10f;" horiz-adv-x="589" 
d="M461 700v-528q0 -121 10 -174h-54l-20 71h-4q-20 -36 -59 -58.5t-88 -22.5q-100 0 -148.5 64t-48.5 196q0 125 60.5 193t166.5 68q58 0 105 -17v208h80zM259 58q100 0 122 107v249q-33 25 -102 25q-147 0 -147 -191q0 -190 127 -190zM534 700h80q-3 -52 -31 -109.5
t-51 -81.5l-33 18q35 73 35 173z" />
    <glyph glyph-name="Dcroat" unicode="&#x110;" horiz-adv-x="658" 
d="M-1 332v60h90v308q57 8 187 8q163 0 244.5 -95t81.5 -258q0 -73 -19 -136.5t-57.5 -115.5t-105 -82t-154.5 -30q-123 0 -177 8v333h-90zM278 634q-82 0 -106 -5v-237h147v-60h-147v-263q28 -4 96 -4t117.5 23.5t76.5 65.5t39.5 91.5t12.5 109.5q0 41 -7 79t-24 75
t-43 64.5t-67.5 44t-94.5 16.5z" />
    <glyph glyph-name="dcroat" unicode="&#x111;" horiz-adv-x="540" 
d="M461 700v-68h81v-60h-81v-400q0 -121 10 -174h-54l-20 71h-4q-20 -36 -59 -58.5t-88 -22.5q-100 0 -148.5 64t-48.5 196q0 125 60.5 193t166.5 68q58 0 105 -17v80h-157v60h157v68h80zM259 58q100 0 122 107v249q-33 25 -102 25q-147 0 -147 -191q0 -190 127 -190z" />
    <glyph glyph-name="Emacron" unicode="&#x112;" horiz-adv-x="536" 
d="M85 0v700h381v-74h-298v-229h273v-74h-273v-249h303v-74h-386zM109 781v62h316v-62h-316z" />
    <glyph glyph-name="emacron" unicode="&#x113;" horiz-adv-x="508" 
d="M412 98l30 -58q-65 -52 -172 -52q-111 0 -166 69t-55 193q0 126 57.5 194t162.5 68q38 0 68.5 -8t60 -27.5t45.5 -60.5t16 -101q0 -33 -6 -73h-321q1 -91 38.5 -137.5t122.5 -46.5q33 0 67 12t52 28zM270 442q-125 0 -137 -137h248q0 73 -28 105t-83 32zM107 581v62h296
v-62h-296z" />
    <glyph glyph-name="Ebreve" unicode="&#x114;" horiz-adv-x="536" 
d="M85 0v700h381v-74h-298v-229h273v-74h-273v-249h303v-74h-386zM104 847l43 24q35 -71 134 -71q46 0 79.5 20t48.5 51l40 -19q-17 -57 -64 -89.5t-105 -32.5q-57 0 -105.5 29.5t-70.5 87.5z" />
    <glyph glyph-name="ebreve" unicode="&#x115;" horiz-adv-x="508" 
d="M412 98l30 -58q-65 -52 -172 -52q-111 0 -166 69t-55 193q0 126 57.5 194t162.5 68q38 0 68.5 -8t60 -27.5t45.5 -60.5t16 -101q0 -33 -6 -73h-321q1 -91 38.5 -137.5t122.5 -46.5q33 0 67 12t52 28zM270 442q-125 0 -137 -137h248q0 73 -28 105t-83 32zM103 697l45 23
q18 -36 48 -56.5t64 -20.5q71 0 106 77l42 -18q-5 -51 -48.5 -90t-100.5 -39q-56 0 -99 33.5t-57 90.5z" />
    <glyph glyph-name="Edotaccent" unicode="&#x116;" horiz-adv-x="536" 
d="M85 0v700h381v-74h-298v-229h273v-74h-273v-249h303v-74h-386zM212 797q0 22 17 37t45 15t46 -15t18 -37q0 -23 -17.5 -38t-46.5 -15q-28 0 -45 15t-17 38z" />
    <glyph glyph-name="edotaccent" unicode="&#x117;" horiz-adv-x="508" 
d="M412 98l30 -58q-65 -52 -172 -52q-111 0 -166 69t-55 193q0 126 57.5 194t162.5 68q38 0 68.5 -8t60 -27.5t45.5 -60.5t16 -101q0 -33 -6 -73h-321q1 -91 38.5 -137.5t122.5 -46.5q33 0 67 12t52 28zM270 442q-125 0 -137 -137h248q0 73 -28 105t-83 32zM216 652
q0 23 15.5 39.5t39.5 16.5t41 -16.5t17 -39.5q0 -22 -17 -37.5t-41 -15.5t-39.5 15t-15.5 38z" />
    <glyph glyph-name="Eogonek" unicode="&#x118;" horiz-adv-x="536" 
d="M85 0v700h381v-74h-298v-229h273v-74h-273v-249h303v-74h-36q-57 -34 -57 -87q0 -21 13.5 -36t37.5 -15q19 0 40 10l11 -43q-30 -24 -86 -24q-45 0 -72 24.5t-27 64.5q0 69 80 106h-290z" />
    <glyph glyph-name="eogonek" unicode="&#x119;" horiz-adv-x="508" 
d="M412 97l30 -57q-17 -15 -51 -29q-72 -36 -72 -98q0 -21 14 -36t38 -15q19 0 40 10l11 -43q-30 -24 -87 -24q-44 0 -71.5 24.5t-27.5 64.5q0 58 56 95q-7 -1 -22 -1q-111 0 -166 69t-55 193q0 126 57.5 194t162.5 68q38 0 68.5 -8t60 -27.5t45.5 -60.5t16 -101
q0 -33 -6 -73h-321q1 -91 38.5 -137.5t122.5 -46.5q33 0 67 11.5t52 27.5zM270 442q-125 0 -137 -137h248q0 73 -28 105t-83 32z" />
    <glyph glyph-name="Ecaron" unicode="&#x11a;" horiz-adv-x="536" 
d="M85 0v700h381v-74h-298v-229h273v-74h-273v-249h303v-74h-386zM427 848l-133 -102h-58l-127 103v21h82l59 -50l17 -34l19 33l63 51h78v-22z" />
    <glyph glyph-name="ecaron" unicode="&#x11b;" horiz-adv-x="508" 
d="M412 98l30 -58q-65 -52 -172 -52q-111 0 -166 69t-55 193q0 126 57.5 194t162.5 68q38 0 68.5 -8t60 -27.5t45.5 -60.5t16 -101q0 -33 -6 -73h-321q1 -91 38.5 -137.5t122.5 -46.5q33 0 67 12t52 28zM270 442q-125 0 -137 -137h248q0 73 -28 105t-83 32zM402 732
l-123 -182h-37l-115 182h78l39 -66l21 -58l22 58l45 66h70z" />
    <glyph glyph-name="Gcircumflex" unicode="&#x11c;" horiz-adv-x="612" 
d="M321 302v47h235v-308q-32 -24 -85.5 -38.5t-107.5 -14.5q-140 0 -223.5 91t-83.5 271q0 93 27.5 165t73.5 113.5t100 62.5t113 21q103 0 165 -24l-21 -73q-48 23 -137 23q-44 0 -83.5 -15t-74 -47t-55 -90t-20.5 -136q0 -143 62.5 -215.5t169.5 -72.5q64 0 109 25v195z
M198 769l133 101h60l127 -102v-21h-81l-60 49l-17 35l-19 -34l-64 -50h-79v22z" />
    <glyph glyph-name="gcircumflex" unicode="&#x11d;" horiz-adv-x="537" 
d="M460 479v-502q0 -189 -204 -189q-100 0 -159 27l21 67q62 -24 124 -24q81 0 110 32t29 111v48h-4q-42 -60 -132 -60q-100 0 -148 63.5t-48 195.5q0 128 61.5 194.5t179.5 66.5q89 0 170 -30zM259 59q51 0 80 25.5t41 79.5v257q-38 18 -102 18q-69 0 -107.5 -47.5
t-38.5 -142.5q0 -190 127 -190zM137 550l123 182h32l111 -182h-72l-39 66l-21 58l-22 -58l-45 -66h-67z" />
    <glyph glyph-name="Gbreve" unicode="&#x11e;" horiz-adv-x="612" 
d="M321 302v47h235v-308q-32 -24 -85.5 -38.5t-107.5 -14.5q-140 0 -223.5 91t-83.5 271q0 93 27.5 165t73.5 113.5t100 62.5t113 21q103 0 165 -24l-21 -73q-48 23 -137 23q-44 0 -83.5 -15t-74 -47t-55 -90t-20.5 -136q0 -143 62.5 -215.5t169.5 -72.5q64 0 109 25v195z
M180 847l43 24q35 -71 134 -71q46 0 79.5 20t48.5 51l40 -19q-17 -57 -64 -89.5t-105 -32.5q-57 0 -105.5 29.5t-70.5 87.5z" />
    <glyph glyph-name="gbreve" unicode="&#x11f;" horiz-adv-x="537" 
d="M460 479v-502q0 -189 -204 -189q-100 0 -159 27l21 67q62 -24 124 -24q81 0 110 32t29 111v48h-4q-42 -60 -132 -60q-100 0 -148 63.5t-48 195.5q0 128 61.5 194.5t179.5 66.5q89 0 170 -30zM259 59q51 0 80 25.5t41 79.5v257q-38 18 -102 18q-69 0 -107.5 -47.5
t-38.5 -142.5q0 -190 127 -190zM116 697l45 23q18 -36 48 -56.5t64 -20.5q71 0 106 77l42 -18q-5 -51 -48.5 -90t-100.5 -39q-56 0 -99 33.5t-57 90.5z" />
    <glyph glyph-name="Gdotaccent" unicode="&#x120;" horiz-adv-x="612" 
d="M321 302v47h235v-308q-32 -24 -85.5 -38.5t-107.5 -14.5q-140 0 -223.5 91t-83.5 271q0 93 27.5 165t73.5 113.5t100 62.5t113 21q103 0 165 -24l-21 -73q-48 23 -137 23q-44 0 -83.5 -15t-74 -47t-55 -90t-20.5 -136q0 -143 62.5 -215.5t169.5 -72.5q64 0 109 25v195z
M309 797q0 22 17 37t45 15t46 -15t18 -37q0 -23 -17.5 -38t-46.5 -15q-28 0 -45 15t-17 38z" />
    <glyph glyph-name="gdotaccent" unicode="&#x121;" horiz-adv-x="537" 
d="M460 479v-502q0 -189 -204 -189q-100 0 -159 27l21 67q62 -24 124 -24q81 0 110 32t29 111v48h-4q-42 -60 -132 -60q-100 0 -148 63.5t-48 195.5q0 128 61.5 194.5t179.5 66.5q89 0 170 -30zM259 59q51 0 80 25.5t41 79.5v257q-38 18 -102 18q-69 0 -107.5 -47.5
t-38.5 -142.5q0 -190 127 -190zM213 652q0 23 15.5 39.5t39.5 16.5t41 -16.5t17 -39.5q0 -22 -17 -37.5t-41 -15.5t-39.5 15t-15.5 38z" />
    <glyph glyph-name="Gcommaaccent" unicode="&#x122;" horiz-adv-x="612" 
d="M321 302v47h235v-308q-32 -24 -85.5 -38.5t-107.5 -14.5q-140 0 -223.5 91t-83.5 271q0 93 27.5 165t73.5 113.5t100 62.5t113 21q103 0 165 -24l-21 -73q-48 23 -137 23q-44 0 -83.5 -15t-74 -47t-55 -90t-20.5 -136q0 -143 62.5 -215.5t169.5 -72.5q64 0 109 25v195z
M294 -102q0 20 15 33.5t36 13.5q27 0 45.5 -19t18.5 -56q0 -45 -26 -74.5t-54 -40.5l-28 32q44 24 44 69q-4 -1 -10 -1q-18 0 -29.5 12t-11.5 31z" />
    <glyph glyph-name="gcommaaccent" unicode="&#x123;" horiz-adv-x="537" 
d="M460 479v-502q0 -189 -204 -189q-100 0 -159 27l21 67q62 -24 124 -24q81 0 110 32t29 111v48h-4q-42 -60 -132 -60q-100 0 -148 63.5t-48 195.5q0 128 61.5 194.5t179.5 66.5q89 0 170 -30zM259 59q51 0 80 25.5t41 79.5v257q-38 18 -102 18q-69 0 -107.5 -47.5
t-38.5 -142.5q0 -190 127 -190zM346 609q0 -20 -15 -33.5t-36 -13.5q-27 0 -45.5 19t-18.5 56q0 45 26 74.5t54 40.5l28 -32q-44 -24 -44 -69q4 1 10 1q18 0 29.5 -12t11.5 -31z" />
    <glyph glyph-name="Hcircumflex" unicode="&#x124;" horiz-adv-x="672" 
d="M504 0v321h-336v-321h-83v700h83v-305h336v305h83v-700h-83zM174 769l133 101h60l127 -102v-21h-81l-60 49l-17 35l-19 -34l-64 -50h-79v22z" />
    <glyph glyph-name="hcircumflex" unicode="&#x125;" horiz-adv-x="547" 
d="M478 0h-80v285q0 83 -22.5 120t-84.5 37q-47 0 -85.5 -30.5t-48.5 -78.5v-333h-80v700h80v-256h4q58 68 153 68q88 0 126 -45t38 -165v-302zM-41 769l133 101h60l127 -102v-21h-81l-60 49l-17 35l-19 -34l-64 -50h-79v22z" />
    <glyph glyph-name="Hbar" unicode="&#x126;" horiz-adv-x="677" 
d="M9 523v64h79v113h83v-113h336v113h83v-113h79v-64h-79v-523h-83v321h-336v-321h-83v523h-79zM171 395h336v128h-336v-128z" />
    <glyph glyph-name="hbar" unicode="&#x127;" horiz-adv-x="549" 
d="M-1 572v60h80v68h80v-68h160v-60h-160v-128h4q58 68 153 68q88 0 126 -45t38 -165v-302h-80v285q0 83 -22.5 120t-84.5 37q-47 0 -85.5 -30.5t-48.5 -78.5v-333h-80v572h-80z" />
    <glyph glyph-name="Itilde" unicode="&#x128;" horiz-adv-x="291" 
d="M104 0v700h83v-700h-83zM11 744l-24 41q54 55 108 55q27 0 71.5 -16.5t63.5 -16.5q26 0 50 21l25 -43q-48 -44 -96 -44q-26 0 -69.5 16.5t-64.5 16.5q-34 0 -64 -30z" />
    <glyph glyph-name="itilde" unicode="&#x129;" horiz-adv-x="268" 
d="M94 0v500h80v-500h-80zM18 614l-23 42q51 58 97 58q24 0 59.5 -20t52.5 -20q22 0 46 24l24 -43q-46 -50 -87 -50q-22 0 -58 20t-54 20q-26 0 -57 -31z" />
    <glyph glyph-name="Imacron" unicode="&#x12a;" horiz-adv-x="291" 
d="M104 0v700h83v-700h-83zM-12 781v62h316v-62h-316z" />
    <glyph glyph-name="imacron" unicode="&#x12b;" horiz-adv-x="268" 
d="M94 0v500h80v-500h-80zM-14 581v62h296v-62h-296z" />
    <glyph glyph-name="Ibreve" unicode="&#x12c;" horiz-adv-x="291" 
d="M104 0v700h83v-700h-83zM-26 847l43 24q35 -71 134 -71q46 0 79.5 20t48.5 51l40 -19q-17 -57 -64 -89.5t-105 -32.5q-57 0 -105.5 29.5t-70.5 87.5z" />
    <glyph glyph-name="ibreve" unicode="&#x12d;" horiz-adv-x="268" 
d="M94 0v500h80v-500h-80zM-18 697l45 23q18 -36 48 -56.5t64 -20.5q71 0 106 77l42 -18q-5 -51 -48.5 -90t-100.5 -39q-56 0 -99 33.5t-57 90.5z" />
    <glyph glyph-name="Iogonek" unicode="&#x12e;" horiz-adv-x="291" 
d="M104 0v700h83v-700h-14q-56 -35 -56 -88q0 -21 13.5 -36t37.5 -15q19 0 40 10l11 -43q-29 -23 -86 -23q-45 0 -72 24t-27 64q0 70 80 107h-10z" />
    <glyph glyph-name="iogonek" unicode="&#x12f;" horiz-adv-x="269" 
d="M94 0v500h80v-500h-18q-54 -34 -54 -88q0 -21 13.5 -36t37.5 -15q19 0 40 10l11 -43q-29 -23 -87 -23q-44 0 -71 24t-27 64q0 70 80 107h-5zM77 652q0 23 15.5 39.5t39.5 16.5t41 -16.5t17 -39.5q0 -22 -17 -37.5t-41 -15.5t-39.5 15t-15.5 38z" />
    <glyph glyph-name="Idotaccent" unicode="&#x130;" horiz-adv-x="291" 
d="M104 0v700h83v-700h-83zM84 797q0 22 17 37t45 15t46 -15t18 -37q0 -23 -17.5 -38t-46.5 -15q-28 0 -45 15t-17 38z" />
    <glyph glyph-name="dotlessi" unicode="&#x131;" horiz-adv-x="268" 
d="M94 0v500h80v-500h-80z" />
    <glyph glyph-name="Jcircumflex" unicode="&#x134;" horiz-adv-x="291" 
d="M112 174v526h83v-546q0 -164 -143 -164q-54 0 -86 16l16 71q28 -13 61 -13q40 0 54.5 27.5t14.5 82.5zM-9 769l133 101h60l127 -102v-21h-81l-60 49l-17 35l-19 -34l-64 -50h-79v22z" />
    <glyph glyph-name="jcircumflex" unicode="&#x135;" horiz-adv-x="267" 
d="M93 3v497h80v-527q0 -93 -32.5 -139t-101.5 -46q-8 0 -30 2v68q53 0 68.5 32t15.5 113zM0 550l123 182h32l111 -182h-72l-39 66l-21 58l-22 -58l-45 -66h-67z" />
    <glyph glyph-name="Kcommaaccent" unicode="&#x136;" horiz-adv-x="610" 
d="M470 0l-255 324h-47v-324h-83v700h83v-326l45 14l235 312h96l-234 -301l-42 -33l51 -40l256 -326h-105zM232 -102q0 20 15 33.5t36 13.5q27 0 45.5 -19t18.5 -56q0 -45 -26 -74.5t-54 -40.5l-28 32q44 24 44 69q-4 -1 -10 -1q-18 0 -29.5 12t-11.5 31z" />
    <glyph glyph-name="kcommaaccent" unicode="&#x137;" horiz-adv-x="479" 
d="M370 0l-167 225h-46v-225h-80v700h80v-426l41 14l155 212h93l-153 -201l-41 -33l50 -40l167 -226h-99zM183 -102q0 20 15 33.5t36 13.5q27 0 45.5 -19t18.5 -56q0 -45 -26 -74.5t-54 -40.5l-28 32q44 24 44 69q-4 -1 -10 -1q-18 0 -29.5 12t-11.5 31z" />
    <glyph glyph-name="kgreenlandic" unicode="&#x138;" horiz-adv-x="478" 
d="M370 0l-167 225h-46v-225h-80v500h80v-226l43 14l160 212h87l-155 -201l-42 -33l52 -40l167 -226h-99z" />
    <glyph glyph-name="Lacute" unicode="&#x139;" horiz-adv-x="517" 
d="M499 74v-74h-414v700h83v-626h331zM113 752l118 118h114v-21l-163 -97h-69z" />
    <glyph glyph-name="lacute" unicode="&#x13a;" horiz-adv-x="292" 
d="M166 700v-577q0 -65 46 -65q31 0 62 11l9 -63q-34 -18 -94 -18q-103 0 -103 112v600h80zM90 752l118 118h114v-21l-163 -97h-69z" />
    <glyph glyph-name="Lcommaaccent" unicode="&#x13b;" horiz-adv-x="517" 
d="M499 74v-74h-414v700h83v-626h331zM192 -102q0 20 15 33.5t36 13.5q27 0 45.5 -19t18.5 -56q0 -45 -26 -74.5t-54 -40.5l-28 32q44 24 44 69q-4 -1 -10 -1q-18 0 -29.5 12t-11.5 31z" />
    <glyph glyph-name="lcommaaccent" unicode="&#x13c;" horiz-adv-x="292" 
d="M166 700v-577q0 -65 46 -65q31 0 62 11l9 -63q-34 -18 -94 -18q-103 0 -103 112v600h80zM117 -102q0 20 15 33.5t36 13.5q27 0 45.5 -19t18.5 -56q0 -45 -26 -74.5t-54 -40.5l-28 32q44 24 44 69q-4 -1 -10 -1q-18 0 -29.5 12t-11.5 31z" />
    <glyph glyph-name="Lcaron" unicode="&#x13d;" horiz-adv-x="517" 
d="M499 74v-74h-414v700h83v-626h331zM349 700h80q-3 -52 -31 -109.5t-51 -81.5l-33 18q35 73 35 173z" />
    <glyph glyph-name="lcaron" unicode="&#x13e;" horiz-adv-x="292" 
d="M166 700v-577q0 -65 46 -65q31 0 62 11l9 -63q-34 -18 -94 -18q-103 0 -103 112v600h80zM241 700h80q-3 -52 -31 -109.5t-51 -81.5l-33 18q35 73 35 173z" />
    <glyph glyph-name="Ldot" unicode="&#x13f;" horiz-adv-x="517" 
d="M320 395q0 23 15.5 40t38.5 17q24 0 40.5 -17t16.5 -40t-16 -38.5t-41 -15.5q-24 0 -39 15.5t-15 38.5zM499 74v-74h-414v700h83v-626h331z" />
    <glyph glyph-name="ldot" unicode="&#x140;" horiz-adv-x="298" 
d="M220 382q0 23 15.5 40t38.5 17t39.5 -17t16.5 -40t-16 -38.5t-40 -15.5q-23 0 -38.5 15.5t-15.5 38.5zM166 700v-577q0 -65 46 -65q31 0 62 11l9 -63q-34 -18 -94 -18q-103 0 -103 112v600h80z" />
    <glyph glyph-name="Lslash" unicode="&#x141;" horiz-adv-x="517" 
d="M15 211v76l70 55v358h83v-293l107 84v-80l-107 -82v-255h331v-74h-414v265z" />
    <glyph glyph-name="lslash" unicode="&#x142;" horiz-adv-x="292" 
d="M10 209v76l76 59v356h80v-293l104 82v-80l-104 -80v-206q0 -65 46 -65q31 0 62 11l9 -63q-34 -18 -94 -18q-103 0 -103 112v167z" />
    <glyph glyph-name="Nacute" unicode="&#x143;" horiz-adv-x="673" 
d="M544 -11l-333 469l-54 101h-4l10 -101v-458h-78v711h44l335 -467l52 -96h5l-11 96v456h78v-711h-44zM289 752l118 118h114v-21l-163 -97h-69z" />
    <glyph glyph-name="nacute" unicode="&#x144;" horiz-adv-x="547" 
d="M478 0h-80v285q0 81 -23.5 119t-81.5 38q-51 0 -86.5 -27.5t-49.5 -72.5v-342h-80v500h56l15 -61h4q56 73 161 73q86 0 125.5 -45.5t39.5 -164.5v-302zM241 571l59 149h89v-21l-101 -128h-47z" />
    <glyph glyph-name="Ncommaaccent" unicode="&#x145;" horiz-adv-x="673" 
d="M544 -11l-333 469l-54 101h-4l10 -101v-458h-78v711h44l335 -467l52 -96h5l-11 96v456h78v-711h-44zM279 -102q0 20 15 33.5t36 13.5q27 0 45.5 -19t18.5 -56q0 -45 -26 -74.5t-54 -40.5l-28 32q44 24 44 69q-4 -1 -10 -1q-18 0 -29.5 12t-11.5 31z" />
    <glyph glyph-name="ncommaaccent" unicode="&#x146;" horiz-adv-x="547" 
d="M478 0h-80v285q0 81 -23.5 119t-81.5 38q-51 0 -86.5 -27.5t-49.5 -72.5v-342h-80v500h56l15 -61h4q56 73 161 73q86 0 125.5 -45.5t39.5 -164.5v-302zM216 -102q0 20 15 33.5t36 13.5q27 0 45.5 -19t18.5 -56q0 -45 -26 -74.5t-54 -40.5l-28 32q44 24 44 69
q-4 -1 -10 -1q-18 0 -29.5 12t-11.5 31z" />
    <glyph glyph-name="Ncaron" unicode="&#x147;" horiz-adv-x="673" 
d="M544 -11l-333 469l-54 101h-4l10 -101v-458h-78v711h44l335 -467l52 -96h5l-11 96v456h78v-711h-44zM497 848l-133 -102h-58l-127 103v21h82l59 -50l17 -34l19 33l63 51h78v-22z" />
    <glyph glyph-name="ncaron" unicode="&#x148;" horiz-adv-x="547" 
d="M478 0h-80v285q0 81 -23.5 119t-81.5 38q-51 0 -86.5 -27.5t-49.5 -72.5v-342h-80v500h56l15 -61h4q56 73 161 73q86 0 125.5 -45.5t39.5 -164.5v-302zM412 732l-123 -182h-37l-115 182h78l39 -66l21 -58l22 58l45 66h70z" />
    <glyph glyph-name="napostrophe" unicode="&#x149;" horiz-adv-x="559" 
d="M490 0h-80v285q0 81 -23.5 119t-81.5 38q-51 0 -86.5 -27.5t-49.5 -72.5v-342h-80v500h56l15 -61h4q56 73 161 73q86 0 125.5 -45.5t39.5 -164.5v-302zM-46 659q0 22 14.5 35.5t37.5 13.5q29 0 46 -18t17 -52q0 -58 -27.5 -92t-59.5 -46l-25 34q49 26 49 77q-4 -1 -11 -1
q-19 0 -30 13.5t-11 35.5z" />
    <glyph glyph-name="Eng" unicode="&#x14a;" horiz-adv-x="673" 
d="M510 0v38l-299 420l-54 101h-4l10 -101v-458h-78v711h44l335 -467l52 -96h5l-11 96v456h78v-727q0 -93 -32 -139t-101 -46q-8 0 -30 2v68q54 0 69.5 31t15.5 111z" />
    <glyph glyph-name="eng" unicode="&#x14b;" horiz-adv-x="547" 
d="M398 0v285q0 81 -23.5 119t-81.5 38q-51 0 -86.5 -27.5t-49.5 -72.5v-342h-80v500h56l15 -61h4q56 73 161 73q86 0 125.5 -45.5t39.5 -164.5v-329q0 -93 -32.5 -139t-101.5 -46q-18 0 -30 2v68q53 0 68.5 31.5t15.5 110.5z" />
    <glyph glyph-name="Omacron" unicode="&#x14c;" horiz-adv-x="684" 
d="M56 350q0 174 74.5 268t210.5 94q143 0 215 -96.5t72 -265.5q0 -174 -75 -268t-212 -94q-142 0 -213.5 96.5t-71.5 265.5zM144 350q0 -124 50 -206t147 -82q95 0 147 72t52 216q0 80 -20 143t-66 104t-113 41q-94 0 -145.5 -72.5t-51.5 -215.5zM190 781v62h316v-62h-316z
" />
    <glyph glyph-name="omacron" unicode="&#x14d;" horiz-adv-x="536" 
d="M49 250q0 126 57 194t162 68q109 0 164 -69.5t55 -192.5q0 -126 -57 -194t-162 -68q-109 0 -164 69.5t-55 192.5zM132 250q0 -84 33 -138t103 -54q136 0 136 192q0 84 -33 138t-103 54q-136 0 -136 -192zM120 581v62h296v-62h-296z" />
    <glyph glyph-name="Obreve" unicode="&#x14e;" horiz-adv-x="684" 
d="M56 350q0 174 74.5 268t210.5 94q143 0 215 -96.5t72 -265.5q0 -174 -75 -268t-212 -94q-142 0 -213.5 96.5t-71.5 265.5zM144 350q0 -124 50 -206t147 -82q95 0 147 72t52 216q0 80 -20 143t-66 104t-113 41q-94 0 -145.5 -72.5t-51.5 -215.5zM168 847l43 24
q35 -71 134 -71q46 0 79.5 20t48.5 51l40 -19q-17 -57 -64 -89.5t-105 -32.5q-57 0 -105.5 29.5t-70.5 87.5z" />
    <glyph glyph-name="obreve" unicode="&#x14f;" horiz-adv-x="536" 
d="M49 250q0 126 57 194t162 68q109 0 164 -69.5t55 -192.5q0 -126 -57 -194t-162 -68q-109 0 -164 69.5t-55 192.5zM132 250q0 -84 33 -138t103 -54q136 0 136 192q0 84 -33 138t-103 54q-136 0 -136 -192zM116 697l45 23q18 -36 48 -56.5t64 -20.5q71 0 106 77l42 -18
q-5 -51 -48.5 -90t-100.5 -39q-56 0 -99 33.5t-57 90.5z" />
    <glyph glyph-name="Ohungarumlaut" unicode="&#x150;" horiz-adv-x="684" 
d="M56 350q0 174 74.5 268t210.5 94q143 0 215 -96.5t72 -265.5q0 -174 -75 -268t-212 -94q-142 0 -213.5 96.5t-71.5 265.5zM144 350q0 -124 50 -206t147 -82q95 0 147 72t52 216q0 80 -20 143t-66 104t-113 41q-94 0 -145.5 -72.5t-51.5 -215.5zM242 741l64 109h93v-16
l-100 -93h-57zM366 741l102 109h99v-16l-143 -93h-58z" />
    <glyph glyph-name="ohungarumlaut" unicode="&#x151;" horiz-adv-x="536" 
d="M49 250q0 126 57 194t162 68q109 0 164 -69.5t55 -192.5q0 -126 -57 -194t-162 -68q-109 0 -164 69.5t-55 192.5zM132 250q0 -84 33 -138t103 -54q136 0 136 192q0 84 -33 138t-103 54q-136 0 -136 -192zM176 571l35 129h78v-16l-71 -113h-42zM284 571l73 129h86v-16
l-114 -113h-45z" />
    <glyph glyph-name="OE" unicode="&#x152;" horiz-adv-x="932" 
d="M481 79v539q-49 20 -140 20q-94 0 -145.5 -72.5t-51.5 -215.5q0 -125 51 -206.5t154 -81.5q77 0 132 17zM481 0q-57 -12 -140 -12q-142 0 -213.5 96.5t-71.5 265.5q0 174 74.5 268t210.5 94q68 0 140 -12h381v-74h-298v-229h273v-74h-273v-249h303v-74h-386z" />
    <glyph glyph-name="oe" unicode="&#x153;" horiz-adv-x="858" 
d="M132 246q0 -84 33 -138.5t103 -54.5q135 0 135 193q0 85 -32.5 138.5t-102.5 53.5q-136 0 -136 -192zM442 77q-57 -93 -174 -93q-109 0 -164 69.5t-55 192.5q0 126 57 194t162 68q115 0 176 -92q59 92 175 92q38 0 68.5 -8t60 -27.5t45.5 -60.5t16 -101q0 -39 -5 -73
h-323q1 -91 39 -137.5t123 -46.5q34 0 67.5 11.5t51.5 27.5l30 -57q-65 -52 -172 -52q-121 0 -178 93zM620 438q-125 0 -137 -137h248v9q0 128 -111 128z" />
    <glyph glyph-name="Racute" unicode="&#x154;" horiz-adv-x="595" 
d="M85 0v693q77 15 178 15t165.5 -46.5t64.5 -146.5q0 -79 -43.5 -131.5t-115.5 -69.5l48 -37l174 -277h-97l-193 302l-98 15v-317h-83zM265 636q-74 0 -97 -6v-258h78q72 0 115.5 35.5t43.5 104.5q0 54 -38 89t-102 35zM202 752l118 118h114v-21l-163 -97h-69z" />
    <glyph glyph-name="racute" unicode="&#x155;" horiz-adv-x="340" 
d="M330 500l-17 -77q-30 10 -57 10q-41 0 -67 -23t-32 -60v-350h-80v500h56l15 -61h4q39 71 113 71q29 0 65 -10zM136 571l59 149h89v-21l-101 -128h-47z" />
    <glyph glyph-name="Rcommaaccent" unicode="&#x156;" horiz-adv-x="595" 
d="M85 0v693q77 15 178 15t165.5 -46.5t64.5 -146.5q0 -79 -43.5 -131.5t-115.5 -69.5l48 -37l174 -277h-97l-193 302l-98 15v-317h-83zM265 636q-74 0 -97 -6v-258h78q72 0 115.5 35.5t43.5 104.5q0 54 -38 89t-102 35zM239 -102q0 20 15 33.5t36 13.5q27 0 45.5 -19
t18.5 -56q0 -45 -26 -74.5t-54 -40.5l-28 32q44 24 44 69q-4 -1 -10 -1q-18 0 -29.5 12t-11.5 31z" />
    <glyph glyph-name="rcommaaccent" unicode="&#x157;" horiz-adv-x="340" 
d="M330 500l-17 -77q-30 10 -57 10q-41 0 -67 -23t-32 -60v-350h-80v500h56l15 -61h4q39 71 113 71q29 0 65 -10zM85 -102q0 20 15 33.5t36 13.5q27 0 45.5 -19t18.5 -56q0 -45 -26 -74.5t-54 -40.5l-28 32q44 24 44 69q-4 -1 -10 -1q-18 0 -29.5 12t-11.5 31z" />
    <glyph glyph-name="Rcaron" unicode="&#x158;" horiz-adv-x="595" 
d="M85 0v693q77 15 178 15t165.5 -46.5t64.5 -146.5q0 -79 -43.5 -131.5t-115.5 -69.5l48 -37l174 -277h-97l-193 302l-98 15v-317h-83zM265 636q-74 0 -97 -6v-258h78q72 0 115.5 35.5t43.5 104.5q0 54 -38 89t-102 35zM410 848l-133 -102h-58l-127 103v21h82l59 -50
l17 -34l19 33l63 51h78v-22z" />
    <glyph glyph-name="rcaron" unicode="&#x159;" horiz-adv-x="340" 
d="M330 500l-17 -77q-30 10 -57 10q-41 0 -67 -23t-32 -60v-350h-80v500h56l15 -61h4q39 71 113 71q29 0 65 -10zM328 732l-123 -182h-37l-115 182h78l39 -66l21 -58l22 58l45 66h70z" />
    <glyph glyph-name="Sacute" unicode="&#x15a;" horiz-adv-x="531" 
d="M401 178q0 46 -35 78.5t-84.5 54t-99 45.5t-84.5 69t-35 109q0 82 58 130t161 48q123 0 189 -32l-25 -73q-64 31 -168 31q-63 0 -97.5 -28.5t-34.5 -70.5t35 -74t84.5 -55t99 -48.5t84.5 -70.5t35 -106q0 -90 -63.5 -143.5t-174.5 -53.5q-130 0 -200 37l28 75
q67 -38 169 -38q70 0 114 29t44 87zM228 752l118 118h114v-21l-163 -97h-69z" />
    <glyph glyph-name="sacute" unicode="&#x15b;" horiz-adv-x="421" 
d="M297 136q0 28 -18 47t-44.5 28.5t-58 22.5t-58 26.5t-44.5 42.5t-18 70q0 139 155 139q86 0 154 -32l-19 -65q-56 27 -125 27q-44 0 -64.5 -15.5t-20.5 -51.5q0 -28 25 -46t60 -30.5t70.5 -28t60.5 -48.5t25 -83q0 -67 -44.5 -109t-129.5 -42q-97 0 -164 37l24 67
q62 -34 135 -34q99 0 99 78zM177 571l59 149h89v-21l-101 -128h-47z" />
    <glyph glyph-name="Scircumflex" unicode="&#x15c;" horiz-adv-x="531" 
d="M401 178q0 46 -35 78.5t-84.5 54t-99 45.5t-84.5 69t-35 109q0 82 58 130t161 48q123 0 189 -32l-25 -73q-64 31 -168 31q-63 0 -97.5 -28.5t-34.5 -70.5t35 -74t84.5 -55t99 -48.5t84.5 -70.5t35 -106q0 -90 -63.5 -143.5t-174.5 -53.5q-130 0 -200 37l28 75
q67 -38 169 -38q70 0 114 29t44 87zM119 769l133 101h60l127 -102v-21h-81l-60 49l-17 35l-19 -34l-64 -50h-79v22z" />
    <glyph glyph-name="scircumflex" unicode="&#x15d;" horiz-adv-x="421" 
d="M297 136q0 28 -18 47t-44.5 28.5t-58 22.5t-58 26.5t-44.5 42.5t-18 70q0 139 155 139q86 0 154 -32l-19 -65q-56 27 -125 27q-44 0 -64.5 -15.5t-20.5 -51.5q0 -28 25 -46t60 -30.5t70.5 -28t60.5 -48.5t25 -83q0 -67 -44.5 -109t-129.5 -42q-97 0 -164 37l24 67
q62 -34 135 -34q99 0 99 78zM78 550l123 182h32l111 -182h-72l-39 66l-21 58l-22 -58l-45 -66h-67z" />
    <glyph glyph-name="Scedilla" unicode="&#x15e;" horiz-adv-x="531" 
d="M401 178q0 46 -35 78.5t-84.5 54t-99 45.5t-84.5 69t-35 109q0 82 58 130t161 48q123 0 189 -32l-25 -73q-64 31 -168 31q-63 0 -97.5 -28.5t-34.5 -70.5t35 -74t84.5 -55t99 -48.5t84.5 -70.5t35 -106q0 -79 -49 -130t-137 -63l-19 -35q79 -14 79 -75q0 -40 -32.5 -65
t-89.5 -25q-24 0 -45 4l9 39q8 -1 21 -1q63 0 63 39q0 28 -86 37l41 78q-127 1 -193 37l28 75q67 -38 169 -38q70 0 114 29t44 87z" />
    <glyph glyph-name="scedilla" unicode="&#x15f;" horiz-adv-x="421" 
d="M297 136q0 28 -18 47t-44.5 28.5t-58 22.5t-58 26.5t-44.5 42.5t-18 70q0 139 155 139q86 0 154 -32l-19 -65q-56 27 -125 27q-44 0 -64.5 -15.5t-20.5 -51.5q0 -28 25 -46t60 -30.5t70.5 -28t60.5 -48.5t25 -83q0 -61 -36.5 -101t-105.5 -48l-18 -33q79 -14 79 -75
q0 -40 -32.5 -65t-89.5 -25q-24 0 -45 4l9 39q8 -1 21 -1q63 0 63 39q0 28 -86 37l42 79q-82 4 -139 36l24 67q60 -33 135 -33q99 0 99 77z" />
    <glyph glyph-name="Scaron" unicode="&#x160;" horiz-adv-x="531" 
d="M401 178q0 46 -35 78.5t-84.5 54t-99 45.5t-84.5 69t-35 109q0 82 58 130t161 48q123 0 189 -32l-25 -73q-64 31 -168 31q-63 0 -97.5 -28.5t-34.5 -70.5t35 -74t84.5 -55t99 -48.5t84.5 -70.5t35 -106q0 -90 -63.5 -143.5t-174.5 -53.5q-130 0 -200 37l28 75
q67 -38 169 -38q70 0 114 29t44 87zM455 848l-133 -102h-58l-127 103v21h82l59 -50l17 -34l19 33l63 51h78v-22z" />
    <glyph glyph-name="scaron" unicode="&#x161;" horiz-adv-x="421" 
d="M297 136q0 28 -18 47t-44.5 28.5t-58 22.5t-58 26.5t-44.5 42.5t-18 70q0 139 155 139q86 0 154 -32l-19 -65q-56 27 -125 27q-44 0 -64.5 -15.5t-20.5 -51.5q0 -28 25 -46t60 -30.5t70.5 -28t60.5 -48.5t25 -83q0 -67 -44.5 -109t-129.5 -42q-97 0 -164 37l24 67
q62 -34 135 -34q99 0 99 78zM348 732l-123 -182h-37l-115 182h78l39 -66l21 -58l22 58l45 66h70z" />
    <glyph glyph-name="Tcedilla" unicode="&#x162;" horiz-adv-x="555" 
d="M250 0h-14v626h-218v74h519v-74h-218v-626h-12l-24 -43q79 -14 79 -75q0 -40 -32.5 -65t-89.5 -25q-24 0 -45 4l9 39q8 -1 21 -1q63 0 63 39q0 28 -86 37z" />
    <glyph glyph-name="tcedilla" unicode="&#x163;" horiz-adv-x="339" 
d="M11 430v70h78v99l80 23v-122h136v-70h-136v-277q0 -52 13 -73.5t44 -21.5q38 0 84 19l18 -60q-51 -24 -102 -29l-17 -31q79 -14 79 -75q0 -40 -32.5 -65t-89.5 -25q-24 0 -45 4l9 39q8 -1 21 -1q63 0 63 39q0 28 -86 37l42 80q-44 7 -62.5 42t-18.5 106v292h-78z" />
    <glyph glyph-name="Tcaron" unicode="&#x164;" horiz-adv-x="555" 
d="M537 700v-74h-218v-626h-83v626h-218v74h519zM437 848l-133 -102h-58l-127 103v21h82l59 -50l17 -34l19 33l63 51h78v-22z" />
    <glyph glyph-name="tcaron" unicode="&#x165;" horiz-adv-x="339" 
d="M11 430v70h78v99l80 23v-122h136v-70h-136v-277q0 -52 13 -73.5t44 -21.5q38 0 84 19l18 -60q-61 -29 -128 -29q-60 0 -85.5 34.5t-25.5 115.5v292h-78zM231 714h80q-3 -52 -31 -109.5t-51 -81.5l-33 18q35 73 35 173z" />
    <glyph glyph-name="Tbar" unicode="&#x166;" horiz-adv-x="593" 
d="M556 700v-74h-218v-225h217v-74h-217v-327h-83v327h-216v74h216v225h-218v74h519z" />
    <glyph glyph-name="tbar" unicode="&#x167;" horiz-adv-x="375" 
d="M34 434v66h78v99l80 23v-122h136v-66h-136v-141h136v-64h-136v-75q0 -52 13.5 -74t44.5 -22q34 0 84 20l18 -61q-61 -29 -129 -29q-60 0 -85.5 35t-25.5 115v91h-78v64h78v141h-78z" />
    <glyph glyph-name="Utilde" unicode="&#x168;" horiz-adv-x="652" 
d="M487 256v444h80v-467q0 -123 -61.5 -182.5t-170.5 -59.5q-250 0 -250 226v483h83v-444q0 -104 40.5 -147.5t127.5 -43.5q80 0 115.5 45t35.5 146zM193 744l-24 41q54 55 108 55q27 0 71.5 -16.5t63.5 -16.5q26 0 50 21l25 -43q-48 -44 -96 -44q-26 0 -69.5 16.5
t-64.5 16.5q-34 0 -64 -30z" />
    <glyph glyph-name="utilde" unicode="&#x169;" horiz-adv-x="539" 
d="M69 500h80v-285q0 -83 21 -120t77 -37q95 0 135 108v334h80v-358q0 -88 11 -142h-55l-20 79h-5q-53 -91 -161 -91q-85 0 -124 45.5t-39 164.5v302zM154 614l-23 42q51 58 97 58q24 0 59.5 -20t52.5 -20q22 0 46 24l24 -43q-46 -50 -87 -50q-22 0 -58 20t-54 20
q-26 0 -57 -31z" />
    <glyph glyph-name="Umacron" unicode="&#x16a;" horiz-adv-x="652" 
d="M487 256v444h80v-467q0 -123 -61.5 -182.5t-170.5 -59.5q-250 0 -250 226v483h83v-444q0 -104 40.5 -147.5t127.5 -43.5q80 0 115.5 45t35.5 146zM170 781v62h316v-62h-316z" />
    <glyph glyph-name="umacron" unicode="&#x16b;" horiz-adv-x="539" 
d="M69 500h80v-285q0 -83 21 -120t77 -37q95 0 135 108v334h80v-358q0 -88 11 -142h-55l-20 79h-5q-53 -91 -161 -91q-85 0 -124 45.5t-39 164.5v302zM122 581v62h296v-62h-296z" />
    <glyph glyph-name="Ubreve" unicode="&#x16c;" horiz-adv-x="652" 
d="M487 256v444h80v-467q0 -123 -61.5 -182.5t-170.5 -59.5q-250 0 -250 226v483h83v-444q0 -104 40.5 -147.5t127.5 -43.5q80 0 115.5 45t35.5 146zM154 847l43 24q35 -71 134 -71q46 0 79.5 20t48.5 51l40 -19q-17 -57 -64 -89.5t-105 -32.5q-57 0 -105.5 29.5t-70.5 87.5
z" />
    <glyph glyph-name="ubreve" unicode="&#x16d;" horiz-adv-x="539" 
d="M69 500h80v-285q0 -83 21 -120t77 -37q95 0 135 108v334h80v-358q0 -88 11 -142h-55l-20 79h-5q-53 -91 -161 -91q-85 0 -124 45.5t-39 164.5v302zM117 697l45 23q18 -36 48 -56.5t64 -20.5q71 0 106 77l42 -18q-5 -51 -48.5 -90t-100.5 -39q-56 0 -99 33.5t-57 90.5z
" />
    <glyph glyph-name="Uring" unicode="&#x16e;" horiz-adv-x="652" 
d="M487 256v444h80v-467q0 -123 -61.5 -182.5t-170.5 -59.5q-250 0 -250 226v483h83v-444q0 -104 40.5 -147.5t127.5 -43.5q80 0 115.5 45t35.5 146zM225 768q0 39 26 62t79 23q50 0 78 -22t28 -63q0 -37 -27.5 -60t-78.5 -23q-50 0 -77.5 22t-27.5 61zM286 768
q0 -40 44 -40q21 0 33 11t12 29q0 42 -45 42q-44 0 -44 -42z" />
    <glyph glyph-name="uring" unicode="&#x16f;" horiz-adv-x="539" 
d="M69 500h80v-285q0 -83 21 -120t77 -37q95 0 135 108v334h80v-358q0 -88 11 -142h-55l-20 79h-5q-53 -91 -161 -91q-85 0 -124 45.5t-39 164.5v302zM172 643q0 41 26.5 66t70.5 25q43 0 70.5 -23t27.5 -68q0 -39 -28 -64.5t-70 -25.5q-43 0 -70 24t-27 66zM226 643
q0 -19 13 -30.5t30 -11.5q44 0 44 42q0 21 -12.5 32t-31.5 11q-18 0 -30.5 -11t-12.5 -32z" />
    <glyph glyph-name="Uhungarumlaut" unicode="&#x170;" horiz-adv-x="652" 
d="M487 256v444h80v-467q0 -123 -61.5 -182.5t-170.5 -59.5q-250 0 -250 226v483h83v-444q0 -104 40.5 -147.5t127.5 -43.5q80 0 115.5 45t35.5 146zM213 741l64 109h93v-16l-100 -93h-57zM337 741l102 109h99v-16l-143 -93h-58z" />
    <glyph glyph-name="uhungarumlaut" unicode="&#x171;" horiz-adv-x="539" 
d="M69 500h80v-285q0 -83 21 -120t77 -37q95 0 135 108v334h80v-358q0 -88 11 -142h-55l-20 79h-5q-53 -91 -161 -91q-85 0 -124 45.5t-39 164.5v302zM175 571l35 129h78v-16l-71 -113h-42zM283 571l73 129h86v-16l-114 -113h-45z" />
    <glyph glyph-name="Uogonek" unicode="&#x172;" horiz-adv-x="652" 
d="M487 256v444h80v-467q0 -183 -140 -229q-60 -33 -60 -91q0 -21 13.5 -36.5t37.5 -15.5q19 0 40 10l11 -43q-29 -23 -86 -23q-45 0 -72 24.5t-27 64.5q0 61 60 97h-10q-249 0 -249 226v483h83v-444q0 -104 40.5 -147.5t127.5 -43.5q80 0 115.5 45t35.5 146z" />
    <glyph glyph-name="uogonek" unicode="&#x173;" horiz-adv-x="539" 
d="M69 500h80v-285q0 -83 21 -120t77 -37q95 0 135 108v334h80v-358q0 -88 11 -142h-17q-60 -26 -60 -87q0 -21 13.5 -36t37.5 -15q19 0 40 10l11 -43q-30 -24 -86 -24q-44 0 -71.5 24.5t-27.5 64.5q0 81 101 116l-16 69h-5q-53 -91 -161 -91q-85 0 -124 45.5t-39 164.5v302
z" />
    <glyph glyph-name="Wcircumflex" unicode="&#x174;" horiz-adv-x="828" 
d="M96 700l126 -469l16 -116h1l17 118l144 467h40l145 -469l17 -116h1l18 118l118 467h81l-195 -711h-46l-142 469l-18 106h-5l-18 -107l-142 -468h-46l-200 711h88zM257 769l133 101h60l127 -102v-21h-81l-60 49l-17 35l-19 -34l-64 -50h-79v22z" />
    <glyph glyph-name="wcircumflex" unicode="&#x175;" horiz-adv-x="735" 
d="M343 500h58l115 -292l25 -96h2l19 98l89 290h76l-168 -511h-39l-131 330l-19 82h-3l-20 -83l-126 -329h-39l-174 511h87l99 -291l17 -97h1l24 99zM236 550l123 182h32l111 -182h-72l-39 66l-21 58l-22 -58l-45 -66h-67z" />
    <glyph glyph-name="Ycircumflex" unicode="&#x176;" horiz-adv-x="558" 
d="M239 0v278l-231 422h97l164 -306l17 -61h1l18 63l157 304h89l-229 -421v-279h-83zM122 769l133 101h60l127 -102v-21h-81l-60 49l-17 35l-19 -34l-64 -50h-79v22z" />
    <glyph glyph-name="ycircumflex" unicode="&#x177;" horiz-adv-x="466" 
d="M104 500l120 -324l28 -96h5l22 97l97 323h81l-148 -449q-15 -45 -22.5 -65.5t-22 -57.5t-26 -55t-28 -39.5t-35 -30t-39.5 -8.5q-36 0 -59 10l14 69q13 -5 25 -5q67 0 97 131l-201 500h92zM106 550l123 182h32l111 -182h-72l-39 66l-21 58l-22 -58l-45 -66h-67z" />
    <glyph glyph-name="Ydieresis" unicode="&#x178;" horiz-adv-x="558" 
d="M239 0v278l-231 422h97l164 -306l17 -61h1l18 63l157 304h89l-229 -421v-279h-83zM133 794q0 21 15 34t39 13q23 0 37.5 -13t14.5 -34q0 -20 -14.5 -33t-37.5 -13q-24 0 -39 13t-15 33zM325 794q0 21 14.5 34t37.5 13q24 0 39 -13t15 -34q0 -20 -15 -33t-39 -13
q-23 0 -37.5 13t-14.5 33z" />
    <glyph glyph-name="Zacute" unicode="&#x179;" 
d="M38 0v75l353 511l42 40h-395v74h470v-75l-355 -514l-42 -37h397v-74h-470zM211 752l118 118h114v-21l-163 -97h-69z" />
    <glyph glyph-name="zacute" unicode="&#x17a;" horiz-adv-x="447" 
d="M42 0v70l231 318l42 42h-273v70h356v-70l-233 -321l-41 -39h274v-70h-356zM177 571l59 149h89v-21l-101 -128h-47z" />
    <glyph glyph-name="Zdotaccent" unicode="&#x17b;" 
d="M38 0v75l353 511l42 40h-395v74h470v-75l-355 -514l-42 -37h397v-74h-470zM211 797q0 22 17 37t45 15t46 -15t18 -37q0 -23 -17.5 -38t-46.5 -15q-28 0 -45 15t-17 38z" />
    <glyph glyph-name="zdotaccent" unicode="&#x17c;" horiz-adv-x="447" 
d="M42 0v70l231 318l42 42h-273v70h356v-70l-233 -321l-41 -39h274v-70h-356zM173 652q0 23 15.5 39.5t39.5 16.5t41 -16.5t17 -39.5q0 -22 -17 -37.5t-41 -15.5t-39.5 15t-15.5 38z" />
    <glyph glyph-name="Zcaron" unicode="&#x17d;" 
d="M38 0v75l353 511l42 40h-395v74h470v-75l-355 -514l-42 -37h397v-74h-470zM419 848l-133 -102h-58l-127 103v21h82l59 -50l17 -34l19 33l63 51h78v-22z" />
    <glyph glyph-name="zcaron" unicode="&#x17e;" horiz-adv-x="447" 
d="M42 0v70l231 318l42 42h-273v70h356v-70l-233 -321l-41 -39h274v-70h-356zM358 732l-123 -182h-37l-115 182h78l39 -66l21 -58l22 58l45 66h70z" />
    <glyph glyph-name="longs" unicode="&#x17f;" horiz-adv-x="249" 
d="M22 430v70h78v28q0 95 32.5 136.5t111.5 41.5q61 0 107 -19l-18 -66q-36 15 -82 15q-45 0 -58 -24t-13 -83v-529h-80v430h-78z" />
    <glyph glyph-name="uni018F" unicode="&#x18f;" horiz-adv-x="639" 
d="M500 322h-355q-4 -24 -4 -53q0 -89 42 -150t124 -61q93 0 142.5 67.5t50.5 196.5zM63 392h437q-9 128 -60.5 187t-154.5 59q-42 0 -85.5 -12.5t-69.5 -28.5l-21 67q80 48 192 48q139 0 210.5 -87t71.5 -275q0 -175 -70 -268.5t-207 -93.5q-123 0 -188 77.5t-65 213.5
q0 56 10 113z" />
    <glyph glyph-name="florin" unicode="&#x192;" 
d="M447 430h-131l-79 -464q-28 -174 -156 -174q-56 0 -115 24l21 65q45 -19 88 -19q38 0 57.5 33t32.5 113l68 422h-85v70h96l11 67q12 77 44.5 111t102.5 34q62 0 121 -25l-23 -64q-45 19 -92 19q-36 0 -50.5 -21t-23.5 -80l-7 -41h120v-70z" />
    <glyph glyph-name="uni01DD" unicode="&#x1dd;" horiz-adv-x="507" 
d="M95 402l-30 58q65 52 172 52q111 0 166 -69.5t55 -192.5q0 -125 -56 -193.5t-156 -68.5q-36 0 -68.5 10.5t-62.5 34t-48 68.5t-18 107q0 26 5 68h326q-5 87 -42.5 126.5t-123.5 39.5q-33 0 -66.5 -12t-52.5 -28zM248 58q57 0 93.5 40.5t36.5 114.5h-251v-15
q0 -67 33.5 -103.5t87.5 -36.5z" />
    <glyph glyph-name="Gcaron" unicode="&#x1e6;" horiz-adv-x="612" 
d="M321 302v47h235v-308q-32 -24 -85.5 -38.5t-107.5 -14.5q-140 0 -223.5 91t-83.5 271q0 93 27.5 165t73.5 113.5t100 62.5t113 21q103 0 165 -24l-21 -73q-48 23 -137 23q-44 0 -83.5 -15t-74 -47t-55 -90t-20.5 -136q0 -143 62.5 -215.5t169.5 -72.5q64 0 109 25v195z
M525 848l-133 -102h-58l-127 103v21h82l59 -50l17 -34l19 33l63 51h78v-22z" />
    <glyph glyph-name="gcaron" unicode="&#x1e7;" horiz-adv-x="537" 
d="M460 479v-502q0 -189 -204 -189q-100 0 -159 27l21 67q62 -24 124 -24q81 0 110 32t29 111v48h-4q-42 -60 -132 -60q-100 0 -148 63.5t-48 195.5q0 128 61.5 194.5t179.5 66.5q89 0 170 -30zM259 59q51 0 80 25.5t41 79.5v257q-38 18 -102 18q-69 0 -107.5 -47.5
t-38.5 -142.5q0 -190 127 -190zM407 732l-123 -182h-37l-115 182h78l39 -66l21 -58l22 58l45 66h70z" />
    <glyph glyph-name="uni01F4" unicode="&#x1f4;" horiz-adv-x="612" 
d="M321 302v47h235v-308q-32 -24 -85.5 -38.5t-107.5 -14.5q-140 0 -223.5 91t-83.5 271q0 93 27.5 165t73.5 113.5t100 62.5t113 21q103 0 165 -24l-21 -73q-48 23 -137 23q-44 0 -83.5 -15t-74 -47t-55 -90t-20.5 -136q0 -143 62.5 -215.5t169.5 -72.5q64 0 109 25v195z
M310 752l118 118h114v-21l-163 -97h-69z" />
    <glyph glyph-name="uni01F5" unicode="&#x1f5;" horiz-adv-x="537" 
d="M460 479v-502q0 -189 -204 -189q-100 0 -159 27l21 67q62 -24 124 -24q81 0 110 32t29 111v48h-4q-42 -60 -132 -60q-100 0 -148 63.5t-48 195.5q0 128 61.5 194.5t179.5 66.5q89 0 170 -30zM259 59q51 0 80 25.5t41 79.5v257q-38 18 -102 18q-69 0 -107.5 -47.5
t-38.5 -142.5q0 -190 127 -190zM245 571l59 149h89v-21l-101 -128h-47z" />
    <glyph glyph-name="Aringacute" unicode="&#x1fa;" horiz-adv-x="585" 
d="M188 768q0 39 26 62t79 23q50 0 78 -22t28 -63q0 -32 -20.5 -53.5t-58.5 -27.5l257 -687h-87l-72 194h-258l-70 -194h-82l256 687q-76 12 -76 81zM264 477l-77 -211h206l-78 213l-25 106h-1zM249 768q0 -40 44 -40q21 0 33 11t12 29q0 42 -45 42q-44 0 -44 -42zM243 882
l118 118h114v-21l-163 -97h-69z" />
    <glyph glyph-name="aringacute" unicode="&#x1fb;" horiz-adv-x="496" 
d="M94 404l-25 59q75 45 194 45q50 0 83.5 -13.5t49 -37.5t21 -48t5.5 -55q0 -42 -3 -117t-3 -108q0 -84 14 -131h-59l-21 70h-5q-51 -76 -156 -76q-65 0 -107.5 39t-42.5 103q0 83 64.5 118t182.5 35q36 0 55 -2q3 30 3 54q0 56 -22 77.5t-80 21.5q-35 0 -78 -9.5
t-70 -24.5zM211 62q52 0 84.5 23.5t45.5 55.5v83q-38 2 -57 2q-162 0 -162 -84q0 -35 25 -57.5t64 -22.5zM151 641q0 41 26.5 66t70.5 25q43 0 70.5 -23t27.5 -68q0 -39 -28 -64.5t-70 -25.5q-43 0 -70 24t-27 66zM205 641q0 -19 13 -30.5t30 -11.5q44 0 44 42
q0 21 -12.5 32t-31.5 11q-18 0 -30.5 -11t-12.5 -32zM192 752l118 118h114v-21l-163 -97h-69z" />
    <glyph glyph-name="AEacute" unicode="&#x1fc;" horiz-adv-x="846" 
d="M395 600h-4l-34 -103l-133 -229h171v332zM395 0v198h-214l-112 -198h-91l415 700h383v-74h-298v-229h273v-74h-273v-249h303v-74h-386zM424 752l118 118h114v-21l-163 -97h-69z" />
    <glyph glyph-name="aeacute" unicode="&#x1fd;" horiz-adv-x="796" 
d="M211 62q52 0 84.5 23.5t45.5 55.5v83q-38 2 -57 2q-162 0 -162 -84q0 -35 25 -57.5t64 -22.5zM374 84h-7q-67 -92 -178 -92q-65 0 -107.5 39t-42.5 103q0 83 64.5 118t182.5 35q36 0 55 -2q0 5 1.5 25t1.5 29q0 56 -22 77.5t-80 21.5q-35 0 -78 -9.5t-70 -24.5l-25 59
q75 45 194 45q105 0 136 -65q24 34 67.5 51.5t90.5 17.5q38 0 68.5 -8t60 -28t45.5 -61.5t16 -101.5q0 -28 -5 -71h-323q0 -90 38 -137t123 -47q34 0 67.5 11.5t52.5 27.5l30 -57q-65 -52 -172 -52q-61 0 -110.5 25.5t-73.5 70.5zM558 442q-126 0 -137 -137h248v12
q0 125 -111 125zM366 571l59 149h89v-21l-101 -128h-47z" />
    <glyph glyph-name="Oslashacute" unicode="&#x1fe;" horiz-adv-x="684" 
d="M75 24l47 67q-66 92 -66 259q0 174 74.5 268t210.5 94q109 0 179 -59l42 60l52 -35l-51 -72q65 -93 65 -256q0 -174 -75 -268t-212 -94q-107 0 -175 56l-39 -56zM144 350q0 -106 35 -179l290 411q-50 56 -128 56q-94 0 -145.5 -72.5t-51.5 -215.5zM540 350q0 103 -34 175
l-290 -411q49 -52 125 -52q95 0 147 72t52 216zM299 752l118 118h114v-21l-163 -97h-69z" />
    <glyph glyph-name="oslashacute" unicode="&#x1ff;" horiz-adv-x="536" 
d="M49 250q0 126 57 194t162 68q73 0 122 -32l26 35l50 -37l-29 -42q50 -66 50 -186q0 -126 -57 -194t-162 -68q-78 0 -128 35l-27 -37l-52 38l33 46q-45 68 -45 180zM404 250q0 70 -21 115l-199 -277q33 -30 84 -30q136 0 136 192zM132 250q0 -62 18 -109l197 274
q-32 27 -79 27q-136 0 -136 -192zM228 571l59 149h89v-21l-101 -128h-47z" />
    <glyph glyph-name="Scommaaccent" unicode="&#x218;" horiz-adv-x="531" 
d="M401 178q0 46 -35 78.5t-84.5 54t-99 45.5t-84.5 69t-35 109q0 82 58 130t161 48q123 0 189 -32l-25 -73q-64 31 -168 31q-63 0 -97.5 -28.5t-34.5 -70.5t35 -74t84.5 -55t99 -48.5t84.5 -70.5t35 -106q0 -90 -63.5 -143.5t-174.5 -53.5q-130 0 -200 37l28 75
q67 -38 169 -38q70 0 114 29t44 87zM203 -102q0 20 15 33.5t36 13.5q27 0 45.5 -19t18.5 -56q0 -45 -26 -74.5t-54 -40.5l-28 32q44 24 44 69q-4 -1 -10 -1q-18 0 -29.5 12t-11.5 31z" />
    <glyph glyph-name="scommaaccent" unicode="&#x219;" horiz-adv-x="421" 
d="M297 136q0 28 -18 47t-44.5 28.5t-58 22.5t-58 26.5t-44.5 42.5t-18 70q0 139 155 139q86 0 154 -32l-19 -65q-56 27 -125 27q-44 0 -64.5 -15.5t-20.5 -51.5q0 -28 25 -46t60 -30.5t70.5 -28t60.5 -48.5t25 -83q0 -67 -44.5 -109t-129.5 -42q-97 0 -164 37l24 67
q62 -34 135 -34q99 0 99 78zM154 -102q0 20 15 33.5t36 13.5q27 0 45.5 -19t18.5 -56q0 -45 -26 -74.5t-54 -40.5l-28 32q44 24 44 69q-4 -1 -10 -1q-18 0 -29.5 12t-11.5 31z" />
    <glyph glyph-name="Tcommaaccent" unicode="&#x21a;" horiz-adv-x="555" 
d="M537 700v-74h-218v-626h-83v626h-218v74h519zM218 -102q0 20 15 33.5t36 13.5q27 0 45.5 -19t18.5 -56q0 -45 -26 -74.5t-54 -40.5l-28 32q44 24 44 69q-4 -1 -10 -1q-18 0 -29.5 12t-11.5 31z" />
    <glyph glyph-name="tcommaaccent" unicode="&#x21b;" horiz-adv-x="339" 
d="M11 430v70h78v99l80 23v-122h136v-70h-136v-277q0 -52 13 -73.5t44 -21.5q38 0 84 19l18 -60q-61 -29 -128 -29q-60 0 -85.5 34.5t-25.5 115.5v292h-78zM130 -102q0 20 15 33.5t36 13.5q27 0 45.5 -19t18.5 -56q0 -45 -26 -74.5t-54 -40.5l-28 32q44 24 44 69
q-4 -1 -10 -1q-18 0 -29.5 12t-11.5 31z" />
    <glyph glyph-name="uni0237" unicode="&#x237;" horiz-adv-x="267" 
d="M93 3v497h80v-527q0 -93 -32.5 -139t-101.5 -46q-8 0 -30 2v68q53 0 68.5 32t15.5 113z" />
    <glyph glyph-name="uni0259" unicode="&#x259;" horiz-adv-x="507" 
d="M95 402l-30 58q65 52 172 52q111 0 166 -69.5t55 -192.5q0 -125 -56 -193.5t-156 -68.5q-36 0 -68.5 10.5t-62.5 34t-48 68.5t-18 107q0 26 5 68h326q-5 87 -42.5 126.5t-123.5 39.5q-33 0 -66.5 -12t-52.5 -28zM248 58q57 0 93.5 40.5t36.5 114.5h-251v-15
q0 -67 33.5 -103.5t87.5 -36.5z" />
    <glyph glyph-name="afii57929" unicode="&#x2bc;" horiz-adv-x="194" 
d="M40 659q0 22 14.5 35.5t37.5 13.5q29 0 46 -18t17 -52q0 -58 -27.5 -92t-59.5 -46l-25 34q49 26 49 77q-4 -1 -11 -1q-19 0 -30 13.5t-11 35.5z" />
    <glyph glyph-name="circumflex" unicode="&#x2c6;" horiz-adv-x="386" 
d="M60 550l123 182h32l111 -182h-72l-39 66l-21 58l-22 -58l-45 -66h-67z" />
    <glyph glyph-name="caron" unicode="&#x2c7;" horiz-adv-x="395" 
d="M335 732l-123 -182h-37l-115 182h78l39 -66l21 -58l22 58l45 66h70z" />
    <glyph glyph-name="breve" unicode="&#x2d8;" horiz-adv-x="425" 
d="M60 697l45 23q18 -36 48 -56.5t64 -20.5q71 0 106 77l42 -18q-5 -51 -48.5 -90t-100.5 -39q-56 0 -99 33.5t-57 90.5z" />
    <glyph glyph-name="dotaccent" unicode="&#x2d9;" horiz-adv-x="233" 
d="M60 652q0 23 15.5 39.5t39.5 16.5t41 -16.5t17 -39.5q0 -22 -17 -37.5t-41 -15.5t-39.5 15t-15.5 38z" />
    <glyph glyph-name="ring" unicode="&#x2da;" horiz-adv-x="315" 
d="M60 643q0 41 26.5 66t70.5 25q43 0 70.5 -23t27.5 -68q0 -39 -28 -64.5t-70 -25.5q-43 0 -70 24t-27 66zM114 643q0 -19 13 -30.5t30 -11.5q44 0 44 42q0 21 -12.5 32t-31.5 11q-18 0 -30.5 -11t-12.5 -32z" />
    <glyph glyph-name="ogonek" unicode="&#x2db;" horiz-adv-x="305" 
d="M163 10h55q-75 -34 -75 -97q0 -21 13.5 -36t37.5 -15q19 0 40 10l11 -43q-30 -24 -86 -24q-45 0 -72 24.5t-27 64.5q0 80 103 116z" />
    <glyph glyph-name="tilde" unicode="&#x2dc;" horiz-adv-x="399" 
d="M83 614l-23 42q51 58 97 58q24 0 59.5 -20t52.5 -20q22 0 46 24l24 -43q-46 -50 -87 -50q-22 0 -58 20t-54 20q-26 0 -57 -31z" />
    <glyph glyph-name="hungarumlaut" unicode="&#x2dd;" horiz-adv-x="387" 
d="M60 571l35 129h78v-16l-71 -113h-42zM168 571l73 129h86v-16l-114 -113h-45z" />
    <glyph glyph-name="gravecomb" unicode="&#x300;" horiz-adv-x="2" 
d="M-257 720l65 -149h-45l-115 128v21h95z" />
    <glyph glyph-name="acutecomb" unicode="&#x301;" horiz-adv-x="2" 
d="M-291 571l59 149h89v-21l-101 -128h-47z" />
    <glyph glyph-name="uni0394" unicode="&#x394;" horiz-adv-x="568" 
d="M558 0h-544v37l254 674h34l256 -674v-37zM253 473l-147 -401h355l-155 403l-24 105h-1z" />
    <glyph glyph-name="uni0394" unicode="&#x2206;" horiz-adv-x="568" 
d="M558 0h-544v37l254 674h34l256 -674v-37zM253 473l-147 -401h355l-155 403l-24 105h-1z" />
    <glyph glyph-name="uni03A9" unicode="&#x3a9;" horiz-adv-x="802" 
d="M76 0v70h116l94 -10v26l-54 10q-68 33 -112 107t-44 173q0 156 87.5 246t236.5 90q153 0 239.5 -93.5t86.5 -246.5q0 -98 -46 -169t-109 -106l-57 -11v-26l96 10h116v-70h-287v125q33 6 65 22t63.5 44.5t51 76.5t19.5 109q0 106 -60.5 183.5t-178.5 77.5
q-113 0 -174 -67.5t-61 -196.5q0 -60 18 -107t48.5 -75.5t63.5 -45t68 -21.5v-125h-286z" />
    <glyph glyph-name="uni03A9" unicode="&#x2126;" horiz-adv-x="802" 
d="M76 0v70h116l94 -10v26l-54 10q-68 33 -112 107t-44 173q0 156 87.5 246t236.5 90q153 0 239.5 -93.5t86.5 -246.5q0 -98 -46 -169t-109 -106l-57 -11v-26l96 10h116v-70h-287v125q33 6 65 22t63.5 44.5t51 76.5t19.5 109q0 106 -60.5 183.5t-178.5 77.5
q-113 0 -174 -67.5t-61 -196.5q0 -60 18 -107t48.5 -75.5t63.5 -45t68 -21.5v-125h-286z" />
    <glyph glyph-name="pi" unicode="&#x3c0;" horiz-adv-x="664" 
d="M514 430v-314q0 -50 32 -50q20 0 44 6l19 -54q-51 -22 -93 -22q-47 0 -64.5 27t-17.5 83v324h-190v-430h-80v430h-14q-20 0 -33 -10.5t-28 -34.5l-53 32q20 41 49 62t79 21h433v-70h-83z" />
    <glyph glyph-name="afii10023" unicode="&#x401;" horiz-adv-x="536" 
d="M85 0v700h381v-74h-298v-229h273v-74h-273v-249h303v-74h-386zM120 794q0 21 15 34t39 13q23 0 37.5 -13t14.5 -34q0 -20 -14.5 -33t-37.5 -13q-24 0 -39 13t-15 33zM312 794q0 21 14.5 34t37.5 13q24 0 39 -13t15 -34q0 -20 -15 -33t-39 -13q-23 0 -37.5 13t-14.5 33z
" />
    <glyph glyph-name="afii10051" unicode="&#x402;" horiz-adv-x="728" 
d="M319 342v-342h-83v626h-218v74h519v-74h-218v-211q67 21 139 21q43 0 79 -10t67.5 -32.5t49.5 -65.5t18 -102q0 -234 -233 -234q-55 0 -70 3v72q25 -3 73 -3q142 0 142 156q0 144 -152 144q-58 0 -113 -22z" />
    <glyph glyph-name="afii10052" unicode="&#x403;" horiz-adv-x="442" 
d="M460 700v-74h-292v-626h-83v700h375zM197 752l118 118h114v-21l-163 -97h-69z" />
    <glyph glyph-name="afii10053" unicode="&#x404;" horiz-adv-x="583" 
d="M523 94l21 -65q-53 -41 -179 -41q-135 0 -222 91.5t-87 270.5q0 94 27 166t72 113.5t98.5 62t111.5 20.5q107 0 169 -24l-20 -74q-50 24 -142 24q-87 0 -151.5 -58.5t-75.5 -181.5h306v-74h-307q6 -126 73.5 -194t166.5 -68q90 0 139 32z" />
    <glyph glyph-name="afii10054" unicode="&#x405;" horiz-adv-x="531" 
d="M401 178q0 46 -35 78.5t-84.5 54t-99 45.5t-84.5 69t-35 109q0 82 58 130t161 48q123 0 189 -32l-25 -73q-64 31 -168 31q-63 0 -97.5 -28.5t-34.5 -70.5t35 -74t84.5 -55t99 -48.5t84.5 -70.5t35 -106q0 -90 -63.5 -143.5t-174.5 -53.5q-130 0 -200 37l28 75
q67 -38 169 -38q70 0 114 29t44 87z" />
    <glyph glyph-name="afii10055" unicode="&#x406;" horiz-adv-x="291" 
d="M104 0v700h83v-700h-83z" />
    <glyph glyph-name="afii10056" unicode="&#x407;" horiz-adv-x="293" 
d="M32 793q0 21 14.5 34.5t36.5 13.5q21 0 35.5 -13.5t14.5 -34.5t-14 -34t-36 -13t-36.5 13t-14.5 34zM161 793q0 21 14.5 34.5t35.5 13.5q22 0 36.5 -13.5t14.5 -34.5t-14.5 -34t-36.5 -13t-36 13t-14 34zM105 0v700h83v-700h-83z" />
    <glyph glyph-name="afii10057" unicode="&#x408;" horiz-adv-x="291" 
d="M112 174v526h83v-546q0 -164 -143 -164q-54 0 -86 16l16 71q28 -13 61 -13q40 0 54.5 27.5t14.5 82.5z" />
    <glyph glyph-name="afii10058" unicode="&#x409;" horiz-adv-x="926" 
d="M456 7v619h-209q-20 -415 -76 -539q-42 -92 -117 -92q-33 0 -56 10l11 72q11 -3 21 -3q39 0 66 52q64 119 73 574h370v-272q37 8 99 8q40 0 75 -6t69 -20.5t57.5 -38t38 -60.5t14.5 -85q0 -115 -75.5 -174.5t-197.5 -59.5q-104 0 -163 15zM630 64q76 0 125 40.5t49 115.5
q0 144 -177 144q-57 0 -88 -9v-285q29 -6 91 -6z" />
    <glyph glyph-name="afii10059" unicode="&#x40a;" horiz-adv-x="974" 
d="M504 6v330h-336v-336h-83v700h83v-290h336v290h83v-291q37 8 100 8q253 0 253 -200q0 -115 -74.5 -170t-198.5 -55q-98 0 -163 14zM678 64q78 0 126 36t48 110q0 41 -14 68.5t-40 41.5t-55.5 19.5t-67.5 5.5q-59 0 -88 -9v-266q27 -6 91 -6z" />
    <glyph glyph-name="afii10060" unicode="&#x40b;" horiz-adv-x="750" 
d="M319 320v-320h-83v626h-218v74h519v-74h-218v-231q81 45 172 45t141 -45t50 -151v-244h-83v229q0 137 -124 137q-99 0 -156 -46z" />
    <glyph glyph-name="afii10061" unicode="&#x40c;" horiz-adv-x="610" 
d="M470 0l-255 324h-47v-324h-83v700h83v-326l45 14l235 312h96l-234 -301l-42 -33l51 -40l256 -326h-105zM223 752l118 118h114v-21l-163 -97h-69z" />
    <glyph glyph-name="afii10062" unicode="&#x40e;" horiz-adv-x="553" 
d="M103 700l179 -369l26 -89h5l20 92l134 366h85l-177 -455q-60 -154 -93.5 -202t-99.5 -48q-55 0 -89 22l25 69q29 -17 68 -17q51 0 80 113l-259 518h96zM122 850l79 20q4 -37 28 -57t64 -20t63.5 20t28.5 56l71 -17q-24 -117 -164 -117q-154 0 -170 115z" />
    <glyph glyph-name="afii10145" unicode="&#x40f;" horiz-adv-x="659" 
d="M285 0h-200v700h83v-626h323v626h83v-700h-202l-15 -179h-52z" />
    <glyph glyph-name="afii10017" unicode="&#x410;" horiz-adv-x="585" 
d="M490 0l-72 194h-258l-70 -194h-82l265 711h38l266 -711h-87zM264 477l-77 -211h206l-78 213l-25 106h-1z" />
    <glyph glyph-name="afii10018" unicode="&#x411;" horiz-adv-x="550" 
d="M85 7v693h380v-74h-297v-210q52 9 90 9q254 0 254 -204q0 -113 -73 -171t-183 -58q-108 0 -171 15zM266 64q69 0 113.5 37t44.5 106q0 85 -46.5 115.5t-127.5 30.5q-45 0 -82 -8v-275q23 -6 98 -6z" />
    <glyph glyph-name="afii10019" unicode="&#x412;" horiz-adv-x="584" 
d="M507 540q0 -55 -34 -102t-98 -63v-4q67 -12 110 -53.5t43 -118.5q0 -102 -76.5 -154.5t-184.5 -52.5q-130 0 -182 13v689q86 14 193 14q43 0 80 -7t72.5 -24t56 -52t20.5 -85zM275 64q69 0 117 33.5t48 95.5q0 129 -185 129h-87v-251q31 -7 107 -7zM168 392h52q53 0 81 4
q52 17 85 49t33 78q0 113 -149 113q-74 0 -102 -6v-238z" />
    <glyph glyph-name="afii10020" unicode="&#x413;" horiz-adv-x="442" 
d="M460 700v-74h-292v-626h-83v700h375z" />
    <glyph glyph-name="afii10021" unicode="&#x414;" horiz-adv-x="669" 
d="M641 74v-203h-57l-15 129h-491l-15 -129h-58v203h71q11 15 25 54t32 111t30.5 194t12.5 267h374v-626h91zM164 74h303v552h-213q-12 -396 -90 -552z" />
    <glyph glyph-name="afii10022" unicode="&#x415;" horiz-adv-x="536" 
d="M85 0v700h381v-74h-298v-229h273v-74h-273v-249h303v-74h-386z" />
    <glyph glyph-name="afii10024" unicode="&#x416;" horiz-adv-x="806" 
d="M358 386v314h80v-326l43 14l203 312h92l-202 -304l-40 -32l50 -41l223 -323h-102l-221 324h-46v-324h-80v336l-42 -14l-221 -322h-96l221 313l48 38l-46 35l-209 314h97l203 -314h45z" />
    <glyph glyph-name="afii10025" unicode="&#x417;" horiz-adv-x="541" 
d="M194 331h-55v70h16q67 0 95 5q55 9 90.5 39.5t35.5 77.5q0 115 -141 115q-97 0 -153 -26l-22 66q22 13 75.5 23.5t113.5 10.5q92 0 153.5 -40.5t61.5 -131.5q0 -53 -34.5 -97.5t-97.5 -63.5v-4q72 -10 112.5 -53.5t40.5 -114.5q0 -73 -39 -124t-96.5 -73t-126.5 -22
q-115 0 -179 26l21 75q56 -27 165 -27q68 0 117.5 36.5t49.5 103.5q0 115 -159 127q-32 2 -44 2z" />
    <glyph glyph-name="afii10026" unicode="&#x418;" horiz-adv-x="681" 
d="M513 0v474l6 80h-4l-43 -82l-338 -472h-49v700h83v-480l-7 -79h4l44 82l338 477h49v-700h-83z" />
    <glyph glyph-name="afii10027" unicode="&#x419;" horiz-adv-x="681" 
d="M513 0v474l6 80h-4l-43 -82l-338 -472h-49v700h83v-480l-7 -79h4l44 82l338 477h49v-700h-83zM179 850l79 20q4 -37 28 -57t64 -20q82 0 92 76l71 -17q-24 -117 -164 -117q-154 0 -170 115z" />
    <glyph glyph-name="afii10028" unicode="&#x41a;" horiz-adv-x="610" 
d="M470 0l-255 324h-47v-324h-83v700h83v-326l45 14l235 312h96l-234 -301l-42 -33l51 -40l256 -326h-105z" />
    <glyph glyph-name="afii10029" unicode="&#x41b;" horiz-adv-x="624" 
d="M456 0v626h-209q-20 -415 -76 -539q-42 -92 -117 -92q-33 0 -56 10l11 72q11 -3 21 -3q39 0 66 52q64 119 73 574h370v-700h-83z" />
    <glyph glyph-name="afii10030" unicode="&#x41c;" horiz-adv-x="791" 
d="M623 0v470l10 105h-5l-38 -96l-182 -316h-25l-193 317l-36 95h-5l14 -104v-471h-78v700h62l219 -358l33 -78h2l31 80l209 356h65v-700h-83z" />
    <glyph glyph-name="afii10031" unicode="&#x41d;" horiz-adv-x="672" 
d="M504 0v321h-336v-321h-83v700h83v-305h336v305h83v-700h-83z" />
    <glyph glyph-name="afii10032" unicode="&#x41e;" horiz-adv-x="684" 
d="M56 350q0 174 74.5 268t210.5 94q143 0 215 -96.5t72 -265.5q0 -174 -75 -268t-212 -94q-142 0 -213.5 96.5t-71.5 265.5zM144 350q0 -124 50 -206t147 -82q95 0 147 72t52 216q0 80 -20 143t-66 104t-113 41q-94 0 -145.5 -72.5t-51.5 -215.5z" />
    <glyph glyph-name="afii10033" unicode="&#x41f;" horiz-adv-x="659" 
d="M491 0v626h-323v-626h-83v700h489v-700h-83z" />
    <glyph glyph-name="afii10034" unicode="&#x420;" horiz-adv-x="559" 
d="M85 0v693q63 15 169 15q51 0 94.5 -9.5t84.5 -32t65 -67t24 -106.5q0 -61 -22.5 -107t-62 -72.5t-86.5 -39t-101 -12.5q-63 0 -82 4v-266h-83zM256 636q-65 0 -88 -6v-290q14 -4 78 -4q188 0 188 157q0 52 -27.5 85.5t-65.5 45.5t-85 12z" />
    <glyph glyph-name="afii10035" unicode="&#x421;" horiz-adv-x="571" 
d="M513 94l20 -65q-53 -41 -174 -41q-133 0 -218 91.5t-85 270.5q0 94 26.5 166t70.5 113.5t96.5 62t110.5 20.5q101 0 163 -24l-20 -73q-48 23 -137 23q-93 0 -157.5 -69.5t-64.5 -218.5q0 -139 65 -213.5t169 -74.5q83 0 135 32z" />
    <glyph glyph-name="afii10036" unicode="&#x422;" horiz-adv-x="555" 
d="M537 700v-74h-218v-626h-83v626h-218v74h519z" />
    <glyph glyph-name="afii10037" unicode="&#x423;" horiz-adv-x="553" 
d="M103 700l179 -369l26 -89h5l20 92l134 366h85l-177 -455q-60 -154 -93.5 -202t-99.5 -48q-55 0 -89 22l25 69q29 -17 68 -17q51 0 80 113l-259 518h96z" />
    <glyph glyph-name="afii10038" unicode="&#x424;" horiz-adv-x="780" 
d="M349 -20v98q-29 -5 -82 -5q-101 0 -163.5 69.5t-62.5 207.5q0 134 67 211t178 77q43 0 63 -4v86h82v-89q28 7 83 7q100 0 162.5 -72t62.5 -206q0 -137 -69 -212t-174 -75q-45 0 -65 7v-100h-82zM502 568q-51 0 -72 -7v-415q13 -3 59 -3q71 0 117.5 56t46.5 161
q0 94 -41 151t-110 57zM282 143q49 0 68 6v415q-21 4 -61 4q-71 0 -116.5 -56.5t-45.5 -161.5q0 -95 42.5 -151t112.5 -56z" />
    <glyph glyph-name="afii10039" unicode="&#x425;" horiz-adv-x="618" 
d="M26 0l233 356l-213 344h100l142 -237l25 -57l24 57l150 237h92l-220 -337l230 -363h-97l-158 251l-27 60l-26 -60l-162 -251h-93z" />
    <glyph glyph-name="afii10040" unicode="&#x426;" horiz-adv-x="687" 
d="M659 74v-203h-57l-15 129h-502v700h83v-626h315v626h83v-626h93z" />
    <glyph glyph-name="afii10041" unicode="&#x427;" horiz-adv-x="605" 
d="M75 700h83v-232q0 -137 124 -137q99 0 155 46v323h83v-700h-83v302q-81 -45 -172 -45t-140.5 44.5t-49.5 151.5v247z" />
    <glyph glyph-name="afii10042" unicode="&#x428;" horiz-adv-x="877" 
d="M792 0h-707v700h83v-626h229v626h83v-626h229v626h83v-700z" />
    <glyph glyph-name="afii10043" unicode="&#x429;" horiz-adv-x="913" 
d="M812 0h-727v700h83v-626h229v626h83v-626h229v626h83v-626h93v-203h-58z" />
    <glyph glyph-name="afii10044" unicode="&#x42a;" horiz-adv-x="630" 
d="M159 7v619h-160v74h243v-272q37 8 100 8q51 0 93.5 -10t80 -32.5t59 -65.5t21.5 -102q0 -115 -75.5 -174.5t-197.5 -59.5q-104 0 -164 15zM334 64q75 0 124.5 40.5t49.5 115.5q0 144 -178 144q-59 0 -88 -9v-285q27 -6 92 -6z" />
    <glyph glyph-name="afii10045" unicode="&#x42b;" horiz-adv-x="769" 
d="M601 0v700h83v-700h-83zM85 7v693h83v-272q37 8 86 8q51 0 92 -10t77 -32.5t56 -65.5t20 -102q0 -117 -70.5 -175.5t-190.5 -58.5q-94 0 -153 15zM245 64q75 0 120.5 40t45.5 116q0 144 -170 144q-41 0 -73 -9v-285q27 -6 77 -6z" />
    <glyph glyph-name="afii10046" unicode="&#x42c;" horiz-adv-x="555" 
d="M85 7v693h83v-272q37 8 99 8q40 0 75 -6t69 -20.5t57.5 -38t38 -60.5t14.5 -85q0 -115 -75.5 -174.5t-197.5 -59.5q-104 0 -163 15zM259 64q76 0 125 40.5t49 115.5q0 144 -177 144q-56 0 -88 -9v-285q29 -6 91 -6z" />
    <glyph glyph-name="afii10047" unicode="&#x42d;" horiz-adv-x="577" 
d="M150 321v74h287q-8 121 -69.5 182t-157.5 61q-93 0 -143 -30l-22 65q67 39 175 39q137 0 219 -88.5t82 -273.5q0 -95 -25.5 -166.5t-71 -113t-102 -62t-123.5 -20.5q-90 0 -154 25l22 73q50 -24 137 -24q93 0 160.5 62.5t73.5 196.5h-288z" />
    <glyph glyph-name="afii10048" unicode="&#x42e;" horiz-adv-x="893" 
d="M168 700v-305h124q8 154 78 235.5t196 81.5q271 0 271 -362q0 -176 -68 -269t-203 -93q-134 0 -202 87.5t-73 245.5h-123v-321h-83v700h83zM379 350q0 -127 45 -207.5t142 -80.5q93 0 138 70.5t45 217.5q0 60 -9.5 110t-29.5 91t-57 64t-87 23q-187 0 -187 -288z" />
    <glyph glyph-name="afii10049" unicode="&#x42f;" horiz-adv-x="569" 
d="M484 693v-693h-83v305l-103 -22l-174 -283h-98l156 249l61 43q-75 17 -121 69t-46 135q0 212 260 212q87 0 148 -15zM332 636q-168 0 -168 -140q0 -72 47.5 -107.5t121.5 -35.5h68v277q-27 6 -69 6z" />
    <glyph glyph-name="afii10065" unicode="&#x430;" horiz-adv-x="496" 
d="M94 404l-25 59q75 45 194 45q50 0 83.5 -13.5t49 -37.5t21 -48t5.5 -55q0 -42 -3 -117t-3 -108q0 -84 14 -131h-59l-21 70h-5q-51 -76 -156 -76q-65 0 -107.5 39t-42.5 103q0 83 64.5 118t182.5 35q36 0 55 -2q3 30 3 54q0 56 -22 77.5t-80 21.5q-35 0 -78 -9.5
t-70 -24.5zM211 62q52 0 84.5 23.5t45.5 55.5v83q-38 2 -57 2q-162 0 -162 -84q0 -35 25 -57.5t64 -22.5z" />
    <glyph glyph-name="afii10066" unicode="&#x431;" horiz-adv-x="536" 
d="M123 411q33 47 73 67t100 20q92 0 141.5 -60.5t49.5 -176.5q0 -133 -57 -203t-161 -70q-111 0 -165.5 77t-54.5 238q0 72 7 128.5t18 96t30.5 67.5t39 44.5t50 27.5t56.5 15.5t65 7.5q56 5 84 12t45 23l9 -72q-19 -17 -50.5 -24.5t-95.5 -12.5q-48 -3 -76.5 -11t-54 -29
t-38.5 -61t-18 -104h3zM132 249q0 -82 34.5 -136.5t101.5 -54.5q136 0 136 196q0 80 -30.5 127t-91.5 47q-150 0 -150 -179z" />
    <glyph glyph-name="afii10067" unicode="&#x432;" horiz-adv-x="499" 
d="M77 1v498q123 8 169 8q97 0 141 -30.5t44 -92.5q0 -38 -22 -70.5t-66 -47.5v-4q57 -11 82 -40.5t25 -80.5q0 -76 -55.5 -112t-168.5 -36q-57 0 -149 8zM157 228v-161q33 -4 81 -4q68 0 100 19.5t32 64.5q0 81 -125 81h-88zM157 289h98q36 0 66 23t30 54q0 40 -24 55.5
t-84 15.5q-17 0 -86 -3v-145z" />
    <glyph glyph-name="afii10068" unicode="&#x433;" horiz-adv-x="369" 
d="M369 500v-70h-212v-430h-80v500h292z" />
    <glyph glyph-name="afii10069" unicode="&#x434;" horiz-adv-x="541" 
d="M519 70v-197h-54l-15 127h-376l-15 -127h-54v197h59q15 20 30 60t31.5 140.5t18.5 229.5h302v-430h73zM145 70h221v360h-150q-11 -243 -71 -360z" />
    <glyph glyph-name="afii10070" unicode="&#x435;" horiz-adv-x="508" 
d="M412 98l30 -58q-65 -52 -172 -52q-111 0 -166 69t-55 193q0 126 57.5 194t162.5 68q38 0 68.5 -8t60 -27.5t45.5 -60.5t16 -101q0 -33 -6 -73h-321q1 -91 38.5 -137.5t122.5 -46.5q33 0 67 12t52 28zM270 442q-125 0 -137 -137h248q0 73 -28 105t-83 32z" />
    <glyph glyph-name="afii10072" unicode="&#x436;" horiz-adv-x="659" 
d="M287 235l-47 -14l-147 -221h-92l158 229l34 30l-51 38l-130 203h85l138 -216h52v216h78v-226l47 14l139 212h84l-136 -203l-39 -32l51 -40l148 -225h-95l-147 225h-52v-225h-78v235z" />
    <glyph glyph-name="afii10073" unicode="&#x437;" horiz-adv-x="441" 
d="M183 223h-58v65h70q37 0 67.5 23.5t30.5 54.5q0 38 -26.5 54.5t-81.5 16.5q-66 0 -122 -35l-23 62q75 43 167 43q166 0 166 -123q0 -36 -23.5 -69.5t-63.5 -46.5v-4q57 -11 81.5 -41.5t24.5 -82.5q0 -66 -54 -107.5t-155 -41.5q-79 0 -145 31l23 66q49 -27 126 -27
q125 0 125 85q0 77 -129 77z" />
    <glyph glyph-name="afii10074" unicode="&#x438;" horiz-adv-x="546" 
d="M389 0v296l3 62h-3l-41 -64l-225 -294h-46v500h80v-305l-3 -59h4l39 62l225 302h47v-500h-80z" />
    <glyph glyph-name="afii10075" unicode="&#x439;" horiz-adv-x="546" 
d="M389 0v296l3 62h-3l-41 -64l-225 -294h-46v500h80v-305l-3 -59h4l39 62l225 302h47v-500h-80zM124 678l68 24q17 -82 91 -82t91 81l60 -19q-9 -56 -51 -88t-102 -32q-59 0 -103.5 29.5t-53.5 86.5z" />
    <glyph glyph-name="afii10076" unicode="&#x43a;" horiz-adv-x="478" 
d="M370 0l-167 225h-46v-225h-80v500h80v-226l43 14l160 212h87l-155 -201l-42 -33l52 -40l167 -226h-99z" />
    <glyph glyph-name="afii10077" unicode="&#x43b;" horiz-adv-x="503" 
d="M346 0v430h-145q-13 -218 -37 -305q-36 -129 -111 -129q-39 0 -58 9l12 67q12 -4 26 -4q29 0 47 32t31 129t17 271h298v-500h-80z" />
    <glyph glyph-name="afii10078" unicode="&#x43c;" horiz-adv-x="645" 
d="M490 0v297l6 95h-5l-36 -77l-121 -196h-28l-126 196l-33 77h-4l8 -94v-298h-74v500h79l140 -224l29 -58h2l30 60l131 222h80v-500h-78z" />
    <glyph glyph-name="afii10079" unicode="&#x43d;" horiz-adv-x="540" 
d="M383 0v221h-226v-221h-80v500h80v-209h226v209h80v-500h-80z" />
    <glyph glyph-name="afii10080" unicode="&#x43e;" horiz-adv-x="536" 
d="M49 250q0 126 57 194t162 68q109 0 164 -69.5t55 -192.5q0 -126 -57 -194t-162 -68q-109 0 -164 69.5t-55 192.5zM132 250q0 -84 33 -138t103 -54q136 0 136 192q0 84 -33 138t-103 54q-136 0 -136 -192z" />
    <glyph glyph-name="afii10081" unicode="&#x43f;" horiz-adv-x="535" 
d="M378 0v430h-221v-430h-80v500h381v-500h-80z" />
    <glyph glyph-name="afii10082" unicode="&#x440;" horiz-adv-x="541" 
d="M77 -200v700h55l15 -60h4q46 72 143 72q101 0 149.5 -60t48.5 -192q0 -126 -62.5 -199t-167.5 -73q-58 0 -105 20v-208h-80zM279 442q-98 0 -122 -107v-249q37 -28 102 -28q69 0 109.5 53t40.5 150q0 181 -130 181z" />
    <glyph glyph-name="afii10083" unicode="&#x441;" horiz-adv-x="451" 
d="M392 94l26 -61q-62 -45 -157 -45q-212 0 -212 262q0 126 56.5 194t160.5 68q87 0 142 -29l-23 -69q-51 28 -111 28q-142 0 -142 -192q0 -84 35.5 -138t113.5 -54q66 0 111 36z" />
    <glyph glyph-name="afii10084" unicode="&#x442;" horiz-adv-x="398" 
d="M396 500v-70h-157v-430h-80v430h-157v70h394z" />
    <glyph glyph-name="afii10085" unicode="&#x443;" horiz-adv-x="466" 
d="M104 500l120 -324l28 -96h5l22 97l97 323h81l-148 -449q-15 -45 -22.5 -65.5t-22 -57.5t-26 -55t-28 -39.5t-35 -30t-39.5 -8.5q-36 0 -59 10l14 69q13 -5 25 -5q67 0 97 131l-201 500h92z" />
    <glyph glyph-name="afii10086" unicode="&#x444;" horiz-adv-x="680" 
d="M302 -200v196q-23 -8 -69 -8q-189 0 -189 262q0 126 54 192t156 66q28 0 48 -4v196h76v-197q30 5 59 5q101 0 150 -58.5t49 -189.5q0 -127 -53 -199.5t-150 -72.5q-35 0 -55 7v-195h-76zM422 442q-27 0 -45 -5v-380q13 -3 50 -3q63 0 96 53t33 153q0 89 -31 135.5
t-103 46.5zM253 54q26 0 50 5v379q-21 4 -48 4q-131 0 -131 -192q0 -89 32.5 -142.5t96.5 -53.5z" />
    <glyph glyph-name="afii10087" unicode="&#x445;" horiz-adv-x="515" 
d="M28 0l180 256l-168 244h98l95 -138l28 -57l29 57l97 138h90l-169 -240l179 -260h-95l-106 152l-30 60l-31 -60l-108 -152h-89z" />
    <glyph glyph-name="afii10088" unicode="&#x446;" horiz-adv-x="548" 
d="M526 70v-197h-54l-15 127h-380v500h80v-430h217v430h80v-430h72z" />
    <glyph glyph-name="afii10089" unicode="&#x447;" horiz-adv-x="490" 
d="M49 500h80v-136q0 -60 17 -89t69 -29q78 0 118 32v222h80v-500h-80v210q-55 -34 -134 -34q-77 0 -113.5 38t-36.5 134v152z" />
    <glyph glyph-name="afii10090" unicode="&#x448;" horiz-adv-x="736" 
d="M659 0h-582v500h80v-430h171v430h80v-430h171v430h80v-500z" />
    <glyph glyph-name="afii10091" unicode="&#x449;" horiz-adv-x="753" 
d="M731 70v-200h-54l-15 130h-585v500h80v-430h171v430h80v-430h171v430h80v-430h72z" />
    <glyph glyph-name="afii10092" unicode="&#x44a;" horiz-adv-x="497" 
d="M191 243v-173q39 -6 70 -6q123 0 123 94q0 42 -30.5 67t-89.5 25q-45 0 -73 -7zM191 500v-191q45 7 87 7q98 0 143.5 -40.5t45.5 -108.5q0 -90 -54.5 -131.5t-169.5 -41.5q-63 0 -132 6v430h-110v70h190z" />
    <glyph glyph-name="afii10093" unicode="&#x44b;" horiz-adv-x="660" 
d="M157 243v-173q37 -6 71 -6q113 0 113 94q0 92 -110 92q-47 0 -74 -7zM157 500v-191q45 7 88 7q179 0 179 -149q0 -91 -50.5 -132t-163.5 -41q-64 0 -133 6v500h80zM503 0v500h80v-500h-80z" />
    <glyph glyph-name="afii10094" unicode="&#x44c;" horiz-adv-x="464" 
d="M157 243v-173q37 -6 71 -6q123 0 123 94q0 42 -30.5 67t-89.5 25q-47 0 -74 -7zM157 500v-191q45 7 88 7q98 0 143.5 -40.5t45.5 -108.5q0 -90 -54.5 -131.5t-169.5 -41.5q-64 0 -133 6v500h80z" />
    <glyph glyph-name="afii10095" unicode="&#x44d;" horiz-adv-x="465" 
d="M121 219v66h212q-5 72 -42.5 114.5t-102.5 42.5q-70 0 -121 -35l-28 61q64 44 164 44q213 0 213 -262q0 -126 -59 -194t-164 -68q-99 0 -153 30l23 68q51 -28 122 -28q140 0 149 161h-213z" />
    <glyph glyph-name="afii10096" unicode="&#x44e;" horiz-adv-x="719" 
d="M465 -12q-197 0 -207 233h-101v-221h-80v500h80v-209h102q14 221 208 221q203 0 203 -262q0 -128 -51.5 -195t-153.5 -67zM336 250q0 -192 131 -192q63 0 91.5 46.5t28.5 145.5q0 192 -121 192q-68 0 -99 -46.5t-31 -145.5z" />
    <glyph glyph-name="afii10097" unicode="&#x44f;" horiz-adv-x="475" 
d="M326 0v207l-77 -12l-132 -195h-97l120 171l40 37q-55 9 -90 44t-35 90q0 87 58 128.5t161 41.5q50 0 132 -16v-496h-80zM326 433q-25 9 -57 9q-131 0 -131 -96q0 -44 35.5 -69t93.5 -25q6 0 59 2v179z" />
    <glyph glyph-name="afii10071" unicode="&#x451;" horiz-adv-x="508" 
d="M412 98l30 -58q-65 -52 -172 -52q-111 0 -166 69t-55 193q0 126 57.5 194t162.5 68q38 0 68.5 -8t60 -27.5t45.5 -60.5t16 -101q0 -33 -6 -73h-321q1 -91 38.5 -137.5t122.5 -46.5q33 0 67 12t52 28zM270 442q-125 0 -137 -137h248q0 73 -28 105t-83 32zM119 633
q0 23 13.5 37t35.5 14t35.5 -14t13.5 -37q0 -21 -13.5 -35t-35.5 -14t-35.5 14t-13.5 35zM311 633q0 23 13.5 37t35.5 14t36 -14t14 -37q0 -21 -14 -35t-36 -14t-35.5 14t-13.5 35z" />
    <glyph glyph-name="afii10099" unicode="&#x452;" horiz-adv-x="548" 
d="M-2 440v60h80v200h80v-200h160v-60h-160v-148h4q58 68 153 68q88 0 126 -45t38 -165v-177q0 -93 -32.5 -139t-101.5 -46q-8 0 -30 2v68q53 0 68.5 31.5t15.5 110.5v132q0 84 -22.5 121t-84.5 37q-47 0 -85.5 -30.5t-48.5 -78.5v-181h-80v440h-80z" />
    <glyph glyph-name="afii10100" unicode="&#x453;" horiz-adv-x="369" 
d="M369 500v-70h-212v-430h-80v500h292zM181 571l59 149h89v-21l-101 -128h-47z" />
    <glyph glyph-name="afii10101" unicode="&#x454;" horiz-adv-x="472" 
d="M412 94l26 -61q-62 -45 -161 -45q-113 0 -170.5 70t-57.5 192q0 124 63.5 193t169.5 69q92 0 147 -29l-23 -69q-51 28 -116 28q-69 0 -111 -39.5t-49 -116.5h236v-66h-237q7 -72 48.5 -117t120.5 -45q69 0 114 36z" />
    <glyph glyph-name="afii10102" unicode="&#x455;" horiz-adv-x="421" 
d="M297 136q0 28 -18 47t-44.5 28.5t-58 22.5t-58 26.5t-44.5 42.5t-18 70q0 139 155 139q86 0 154 -32l-19 -65q-56 27 -125 27q-44 0 -64.5 -15.5t-20.5 -51.5q0 -28 25 -46t60 -30.5t70.5 -28t60.5 -48.5t25 -83q0 -67 -44.5 -109t-129.5 -42q-97 0 -164 37l24 67
q62 -34 135 -34q99 0 99 78z" />
    <glyph glyph-name="afii10103" unicode="&#x456;" horiz-adv-x="268" 
d="M93 0v500h80v-500h-80zM77 652q0 23 15.5 39.5t39.5 16.5t41 -16.5t17 -39.5q0 -22 -17 -37.5t-41 -15.5t-39.5 15t-15.5 38z" />
    <glyph glyph-name="afii10104" unicode="&#x457;" horiz-adv-x="278" 
d="M29 653q0 23 13 36.5t35 13.5t35 -13.5t13 -36.5q0 -21 -13.5 -35t-34.5 -14q-22 0 -35 14t-13 35zM154 653q0 23 12.5 36.5t34.5 13.5t35.5 -13.5t13.5 -36.5q0 -21 -13.5 -35t-35.5 -14q-21 0 -34 14t-13 35zM98 0v500h80v-500h-80z" />
    <glyph glyph-name="afii10105" unicode="&#x458;" horiz-adv-x="267" 
d="M93 3v497h80v-527q0 -93 -32.5 -139t-101.5 -46q-8 0 -30 2v68q53 0 68.5 32t15.5 113zM76 652q0 23 15.5 39.5t39.5 16.5t41 -16.5t17 -39.5q0 -22 -17 -37.5t-41 -15.5t-39.5 15t-15.5 38z" />
    <glyph glyph-name="afii10106" unicode="&#x459;" horiz-adv-x="733" 
d="M426 500v-191q45 7 88 7q98 0 143.5 -40.5t45.5 -108.5q0 -90 -54.5 -131.5t-169.5 -41.5q-64 0 -133 6v430h-145q-13 -218 -37 -305q-36 -129 -111 -129q-39 0 -58 9l12 67q12 -4 26 -4q29 0 47 32t31 129t17 271h298zM426 243v-174q38 -6 71 -6q123 0 123 95
q0 42 -30.5 67t-89.5 25q-47 0 -74 -7z" />
    <glyph glyph-name="afii10107" unicode="&#x45a;" horiz-adv-x="770" 
d="M463 243v-174q31 -5 71 -5q123 0 123 94q0 42 -30.5 67t-89.5 25q-40 0 -74 -7zM463 500v-191q45 7 88 7q98 0 143.5 -40.5t45.5 -108.5q0 -90 -54.5 -131.5t-169.5 -41.5q-64 0 -133 6v223h-226v-223h-80v500h80v-207h226v207h80z" />
    <glyph glyph-name="afii10108" unicode="&#x45b;" horiz-adv-x="548" 
d="M-2 440v60h80v200h80v-200h160v-60h-160v-148h4q58 68 153 68q88 0 126 -45t38 -165v-150h-80v132q0 84 -22.5 121t-84.5 37q-47 0 -85.5 -30.5t-48.5 -78.5v-181h-80v440h-80z" />
    <glyph glyph-name="afii10109" unicode="&#x45c;" horiz-adv-x="478" 
d="M370 0l-167 225h-46v-225h-80v500h80v-226l43 14l160 212h87l-155 -201l-42 -33l52 -40l167 -226h-99zM197 571l59 149h89v-21l-101 -128h-47z" />
    <glyph glyph-name="afii10110" unicode="&#x45e;" horiz-adv-x="466" 
d="M104 500l120 -324l28 -96h5l22 97l97 323h81l-148 -449q-15 -45 -22.5 -65.5t-22 -57.5t-26 -55t-28 -39.5t-35 -30t-39.5 -8.5q-36 0 -59 10l14 69q13 -5 25 -5q67 0 97 131l-201 500h92zM89 678l68 24q17 -82 91 -82t91 81l60 -19q-9 -56 -51 -88t-102 -32
q-59 0 -103.5 29.5t-53.5 86.5z" />
    <glyph glyph-name="afii10193" unicode="&#x45f;" horiz-adv-x="535" 
d="M225 0h-148v500h80v-430h221v430h80v-500h-146l-15 -179h-52z" />
    <glyph glyph-name="afii10146" unicode="&#x462;" horiz-adv-x="619" 
d="M0 550v70h149v101h83v-101h207v-70h-207v-123q37 8 99 8q51 0 93.5 -10t80.5 -32.5t59 -65t21 -101.5q0 -115 -75.5 -174.5t-197.5 -59.5q-104 0 -163 15v543h-149zM323 64q76 0 125 40.5t49 115.5q0 143 -177 143q-56 0 -88 -9v-284q28 -6 91 -6z" />
    <glyph glyph-name="afii10194" unicode="&#x463;" horiz-adv-x="497" 
d="M1 434v66h109v200h80v-200h160v-66h-160v-125q45 7 88 7q98 0 143.5 -40.5t45.5 -108.5q0 -90 -54.5 -131.5t-169.5 -41.5q-64 0 -133 6v434h-109zM190 243v-173q39 -6 71 -6q123 0 123 94q0 42 -30.5 67t-89.5 25q-46 0 -74 -7z" />
    <glyph glyph-name="afii10147" unicode="&#x472;" horiz-adv-x="684" 
d="M56 350q0 174 74.5 268t210.5 94q143 0 215 -96.5t72 -265.5q0 -174 -75 -268t-212 -94q-142 0 -213.5 96.5t-71.5 265.5zM144 392h396q-7 116 -61.5 181t-137.5 65q-81 0 -135.5 -58.5t-61.5 -187.5zM540 318h-396q7 -124 61 -190t136 -66q84 0 139 59t60 197z" />
    <glyph glyph-name="afii10195" unicode="&#x473;" horiz-adv-x="536" 
d="M49 250q0 126 57 194t162 68q109 0 164 -69.5t55 -192.5q0 -126 -57 -194t-162 -68q-109 0 -164 69.5t-55 192.5zM132 281h272q-16 161 -136 161q-57 0 -94.5 -38t-41.5 -123zM404 217h-272q5 -76 42.5 -117.5t93.5 -41.5q126 0 136 159z" />
    <glyph glyph-name="afii10148" unicode="&#x474;" horiz-adv-x="598" 
d="M478 520l-174 -531h-37l-269 711h90l178 -481l24 -106h2l16 108q13 47 41 138t40 133q18 61 36 102t32.5 63.5t34.5 33.5t34 13.5t39 2.5q57 0 92 -22l-24 -70q-32 18 -69 18q-27 0 -46.5 -26t-39.5 -87z" />
    <glyph glyph-name="afii10196" unicode="&#x475;" horiz-adv-x="507" 
d="M413 356l-152 -367h-34l-217 511h92l120 -293l28 -95h1l25 97q15 38 46 116q16 43 24.5 63.5t23 48.5t27.5 40t32 21t43 9q37 0 58 -9l-12 -74q-22 9 -34 9q-39 0 -71 -77z" />
    <glyph glyph-name="uni048A" unicode="&#x48a;" horiz-adv-x="690" 
d="M513 0v474l6 80h-4l-43 -82l-338 -472h-49v700h83v-480l-7 -79h4l44 82l338 477h49v-630h104v-22l-91 -178h-54l45 130h-87zM177 850l79 20q4 -37 28 -57t64 -20q82 0 92 76l71 -17q-24 -117 -164 -117q-154 0 -170 115z" />
    <glyph glyph-name="uni048B" unicode="&#x48b;" horiz-adv-x="561" 
d="M389 0v296l3 62h-3l-41 -64l-225 -294h-46v500h80v-305l-3 -59h4l39 62l225 302h47v-430h100v-22l-91 -178h-54l45 130h-80zM124 678l68 24q17 -82 91 -82t91 81l60 -19q-9 -56 -51 -88t-102 -32q-59 0 -103.5 29.5t-53.5 86.5z" />
    <glyph glyph-name="uni048C" unicode="&#x48c;" horiz-adv-x="619" 
d="M0 550v70h149v101h83v-101h207v-70h-207v-123q37 8 99 8q51 0 93.5 -10t80.5 -32.5t59 -65t21 -101.5q0 -115 -75.5 -174.5t-197.5 -59.5q-104 0 -163 15v543h-149zM323 64q76 0 125 40.5t49 115.5q0 143 -177 143q-56 0 -88 -9v-284q28 -6 91 -6z" />
    <glyph glyph-name="uni048D" unicode="&#x48d;" horiz-adv-x="497" 
d="M1 434v66h109v200h80v-200h160v-66h-160v-125q45 7 88 7q98 0 143.5 -40.5t45.5 -108.5q0 -90 -54.5 -131.5t-169.5 -41.5q-64 0 -133 6v434h-109zM190 243v-173q39 -6 71 -6q123 0 123 94q0 42 -30.5 67t-89.5 25q-46 0 -74 -7z" />
    <glyph glyph-name="uni048E" unicode="&#x48e;" horiz-adv-x="559" 
d="M85 0v693q63 15 169 15q51 0 94.5 -9.5t84.5 -32t65 -67t24 -106.5q0 -137 -113 -197l68 -98l-46 -33l-77 110q-48 -13 -104 -13q-63 0 -82 4v-266h-83zM248 435l43 27l71 -103q72 38 72 134q0 52 -27.5 85.5t-65.5 45.5t-85 12q-65 0 -88 -6v-290q14 -4 78 -4q40 0 66 6
z" />
    <glyph glyph-name="uni048F" unicode="&#x48f;" horiz-adv-x="541" 
d="M77 -200v700h55l15 -60h4q46 72 143 72q101 0 149.5 -60t48.5 -192q0 -148 -85 -222l53 -62l-42 -37l-59 69q-43 -20 -97 -20q-58 0 -105 20v-208h-80zM258 132l39 31l58 -69q54 54 54 167q0 181 -130 181q-98 0 -122 -107v-249q37 -28 102 -28q33 0 54 9z" />
    <glyph glyph-name="afii10050" unicode="&#x490;" horiz-adv-x="442" 
d="M460 834v-208h-292v-626h-83v700h303l16 134h56z" />
    <glyph glyph-name="afii10098" unicode="&#x491;" horiz-adv-x="369" 
d="M369 430h-212v-430h-80v500h220l16 134h56v-204z" />
    <glyph glyph-name="uni0492" unicode="&#x492;" horiz-adv-x="482" 
d="M481 700v-74h-292v-241h215v-66h-215v-319h-83v319h-96v66h96v315h375z" />
    <glyph glyph-name="uni0493" unicode="&#x493;" horiz-adv-x="385" 
d="M382 500v-70h-212v-151h169v-60h-169v-219h-80v219h-90v60h90v221h292z" />
    <glyph glyph-name="uni0494" unicode="&#x494;" horiz-adv-x="577" 
d="M168 282v-282h-83v700h375v-74h-292v-271q67 21 138 21q43 0 79 -11.5t68 -37t50 -74.5t18 -117q0 -264 -233 -264q-55 0 -70 3v74q17 -3 73 -3q142 0 142 183q0 175 -152 175q-58 0 -113 -22z" />
    <glyph glyph-name="uni0495" unicode="&#x495;" horiz-adv-x="535" 
d="M157 182v-182h-80v500h291v-70h-211v-178q53 21 125 21q88 0 143 -53.5t55 -174.5q0 -131 -52.5 -192.5t-164.5 -61.5q-55 0 -70 3v70q17 -3 73 -3q134 0 134 174q0 86 -37.5 127t-102.5 41q-54 0 -103 -21z" />
    <glyph glyph-name="uni0496" unicode="&#x496;" horiz-adv-x="819" 
d="M358 386v314h80v-326l43 14l203 312h92l-202 -304l-40 -32l50 -41l172 -249h58v-203h-58l-15 129h-36l-221 324h-46v-324h-80v336l-42 -14l-221 -322h-96l221 313l48 38l-46 35l-209 314h97l203 -314h45z" />
    <glyph glyph-name="uni0497" unicode="&#x497;" horiz-adv-x="693" 
d="M287 235l-47 -14l-147 -221h-92l158 229l34 30l-51 38l-130 203h85l138 -216h52v216h78v-226l47 14l139 212h84l-136 -203l-39 -32l51 -40l102 -155h75v-197h-54l-15 127h-55l-147 225h-52v-225h-78v235z" />
    <glyph glyph-name="uni0498" unicode="&#x498;" horiz-adv-x="541" 
d="M194 331h-55v70h16q67 0 95 5q55 9 90.5 39.5t35.5 77.5q0 115 -141 115q-97 0 -153 -26l-22 66q22 13 75.5 23.5t113.5 10.5q92 0 153.5 -40.5t61.5 -131.5q0 -53 -34.5 -97.5t-97.5 -63.5v-4q72 -10 112.5 -53.5t40.5 -114.5q0 -97 -63.5 -152t-159.5 -65l-14 -169h-52
l-19 168q-80 4 -133 25l21 75q54 -26 165 -26q68 0 117.5 36t49.5 103q0 115 -159 127q-32 2 -44 2z" />
    <glyph glyph-name="uni0499" unicode="&#x499;" horiz-adv-x="441" 
d="M183 223h-58v65h70q37 0 67.5 23.5t30.5 54.5q0 38 -26.5 54.5t-81.5 16.5q-66 0 -122 -35l-23 62q75 43 167 43q166 0 166 -123q0 -36 -23.5 -69.5t-63.5 -46.5v-4q57 -11 81.5 -41.5t24.5 -82.5q0 -56 -38.5 -94.5t-112.5 -50.5l-14 -174h-52l-19 171q-63 4 -118 30
l23 66q47 -26 126 -26q125 0 125 84q0 77 -129 77z" />
    <glyph glyph-name="uni049A" unicode="&#x49a;" horiz-adv-x="615" 
d="M470 0l-255 324h-47v-324h-83v700h83v-326l45 14l235 312h96l-234 -301l-42 -33l51 -40l198 -252h89v-203h-58l-15 129h-63z" />
    <glyph glyph-name="uni049B" unicode="&#x49b;" horiz-adv-x="506" 
d="M370 0l-167 225h-46v-225h-80v500h80v-226l43 14l160 212h87l-155 -201l-42 -33l52 -40l115 -156h79v-197h-54l-15 127h-57z" />
    <glyph glyph-name="uni049C" unicode="&#x49c;" horiz-adv-x="685" 
d="M222 195v129h-54v-324h-83v700h83v-326l54 5v126h66v-119l23 2l214 312h95l-216 -301l-41 -33l49 -40l238 -326h-104l-232 324h-26v-129h-66z" />
    <glyph glyph-name="uni049D" unicode="&#x49d;" horiz-adv-x="538" 
d="M205 98v127h-48v-225h-80v500h80v-226l48 5v123h63v-117l26 3l131 212h84l-126 -201l-44 -33l52 -40l138 -226h-94l-138 225h-29v-127h-63z" />
    <glyph glyph-name="uni049E" unicode="&#x49e;" horiz-adv-x="664" 
d="M0 568v68h139v64h83v-64h122v-66h-122v-196l49 14l232 312h95l-231 -301l-44 -33l52 -40l254 -326h-106l-252 324h-49v-324h-83v568h-139z" />
    <glyph glyph-name="uni049F" unicode="&#x49f;" horiz-adv-x="481" 
d="M-2 553v60h81v87h80v-87h159v-60h-159v-279l41 14l155 212h93l-153 -201l-41 -33l50 -40l167 -226h-99l-167 225h-46v-225h-80v553h-81z" />
    <glyph glyph-name="uni04A0" unicode="&#x4a0;" horiz-adv-x="685" 
d="M161 0v626h-161v74h244v-326l44 14l235 312h97l-235 -301l-41 -33l50 -40l257 -326h-106l-255 324h-46v-324h-83z" />
    <glyph glyph-name="uni04A1" unicode="&#x4a1;" horiz-adv-x="512" 
d="M191 500v-226l42 14l161 212h86l-155 -201l-41 -33l52 -40l167 -226h-99l-167 225h-46v-225h-80v430h-110v70h190z" />
    <glyph glyph-name="uni04A2" unicode="&#x4a2;" horiz-adv-x="707" 
d="M504 0v321h-336v-321h-83v700h83v-305h336v305h83v-626h92v-203h-58l-15 129h-102z" />
    <glyph glyph-name="uni04A3" unicode="&#x4a3;" horiz-adv-x="546" 
d="M383 0v221h-226v-221h-80v500h80v-209h226v209h80v-430h73v-197h-54l-15 127h-84z" />
    <glyph glyph-name="uni04A4" unicode="&#x4a4;" horiz-adv-x="861" 
d="M879 700v-74h-292v-626h-83v321h-336v-321h-83v700h83v-305h336v305h375z" />
    <glyph glyph-name="uni04A5" unicode="&#x4a5;" horiz-adv-x="675" 
d="M675 500v-70h-212v-430h-80v221h-226v-221h-80v500h80v-209h226v209h292z" />
    <glyph glyph-name="uni04A6" unicode="&#x4a6;" horiz-adv-x="983" 
d="M574 282v-282h-83v626h-323v-626h-83v700h489v-345q63 21 138 21q34 0 63.5 -6.5t58.5 -23.5t49 -43.5t32.5 -69t12.5 -97.5q0 -264 -234 -264q-55 0 -70 3v74q17 -3 73 -3q143 0 143 183q0 175 -152 175q-63 0 -114 -22z" />
    <glyph glyph-name="uni04A7" unicode="&#x4a7;" horiz-adv-x="836" 
d="M458 182v-182h-80v430h-221v-430h-80v500h381v-248q52 21 125 21q87 0 142 -53.5t55 -174.5q0 -131 -52 -192.5t-164 -61.5q-55 0 -70 3v70q17 -3 73 -3q133 0 133 174q0 86 -37 127t-102 41q-54 0 -103 -21z" />
    <glyph glyph-name="uni04A8" unicode="&#x4a8;" horiz-adv-x="811" 
d="M353 712v-74q-96 0 -152.5 -73t-56.5 -214q0 -120 65.5 -206.5t164.5 -86.5q32 0 48 6q-63 38 -99.5 121t-36.5 177q0 150 65 234t166 84q109 0 167 -74t58 -208q0 -118 -44.5 -208t-112.5 -130q7 -1 21 -1q73 0 115 30l25 -65q-45 -36 -128 -36q-70 0 -118 30
q-52 -30 -126 -30q-147 0 -232.5 98.5t-85.5 263.5q0 173 78.5 267.5t218.5 94.5zM374 354q0 -76 35 -152.5t99 -113.5q59 33 102.5 114.5t43.5 189.5q0 96 -32.5 155t-100.5 59q-62 0 -104.5 -63.5t-42.5 -188.5z" />
    <glyph glyph-name="uni04A9" unicode="&#x4a9;" horiz-adv-x="660" 
d="M269 512v-70q-137 -2 -137 -191q0 -83 41 -138t118 -55q34 0 50 10q-37 22 -61.5 73t-24.5 112q0 48 9 89t28.5 78t56 58.5t87.5 21.5q87 0 129 -59.5t42 -155.5q0 -76 -35.5 -139t-82.5 -85q15 -7 38 -7q47 0 79 33l25 -60q-43 -39 -115 -39q-67 0 -103 36
q-51 -36 -134 -36q-109 0 -169.5 71t-60.5 191q0 125 56 193t164 69zM338 256q0 -57 22.5 -104.5t60.5 -73.5q44 22 73.5 78t29.5 129q0 59 -23 102t-66 43q-97 0 -97 -174z" />
    <glyph glyph-name="uni04AA" unicode="&#x4aa;" horiz-adv-x="571" 
d="M513 94l20 -65q-44 -35 -143 -40l-14 -168h-52l-19 172q-113 17 -181 106.5t-68 250.5q0 94 26.5 166t70.5 113.5t96.5 62t110.5 20.5q101 0 163 -24l-20 -73q-48 23 -137 23q-93 0 -157.5 -69.5t-64.5 -218.5q0 -139 65 -213t169 -74q84 0 135 31z" />
    <glyph glyph-name="uni04AB" unicode="&#x4ab;" horiz-adv-x="451" 
d="M392 94l26 -61q-44 -32 -109 -41l-14 -171h-52l-19 169q-175 22 -175 260q0 126 56.5 194t160.5 68q87 0 142 -29l-23 -69q-51 28 -111 28q-142 0 -142 -192q0 -84 35.5 -138t113.5 -54q66 0 111 36z" />
    <glyph glyph-name="uni04AC" unicode="&#x4ac;" horiz-adv-x="555" 
d="M236 0v626h-218v74h519v-74h-218v-552h92v-203h-58l-15 129h-102z" />
    <glyph glyph-name="uni04AD" unicode="&#x4ad;" horiz-adv-x="398" 
d="M159 0v430h-157v70h394v-70h-157v-360h74v-197h-54l-15 127h-85z" />
    <glyph glyph-name="uni04AE" unicode="&#x4ae;" horiz-adv-x="558" 
d="M239 0v278l-231 422h97l164 -306l17 -61h1l18 63l157 304h89l-229 -421v-279h-83z" />
    <glyph glyph-name="uni04AF" unicode="&#x4af;" horiz-adv-x="484" 
d="M207 0l-197 500h92l122 -324l28 -106h1l25 108l110 322h86l-187 -500v-200h-80v200z" />
    <glyph glyph-name="uni04B0" unicode="&#x4b0;" horiz-adv-x="558" 
d="M89 223v62h146l-227 415h97l164 -306l17 -61h1l18 63l157 304h89l-226 -415h147v-62h-150v-223h-83v223h-150z" />
    <glyph glyph-name="uni04B1" unicode="&#x4b1;" horiz-adv-x="484" 
d="M84 -60v60h123l-197 500h92l122 -324l28 -106h1l25 108l110 322h86l-187 -500h117v-60h-117v-140h-80v140h-123z" />
    <glyph glyph-name="uni04B2" unicode="&#x4b2;" horiz-adv-x="648" 
d="M26 0l233 356l-213 344h100l142 -237l25 -57l24 57l150 237h92l-220 -337l183 -289h97v-203h-58l-15 129h-74l-158 251l-27 60l-26 -60l-162 -251h-93z" />
    <glyph glyph-name="uni04B3" unicode="&#x4b3;" horiz-adv-x="525" 
d="M28 0l180 256l-168 244h98l95 -138l28 -57l29 57l97 138h90l-169 -240l131 -190h76v-197h-54l-15 127h-54l-106 152l-30 60l-31 -60l-108 -152h-89z" />
    <glyph glyph-name="uni04B4" unicode="&#x4b4;" horiz-adv-x="838" 
d="M809 74v-203h-57l-15 129h-501v626h-218v74h483v-74h-182v-552h315v626h83v-626h92z" />
    <glyph glyph-name="uni04B5" unicode="&#x4b5;" horiz-adv-x="631" 
d="M608 70v-197h-54l-15 127h-380v430h-157v70h387v-70h-150v-360h217v430h80v-430h72z" />
    <glyph glyph-name="uni04B6" unicode="&#x4b6;" horiz-adv-x="639" 
d="M437 0v302q-81 -45 -172 -45t-140.5 44.5t-49.5 151.5v247h83v-232q0 -137 124 -137q99 0 155 46v323h83v-626h92v-203h-58l-15 129h-102z" />
    <glyph glyph-name="uni04B7" unicode="&#x4b7;" horiz-adv-x="509" 
d="M333 0v210q-55 -34 -134 -34q-77 0 -113.5 38t-36.5 134v152h80v-136q0 -60 17 -89t69 -29q78 0 118 32v222h80v-430h74v-197h-54l-15 127h-85z" />
    <glyph glyph-name="uni04B8" unicode="&#x4b8;" horiz-adv-x="613" 
d="M271 145v112q-96 0 -146 44.5t-50 151.5v247h83v-232q0 -131 113 -137v124h66v-120q68 11 108 42v323h83v-700h-83v302q-46 -26 -108 -38v-119h-66z" />
    <glyph glyph-name="uni04B9" unicode="&#x4b9;" horiz-adv-x="497" 
d="M205 68v108q-82 0 -119 37.5t-37 134.5v152h80v-136q0 -57 15 -86t61 -32v127h63v-123q49 9 72 28v222h80v-500h-80v210q-28 -19 -72 -28v-114h-63z" />
    <glyph glyph-name="uni04BA" unicode="&#x4ba;" horiz-adv-x="605" 
d="M531 0h-83v232q0 137 -124 137q-98 0 -156 -46v-323h-83v700h83v-302q81 45 172 45t141 -45t50 -151v-247z" />
    <glyph glyph-name="uni04BB" unicode="&#x4bb;" horiz-adv-x="547" 
d="M478 0h-80v285q0 83 -22.5 120t-84.5 37q-47 0 -85.5 -30.5t-48.5 -78.5v-333h-80v700h80v-256h4q58 68 153 68q88 0 126 -45t38 -165v-302z" />
    <glyph glyph-name="uni04BC" unicode="&#x4bc;" horiz-adv-x="774" 
d="M709 318h-435q8 -130 65.5 -193t165.5 -63q78 0 147 42l22 -67q-81 -49 -185 -49q-137 0 -214.5 81t-84.5 249h-37q-152 0 -152 123q0 49 28 77h78q-28 -23 -28 -68q0 -29 17.5 -46.5t68.5 -17.5q16 0 25 1q7 156 78 240.5t197 84.5q123 0 188 -74.5t65 -212.5
q0 -50 -9 -107zM273 388h358q4 24 4 53q0 86 -42.5 143.5t-126.5 57.5q-91 0 -139.5 -66.5t-53.5 -187.5z" />
    <glyph glyph-name="uni04BD" unicode="&#x4bd;" horiz-adv-x="617" 
d="M521 97l30 -57q-65 -52 -172 -52q-109 0 -164 67t-57 186h-12q-69 0 -103.5 33.5t-34.5 86.5q0 52 41 93h78q-47 -34 -47 -88q0 -25 16.5 -42.5t53.5 -17.5q7 0 11 1q12 100 68 152.5t149 52.5q38 0 68.5 -8t60 -27.5t45.5 -60.5t16 -101q0 -33 -6 -73h-321
q1 -91 38.5 -137.5t122.5 -46.5q33 0 67 11.5t52 27.5zM379 442q-125 0 -137 -137h248q0 73 -28 105t-83 32z" />
    <glyph glyph-name="uni04BE" unicode="&#x4be;" horiz-adv-x="774" 
d="M709 318h-435q8 -130 65.5 -192.5t165.5 -62.5q79 0 147 41l22 -67q-72 -44 -163 -48l-14 -168h-52l-19 172q-224 34 -236 325h-37q-152 0 -152 123q0 49 28 77h78q-28 -23 -28 -68q0 -29 17.5 -46.5t68.5 -17.5q16 0 25 1q7 156 78 240.5t197 84.5q123 0 188 -74.5
t65 -212.5q0 -50 -9 -107zM273 388h358q4 24 4 53q0 86 -42.5 143.5t-126.5 57.5q-91 0 -139.5 -66.5t-53.5 -187.5z" />
    <glyph glyph-name="uni04BF" unicode="&#x4bf;" horiz-adv-x="617" 
d="M521 97l30 -57q-50 -40 -133 -49l-14 -170h-52l-19 171q-86 13 -129.5 78t-45.5 171h-12q-69 0 -103.5 33.5t-34.5 86.5q0 52 41 93h78q-47 -34 -47 -88q0 -25 16.5 -42.5t53.5 -17.5q7 0 11 1q12 100 68 152.5t149 52.5q38 0 68.5 -8t60 -27.5t45.5 -60.5t16 -101
q0 -33 -6 -73h-321q1 -91 38.5 -137.5t122.5 -46.5q33 0 67 11.5t52 27.5zM379 442q-125 0 -137 -137h248q0 73 -28 105t-83 32z" />
    <glyph glyph-name="uni04C0" unicode="&#x4c0;" horiz-adv-x="291" 
d="M104 0v700h83v-700h-83z" />
    <glyph glyph-name="uni04C3" unicode="&#x4c3;" horiz-adv-x="600" 
d="M441 71q0 134 -54 193.5t-172 59.5h-47v-324h-83v700h83v-326l45 14l235 312h96l-224 -286l-57 -38h63q108 -25 153 -92.5t45 -209.5v-18q0 -267 -195 -267q-18 0 -28 1v73q79 0 109.5 46t30.5 162z" />
    <glyph glyph-name="uni04C4" unicode="&#x4c4;" horiz-adv-x="481" 
d="M361 16q0 200 -158 200h-46v-216h-80v500h80v-235l43 14l160 221h87l-156 -210l-36 -26l44 -6q43 -10 72 -33.5t43.5 -58t20.5 -70t6 -80.5q0 -117 -48.5 -173.5t-128.5 -56.5q-22 0 -34 2v69q6 -1 18 -1q54 0 83.5 41.5t29.5 118.5z" />
    <glyph glyph-name="uni04C5" unicode="&#x4c5;" horiz-adv-x="622" 
d="M456 0v626h-209q-20 -415 -76 -539q-42 -92 -117 -92q-33 0 -56 10l11 72q11 -3 21 -3q39 0 66 52q64 119 73 574h370v-630h93v-22l-91 -178h-54l45 130h-76z" />
    <glyph glyph-name="uni04C6" unicode="&#x4c6;" horiz-adv-x="516" 
d="M346 0v430h-145q-13 -218 -37 -305q-36 -129 -111 -129q-35 0 -58 9l12 67q12 -4 26 -4q29 0 47 32t31 129t17 271h298v-430h100v-22l-91 -178h-54l45 130h-80z" />
    <glyph glyph-name="uni04C7" unicode="&#x4c7;" horiz-adv-x="672" 
d="M587 700v-727q0 -93 -32 -139t-101 -46q-20 0 -31 2v70q53 0 67 29.5t14 110.5v321h-336v-321h-83v700h83v-305h336v305h83z" />
    <glyph glyph-name="uni04C8" unicode="&#x4c8;" horiz-adv-x="540" 
d="M383 0v221h-226v-221h-80v500h80v-209h226v209h80v-527q0 -93 -32.5 -139t-101.5 -46q-8 0 -30 2v68q53 0 68.5 31.5t15.5 110.5z" />
    <glyph glyph-name="uni04C9" unicode="&#x4c9;" horiz-adv-x="681" 
d="M504 0v321h-336v-321h-83v700h83v-305h336v305h83v-630h104v-22l-91 -178h-54l45 130h-87z" />
    <glyph glyph-name="uni04CA" unicode="&#x4ca;" horiz-adv-x="556" 
d="M383 0v221h-226v-221h-80v500h80v-209h226v209h80v-430h100v-22l-91 -178h-54l45 130h-80z" />
    <glyph glyph-name="uni04CB" unicode="&#x4cb;" horiz-adv-x="605" 
d="M75 700h83v-232q0 -137 124 -137q99 0 155 46v323h83v-700h-102l-15 -129h-58v203h92v228q-81 -45 -172 -45t-140.5 44.5t-49.5 151.5v247z" />
    <glyph glyph-name="uni04CC" unicode="&#x4cc;" horiz-adv-x="490" 
d="M333 67v145q-53 -33 -134 -33q-77 0 -113.5 38t-36.5 133v150h80v-134q0 -59 17 -88t69 -29q78 0 118 32v219h80v-500h-88l-15 -127h-54v194h77z" />
    <glyph glyph-name="uni04CD" unicode="&#x4cd;" horiz-adv-x="801" 
d="M623 0v470l10 105h-5l-38 -96l-182 -316h-25l-193 317l-36 95h-5l14 -104v-471h-78v700h62l219 -358l33 -78h2l31 80l209 356h65v-630h104v-22l-91 -178h-54l45 130h-87z" />
    <glyph glyph-name="uni04CE" unicode="&#x4ce;" horiz-adv-x="661" 
d="M490 0v297l6 95h-5l-36 -77l-121 -196h-28l-126 196l-33 77h-4l8 -94v-298h-74v500h79l140 -224l29 -58h2l30 60l131 222h80v-430h100v-22l-91 -178h-54l45 130h-78z" />
    <glyph glyph-name="uni04CF" unicode="&#x4cf;" horiz-adv-x="254" 
d="M87 0v700h80v-700h-80z" />
    <glyph glyph-name="uni04D0" unicode="&#x4d0;" horiz-adv-x="585" 
d="M490 0l-72 194h-258l-70 -194h-82l265 711h38l266 -711h-87zM264 477l-77 -211h206l-78 213l-25 106h-1zM122 850l79 20q4 -37 28 -57t64 -20t63.5 20t28.5 56l71 -17q-24 -117 -164 -117q-154 0 -170 115z" />
    <glyph glyph-name="uni04D1" unicode="&#x4d1;" horiz-adv-x="496" 
d="M94 404l-25 59q75 45 194 45q50 0 83.5 -13.5t49 -37.5t21 -48t5.5 -55q0 -42 -3 -117t-3 -108q0 -84 14 -131h-59l-21 70h-5q-51 -76 -156 -76q-65 0 -107.5 39t-42.5 103q0 83 64.5 118t182.5 35q36 0 55 -2q3 30 3 54q0 56 -22 77.5t-80 21.5q-35 0 -78 -9.5
t-70 -24.5zM211 62q52 0 84.5 23.5t45.5 55.5v83q-38 2 -57 2q-162 0 -162 -84q0 -35 25 -57.5t64 -22.5zM88 678l68 24q17 -82 91 -82t91 81l60 -19q-9 -56 -51 -88t-102 -32q-59 0 -103.5 29.5t-53.5 86.5z" />
    <glyph glyph-name="uni04D2" unicode="&#x4d2;" horiz-adv-x="585" 
d="M490 0l-72 194h-258l-70 -194h-82l265 711h38l266 -711h-87zM264 477l-77 -211h206l-78 213l-25 106h-1zM142 794q0 21 15 34t39 13q23 0 37.5 -13t14.5 -34q0 -20 -14.5 -33t-37.5 -13q-24 0 -39 13t-15 33zM334 794q0 21 14.5 34t37.5 13q24 0 39 -13t15 -34
q0 -20 -15 -33t-39 -13q-23 0 -37.5 13t-14.5 33z" />
    <glyph glyph-name="uni04D3" unicode="&#x4d3;" horiz-adv-x="496" 
d="M94 404l-25 59q75 45 194 45q50 0 83.5 -13.5t49 -37.5t21 -48t5.5 -55q0 -42 -3 -117t-3 -108q0 -84 14 -131h-59l-21 70h-5q-51 -76 -156 -76q-65 0 -107.5 39t-42.5 103q0 83 64.5 118t182.5 35q36 0 55 -2q3 30 3 54q0 56 -22 77.5t-80 21.5q-35 0 -78 -9.5
t-70 -24.5zM211 62q52 0 84.5 23.5t45.5 55.5v83q-38 2 -57 2q-162 0 -162 -84q0 -35 25 -57.5t64 -22.5zM97 633q0 23 13.5 37t35.5 14t35.5 -14t13.5 -37q0 -21 -13.5 -35t-35.5 -14t-35.5 14t-13.5 35zM289 633q0 23 13.5 37t35.5 14t36 -14t14 -37q0 -21 -14 -35
t-36 -14t-35.5 14t-13.5 35z" />
    <glyph glyph-name="uni04D4" unicode="&#x4d4;" horiz-adv-x="846" 
d="M395 600h-4l-34 -103l-133 -229h171v332zM395 0v198h-214l-112 -198h-91l415 700h383v-74h-298v-229h273v-74h-273v-249h303v-74h-386z" />
    <glyph glyph-name="uni04D5" unicode="&#x4d5;" horiz-adv-x="796" 
d="M211 62q52 0 84.5 23.5t45.5 55.5v83q-38 2 -57 2q-162 0 -162 -84q0 -35 25 -57.5t64 -22.5zM374 84h-7q-67 -92 -178 -92q-65 0 -107.5 39t-42.5 103q0 83 64.5 118t182.5 35q36 0 55 -2q0 5 1.5 25t1.5 29q0 56 -22 77.5t-80 21.5q-35 0 -78 -9.5t-70 -24.5l-25 59
q75 45 194 45q105 0 136 -65q24 34 67.5 51.5t90.5 17.5q38 0 68.5 -8t60 -28t45.5 -61.5t16 -101.5q0 -28 -5 -71h-323q0 -90 38 -137t123 -47q34 0 67.5 11.5t52.5 27.5l30 -57q-65 -52 -172 -52q-61 0 -110.5 25.5t-73.5 70.5zM558 442q-126 0 -137 -137h248v12
q0 125 -111 125z" />
    <glyph glyph-name="uni04D6" unicode="&#x4d6;" horiz-adv-x="536" 
d="M85 0v700h381v-74h-298v-229h273v-74h-273v-249h303v-74h-386zM106 850l79 20q4 -37 28 -57t64 -20t63.5 20t28.5 56l71 -17q-24 -117 -164 -117q-154 0 -170 115z" />
    <glyph glyph-name="uni04D7" unicode="&#x4d7;" horiz-adv-x="508" 
d="M412 98l30 -58q-65 -52 -172 -52q-111 0 -166 69t-55 193q0 126 57.5 194t162.5 68q38 0 68.5 -8t60 -27.5t45.5 -60.5t16 -101q0 -33 -6 -73h-321q1 -91 38.5 -137.5t122.5 -46.5q33 0 67 12t52 28zM270 442q-125 0 -137 -137h248q0 73 -28 105t-83 32zM108 678l68 24
q17 -82 91 -82t91 81l60 -19q-9 -56 -51 -88t-102 -32q-59 0 -103.5 29.5t-53.5 86.5z" />
    <glyph glyph-name="uni04D8" unicode="&#x4d8;" horiz-adv-x="639" 
d="M500 322h-355q-4 -24 -4 -53q0 -89 42 -150t124 -61q93 0 142.5 67.5t50.5 196.5zM63 392h437q-9 128 -60.5 187t-154.5 59q-42 0 -85.5 -12.5t-69.5 -28.5l-21 67q80 48 192 48q139 0 210.5 -87t71.5 -275q0 -175 -70 -268.5t-207 -93.5q-123 0 -188 77.5t-65 213.5
q0 56 10 113z" />
    <glyph glyph-name="afii10846" unicode="&#x4d9;" horiz-adv-x="507" 
d="M95 402l-30 58q65 52 172 52q111 0 166 -69.5t55 -192.5q0 -125 -56 -193.5t-156 -68.5q-36 0 -68.5 10.5t-62.5 34t-48 68.5t-18 107q0 26 5 68h326q-5 87 -42.5 126.5t-123.5 39.5q-33 0 -66.5 -12t-52.5 -28zM248 58q57 0 93.5 40.5t36.5 114.5h-251v-15
q0 -67 33.5 -103.5t87.5 -36.5z" />
    <glyph glyph-name="uni04DA" unicode="&#x4da;" horiz-adv-x="639" 
d="M500 322h-355q-4 -24 -4 -53q0 -89 42 -150t124 -61q93 0 142.5 67.5t50.5 196.5zM63 392h437q-9 128 -60.5 187t-154.5 59q-42 0 -85.5 -12.5t-69.5 -28.5l-21 67q80 48 192 48q139 0 210.5 -87t71.5 -275q0 -175 -70 -268.5t-207 -93.5q-123 0 -188 77.5t-65 213.5
q0 56 10 113zM161 794q0 21 15 34t39 13q23 0 37.5 -13t14.5 -34q0 -20 -14.5 -33t-37.5 -13q-24 0 -39 13t-15 33zM353 794q0 21 14.5 34t37.5 13q24 0 39 -13t15 -34q0 -20 -15 -33t-39 -13q-23 0 -37.5 13t-14.5 33z" />
    <glyph glyph-name="uni04DB" unicode="&#x4db;" horiz-adv-x="507" 
d="M95 402l-30 58q65 52 172 52q111 0 166 -69.5t55 -192.5q0 -125 -56 -193.5t-156 -68.5q-36 0 -68.5 10.5t-62.5 34t-48 68.5t-18 107q0 26 5 68h326q-5 87 -42.5 126.5t-123.5 39.5q-33 0 -66.5 -12t-52.5 -28zM248 58q57 0 93.5 40.5t36.5 114.5h-251v-15
q0 -67 33.5 -103.5t87.5 -36.5zM100 633q0 23 13.5 37t35.5 14t35.5 -14t13.5 -37q0 -21 -13.5 -35t-35.5 -14t-35.5 14t-13.5 35zM292 633q0 23 13.5 37t35.5 14t36 -14t14 -37q0 -21 -14 -35t-36 -14t-35.5 14t-13.5 35z" />
    <glyph glyph-name="uni04DC" unicode="&#x4dc;" horiz-adv-x="806" 
d="M358 386v314h80v-326l43 14l203 312h92l-202 -304l-40 -32l50 -41l223 -323h-102l-221 324h-46v-324h-80v336l-42 -14l-221 -322h-96l221 313l48 38l-46 35l-209 314h97l203 -314h45zM250 794q0 21 15 34t39 13q23 0 37.5 -13t14.5 -34q0 -20 -14.5 -33t-37.5 -13
q-24 0 -39 13t-15 33zM442 794q0 21 14.5 34t37.5 13q24 0 39 -13t15 -34q0 -20 -15 -33t-39 -13q-23 0 -37.5 13t-14.5 33z" />
    <glyph glyph-name="uni04DD" unicode="&#x4dd;" horiz-adv-x="659" 
d="M287 235l-47 -14l-147 -221h-92l158 229l34 30l-51 38l-130 203h85l138 -216h52v216h78v-226l47 14l139 212h84l-136 -203l-39 -32l51 -40l148 -225h-95l-147 225h-52v-225h-78v235zM182 633q0 23 13.5 37t35.5 14t35.5 -14t13.5 -37q0 -21 -13.5 -35t-35.5 -14t-35.5 14
t-13.5 35zM374 633q0 23 13.5 37t35.5 14t36 -14t14 -37q0 -21 -14 -35t-36 -14t-35.5 14t-13.5 35z" />
    <glyph glyph-name="uni04DE" unicode="&#x4de;" horiz-adv-x="541" 
d="M194 331h-55v70h16q67 0 95 5q55 9 90.5 39.5t35.5 77.5q0 115 -141 115q-97 0 -153 -26l-22 66q22 13 75.5 23.5t113.5 10.5q92 0 153.5 -40.5t61.5 -131.5q0 -53 -34.5 -97.5t-97.5 -63.5v-4q72 -10 112.5 -53.5t40.5 -114.5q0 -73 -39 -124t-96.5 -73t-126.5 -22
q-115 0 -179 26l21 75q56 -27 165 -27q68 0 117.5 36.5t49.5 103.5q0 115 -159 127q-32 2 -44 2zM93 794q0 21 15 34t39 13q23 0 37.5 -13t14.5 -34q0 -20 -14.5 -33t-37.5 -13q-24 0 -39 13t-15 33zM285 794q0 21 14.5 34t37.5 13q24 0 39 -13t15 -34q0 -20 -15 -33
t-39 -13q-23 0 -37.5 13t-14.5 33z" />
    <glyph glyph-name="uni04DF" unicode="&#x4df;" horiz-adv-x="441" 
d="M183 223h-58v65h70q37 0 67.5 23.5t30.5 54.5q0 38 -26.5 54.5t-81.5 16.5q-66 0 -122 -35l-23 62q75 43 167 43q166 0 166 -123q0 -36 -23.5 -69.5t-63.5 -46.5v-4q57 -11 81.5 -41.5t24.5 -82.5q0 -66 -54 -107.5t-155 -41.5q-79 0 -145 31l23 66q49 -27 126 -27
q125 0 125 85q0 77 -129 77zM57 633q0 23 13.5 37t35.5 14t35.5 -14t13.5 -37q0 -21 -13.5 -35t-35.5 -14t-35.5 14t-13.5 35zM249 633q0 23 13.5 37t35.5 14t36 -14t14 -37q0 -21 -14 -35t-36 -14t-35.5 14t-13.5 35z" />
    <glyph glyph-name="uni04E0" unicode="&#x4e0;" horiz-adv-x="563" 
d="M230 62q81 0 134.5 39t53.5 104q0 68 -52.5 102t-148.5 34h-88v27l186 224l44 43l-62 -9h-240v74h415v-30l-200 -239l-35 -29v-4l34 9q102 0 164.5 -52.5t62.5 -141.5q0 -105 -75 -165t-194 -60q-45 0 -96.5 10t-77.5 25l21 73q22 -13 69 -23.5t85 -10.5z" />
    <glyph glyph-name="uni04E1" unicode="&#x4e1;" horiz-adv-x="475" 
d="M188 -142q69 0 114.5 40t45.5 105q0 68 -42.5 103t-117.5 35h-73v26l144 224l45 43l-64 -8h-198v74h359v-29l-159 -238l-34 -29v-4l32 8q81 0 133.5 -53.5t52.5 -140.5q0 -105 -68.5 -165.5t-173.5 -60.5q-85 0 -145 27l23 71q56 -28 126 -28z" />
    <glyph glyph-name="uni04E2" unicode="&#x4e2;" horiz-adv-x="681" 
d="M513 0v474l6 80h-4l-43 -82l-338 -472h-49v700h83v-480l-7 -79h4l44 82l338 477h49v-700h-83zM189 781v62h316v-62h-316z" />
    <glyph glyph-name="uni04E3" unicode="&#x4e3;" horiz-adv-x="546" 
d="M389 0v296l3 62h-3l-41 -64l-225 -294h-46v500h80v-305l-3 -59h4l39 62l225 302h47v-500h-80zM130 581v62h296v-62h-296z" />
    <glyph glyph-name="uni04E4" unicode="&#x4e4;" horiz-adv-x="681" 
d="M513 0v474l6 80h-4l-43 -82l-338 -472h-49v700h83v-480l-7 -79h4l44 82l338 477h49v-700h-83zM190 794q0 21 15 34t39 13q23 0 37.5 -13t14.5 -34q0 -20 -14.5 -33t-37.5 -13q-24 0 -39 13t-15 33zM382 794q0 21 14.5 34t37.5 13q24 0 39 -13t15 -34q0 -20 -15 -33
t-39 -13q-23 0 -37.5 13t-14.5 33z" />
    <glyph glyph-name="uni04E5" unicode="&#x4e5;" horiz-adv-x="546" 
d="M389 0v296l3 62h-3l-41 -64l-225 -294h-46v500h80v-305l-3 -59h4l39 62l225 302h47v-500h-80zM135 633q0 23 13.5 37t35.5 14t35.5 -14t13.5 -37q0 -21 -13.5 -35t-35.5 -14t-35.5 14t-13.5 35zM327 633q0 23 13.5 37t35.5 14t36 -14t14 -37q0 -21 -14 -35t-36 -14
t-35.5 14t-13.5 35z" />
    <glyph glyph-name="uni04E6" unicode="&#x4e6;" horiz-adv-x="684" 
d="M56 350q0 174 74.5 268t210.5 94q143 0 215 -96.5t72 -265.5q0 -174 -75 -268t-212 -94q-142 0 -213.5 96.5t-71.5 265.5zM144 350q0 -124 50 -206t147 -82q95 0 147 72t52 216q0 80 -20 143t-66 104t-113 41q-94 0 -145.5 -72.5t-51.5 -215.5zM193 794q0 21 15 34t39 13
q23 0 37.5 -13t14.5 -34q0 -20 -14.5 -33t-37.5 -13q-24 0 -39 13t-15 33zM385 794q0 21 14.5 34t37.5 13q24 0 39 -13t15 -34q0 -20 -15 -33t-39 -13q-23 0 -37.5 13t-14.5 33z" />
    <glyph glyph-name="uni04E7" unicode="&#x4e7;" horiz-adv-x="536" 
d="M49 250q0 126 57 194t162 68q109 0 164 -69.5t55 -192.5q0 -126 -57 -194t-162 -68q-109 0 -164 69.5t-55 192.5zM132 250q0 -84 33 -138t103 -54q136 0 136 192q0 84 -33 138t-103 54q-136 0 -136 -192zM120 633q0 23 13.5 37t35.5 14t35.5 -14t13.5 -37
q0 -21 -13.5 -35t-35.5 -14t-35.5 14t-13.5 35zM312 633q0 23 13.5 37t35.5 14t36 -14t14 -37q0 -21 -14 -35t-36 -14t-35.5 14t-13.5 35z" />
    <glyph glyph-name="uni04E8" unicode="&#x4e8;" horiz-adv-x="684" 
d="M56 350q0 174 74.5 268t210.5 94q143 0 215 -96.5t72 -265.5q0 -174 -75 -268t-212 -94q-142 0 -213.5 96.5t-71.5 265.5zM144 392h396q-7 116 -61.5 181t-137.5 65q-81 0 -135.5 -58.5t-61.5 -187.5zM540 318h-396q7 -124 61 -190t136 -66q84 0 139 59t60 197z" />
    <glyph glyph-name="uni04E9" unicode="&#x4e9;" horiz-adv-x="536" 
d="M49 250q0 126 57 194t162 68q109 0 164 -69.5t55 -192.5q0 -126 -57 -194t-162 -68q-109 0 -164 69.5t-55 192.5zM132 281h272q-16 161 -136 161q-57 0 -94.5 -38t-41.5 -123zM404 217h-272q5 -76 42.5 -117.5t93.5 -41.5q126 0 136 159z" />
    <glyph glyph-name="uni04EA" unicode="&#x4ea;" horiz-adv-x="684" 
d="M56 350q0 174 74.5 268t210.5 94q143 0 215 -96.5t72 -265.5q0 -174 -75 -268t-212 -94q-142 0 -213.5 96.5t-71.5 265.5zM144 392h396q-7 116 -61.5 181t-137.5 65q-81 0 -135.5 -58.5t-61.5 -187.5zM540 318h-396q7 -124 61 -190t136 -66q84 0 139 59t60 197zM193 794
q0 21 15 34t39 13q23 0 37.5 -13t14.5 -34q0 -20 -14.5 -33t-37.5 -13q-24 0 -39 13t-15 33zM385 794q0 21 14.5 34t37.5 13q24 0 39 -13t15 -34q0 -20 -15 -33t-39 -13q-23 0 -37.5 13t-14.5 33z" />
    <glyph glyph-name="uni04EB" unicode="&#x4eb;" horiz-adv-x="536" 
d="M49 250q0 126 57 194t162 68q109 0 164 -69.5t55 -192.5q0 -126 -57 -194t-162 -68q-109 0 -164 69.5t-55 192.5zM132 281h272q-16 161 -136 161q-57 0 -94.5 -38t-41.5 -123zM404 217h-272q5 -76 42.5 -117.5t93.5 -41.5q126 0 136 159zM120 633q0 23 13.5 37t35.5 14
t35.5 -14t13.5 -37q0 -21 -13.5 -35t-35.5 -14t-35.5 14t-13.5 35zM312 633q0 23 13.5 37t35.5 14t36 -14t14 -37q0 -21 -14 -35t-36 -14t-35.5 14t-13.5 35z" />
    <glyph glyph-name="uni04EC" unicode="&#x4ec;" horiz-adv-x="577" 
d="M150 321v74h287q-8 121 -69.5 182t-157.5 61q-93 0 -143 -30l-22 65q67 39 175 39q137 0 219 -88.5t82 -273.5q0 -95 -25.5 -166.5t-71 -113t-102 -62t-123.5 -20.5q-90 0 -154 25l22 73q50 -24 137 -24q93 0 160.5 62.5t73.5 196.5h-288zM78 794q0 21 15 34t39 13
q23 0 37.5 -13t14.5 -34q0 -20 -14.5 -33t-37.5 -13q-24 0 -39 13t-15 33zM270 794q0 21 14.5 34t37.5 13q24 0 39 -13t15 -34q0 -20 -15 -33t-39 -13q-23 0 -37.5 13t-14.5 33z" />
    <glyph glyph-name="uni04ED" unicode="&#x4ed;" horiz-adv-x="465" 
d="M121 219v66h212q-5 72 -42.5 114.5t-102.5 42.5q-70 0 -121 -35l-28 61q64 44 164 44q213 0 213 -262q0 -126 -59 -194t-164 -68q-99 0 -153 30l23 68q51 -28 122 -28q140 0 149 161h-213zM55 633q0 23 13.5 37t35.5 14t35.5 -14t13.5 -37q0 -21 -13.5 -35t-35.5 -14
t-35.5 14t-13.5 35zM247 633q0 23 13.5 37t35.5 14t36 -14t14 -37q0 -21 -14 -35t-36 -14t-35.5 14t-13.5 35z" />
    <glyph glyph-name="uni04EE" unicode="&#x4ee;" horiz-adv-x="553" 
d="M103 700l179 -369l26 -89h5l20 92l134 366h85l-177 -455q-60 -154 -93.5 -202t-99.5 -48q-55 0 -89 22l25 69q29 -17 68 -17q51 0 80 113l-259 518h96zM138 781v62h316v-62h-316z" />
    <glyph glyph-name="uni04EF" unicode="&#x4ef;" horiz-adv-x="466" 
d="M104 500l120 -324l28 -96h5l22 97l97 323h81l-148 -449q-15 -45 -22.5 -65.5t-22 -57.5t-26 -55t-28 -39.5t-35 -30t-39.5 -8.5q-36 0 -59 10l14 69q13 -5 25 -5q67 0 97 131l-201 500h92zM98 581v62h296v-62h-296z" />
    <glyph glyph-name="uni04F0" unicode="&#x4f0;" horiz-adv-x="553" 
d="M103 700l179 -369l26 -89h5l20 92l134 366h85l-177 -455q-60 -154 -93.5 -202t-99.5 -48q-55 0 -89 22l25 69q29 -17 68 -17q51 0 80 113l-259 518h96zM145 794q0 21 15 34t39 13q23 0 37.5 -13t14.5 -34q0 -20 -14.5 -33t-37.5 -13q-24 0 -39 13t-15 33zM337 794
q0 21 14.5 34t37.5 13q24 0 39 -13t15 -34q0 -20 -15 -33t-39 -13q-23 0 -37.5 13t-14.5 33z" />
    <glyph glyph-name="uni04F1" unicode="&#x4f1;" horiz-adv-x="466" 
d="M104 500l120 -324l28 -96h5l22 97l97 323h81l-148 -449q-15 -45 -22.5 -65.5t-22 -57.5t-26 -55t-28 -39.5t-35 -30t-39.5 -8.5q-36 0 -59 10l14 69q13 -5 25 -5q67 0 97 131l-201 500h92zM98 633q0 23 13.5 37t35.5 14t35.5 -14t13.5 -37q0 -21 -13.5 -35t-35.5 -14
t-35.5 14t-13.5 35zM290 633q0 23 13.5 37t35.5 14t36 -14t14 -37q0 -21 -14 -35t-36 -14t-35.5 14t-13.5 35z" />
    <glyph glyph-name="uni04F2" unicode="&#x4f2;" horiz-adv-x="553" 
d="M103 700l179 -369l26 -89h5l20 92l134 366h85l-177 -455q-60 -154 -93.5 -202t-99.5 -48q-55 0 -89 22l25 69q29 -17 68 -17q51 0 80 113l-259 518h96zM177 741l64 109h93v-16l-100 -93h-57zM301 741l102 109h99v-16l-143 -93h-58z" />
    <glyph glyph-name="uni04F3" unicode="&#x4f3;" horiz-adv-x="466" 
d="M104 500l120 -324l28 -96h5l22 97l97 323h81l-148 -449q-15 -45 -22.5 -65.5t-22 -57.5t-26 -55t-28 -39.5t-35 -30t-39.5 -8.5q-36 0 -59 10l14 69q13 -5 25 -5q67 0 97 131l-201 500h92zM160 571l35 129h78v-16l-71 -113h-42zM268 571l73 129h86v-16l-114 -113h-45z
" />
    <glyph glyph-name="uni04F4" unicode="&#x4f4;" horiz-adv-x="605" 
d="M75 700h83v-232q0 -137 124 -137q99 0 155 46v323h83v-700h-83v302q-81 -45 -172 -45t-140.5 44.5t-49.5 151.5v247zM157 794q0 21 15 34t39 13q23 0 37.5 -13t14.5 -34q0 -20 -14.5 -33t-37.5 -13q-24 0 -39 13t-15 33zM349 794q0 21 14.5 34t37.5 13q24 0 39 -13
t15 -34q0 -20 -15 -33t-39 -13q-23 0 -37.5 13t-14.5 33z" />
    <glyph glyph-name="uni04F5" unicode="&#x4f5;" horiz-adv-x="490" 
d="M49 500h80v-136q0 -60 17 -89t69 -29q78 0 118 32v222h80v-500h-80v210q-55 -34 -134 -34q-77 0 -113.5 38t-36.5 134v152zM84 633q0 23 13.5 37t35.5 14t35.5 -14t13.5 -37q0 -21 -13.5 -35t-35.5 -14t-35.5 14t-13.5 35zM276 633q0 23 13.5 37t35.5 14t36 -14t14 -37
q0 -21 -14 -35t-36 -14t-35.5 14t-13.5 35z" />
    <glyph glyph-name="uni04F6" unicode="&#x4f6;" horiz-adv-x="442" 
d="M460 700v-74h-292v-552h92v-203h-58l-15 129h-102v700h375z" />
    <glyph glyph-name="uni04F7" unicode="&#x4f7;" horiz-adv-x="369" 
d="M77 0v500h292v-70h-212v-360h74v-197h-54l-15 127h-85z" />
    <glyph glyph-name="uni04F8" unicode="&#x4f8;" horiz-adv-x="769" 
d="M601 0v700h83v-700h-83zM85 7v693h83v-272q37 8 86 8q51 0 92 -10t77 -32.5t56 -65.5t20 -102q0 -117 -70.5 -175.5t-190.5 -58.5q-94 0 -153 15zM245 64q75 0 120.5 40t45.5 116q0 144 -170 144q-41 0 -73 -9v-285q27 -6 77 -6zM229 794q0 21 15 34t39 13q23 0 37.5 -13
t14.5 -34q0 -20 -14.5 -33t-37.5 -13q-24 0 -39 13t-15 33zM421 794q0 21 14.5 34t37.5 13q24 0 39 -13t15 -34q0 -20 -15 -33t-39 -13q-23 0 -37.5 13t-14.5 33z" />
    <glyph glyph-name="uni04F9" unicode="&#x4f9;" horiz-adv-x="660" 
d="M157 243v-173q37 -6 71 -6q113 0 113 94q0 92 -110 92q-47 0 -74 -7zM157 500v-191q45 7 88 7q179 0 179 -149q0 -91 -50.5 -132t-163.5 -41q-64 0 -133 6v500h80zM503 0v500h80v-500h-80zM179 633q0 23 13.5 37t35.5 14t35.5 -14t13.5 -37q0 -21 -13.5 -35t-35.5 -14
t-35.5 14t-13.5 35zM371 633q0 23 13.5 37t35.5 14t36 -14t14 -37q0 -21 -14 -35t-36 -14t-35.5 14t-13.5 35z" />
    <glyph glyph-name="uni04FC" unicode="&#x4fc;" horiz-adv-x="618" 
d="M479 -42q0 72 -52 154l-91 139l-29 60l-26 -60l-162 -251h-93l233 356l-213 344h100l142 -237l25 -57l24 57l150 237h92l-220 -337l139 -215q61 -94 61 -173q0 -185 -137 -185q-20 0 -31 2v68q52 0 70 26t18 72z" />
    <glyph glyph-name="uni04FD" unicode="&#x4fd;" horiz-adv-x="514" 
d="M308 260l96 -134q64 -90 64 -162q0 -86 -38 -131t-109 -45q-13 0 -31 2v68q55 0 76.5 21.5t21.5 67.5q0 65 -55 142l-47 63l-32 56l-29 -56l-108 -152h-89l180 256l-168 244h98l95 -138l28 -57l29 57l97 138h90z" />
    <glyph glyph-name="uni04FE" unicode="&#x4fe;" horiz-adv-x="618" 
d="M57 321v74h178l-189 305h100l142 -237l25 -57l24 57l150 237h92l-199 -305h184v-74h-179l204 -321h-97l-158 251l-27 60l-26 -60l-162 -251h-93l210 321h-179z" />
    <glyph glyph-name="uni04FF" unicode="&#x4ff;" horiz-adv-x="514" 
d="M55 225v66h129l-144 209h98l95 -138l28 -57l29 57l97 138h90l-147 -209h138v-66h-136l155 -225h-95l-106 152l-30 60l-31 -60l-108 -152h-89l158 225h-131z" />
    <glyph glyph-name="uni0510" unicode="&#x510;" horiz-adv-x="540" 
d="M411 331h-55q-14 0 -44 -2q-159 -12 -159 -127q0 -69 47 -104.5t129 -35.5q90 0 141 33l26 -63q-69 -44 -182 -44q-115 0 -182 52.5t-67 156.5q0 73 39 118.5t110 56.5v4q-62 19 -95 64.5t-33 99.5q0 86 64 129t165 43q51 0 101 -11.5t72 -25.5l-24 -67q-68 30 -142 30
q-148 0 -148 -106q0 -52 41 -85t99 -42q29 -4 81 -4h16v-70z" />
    <glyph glyph-name="uni0511" unicode="&#x511;" horiz-adv-x="441" 
d="M316 223h-58q-129 0 -129 -77q0 -39 32.5 -62t92.5 -23q75 0 126 32l23 -65q-68 -37 -145 -37q-103 0 -156 39.5t-53 109.5q0 50 25 79.5t81 44.5v4q-41 13 -64 43.5t-23 71.5q0 60 44.5 92t121.5 32q92 0 167 -43l-23 -62q-56 35 -122 35q-55 0 -81.5 -16.5t-26.5 -54.5
q0 -31 30.5 -54.5t67.5 -23.5h70v-65z" />
    <glyph glyph-name="uni0512" unicode="&#x512;" horiz-adv-x="626" 
d="M541 700v-727q0 -93 -32.5 -139t-101.5 -46q-8 0 -30 2v68q54 0 67.5 29t13.5 113v626h-209q-20 -416 -77 -539q-42 -92 -116 -92q-35 0 -58 10l13 72q11 -3 21 -3q40 0 67 52q63 120 72 574h370z" />
    <glyph glyph-name="uni0513" unicode="&#x513;" horiz-adv-x="503" 
d="M346 0v430h-145q-13 -218 -37 -305q-36 -129 -111 -129q-39 0 -58 9l12 67q12 -4 26 -4q29 0 47 32t31 129t17 271h298v-527q0 -93 -32.5 -139t-101.5 -46q-8 0 -30 2v68q53 0 68.5 31.5t15.5 110.5z" />
    </font>
</defs>
</svg>
