<?xml version="1.0" standalone="no"?>
<!DOCTYPE svg PUBLIC "-//W3C//DTD SVG 1.1//EN" "http://www.w3.org/Graphics/SVG/1.1/DTD/svg11.dtd" >
<svg xmlns="http://www.w3.org/2000/svg">
<metadata></metadata>
<defs>
<font id="pt_sans_prodemi" horiz-adv-x="555" >
<font-face units-per-em="1000" ascent="770" descent="-230" />
<missing-glyph horiz-adv-x="261" />
<glyph unicode="IJ" horiz-adv-x="592" d="M90 0v700h107v-700h-107zM404 196v504h107v-531q0 -83 -38.5 -131.5t-115.5 -48.5q-61 0 -102 19l22 89q25 -12 60 -12q39 0 53 27.5t14 83.5z" />
<glyph unicode="ij" horiz-adv-x="496" d="M83 0v500h102v-500h-102zM65 647q0 26 18.5 44t48.5 18t50 -18t20 -44t-19.5 -42.5t-50.5 -16.5q-30 0 -48.5 16.5t-18.5 42.5zM313 9v491h102v-524q0 -186 -142 -186q-24 0 -45 4v86h7q47 0 62.5 30t15.5 99zM294 647q0 26 18.5 44t48.5 18t50 -18t20 -44t-19.5 -42.5 t-50.5 -16.5q-30 0 -48.5 16.5t-18.5 42.5z" />
<glyph unicode="&#xf374;`" horiz-adv-x="489" d="M421 104l21 -81q-47 -33 -146 -33q-109 0 -178.5 66t-69.5 207q0 74 22 129t59.5 85t80 44t89.5 14q77 0 135 -20l-20 -87q-39 17 -105 17q-59 0 -99.5 -35t-51.5 -101h226v-81h-227q8 -70 50 -109t109 -39q57 0 105 24zM243 594l57 151h108v-25l-106 -126h-59z" />
<glyph unicode="&#xf350;`" horiz-adv-x="490" d="M377 0l-45 115h-182l-43 -115h-102l203 530h74l203 -530h-108zM222 315l-45 -117h131l-45 117l-19 84h-3zM220 594l57 151h108v-25l-106 -126h-59z" />
<glyph unicode="&#xf355;`" horiz-adv-x="464" d="M74 0v525h331v-87h-227v-129h207v-87h-207v-135h231v-87h-335zM197 594l57 151h108v-25l-106 -126h-59z" />
<glyph unicode="&#xf358;`" horiz-adv-x="575" d="M397 0v289l8 74h-4l-39 -75l-219 -288h-69v525h104v-282l-8 -76h5l39 77l218 281h69v-525h-104zM240 594l57 151h108v-25l-106 -126h-59z" />
<glyph unicode="&#xf35e;`" horiz-adv-x="571" d="M48 263q0 130 62 201t175 71q118 0 178 -73t60 -199q0 -130 -62.5 -201.5t-175.5 -71.5q-118 0 -177.5 73t-59.5 200zM157 263q0 -84 32 -133.5t96 -49.5q129 0 129 183q0 82 -31.5 132t-97.5 50q-128 0 -128 -182zM230 594l57 151h108v-25l-106 -126h-59z" />
<glyph unicode="&#xf363;`" horiz-adv-x="460" d="M120 525l115 -232l20 -74h5l14 76l86 230h106l-147 -365q-37 -92 -70 -128.5t-92 -36.5q-54 0 -81 19l28 80q21 -12 46 -12q40 0 57 63l-207 380h120zM184 594l57 151h108v-25l-106 -126h-59z" />
<glyph unicode="&#xf36b;`" horiz-adv-x="685" d="M507 0v525h104v-525h-104zM74 5v520h104v-188q36 6 66 6q200 0 200 -168q0 -90 -58 -136.5t-168 -46.5q-91 0 -144 13zM231 79q49 0 77.5 24t28.5 69q0 86 -108 86q-33 0 -51 -8v-166q18 -5 53 -5zM286 594l57 151h108v-25l-106 -126h-59z" />
<glyph unicode="&#xf36d;`" horiz-adv-x="489" d="M118 225v81h218q-7 67 -47 103t-109 36q-71 0 -123 -27l-24 84q69 33 155 33q118 0 185.5 -65t67.5 -207q0 -140 -75.5 -206.5t-193.5 -66.5q-81 0 -141 27l27 87q50 -24 121 -24q67 0 110 35.5t48 109.5h-219zM140 594l57 151h108v-25l-106 -126h-59z" />
<glyph unicode="&#xf36e;`" horiz-adv-x="759" d="M178 525v-212h79q10 106 67 164t158 58q118 0 173.5 -72t55.5 -200q0 -132 -58 -202.5t-171 -70.5q-104 0 -160.5 61t-64.5 168h-79v-219h-104v525h104zM362 263q0 -183 120 -183q61 0 90.5 43.5t29.5 139.5q0 182 -120 182t-120 -182zM308 594l57 151h108v-25l-106 -126 h-59z" />
<glyph unicode="&#xf36f;`" horiz-adv-x="500" d="M426 520v-520h-104v207l-66 -13l-118 -194h-121l115 174l49 33q-56 13 -90 52t-34 103q0 171 233 171q80 0 136 -13zM272 446q-47 0 -77.5 -21t-30.5 -67q0 -45 30 -67t79 -22h49v173q-17 4 -50 4zM233 594l57 151h108v-25l-106 -126h-59z" />
<glyph unicode="&#xf371;`" horiz-adv-x="464" d="M74 0v525h331v-87h-227v-129h207v-87h-207v-135h231v-87h-335zM62 682q0 25 15.5 41t41.5 16q23 0 37.5 -16t14.5 -41q0 -24 -14 -39.5t-38 -15.5q-26 0 -41.5 15.5t-15.5 39.5zM304 682q0 25 14.5 41t37.5 16q26 0 41.5 -16t15.5 -41q0 -24 -15.5 -39.5t-41.5 -15.5 q-23 0 -37.5 15.5t-14.5 39.5zM171 626l54 157h85v-24l-98 -133h-41z" />
<glyph unicode="&#x404;`" horiz-adv-x="580" d="M510 115l23 -86q-56 -42 -178 -42q-64 0 -118.5 21t-97.5 63.5t-67 114t-24 164.5q0 96 27 168.5t72.5 113.5t98.5 61t111 20q102 0 166 -25l-23 -93q-45 22 -134 22q-80 0 -136 -52t-67 -160h292v-90h-294q8 -111 65.5 -171.5t150.5 -60.5q81 0 133 32zM288 752l112 118 h134v-25l-162 -93h-84z" />
<glyph unicode="&#x406;`" horiz-adv-x="287" d="M90 0v700h107v-700h-107zM96 752l112 118h134v-25l-162 -93h-84z" />
<glyph unicode="&#x407;`" horiz-adv-x="297" d="M106 860l72 83h123v-23l-128 -60h-67zM27 792q0 26 15 41t40 15q24 0 39 -15t15 -41q0 -24 -15 -38.5t-39 -14.5q-25 0 -40 14t-15 39zM161 792q0 26 15 41t39 15q25 0 40 -15t15 -41q0 -25 -15 -39t-40 -14q-24 0 -39 14.5t-15 38.5zM94 0v700h107v-700h-107z" />
<glyph unicode="&#x410;`" horiz-adv-x="594" d="M477 0l-65 177h-239l-63 -177h-105l259 708h66l260 -708h-113zM269 452l-66 -188h183l-67 189l-24 108h-2zM258 752l112 118h134v-25l-162 -93h-84z" />
<glyph unicode="&#x415;`" horiz-adv-x="530" d="M74 0v700h396v-94h-289v-202h264v-94h-264v-216h294v-94h-401zM189 752l112 118h134v-25l-162 -93h-84z" />
<glyph unicode="&#x418;`" horiz-adv-x="674" d="M494 0v436l6 85h-4l-45 -88l-304 -433h-73v700h107v-436l-9 -86h5l47 89l304 433h73v-700h-107zM256 752l112 118h134v-25l-162 -93h-84z" />
<glyph unicode="&#x41e;`" horiz-adv-x="678" d="M48 350q0 174 75.5 268.5t214.5 94.5q145 0 218.5 -97t73.5 -266q0 -174 -76.5 -268.5t-215.5 -94.5q-144 0 -217 97t-73 266zM161 350q0 -118 44.5 -193.5t132.5 -75.5q86 0 132.5 66.5t46.5 202.5q0 118 -44.5 193.5t-134.5 75.5q-84 0 -130.5 -67.5t-46.5 -201.5z M282 752l112 118h134v-25l-162 -93h-84z" />
<glyph unicode="&#x423;`" horiz-adv-x="560" d="M125 700l162 -342l23 -90h6l18 93l121 339h110l-181 -468q-53 -139 -91 -188.5t-108 -49.5q-56 0 -93 23l29 88q29 -15 66 -15q49 0 73 95l-260 515h125zM208 752l112 118h134v-25l-162 -93h-84z" />
<glyph unicode="&#x42b;`" horiz-adv-x="781" d="M600 0v700h107v-700h-107zM74 7v693h107v-263q37 8 84 8q247 0 247 -216q0 -118 -71 -178t-199 -60q-104 0 -168 16zM250 85q68 0 108.5 34.5t40.5 103.5q0 128 -151 128q-40 0 -67 -9v-251q24 -6 69 -6zM289 752l112 118h134v-25l-162 -93h-84z" />
<glyph unicode="&#x42d;`" horiz-adv-x="576" d="M141 312v87h279q-7 105 -63 162.5t-146 57.5t-150 -35l-25 88q73 41 183 41q142 0 225.5 -87.5t83.5 -275.5q0 -97 -26.5 -169.5t-73.5 -113.5t-104.5 -60.5t-125.5 -19.5q-99 0 -164 29l28 93q58 -28 144 -28q87 0 148 57t67 174h-280zM146 752l112 118h134v-25 l-162 -93h-84z" />
<glyph unicode="&#x42e;`" horiz-adv-x="895" d="M181 700v-296h110q11 149 81.5 229t196.5 80q144 0 211 -95.5t67 -267.5q0 -176 -70.5 -269.5t-207.5 -93.5q-132 0 -201 85t-77 236h-110v-308h-107v700h107zM401 350q0 -78 15.5 -136t54.5 -95.5t98 -37.5q84 0 124.5 65.5t40.5 203.5q0 269 -165 269q-168 0 -168 -269 zM319 752l112 118h134v-25l-162 -93h-84z" />
<glyph unicode="&#x42f;`" horiz-adv-x="574" d="M500 693v-693h-107v293l-90 -21l-161 -272h-125l150 242l61 43q-72 17 -116.5 69t-44.5 137q0 218 274 218q94 0 159 -16zM331 615q-151 0 -151 -127q0 -65 42 -97t110 -32h61v250q-25 6 -62 6zM264 752l112 118h134v-25l-162 -93h-84z" />
<glyph unicode="&#x401;`" horiz-adv-x="530" d="M74 0v700h396v-94h-289v-202h264v-94h-264v-216h294v-94h-401zM348 810q0 23 15.5 37.5t40.5 14.5q31 0 47.5 -14t16.5 -38t-16.5 -37.5t-47.5 -13.5q-25 0 -40.5 14t-15.5 37zM61 810q0 24 17 38t47 14q25 0 40.5 -14.5t15.5 -37.5t-15 -37t-41 -14q-30 0 -47 13.5 t-17 37.5zM176 755l62 127h112v-25l-105 -102h-69z" />
<glyph unicode="&#x430;`" horiz-adv-x="496" d="M91 390l-29 75q76 44 202 44q96 0 132 -44t36 -119q0 -38 -3.5 -110.5t-3.5 -104.5q0 -80 16 -132h-80l-21 69h-5q-52 -76 -152 -76q-67 0 -109 39.5t-42 104.5q0 156 252 156q30 0 45 -1q3 25 3 45q0 48 -20 67t-71 19q-88 0 -150 -32zM215 77q83 0 114 70v75 q-32 2 -47 2q-143 0 -143 -75q0 -32 21 -52t55 -20zM198 569l56 151h109v-25l-106 -126h-59z" />
<glyph unicode="&#x435;`" horiz-adv-x="508" d="M413 111l36 -70q-67 -54 -181 -54t-170 69t-56 194q0 128 59.5 195.5t169.5 67.5q38 0 70.5 -9t61 -29.5t45 -59t17.5 -92.5q0 -49 -7 -92h-312q2 -79 36 -119.5t110 -40.5q34 0 68 12t53 28zM271 429q-112 0 -122 -128h219q0 2 0.5 8t0.5 9q0 55 -26 83t-72 28zM223 569 l56 151h109v-25l-106 -126h-59z" />
<glyph unicode="&#x438;`" horiz-adv-x="545" d="M375 0v266l5 66h-3l-42 -68l-205 -264h-62v500h102v-275l-4 -63h4l40 66l205 272h62v-500h-102zM232 569l56 151h109v-25l-106 -126h-59z" />
<glyph unicode="&#x43e;`" horiz-adv-x="537" d="M42 250q0 126 59 194.5t167 68.5q112 0 169.5 -70.5t57.5 -192.5q0 -126 -59.5 -194.5t-167.5 -68.5q-112 0 -169 70t-57 193zM149 250q0 -78 29 -127t90 -49q120 0 120 176q0 80 -29 128t-91 48q-119 0 -119 -176zM220 569l56 151h109v-25l-106 -126h-59z" />
<glyph unicode="&#x443;`" horiz-adv-x="471" d="M123 500l108 -305l23 -88h6l18 89l88 304h104l-150 -450q-17 -52 -27.5 -81t-28 -67.5t-33.5 -58t-39 -34t-49 -14.5q-44 0 -69 13l18 87q14 -6 27 -6q63 0 88 111l-204 500h120zM205 569l56 151h109v-25l-106 -126h-59z" />
<glyph unicode="&#x44b;`" horiz-adv-x="679" d="M170 237v-151q34 -6 65 -6q52 0 75 21t23 63q0 80 -95 80q-39 0 -68 -7zM170 500v-185q45 7 91 7q179 0 179 -152q0 -92 -51.5 -134.5t-168.5 -42.5q-72 0 -152 7v500h102zM509 0v500h102v-500h-102zM265 569l56 151h109v-25l-106 -126h-59z" />
<glyph unicode="&#x44d;`" horiz-adv-x="462" d="M116 214v78h200q-5 62 -38.5 98t-93.5 36q-63 0 -120 -34l-31 76q65 45 171 45q217 0 217 -263q0 -128 -60 -195.5t-167 -67.5q-104 0 -161 33l27 83q53 -29 120 -29q66 0 99 34t38 106h-201zM148 569l56 151h109v-25l-106 -126h-59z" />
<glyph unicode="&#x44e;`" horiz-adv-x="726" d="M472 -13q-106 0 -156 58.5t-56 167.5h-90v-213h-102v500h102v-200h91q19 213 213 213q107 0 158.5 -69.5t51.5 -193.5q0 -128 -53.5 -195.5t-158.5 -67.5zM359 250q0 -176 114 -176q55 0 79.5 41.5t24.5 134.5q0 84 -23.5 130t-82.5 46q-58 0 -85 -42t-27 -134zM284 569 l56 151h109v-25l-106 -126h-59z" />
<glyph unicode="&#x44f;`" horiz-adv-x="487" d="M324 0v199l-70 -12l-116 -187h-123l110 165l44 37q-52 9 -86 45.5t-34 92.5q0 173 228 173q64 0 149 -16v-497h-102zM324 255v161q-25 10 -54 10q-114 0 -114 -88q0 -41 31.5 -63t88.5 -22q3 0 48 2zM226 569l56 151h109v-25l-106 -126h-59z" />
<glyph unicode="&#x451;`" horiz-adv-x="508" d="M413 111l36 -70q-67 -54 -181 -54t-170 69t-56 194q0 128 59.5 195.5t169.5 67.5q38 0 70.5 -9t61 -29.5t45 -59t17.5 -92.5q0 -49 -7 -92h-312q2 -79 36 -119.5t110 -40.5q34 0 68 12t53 28zM271 429q-112 0 -122 -128h219q0 2 0.5 8t0.5 9q0 55 -26 83t-72 28zM87 629 q0 25 15.5 41t41.5 16q23 0 37.5 -16t14.5 -41q0 -24 -14 -40t-38 -16q-26 0 -41.5 16t-15.5 40zM329 629q0 25 14.5 41t37.5 16q26 0 41.5 -16t15.5 -41q0 -24 -15.5 -40t-41.5 -16q-22 0 -37 16t-15 40zM196 573l54 157h85v-24l-97 -133h-42z" />
<glyph unicode="&#x454;`" horiz-adv-x="465" d="M409 110l28 -78q-62 -45 -163 -45q-114 0 -172 70t-58 193q0 124 64 193.5t171 69.5q91 0 150 -31l-27 -85q-50 26 -110 26q-125 0 -143 -131h217v-77h-217q8 -62 45.5 -100t105.5 -38q65 0 109 33zM228 569l56 151h109v-25l-106 -126h-59z" />
<glyph unicode="&#x456;`" horiz-adv-x="269" d="M83 0v500h102v-500h-102zM65 647q0 26 18.5 44t48.5 18t50 -18t20 -44t-19.5 -42.5t-50.5 -16.5q-30 0 -48.5 16.5t-18.5 42.5zM78 752l112 118h134v-25l-162 -93h-84z" />
<glyph unicode="&#x457;`" horiz-adv-x="278" d="M23 650q0 26 14 41t39 15q24 0 37.5 -15t13.5 -41q0 -25 -13.5 -39.5t-37.5 -14.5q-25 0 -39 14.5t-14 39.5zM152 650q0 26 13.5 41t37.5 15q25 0 38.5 -15t13.5 -41q0 -25 -13.5 -39.5t-38.5 -14.5q-24 0 -37.5 14.5t-13.5 39.5zM87 0v500h102v-500h-102zM82 752 l112 118h134v-25l-162 -93h-84z" />
<glyph unicode="&#x40e;`" horiz-adv-x="560" d="M125 700l162 -342l23 -90h6l18 93l121 339h110l-181 -468q-53 -139 -91 -188.5t-108 -49.5q-56 0 -93 23l29 88q29 -15 66 -15q49 0 73 95l-260 515h125zM113 852l99 20q8 -76 90 -76q37 0 61.5 18.5t31.5 50.5l81 -16q-23 -114 -181 -114q-165 0 -182 117zM249 835 l97 118h131v-25l-161 -93h-67z" />
<glyph unicode="&#x45e;`" horiz-adv-x="471" d="M123 500l108 -305l23 -88h6l18 89l88 304h104l-150 -450q-17 -52 -27.5 -81t-28 -67.5t-33.5 -58t-39 -34t-49 -14.5q-44 0 -69 13l18 87q14 -6 27 -6q63 0 88 111l-204 500h120zM70 678l87 25q14 -77 86 -77q74 0 92 76l71 -22q-11 -59 -55.5 -91t-110.5 -32 q-67 0 -113.5 30t-56.5 91zM211 680l51 151h105v-25l-109 -126h-47z" />
<glyph unicode="&#x474;`" horiz-adv-x="612" d="M499 515l-176 -523h-64l-266 708h121l161 -450l21 -112h3l16 114l73 244q38 127 75 169.5t107 42.5q57 0 98 -22l-26 -91q-30 17 -66 17q-25 0 -42.5 -22.5t-34.5 -74.5zM231 752l112 118h134v-25l-162 -93h-84z" />
<glyph unicode="&#x475;`" horiz-adv-x="516" d="M419 344l-145 -352h-54l-217 508h118l108 -279l23 -87h2l21 89l29 79q41 118 71.5 162t91.5 44q43 0 69 -13l-15 -86q-22 9 -34 9q-37 0 -68 -74zM213 569l56 151h109v-25l-106 -126h-59z" />
<glyph unicode="&#x4ae;`" horiz-adv-x="573" d="M234 0v270l-231 430h127l148 -287l16 -67h2l17 69l142 285h115l-229 -429v-271h-107zM219 752l112 118h134v-25l-162 -93h-84z" />
<glyph unicode="&#x4af;`" horiz-adv-x="487" d="M198 0l-195 500h118l109 -312l23 -100h3l20 102l99 310h110l-185 -500v-200h-102v200zM204 569l56 151h109v-25l-106 -126h-59z" />
<glyph unicode="&#x4b0;`" horiz-adv-x="573" d="M81 214v75h143l-221 411h127l148 -287l16 -67h2l17 69l142 285h115l-220 -411h144v-75h-153v-214h-107v214h-153zM220 752l112 118h134v-25l-162 -93h-84z" />
<glyph unicode="&#x4b1;`" horiz-adv-x="487" d="M79 -69v69h119l-195 500h118l109 -312l23 -100h3l20 102l99 310h110l-185 -500h119v-69h-119v-131h-102v131h-119zM201 569l56 151h109v-25l-106 -126h-59z" />
<glyph unicode="&#x4d0;`" horiz-adv-x="594" d="M477 0l-65 177h-239l-63 -177h-105l259 708h66l260 -708h-113zM269 452l-66 -188h183l-67 189l-24 108h-2zM115 852l99 20q8 -76 90 -76q37 0 61.5 18.5t31.5 50.5l81 -16q-23 -114 -181 -114q-165 0 -182 117zM251 835l97 118h131v-25l-161 -93h-67z" />
<glyph unicode="&#x4d1;`" horiz-adv-x="496" d="M91 390l-29 75q76 44 202 44q96 0 132 -44t36 -119q0 -38 -3.5 -110.5t-3.5 -104.5q0 -80 16 -132h-80l-21 69h-5q-52 -76 -152 -76q-67 0 -109 39.5t-42 104.5q0 156 252 156q30 0 45 -1q3 25 3 45q0 48 -20 67t-71 19q-88 0 -150 -32zM215 77q83 0 114 70v75 q-32 2 -47 2q-143 0 -143 -75q0 -32 21 -52t55 -20zM86 678l87 25q14 -77 86 -77q74 0 92 76l71 -22q-11 -59 -55.5 -91t-110.5 -32q-67 0 -113.5 30t-56.5 91zM227 680l51 151h105v-25l-109 -126h-47z" />
<glyph unicode="&#x4d2;`" horiz-adv-x="594" d="M477 0l-65 177h-239l-63 -177h-105l259 708h66l260 -708h-113zM269 452l-66 -188h183l-67 189l-24 108h-2zM378 810q0 23 15.5 37.5t40.5 14.5q31 0 47.5 -14t16.5 -38t-16.5 -37.5t-47.5 -13.5q-25 0 -40.5 14t-15.5 37zM91 810q0 24 17 38t47 14q25 0 40.5 -14.5 t15.5 -37.5t-15 -37t-41 -14q-30 0 -47 13.5t-17 37.5zM206 755l62 127h112v-25l-105 -102h-69z" />
<glyph unicode="&#x4d3;`" horiz-adv-x="496" d="M91 390l-29 75q76 44 202 44q96 0 132 -44t36 -119q0 -38 -3.5 -110.5t-3.5 -104.5q0 -80 16 -132h-80l-21 69h-5q-52 -76 -152 -76q-67 0 -109 39.5t-42 104.5q0 156 252 156q30 0 45 -1q3 25 3 45q0 48 -20 67t-71 19q-88 0 -150 -32zM215 77q83 0 114 70v75 q-32 2 -47 2q-143 0 -143 -75q0 -32 21 -52t55 -20zM72 629q0 25 15.5 41t41.5 16q23 0 37.5 -16t14.5 -41q0 -24 -14 -40t-38 -16q-26 0 -41.5 16t-15.5 40zM314 629q0 25 14.5 41t37.5 16q26 0 41.5 -16t15.5 -41q0 -24 -15.5 -40t-41.5 -16q-22 0 -37 16t-15 40zM181 573 l54 157h85v-24l-97 -133h-42z" />
<glyph unicode="&#x4d4;`" horiz-adv-x="853" d="M397 570h-5l-34 -103l-111 -195h150v298zM397 0v185h-201l-106 -185h-115l419 700h399v-94h-289v-202h264v-94h-264v-216h294v-94h-401zM410 752l112 118h134v-25l-162 -93h-84z" />
<glyph unicode="&#x4d5;`" horiz-adv-x="791" d="M215 77q83 0 114 70v75q-24 2 -38 2q-72 -1 -112 -17t-40 -58q0 -32 21 -52t55 -20zM366 80h-7q-65 -88 -176 -88q-67 0 -109 39.5t-42 104.5q0 157 245 157q18 0 52 -2q3 25 3 45q0 48 -20 67t-71 19q-85 0 -150 -35l-29 75q81 47 202 47q100 0 135 -60q24 31 66 47.5 t89 16.5q38 0 70.5 -9.5t61.5 -30t45.5 -59t16.5 -92.5q0 -48 -7 -91h-313q2 -79 36.5 -119.5t110.5 -40.5q34 0 68 12t53 28l36 -70q-68 -54 -181 -54q-62 0 -111 24.5t-74 68.5zM554 429q-113 0 -123 -128h220v16q0 55 -25.5 83.5t-71.5 28.5zM356 569l56 151h109v-25 l-106 -126h-59z" />
<glyph unicode="&#x4d6;`" horiz-adv-x="530" d="M74 0v700h396v-94h-289v-202h264v-94h-264v-216h294v-94h-401zM99 852l99 20q8 -76 90 -76q37 0 61.5 18.5t31.5 50.5l81 -16q-23 -114 -181 -114q-165 0 -182 117zM235 835l97 118h131v-25l-161 -93h-67z" />
<glyph unicode="&#x4d7;`" horiz-adv-x="508" d="M413 111l36 -70q-67 -54 -181 -54t-170 69t-56 194q0 128 59.5 195.5t169.5 67.5q38 0 70.5 -9t61 -29.5t45 -59t17.5 -92.5q0 -49 -7 -92h-312q2 -79 36 -119.5t110 -40.5q34 0 68 12t53 28zM271 429q-112 0 -122 -128h219q0 2 0.5 8t0.5 9q0 55 -26 83t-72 28zM99 678 l87 25q14 -77 86 -77q74 0 92 76l71 -22q-11 -59 -55.5 -91t-110.5 -32q-67 0 -113.5 30t-56.5 91zM240 680l51 151h105v-25l-109 -126h-47z" />
<glyph unicode="&#x4d8;`" horiz-adv-x="635" d="M480 310h-319q-3 -21 -3 -49q0 -81 39 -132.5t111 -51.5q83 0 127 59t45 174zM56 400h424q-8 110 -56 164.5t-144 54.5q-82 0 -155 -44l-25 89q82 49 199 49q288 0 288 -363q0 -175 -70 -269t-212 -94q-125 0 -192.5 78t-67.5 208q0 64 11 127zM230 752l112 118h134v-25 l-162 -93h-84z" />
<glyph unicode="&#x4d9;`" horiz-adv-x="508" d="M96 387l-38 72q67 54 181 54q113 0 169.5 -70t56.5 -193q0 -125 -58.5 -194t-161.5 -69q-98 0 -150.5 60t-52.5 162q0 28 8 74h316q-5 76 -39.5 111t-111.5 35q-34 0 -67 -13t-52 -29zM245 71q53 0 85.5 38.5t32.5 102.5h-224v-20q1 -58 30 -89.5t76 -31.5zM197 569 l56 151h109v-25l-106 -126h-59z" />
<glyph unicode="&#x4da;`" horiz-adv-x="635" d="M480 310h-319q-3 -21 -3 -49q0 -81 39 -132.5t111 -51.5q83 0 127 59t45 174zM56 400h424q-8 110 -56 164.5t-144 54.5q-82 0 -155 -44l-25 89q82 49 199 49q288 0 288 -363q0 -175 -70 -269t-212 -94q-125 0 -192.5 78t-67.5 208q0 64 11 127zM388 810q0 23 15.5 37.5 t40.5 14.5q31 0 47.5 -14t16.5 -38t-16.5 -37.5t-47.5 -13.5q-25 0 -40.5 14t-15.5 37zM101 810q0 24 17 38t47 14q25 0 40.5 -14.5t15.5 -37.5t-15 -37t-41 -14q-30 0 -47 13.5t-17 37.5zM216 755l62 127h112v-25l-105 -102h-69z" />
<glyph unicode="&#x4db;`" horiz-adv-x="508" d="M96 387l-38 72q67 54 181 54q113 0 169.5 -70t56.5 -193q0 -125 -58.5 -194t-161.5 -69q-98 0 -150.5 60t-52.5 162q0 28 8 74h316q-5 76 -39.5 111t-111.5 35q-34 0 -67 -13t-52 -29zM245 71q53 0 85.5 38.5t32.5 102.5h-224v-20q1 -58 30 -89.5t76 -31.5zM75 629 q0 25 15.5 41t41.5 16q23 0 37.5 -16t14.5 -41q0 -24 -14 -40t-38 -16q-26 0 -41.5 16t-15.5 40zM317 629q0 25 14.5 41t37.5 16q26 0 41.5 -16t15.5 -41q0 -24 -15.5 -40t-41.5 -16q-22 0 -37 16t-15 40zM184 573l54 157h85v-24l-97 -133h-42z" />
<glyph unicode="&#x4e2;`" horiz-adv-x="674" d="M494 0v436l6 85h-4l-45 -88l-304 -433h-73v700h107v-436l-9 -86h5l47 89l304 433h73v-700h-107zM182 731v74h328v-74h-328zM270 831l112 118h134v-25l-162 -93h-84z" />
<glyph unicode="&#x4e3;`" horiz-adv-x="545" d="M375 0v266l5 66h-3l-42 -68l-205 -264h-62v500h102v-275l-4 -63h4l40 66l205 272h62v-500h-102zM121 568v76h308v-76h-308zM220 679l56 151h109v-25l-106 -126h-59z" />
<glyph unicode="&#x4e4;`" horiz-adv-x="674" d="M494 0v436l6 85h-4l-45 -88l-304 -433h-73v700h107v-436l-9 -86h5l47 89l304 433h73v-700h-107zM422 810q0 23 15.5 37.5t40.5 14.5q31 0 47.5 -14t16.5 -38t-16.5 -37.5t-47.5 -13.5q-25 0 -40.5 14t-15.5 37zM135 810q0 24 17 38t47 14q25 0 40.5 -14.5t15.5 -37.5 t-15 -37t-41 -14q-30 0 -47 13.5t-17 37.5zM250 755l62 127h112v-25l-105 -102h-69z" />
<glyph unicode="&#x4e5;`" horiz-adv-x="545" d="M375 0v266l5 66h-3l-42 -68l-205 -264h-62v500h102v-275l-4 -63h4l40 66l205 272h62v-500h-102zM99 629q0 25 15.5 41t41.5 16q23 0 37.5 -16t14.5 -41q0 -24 -14 -40t-38 -16q-26 0 -41.5 16t-15.5 40zM341 629q0 25 14.5 41t37.5 16q26 0 41.5 -16t15.5 -41 q0 -24 -15.5 -40t-41.5 -16q-22 0 -37 16t-15 40zM208 573l54 157h85v-24l-97 -133h-42z" />
<glyph unicode="&#x4e6;`" horiz-adv-x="678" d="M48 350q0 174 75.5 268.5t214.5 94.5q145 0 218.5 -97t73.5 -266q0 -174 -76.5 -268.5t-215.5 -94.5q-144 0 -217 97t-73 266zM161 350q0 -118 44.5 -193.5t132.5 -75.5q86 0 132.5 66.5t46.5 202.5q0 118 -44.5 193.5t-134.5 75.5q-84 0 -130.5 -67.5t-46.5 -201.5z M423 810q0 23 15.5 37.5t40.5 14.5q31 0 47.5 -14t16.5 -38t-16.5 -37.5t-47.5 -13.5q-25 0 -40.5 14t-15.5 37zM136 810q0 24 17 38t47 14q25 0 40.5 -14.5t15.5 -37.5t-15 -37t-41 -14q-30 0 -47 13.5t-17 37.5zM251 755l62 127h112v-25l-105 -102h-69z" />
<glyph unicode="&#x4e7;`" horiz-adv-x="537" d="M42 250q0 126 59 194.5t167 68.5q112 0 169.5 -70.5t57.5 -192.5q0 -126 -59.5 -194.5t-167.5 -68.5q-112 0 -169 70t-57 193zM149 250q0 -78 29 -127t90 -49q120 0 120 176q0 80 -29 128t-91 48q-119 0 -119 -176zM98 629q0 25 15.5 41t41.5 16q23 0 37.5 -16t14.5 -41 q0 -24 -14 -40t-38 -16q-26 0 -41.5 16t-15.5 40zM340 629q0 25 14.5 41t37.5 16q26 0 41.5 -16t15.5 -41q0 -24 -15.5 -40t-41.5 -16q-22 0 -37 16t-15 40zM207 573l54 157h85v-24l-97 -133h-42z" />
<glyph unicode="&#x4e8;`" horiz-adv-x="678" d="M48 350q0 174 75.5 268.5t214.5 94.5q145 0 218.5 -97t73.5 -266q0 -174 -76.5 -268.5t-215.5 -94.5q-144 0 -217 97t-73 266zM338 81q164 0 179 228h-356q8 -103 52.5 -165.5t124.5 -62.5zM338 619q-77 0 -123 -55t-54 -165h355q-9 99 -53 159.5t-125 60.5zM288 752 l112 118h134v-25l-162 -93h-84z" />
<glyph unicode="&#x4e9;`" horiz-adv-x="537" d="M42 250q0 126 59 194.5t167 68.5q112 0 169.5 -70.5t57.5 -192.5q0 -126 -59.5 -194.5t-167.5 -68.5q-112 0 -169 70t-57 193zM149 285h239q-16 141 -120 141q-49 0 -81.5 -34t-37.5 -107zM388 213h-239q5 -66 37.5 -102.5t81.5 -36.5q109 0 120 139zM231 569l56 151h109 v-25l-106 -126h-59z" />
<glyph unicode="&#x4ea;`" horiz-adv-x="678" d="M48 350q0 174 75.5 268.5t214.5 94.5q145 0 218.5 -97t73.5 -266q0 -174 -76.5 -268.5t-215.5 -94.5q-144 0 -217 97t-73 266zM338 81q164 0 179 228h-356q8 -103 52.5 -165.5t124.5 -62.5zM338 619q-77 0 -123 -55t-54 -165h355q-9 99 -53 159.5t-125 60.5zM424 810 q0 23 15.5 37.5t40.5 14.5q31 0 47.5 -14t16.5 -38t-16.5 -37.5t-47.5 -13.5q-25 0 -40.5 14t-15.5 37zM137 810q0 24 17 38t47 14q25 0 40.5 -14.5t15.5 -37.5t-15 -37t-41 -14q-30 0 -47 13.5t-17 37.5zM252 755l62 127h112v-25l-105 -102h-69z" />
<glyph unicode="&#x4eb;`" horiz-adv-x="537" d="M42 250q0 126 59 194.5t167 68.5q112 0 169.5 -70.5t57.5 -192.5q0 -126 -59.5 -194.5t-167.5 -68.5q-112 0 -169 70t-57 193zM149 285h239q-16 141 -120 141q-49 0 -81.5 -34t-37.5 -107zM388 213h-239q5 -66 37.5 -102.5t81.5 -36.5q109 0 120 139zM98 629 q0 25 15.5 41t41.5 16q23 0 37.5 -16t14.5 -41q0 -24 -14 -40t-38 -16q-26 0 -41.5 16t-15.5 40zM340 629q0 25 14.5 41t37.5 16q26 0 41.5 -16t15.5 -41q0 -24 -15.5 -40t-41.5 -16q-22 0 -37 16t-15 40zM207 573l54 157h85v-24l-97 -133h-42z" />
<glyph unicode="&#x4ec;`" horiz-adv-x="576" d="M141 312v87h279q-7 105 -63 162.5t-146 57.5t-150 -35l-25 88q73 41 183 41q142 0 225.5 -87.5t83.5 -275.5q0 -97 -26.5 -169.5t-73.5 -113.5t-104.5 -60.5t-125.5 -19.5q-99 0 -164 29l28 93q58 -28 144 -28q87 0 148 57t67 174h-280zM338 810q0 23 15.5 37.5 t40.5 14.5q31 0 47.5 -14t16.5 -38t-16.5 -37.5t-47.5 -13.5q-25 0 -40.5 14t-15.5 37zM51 810q0 24 17 38t47 14q25 0 40.5 -14.5t15.5 -37.5t-15 -37t-41 -14q-30 0 -47 13.5t-17 37.5zM166 755l62 127h112v-25l-105 -102h-69z" />
<glyph unicode="&#x4ed;`" horiz-adv-x="462" d="M116 214v78h200q-5 62 -38.5 98t-93.5 36q-63 0 -120 -34l-31 76q65 45 171 45q217 0 217 -263q0 -128 -60 -195.5t-167 -67.5q-104 0 -161 33l27 83q53 -29 120 -29q66 0 99 34t38 106h-201zM38 629q0 25 15.5 41t41.5 16q23 0 37.5 -16t14.5 -41q0 -24 -14 -40t-38 -16 q-26 0 -41.5 16t-15.5 40zM280 629q0 25 14.5 41t37.5 16q26 0 41.5 -16t15.5 -41q0 -24 -15.5 -40t-41.5 -16q-22 0 -37 16t-15 40zM147 573l54 157h85v-24l-97 -133h-42z" />
<glyph unicode="&#x4ee;`" horiz-adv-x="560" d="M125 700l162 -342l23 -90h6l18 93l121 339h110l-181 -468q-53 -139 -91 -188.5t-108 -49.5q-56 0 -93 23l29 88q29 -15 66 -15q49 0 73 95l-260 515h125zM129 731v74h328v-74h-328zM217 831l112 118h134v-25l-162 -93h-84z" />
<glyph unicode="&#x4ef;`" horiz-adv-x="471" d="M123 500l108 -305l23 -88h6l18 89l88 304h104l-150 -450q-17 -52 -27.5 -81t-28 -67.5t-33.5 -58t-39 -34t-49 -14.5q-44 0 -69 13l18 87q14 -6 27 -6q63 0 88 111l-204 500h120zM92 568v76h308v-76h-308zM192 679l56 151h109v-25l-106 -126h-59z" />
<glyph unicode="&#x4f0;`" horiz-adv-x="560" d="M125 700l162 -342l23 -90h6l18 93l121 339h110l-181 -468q-53 -139 -91 -188.5t-108 -49.5q-56 0 -93 23l29 88q29 -15 66 -15q49 0 73 95l-260 515h125zM379 810q0 23 15.5 37.5t40.5 14.5q31 0 47.5 -14t16.5 -38t-16.5 -37.5t-47.5 -13.5q-25 0 -40.5 14t-15.5 37z M92 810q0 24 17 38t47 14q25 0 40.5 -14.5t15.5 -37.5t-15 -37t-41 -14q-30 0 -47 13.5t-17 37.5zM207 755l62 127h112v-25l-105 -102h-69z" />
<glyph unicode="&#x4f1;`" horiz-adv-x="471" d="M123 500l108 -305l23 -88h6l18 89l88 304h104l-150 -450q-17 -52 -27.5 -81t-28 -67.5t-33.5 -58t-39 -34t-49 -14.5q-44 0 -69 13l18 87q14 -6 27 -6q63 0 88 111l-204 500h120zM67 629q0 25 15.5 41t41.5 16q23 0 37.5 -16t14.5 -41q0 -24 -14 -40t-38 -16 q-26 0 -41.5 16t-15.5 40zM309 629q0 25 14.5 41t37.5 16q26 0 41.5 -16t15.5 -41q0 -24 -15.5 -40t-41.5 -16q-22 0 -37 16t-15 40zM176 573l54 157h85v-24l-97 -133h-42z" />
<glyph unicode="&#x4f2;`" horiz-adv-x="560" d="M125 700l162 -342l23 -90h6l18 93l121 339h110l-181 -468q-53 -139 -91 -188.5t-108 -49.5q-56 0 -93 23l29 88q29 -15 66 -15q49 0 73 95l-260 515h125zM118 731l25 89h98v-16l-60 -73h-63zM323 731l133 89h116v-16l-173 -73h-76zM227 752l101 118h119v-19l-138 -99h-82 z" />
<glyph unicode="&#x4f3;`" horiz-adv-x="471" d="M123 500l108 -305l23 -88h6l18 89l88 304h104l-150 -450q-17 -52 -27.5 -81t-28 -67.5t-33.5 -58t-39 -34t-49 -14.5q-44 0 -69 13l18 87q14 -6 27 -6q63 0 88 111l-204 500h120zM106 571l15 129h93v-16l-53 -113h-55zM273 571l103 129h101v-16l-146 -113h-58zM220 622 l58 148h97v-19l-101 -129h-54z" />
<glyph unicode="&#x4f8;`" horiz-adv-x="781" d="M600 0v700h107v-700h-107zM74 7v693h107v-263q37 8 84 8q247 0 247 -216q0 -118 -71 -178t-199 -60q-104 0 -168 16zM250 85q68 0 108.5 34.5t40.5 103.5q0 128 -151 128q-40 0 -67 -9v-251q24 -6 69 -6zM462 810q0 23 15.5 37.5t40.5 14.5q31 0 47.5 -14t16.5 -38 t-16.5 -37.5t-47.5 -13.5q-25 0 -40.5 14t-15.5 37zM175 810q0 24 17 38t47 14q25 0 40.5 -14.5t15.5 -37.5t-15 -37t-41 -14q-30 0 -47 13.5t-17 37.5zM290 755l62 127h112v-25l-105 -102h-69z" />
<glyph unicode="&#x4f9;`" horiz-adv-x="679" d="M170 237v-151q34 -6 65 -6q52 0 75 21t23 63q0 80 -95 80q-39 0 -68 -7zM170 500v-185q45 7 91 7q179 0 179 -152q0 -92 -51.5 -134.5t-168.5 -42.5q-72 0 -152 7v500h102zM509 0v500h102v-500h-102zM166 629q0 25 15.5 41t41.5 16q23 0 37.5 -16t14.5 -41q0 -24 -14 -40 t-38 -16q-26 0 -41.5 16t-15.5 40zM408 629q0 25 14.5 41t37.5 16q26 0 41.5 -16t15.5 -41q0 -24 -15.5 -40t-41.5 -16q-22 0 -37 16t-15 40zM275 573l54 157h85v-24l-97 -133h-42z" />
<glyph unicode="&#xf376;`" horiz-adv-x="284" d="M90 0v525h104v-525h-104zM96 594l57 151h108v-25l-106 -126h-59z" />
<glyph unicode="&#xf377;`" horiz-adv-x="368" d="M131 0v525h104v-525h-104zM8 682q0 25 15.5 41t41.5 16q23 0 37.5 -16t14.5 -41q0 -24 -14 -39.5t-38 -15.5q-26 0 -41.5 15.5t-15.5 39.5zM250 682q0 25 14.5 41t37.5 16q26 0 41.5 -16t15.5 -41q0 -24 -15.5 -39.5t-41.5 -15.5q-23 0 -37.5 15.5t-14.5 39.5zM117 626 l54 157h85v-24l-98 -133h-41z" />
<glyph unicode="&#xf37e;`" horiz-adv-x="460" d="M120 525l115 -232l20 -74h5l14 76l86 230h106l-147 -365q-37 -92 -70 -128.5t-92 -36.5q-54 0 -81 19l28 80q21 -12 46 -12q40 0 57 63l-207 380h120zM70 703l87 25q14 -77 86 -77q74 0 92 76l71 -22q-11 -59 -55.5 -91t-110.5 -32q-67 0 -113.5 30t-56.5 91zM211 705 l51 151h105v-25l-109 -126h-47z" />
<glyph unicode="&#xf38a;`" horiz-adv-x="489" d="M415 375l-137 -380h-75l-210 530h117l118 -306l17 -92h4l14 93l52 164q28 85 59 116.5t88 31.5q47 0 83 -17l-24 -85q-27 12 -46 12q-35 0 -60 -67zM192 594l57 151h108v-25l-106 -126h-59z" />
<glyph unicode="&#xf3a2;`" horiz-adv-x="478" d="M188 0v193l-184 332h121l106 -200l14 -57h3l15 58l102 199h109l-182 -331v-194h-104zM199 594l57 151h108v-25l-106 -126h-59z" />
<glyph unicode="&#xf3a3;`" horiz-adv-x="478" d="M75 123v71h112l-183 331h121l106 -200l14 -57h3l15 58l102 199h109l-182 -331h113v-71h-113v-123h-104v123h-113zM206 594l57 151h108v-25l-106 -126h-59z" />
<glyph unicode="&#xf3b2;`" horiz-adv-x="490" d="M377 0l-45 115h-182l-43 -115h-102l203 530h74l203 -530h-108zM222 315l-45 -117h131l-45 117l-19 84h-3zM77 703l87 25q14 -77 86 -77q74 0 92 76l71 -22q-11 -59 -55.5 -91t-110.5 -32q-67 0 -113.5 30t-56.5 91zM218 705l51 151h105v-25l-109 -126h-47z" />
<glyph unicode="&#xf3b3;`" horiz-adv-x="490" d="M377 0l-45 115h-182l-43 -115h-102l203 530h74l203 -530h-108zM222 315l-45 -117h131l-45 117l-19 84h-3zM67 682q0 25 15.5 41t41.5 16q23 0 37.5 -16t14.5 -41q0 -24 -14 -39.5t-38 -15.5q-26 0 -41.5 15.5t-15.5 39.5zM309 682q0 25 14.5 41t37.5 16q26 0 41.5 -16 t15.5 -41q0 -24 -15.5 -39.5t-41.5 -15.5q-23 0 -37.5 15.5t-14.5 39.5zM176 626l54 157h85v-24l-98 -133h-41z" />
<glyph unicode="&#xf3b4;`" horiz-adv-x="701" d="M316 402h-4l-25 -69l-81 -124h110v193zM316 0v127h-154l-78 -127h-109l334 525h333v-87h-224v-129h204v-87h-204v-135h228v-87h-330zM323 594l57 151h108v-25l-106 -126h-59z" />
<glyph unicode="&#xf3b5;`" horiz-adv-x="464" d="M74 0v525h331v-87h-227v-129h207v-87h-207v-135h231v-87h-335zM74 703l87 25q14 -77 86 -77q74 0 92 76l71 -22q-11 -59 -55.5 -91t-110.5 -32q-67 0 -113.5 30t-56.5 91zM215 705l51 151h105v-25l-109 -126h-47z" />
<glyph unicode="&#xf3b6;`" horiz-adv-x="533" d="M381 228h-229q-2 -26 -2 -40q1 -43 29 -77t80 -34q120 0 122 151zM54 306h328q-6 72 -40 105.5t-109 33.5q-72 0 -125 -31l-23 84q66 37 164 37q236 0 236 -272q0 -273 -230 -273q-101 0 -155 59.5t-54 164.5q0 48 8 92zM219 594l57 151h108v-25l-106 -126h-59z" />
<glyph unicode="&#xf3b7;`" horiz-adv-x="533" d="M381 228h-229q-2 -26 -2 -40q1 -43 29 -77t80 -34q120 0 122 151zM54 306h328q-6 72 -40 105.5t-109 33.5q-72 0 -125 -31l-23 84q66 37 164 37q236 0 236 -272q0 -273 -230 -273q-101 0 -155 59.5t-54 164.5q0 48 8 92zM86 682q0 25 15.5 41t41.5 16q23 0 37.5 -16 t14.5 -41q0 -24 -14 -39.5t-38 -15.5q-26 0 -41.5 15.5t-15.5 39.5zM328 682q0 25 14.5 41t37.5 16q26 0 41.5 -16t15.5 -41q0 -24 -15.5 -39.5t-41.5 -15.5q-23 0 -37.5 15.5t-14.5 39.5zM195 626l54 157h85v-24l-98 -133h-41z" />
<glyph unicode="&#xf3bb;`" horiz-adv-x="575" d="M397 0v289l8 74h-4l-39 -75l-219 -288h-69v525h104v-282l-8 -76h5l39 77l218 281h69v-525h-104zM143 593v76h308v-76h-308zM242 704l56 151h109v-25l-106 -126h-59z" />
<glyph unicode="&#xf3bc;`" horiz-adv-x="575" d="M397 0v289l8 74h-4l-39 -75l-219 -288h-69v525h104v-282l-8 -76h5l39 77l218 281h69v-525h-104zM118 682q0 25 15.5 41t41.5 16q23 0 37.5 -16t14.5 -41q0 -24 -14 -39.5t-38 -15.5q-26 0 -41.5 15.5t-15.5 39.5zM360 682q0 25 14.5 41t37.5 16q26 0 41.5 -16t15.5 -41 q0 -24 -15.5 -39.5t-41.5 -15.5q-23 0 -37.5 15.5t-14.5 39.5zM227 626l54 157h85v-24l-98 -133h-41z" />
<glyph unicode="&#xf3bd;`" horiz-adv-x="571" d="M48 263q0 130 62 201t175 71q118 0 178 -73t60 -199q0 -130 -62.5 -201.5t-175.5 -71.5q-118 0 -177.5 73t-59.5 200zM157 263q0 -84 32 -133.5t96 -49.5q129 0 129 183q0 82 -31.5 132t-97.5 50q-128 0 -128 -182zM113 682q0 25 15.5 41t41.5 16q23 0 37.5 -16t14.5 -41 q0 -24 -14 -39.5t-38 -15.5q-26 0 -41.5 15.5t-15.5 39.5zM355 682q0 25 14.5 41t37.5 16q26 0 41.5 -16t15.5 -41q0 -24 -15.5 -39.5t-41.5 -15.5q-23 0 -37.5 15.5t-14.5 39.5zM222 626l54 157h85v-24l-98 -133h-41z" />
<glyph unicode="&#xf3be;`" horiz-adv-x="571" d="M48 263q0 130 62 201t175 71q118 0 178 -73t60 -199q0 -130 -62.5 -201.5t-175.5 -71.5q-118 0 -177.5 73t-59.5 200zM285 80q114 0 127 144h-253q7 -68 38.5 -106t87.5 -38zM285 445q-113 0 -126 -141h253q-7 64 -38.5 102.5t-88.5 38.5zM240 594l57 151h108v-25 l-106 -126h-59z" />
<glyph unicode="&#xf3bf;`" horiz-adv-x="571" d="M48 263q0 130 62 201t175 71q118 0 178 -73t60 -199q0 -130 -62.5 -201.5t-175.5 -71.5q-118 0 -177.5 73t-59.5 200zM285 80q114 0 127 144h-253q7 -68 38.5 -106t87.5 -38zM285 445q-113 0 -126 -141h253q-7 64 -38.5 102.5t-88.5 38.5zM109 682q0 25 15.5 41t41.5 16 q23 0 37.5 -16t14.5 -41q0 -24 -14 -39.5t-38 -15.5q-26 0 -41.5 15.5t-15.5 39.5zM351 682q0 25 14.5 41t37.5 16q26 0 41.5 -16t15.5 -41q0 -24 -15.5 -39.5t-41.5 -15.5q-23 0 -37.5 15.5t-14.5 39.5zM218 626l54 157h85v-24l-98 -133h-41z" />
<glyph unicode="&#xf3c0;`" horiz-adv-x="489" d="M118 225v81h218q-7 67 -47 103t-109 36q-71 0 -123 -27l-24 84q69 33 155 33q118 0 185.5 -65t67.5 -207q0 -140 -75.5 -206.5t-193.5 -66.5q-81 0 -141 27l27 87q50 -24 121 -24q67 0 110 35.5t48 109.5h-219zM39 682q0 25 15.5 41t41.5 16q23 0 37.5 -16t14.5 -41 q0 -24 -14 -39.5t-38 -15.5q-26 0 -41.5 15.5t-15.5 39.5zM281 682q0 25 14.5 41t37.5 16q26 0 41.5 -16t15.5 -41q0 -24 -15.5 -39.5t-41.5 -15.5q-23 0 -37.5 15.5t-14.5 39.5zM148 626l54 157h85v-24l-98 -133h-41z" />
<glyph unicode="&#xf3c1;`" horiz-adv-x="460" d="M120 525l115 -232l20 -74h5l14 76l86 230h106l-147 -365q-37 -92 -70 -128.5t-92 -36.5q-54 0 -81 19l28 80q21 -12 46 -12q40 0 57 63l-207 380h120zM87 593v76h308v-76h-308zM186 704l56 151h109v-25l-106 -126h-59z" />
<glyph unicode="&#xf3c2;`" horiz-adv-x="460" d="M120 525l115 -232l20 -74h5l14 76l86 230h106l-147 -365q-37 -92 -70 -128.5t-92 -36.5q-54 0 -81 19l28 80q21 -12 46 -12q40 0 57 63l-207 380h120zM69 682q0 25 15.5 41t41.5 16q23 0 37.5 -16t14.5 -41q0 -24 -14 -39.5t-38 -15.5q-26 0 -41.5 15.5t-15.5 39.5z M311 682q0 25 14.5 41t37.5 16q26 0 41.5 -16t15.5 -41q0 -24 -15.5 -39.5t-41.5 -15.5q-23 0 -37.5 15.5t-14.5 39.5zM178 626l54 157h85v-24l-98 -133h-41z" />
<glyph unicode="&#xf3c3;`" horiz-adv-x="460" d="M120 525l115 -232l20 -74h5l14 76l86 230h106l-147 -365q-37 -92 -70 -128.5t-92 -36.5q-54 0 -81 19l28 80q21 -12 46 -12q40 0 57 63l-207 380h120zM108 596l15 129h93v-16l-53 -113h-55zM275 596l103 129h101v-16l-146 -113h-58zM222 647l58 148h97v-19l-101 -129h-54 z" />
<glyph unicode="&#xf3c6;`" horiz-adv-x="685" d="M507 0v525h104v-525h-104zM74 5v520h104v-188q36 6 66 6q200 0 200 -168q0 -90 -58 -136.5t-168 -46.5q-91 0 -144 13zM231 79q49 0 77.5 24t28.5 69q0 86 -108 86q-33 0 -51 -8v-166q18 -5 53 -5zM162 682q0 25 15.5 41t41.5 16q23 0 37.5 -16t14.5 -41q0 -24 -14 -39.5 t-38 -15.5q-26 0 -41.5 15.5t-15.5 39.5zM404 682q0 25 14.5 41t37.5 16q26 0 41.5 -16t15.5 -41q0 -24 -15.5 -39.5t-41.5 -15.5q-23 0 -37.5 15.5t-14.5 39.5zM271 626l54 157h85v-24l-98 -133h-41z" />
<glyph unicode="&#xf769;&#xf76a;" horiz-adv-x="545" d="M90 0v525h104v-525h-104zM360 169v356h104v-382q0 -66 -32 -109.5t-101 -43.5q-54 0 -93 17l21 87q22 -10 48 -10q31 0 42 21t11 64z" />
<glyph unicode="ff" horiz-adv-x="606" d="M377 413h-184v-413h-102v413h-74v87h74v28q0 94 35.5 136.5t114.5 42.5q58 0 107 -19l-22 -81q-31 13 -67 13q-44 0 -55 -26t-11 -94h184v28q0 94 35.5 136.5t113.5 42.5q70 0 119 -19l-21 -82q-39 14 -80 14q-19 0 -31.5 -5.5t-19 -13.5t-10 -26t-4 -32t-0.5 -43h124 v-87h-124v-413h-102v413z" />
<glyph unicode="fi" horiz-adv-x="546" d="M193 500h282v-500h-102v413h-180v-413h-102v413h-74v87h74v28q0 180 187 180q125 0 191 -39l-30 -81q-55 33 -144 33q-62 0 -82 -28t-20 -93z" />
<glyph unicode="fl" horiz-adv-x="587" d="M369 100v517q-41 9 -90 9q-54 0 -70 -29.5t-16 -96.5h91v-87h-91v-413h-102v413h-74v87h74v28q0 95 44 140t144 45q112 0 192 -19v-551q0 -66 42 -66q29 0 58 11l11 -80q-40 -21 -104 -21q-109 0 -109 113z" />
<glyph unicode="ffi" horiz-adv-x="831" d="M376 413h-183v-413h-102v413h-74v87h74v28q0 94 35.5 136.5t114.5 42.5q58 0 107 -19l-22 -81q-31 13 -67 13q-44 0 -55 -26t-11 -94h183v28q0 180 187 180q125 0 191 -39l-30 -81q-55 33 -144 33q-62 0 -82 -28t-20 -93h282v-500h-102v413h-180v-413h-102v413z" />
<glyph unicode="ffl" horiz-adv-x="873" d="M377 413h-184v-413h-102v413h-74v87h74v28q0 94 35.5 136.5t114.5 42.5q58 0 107 -19l-22 -81q-31 13 -67 13q-44 0 -55 -26t-11 -94h184v28q0 95 44 140t144 45q112 0 192 -19v-551q0 -66 42 -66q29 0 58 11l11 -80q-40 -21 -104 -21q-109 0 -109 113v517q-41 9 -90 9 q-54 0 -70 -29.5t-16 -96.5h91v-87h-91v-413h-102v413z" />
<glyph unicode=" "  horiz-adv-x="261" />
<glyph unicode="&#x09;" horiz-adv-x="261" />
<glyph unicode="&#xa0;" horiz-adv-x="261" />
<glyph unicode="!" horiz-adv-x="300" d="M115 361v339h107v-339l-21 -170h-65zM99 55q0 30 18.5 48t48.5 18q32 0 50.5 -17.5t18.5 -48.5q0 -30 -19 -48t-50 -18q-30 0 -48.5 18t-18.5 48z" />
<glyph unicode="&#x22;" horiz-adv-x="365" d="M221 497v203h94l-33 -203h-61zM90 497v203h94l-33 -203h-61z" />
<glyph unicode="#" d="M256 55l38 161h-98l-38 -161h-86l38 161h-76l18 79h77l28 120h-73l18 78h74l36 152h86l-36 -152h98l36 152h86l-36 -152h74l-20 -78h-73l-28 -120h71l-20 -79h-70l-38 -161h-86zM243 415l-28 -120h98l28 120h-98z" />
<glyph unicode="$" d="M240 -100v87q-109 3 -166 34l32 91q52 -30 134 -35v242q-37 17 -61.5 32t-51 39.5t-40 58t-13.5 76.5q0 78 43 125.5t123 58.5v91h84v-88q79 -3 141 -30l-30 -88q-45 22 -111 27v-220q39 -19 63.5 -34t53 -40t42.5 -58.5t14 -75.5q0 -83 -45 -134.5t-128 -65.5v-93h-84z M392 182q0 37 -25 62t-71 48v-213q96 13 96 103zM179 533q0 -34 22.5 -58t66.5 -47v194q-89 -8 -89 -89z" />
<glyph unicode="%" horiz-adv-x="803" d="M62 542q0 86 44.5 128t119.5 42q76 0 120 -40.5t44 -129.5t-44 -129.5t-120 -40.5t-120 40.5t-44 129.5zM155 542q0 -101 71 -101q36 0 53.5 22.5t17.5 78.5t-17.5 78.5t-53.5 22.5t-53.5 -22.5t-17.5 -78.5zM441 170q0 86 44.5 128t119.5 42q76 0 120 -40.5t44 -129.5 t-44 -129.5t-120 -40.5t-120 40.5t-44 129.5zM534 170q0 -101 71 -101q36 0 53.5 22.5t17.5 78.5t-17.5 78.5t-53.5 22.5t-53.5 -22.5t-17.5 -78.5zM114 40l541 674l60 -51l-541 -676z" />
<glyph unicode="&#x26;" horiz-adv-x="814" d="M107 190q0 74 47 136.5t122 106.5q-58 83 -58 146q0 56 39 95t118 39q81 0 118.5 -35.5t37.5 -87.5q0 -95 -132 -172q71 -116 167 -213q41 45 76 147l77 -38q-13 -35 -41.5 -86.5t-51.5 -80.5q63 -58 116 -86l-58 -74q-55 27 -119 89q-91 -89 -221 -89q-101 0 -169 54.5 t-68 148.5zM504 139q-101 106 -181 231q-57 -43 -85.5 -83.5t-28.5 -90.5q0 -56 42.5 -89t106.5 -33q43 0 83.5 19.5t62.5 45.5zM320 576q0 -50 39 -106q86 55 86 102q0 63 -64 63q-61 0 -61 -59z" />
<glyph unicode="'" horiz-adv-x="234" d="M90 497v203h94l-33 -203h-61z" />
<glyph unicode="(" horiz-adv-x="300" d="M294 -175l-67 -45q-86 90 -126.5 214.5t-40.5 248.5q0 123 41 248t129 221l64 -44q-132 -172 -132 -425q0 -108 33 -222.5t99 -195.5z" />
<glyph unicode=")" horiz-adv-x="300" d="M6 666l67 46q86 -90 126.5 -214.5t40.5 -248.5q0 -123 -41 -248t-129 -221l-64 44q132 171 132 425q0 106 -33.5 220.5t-98.5 196.5z" />
<glyph unicode="*" horiz-adv-x="363" d="M80 690l56 32l26 -44l17 -57l18 56l26 44l55 -30l-27 -47l-47 -46l66 14h52v-64h-49l-63 14l47 -47l25 -41l-55 -31l-26 43l-22 62l-16 -58l-27 -45l-57 32l28 46l44 39l-57 -14h-54v64h54l61 -14l-47 44z" />
<glyph unicode="+" horiz-adv-x="515" d="M41 293v90h170v176h93v-176h170v-90h-170v-176h-93v176h-170z" />
<glyph unicode="," horiz-adv-x="237" d="M46 52q0 28 18.5 45.5t47.5 17.5q36 0 57.5 -25t21.5 -68q0 -71 -36.5 -113t-83.5 -57l-31 45q31 12 50 39.5t20 57.5q-4 -1 -12 -1q-23 0 -37.5 15.5t-14.5 43.5z" />
<glyph unicode="-" horiz-adv-x="360" d="M57 242v92h246v-92h-246z" />
<glyph unicode="." horiz-adv-x="228" d="M46 55q0 30 18.5 48t48.5 18q32 0 50.5 -17.5t18.5 -48.5q0 -30 -19 -48t-50 -18q-30 0 -48.5 18t-18.5 48z" />
<glyph unicode="/" horiz-adv-x="378" d="M-31 -104l361 816l79 -35l-362 -817z" />
<glyph unicode="0" d="M42 350q0 180 60 271.5t175 91.5q122 0 179 -89t57 -274q0 -180 -60.5 -271.5t-175.5 -91.5q-235 0 -235 363zM146 350q0 -276 131 -276q69 0 100.5 67t31.5 209q0 276 -132 276q-68 0 -99.5 -67.5t-31.5 -208.5z" />
<glyph unicode="1" d="M105 0v90h139v445l13 63l-44 -53l-101 -71l-45 62l223 176h53v-622h136v-90h-374z" />
<glyph unicode="2" d="M459 536q0 -158 -209 -412l-51 -42v-4l68 12h206v-90h-408v46q44 46 85.5 95t92 117t81 137t30.5 123q0 47 -26.5 76t-78.5 29q-71 0 -130 -50l-42 73q82 67 195 67q86 0 136.5 -47.5t50.5 -129.5z" />
<glyph unicode="3" d="M237 74q65 0 104.5 37t39.5 95q0 126 -149 126h-74v46l135 197l50 44l-71 -9h-184v90h368v-48l-151 -216l-39 -28v-4l37 6q79 -3 129.5 -54.5t50.5 -140.5q0 -108 -69 -168t-176 -60q-92 0 -155 28l28 87q56 -28 126 -28z" />
<glyph unicode="4" d="M537 290v-84h-114v-206h-98v206h-305v51l325 451h78v-418h114zM325 290v190l10 83h-3l-35 -70l-125 -166l-48 -44l67 7h134z" />
<glyph unicode="5" d="M216 77q68 0 108.5 37t40.5 103q0 131 -163 133l-82 -4v354h326v-96h-235v-170l43 3q98 -2 155.5 -59t57.5 -156q0 -112 -70.5 -173.5t-180.5 -61.5q-84 0 -143 24l27 86q52 -20 116 -20z" />
<glyph unicode="6" d="M504 214q0 -97 -60 -162t-160 -65q-103 0 -165 66.5t-62 188.5q0 193 98 321t246 150l22 -81q-102 -18 -173 -96t-89 -179q47 66 141 66q93 0 147.5 -55t54.5 -154zM402 206q0 130 -123 130q-43 0 -75.5 -20.5t-46.5 -50.5q-2 -16 -2 -39q0 -62 33.5 -107t94.5 -45 q53 0 86 37.5t33 94.5z" />
<glyph unicode="7" d="M209 0h-102l242 565l44 49l-60 -10h-273v96h433v-32z" />
<glyph unicode="8" d="M65 169q0 64 32.5 109t97.5 81q-55 33 -84.5 74t-29.5 100q0 79 55 129.5t147 50.5q86 0 138.5 -45t52.5 -118q0 -58 -26 -100.5t-83 -81.5q61 -36 93 -78.5t32 -106.5q0 -88 -58.5 -142t-158.5 -54q-96 0 -152 51t-56 131zM391 180q0 26 -10.5 47.5t-32 39.5t-40.5 29.5 t-49 27.5q-99 -56 -99 -140q0 -47 31.5 -78.5t85.5 -31.5q50 0 82 27.5t32 78.5zM180 534q0 -47 31 -76t91 -59q76 61 76 130q0 45 -28 71t-69 26q-47 0 -74 -27t-27 -65z" />
<glyph unicode="9" d="M49 485q0 102 58.5 165t164.5 63t166.5 -67.5t60.5 -189.5q0 -217 -96.5 -335t-249.5 -134l-23 81q110 16 177 86t83 174q-25 -29 -55.5 -40.5t-80.5 -11.5q-85 0 -145 55.5t-60 153.5zM151 493q0 -63 34.5 -97.5t90.5 -34.5q88 0 122 54q3 23 3 42q0 71 -33.5 120 t-98.5 49q-56 0 -87 -35t-31 -98z" />
<glyph unicode=":" horiz-adv-x="241" d="M92 440q0 30 18.5 48t48.5 18q32 0 50.5 -17.5t18.5 -48.5q0 -30 -19 -48t-50 -18q-30 0 -48.5 18t-18.5 48zM92 67q0 30 18.5 48t48.5 18q32 0 50.5 -17.5t18.5 -48.5q0 -30 -19 -48t-50 -18q-30 0 -48.5 18t-18.5 48z" />
<glyph unicode=";" horiz-adv-x="247" d="M86 52q0 28 18.5 45.5t47.5 17.5q36 0 57.5 -25t21.5 -68q0 -71 -36.5 -113t-83.5 -57l-31 45q31 12 50 39.5t20 57.5q-4 -1 -12 -1q-23 0 -37.5 15.5t-14.5 43.5zM90 440q0 30 18.5 48t48.5 18q32 0 50.5 -17.5t18.5 -48.5q0 -30 -19 -48t-50 -18q-30 0 -48.5 18 t-18.5 48z" />
<glyph unicode="&#x3c;" horiz-adv-x="515" d="M428 75l-387 221v47l382 231l46 -74l-231 -142l-91 -37l90 -32l237 -141z" />
<glyph unicode="=" horiz-adv-x="515" d="M41 382v90h433v-90h-433zM41 204v90h433v-90h-433z" />
<glyph unicode="&#x3e;" horiz-adv-x="515" d="M87 574l387 -221v-47l-382 -231l-46 74l231 142l91 37l-90 32l-237 141z" />
<glyph unicode="?" horiz-adv-x="444" d="M230 191h-86q-1 9 -1 26q0 48 17 87t40.5 65t47.5 49.5t41 52.5t17 62q0 93 -102 93q-70 0 -136 -45l-37 78q84 54 194 54q89 0 138.5 -45.5t49.5 -119.5q0 -53 -19 -93.5t-45.5 -67.5t-53.5 -52.5t-46 -61.5t-19 -82zM124 55q0 30 18.5 48t48.5 18q32 0 50.5 -17.5 t18.5 -48.5q0 -30 -19 -48t-50 -18q-30 0 -48.5 18t-18.5 48z" />
<glyph unicode="@" horiz-adv-x="1062" d="M662 456l33 32h50l-51 -280q-8 -44 -8 -71q0 -42 39 -42q65 0 115.5 63t50.5 168q0 146 -94 224t-246 78q-161 0 -270.5 -110t-109.5 -277t99.5 -262t273.5 -95q71 0 133 28l24 -78q-73 -34 -172 -34q-128 0 -228 48.5t-160 149t-60 238.5q0 212 138 344t336 132 q186 0 306 -104t120 -282q0 -129 -83 -222t-198 -93q-99 0 -99 90q0 19 2 30h-4q-78 -120 -177 -120q-50 0 -84.5 41.5t-34.5 107.5q0 129 77 232t179 103q53 0 103 -39zM607 228l28 152q-30 31 -71 31q-67 0 -115.5 -73t-48.5 -156q0 -87 68 -87q33 0 72 39.5t67 93.5z" />
<glyph unicode="A" horiz-adv-x="594" d="M477 0l-65 177h-239l-63 -177h-105l259 708h66l260 -708h-113zM269 452l-66 -188h183l-67 189l-24 108h-2z" />
<glyph unicode="B" horiz-adv-x="587" d="M518 539q0 -57 -32.5 -102.5t-96.5 -61.5v-5q66 -11 108 -53t42 -119q0 -69 -39.5 -117.5t-98 -69t-128.5 -20.5q-139 0 -199 14v689q83 15 201 15q243 0 243 -170zM278 81q63 0 105.5 30.5t42.5 86.5q0 115 -166 115h-82v-226q24 -6 100 -6zM178 397h49q48 0 73 4 q48 16 78 45t30 71q0 102 -136 102q-72 0 -94 -5v-217z" />
<glyph unicode="C" horiz-adv-x="566" d="M510 115l23 -86q-56 -42 -178 -42q-64 0 -118.5 21t-97.5 63.5t-67 114t-24 164.5q0 96 27 168.5t72.5 113.5t98.5 61t111 20q102 0 166 -25l-23 -93q-45 22 -134 22q-90 0 -147.5 -65.5t-57.5 -201.5q0 -127 58 -197t158 -70q81 0 133 32z" />
<glyph unicode="D" horiz-adv-x="651" d="M74 -1v701q67 9 194 9q170 0 252.5 -95t82.5 -259q0 -74 -19 -137t-58 -115.5t-108 -82.5t-161 -30q-113 0 -183 9zM274 613q-70 0 -93 -4v-519q26 -4 84 -4q63 0 108.5 22t70 61t35.5 85t11 101q0 49 -10.5 92t-33.5 82t-67 61.5t-105 22.5z" />
<glyph unicode="E" horiz-adv-x="530" d="M74 0v700h396v-94h-289v-202h264v-94h-264v-216h294v-94h-401z" />
<glyph unicode="F" horiz-adv-x="513" d="M74 0v700h396v-94h-289v-212h268v-94h-268v-300h-107z" />
<glyph unicode="G" horiz-adv-x="611" d="M315 293v63h246v-310q-35 -28 -90.5 -43.5t-112.5 -15.5q-140 0 -225 91t-85 272q0 94 27.5 166.5t74.5 114t102 62t115 20.5q99 0 171 -26l-24 -92q-50 22 -136 22q-94 0 -155.5 -64.5t-61.5 -203.5q0 -132 57.5 -199t152.5 -67q64 0 102 25v167z" />
<glyph unicode="H" horiz-adv-x="663" d="M482 0v308h-301v-308h-107v700h107v-296h301v296h107v-700h-107z" />
<glyph unicode="I" horiz-adv-x="287" d="M90 0v700h107v-700h-107z" />
<glyph unicode="J" horiz-adv-x="310" d="M120 196v504h107v-531q0 -83 -38.5 -131.5t-115.5 -48.5q-61 0 -102 19l22 89q25 -12 60 -12q39 0 53 27.5t14 83.5z" />
<glyph unicode="K" horiz-adv-x="615" d="M456 0l-233 313h-42v-313h-107v700h107v-319l39 14l217 305h122l-221 -298l-47 -35l53 -40l246 -327h-134z" />
<glyph unicode="L" horiz-adv-x="516" d="M501 96v-96h-427v700h107v-604h320z" />
<glyph unicode="M" horiz-adv-x="795" d="M614 0v423l12 119h-5l-40 -103l-168 -291h-33l-177 292l-40 102h-5l18 -118v-424h-102v700h90l205 -341l33 -79h3l30 81l195 339h91v-700h-107z" />
<glyph unicode="N" horiz-adv-x="666" d="M523 -8l-302 425l-55 104h-4l14 -104v-417h-102v708h69l304 -425l52 -101h5l-14 101v417h102v-708h-69z" />
<glyph unicode="O" horiz-adv-x="678" d="M48 350q0 174 75.5 268.5t214.5 94.5q145 0 218.5 -97t73.5 -266q0 -174 -76.5 -268.5t-215.5 -94.5q-144 0 -217 97t-73 266zM161 350q0 -118 44.5 -193.5t132.5 -75.5q86 0 132.5 66.5t46.5 202.5q0 118 -44.5 193.5t-134.5 75.5q-84 0 -130.5 -67.5t-46.5 -201.5z" />
<glyph unicode="P" horiz-adv-x="565" d="M74 0v693q69 16 180 16q54 0 99.5 -9.5t88 -32.5t67 -69t24.5 -112q0 -120 -78 -177.5t-193 -57.5q-62 0 -81 4v-255h-107zM259 615q-57 0 -78 -5v-260q15 -5 70 -5q169 0 169 142q0 69 -46 98.5t-115 29.5z" />
<glyph unicode="Q" horiz-adv-x="678" d="M703 -92v-93q-43 -12 -95 -12q-71 0 -190.5 33t-164.5 33q-23 0 -46 -6v93q30 6 58 6q52 0 166 -32t182 -32q46 0 90 10zM48 350q0 174 75.5 268.5t214.5 94.5q145 0 218.5 -97t73.5 -266q0 -174 -76.5 -268.5t-215.5 -94.5q-144 0 -217 97t-73 266zM161 350 q0 -118 44.5 -193.5t132.5 -75.5q86 0 132.5 66.5t46.5 202.5q0 118 -44.5 193.5t-134.5 75.5q-84 0 -130.5 -67.5t-46.5 -201.5z" />
<glyph unicode="R" horiz-adv-x="598" d="M74 0v693q88 16 188 16q68 0 120.5 -17t88.5 -62.5t36 -115.5q0 -81 -42 -134.5t-112 -72.5l48 -35l168 -272h-124l-178 290l-86 14v-304h-107zM267 615q-66 0 -86 -6v-234h69q67 0 105.5 32t38.5 96q0 50 -34 81t-93 31z" />
<glyph unicode="S" horiz-adv-x="530" d="M382 182q0 41 -34 70t-82 49.5t-96 44.5t-82 69.5t-34 109.5q0 90 60.5 139t166.5 49q125 0 195 -36l-33 -91q-58 33 -164 33q-56 0 -86 -24t-30 -62q0 -32 24.5 -58t60.5 -42.5t79 -38.5t79 -45t60.5 -63.5t24.5 -92.5q0 -98 -66 -152t-180 -54q-134 0 -208 39l35 93 q69 -38 168 -38q66 0 104 25.5t38 75.5z" />
<glyph unicode="T" horiz-adv-x="561" d="M546 700v-96h-212v-604h-107v604h-212v96h531z" />
<glyph unicode="U" horiz-adv-x="640" d="M466 257v443h102v-460q0 -127 -63.5 -188.5t-175.5 -61.5q-257 0 -257 233v477h107v-443q0 -94 36 -132.5t114 -38.5q72 0 104.5 40t32.5 131z" />
<glyph unicode="V" horiz-adv-x="583" d="M116 700l161 -450l22 -112h2l24 114l153 448h110l-262 -708h-65l-266 708h121z" />
<glyph unicode="W" horiz-adv-x="843" d="M120 700l111 -434l14 -120h3l16 122l134 432h62l134 -434l15 -120h3l16 122l103 432h108l-194 -708h-67l-134 433l-18 107h-5l-17 -108l-134 -432h-69l-196 708h115z" />
<glyph unicode="X" horiz-adv-x="625" d="M19 0l225 356l-205 344h129l127 -222l24 -63l24 63l133 222h118l-212 -337l222 -363h-127l-142 236l-28 66l-25 -66l-145 -236h-118z" />
<glyph unicode="Y" horiz-adv-x="573" d="M234 0v270l-231 430h127l148 -287l16 -67h2l17 69l142 285h115l-229 -429v-271h-107z" />
<glyph unicode="Z" horiz-adv-x="542" d="M33 0v96l328 468l46 40h-374v96h477v-96l-330 -471l-46 -37h376v-96h-477z" />
<glyph unicode="[" horiz-adv-x="313" d="M74 -230v930h205v-87h-107v-756h107v-87h-205z" />
<glyph unicode="\" horiz-adv-x="399" d="M51 712l365 -816l-80 -36l-367 816z" />
<glyph unicode="]" horiz-adv-x="313" d="M239 700v-930h-205v87h107v756h-107v87h205z" />
<glyph unicode="^" horiz-adv-x="500" d="M35 425l191 283h47l176 -283h-104l-76 129l-22 70l-28 -71l-86 -128h-98z" />
<glyph unicode="_" horiz-adv-x="424" d="M0 -214v87h424v-87h-424z" />
<glyph unicode="`" horiz-adv-x="296" d="M173 720l63 -151h-57l-119 126v25h113z" />
<glyph unicode="a" horiz-adv-x="496" d="M91 390l-29 75q76 44 202 44q96 0 132 -44t36 -119q0 -38 -3.5 -110.5t-3.5 -104.5q0 -80 16 -132h-80l-21 69h-5q-52 -76 -152 -76q-67 0 -109 39.5t-42 104.5q0 156 252 156q30 0 45 -1q3 25 3 45q0 48 -20 67t-71 19q-88 0 -150 -32zM215 77q83 0 114 70v75 q-32 2 -47 2q-143 0 -143 -75q0 -32 21 -52t55 -20z" />
<glyph unicode="b" horiz-adv-x="538" d="M68 26v674h102v-245h4q46 57 132 57q190 0 190 -252q0 -131 -64.5 -200.5t-181.5 -69.5q-116 0 -182 36zM282 425q-85 0 -112 -92v-238q35 -18 90 -18q129 0 129 182q0 166 -107 166z" />
<glyph unicode="c" horiz-adv-x="443" d="M387 110l28 -78q-62 -45 -158 -45q-215 0 -215 263q0 126 57 194.5t163 68.5q86 0 145 -31l-27 -85q-50 26 -105 26q-126 0 -126 -173q0 -76 32.5 -124.5t100.5 -48.5q61 0 105 33z" />
<glyph unicode="d" horiz-adv-x="538" d="M470 700v-526q0 -116 10 -175h-71l-19 68h-4q-20 -36 -58.5 -58t-88.5 -22q-197 0 -197 258q0 127 59.5 196t167.5 69q55 0 99 -16v206h102zM260 74q87 0 108 92v233q-30 24 -90 24q-129 0 -129 -179q0 -170 111 -170z" />
<glyph unicode="e" horiz-adv-x="508" d="M413 111l36 -70q-67 -54 -181 -54t-170 69t-56 194q0 128 59.5 195.5t169.5 67.5q38 0 70.5 -9t61 -29.5t45 -59t17.5 -92.5q0 -49 -7 -92h-312q2 -79 36 -119.5t110 -40.5q34 0 68 12t53 28zM271 429q-112 0 -122 -128h219q0 2 0.5 8t0.5 9q0 55 -26 83t-72 28z" />
<glyph unicode="f" horiz-adv-x="320" d="M17 413v87h74v28q0 94 35.5 136.5t113.5 42.5q70 0 119 -19l-21 -82q-39 14 -80 14q-19 0 -31.5 -5.5t-19 -13.5t-10 -26t-4 -32t-0.5 -43h123v-87h-123v-413h-102v413h-74z" />
<glyph unicode="g" horiz-adv-x="537" d="M469 480v-493q0 -199 -213 -199q-109 0 -167 29l24 83q65 -25 126 -25q74 0 102 30t28 99v41h-4q-38 -55 -129 -55q-99 0 -146.5 62.5t-47.5 192.5q0 129 62.5 197t182.5 68q101 0 182 -30zM260 74q84 0 107 90v243q-35 16 -91 16q-127 0 -127 -176q0 -173 111 -173z" />
<glyph unicode="h" horiz-adv-x="546" d="M485 0h-102v284q0 74 -20.5 106.5t-74.5 32.5q-41 0 -74.5 -27t-43.5 -69v-327h-102v700h102v-256h4q54 69 151 69q84 0 122 -45t38 -162v-306z" />
<glyph unicode="i" horiz-adv-x="269" d="M81 0v500h102v-500h-102zM66 647q0 26 18.5 44t48.5 18t50 -18t20 -44t-19.5 -42.5t-50.5 -16.5q-30 0 -48.5 16.5t-18.5 42.5z" />
<glyph unicode="j" horiz-adv-x="265" d="M81 9v491h102v-524q0 -186 -142 -186q-24 0 -45 4v86h7q47 0 62.5 30t15.5 99zM62 647q0 26 18.5 44t48.5 18t50 -18t20 -44t-19.5 -42.5t-50.5 -16.5q-30 0 -48.5 16.5t-18.5 42.5z" />
<glyph unicode="k" horiz-adv-x="484" d="M358 0l-146 217h-42v-217h-102v700h102v-420l37 14l136 206h115l-138 -196l-45 -35l52 -40l153 -229h-122z" />
<glyph unicode="l" horiz-adv-x="293" d="M177 700v-557q0 -66 42 -66q29 0 58 11l11 -80q-40 -21 -104 -21q-109 0 -109 113v600h102z" />
<glyph unicode="m" horiz-adv-x="809" d="M459 0h-102v278q0 79 -16.5 112t-65.5 33q-39 0 -66 -23.5t-39 -60.5v-339h-102v500h76l15 -63h4q60 76 153 76q96 0 126 -84q50 84 151 84q85 0 120 -45.5t35 -167.5v-300h-102v292q0 71 -16.5 101t-66.5 30q-82 0 -104 -92v-331z" />
<glyph unicode="n" horiz-adv-x="546" d="M485 0h-102v284q0 72 -21 105.5t-72 33.5q-44 0 -76 -24.5t-44 -64.5v-334h-102v500h77l15 -63h4q56 76 160 76q83 0 122 -45.5t39 -161.5v-306z" />
<glyph unicode="o" horiz-adv-x="537" d="M42 250q0 126 59 194.5t167 68.5q112 0 169.5 -70.5t57.5 -192.5q0 -126 -59.5 -194.5t-167.5 -68.5q-112 0 -169 70t-57 193zM149 250q0 -78 29 -127t90 -49q120 0 120 176q0 80 -29 128t-91 48q-119 0 -119 -176z" />
<glyph unicode="p" horiz-adv-x="541" d="M68 -200v700h73l15 -60h4q49 73 145 73q98 0 146 -60.5t48 -191.5q0 -127 -61.5 -200.5t-168.5 -73.5q-56 0 -99 20v-207h-102zM280 426q-86 0 -110 -95v-230q35 -27 90 -27q63 0 97.5 48t34.5 141q0 163 -112 163z" />
<glyph unicode="q" horiz-adv-x="537" d="M469 480v-680h-102v247h-4q-39 -60 -127 -60q-194 0 -194 258q0 129 64.5 197t186.5 68q105 0 176 -30zM260 74q84 0 107 90v243q-33 16 -91 16q-127 0 -127 -176q0 -173 111 -173z" />
<glyph unicode="r" horiz-adv-x="345" d="M339 500l-17 -96q-29 10 -56 10q-38 0 -63 -21t-33 -55v-338h-102v500h76l15 -63h4q37 73 114 73q29 0 62 -10z" />
<glyph unicode="s" horiz-adv-x="422" d="M282 137q0 28 -24 46t-59 29.5t-69.5 27t-58.5 47.5t-24 81q0 71 42 108t120 37q94 0 164 -35l-24 -78q-64 29 -127 29q-73 0 -73 -58q0 -24 24 -40.5t58.5 -28.5t69.5 -27.5t59 -48.5t24 -82q0 -72 -47 -114.5t-135 -42.5q-100 0 -169 41l29 80q67 -37 137 -37 q83 0 83 66z" />
<glyph unicode="t" horiz-adv-x="344" d="M8 413v87h74v97l102 29v-126h130v-87h-130v-240q0 -52 12 -74t42 -22q33 0 77 18l20 -78q-64 -30 -132 -30q-64 0 -92.5 35.5t-28.5 115.5v275h-74z" />
<glyph unicode="u" horiz-adv-x="538" d="M61 500h102v-284q0 -74 18.5 -106.5t67.5 -32.5q43 0 73.5 26t45.5 68v329h102v-354q0 -87 13 -146h-74l-22 77h-4q-53 -90 -161 -90q-83 0 -122 45.5t-39 161.5v306z" />
<glyph unicode="v" horiz-adv-x="480" d="M117 500l108 -279l23 -87h3l20 89l100 277h110l-211 -508h-54l-217 508h118z" />
<glyph unicode="w" horiz-adv-x="729" d="M334 500h75l104 -276l22 -90h3l17 92l78 274h95l-162 -508h-64l-118 307l-16 74h-4l-17 -75l-112 -306h-66l-168 508h111l87 -273l15 -94h3l21 95z" />
<glyph unicode="x" horiz-adv-x="519" d="M19 0l172 256l-160 244h124l81 -124l28 -63l29 63l85 124h112l-161 -240l171 -260h-119l-94 138l-30 66l-31 -66l-94 -138h-113z" />
<glyph unicode="y" horiz-adv-x="471" d="M123 500l108 -305l23 -88h6l18 89l88 304h104l-150 -450q-17 -52 -27.5 -81t-28 -67.5t-33.5 -58t-39 -34t-49 -14.5q-44 0 -69 13l18 87q14 -6 27 -6q63 0 88 111l-204 500h120z" />
<glyph unicode="z" horiz-adv-x="452" d="M37 0v87l216 283l46 43h-262v87h372v-87l-216 -286l-45 -40h261v-87h-372z" />
<glyph unicode="{" horiz-adv-x="357" d="M131 -119v224q0 49 -20 69t-60 20v82q80 0 80 85v228q0 51 25.5 81.5t74.5 30.5h101v-87h-50q-27 0 -39.5 -14t-12.5 -46v-219q0 -41 -20 -65t-50 -29v-8q29 -4 49.5 -31t20.5 -67v-218q0 -31 12.5 -45.5t40.5 -14.5h49v-87h-101q-48 0 -74 28.5t-26 82.5z" />
<glyph unicode="|" horiz-adv-x="233" d="M74 -130v830h85v-830h-85z" />
<glyph unicode="}" horiz-adv-x="357" d="M247 590v-224q0 -49 20 -69t60 -20v-82q-80 0 -80 -85v-228q0 -51 -26 -81.5t-76 -30.5h-99v87h50q27 0 39.5 14t12.5 46v219q0 41 20 65t50 29v8q-29 4 -49.5 31t-20.5 67v218q0 31 -12.5 45.5t-40.5 14.5h-49v87h101q48 0 74 -28.5t26 -82.5z" />
<glyph unicode="~" horiz-adv-x="515" d="M68 291l-38 77q78 63 149 63q38 0 100 -27t90 -27q36 0 76 33l40 -80q-66 -48 -125 -48q-36 0 -93.5 28t-93.5 28q-47 0 -105 -47z" />
<glyph unicode="&#xa1;" horiz-adv-x="299" d="M183 139v-339h-107v339l21 170h65zM61 445q0 30 18.5 48t48.5 18q32 0 50.5 -17.5t18.5 -48.5q0 -30 -19 -48t-50 -18q-30 0 -48.5 18t-18.5 48z" />
<glyph unicode="&#xa2;" d="M446 110l28 -78q-41 -30 -110 -41v-91h-93v88q-185 21 -185 262q0 113 47.5 179.5t137.5 80.5v90h93v-90q60 -6 101 -27l-26 -85q-33 15 -82 22v-342q51 7 89 32zM188 250q0 -140 99 -168v336q-99 -21 -99 -168z" />
<glyph unicode="&#xa3;" d="M46 302v85h67q-30 60 -30 129q0 95 58 146t157 51q111 0 188 -36l-33 -91q-62 33 -148 33q-54 0 -84.5 -28.5t-30.5 -79.5q0 -52 37 -124h152v-85h-114q11 -40 11 -73q0 -72 -40 -115l-41 -34v-4l64 14h244v-90h-457v90q60 1 91.5 38.5t31.5 89.5q0 41 -16 84h-107z" />
<glyph unicode="&#xa4;" d="M14 545l61 62l78 -77l20 -35q41 31 104 31q62 0 104 -31l21 35l78 77l61 -62l-77 -78l-36 -20q30 -41 30 -102q0 -63 -30 -102l36 -19l77 -78l-61 -62l-78 77l-20 35q-42 -31 -105 -31q-62 0 -104 30l-20 -34l-78 -77l-61 62l77 78l35 20q-29 43 -29 101q0 56 30 103 l-36 19zM184 345q0 -42 26 -69.5t67 -27.5t67.5 27.5t26.5 69.5t-26.5 70t-67.5 28t-67 -28t-26 -70z" />
<glyph unicode="&#xa5;" d="M99 263v69h92l-197 368h127l148 -287l16 -67h2l17 69l142 285h115l-197 -368h93v-69h-125v-60h125v-69h-125v-134h-107v134h-126v69h126v60h-126z" />
<glyph unicode="&#xa6;" horiz-adv-x="233" d="M74 0v279h85v-279h-85zM159 700v-279h-85v279h85z" />
<glyph unicode="&#xa7;" horiz-adv-x="512" d="M54 353q0 64 56 113l41 14q-60 36 -60 106q0 57 43.5 92t121.5 35q102 0 170 -32l-26 -84q-60 29 -129 29q-78 0 -78 -51q0 -24 27.5 -39.5t66.5 -26.5t77.5 -26.5t66 -49.5t27.5 -86q0 -63 -55 -112l-45 -14q63 -37 63 -107q0 -61 -46 -94t-121 -33q-100 0 -170 38 l26 80q64 -31 129 -31q80 0 80 52q0 25 -27.5 40.5t-66.5 26.5t-77.5 26t-66 49t-27.5 85zM356 345q0 12 -3.5 22t-11.5 18.5t-15.5 14t-22.5 12t-25 10.5t-29.5 10.5t-30.5 10.5q-62 -31 -62 -88q0 -17 8 -30.5t17 -22t31.5 -18t35 -13.5t43.5 -13q27 14 46 37.5t19 49.5z " />
<glyph unicode="&#xa8;" horiz-adv-x="441" d="M60 652q0 26 16.5 43t42.5 17t42 -17t16 -43q0 -25 -16 -41t-42 -16t-42.5 16t-16.5 41zM264 652q0 26 16 43t42 17q27 0 43 -16.5t16 -43.5q0 -25 -16 -41t-43 -16q-26 0 -42 16t-16 41z" />
<glyph unicode="&#xa9;" horiz-adv-x="818" d="M53 290q0 162 102 259t254 97t254 -97t102 -259t-102 -259t-254 -97q-163 0 -259.5 95.5t-96.5 260.5zM135 290q0 -129 77 -203.5t197 -74.5t197 74.5t77 203.5t-77 203.5t-197 74.5t-197 -74.5t-77 -203.5zM504 201l25 -72q-48 -29 -122 -29q-79 0 -122.5 51t-43.5 139 q0 90 45 140t121 50q54 0 115 -29l-29 -73q-37 18 -69 18q-81 0 -81 -106t88 -106q41 0 73 17z" />
<glyph unicode="&#xaa;" horiz-adv-x="411" d="M88 619l-18 57q64 32 167 32q66 0 92.5 -25.5t26.5 -80.5q0 -25 -1.5 -70t-1.5 -65q0 -54 8 -87h-76l-13 46h-4q-39 -50 -104 -50q-52 0 -83 26.5t-31 70.5q0 111 190 111q4 0 13 -0.5t14 -0.5q1 6 1 17q0 24 -12 34t-44 10q-72 0 -124 -25zM187 442q57 0 80 46v39 q-26 2 -38 2q-89 0 -89 -48q0 -18 12.5 -28.5t34.5 -10.5z" />
<glyph unicode="&#xab;" horiz-adv-x="482" d="M384 44l-162 216l156 223l61 -49l-90 -134l-47 -40l47 -35l96 -133zM200 38l-166 221l160 230l65 -52l-93 -136l-48 -41l48 -36l99 -134z" />
<glyph unicode="&#xac;" horiz-adv-x="515" d="M42 311v90h433v-207h-93v117h-340z" />
<glyph unicode="&#xad;" horiz-adv-x="360" d="M54 242v92h252v-92h-252z" />
<glyph unicode="&#xae;" horiz-adv-x="695" d="M75 451q0 127 78.5 199.5t194.5 72.5q118 0 195 -72.5t77 -199.5t-78 -199.5t-194 -72.5q-118 0 -195.5 72.5t-77.5 199.5zM152 451q0 -96 56 -148t140 -52q88 0 142 51t54 149q0 96 -55.5 148t-140.5 52q-89 0 -142.5 -52.5t-53.5 -147.5zM245 322v259q35 10 100 10 q46 0 74 -19t28 -59q0 -31 -20 -48.5t-51 -19.5l28 -14l70 -109h-61l-68 104l-48 15v-119h-52zM334 546q-29 0 -37 -4v-71h34q61 0 61 40q0 35 -58 35z" />
<glyph unicode="&#xaf;" horiz-adv-x="428" d="M60 574v76h308v-76h-308z" />
<glyph unicode="&#xb0;" horiz-adv-x="430" d="M74 561q0 66 44 109t107 43q65 0 109 -41.5t44 -110.5t-44 -110.5t-109 -41.5q-64 0 -107.5 41.5t-43.5 110.5zM153 561q0 -34 21 -55t51 -21t52 21t22 55t-22 55.5t-52 21.5t-51 -21.5t-21 -55.5z" />
<glyph unicode="&#xb1;" horiz-adv-x="515" d="M41 415v90h170v172h93v-172h170v-90h-170v-115h-93v115h-170zM41 161v90h433v-90h-433z" />
<glyph unicode="&#xb2;" horiz-adv-x="411" d="M337 685q0 -54 -30 -101t-88 -106l-47 -29v-2l58 13h125v-80h-301v50q71 54 132 120.5t61 119.5q0 56 -64 56q-43 0 -95 -29l-27 71q58 39 139 39q66 0 101.5 -32t35.5 -90z" />
<glyph unicode="&#xb3;" horiz-adv-x="411" d="M173 448q92 0 92 65q0 62 -94 62h-49v29l86 100l38 27l-53 -6h-123v75h268v-46l-96 -109l-29 -18v-3l26 3q54 -2 85 -33t31 -85q0 -64 -47.5 -100t-123.5 -36q-62 0 -117 21l18 73q43 -19 88 -19z" />
<glyph unicode="&#xb4;" horiz-adv-x="285" d="M60 569l56 151h109v-25l-106 -126h-59z" />
<glyph unicode="&#xb6;" horiz-adv-x="510" d="M350 -130v830h86v-830h-86zM181 -130v433q-63 0 -106 60t-43 139q0 81 49 139.5t128 58.5h58v-830h-86z" />
<glyph unicode="&#xb7;" horiz-adv-x="261" d="M62 305q0 30 18.5 48t48.5 18q32 0 50.5 -17.5t18.5 -48.5q0 -30 -19 -48t-50 -18q-30 0 -48.5 18t-18.5 48z" />
<glyph unicode="&#xb8;" horiz-adv-x="307" d="M188 0l-24 -43q83 -12 83 -75q0 -42 -35.5 -66.5t-94.5 -24.5q-32 0 -57 5l9 43q7 -1 25 -1q59 0 59 35q0 28 -86 35l52 92h69z" />
<glyph unicode="&#xb9;" horiz-adv-x="411" d="M77 380v78h102v214l8 41l-28 -30l-70 -43l-37 61l156 106h61v-349h92v-78h-284z" />
<glyph unicode="&#xba;" horiz-adv-x="416" d="M44 542q0 86 44.5 128t119.5 42q76 0 120 -40.5t44 -129.5t-44 -129.5t-120 -40.5t-120 40.5t-44 129.5zM137 542q0 -101 71 -101q36 0 53.5 22.5t17.5 78.5t-17.5 78.5t-53.5 22.5t-53.5 -22.5t-17.5 -78.5z" />
<glyph unicode="&#xbb;" horiz-adv-x="482" d="M97 483l163 -216l-157 -223l-61 49l90 134l47 40l-47 35l-95 133zM281 489l167 -221l-160 -230l-65 52l92 136l48 41l-48 36l-98 134z" />
<glyph unicode="&#xbc;" horiz-adv-x="856" d="M158 31l463 683l66 -42l-462 -685zM804 160v-72h-80v-88h-82v88h-206v50l223 294h65v-272h80zM642 160v110l6 51h-3l-22 -48l-65 -87l-35 -32l52 6h67zM163 280v292l8 41l-28 -30l-70 -43l-37 61l156 106h61v-427h-90z" />
<glyph unicode="&#xbd;" horiz-adv-x="874" d="M158 31l463 683l66 -42l-462 -685zM804 305q0 -54 -30 -101t-88 -106l-47 -29v-2l58 13h125v-80h-301v50q71 54 132 120.5t61 119.5q0 56 -64 56q-43 0 -95 -29l-27 71q58 39 139 39q66 0 101.5 -32t35.5 -90zM163 280v292l8 41l-28 -30l-70 -43l-37 61l156 106h61v-427 h-90z" />
<glyph unicode="&#xbe;" horiz-adv-x="889" d="M190 31l463 683l66 -42l-462 -685zM836 160v-72h-80v-88h-82v88h-206v50l223 294h65v-272h80zM674 160v110l6 51h-3l-22 -48l-65 -87l-35 -32l52 6h67zM159 348q92 0 92 65q0 62 -94 62h-49v29l86 100l38 27l-53 -6h-123v75h268v-46l-96 -109l-29 -18v-3l26 3 q54 -2 85 -33t31 -85q0 -64 -47.5 -100t-123.5 -36q-62 0 -117 21l18 73q43 -19 88 -19z" />
<glyph unicode="&#xbf;" horiz-adv-x="444" d="M214 310h86q1 -9 1 -26q0 -48 -17 -87t-40.5 -65t-47.5 -49.5t-41 -52.5t-17 -62q0 -93 102 -93q69 0 136 44l37 -77q-84 -54 -194 -54q-89 0 -138.5 45.5t-49.5 119.5q0 53 19 93.5t45.5 67.5t53.5 52.5t46 61.5t19 82zM185 445q0 30 18.5 48t48.5 18q32 0 50.5 -17.5 t18.5 -48.5q0 -30 -19 -48t-50 -18q-30 0 -48.5 18t-18.5 48z" />
<glyph unicode="&#xc0;" horiz-adv-x="594" d="M477 0l-65 177h-239l-63 -177h-105l259 708h66l260 -708h-113zM269 452l-66 -188h183l-67 189l-24 108h-2zM222 870l112 -118h-88l-158 93v25h134z" />
<glyph unicode="&#xc1;" horiz-adv-x="594" d="M477 0l-65 177h-239l-63 -177h-105l259 708h66l260 -708h-113zM269 452l-66 -188h183l-67 189l-24 108h-2zM264 752l112 118h134v-25l-162 -93h-84z" />
<glyph unicode="&#xc2;" horiz-adv-x="594" d="M477 0l-65 177h-239l-63 -177h-105l259 708h66l260 -708h-113zM269 452l-66 -188h183l-67 189l-24 108h-2zM129 773l133 97h76l127 -98v-29h-89l-59 46l-18 34l-20 -33l-63 -47h-87v30z" />
<glyph unicode="&#xc3;" horiz-adv-x="594" d="M477 0l-65 177h-239l-63 -177h-105l259 708h66l260 -708h-113zM269 452l-66 -188h183l-67 189l-24 108h-2zM149 741l-24 51q55 57 119 57q25 0 73 -16.5t69 -16.5q32 0 55 22l25 -54q-49 -45 -105 -45q-28 0 -76.5 17t-67.5 17q-37 0 -68 -32z" />
<glyph unicode="&#xc4;" horiz-adv-x="594" d="M477 0l-65 177h-239l-63 -177h-105l259 708h66l260 -708h-113zM269 452l-66 -188h183l-67 189l-24 108h-2zM135 796q0 24 17 38t47 14q29 0 45.5 -14t16.5 -38t-16 -37.5t-46 -13.5t-47 13.5t-17 37.5zM337 796q0 24 16.5 38t45.5 14q31 0 47.5 -14t16.5 -38t-16.5 -37.5 t-47.5 -13.5q-29 0 -45.5 14t-16.5 37z" />
<glyph unicode="&#xc5;" horiz-adv-x="594" d="M183 770q0 87 115 87q116 0 116 -87q0 -68 -77 -82l253 -688h-113l-65 177h-239l-63 -177h-105l252 688q-74 15 -74 82zM269 452l-66 -188h183l-67 189l-24 108h-2zM254 770q0 -36 44 -36q45 0 45 36q0 38 -45 38q-44 0 -44 -38z" />
<glyph unicode="&#xc6;" horiz-adv-x="853" d="M397 570h-5l-34 -103l-111 -195h150v298zM397 0v185h-201l-106 -185h-115l419 700h399v-94h-289v-202h264v-94h-264v-216h294v-94h-401z" />
<glyph unicode="&#xc7;" horiz-adv-x="566" d="M510 115l23 -86q-48 -37 -147 -42l-17 -30q83 -12 83 -75q0 -42 -35.5 -66.5t-94.5 -24.5q-32 0 -57 5l9 43q7 -1 25 -1q59 0 59 35q0 28 -86 35l46 80q-121 12 -195.5 102t-74.5 260q0 96 27 168.5t72.5 113.5t98.5 61t111 20q102 0 166 -25l-23 -93q-45 22 -134 22 q-90 0 -147.5 -65.5t-57.5 -201.5q0 -127 58 -197t158 -70q81 0 133 32z" />
<glyph unicode="&#xc8;" horiz-adv-x="530" d="M74 0v700h396v-94h-289v-202h264v-94h-264v-216h294v-94h-401zM226 870l112 -118h-88l-158 93v25h134z" />
<glyph unicode="&#xc9;" horiz-adv-x="530" d="M74 0v700h396v-94h-289v-202h264v-94h-264v-216h294v-94h-401zM202 752l112 118h134v-25l-162 -93h-84z" />
<glyph unicode="&#xca;" horiz-adv-x="530" d="M74 0v700h396v-94h-289v-202h264v-94h-264v-216h294v-94h-401zM99 773l133 97h76l127 -98v-29h-89l-59 46l-18 34l-20 -33l-63 -47h-87v30z" />
<glyph unicode="&#xcb;" horiz-adv-x="530" d="M74 0v700h396v-94h-289v-202h264v-94h-264v-216h294v-94h-401zM104 796q0 24 17 38t47 14q29 0 45.5 -14t16.5 -38t-16 -37.5t-46 -13.5t-47 13.5t-17 37.5zM306 796q0 24 16.5 38t45.5 14q31 0 47.5 -14t16.5 -38t-16.5 -37.5t-47.5 -13.5q-29 0 -45.5 14t-16.5 37z" />
<glyph unicode="&#xcc;" horiz-adv-x="287" d="M90 0v700h107v-700h-107zM90 870l112 -118h-88l-158 93v25h134z" />
<glyph unicode="&#xcd;" horiz-adv-x="287" d="M90 0v700h107v-700h-107zM90 752l112 118h134v-25l-162 -93h-84z" />
<glyph unicode="&#xce;" horiz-adv-x="287" d="M90 0v700h107v-700h-107zM-25 773l133 97h76l127 -98v-29h-89l-59 46l-18 34l-20 -33l-63 -47h-87v30z" />
<glyph unicode="&#xcf;" horiz-adv-x="287" d="M90 0v700h107v-700h-107zM-19 796q0 24 17 38t47 14q29 0 45.5 -14t16.5 -38t-16 -37.5t-46 -13.5t-47 13.5t-17 37.5zM183 796q0 24 16.5 38t45.5 14q31 0 47.5 -14t16.5 -38t-16.5 -37.5t-47.5 -13.5q-29 0 -45.5 14t-16.5 37z" />
<glyph unicode="&#xd0;" horiz-adv-x="663" d="M-3 327v69h89v304q67 9 194 9q170 0 252.5 -95t82.5 -259q0 -74 -19 -137t-58 -115.5t-108 -82.5t-161 -30q-113 0 -183 9v328h-89zM286 613q-70 0 -93 -4v-213h144v-69h-144v-237q26 -4 84 -4q63 0 108.5 22t70 61t35.5 85t11 101q0 49 -10.5 92t-33.5 82t-67 61.5 t-105 22.5z" />
<glyph unicode="&#xd1;" horiz-adv-x="666" d="M523 -8l-302 425l-55 104h-4l14 -104v-417h-102v708h69l304 -425l52 -101h5l-14 101v417h102v-708h-69zM185 741l-24 51q55 57 119 57q25 0 73 -16.5t69 -16.5q32 0 55 22l25 -54q-49 -45 -105 -45q-28 0 -76.5 17t-67.5 17q-37 0 -68 -32z" />
<glyph unicode="&#xd2;" horiz-adv-x="678" d="M48 350q0 174 75.5 268.5t214.5 94.5q145 0 218.5 -97t73.5 -266q0 -174 -76.5 -268.5t-215.5 -94.5q-144 0 -217 97t-73 266zM161 350q0 -118 44.5 -193.5t132.5 -75.5q86 0 132.5 66.5t46.5 202.5q0 118 -44.5 193.5t-134.5 75.5q-84 0 -130.5 -67.5t-46.5 -201.5z M299 870l112 -118h-88l-158 93v25h134z" />
<glyph unicode="&#xd3;" horiz-adv-x="678" d="M48 350q0 174 75.5 268.5t214.5 94.5q145 0 218.5 -97t73.5 -266q0 -174 -76.5 -268.5t-215.5 -94.5q-144 0 -217 97t-73 266zM161 350q0 -118 44.5 -193.5t132.5 -75.5q86 0 132.5 66.5t46.5 202.5q0 118 -44.5 193.5t-134.5 75.5q-84 0 -130.5 -67.5t-46.5 -201.5z M282 752l112 118h134v-25l-162 -93h-84z" />
<glyph unicode="&#xd4;" horiz-adv-x="678" d="M48 350q0 174 75.5 268.5t214.5 94.5q145 0 218.5 -97t73.5 -266q0 -174 -76.5 -268.5t-215.5 -94.5q-144 0 -217 97t-73 266zM161 350q0 -118 44.5 -193.5t132.5 -75.5q86 0 132.5 66.5t46.5 202.5q0 118 -44.5 193.5t-134.5 75.5q-84 0 -130.5 -67.5t-46.5 -201.5z M168 773l133 97h76l127 -98v-29h-89l-59 46l-18 34l-20 -33l-63 -47h-87v30z" />
<glyph unicode="&#xd5;" horiz-adv-x="678" d="M48 350q0 174 75.5 268.5t214.5 94.5q145 0 218.5 -97t73.5 -266q0 -174 -76.5 -268.5t-215.5 -94.5q-144 0 -217 97t-73 266zM161 350q0 -118 44.5 -193.5t132.5 -75.5q86 0 132.5 66.5t46.5 202.5q0 118 -44.5 193.5t-134.5 75.5q-84 0 -130.5 -67.5t-46.5 -201.5z M189 741l-24 51q55 57 119 57q25 0 73 -16.5t69 -16.5q32 0 55 22l25 -54q-49 -45 -105 -45q-28 0 -76.5 17t-67.5 17q-37 0 -68 -32z" />
<glyph unicode="&#xd6;" horiz-adv-x="678" d="M48 350q0 174 75.5 268.5t214.5 94.5q145 0 218.5 -97t73.5 -266q0 -174 -76.5 -268.5t-215.5 -94.5q-144 0 -217 97t-73 266zM161 350q0 -118 44.5 -193.5t132.5 -75.5q86 0 132.5 66.5t46.5 202.5q0 118 -44.5 193.5t-134.5 75.5q-84 0 -130.5 -67.5t-46.5 -201.5z M172 796q0 24 17 38t47 14q29 0 45.5 -14t16.5 -38t-16 -37.5t-46 -13.5t-47 13.5t-17 37.5zM374 796q0 24 16.5 38t45.5 14q31 0 47.5 -14t16.5 -38t-16.5 -37.5t-47.5 -13.5q-29 0 -45.5 14t-16.5 37z" />
<glyph unicode="&#xd7;" horiz-adv-x="515" d="M67 465l63 65l128 -128l129 128l63 -65l-128 -126l128 -128l-63 -65l-129 128l-129 -129l-64 64l130 130z" />
<glyph unicode="&#xd8;" horiz-adv-x="678" d="M48 350q0 174 75.5 268.5t214.5 94.5q101 0 168 -49l34 50l67 -42l-44 -65q67 -94 67 -257q0 -174 -76.5 -268.5t-215.5 -94.5q-96 0 -163 45l-30 -45l-67 44l39 58q-69 95 -69 261zM161 350q0 -93 26 -158l260 384q-45 43 -109 43q-84 0 -130.5 -67.5t-46.5 -201.5z M517 350q0 88 -24 152l-258 -382q41 -39 103 -39q86 0 132.5 66.5t46.5 202.5z" />
<glyph unicode="&#xd9;" horiz-adv-x="640" d="M466 257v443h102v-460q0 -127 -63.5 -188.5t-175.5 -61.5q-257 0 -257 233v477h107v-443q0 -94 36 -132.5t114 -38.5q72 0 104.5 40t32.5 131zM290 870l112 -118h-88l-158 93v25h134z" />
<glyph unicode="&#xda;" horiz-adv-x="640" d="M466 257v443h102v-460q0 -127 -63.5 -188.5t-175.5 -61.5q-257 0 -257 233v477h107v-443q0 -94 36 -132.5t114 -38.5q72 0 104.5 40t32.5 131zM267 752l112 118h134v-25l-162 -93h-84z" />
<glyph unicode="&#xdb;" horiz-adv-x="640" d="M466 257v443h102v-460q0 -127 -63.5 -188.5t-175.5 -61.5q-257 0 -257 233v477h107v-443q0 -94 36 -132.5t114 -38.5q72 0 104.5 40t32.5 131zM156 773l133 97h76l127 -98v-29h-89l-59 46l-18 34l-20 -33l-63 -47h-87v30z" />
<glyph unicode="&#xdc;" horiz-adv-x="640" d="M466 257v443h102v-460q0 -127 -63.5 -188.5t-175.5 -61.5q-257 0 -257 233v477h107v-443q0 -94 36 -132.5t114 -38.5q72 0 104.5 40t32.5 131zM158 796q0 24 17 38t47 14q29 0 45.5 -14t16.5 -38t-16 -37.5t-46 -13.5t-47 13.5t-17 37.5zM360 796q0 24 16.5 38t45.5 14 q31 0 47.5 -14t16.5 -38t-16.5 -37.5t-47.5 -13.5q-29 0 -45.5 14t-16.5 37z" />
<glyph unicode="&#xdd;" horiz-adv-x="573" d="M234 0v270l-231 430h127l148 -287l16 -67h2l17 69l142 285h115l-229 -429v-271h-107zM230 752l112 118h134v-25l-162 -93h-84z" />
<glyph unicode="&#xde;" horiz-adv-x="565" d="M74 0v800h107v-93q48 2 73 2q54 0 99.5 -9.5t88 -32.5t67 -69t24.5 -112q0 -120 -78 -177.5t-193 -57.5q-62 0 -81 4v-255h-107zM259 615q-57 0 -78 -5v-260q15 -5 70 -5q169 0 169 142q0 69 -46 98.5t-115 29.5z" />
<glyph unicode="&#xdf;" horiz-adv-x="609" d="M385 549q0 29 -29.5 50t-64.5 21q-53 0 -75.5 -27.5t-22.5 -98.5v-494h-102v413h-74v87h74v13q0 194 196 194q90 0 145 -42t55 -110q0 -34 -18.5 -61.5t-40 -42t-40 -33.5t-18.5 -40q0 -22 21 -37t50.5 -26t59 -26t50.5 -47t21 -80q0 -71 -48.5 -123t-135.5 -52 q-82 0 -139 34l29 79q19 -11 29.5 -16t29 -9t42.5 -4q37 0 64 25t27 62q0 28 -21 47t-50.5 30.5t-59 25t-50.5 40.5t-21 68q0 36 18.5 64t40 42t40 33.5t18.5 40.5z" />
<glyph unicode="&#xe0;" horiz-adv-x="496" d="M91 390l-29 75q76 44 202 44q96 0 132 -44t36 -119q0 -38 -3.5 -110.5t-3.5 -104.5q0 -80 16 -132h-80l-21 69h-5q-52 -76 -152 -76q-67 0 -109 39.5t-42 104.5q0 156 252 156q30 0 45 -1q3 25 3 45q0 48 -20 67t-71 19q-88 0 -150 -32zM215 77q83 0 114 70v75 q-32 2 -47 2q-143 0 -143 -75q0 -32 21 -52t55 -20zM245 720l63 -151h-57l-119 126v25h113z" />
<glyph unicode="&#xe1;" horiz-adv-x="496" d="M91 390l-29 75q76 44 202 44q96 0 132 -44t36 -119q0 -38 -3.5 -110.5t-3.5 -104.5q0 -80 16 -132h-80l-21 69h-5q-52 -76 -152 -76q-67 0 -109 39.5t-42 104.5q0 156 252 156q30 0 45 -1q3 25 3 45q0 48 -20 67t-71 19q-88 0 -150 -32zM215 77q83 0 114 70v75 q-32 2 -47 2q-143 0 -143 -75q0 -32 21 -52t55 -20zM181 569l56 151h109v-25l-106 -126h-59z" />
<glyph unicode="&#xe2;" horiz-adv-x="496" d="M91 390l-29 75q76 44 202 44q96 0 132 -44t36 -119q0 -38 -3.5 -110.5t-3.5 -104.5q0 -80 16 -132h-80l-21 69h-5q-52 -76 -152 -76q-67 0 -109 39.5t-42 104.5q0 156 252 156q30 0 45 -1q3 25 3 45q0 48 -20 67t-71 19q-88 0 -150 -32zM215 77q83 0 114 70v75 q-32 2 -47 2q-143 0 -143 -75q0 -32 21 -52t55 -20zM106 550l123 182h56l111 -182h-86l-39 66l-19 54l-20 -54l-45 -66h-81z" />
<glyph unicode="&#xe3;" horiz-adv-x="496" d="M91 390l-29 75q76 44 202 44q96 0 132 -44t36 -119q0 -38 -3.5 -110.5t-3.5 -104.5q0 -80 16 -132h-80l-21 69h-5q-52 -76 -152 -76q-67 0 -109 39.5t-42 104.5q0 156 252 156q30 0 45 -1q3 25 3 45q0 48 -20 67t-71 19q-88 0 -150 -32zM215 77q83 0 114 70v75 q-32 2 -47 2q-143 0 -143 -75q0 -32 21 -52t55 -20zM120 605l-21 52q52 60 105 60q25 0 66 -20t62 -20q22 0 47 25l22 -55q-48 -54 -96 -54q-24 0 -64 20.5t-57 20.5q-35 0 -64 -29z" />
<glyph unicode="&#xe4;" horiz-adv-x="496" d="M91 390l-29 75q76 44 202 44q96 0 132 -44t36 -119q0 -38 -3.5 -110.5t-3.5 -104.5q0 -80 16 -132h-80l-21 69h-5q-52 -76 -152 -76q-67 0 -109 39.5t-42 104.5q0 156 252 156q30 0 45 -1q3 25 3 45q0 48 -20 67t-71 19q-88 0 -150 -32zM215 77q83 0 114 70v75 q-32 2 -47 2q-143 0 -143 -75q0 -32 21 -52t55 -20zM91 652q0 26 16.5 43t42.5 17t42 -17t16 -43q0 -25 -16 -41t-42 -16t-42.5 16t-16.5 41zM295 652q0 26 16 43t42 17q27 0 43 -16.5t16 -43.5q0 -25 -16 -41t-43 -16q-26 0 -42 16t-16 41z" />
<glyph unicode="&#xe5;" horiz-adv-x="496" d="M91 390l-29 75q76 44 202 44q96 0 132 -44t36 -119q0 -38 -3.5 -110.5t-3.5 -104.5q0 -80 16 -132h-80l-21 69h-5q-52 -76 -152 -76q-67 0 -109 39.5t-42 104.5q0 156 252 156q30 0 45 -1q3 25 3 45q0 48 -20 67t-71 19q-88 0 -150 -32zM215 77q83 0 114 70v75 q-32 2 -47 2q-143 0 -143 -75q0 -32 21 -52t55 -20zM149 645q0 42 28 67.5t75 25.5t75.5 -24t28.5 -69q0 -40 -29 -66t-75 -26q-47 0 -75 25t-28 67zM211 645q0 -17 12 -27.5t29 -10.5q42 0 42 38q0 19 -12 29t-30 10t-29.5 -10t-11.5 -29z" />
<glyph unicode="&#xe6;" horiz-adv-x="791" d="M215 77q83 0 114 70v75q-24 2 -38 2q-72 -1 -112 -17t-40 -58q0 -32 21 -52t55 -20zM366 80h-7q-65 -88 -176 -88q-67 0 -109 39.5t-42 104.5q0 157 245 157q18 0 52 -2q3 25 3 45q0 48 -20 67t-71 19q-85 0 -150 -35l-29 75q81 47 202 47q100 0 135 -60q24 31 66 47.5 t89 16.5q38 0 70.5 -9.5t61.5 -30t45.5 -59t16.5 -92.5q0 -48 -7 -91h-313q2 -79 36.5 -119.5t110.5 -40.5q34 0 68 12t53 28l36 -70q-68 -54 -181 -54q-62 0 -111 24.5t-74 68.5zM554 429q-113 0 -123 -128h220v16q0 55 -25.5 83.5t-71.5 28.5z" />
<glyph unicode="&#xe7;" horiz-adv-x="443" d="M387 110l28 -78q-47 -35 -118 -43l-18 -32q83 -12 83 -75q0 -42 -35.5 -66.5t-94.5 -24.5q-32 0 -57 5l9 43q7 -1 25 -1q59 0 59 35q0 28 -86 35l45 79q-185 17 -185 263q0 126 57 194.5t163 68.5q86 0 145 -31l-27 -85q-50 26 -105 26q-126 0 -126 -173 q0 -76 32.5 -124.5t100.5 -48.5q61 0 105 33z" />
<glyph unicode="&#xe8;" horiz-adv-x="508" d="M413 111l36 -70q-67 -54 -181 -54t-170 69t-56 194q0 128 59.5 195.5t169.5 67.5q38 0 70.5 -9t61 -29.5t45 -59t17.5 -92.5q0 -49 -7 -92h-312q2 -79 36 -119.5t110 -40.5q34 0 68 12t53 28zM271 429q-112 0 -122 -128h219q0 2 0.5 8t0.5 9q0 55 -26 83t-72 28zM267 720 l63 -151h-57l-119 126v25h113z" />
<glyph unicode="&#xe9;" horiz-adv-x="508" d="M413 111l36 -70q-67 -54 -181 -54t-170 69t-56 194q0 128 59.5 195.5t169.5 67.5q38 0 70.5 -9t61 -29.5t45 -59t17.5 -92.5q0 -49 -7 -92h-312q2 -79 36 -119.5t110 -40.5q34 0 68 12t53 28zM271 429q-112 0 -122 -128h219q0 2 0.5 8t0.5 9q0 55 -26 83t-72 28zM227 569 l56 151h109v-25l-106 -126h-59z" />
<glyph unicode="&#xea;" horiz-adv-x="508" d="M413 111l36 -70q-67 -54 -181 -54t-170 69t-56 194q0 128 59.5 195.5t169.5 67.5q38 0 70.5 -9t61 -29.5t45 -59t17.5 -92.5q0 -49 -7 -92h-312q2 -79 36 -119.5t110 -40.5q34 0 68 12t53 28zM271 429q-112 0 -122 -128h219q0 2 0.5 8t0.5 9q0 55 -26 83t-72 28zM112 550 l123 182h56l111 -182h-86l-39 66l-19 54l-20 -54l-45 -66h-81z" />
<glyph unicode="&#xeb;" horiz-adv-x="508" d="M413 111l36 -70q-67 -54 -181 -54t-170 69t-56 194q0 128 59.5 195.5t169.5 67.5q38 0 70.5 -9t61 -29.5t45 -59t17.5 -92.5q0 -49 -7 -92h-312q2 -79 36 -119.5t110 -40.5q34 0 68 12t53 28zM271 429q-112 0 -122 -128h219q0 2 0.5 8t0.5 9q0 55 -26 83t-72 28zM102 652 q0 26 16.5 43t42.5 17t42 -17t16 -43q0 -25 -16 -41t-42 -16t-42.5 16t-16.5 41zM306 652q0 26 16 43t42 17q27 0 43 -16.5t16 -43.5q0 -25 -16 -41t-43 -16q-26 0 -42 16t-16 41z" />
<glyph unicode="&#xec;" horiz-adv-x="269" d="M83 0v500h102v-500h-102zM118 720l63 -151h-57l-119 126v25h113z" />
<glyph unicode="&#xed;" horiz-adv-x="269" d="M83 0v500h102v-500h-102zM84 569l56 151h109v-25l-106 -126h-59z" />
<glyph unicode="&#xee;" horiz-adv-x="269" d="M83 0v500h102v-500h-102zM-15 550l123 182h56l111 -182h-86l-39 66l-19 54l-20 -54l-45 -66h-81z" />
<glyph unicode="&#xef;" horiz-adv-x="269" d="M83 0v500h102v-500h-102zM-29 652q0 26 16.5 43t42.5 17t42 -17t16 -43q0 -25 -16 -41t-42 -16t-42.5 16t-16.5 41zM175 652q0 26 16 43t42 17q27 0 43 -16.5t16 -43.5q0 -25 -16 -41t-43 -16q-26 0 -42 16t-16 41z" />
<glyph unicode="&#xf0;" horiz-adv-x="562" d="M256 539l-55 23l34 69q-34 9 -77 9h-19v73h18q61 0 113 -12l31 63l54 -25l-28 -57q187 -79 187 -376q0 -160 -64.5 -239.5t-170.5 -79.5q-115 0 -173.5 72.5t-58.5 188.5q0 109 62.5 183t165.5 74q41 0 78 -12.5t53 -31.5q-24 103 -115 149zM149 247q0 -84 37 -128.5 t99 -44.5q59 0 95 52.5t36 158.5q0 54 -7 81q-16 24 -50.5 38t-71.5 14q-68 0 -103 -47.5t-35 -123.5z" />
<glyph unicode="&#xf1;" horiz-adv-x="546" d="M485 0h-102v284q0 72 -21 105.5t-72 33.5q-44 0 -76 -24.5t-44 -64.5v-334h-102v500h77l15 -63h4q56 76 160 76q83 0 122 -45.5t39 -161.5v-306zM143 605l-21 52q52 60 105 60q25 0 66 -20t62 -20q22 0 47 25l22 -55q-48 -54 -96 -54q-24 0 -64 20.5t-57 20.5 q-35 0 -64 -29z" />
<glyph unicode="&#xf2;" horiz-adv-x="537" d="M42 250q0 126 59 194.5t167 68.5q112 0 169.5 -70.5t57.5 -192.5q0 -126 -59.5 -194.5t-167.5 -68.5q-112 0 -169 70t-57 193zM149 250q0 -78 29 -127t90 -49q120 0 120 176q0 80 -29 128t-91 48q-119 0 -119 -176zM260 720l63 -151h-57l-119 126v25h113z" />
<glyph unicode="&#xf3;" horiz-adv-x="537" d="M42 250q0 126 59 194.5t167 68.5q112 0 169.5 -70.5t57.5 -192.5q0 -126 -59.5 -194.5t-167.5 -68.5q-112 0 -169 70t-57 193zM149 250q0 -78 29 -127t90 -49q120 0 120 176q0 80 -29 128t-91 48q-119 0 -119 -176zM224 569l56 151h109v-25l-106 -126h-59z" />
<glyph unicode="&#xf4;" horiz-adv-x="537" d="M42 250q0 126 59 194.5t167 68.5q112 0 169.5 -70.5t57.5 -192.5q0 -126 -59.5 -194.5t-167.5 -68.5q-112 0 -169 70t-57 193zM149 250q0 -78 29 -127t90 -49q120 0 120 176q0 80 -29 128t-91 48q-119 0 -119 -176zM123 550l123 182h56l111 -182h-86l-39 66l-19 54 l-20 -54l-45 -66h-81z" />
<glyph unicode="&#xf5;" horiz-adv-x="537" d="M42 250q0 126 59 194.5t167 68.5q112 0 169.5 -70.5t57.5 -192.5q0 -126 -59.5 -194.5t-167.5 -68.5q-112 0 -169 70t-57 193zM149 250q0 -78 29 -127t90 -49q120 0 120 176q0 80 -29 128t-91 48q-119 0 -119 -176zM139 605l-21 52q52 60 105 60q25 0 66 -20t62 -20 q22 0 47 25l22 -55q-48 -54 -96 -54q-24 0 -64 20.5t-57 20.5q-35 0 -64 -29z" />
<glyph unicode="&#xf6;" horiz-adv-x="537" d="M42 250q0 126 59 194.5t167 68.5q112 0 169.5 -70.5t57.5 -192.5q0 -126 -59.5 -194.5t-167.5 -68.5q-112 0 -169 70t-57 193zM149 250q0 -78 29 -127t90 -49q120 0 120 176q0 80 -29 128t-91 48q-119 0 -119 -176zM108 652q0 26 16.5 43t42.5 17t42 -17t16 -43 q0 -25 -16 -41t-42 -16t-42.5 16t-16.5 41zM312 652q0 26 16 43t42 17q27 0 43 -16.5t16 -43.5q0 -25 -16 -41t-43 -16q-26 0 -42 16t-16 41z" />
<glyph unicode="&#xf7;" horiz-adv-x="515" d="M41 293v90h433v-90h-433zM191 525q0 30 18.5 48t48.5 18q32 0 50.5 -17.5t18.5 -48.5q0 -30 -19 -48t-50 -18q-30 0 -48.5 18t-18.5 48zM191 146q0 30 18.5 48t48.5 18q32 0 50.5 -17.5t18.5 -48.5q0 -30 -19 -48t-50 -18q-30 0 -48.5 18t-18.5 48z" />
<glyph unicode="&#xf8;" horiz-adv-x="537" d="M41 250q0 126 59.5 194.5t167.5 68.5q67 0 116 -27l25 34l64 -47l-29 -40q50 -68 50 -183q0 -126 -59 -194.5t-167 -68.5q-71 0 -122 30l-26 -36l-66 48l32 44q-45 65 -45 177zM387 250q0 61 -13 97l-178 -248q28 -25 72 -25q119 0 119 176zM148 250q0 -54 11 -90 l176 245q-29 21 -67 21q-120 0 -120 -176z" />
<glyph unicode="&#xf9;" horiz-adv-x="538" d="M61 500h102v-284q0 -74 18.5 -106.5t67.5 -32.5q43 0 73.5 26t45.5 68v329h102v-354q0 -87 13 -146h-74l-22 77h-4q-53 -90 -161 -90q-83 0 -122 45.5t-39 161.5v306zM249 720l63 -151h-57l-119 126v25h113z" />
<glyph unicode="&#xfa;" horiz-adv-x="538" d="M61 500h102v-284q0 -74 18.5 -106.5t67.5 -32.5q43 0 73.5 26t45.5 68v329h102v-354q0 -87 13 -146h-74l-22 77h-4q-53 -90 -161 -90q-83 0 -122 45.5t-39 161.5v306zM218 569l56 151h109v-25l-106 -126h-59z" />
<glyph unicode="&#xfb;" horiz-adv-x="538" d="M61 500h102v-284q0 -74 18.5 -106.5t67.5 -32.5q43 0 73.5 26t45.5 68v329h102v-354q0 -87 13 -146h-74l-22 77h-4q-53 -90 -161 -90q-83 0 -122 45.5t-39 161.5v306zM124 550l123 182h56l111 -182h-86l-39 66l-19 54l-20 -54l-45 -66h-81z" />
<glyph unicode="&#xfc;" horiz-adv-x="538" d="M61 500h102v-284q0 -74 18.5 -106.5t67.5 -32.5q43 0 73.5 26t45.5 68v329h102v-354q0 -87 13 -146h-74l-22 77h-4q-53 -90 -161 -90q-83 0 -122 45.5t-39 161.5v306zM108 652q0 26 16.5 43t42.5 17t42 -17t16 -43q0 -25 -16 -41t-42 -16t-42.5 16t-16.5 41zM312 652 q0 26 16 43t42 17q27 0 43 -16.5t16 -43.5q0 -25 -16 -41t-43 -16q-26 0 -42 16t-16 41z" />
<glyph unicode="&#xfd;" horiz-adv-x="471" d="M123 500l108 -305l23 -88h6l18 89l88 304h104l-150 -450q-17 -52 -27.5 -81t-28 -67.5t-33.5 -58t-39 -34t-49 -14.5q-44 0 -69 13l18 87q14 -6 27 -6q63 0 88 111l-204 500h120zM211 569l56 151h109v-25l-106 -126h-59z" />
<glyph unicode="&#xfe;" horiz-adv-x="541" d="M68 -200v900h102v-247h4q44 60 131 60q98 0 146 -60.5t48 -191.5q0 -127 -61.5 -200.5t-168.5 -73.5q-56 0 -99 20v-207h-102zM280 426q-86 0 -110 -95v-230q35 -27 90 -27q63 0 97.5 48t34.5 141q0 163 -112 163z" />
<glyph unicode="&#xff;" horiz-adv-x="471" d="M123 500l108 -305l23 -88h6l18 89l88 304h104l-150 -450q-17 -52 -27.5 -81t-28 -67.5t-33.5 -58t-39 -34t-49 -14.5q-44 0 -69 13l18 87q14 -6 27 -6q63 0 88 111l-204 500h120zM78 652q0 26 16.5 43t42.5 17t42 -17t16 -43q0 -25 -16 -41t-42 -16t-42.5 16t-16.5 41z M282 652q0 26 16 43t42 17q27 0 43 -16.5t16 -43.5q0 -25 -16 -41t-43 -16q-26 0 -42 16t-16 41z" />
<glyph unicode="&#x100;" horiz-adv-x="594" d="M477 0l-65 177h-239l-63 -177h-105l259 708h66l260 -708h-113zM269 452l-66 -188h183l-67 189l-24 108h-2zM132 755v74h328v-74h-328z" />
<glyph unicode="&#x101;" horiz-adv-x="496" d="M91 390l-29 75q76 44 202 44q96 0 132 -44t36 -119q0 -38 -3.5 -110.5t-3.5 -104.5q0 -80 16 -132h-80l-21 69h-5q-52 -76 -152 -76q-67 0 -109 39.5t-42 104.5q0 156 252 156q30 0 45 -1q3 25 3 45q0 48 -20 67t-71 19q-88 0 -150 -32zM215 77q83 0 114 70v75 q-32 2 -47 2q-143 0 -143 -75q0 -32 21 -52t55 -20zM97 574v76h308v-76h-308z" />
<glyph unicode="&#x102;" horiz-adv-x="594" d="M477 0l-65 177h-239l-63 -177h-105l259 708h66l260 -708h-113zM269 452l-66 -188h183l-67 189l-24 108h-2zM117 843l47 30q37 -64 138 -64q93 0 132 64l44 -25q-20 -56 -69 -87t-108 -31q-58 0 -109 28.5t-75 84.5z" />
<glyph unicode="&#x103;" horiz-adv-x="496" d="M91 390l-29 75q76 44 202 44q96 0 132 -44t36 -119q0 -38 -3.5 -110.5t-3.5 -104.5q0 -80 16 -132h-80l-21 69h-5q-52 -76 -152 -76q-67 0 -109 39.5t-42 104.5q0 156 252 156q30 0 45 -1q3 25 3 45q0 48 -20 67t-71 19q-88 0 -150 -32zM215 77q83 0 114 70v75 q-32 2 -47 2q-143 0 -143 -75q0 -32 21 -52t55 -20zM89 693l53 27q38 -69 112 -69t106 69l50 -22q-5 -51 -50 -90t-107 -39q-60 0 -105 33.5t-59 90.5z" />
<glyph unicode="&#x104;" horiz-adv-x="594" d="M477 0l-65 177h-239l-63 -177h-105l259 708h66l260 -708h-22q-58 -28 -58 -81q0 -47 48 -47q20 0 40 11l15 -52q-36 -29 -99 -29q-49 0 -77.5 24.5t-28.5 65.5q0 71 82 108h-13zM269 452l-66 -188h183l-67 189l-24 108h-2z" />
<glyph unicode="&#x105;" horiz-adv-x="496" d="M91 390l-29 75q76 44 202 44q96 0 132 -44t36 -119q0 -38 -3.5 -110.5t-3.5 -104.5q0 -80 16 -132h-21q-57 -29 -57 -80q0 -47 48 -47q20 0 40 11l15 -52q-36 -29 -99 -29q-49 0 -77.5 24.5t-28.5 65.5q0 78 98 114l-19 62h-5q-52 -76 -152 -76q-67 0 -109 39.5 t-42 104.5q0 156 252 156q30 0 45 -1q3 25 3 45q0 48 -20 67t-71 19q-88 0 -150 -32zM215 77q83 0 114 70v75q-32 2 -47 2q-143 0 -143 -75q0 -32 21 -52t55 -20z" />
<glyph unicode="&#x106;" horiz-adv-x="566" d="M510 115l23 -86q-56 -42 -178 -42q-64 0 -118.5 21t-97.5 63.5t-67 114t-24 164.5q0 96 27 168.5t72.5 113.5t98.5 61t111 20q102 0 166 -25l-23 -93q-45 22 -134 22q-90 0 -147.5 -65.5t-57.5 -201.5q0 -127 58 -197t158 -70q81 0 133 32zM287 752l112 118h134v-25 l-162 -93h-84z" />
<glyph unicode="&#x107;" horiz-adv-x="443" d="M387 110l28 -78q-62 -45 -158 -45q-215 0 -215 263q0 126 57 194.5t163 68.5q86 0 145 -31l-27 -85q-50 26 -105 26q-126 0 -126 -173q0 -76 32.5 -124.5t100.5 -48.5q61 0 105 33zM216 569l56 151h109v-25l-106 -126h-59z" />
<glyph unicode="&#x108;" horiz-adv-x="566" d="M510 115l23 -86q-56 -42 -178 -42q-64 0 -118.5 21t-97.5 63.5t-67 114t-24 164.5q0 96 27 168.5t72.5 113.5t98.5 61t111 20q102 0 166 -25l-23 -93q-45 22 -134 22q-90 0 -147.5 -65.5t-57.5 -201.5q0 -127 58 -197t158 -70q81 0 133 32zM173 773l133 97h76l127 -98 v-29h-89l-59 46l-18 34l-20 -33l-63 -47h-87v30z" />
<glyph unicode="&#x109;" horiz-adv-x="443" d="M387 110l28 -78q-62 -45 -158 -45q-215 0 -215 263q0 126 57 194.5t163 68.5q86 0 145 -31l-27 -85q-50 26 -105 26q-126 0 -126 -173q0 -76 32.5 -124.5t100.5 -48.5q61 0 105 33zM100 550l123 182h56l111 -182h-86l-39 66l-19 54l-20 -54l-45 -66h-81z" />
<glyph unicode="&#x10a;" horiz-adv-x="566" d="M510 115l23 -86q-56 -42 -178 -42q-64 0 -118.5 21t-97.5 63.5t-67 114t-24 164.5q0 96 27 168.5t72.5 113.5t98.5 61t111 20q102 0 166 -25l-23 -93q-45 22 -134 22q-90 0 -147.5 -65.5t-57.5 -201.5q0 -127 58 -197t158 -70q81 0 133 32zM278 798q0 23 20 39.5t53 16.5 q34 0 54.5 -16.5t20.5 -39.5q0 -25 -20.5 -41t-54.5 -16t-53.5 16t-19.5 41z" />
<glyph unicode="&#x10b;" horiz-adv-x="443" d="M387 110l28 -78q-62 -45 -158 -45q-215 0 -215 263q0 126 57 194.5t163 68.5q86 0 145 -31l-27 -85q-50 26 -105 26q-126 0 -126 -173q0 -76 32.5 -124.5t100.5 -48.5q61 0 105 33zM188 647q0 26 18.5 44t48.5 18t50 -18t20 -44t-19.5 -42.5t-50.5 -16.5 q-30 0 -48.5 16.5t-18.5 42.5z" />
<glyph unicode="&#x10c;" horiz-adv-x="566" d="M510 115l23 -86q-56 -42 -178 -42q-64 0 -118.5 21t-97.5 63.5t-67 114t-24 164.5q0 96 27 168.5t72.5 113.5t98.5 61t111 20q102 0 166 -25l-23 -93q-45 22 -134 22q-90 0 -147.5 -65.5t-57.5 -201.5q0 -127 58 -197t158 -70q81 0 133 32zM517 840l-133 -98h-74l-127 99 v29h92l56 -48l18 -32l20 31l60 49h88v-30z" />
<glyph unicode="&#x10d;" horiz-adv-x="443" d="M387 110l28 -78q-62 -45 -158 -45q-215 0 -215 263q0 126 57 194.5t163 68.5q86 0 145 -31l-27 -85q-50 26 -105 26q-126 0 -126 -173q0 -76 32.5 -124.5t100.5 -48.5q61 0 105 33zM400 732l-123 -182h-61l-115 182h92l39 -66l19 -54l20 54l45 66h84z" />
<glyph unicode="&#x10e;" horiz-adv-x="651" d="M74 -1v701q67 9 194 9q170 0 252.5 -95t82.5 -259q0 -74 -19 -137t-58 -115.5t-108 -82.5t-161 -30q-113 0 -183 9zM274 613q-70 0 -93 -4v-519q26 -4 84 -4q63 0 108.5 22t70 61t35.5 85t11 101q0 49 -10.5 92t-33.5 82t-67 61.5t-105 22.5zM449 840l-133 -98h-74 l-127 99v29h92l56 -48l18 -32l20 31l60 49h88v-30z" />
<glyph unicode="&#x10f;" horiz-adv-x="538" d="M470 700v-526q0 -116 10 -175h-71l-19 68h-4q-20 -36 -58.5 -58t-88.5 -22q-197 0 -197 258q0 127 59.5 196t167.5 69q55 0 99 -16v206h102zM260 74q87 0 108 92v233q-30 24 -90 24q-129 0 -129 -179q0 -170 111 -170zM537 700h95q-3 -53 -32 -113t-54 -84l-44 24 q35 73 35 173z" />
<glyph unicode="&#x110;" horiz-adv-x="663" d="M-3 327v69h89v304q67 9 194 9q170 0 252.5 -95t82.5 -259q0 -74 -19 -137t-58 -115.5t-108 -82.5t-161 -30q-113 0 -183 9v328h-89zM286 613q-70 0 -93 -4v-213h144v-69h-144v-237q26 -4 84 -4q63 0 108.5 22t70 61t35.5 85t11 101q0 49 -10.5 92t-33.5 82t-67 61.5 t-105 22.5z" />
<glyph unicode="&#x111;" horiz-adv-x="538" d="M470 700v-64h79v-69h-79v-393q0 -116 10 -175h-71l-19 68h-4q-20 -36 -58.5 -58t-88.5 -22q-197 0 -197 258q0 127 59.5 196t167.5 69q55 0 99 -16v73h-153v69h153v64h102zM260 74q87 0 108 92v233q-30 24 -90 24q-129 0 -129 -179q0 -170 111 -170z" />
<glyph unicode="&#x112;" horiz-adv-x="530" d="M74 0v700h396v-94h-289v-202h264v-94h-264v-216h294v-94h-401zM103 755v74h328v-74h-328z" />
<glyph unicode="&#x113;" horiz-adv-x="508" d="M413 111l36 -70q-67 -54 -181 -54t-170 69t-56 194q0 128 59.5 195.5t169.5 67.5q38 0 70.5 -9t61 -29.5t45 -59t17.5 -92.5q0 -49 -7 -92h-312q2 -79 36 -119.5t110 -40.5q34 0 68 12t53 28zM271 429q-112 0 -122 -128h219q0 2 0.5 8t0.5 9q0 55 -26 83t-72 28zM103 574 v76h308v-76h-308z" />
<glyph unicode="&#x114;" horiz-adv-x="530" d="M74 0v700h396v-94h-289v-202h264v-94h-264v-216h294v-94h-401zM96 843l47 30q37 -64 138 -64q93 0 132 64l44 -25q-20 -56 -69 -87t-108 -31q-58 0 -109 28.5t-75 84.5z" />
<glyph unicode="&#x115;" horiz-adv-x="508" d="M413 111l36 -70q-67 -54 -181 -54t-170 69t-56 194q0 128 59.5 195.5t169.5 67.5q38 0 70.5 -9t61 -29.5t45 -59t17.5 -92.5q0 -49 -7 -92h-312q2 -79 36 -119.5t110 -40.5q34 0 68 12t53 28zM271 429q-112 0 -122 -128h219q0 2 0.5 8t0.5 9q0 55 -26 83t-72 28zM97 693 l53 27q38 -69 112 -69t106 69l50 -22q-5 -51 -50 -90t-107 -39q-60 0 -105 33.5t-59 90.5z" />
<glyph unicode="&#x116;" horiz-adv-x="530" d="M74 0v700h396v-94h-289v-202h264v-94h-264v-216h294v-94h-401zM203 798q0 23 20 39.5t53 16.5q34 0 54.5 -16.5t20.5 -39.5q0 -25 -20.5 -41t-54.5 -16t-53.5 16t-19.5 41z" />
<glyph unicode="&#x117;" horiz-adv-x="508" d="M413 111l36 -70q-67 -54 -181 -54t-170 69t-56 194q0 128 59.5 195.5t169.5 67.5q38 0 70.5 -9t61 -29.5t45 -59t17.5 -92.5q0 -49 -7 -92h-312q2 -79 36 -119.5t110 -40.5q34 0 68 12t53 28zM271 429q-112 0 -122 -128h219q0 2 0.5 8t0.5 9q0 55 -26 83t-72 28zM202 647 q0 26 18.5 44t48.5 18t50 -18t20 -44t-19.5 -42.5t-50.5 -16.5q-30 0 -48.5 16.5t-18.5 42.5z" />
<glyph unicode="&#x118;" horiz-adv-x="530" d="M74 0v700h396v-94h-289v-202h264v-94h-264v-216h294v-94h-32q-58 -28 -58 -81q0 -47 48 -47q20 0 40 11l15 -52q-36 -29 -99 -29q-49 0 -77.5 24.5t-28.5 65.5q0 71 82 108h-291z" />
<glyph unicode="&#x119;" horiz-adv-x="508" d="M413 111l36 -70q-24 -19 -52 -30q-68 -35 -68 -92q0 -20 13 -33.5t35 -13.5q19 0 41 11l14 -52q-36 -29 -98 -29q-50 0 -78.5 24.5t-28.5 65.5q0 56 54 95h-13q-114 0 -170 69t-56 194q0 128 59.5 195.5t169.5 67.5q38 0 70.5 -9t61 -29.5t45 -59t17.5 -92.5 q0 -49 -7 -92h-312q2 -79 36 -119.5t110 -40.5q34 0 68 12t53 28zM271 429q-112 0 -122 -128h219q0 2 0.5 8t0.5 9q0 55 -26 83t-72 28z" />
<glyph unicode="&#x11a;" horiz-adv-x="530" d="M74 0v700h396v-94h-289v-202h264v-94h-264v-216h294v-94h-401zM434 840l-133 -98h-74l-127 99v29h92l56 -48l18 -32l20 31l60 49h88v-30z" />
<glyph unicode="&#x11b;" horiz-adv-x="508" d="M413 111l36 -70q-67 -54 -181 -54t-170 69t-56 194q0 128 59.5 195.5t169.5 67.5q38 0 70.5 -9t61 -29.5t45 -59t17.5 -92.5q0 -49 -7 -92h-312q2 -79 36 -119.5t110 -40.5q34 0 68 12t53 28zM271 429q-112 0 -122 -128h219q0 2 0.5 8t0.5 9q0 55 -26 83t-72 28zM413 732 l-123 -182h-61l-115 182h92l39 -66l19 -54l20 54l45 66h84z" />
<glyph unicode="&#x11c;" horiz-adv-x="611" d="M315 293v63h246v-310q-35 -28 -90.5 -43.5t-112.5 -15.5q-140 0 -225 91t-85 272q0 94 27.5 166.5t74.5 114t102 62t115 20.5q99 0 171 -26l-24 -92q-50 22 -136 22q-94 0 -155.5 -64.5t-61.5 -203.5q0 -132 57.5 -199t152.5 -67q64 0 102 25v167zM186 773l133 97h76 l127 -98v-29h-89l-59 46l-18 34l-20 -33l-63 -47h-87v30z" />
<glyph unicode="&#x11d;" horiz-adv-x="537" d="M469 480v-493q0 -199 -213 -199q-109 0 -167 29l24 83q65 -25 126 -25q74 0 102 30t28 99v41h-4q-38 -55 -129 -55q-99 0 -146.5 62.5t-47.5 192.5q0 129 62.5 197t182.5 68q101 0 182 -30zM260 74q84 0 107 90v243q-35 16 -91 16q-127 0 -127 -176q0 -173 111 -173z M128 550l123 182h56l111 -182h-86l-39 66l-19 54l-20 -54l-45 -66h-81z" />
<glyph unicode="&#x11e;" horiz-adv-x="611" d="M315 293v63h246v-310q-35 -28 -90.5 -43.5t-112.5 -15.5q-140 0 -225 91t-85 272q0 94 27.5 166.5t74.5 114t102 62t115 20.5q99 0 171 -26l-24 -92q-50 22 -136 22q-94 0 -155.5 -64.5t-61.5 -203.5q0 -132 57.5 -199t152.5 -67q64 0 102 25v167zM164 843l47 30 q37 -64 138 -64q93 0 132 64l44 -25q-20 -56 -69 -87t-108 -31q-58 0 -109 28.5t-75 84.5z" />
<glyph unicode="&#x11f;" horiz-adv-x="537" d="M469 480v-493q0 -199 -213 -199q-109 0 -167 29l24 83q65 -25 126 -25q74 0 102 30t28 99v41h-4q-38 -55 -129 -55q-99 0 -146.5 62.5t-47.5 192.5q0 129 62.5 197t182.5 68q101 0 182 -30zM260 74q84 0 107 90v243q-35 16 -91 16q-127 0 -127 -176q0 -173 111 -173z M107 693l53 27q38 -69 112 -69t106 69l50 -22q-5 -51 -50 -90t-107 -39q-60 0 -105 33.5t-59 90.5z" />
<glyph unicode="&#x120;" horiz-adv-x="611" d="M315 293v63h246v-310q-35 -28 -90.5 -43.5t-112.5 -15.5q-140 0 -225 91t-85 272q0 94 27.5 166.5t74.5 114t102 62t115 20.5q99 0 171 -26l-24 -92q-50 22 -136 22q-94 0 -155.5 -64.5t-61.5 -203.5q0 -132 57.5 -199t152.5 -67q64 0 102 25v167zM294 798q0 23 20 39.5 t53 16.5q34 0 54.5 -16.5t20.5 -39.5q0 -25 -20.5 -41t-54.5 -16t-53.5 16t-19.5 41z" />
<glyph unicode="&#x121;" horiz-adv-x="537" d="M469 480v-493q0 -199 -213 -199q-109 0 -167 29l24 83q65 -25 126 -25q74 0 102 30t28 99v41h-4q-38 -55 -129 -55q-99 0 -146.5 62.5t-47.5 192.5q0 129 62.5 197t182.5 68q101 0 182 -30zM260 74q84 0 107 90v243q-35 16 -91 16q-127 0 -127 -176q0 -173 111 -173z M204 647q0 26 18.5 44t48.5 18t50 -18t20 -44t-19.5 -42.5t-50.5 -16.5q-30 0 -48.5 16.5t-18.5 42.5z" />
<glyph unicode="&#x122;" horiz-adv-x="611" d="M315 293v63h246v-310q-35 -28 -90.5 -43.5t-112.5 -15.5q-140 0 -225 91t-85 272q0 94 27.5 166.5t74.5 114t102 62t115 20.5q99 0 171 -26l-24 -92q-50 22 -136 22q-94 0 -155.5 -64.5t-61.5 -203.5q0 -132 57.5 -199t152.5 -67q64 0 102 25v167zM287 -103q0 24 17 39 t41 15q31 0 51 -21t20 -60q0 -51 -29 -83t-61 -45l-31 42q43 22 44 62h-6q-20 0 -33 13.5t-13 37.5z" />
<glyph unicode="&#x123;" horiz-adv-x="537" d="M469 480v-493q0 -199 -213 -199q-109 0 -167 29l24 83q65 -25 126 -25q74 0 102 30t28 99v41h-4q-38 -55 -129 -55q-99 0 -146.5 62.5t-47.5 192.5q0 129 62.5 197t182.5 68q101 0 182 -30zM260 74q84 0 107 90v243q-35 16 -91 16q-127 0 -127 -176q0 -173 111 -173z M352 611q0 -24 -17 -39t-41 -15q-31 0 -51 21t-20 60q0 51 29 83t61 45l31 -42q-43 -22 -44 -62h6q20 0 33 -13.5t13 -37.5z" />
<glyph unicode="&#x124;" horiz-adv-x="663" d="M482 0v308h-301v-308h-107v700h107v-296h301v296h107v-700h-107zM161 773l133 97h76l127 -98v-29h-89l-59 46l-18 34l-20 -33l-63 -47h-87v30z" />
<glyph unicode="&#x125;" horiz-adv-x="546" d="M485 0h-102v284q0 74 -20.5 106.5t-74.5 32.5q-41 0 -74.5 -27t-43.5 -69v-327h-102v700h102v-256h4q54 69 151 69q84 0 122 -45t38 -162v-306zM-45 773l133 97h76l127 -98v-29h-89l-59 46l-18 34l-20 -33l-63 -47h-87v30z" />
<glyph unicode="&#x126;" horiz-adv-x="680" d="M6 520v72h77v108h107v-108h301v108h107v-108h76v-72h-76v-520h-107v308h-301v-308h-107v520h-77zM190 404h301v116h-301v-116z" />
<glyph unicode="&#x127;" horiz-adv-x="552" d="M-3 567v69h77v64h102v-64h161v-69h-161v-123h4q54 69 151 69q84 0 122 -45t38 -162v-306h-102v284q0 74 -20.5 106.5t-74.5 32.5q-41 0 -74.5 -27t-43.5 -69v-327h-102v567h-77z" />
<glyph unicode="&#x128;" horiz-adv-x="287" d="M90 0v700h107v-700h-107zM-3 741l-24 51q55 57 119 57q25 0 73 -16.5t69 -16.5q32 0 55 22l25 -54q-49 -45 -105 -45q-28 0 -76.5 17t-67.5 17q-37 0 -68 -32z" />
<glyph unicode="&#x129;" horiz-adv-x="269" d="M83 0v500h102v-500h-102zM4 605l-21 52q52 60 105 60q25 0 66 -20t62 -20q22 0 47 25l22 -55q-48 -54 -96 -54q-24 0 -64 20.5t-57 20.5q-35 0 -64 -29z" />
<glyph unicode="&#x12a;" horiz-adv-x="287" d="M90 0v700h107v-700h-107zM-18 755v74h328v-74h-328z" />
<glyph unicode="&#x12b;" horiz-adv-x="269" d="M83 0v500h102v-500h-102zM-20 574v76h308v-76h-308z" />
<glyph unicode="&#x12c;" horiz-adv-x="287" d="M90 0v700h107v-700h-107zM-35 843l47 30q37 -64 138 -64q93 0 132 64l44 -25q-20 -56 -69 -87t-108 -31q-58 0 -109 28.5t-75 84.5z" />
<glyph unicode="&#x12d;" horiz-adv-x="269" d="M83 0v500h102v-500h-102zM-26 693l53 27q38 -69 112 -69t106 69l50 -22q-5 -51 -50 -90t-107 -39q-60 0 -105 33.5t-59 90.5z" />
<glyph unicode="&#x12e;" horiz-adv-x="288" d="M90 0v700h107v-700h-14q-52 -31 -52 -81q0 -20 12.5 -33.5t34.5 -13.5q18 0 41 10l15 -51q-36 -29 -99 -29q-50 0 -78 24.5t-28 65.5q0 71 82 108h-21z" />
<glyph unicode="&#x12f;" horiz-adv-x="269" d="M83 0v500h102v-500h-15q-52 -32 -52 -81q0 -20 13 -33.5t35 -13.5q18 0 41 10l14 -51q-36 -29 -99 -29q-49 0 -77.5 24.5t-28.5 65.5q0 71 82 108h-15zM65 647q0 26 18.5 44t48.5 18t50 -18t20 -44t-19.5 -42.5t-50.5 -16.5q-30 0 -48.5 16.5t-18.5 42.5z" />
<glyph unicode="&#x130;" horiz-adv-x="287" d="M90 0v700h107v-700h-107zM71 798q0 23 20 39.5t53 16.5q34 0 54.5 -16.5t20.5 -39.5q0 -25 -20.5 -41t-54.5 -16t-53.5 16t-19.5 41z" />
<glyph unicode="&#x131;" horiz-adv-x="269" d="M83 0v500h102v-500h-102z" />
<glyph unicode="&#x134;" horiz-adv-x="310" d="M120 196v504h107v-531q0 -83 -38.5 -131.5t-115.5 -48.5q-61 0 -102 19l22 89q25 -12 60 -12q39 0 53 27.5t14 83.5zM4 773l133 97h76l127 -98v-29h-89l-59 46l-18 34l-20 -33l-63 -47h-87v30z" />
<glyph unicode="&#x135;" horiz-adv-x="265" d="M83 9v491h102v-524q0 -186 -142 -186q-24 0 -45 4v86h7q47 0 62.5 30t15.5 99zM-12 550l123 182h56l111 -182h-86l-39 66l-19 54l-20 -54l-45 -66h-81z" />
<glyph unicode="&#x136;" horiz-adv-x="615" d="M456 0l-233 313h-42v-313h-107v700h107v-319l39 14l217 305h122l-221 -298l-47 -35l53 -40l246 -327h-134zM227 -103q0 24 17 39t41 15q31 0 51 -21t20 -60q0 -51 -29 -83t-61 -45l-31 42q43 22 44 62h-6q-20 0 -33 13.5t-13 37.5z" />
<glyph unicode="&#x137;" horiz-adv-x="484" d="M358 0l-146 217h-42v-217h-102v700h102v-420l37 14l136 206h115l-138 -196l-45 -35l52 -40l153 -229h-122zM181 -103q0 24 17 39t41 15q31 0 51 -21t20 -60q0 -51 -29 -83t-61 -45l-31 42q43 22 44 62h-6q-20 0 -33 13.5t-13 37.5z" />
<glyph unicode="&#x138;" horiz-adv-x="483" d="M358 0l-146 217h-42v-217h-102v500h102v-220l38 14l141 206h110l-140 -196l-46 -35l54 -40l153 -229h-122z" />
<glyph unicode="&#x139;" horiz-adv-x="516" d="M501 96v-96h-427v700h107v-604h320zM109 752l112 118h134v-25l-162 -93h-84z" />
<glyph unicode="&#x13a;" horiz-adv-x="293" d="M177 700v-557q0 -66 42 -66q29 0 58 11l11 -80q-40 -21 -104 -21q-109 0 -109 113v600h102zM81 752l112 118h134v-25l-162 -93h-84z" />
<glyph unicode="&#x13b;" horiz-adv-x="516" d="M501 96v-96h-427v700h107v-604h320zM187 -103q0 24 17 39t41 15q31 0 51 -21t20 -60q0 -51 -29 -83t-61 -45l-31 42q43 22 44 62h-6q-20 0 -33 13.5t-13 37.5z" />
<glyph unicode="&#x13c;" horiz-adv-x="293" d="M177 700v-557q0 -66 42 -66q29 0 58 11l11 -80q-40 -21 -104 -21q-109 0 -109 113v600h102zM107 -103q0 24 17 39t41 15q31 0 51 -21t20 -60q0 -51 -29 -83t-61 -45l-31 42q43 22 44 62h-6q-20 0 -33 13.5t-13 37.5z" />
<glyph unicode="&#x13d;" horiz-adv-x="516" d="M501 96v-96h-427v700h107v-604h320zM349 700h95q-3 -53 -32 -113t-54 -84l-44 24q35 73 35 173z" />
<glyph unicode="&#x13e;" horiz-adv-x="293" d="M177 700v-557q0 -66 42 -66q29 0 58 11l11 -80q-40 -21 -104 -21q-109 0 -109 113v600h102zM246 700h95q-3 -53 -32 -113t-54 -84l-44 24q35 73 35 173z" />
<glyph unicode="&#x13f;" horiz-adv-x="516" d="M313 396q0 27 17.5 46t46.5 19t48 -19.5t19 -45.5t-19 -44t-48 -18q-30 0 -47 17.5t-17 44.5zM501 96v-96h-427v700h107v-604h320z" />
<glyph unicode="&#x140;" horiz-adv-x="329" d="M228 377q0 27 16.5 46t44.5 19t46 -19t18 -46q0 -26 -17.5 -44t-46.5 -18q-28 0 -44.5 18t-16.5 44zM177 700v-557q0 -66 42 -66q29 0 58 11l11 -80q-40 -21 -104 -21q-109 0 -109 113v600h102z" />
<glyph unicode="&#x141;" horiz-adv-x="522" d="M11 205v96l69 50v349h107v-271l104 76v-100l-104 -74v-235h320v-96h-427v254z" />
<glyph unicode="&#x142;" horiz-adv-x="302" d="M11 199v96l77 56v349h102v-275l101 74v-100l-101 -72v-184q0 -66 42 -66q29 0 58 11l11 -80q-40 -21 -104 -21q-109 0 -109 113v154z" />
<glyph unicode="&#x143;" horiz-adv-x="666" d="M523 -8l-302 425l-55 104h-4l14 -104v-417h-102v708h69l304 -425l52 -101h5l-14 101v417h102v-708h-69zM277 752l112 118h134v-25l-162 -93h-84z" />
<glyph unicode="&#x144;" horiz-adv-x="546" d="M485 0h-102v284q0 72 -21 105.5t-72 33.5q-44 0 -76 -24.5t-44 -64.5v-334h-102v500h77l15 -63h4q56 76 160 76q83 0 122 -45.5t39 -161.5v-306zM233 569l56 151h109v-25l-106 -126h-59z" />
<glyph unicode="&#x145;" horiz-adv-x="666" d="M523 -8l-302 425l-55 104h-4l14 -104v-417h-102v708h69l304 -425l52 -101h5l-14 101v417h102v-708h-69zM268 -103q0 24 17 39t41 15q31 0 51 -21t20 -60q0 -51 -29 -83t-61 -45l-31 42q43 22 44 62h-6q-20 0 -33 13.5t-13 37.5z" />
<glyph unicode="&#x146;" horiz-adv-x="546" d="M485 0h-102v284q0 72 -21 105.5t-72 33.5q-44 0 -76 -24.5t-44 -64.5v-334h-102v500h77l15 -63h4q56 76 160 76q83 0 122 -45.5t39 -161.5v-306zM208 -103q0 24 17 39t41 15q31 0 51 -21t20 -60q0 -51 -29 -83t-61 -45l-31 42q43 22 44 62h-6q-20 0 -33 13.5t-13 37.5z " />
<glyph unicode="&#x147;" horiz-adv-x="666" d="M523 -8l-302 425l-55 104h-4l14 -104v-417h-102v708h69l304 -425l52 -101h5l-14 101v417h102v-708h-69zM503 840l-133 -98h-74l-127 99v29h92l56 -48l18 -32l20 31l60 49h88v-30z" />
<glyph unicode="&#x148;" horiz-adv-x="546" d="M485 0h-102v284q0 72 -21 105.5t-72 33.5q-44 0 -76 -24.5t-44 -64.5v-334h-102v500h77l15 -63h4q56 76 160 76q83 0 122 -45.5t39 -161.5v-306zM425 732l-123 -182h-61l-115 182h92l39 -66l19 -54l20 54l45 66h84z" />
<glyph unicode="&#x149;" horiz-adv-x="588" d="M520 0h-102v284q0 72 -21 105.5t-72 33.5q-44 0 -76 -24.5t-44 -64.5v-334h-102v500h77l15 -63h4q56 76 160 76q83 0 122 -45.5t39 -161.5v-306zM-38 652q0 25 16.5 40.5t43.5 15.5q31 0 50 -20.5t19 -56.5q0 -63 -31 -98.5t-67 -48.5l-28 43q50 25 50 70h-7 q-20 0 -33 15t-13 40z" />
<glyph unicode="&#x14a;" horiz-adv-x="666" d="M491 0v37l-270 380l-55 104h-4l14 -104v-417h-102v708h69l304 -425l52 -101h5l-14 101v417h102v-724q0 -186 -141 -186q-24 0 -45 4v86h7q47 0 62.5 28t15.5 92z" />
<glyph unicode="&#x14b;" horiz-adv-x="544" d="M383 0v284q0 72 -21 105.5t-72 33.5q-44 0 -76 -24.5t-44 -64.5v-334h-102v500h77l15 -63h4q56 76 160 76q83 0 122 -45.5t39 -161.5v-330q0 -186 -142 -186q-24 0 -45 4v86h7q47 0 62.5 27.5t15.5 92.5z" />
<glyph unicode="&#x14c;" horiz-adv-x="678" d="M48 350q0 174 75.5 268.5t214.5 94.5q145 0 218.5 -97t73.5 -266q0 -174 -76.5 -268.5t-215.5 -94.5q-144 0 -217 97t-73 266zM161 350q0 -118 44.5 -193.5t132.5 -75.5q86 0 132.5 66.5t46.5 202.5q0 118 -44.5 193.5t-134.5 75.5q-84 0 -130.5 -67.5t-46.5 -201.5z M180 755v74h328v-74h-328z" />
<glyph unicode="&#x14d;" horiz-adv-x="537" d="M42 250q0 126 59 194.5t167 68.5q112 0 169.5 -70.5t57.5 -192.5q0 -126 -59.5 -194.5t-167.5 -68.5q-112 0 -169 70t-57 193zM149 250q0 -78 29 -127t90 -49q120 0 120 176q0 80 -29 128t-91 48q-119 0 -119 -176zM114 574v76h308v-76h-308z" />
<glyph unicode="&#x14e;" horiz-adv-x="678" d="M48 350q0 174 75.5 268.5t214.5 94.5q145 0 218.5 -97t73.5 -266q0 -174 -76.5 -268.5t-215.5 -94.5q-144 0 -217 97t-73 266zM161 350q0 -118 44.5 -193.5t132.5 -75.5q86 0 132.5 66.5t46.5 202.5q0 118 -44.5 193.5t-134.5 75.5q-84 0 -130.5 -67.5t-46.5 -201.5z M158 843l47 30q37 -64 138 -64q93 0 132 64l44 -25q-20 -56 -69 -87t-108 -31q-58 0 -109 28.5t-75 84.5z" />
<glyph unicode="&#x14f;" horiz-adv-x="537" d="M42 250q0 126 59 194.5t167 68.5q112 0 169.5 -70.5t57.5 -192.5q0 -126 -59.5 -194.5t-167.5 -68.5q-112 0 -169 70t-57 193zM149 250q0 -78 29 -127t90 -49q120 0 120 176q0 80 -29 128t-91 48q-119 0 -119 -176zM108 693l53 27q38 -69 112 -69t106 69l50 -22 q-5 -51 -50 -90t-107 -39q-60 0 -105 33.5t-59 90.5z" />
<glyph unicode="&#x150;" horiz-adv-x="678" d="M48 350q0 174 75.5 268.5t214.5 94.5q145 0 218.5 -97t73.5 -266q0 -174 -76.5 -268.5t-215.5 -94.5q-144 0 -217 97t-73 266zM161 350q0 -118 44.5 -193.5t132.5 -75.5q86 0 132.5 66.5t46.5 202.5q0 118 -44.5 193.5t-134.5 75.5q-84 0 -130.5 -67.5t-46.5 -201.5z M219 741l62 109h111v-16l-100 -93h-73zM359 741l100 109h117v-16l-143 -93h-74z" />
<glyph unicode="&#x151;" horiz-adv-x="537" d="M42 250q0 126 59 194.5t167 68.5q112 0 169.5 -70.5t57.5 -192.5q0 -126 -59.5 -194.5t-167.5 -68.5q-112 0 -169 70t-57 193zM149 250q0 -78 29 -127t90 -49q120 0 120 176q0 80 -29 128t-91 48q-119 0 -119 -176zM162 571l35 129h96v-16l-73 -113h-58zM284 571l73 129 h104v-16l-116 -113h-61z" />
<glyph unicode="&#x152;" horiz-adv-x="925" d="M468 99v496q-51 24 -130 24q-84 0 -130.5 -67.5t-46.5 -201.5q0 -119 46 -194t139 -75q69 0 122 18zM468 0q-47 -13 -130 -13q-144 0 -217 97t-73 266q0 174 75.5 268.5t214.5 94.5q63 0 130 -13h397v-94h-290v-202h265v-94h-265v-216h295v-94h-402z" />
<glyph unicode="&#x153;" horiz-adv-x="859" d="M149 250q0 -78 29 -127t90 -49q121 0 121 176q0 79 -29.5 127.5t-91.5 48.5q-119 0 -119 -176zM437 72q-56 -85 -169 -85q-112 0 -169 70t-57 193q0 126 59 194.5t167 68.5q112 0 173 -83q59 83 172 83q39 0 71.5 -9t61.5 -29.5t45.5 -59t16.5 -91.5q0 -43 -8 -93h-312 q2 -80 36.5 -120t109.5 -40q35 0 69 12t52 28l36 -70q-67 -54 -180 -54q-117 0 -174 85zM613 429q-110 0 -122 -128h220v12q0 116 -98 116z" />
<glyph unicode="&#x154;" horiz-adv-x="598" d="M74 0v693q88 16 188 16q68 0 120.5 -17t88.5 -62.5t36 -115.5q0 -81 -42 -134.5t-112 -72.5l48 -35l168 -272h-124l-178 290l-86 14v-304h-107zM267 615q-66 0 -86 -6v-234h69q67 0 105.5 32t38.5 96q0 50 -34 81t-93 31zM196 752l112 118h134v-25l-162 -93h-84z" />
<glyph unicode="&#x155;" horiz-adv-x="345" d="M339 500l-17 -96q-29 10 -56 10q-38 0 -63 -21t-33 -55v-338h-102v500h76l15 -63h4q37 73 114 73q29 0 62 -10zM128 569l56 151h109v-25l-106 -126h-59z" />
<glyph unicode="&#x156;" horiz-adv-x="598" d="M74 0v693q88 16 188 16q68 0 120.5 -17t88.5 -62.5t36 -115.5q0 -81 -42 -134.5t-112 -72.5l48 -35l168 -272h-124l-178 290l-86 14v-304h-107zM267 615q-66 0 -86 -6v-234h69q67 0 105.5 32t38.5 96q0 50 -34 81t-93 31zM234 -103q0 24 17 39t41 15q31 0 51 -21t20 -60 q0 -51 -29 -83t-61 -45l-31 42q43 22 44 62h-6q-20 0 -33 13.5t-13 37.5z" />
<glyph unicode="&#x157;" horiz-adv-x="345" d="M339 500l-17 -96q-29 10 -56 10q-38 0 -63 -21t-33 -55v-338h-102v500h76l15 -63h4q37 73 114 73q29 0 62 -10zM85 -103q0 24 17 39t41 15q31 0 51 -21t20 -60q0 -51 -29 -83t-61 -45l-31 42q43 22 44 62h-6q-20 0 -33 13.5t-13 37.5z" />
<glyph unicode="&#x158;" horiz-adv-x="598" d="M74 0v693q88 16 188 16q68 0 120.5 -17t88.5 -62.5t36 -115.5q0 -81 -42 -134.5t-112 -72.5l48 -35l168 -272h-124l-178 290l-86 14v-304h-107zM267 615q-66 0 -86 -6v-234h69q67 0 105.5 32t38.5 96q0 50 -34 81t-93 31zM422 840l-133 -98h-74l-127 99v29h92l56 -48 l18 -32l20 31l60 49h88v-30z" />
<glyph unicode="&#x159;" horiz-adv-x="345" d="M339 500l-17 -96q-29 10 -56 10q-38 0 -63 -21t-33 -55v-338h-102v500h76l15 -63h4q37 73 114 73q29 0 62 -10zM343 732l-123 -182h-61l-115 182h92l39 -66l19 -54l20 54l45 66h84z" />
<glyph unicode="&#x15a;" horiz-adv-x="530" d="M382 182q0 41 -34 70t-82 49.5t-96 44.5t-82 69.5t-34 109.5q0 90 60.5 139t166.5 49q125 0 195 -36l-33 -91q-58 33 -164 33q-56 0 -86 -24t-30 -62q0 -32 24.5 -58t60.5 -42.5t79 -38.5t79 -45t60.5 -63.5t24.5 -92.5q0 -98 -66 -152t-180 -54q-134 0 -208 39l35 93 q69 -38 168 -38q66 0 104 25.5t38 75.5zM215 752l112 118h134v-25l-162 -93h-84z" />
<glyph unicode="&#x15b;" horiz-adv-x="422" d="M282 137q0 28 -24 46t-59 29.5t-69.5 27t-58.5 47.5t-24 81q0 71 42 108t120 37q94 0 164 -35l-24 -78q-64 29 -127 29q-73 0 -73 -58q0 -24 24 -40.5t58.5 -28.5t69.5 -27.5t59 -48.5t24 -82q0 -72 -47 -114.5t-135 -42.5q-100 0 -169 41l29 80q67 -37 137 -37 q83 0 83 66zM167 569l56 151h109v-25l-106 -126h-59z" />
<glyph unicode="&#x15c;" horiz-adv-x="530" d="M382 182q0 41 -34 70t-82 49.5t-96 44.5t-82 69.5t-34 109.5q0 90 60.5 139t166.5 49q125 0 195 -36l-33 -91q-58 33 -164 33q-56 0 -86 -24t-30 -62q0 -32 24.5 -58t60.5 -42.5t79 -38.5t79 -45t60.5 -63.5t24.5 -92.5q0 -98 -66 -152t-180 -54q-134 0 -208 39l35 93 q69 -38 168 -38q66 0 104 25.5t38 75.5zM110 773l133 97h76l127 -98v-29h-89l-59 46l-18 34l-20 -33l-63 -47h-87v30z" />
<glyph unicode="&#x15d;" horiz-adv-x="422" d="M282 137q0 28 -24 46t-59 29.5t-69.5 27t-58.5 47.5t-24 81q0 71 42 108t120 37q94 0 164 -35l-24 -78q-64 29 -127 29q-73 0 -73 -58q0 -24 24 -40.5t58.5 -28.5t69.5 -27.5t59 -48.5t24 -82q0 -72 -47 -114.5t-135 -42.5q-100 0 -169 41l29 80q67 -37 137 -37 q83 0 83 66zM67 550l123 182h56l111 -182h-86l-39 66l-19 54l-20 -54l-45 -66h-81z" />
<glyph unicode="&#x15e;" horiz-adv-x="530" d="M382 182q0 41 -34 70t-82 49.5t-96 44.5t-82 69.5t-34 109.5q0 90 60.5 139t166.5 49q125 0 195 -36l-33 -91q-58 33 -164 33q-56 0 -86 -24t-30 -62q0 -32 24.5 -58t60.5 -42.5t79 -38.5t79 -45t60.5 -63.5t24.5 -92.5q0 -85 -49.5 -137t-138.5 -65l-19 -34 q83 -12 83 -75q0 -42 -35.5 -66.5t-94.5 -24.5q-32 0 -57 5l9 43q7 -1 25 -1q59 0 59 35q0 28 -86 35l44 79q-125 3 -194 39l35 93q69 -38 168 -38q66 0 104 25.5t38 75.5z" />
<glyph unicode="&#x15f;" horiz-adv-x="422" d="M282 137q0 28 -24 46t-59 29.5t-69.5 27t-58.5 47.5t-24 81q0 71 42 108t120 37q94 0 164 -35l-24 -78q-64 29 -127 29q-73 0 -73 -58q0 -24 24 -40.5t58.5 -28.5t69.5 -27.5t59 -48.5t24 -82q0 -63 -36 -104t-104 -51l-18 -32q83 -12 83 -75q0 -42 -35.5 -66.5 t-94.5 -24.5q-32 0 -57 5l9 43q7 -1 25 -1q59 0 59 35q0 28 -86 35l45 79q-81 5 -141 41l29 80q67 -37 137 -37q83 0 83 66z" />
<glyph unicode="&#x160;" horiz-adv-x="530" d="M382 182q0 41 -34 70t-82 49.5t-96 44.5t-82 69.5t-34 109.5q0 90 60.5 139t166.5 49q125 0 195 -36l-33 -91q-58 33 -164 33q-56 0 -86 -24t-30 -62q0 -32 24.5 -58t60.5 -42.5t79 -38.5t79 -45t60.5 -63.5t24.5 -92.5q0 -98 -66 -152t-180 -54q-134 0 -208 39l35 93 q69 -38 168 -38q66 0 104 25.5t38 75.5zM458 840l-133 -98h-74l-127 99v29h92l56 -48l18 -32l20 31l60 49h88v-30z" />
<glyph unicode="&#x161;" horiz-adv-x="422" d="M282 137q0 28 -24 46t-59 29.5t-69.5 27t-58.5 47.5t-24 81q0 71 42 108t120 37q94 0 164 -35l-24 -78q-64 29 -127 29q-73 0 -73 -58q0 -24 24 -40.5t58.5 -28.5t69.5 -27.5t59 -48.5t24 -82q0 -72 -47 -114.5t-135 -42.5q-100 0 -169 41l29 80q67 -37 137 -37 q83 0 83 66zM360 732l-123 -182h-61l-115 182h92l39 -66l19 -54l20 54l45 66h84z" />
<glyph unicode="&#x162;" horiz-adv-x="561" d="M546 700v-96h-212v-604h-19l-24 -43q83 -12 83 -75q0 -42 -35.5 -66.5t-94.5 -24.5q-32 0 -57 5l9 43q7 -1 25 -1q59 0 59 35q0 28 -86 35l52 92h-19v604h-212v96h531z" />
<glyph unicode="&#x163;" horiz-adv-x="344" d="M8 413v87h74v97l102 29v-126h130v-87h-130v-240q0 -52 12 -74t42 -22q33 0 77 18l20 -78q-43 -21 -103 -27l-17 -33q83 -12 83 -75q0 -42 -35.5 -66.5t-94.5 -24.5q-32 0 -57 5l9 43q7 -1 25 -1q59 0 59 35q0 28 -86 35l46 84q-82 17 -82 146v275h-74z" />
<glyph unicode="&#x164;" horiz-adv-x="561" d="M546 700v-96h-212v-604h-107v604h-212v96h531zM447 840l-133 -98h-74l-127 99v29h92l56 -48l18 -32l20 31l60 49h88v-30z" />
<glyph unicode="&#x165;" horiz-adv-x="344" d="M8 413v87h74v97l102 29v-126h130v-87h-130v-240q0 -52 12 -74t42 -22q33 0 77 18l20 -78q-64 -30 -132 -30q-64 0 -92.5 35.5t-28.5 115.5v275h-74zM244 718h95q-3 -53 -32 -113t-54 -84l-44 24q35 73 35 173z" />
<glyph unicode="&#x166;" horiz-adv-x="596" d="M564 700v-96h-212v-200h210v-94h-210v-310h-107v310h-211v94h211v200h-212v96h531z" />
<glyph unicode="&#x167;" horiz-adv-x="378" d="M31 422v78h74v97l102 29v-126h130v-78h-130v-122h130v-77h-130v-47q0 -53 12 -76t42 -23q33 0 77 18l20 -78q-64 -30 -132 -30q-64 0 -92.5 35.5t-28.5 115.5v85h-74v77h74v122h-74z" />
<glyph unicode="&#x168;" horiz-adv-x="640" d="M466 257v443h102v-460q0 -127 -63.5 -188.5t-175.5 -61.5q-257 0 -257 233v477h107v-443q0 -94 36 -132.5t114 -38.5q72 0 104.5 40t32.5 131zM175 741l-24 51q55 57 119 57q25 0 73 -16.5t69 -16.5q32 0 55 22l25 -54q-49 -45 -105 -45q-28 0 -76.5 17t-67.5 17 q-37 0 -68 -32z" />
<glyph unicode="&#x169;" horiz-adv-x="538" d="M61 500h102v-284q0 -74 18.5 -106.5t67.5 -32.5q43 0 73.5 26t45.5 68v329h102v-354q0 -87 13 -146h-74l-22 77h-4q-53 -90 -161 -90q-83 0 -122 45.5t-39 161.5v306zM142 605l-21 52q52 60 105 60q25 0 66 -20t62 -20q22 0 47 25l22 -55q-48 -54 -96 -54q-24 0 -64 20.5 t-57 20.5q-35 0 -64 -29z" />
<glyph unicode="&#x16a;" horiz-adv-x="640" d="M466 257v443h102v-460q0 -127 -63.5 -188.5t-175.5 -61.5q-257 0 -257 233v477h107v-443q0 -94 36 -132.5t114 -38.5q72 0 104.5 40t32.5 131zM159 755v74h328v-74h-328z" />
<glyph unicode="&#x16b;" horiz-adv-x="538" d="M61 500h102v-284q0 -74 18.5 -106.5t67.5 -32.5q43 0 73.5 26t45.5 68v329h102v-354q0 -87 13 -146h-74l-22 77h-4q-53 -90 -161 -90q-83 0 -122 45.5t-39 161.5v306zM115 574v76h308v-76h-308z" />
<glyph unicode="&#x16c;" horiz-adv-x="640" d="M466 257v443h102v-460q0 -127 -63.5 -188.5t-175.5 -61.5q-257 0 -257 233v477h107v-443q0 -94 36 -132.5t114 -38.5q72 0 104.5 40t32.5 131zM139 843l47 30q37 -64 138 -64q93 0 132 64l44 -25q-20 -56 -69 -87t-108 -31q-58 0 -109 28.5t-75 84.5z" />
<glyph unicode="&#x16d;" horiz-adv-x="538" d="M61 500h102v-284q0 -74 18.5 -106.5t67.5 -32.5q43 0 73.5 26t45.5 68v329h102v-354q0 -87 13 -146h-74l-22 77h-4q-53 -90 -161 -90q-83 0 -122 45.5t-39 161.5v306zM107 693l53 27q38 -69 112 -69t106 69l50 -22q-5 -51 -50 -90t-107 -39q-60 0 -105 33.5t-59 90.5z " />
<glyph unicode="&#x16e;" horiz-adv-x="640" d="M466 257v443h102v-460q0 -127 -63.5 -188.5t-175.5 -61.5q-257 0 -257 233v477h107v-443q0 -94 36 -132.5t114 -38.5q72 0 104.5 40t32.5 131zM210 770q0 87 115 87q116 0 116 -87q0 -38 -28.5 -61.5t-87.5 -23.5q-115 0 -115 85zM281 770q0 -36 44 -36q45 0 45 36 q0 38 -45 38q-44 0 -44 -38z" />
<glyph unicode="&#x16f;" horiz-adv-x="538" d="M61 500h102v-284q0 -74 18.5 -106.5t67.5 -32.5q43 0 73.5 26t45.5 68v329h102v-354q0 -87 13 -146h-74l-22 77h-4q-53 -90 -161 -90q-83 0 -122 45.5t-39 161.5v306zM164 645q0 42 28 67.5t75 25.5t75.5 -24t28.5 -69q0 -40 -29 -66t-75 -26q-47 0 -75 25t-28 67z M226 645q0 -17 12 -27.5t29 -10.5q42 0 42 38q0 19 -12 29t-30 10t-29.5 -10t-11.5 -29z" />
<glyph unicode="&#x170;" horiz-adv-x="640" d="M466 257v443h102v-460q0 -127 -63.5 -188.5t-175.5 -61.5q-257 0 -257 233v477h107v-443q0 -94 36 -132.5t114 -38.5q72 0 104.5 40t32.5 131zM192 741l62 109h111v-16l-100 -93h-73zM332 741l100 109h117v-16l-143 -93h-74z" />
<glyph unicode="&#x171;" horiz-adv-x="538" d="M61 500h102v-284q0 -74 18.5 -106.5t67.5 -32.5q43 0 73.5 26t45.5 68v329h102v-354q0 -87 13 -146h-74l-22 77h-4q-53 -90 -161 -90q-83 0 -122 45.5t-39 161.5v306zM155 571l35 129h96v-16l-73 -113h-58zM277 571l73 129h104v-16l-116 -113h-61z" />
<glyph unicode="&#x172;" horiz-adv-x="640" d="M466 257v443h102v-460q0 -177 -125 -230q-69 -35 -69 -91q0 -20 12.5 -33.5t34.5 -13.5q19 0 41 11l15 -52q-36 -29 -99 -29q-49 0 -77.5 24.5t-28.5 65.5q0 59 61 98h-4q-257 0 -257 233v477h107v-443q0 -94 36 -132.5t114 -38.5q72 0 104.5 40t32.5 131z" />
<glyph unicode="&#x173;" horiz-adv-x="538" d="M61 500h102v-284q0 -74 18.5 -106.5t67.5 -32.5q43 0 73.5 26t45.5 68v329h102v-354q0 -87 13 -146h-21q-55 -28 -55 -81q0 -20 13 -33.5t35 -13.5q19 0 40 10l15 -51q-36 -29 -99 -29q-49 0 -77.5 24.5t-28.5 65.5q0 78 102 116l-20 69h-4q-53 -90 -161 -90 q-83 0 -122 45.5t-39 161.5v306z" />
<glyph unicode="&#x174;" horiz-adv-x="843" d="M120 700l111 -434l14 -120h3l16 122l134 432h62l134 -434l15 -120h3l16 122l103 432h108l-194 -708h-67l-134 433l-18 107h-5l-17 -108l-134 -432h-69l-196 708h115zM258 773l133 97h76l127 -98v-29h-89l-59 46l-18 34l-20 -33l-63 -47h-87v30z" />
<glyph unicode="&#x175;" horiz-adv-x="729" d="M334 500h75l104 -276l22 -90h3l17 92l78 274h95l-162 -508h-64l-118 307l-16 74h-4l-17 -75l-112 -306h-66l-168 508h111l87 -273l15 -94h3l21 95zM225 550l123 182h56l111 -182h-86l-39 66l-19 54l-20 -54l-45 -66h-81z" />
<glyph unicode="&#x176;" horiz-adv-x="573" d="M234 0v270l-231 430h127l148 -287l16 -67h2l17 69l142 285h115l-229 -429v-271h-107zM121 773l133 97h76l127 -98v-29h-89l-59 46l-18 34l-20 -33l-63 -47h-87v30z" />
<glyph unicode="&#x177;" horiz-adv-x="471" d="M123 500l108 -305l23 -88h6l18 89l88 304h104l-150 -450q-17 -52 -27.5 -81t-28 -67.5t-33.5 -58t-39 -34t-49 -14.5q-44 0 -69 13l18 87q14 -6 27 -6q63 0 88 111l-204 500h120zM99 550l123 182h56l111 -182h-86l-39 66l-19 54l-20 -54l-45 -66h-81z" />
<glyph unicode="&#x178;" horiz-adv-x="573" d="M234 0v270l-231 430h127l148 -287l16 -67h2l17 69l142 285h115l-229 -429v-271h-107zM125 796q0 24 17 38t47 14q29 0 45.5 -14t16.5 -38t-16 -37.5t-46 -13.5t-47 13.5t-17 37.5zM327 796q0 24 16.5 38t45.5 14q31 0 47.5 -14t16.5 -38t-16.5 -37.5t-47.5 -13.5 q-29 0 -45.5 14t-16.5 37z" />
<glyph unicode="&#x179;" horiz-adv-x="542" d="M33 0v96l328 468l46 40h-374v96h477v-96l-330 -471l-46 -37h376v-96h-477zM203 752l112 118h134v-25l-162 -93h-84z" />
<glyph unicode="&#x17a;" horiz-adv-x="452" d="M37 0v87l216 283l46 43h-262v87h372v-87l-216 -286l-45 -40h261v-87h-372zM174 569l56 151h109v-25l-106 -126h-59z" />
<glyph unicode="&#x17b;" horiz-adv-x="542" d="M33 0v96l328 468l46 40h-374v96h477v-96l-330 -471l-46 -37h376v-96h-477zM200 798q0 23 20 39.5t53 16.5q34 0 54.5 -16.5t20.5 -39.5q0 -25 -20.5 -41t-54.5 -16t-53.5 16t-19.5 41z" />
<glyph unicode="&#x17c;" horiz-adv-x="452" d="M37 0v87l216 283l46 43h-262v87h372v-87l-216 -286l-45 -40h261v-87h-372zM163 647q0 26 18.5 44t48.5 18t50 -18t20 -44t-19.5 -42.5t-50.5 -16.5q-30 0 -48.5 16.5t-18.5 42.5z" />
<glyph unicode="&#x17d;" horiz-adv-x="542" d="M33 0v96l328 468l46 40h-374v96h477v-96l-330 -471l-46 -37h376v-96h-477zM429 840l-133 -98h-74l-127 99v29h92l56 -48l18 -32l20 31l60 49h88v-30z" />
<glyph unicode="&#x17e;" horiz-adv-x="452" d="M37 0v87l216 283l46 43h-262v87h372v-87l-216 -286l-45 -40h261v-87h-372zM373 732l-123 -182h-61l-115 182h92l39 -66l19 -54l20 54l45 66h84z" />
<glyph unicode="&#x17f;" horiz-adv-x="249" d="M17 413v87h74v28q0 94 35.5 136.5t114.5 42.5q66 0 119 -22l-22 -81q-41 16 -80 16q-19 0 -31.5 -5.5t-19 -13.5t-10 -26t-4 -32t-0.5 -43v-500h-102v413h-74z" />
<glyph unicode="&#x18f;" horiz-adv-x="635" d="M480 310h-319q-3 -21 -3 -49q0 -81 39 -132.5t111 -51.5q83 0 127 59t45 174zM56 400h424q-8 110 -56 164.5t-144 54.5q-82 0 -155 -44l-25 89q82 49 199 49q288 0 288 -363q0 -175 -70 -269t-212 -94q-125 0 -192.5 78t-67.5 208q0 64 11 127z" />
<glyph unicode="&#x192;" horiz-adv-x="595" d="M502 413h-135l-75 -447q-13 -82 -51 -128t-113 -46q-71 0 -130 24l21 83q48 -20 90 -20q37 0 57 30t31 99l64 405h-81v87h96l11 67q13 77 46.5 111.5t108.5 34.5q73 0 136 -28l-27 -79q-48 20 -94 20q-33 0 -47 -19t-22 -69l-6 -38h120v-87z" />
<glyph unicode="&#x1dd;" horiz-adv-x="508" d="M96 387l-38 72q67 54 181 54q113 0 169.5 -70t56.5 -193q0 -125 -58.5 -194t-161.5 -69q-98 0 -150.5 60t-52.5 162q0 28 8 74h316q-5 76 -39.5 111t-111.5 35q-34 0 -67 -13t-52 -29zM245 71q53 0 85.5 38.5t32.5 102.5h-224v-20q1 -58 30 -89.5t76 -31.5z" />
<glyph unicode="&#x1e6;" horiz-adv-x="611" d="M315 293v63h246v-310q-35 -28 -90.5 -43.5t-112.5 -15.5q-140 0 -225 91t-85 272q0 94 27.5 166.5t74.5 114t102 62t115 20.5q99 0 171 -26l-24 -92q-50 22 -136 22q-94 0 -155.5 -64.5t-61.5 -203.5q0 -132 57.5 -199t152.5 -67q64 0 102 25v167zM527 840l-133 -98h-74 l-127 99v29h92l56 -48l18 -32l20 31l60 49h88v-30z" />
<glyph unicode="&#x1e7;" horiz-adv-x="537" d="M469 480v-493q0 -199 -213 -199q-109 0 -167 29l24 83q65 -25 126 -25q74 0 102 30t28 99v41h-4q-38 -55 -129 -55q-99 0 -146.5 62.5t-47.5 192.5q0 129 62.5 197t182.5 68q101 0 182 -30zM260 74q84 0 107 90v243q-35 16 -91 16q-127 0 -127 -176q0 -173 111 -173z M420 732l-123 -182h-61l-115 182h92l39 -66l19 -54l20 54l45 66h84z" />
<glyph unicode="&#x1f4;" horiz-adv-x="611" d="M315 293v63h246v-310q-35 -28 -90.5 -43.5t-112.5 -15.5q-140 0 -225 91t-85 272q0 94 27.5 166.5t74.5 114t102 62t115 20.5q99 0 171 -26l-24 -92q-50 22 -136 22q-94 0 -155.5 -64.5t-61.5 -203.5q0 -132 57.5 -199t152.5 -67q64 0 102 25v167zM300 752l112 118h134 v-25l-162 -93h-84z" />
<glyph unicode="&#x1f5;" horiz-adv-x="537" d="M469 480v-493q0 -199 -213 -199q-109 0 -167 29l24 83q65 -25 126 -25q74 0 102 30t28 99v41h-4q-38 -55 -129 -55q-99 0 -146.5 62.5t-47.5 192.5q0 129 62.5 197t182.5 68q101 0 182 -30zM260 74q84 0 107 90v243q-35 16 -91 16q-127 0 -127 -176q0 -173 111 -173z M236 569l56 151h109v-25l-106 -126h-59z" />
<glyph unicode="&#x1fa;" horiz-adv-x="594" d="M183 770q0 87 115 87q116 0 116 -87q0 -68 -77 -82l253 -688h-113l-65 177h-239l-63 -177h-105l252 688q-74 15 -74 82zM269 452l-66 -188h183l-67 189l-24 108h-2zM254 770q0 -36 44 -36q45 0 45 36q0 38 -45 38q-44 0 -44 -38zM240 882l112 118h134v-25l-162 -93h-84z " />
<glyph unicode="&#x1fb;" horiz-adv-x="496" d="M91 390l-29 75q76 44 202 44q96 0 132 -44t36 -119q0 -38 -3.5 -110.5t-3.5 -104.5q0 -80 16 -132h-80l-21 69h-5q-52 -76 -152 -76q-67 0 -109 39.5t-42 104.5q0 156 252 156q30 0 45 -1q3 25 3 45q0 48 -20 67t-71 19q-88 0 -150 -32zM215 77q83 0 114 70v75 q-32 2 -47 2q-143 0 -143 -75q0 -32 21 -52t55 -20zM146 640q0 42 28 67.5t75 25.5t75.5 -24t28.5 -69q0 -40 -29 -66t-75 -26q-47 0 -75 25t-28 67zM208 640q0 -17 12 -27.5t29 -10.5q42 0 42 38q0 19 -12 29t-30 10t-29.5 -10t-11.5 -29zM187 752l112 118h134v-25 l-162 -93h-84z" />
<glyph unicode="&#x1fc;" horiz-adv-x="853" d="M397 570h-5l-34 -103l-111 -195h150v298zM397 0v185h-201l-106 -185h-115l419 700h399v-94h-289v-202h264v-94h-264v-216h294v-94h-401zM422 752l112 118h134v-25l-162 -93h-84z" />
<glyph unicode="&#x1fd;" horiz-adv-x="791" d="M215 77q83 0 114 70v75q-24 2 -38 2q-72 -1 -112 -17t-40 -58q0 -32 21 -52t55 -20zM366 80h-7q-65 -88 -176 -88q-67 0 -109 39.5t-42 104.5q0 157 245 157q18 0 52 -2q3 25 3 45q0 48 -20 67t-71 19q-85 0 -150 -35l-29 75q81 47 202 47q100 0 135 -60q24 31 66 47.5 t89 16.5q38 0 70.5 -9.5t61.5 -30t45.5 -59t16.5 -92.5q0 -48 -7 -91h-313q2 -79 36.5 -119.5t110.5 -40.5q34 0 68 12t53 28l36 -70q-68 -54 -181 -54q-62 0 -111 24.5t-74 68.5zM554 429q-113 0 -123 -128h220v16q0 55 -25.5 83.5t-71.5 28.5zM357 569l56 151h109v-25 l-106 -126h-59z" />
<glyph unicode="&#x1fe;" horiz-adv-x="678" d="M48 350q0 174 75.5 268.5t214.5 94.5q101 0 168 -49l34 50l67 -42l-44 -65q67 -94 67 -257q0 -174 -76.5 -268.5t-215.5 -94.5q-96 0 -163 45l-30 -45l-67 44l39 58q-69 95 -69 261zM161 350q0 -93 26 -158l260 384q-45 43 -109 43q-84 0 -130.5 -67.5t-46.5 -201.5z M517 350q0 88 -24 152l-258 -382q41 -39 103 -39q86 0 132.5 66.5t46.5 202.5zM288 752l112 118h134v-25l-162 -93h-84z" />
<glyph unicode="&#x1ff;" horiz-adv-x="537" d="M41 250q0 126 59.5 194.5t167.5 68.5q67 0 116 -27l25 34l64 -47l-29 -40q50 -68 50 -183q0 -126 -59 -194.5t-167 -68.5q-71 0 -122 30l-26 -36l-66 48l32 44q-45 65 -45 177zM387 250q0 61 -13 97l-178 -248q28 -25 72 -25q119 0 119 176zM148 250q0 -54 11 -90 l176 245q-29 21 -67 21q-120 0 -120 -176zM223 569l56 151h109v-25l-106 -126h-59z" />
<glyph unicode="&#x218;" horiz-adv-x="530" d="M382 182q0 41 -34 70t-82 49.5t-96 44.5t-82 69.5t-34 109.5q0 90 60.5 139t166.5 49q125 0 195 -36l-33 -91q-58 33 -164 33q-56 0 -86 -24t-30 -62q0 -32 24.5 -58t60.5 -42.5t79 -38.5t79 -45t60.5 -63.5t24.5 -92.5q0 -98 -66 -152t-180 -54q-134 0 -208 39l35 93 q69 -38 168 -38q66 0 104 25.5t38 75.5zM195 -103q0 24 17 39t41 15q31 0 51 -21t20 -60q0 -51 -29 -83t-61 -45l-31 42q43 22 44 62h-6q-20 0 -33 13.5t-13 37.5z" />
<glyph unicode="&#x219;" horiz-adv-x="422" d="M282 137q0 28 -24 46t-59 29.5t-69.5 27t-58.5 47.5t-24 81q0 71 42 108t120 37q94 0 164 -35l-24 -78q-64 29 -127 29q-73 0 -73 -58q0 -24 24 -40.5t58.5 -28.5t69.5 -27.5t59 -48.5t24 -82q0 -72 -47 -114.5t-135 -42.5q-100 0 -169 41l29 80q67 -37 137 -37 q83 0 83 66zM148 -103q0 24 17 39t41 15q31 0 51 -21t20 -60q0 -51 -29 -83t-61 -45l-31 42q43 22 44 62h-6q-20 0 -33 13.5t-13 37.5z" />
<glyph unicode="&#x21a;" horiz-adv-x="561" d="M546 700v-96h-212v-604h-107v604h-212v96h531zM212 -103q0 24 17 39t41 15q31 0 51 -21t20 -60q0 -51 -29 -83t-61 -45l-31 42q43 22 44 62h-6q-20 0 -33 13.5t-13 37.5z" />
<glyph unicode="&#x21b;" horiz-adv-x="344" d="M8 413v87h74v97l102 29v-126h130v-87h-130v-240q0 -52 12 -74t42 -22q33 0 77 18l20 -78q-64 -30 -132 -30q-64 0 -92.5 35.5t-28.5 115.5v275h-74zM121 -103q0 24 17 39t41 15q31 0 51 -21t20 -60q0 -51 -29 -83t-61 -45l-31 42q43 22 44 62h-6q-20 0 -33 13.5t-13 37.5 z" />
<glyph unicode="&#x237;" horiz-adv-x="265" d="M83 9v491h102v-524q0 -186 -142 -186q-24 0 -45 4v86h7q47 0 62.5 30t15.5 99z" />
<glyph unicode="&#x259;" horiz-adv-x="508" d="M96 387l-38 72q67 54 181 54q113 0 169.5 -70t56.5 -193q0 -125 -58.5 -194t-161.5 -69q-98 0 -150.5 60t-52.5 162q0 28 8 74h316q-5 76 -39.5 111t-111.5 35q-34 0 -67 -13t-52 -29zM245 71q53 0 85.5 38.5t32.5 102.5h-224v-20q1 -58 30 -89.5t76 -31.5z" />
<glyph unicode="&#x2bc;" horiz-adv-x="207" d="M39 652q0 25 16.5 40.5t43.5 15.5q31 0 50 -20.5t19 -56.5q0 -63 -31 -98.5t-67 -48.5l-28 43q50 25 50 70h-7q-20 0 -33 15t-13 40z" />
<glyph unicode="&#x2c6;" horiz-adv-x="410" d="M60 550l123 182h56l111 -182h-86l-39 66l-19 54l-20 -54l-45 -66h-81z" />
<glyph unicode="&#x2c7;" horiz-adv-x="419" d="M359 732l-123 -182h-61l-115 182h92l39 -66l19 -54l20 54l45 66h84z" />
<glyph unicode="&#x2d8;" horiz-adv-x="441" d="M60 693l53 27q38 -69 112 -69t106 69l50 -22q-5 -51 -50 -90t-107 -39q-60 0 -105 33.5t-59 90.5z" />
<glyph unicode="&#x2d9;" horiz-adv-x="257" d="M60 647q0 26 18.5 44t48.5 18t50 -18t20 -44t-19.5 -42.5t-50.5 -16.5q-30 0 -48.5 16.5t-18.5 42.5z" />
<glyph unicode="&#x2da;" horiz-adv-x="327" d="M60 645q0 42 28 67.5t75 25.5t75.5 -24t28.5 -69q0 -40 -29 -66t-75 -26q-47 0 -75 25t-28 67zM122 645q0 -17 12 -27.5t29 -10.5q42 0 42 38q0 19 -12 29t-30 10t-29.5 -10t-11.5 -29z" />
<glyph unicode="&#x2db;" horiz-adv-x="325" d="M163 10h75q-76 -29 -76 -89q0 -47 48 -47q20 0 40 11l15 -52q-36 -29 -99 -29q-49 0 -77.5 24.5t-28.5 65.5q0 80 103 116z" />
<glyph unicode="&#x2dc;" horiz-adv-x="422" d="M81 605l-21 52q52 60 105 60q25 0 66 -20t62 -20q22 0 47 25l22 -55q-48 -54 -96 -54q-24 0 -64 20.5t-57 20.5q-35 0 -64 -29z" />
<glyph unicode="&#x2dd;" horiz-adv-x="419" d="M60 571l35 129h96v-16l-73 -113h-58zM182 571l73 129h104v-16l-116 -113h-61z" />
<glyph unicode="&#x300;" horiz-adv-x="2" d="M-251 720l63 -151h-57l-119 126v25h113z" />
<glyph unicode="&#x301;" horiz-adv-x="2" d="M-298 569l56 151h109v-25l-106 -126h-59z" />
<glyph unicode="&#x394;" horiz-adv-x="576" d="M566 0h-553v52l248 656h54l251 -656v-52zM258 446l-129 -356h317l-135 358l-24 103h-3z" />
<glyph unicode="&#x3a9;" horiz-adv-x="791" d="M68 0v87h111l90 -11v27l-50 10q-66 31 -108 102t-42 170q0 151 88.5 239.5t237.5 88.5q153 0 240 -91t87 -241q0 -97 -43 -165t-105 -102l-53 -11v-27l91 11h111v-87h-293v160q31 5 60 19.5t57 40t45 68t17 96.5q0 97 -53.5 165t-161.5 68q-103 0 -157.5 -60t-54.5 -176 q0 -101 53 -156t125 -65v-160h-292z" />
<glyph unicode="&#x3bc;" horiz-adv-x="560" d="M61 500h102v-279q0 -74 23.5 -110t78.5 -36q50 0 84 28t48 77v320h102v-337q0 -103 15 -163h-73l-30 74h-4q-20 -38 -59 -62t-92 -24q-68 0 -109 50h-5l21 -105v-133h-102v700z" />
<glyph unicode="&#x3c0;" horiz-adv-x="678" d="M537 413v-279q0 -49 32 -49q20 0 44 6l20 -71q-60 -25 -109 -25q-50 0 -69.5 27.5t-19.5 83.5v307h-168v-413h-102v413h-14q-33 0 -59 -45l-63 39q38 93 136 93h455v-87h-83z" />
<glyph unicode="&#x401;" horiz-adv-x="530" d="M74 0v700h396v-94h-289v-202h264v-94h-264v-216h294v-94h-401zM103 796q0 24 17 38t47 14q29 0 45.5 -14t16.5 -38t-16 -37.5t-46 -13.5t-47 13.5t-17 37.5zM305 796q0 24 16.5 38t45.5 14q31 0 47.5 -14t16.5 -38t-16.5 -37.5t-47.5 -13.5q-29 0 -45.5 14t-16.5 37z" />
<glyph unicode="&#x402;" horiz-adv-x="733" d="M334 331v-331h-107v604h-212v96h531v-96h-212v-180q63 21 139 21q91 0 151.5 -49.5t60.5 -166.5q0 -237 -236 -237q-47 0 -67 4v93q20 -3 66 -3q124 0 124 136q0 73 -36 101t-101 28q-58 0 -101 -20z" />
<glyph unicode="&#x403;" horiz-adv-x="449" d="M463 700v-96h-282v-604h-107v700h389zM193 752l112 118h134v-25l-162 -93h-84z" />
<glyph unicode="&#x404;" horiz-adv-x="580" d="M510 115l23 -86q-56 -42 -178 -42q-64 0 -118.5 21t-97.5 63.5t-67 114t-24 164.5q0 96 27 168.5t72.5 113.5t98.5 61t111 20q102 0 166 -25l-23 -93q-45 22 -134 22q-80 0 -136 -52t-67 -160h292v-90h-294q8 -111 65.5 -171.5t150.5 -60.5q81 0 133 32z" />
<glyph unicode="&#x405;" horiz-adv-x="530" d="M382 182q0 41 -34 70t-82 49.5t-96 44.5t-82 69.5t-34 109.5q0 90 60.5 139t166.5 49q125 0 195 -36l-33 -91q-58 33 -164 33q-56 0 -86 -24t-30 -62q0 -32 24.5 -58t60.5 -42.5t79 -38.5t79 -45t60.5 -63.5t24.5 -92.5q0 -98 -66 -152t-180 -54q-134 0 -208 39l35 93 q69 -38 168 -38q66 0 104 25.5t38 75.5z" />
<glyph unicode="&#x406;" horiz-adv-x="287" d="M90 0v700h107v-700h-107z" />
<glyph unicode="&#x407;" horiz-adv-x="295" d="M26 792q0 26 15 41t40 15q24 0 39 -15t15 -41q0 -24 -15 -38.5t-39 -14.5q-25 0 -40 14t-15 39zM160 792q0 26 15 41t39 15q25 0 40 -15t15 -41q0 -25 -15 -39t-40 -14q-24 0 -39 14.5t-15 38.5zM93 0v700h107v-700h-107z" />
<glyph unicode="&#x408;" horiz-adv-x="310" d="M120 196v504h107v-531q0 -83 -38.5 -131.5t-115.5 -48.5q-61 0 -102 19l22 89q25 -12 60 -12q39 0 53 27.5t14 83.5z" />
<glyph unicode="&#x409;" horiz-adv-x="930" d="M443 7v597h-183q-9 -211 -26 -333.5t-52 -190.5q-45 -86 -127 -86q-35 0 -62 12l13 92q14 -4 22 -4q37 0 63 45q61 106 69 561h390v-263q37 8 97 8q52 0 94.5 -10t80 -33.5t58.5 -67t21 -105.5q0 -117 -75 -177.5t-205 -60.5q-113 0 -178 16zM631 85q70 0 113.5 34 t43.5 103q0 129 -159 129q-52 0 -79 -9v-251q26 -6 81 -6z" />
<glyph unicode="&#x40a;" horiz-adv-x="969" d="M481 5v317h-300v-322h-107v700h107v-282h300v282h107v-280q37 8 98 8q254 0 254 -208q0 -116 -74.5 -172.5t-205.5 -56.5q-101 0 -179 14zM669 85q158 0 158 129q0 70 -42 95t-117 25q-53 0 -80 -9v-234q24 -6 81 -6z" />
<glyph unicode="&#x40b;" horiz-adv-x="753" d="M334 307v-307h-107v604h-212v96h531v-96h-212v-206q75 43 172 43q191 0 191 -195v-246h-107v219q0 65 -28 96.5t-86 31.5q-94 0 -142 -40z" />
<glyph unicode="&#x40c;" horiz-adv-x="615" d="M456 0l-233 313h-42v-313h-107v700h107v-319l39 14l217 305h122l-221 -298l-47 -35l53 -40l246 -327h-134zM219 752l112 118h134v-25l-162 -93h-84z" />
<glyph unicode="&#x40e;" horiz-adv-x="560" d="M125 700l162 -342l23 -90h6l18 93l121 339h110l-181 -468q-53 -139 -91 -188.5t-108 -49.5q-56 0 -93 23l29 88q29 -15 66 -15q49 0 73 95l-260 515h125zM114 852l99 20q8 -70 84 -70t84 69l89 -17q-23 -119 -174 -119q-165 0 -182 117z" />
<glyph unicode="&#x40f;" horiz-adv-x="650" d="M272 0h-198v700h107v-604h288v604h107v-700h-201l-15 -177h-68z" />
<glyph unicode="&#x410;" horiz-adv-x="594" d="M477 0l-65 177h-239l-63 -177h-105l259 708h66l260 -708h-113zM269 452l-66 -188h183l-67 189l-24 108h-2z" />
<glyph unicode="&#x411;" horiz-adv-x="559" d="M74 7v693h402v-96h-295v-181q52 9 90 9q254 0 254 -209q0 -115 -73 -173.5t-193 -58.5q-119 0 -185 16zM269 81q63 0 103 33t40 96q0 77 -41.5 104.5t-115.5 27.5q-50 0 -74 -8v-248q21 -5 88 -5z" />
<glyph unicode="&#x412;" horiz-adv-x="587" d="M518 539q0 -57 -32.5 -102.5t-96.5 -61.5v-5q66 -11 108 -53t42 -119q0 -69 -39.5 -117.5t-98 -69t-128.5 -20.5q-139 0 -199 14v689q83 15 201 15q243 0 243 -170zM278 81q63 0 105.5 30.5t42.5 86.5q0 115 -166 115h-82v-226q24 -6 100 -6zM178 397h49q48 0 73 4 q48 16 78 45t30 71q0 102 -136 102q-72 0 -94 -5v-217z" />
<glyph unicode="&#x413;" horiz-adv-x="449" d="M463 700v-96h-282v-604h-107v700h389z" />
<glyph unicode="&#x414;" horiz-adv-x="679" d="M656 96v-223h-75l-15 127h-473l-15 -127h-75v223h72q10 14 24 52.5t31.5 108t29 186.5t11.5 257h394v-604h91zM188 96h270v508h-187q-11 -364 -83 -508z" />
<glyph unicode="&#x415;" horiz-adv-x="530" d="M74 0v700h396v-94h-289v-202h264v-94h-264v-216h294v-94h-401z" />
<glyph unicode="&#x416;" horiz-adv-x="821" d="M355 393v307h102v-319l39 14l177 305h120l-185 -305l-43 -33l53 -42l206 -320h-130l-195 315h-42v-315h-102v327l-40 -14l-194 -313h-125l204 310l51 39l-49 36l-192 315h125l177 -307h43z" />
<glyph unicode="&#x417;" horiz-adv-x="534" d="M173 322h-43v85h20q70 0 96 6q47 8 77 35t30 68q0 102 -127 102q-87 0 -149 -30l-28 87q25 13 80 25t114 12q45 0 82.5 -8.5t70.5 -27.5t51.5 -54t18.5 -83q0 -54 -32 -98t-93 -63v-4q69 -11 108 -55t39 -115q0 -72 -39.5 -123t-98 -72.5t-128.5 -21.5q-122 0 -189 31 l27 94q64 -31 166 -31q60 0 104.5 32.5t44.5 92.5q0 108 -160 114q-32 2 -42 2z" />
<glyph unicode="&#x418;" horiz-adv-x="674" d="M494 0v436l6 85h-4l-45 -88l-304 -433h-73v700h107v-436l-9 -86h5l47 89l304 433h73v-700h-107z" />
<glyph unicode="&#x419;" horiz-adv-x="674" d="M494 0v436l6 85h-4l-45 -88l-304 -433h-73v700h107v-436l-9 -86h5l47 89l304 433h73v-700h-107zM166 852l99 20q8 -70 84 -70t84 69l89 -17q-23 -119 -174 -119q-165 0 -182 117z" />
<glyph unicode="&#x41a;" horiz-adv-x="615" d="M456 0l-233 313h-42v-313h-107v700h107v-319l39 14l217 305h122l-221 -298l-47 -35l53 -40l246 -327h-134z" />
<glyph unicode="&#x41b;" horiz-adv-x="624" d="M443 0v604h-183q-9 -211 -26 -333.5t-52 -190.5q-45 -86 -127 -86q-35 0 -62 12l13 92q14 -4 22 -4q37 0 63 45q61 106 69 561h390v-700h-107z" />
<glyph unicode="&#x41c;" horiz-adv-x="795" d="M614 0v423l12 119h-5l-40 -103l-168 -291h-33l-177 292l-40 102h-5l18 -118v-424h-102v700h90l205 -341l33 -79h3l30 81l195 339h91v-700h-107z" />
<glyph unicode="&#x41d;" horiz-adv-x="663" d="M482 0v308h-301v-308h-107v700h107v-296h301v296h107v-700h-107z" />
<glyph unicode="&#x41e;" horiz-adv-x="678" d="M48 350q0 174 75.5 268.5t214.5 94.5q145 0 218.5 -97t73.5 -266q0 -174 -76.5 -268.5t-215.5 -94.5q-144 0 -217 97t-73 266zM161 350q0 -118 44.5 -193.5t132.5 -75.5q86 0 132.5 66.5t46.5 202.5q0 118 -44.5 193.5t-134.5 75.5q-84 0 -130.5 -67.5t-46.5 -201.5z" />
<glyph unicode="&#x41f;" horiz-adv-x="650" d="M469 0v604h-288v-604h-107v700h502v-700h-107z" />
<glyph unicode="&#x420;" horiz-adv-x="565" d="M74 0v693q69 16 180 16q54 0 99.5 -9.5t88 -32.5t67 -69t24.5 -112q0 -120 -78 -177.5t-193 -57.5q-62 0 -81 4v-255h-107zM259 615q-57 0 -78 -5v-260q15 -5 70 -5q169 0 169 142q0 69 -46 98.5t-115 29.5z" />
<glyph unicode="&#x421;" horiz-adv-x="566" d="M510 115l23 -86q-56 -42 -178 -42q-64 0 -118.5 21t-97.5 63.5t-67 114t-24 164.5q0 96 27 168.5t72.5 113.5t98.5 61t111 20q102 0 166 -25l-23 -93q-45 22 -134 22q-90 0 -147.5 -65.5t-57.5 -201.5q0 -127 58 -197t158 -70q81 0 133 32z" />
<glyph unicode="&#x422;" horiz-adv-x="561" d="M546 700v-96h-212v-604h-107v604h-212v96h531z" />
<glyph unicode="&#x423;" horiz-adv-x="560" d="M125 700l162 -342l23 -90h6l18 93l121 339h110l-181 -468q-53 -139 -91 -188.5t-108 -49.5q-56 0 -93 23l29 88q29 -15 66 -15q49 0 73 95l-260 515h125z" />
<glyph unicode="&#x424;" horiz-adv-x="791" d="M342 -20v97q-30 -5 -82 -5q-100 0 -163 70t-63 208q0 134 67 211.5t178 77.5q43 0 63 -4v85h107v-88q28 7 83 7q100 0 162.5 -72.5t62.5 -206.5q0 -136 -69 -212t-173 -76q-44 0 -66 7v-99h-107zM511 552q-46 0 -65 -6v-385q12 -2 53 -2q65 0 107 51t42 149q0 87 -37 140 t-100 53zM284 159q44 0 61 5v385q-21 3 -55 3q-65 0 -106 -51.5t-41 -149.5q0 -88 38.5 -140t102.5 -52z" />
<glyph unicode="&#x425;" horiz-adv-x="625" d="M19 0l225 356l-205 344h129l127 -222l24 -63l24 63l133 222h118l-212 -337l222 -363h-127l-142 236l-28 66l-25 -66l-145 -236h-118z" />
<glyph unicode="&#x426;" horiz-adv-x="685" d="M662 96v-223h-75l-15 127h-498v700h107v-604h282v604h107v-604h92z" />
<glyph unicode="&#x427;" horiz-adv-x="606" d="M61 700h107v-228q0 -128 115 -128q96 0 142 40v316h107v-700h-107v293q-73 -43 -173 -43q-191 0 -191 195v255z" />
<glyph unicode="&#x428;" horiz-adv-x="869" d="M795 0h-721v700h107v-604h200v604h107v-604h200v604h107v-700z" />
<glyph unicode="&#x429;" horiz-adv-x="911" d="M798 0h-724v700h107v-604h200v604h107v-604h200v604h107v-604h93v-223h-75z" />
<glyph unicode="&#x42a;" horiz-adv-x="645" d="M157 7v597h-159v96h266v-263q37 8 98 8q52 0 94.5 -10t80 -33.5t58.5 -67t21 -105.5q0 -117 -75 -177.5t-205 -60.5q-114 0 -179 16zM345 85q70 0 114 34.5t44 102.5q0 129 -160 129q-52 0 -79 -9v-251q24 -6 81 -6z" />
<glyph unicode="&#x42b;" horiz-adv-x="781" d="M600 0v700h107v-700h-107zM74 7v693h107v-263q37 8 84 8q247 0 247 -216q0 -118 -71 -178t-199 -60q-104 0 -168 16zM250 85q68 0 108.5 34.5t40.5 103.5q0 128 -151 128q-40 0 -67 -9v-251q24 -6 69 -6z" />
<glyph unicode="&#x42c;" horiz-adv-x="561" d="M74 7v693h107v-263q37 8 97 8q52 0 94.5 -10t80 -33.5t58.5 -67t21 -105.5q0 -117 -75 -177.5t-205 -60.5q-113 0 -178 16zM262 85q70 0 113.5 34t43.5 103q0 129 -159 129q-52 0 -79 -9v-251q26 -6 81 -6z" />
<glyph unicode="&#x42d;" horiz-adv-x="576" d="M141 312v87h279q-7 105 -63 162.5t-146 57.5t-150 -35l-25 88q73 41 183 41q142 0 225.5 -87.5t83.5 -275.5q0 -97 -26.5 -169.5t-73.5 -113.5t-104.5 -60.5t-125.5 -19.5q-99 0 -164 29l28 93q58 -28 144 -28q87 0 148 57t67 174h-280z" />
<glyph unicode="&#x42e;" horiz-adv-x="895" d="M181 700v-296h110q11 149 81.5 229t196.5 80q144 0 211 -95.5t67 -267.5q0 -176 -70.5 -269.5t-207.5 -93.5q-132 0 -201 85t-77 236h-110v-308h-107v700h107zM401 350q0 -78 15.5 -136t54.5 -95.5t98 -37.5q84 0 124.5 65.5t40.5 203.5q0 269 -165 269q-168 0 -168 -269 z" />
<glyph unicode="&#x42f;" horiz-adv-x="574" d="M500 693v-693h-107v293l-90 -21l-161 -272h-125l150 242l61 43q-72 17 -116.5 69t-44.5 137q0 218 274 218q94 0 159 -16zM331 615q-151 0 -151 -127q0 -65 42 -97t110 -32h61v250q-25 6 -62 6z" />
<glyph unicode="&#x430;" horiz-adv-x="496" d="M91 390l-29 75q76 44 202 44q96 0 132 -44t36 -119q0 -38 -3.5 -110.5t-3.5 -104.5q0 -80 16 -132h-80l-21 69h-5q-52 -76 -152 -76q-67 0 -109 39.5t-42 104.5q0 156 252 156q30 0 45 -1q3 25 3 45q0 48 -20 67t-71 19q-88 0 -150 -32zM215 77q83 0 114 70v75 q-32 2 -47 2q-143 0 -143 -75q0 -32 21 -52t55 -20z" />
<glyph unicode="&#x431;" horiz-adv-x="537" d="M131 409q31 45 71.5 65t98.5 20q92 0 143 -59.5t51 -173.5q0 -133 -59 -203.5t-166 -70.5q-228 0 -228 316q0 63 5 114.5t16 89t23.5 66t33 47.5t39.5 31.5t47 20.5t51.5 11.5t57.5 6.5q108 9 136 36l7 -92q-19 -16 -51 -22.5t-100 -11.5q-45 -3 -72.5 -10.5t-51.5 -27.5 t-37 -57t-18 -96h3zM149 247q0 -76 30 -124.5t89 -48.5q120 0 120 176q0 157 -109 157q-130 0 -130 -160z" />
<glyph unicode="&#x432;" horiz-adv-x="502" d="M68 1v498q138 9 179 9q102 0 147.5 -31t45.5 -94q0 -37 -22 -70t-64 -47v-4q105 -22 105 -121q0 -149 -232 -149q-55 0 -159 9zM168 223v-143q29 -4 71 -4q61 0 89.5 18t28.5 58q0 71 -109 71h-80zM168 292h86q34 0 60 20t26 47q0 34 -22 49.5t-74 15.5q-19 0 -76 -3 v-129z" />
<glyph unicode="&#x433;" horiz-adv-x="372" d="M374 500v-90h-201v-410h-105v500h306z" />
<glyph unicode="&#x434;" horiz-adv-x="553" d="M534 90v-211h-72l-15 121h-358l-15 -121h-72v211h59q15 20 30 58.5t31 134t17 217.5h322v-410h73zM164 87h195v326h-130q-4 -90 -21 -182t-44 -144z" />
<glyph unicode="&#x435;" horiz-adv-x="508" d="M413 111l36 -70q-67 -54 -181 -54t-170 69t-56 194q0 128 59.5 195.5t169.5 67.5q38 0 70.5 -9t61 -29.5t45 -59t17.5 -92.5q0 -49 -7 -92h-312q2 -79 36 -119.5t110 -40.5q34 0 68 12t53 28zM271 429q-112 0 -122 -128h219q0 2 0.5 8t0.5 9q0 55 -26 83t-72 28z" />
<glyph unicode="&#x436;" horiz-adv-x="674" d="M284 227l-43 -14l-127 -213h-116l146 229l34 30l-51 38l-118 203h109l118 -210h48v210h98v-220l43 14l119 206h108l-124 -203l-39 -32l51 -40l136 -225h-119l-127 217h-48v-217h-98v227z" />
<glyph unicode="&#x437;" horiz-adv-x="437" d="M172 216h-54v76h66q36 0 63 19.5t27 47.5q0 33 -23.5 47.5t-72.5 14.5q-66 0 -120 -34l-25 78q75 43 175 43q168 0 168 -124q0 -37 -22 -70t-61 -46v-4q54 -11 78 -41.5t24 -82.5q0 -66 -54 -108t-157 -42q-85 0 -153 34l25 82q53 -29 127 -29q110 0 110 74q0 33 -28 49 t-93 16z" />
<glyph unicode="&#x438;" horiz-adv-x="545" d="M375 0v266l5 66h-3l-42 -68l-205 -264h-62v500h102v-275l-4 -63h4l40 66l205 272h62v-500h-102z" />
<glyph unicode="&#x439;" horiz-adv-x="545" d="M375 0v266l5 66h-3l-42 -68l-205 -264h-62v500h102v-275l-4 -63h4l40 66l205 272h62v-500h-102zM117 678l87 25q14 -77 80 -77t80 76l77 -22q-10 -59 -53.5 -91t-106.5 -32q-62 0 -108 30.5t-56 90.5z" />
<glyph unicode="&#x43a;" horiz-adv-x="483" d="M358 0l-146 217h-42v-217h-102v500h102v-220l38 14l141 206h110l-140 -196l-46 -35l54 -40l153 -229h-122z" />
<glyph unicode="&#x43b;" horiz-adv-x="508" d="M338 0v410h-124q-3 -44 -5 -69.5t-6.5 -69.5t-10 -71.5t-13.5 -63t-19 -57.5t-25.5 -43t-34 -31t-42.5 -10q-46 0 -68 12l14 85q17 -5 28 -5q28 0 45.5 32t29.5 124t16 257h317v-500h-102z" />
<glyph unicode="&#x43c;" horiz-adv-x="655" d="M488 0v267l6 99h-4l-38 -81l-109 -178h-37l-115 178l-36 81h-5l11 -98v-268h-93v500h104l129 -208l29 -60h2l30 62l120 206h105v-500h-99z" />
<glyph unicode="&#x43d;" horiz-adv-x="539" d="M369 0v210h-199v-210h-102v500h102v-200h199v200h102v-500h-102z" />
<glyph unicode="&#x43e;" horiz-adv-x="537" d="M42 250q0 126 59 194.5t167 68.5q112 0 169.5 -70.5t57.5 -192.5q0 -126 -59.5 -194.5t-167.5 -68.5q-112 0 -169 70t-57 193zM149 250q0 -78 29 -127t90 -49q120 0 120 176q0 80 -29 128t-91 48q-119 0 -119 -176z" />
<glyph unicode="&#x43f;" horiz-adv-x="534" d="M364 0v410h-194v-410h-102v500h398v-500h-102z" />
<glyph unicode="&#x440;" horiz-adv-x="541" d="M68 -200v700h73l15 -60h4q49 73 145 73q98 0 146 -60.5t48 -191.5q0 -127 -61.5 -200.5t-168.5 -73.5q-56 0 -99 20v-207h-102zM280 426q-86 0 -110 -95v-230q35 -27 90 -27q63 0 97.5 48t34.5 141q0 163 -112 163z" />
<glyph unicode="&#x441;" horiz-adv-x="443" d="M387 110l28 -78q-62 -45 -158 -45q-215 0 -215 263q0 126 57 194.5t163 68.5q86 0 145 -31l-27 -85q-50 26 -105 26q-126 0 -126 -173q0 -76 32.5 -124.5t100.5 -48.5q61 0 105 33z" />
<glyph unicode="&#x442;" horiz-adv-x="407" d="M406 500v-90h-150v-410h-105v410h-150v90h405z" />
<glyph unicode="&#x443;" horiz-adv-x="471" d="M123 500l108 -305l23 -88h6l18 89l88 304h104l-150 -450q-17 -52 -27.5 -81t-28 -67.5t-33.5 -58t-39 -34t-49 -14.5q-44 0 -69 13l18 87q14 -6 27 -6q63 0 88 111l-204 500h120z" />
<glyph unicode="&#x444;" horiz-adv-x="689" d="M295 -200v195q-23 -8 -69 -8q-189 0 -189 263q0 126 54 192.5t156 66.5q28 0 48 -4v195h99v-196q30 5 59 5q101 0 150 -59t49 -190q0 -127 -53 -200t-150 -73q-35 0 -55 7v-194h-99zM432 426q-25 0 -41 -5v-348q12 -3 46 -3q113 0 113 190q0 84 -27.5 125t-90.5 41z M252 70q25 0 46 5v347q-20 4 -44 4q-115 0 -115 -176q0 -84 28.5 -132t84.5 -48z" />
<glyph unicode="&#x445;" horiz-adv-x="519" d="M19 0l172 256l-160 244h124l81 -124l28 -63l29 63l85 124h112l-161 -240l171 -260h-119l-94 138l-30 66l-31 -66l-94 -138h-113z" />
<glyph unicode="&#x446;" horiz-adv-x="553" d="M534 90v-211h-72l-15 121h-379v500h102v-410h189v410h102v-410h73z" />
<glyph unicode="&#x447;" horiz-adv-x="497" d="M42 500h102v-126q0 -63 15.5 -91t62.5 -28q68 0 105 29v216h102v-500h-102v204q-54 -36 -133 -36q-77 0 -114.5 38t-37.5 134v160z" />
<glyph unicode="&#x448;" horiz-adv-x="744" d="M676 0h-608v500h102v-410h151v410h102v-410h151v410h102v-500z" />
<glyph unicode="&#x449;" horiz-adv-x="766" d="M748 90v-220h-72l-15 130h-593v500h102v-410h151v410h102v-410h151v410h102v-410h72z" />
<glyph unicode="&#x44a;" horiz-adv-x="516" d="M210 237v-151q34 -6 65 -6q108 0 108 84q0 80 -105 80q-39 0 -68 -7zM210 500v-185q45 7 91 7q98 0 143.5 -41.5t45.5 -110.5q0 -91 -55 -134t-175 -43q-72 0 -152 7v410h-110v90h212z" />
<glyph unicode="&#x44b;" horiz-adv-x="679" d="M170 237v-151q34 -6 65 -6q52 0 75 21t23 63q0 80 -95 80q-39 0 -68 -7zM170 500v-185q45 7 91 7q179 0 179 -152q0 -92 -51.5 -134.5t-168.5 -42.5q-72 0 -152 7v500h102zM509 0v500h102v-500h-102z" />
<glyph unicode="&#x44c;" horiz-adv-x="476" d="M170 237v-151q34 -6 65 -6q108 0 108 84q0 37 -26.5 58.5t-78.5 21.5q-39 0 -68 -7zM170 500v-185q45 7 91 7q98 0 143.5 -41.5t45.5 -110.5q0 -91 -55 -134t-175 -43q-72 0 -152 7v500h102z" />
<glyph unicode="&#x44d;" horiz-adv-x="462" d="M116 214v78h200q-5 62 -38.5 98t-93.5 36q-63 0 -120 -34l-31 76q65 45 171 45q217 0 217 -263q0 -128 -60 -195.5t-167 -67.5q-104 0 -161 33l27 83q53 -29 120 -29q66 0 99 34t38 106h-201z" />
<glyph unicode="&#x44e;" horiz-adv-x="726" d="M472 -13q-106 0 -156 58.5t-56 167.5h-90v-213h-102v500h102v-200h91q19 213 213 213q107 0 158.5 -69.5t51.5 -193.5q0 -128 -53.5 -195.5t-158.5 -67.5zM359 250q0 -176 114 -176q55 0 79.5 41.5t24.5 134.5q0 84 -23.5 130t-82.5 46q-58 0 -85 -42t-27 -134z" />
<glyph unicode="&#x44f;" horiz-adv-x="487" d="M324 0v199l-70 -12l-116 -187h-123l110 165l44 37q-52 9 -86 45.5t-34 92.5q0 173 228 173q64 0 149 -16v-497h-102zM324 255v161q-25 10 -54 10q-114 0 -114 -88q0 -41 31.5 -63t88.5 -22q3 0 48 2z" />
<glyph unicode="&#x451;" horiz-adv-x="508" d="M413 111l36 -70q-67 -54 -181 -54t-170 69t-56 194q0 128 59.5 195.5t169.5 67.5q38 0 70.5 -9t61 -29.5t45 -59t17.5 -92.5q0 -49 -7 -92h-312q2 -79 36 -119.5t110 -40.5q34 0 68 12t53 28zM271 429q-112 0 -122 -128h219q0 2 0.5 8t0.5 9q0 55 -26 83t-72 28zM103 632 q0 26 16.5 43t42.5 17t42 -17t16 -43q0 -25 -16 -41t-42 -16t-42.5 16t-16.5 41zM307 632q0 26 16 43t42 17q27 0 43 -16.5t16 -43.5q0 -25 -16 -41t-43 -16q-26 0 -42 16t-16 41z" />
<glyph unicode="&#x452;" horiz-adv-x="549" d="M386 0v131q0 74 -20.5 106.5t-74.5 32.5q-41 0 -74.5 -27t-43.5 -69v-174h-102v431h-77v69h77v200h102v-200h161v-69h-161v-140h4q54 69 151 69q84 0 122 -45t38 -162v-177q0 -186 -142 -186q-24 0 -45 4v86h7q47 0 62.5 27.5t15.5 92.5z" />
<glyph unicode="&#x453;" horiz-adv-x="372" d="M374 500v-90h-201v-410h-105v500h306zM173 569l56 151h109v-25l-106 -126h-59z" />
<glyph unicode="&#x454;" horiz-adv-x="465" d="M409 110l28 -78q-62 -45 -163 -45q-114 0 -172 70t-58 193q0 124 64 193.5t171 69.5q91 0 150 -31l-27 -85q-50 26 -110 26q-125 0 -143 -131h217v-77h-217q8 -62 45.5 -100t105.5 -38q65 0 109 33z" />
<glyph unicode="&#x455;" horiz-adv-x="422" d="M282 137q0 28 -24 46t-59 29.5t-69.5 27t-58.5 47.5t-24 81q0 71 42 108t120 37q94 0 164 -35l-24 -78q-64 29 -127 29q-73 0 -73 -58q0 -24 24 -40.5t58.5 -28.5t69.5 -27.5t59 -48.5t24 -82q0 -72 -47 -114.5t-135 -42.5q-100 0 -169 41l29 80q67 -37 137 -37 q83 0 83 66z" />
<glyph unicode="&#x456;" horiz-adv-x="269" d="M83 0v500h102v-500h-102zM66 647q0 26 18.5 44t48.5 18t50 -18t20 -44t-19.5 -42.5t-50.5 -16.5q-30 0 -48.5 16.5t-18.5 42.5z" />
<glyph unicode="&#x457;" horiz-adv-x="296" d="M25 648q0 27 14.5 43t40.5 16t40.5 -16t14.5 -43q0 -25 -14.5 -41.5t-40.5 -16.5t-40.5 16t-14.5 42zM162 648q0 27 14 43t40 16t40.5 -16t14.5 -43q0 -26 -14.5 -42t-40.5 -16t-40 16t-14 42zM96 0v500h102v-500h-102z" />
<glyph unicode="&#x458;" horiz-adv-x="265" d="M83 9v491h102v-524q0 -186 -142 -186q-24 0 -45 4v86h7q47 0 62.5 30t15.5 99zM64 647q0 26 18.5 44t48.5 18t50 -18t20 -44t-19.5 -42.5t-50.5 -16.5q-30 0 -48.5 16.5t-18.5 42.5z" />
<glyph unicode="&#x459;" horiz-adv-x="746" d="M440 500v-185q45 7 91 7q98 0 143.5 -41.5t45.5 -110.5q0 -91 -55 -134t-175 -43q-72 0 -152 7v410h-124q-3 -44 -5 -69.5t-6.5 -69.5t-10 -71.5t-13.5 -63t-19 -57.5t-25.5 -43t-34 -31t-42.5 -10q-46 0 -68 12l14 85q17 -5 28 -5q28 0 45.5 32t29.5 124t16 257h317z M440 237v-151q34 -6 65 -6q108 0 108 84q0 37 -26.5 58.5t-78.5 21.5q-39 0 -68 -7z" />
<glyph unicode="&#x45a;" horiz-adv-x="776" d="M470 236v-150q35 -6 65 -6q108 0 108 84q0 79 -105 79q-37 0 -68 -7zM470 500v-186q45 7 91 7q98 0 143.5 -41t45.5 -110q0 -91 -55 -134t-175 -43q-72 0 -152 7v210h-198v-210h-102v500h102v-200h198v200h102z" />
<glyph unicode="&#x45b;" horiz-adv-x="549" d="M-6 431v69h77v200h102v-200h161v-69h-161v-140h4q54 69 151 69q84 0 122 -45t38 -162v-153h-102v131q0 74 -20.5 106.5t-74.5 32.5q-41 0 -74.5 -27t-43.5 -69v-174h-102v431h-77z" />
<glyph unicode="&#x45c;" horiz-adv-x="483" d="M358 0l-146 217h-42v-217h-102v500h102v-220l38 14l141 206h110l-140 -196l-46 -35l54 -40l153 -229h-122zM194 569l56 151h109v-25l-106 -126h-59z" />
<glyph unicode="&#x45e;" horiz-adv-x="471" d="M123 500l108 -305l23 -88h6l18 89l88 304h104l-150 -450q-17 -52 -27.5 -81t-28 -67.5t-33.5 -58t-39 -34t-49 -14.5q-44 0 -69 13l18 87q14 -6 27 -6q63 0 88 111l-204 500h120zM83 678l87 25q14 -77 80 -77t80 76l77 -22q-10 -59 -53.5 -91t-106.5 -32q-62 0 -108 30.5 t-56 90.5z" />
<glyph unicode="&#x45f;" horiz-adv-x="534" d="M216 0h-148v500h102v-410h194v410h102v-500h-147l-15 -177h-68z" />
<glyph unicode="&#x462;" horiz-adv-x="633" d="M0 542v90h146v91h107v-91h204v-90h-204v-108q37 8 97 8q254 0 254 -213q0 -117 -75 -177.5t-205 -60.5q-113 0 -178 16v535h-146zM334 85q70 0 113.5 34t43.5 103q0 130 -159 130q-52 0 -79 -9v-252q25 -6 81 -6z" />
<glyph unicode="&#x463;" horiz-adv-x="516" d="M-2 422v78h110v200h102v-200h160v-78h-160v-107q45 7 91 7q98 0 143.5 -41.5t45.5 -110.5q0 -91 -55 -134t-175 -43q-72 0 -152 7v422h-110zM210 237v-151q34 -6 65 -6q108 0 108 84q0 80 -105 80q-39 0 -68 -7z" />
<glyph unicode="&#x472;" horiz-adv-x="678" d="M48 350q0 174 75.5 268.5t214.5 94.5q145 0 218.5 -97t73.5 -266q0 -174 -76.5 -268.5t-215.5 -94.5q-144 0 -217 97t-73 266zM338 81q164 0 179 228h-356q8 -103 52.5 -165.5t124.5 -62.5zM338 619q-77 0 -123 -55t-54 -165h355q-9 99 -53 159.5t-125 60.5z" />
<glyph unicode="&#x473;" horiz-adv-x="537" d="M42 250q0 126 59 194.5t167 68.5q112 0 169.5 -70.5t57.5 -192.5q0 -126 -59.5 -194.5t-167.5 -68.5q-112 0 -169 70t-57 193zM149 285h239q-16 141 -120 141q-49 0 -81.5 -34t-37.5 -107zM388 213h-239q5 -66 37.5 -102.5t81.5 -36.5q109 0 120 139z" />
<glyph unicode="&#x474;" horiz-adv-x="612" d="M499 515l-176 -523h-64l-266 708h121l161 -450l21 -112h3l16 114l73 244q38 127 75 169.5t107 42.5q57 0 98 -22l-26 -91q-30 17 -66 17q-25 0 -42.5 -22.5t-34.5 -74.5z" />
<glyph unicode="&#x475;" horiz-adv-x="516" d="M419 344l-145 -352h-54l-217 508h118l108 -279l23 -87h2l21 89l29 79q41 118 71.5 162t91.5 44q43 0 69 -13l-15 -86q-22 9 -34 9q-37 0 -68 -74z" />
<glyph unicode="&#x48a;" horiz-adv-x="700" d="M494 0v436l6 85h-4l-45 -88l-304 -433h-73v700h107v-436l-9 -86h5l47 89l304 433h73v-610h109v-26l-93 -194h-72l45 130h-96zM159 852l99 20q8 -70 84 -70t84 69l89 -17q-23 -119 -174 -119q-165 0 -182 117z" />
<glyph unicode="&#x48b;" horiz-adv-x="574" d="M375 0v266l5 66h-3l-42 -68l-205 -264h-62v500h102v-275l-4 -63h4l40 66l205 272h62v-410h104v-26l-93 -194h-72l45 130h-86zM117 678l87 25q14 -77 80 -77t80 76l77 -22q-10 -59 -53.5 -91t-106.5 -32q-62 0 -108 30.5t-56 90.5z" />
<glyph unicode="&#x48c;" horiz-adv-x="633" d="M0 542v90h146v91h107v-91h204v-90h-204v-108q37 8 97 8q254 0 254 -213q0 -117 -75 -177.5t-205 -60.5q-113 0 -178 16v535h-146zM334 85q70 0 113.5 34t43.5 103q0 130 -159 130q-52 0 -79 -9v-252q25 -6 81 -6z" />
<glyph unicode="&#x48d;" horiz-adv-x="516" d="M-2 422v78h110v200h102v-200h160v-78h-160v-107q45 7 91 7q98 0 143.5 -41.5t45.5 -110.5q0 -91 -55 -134t-175 -43q-72 0 -152 7v422h-110zM210 237v-151q34 -6 65 -6q108 0 108 84q0 80 -105 80q-39 0 -68 -7z" />
<glyph unicode="&#x48e;" horiz-adv-x="565" d="M74 0v693q69 16 180 16q54 0 99.5 -9.5t88 -32.5t67 -69t24.5 -112q0 -135 -104 -195l67 -94l-61 -44l-77 109q-43 -11 -96 -11q-62 0 -81 4v-255h-107zM249 439l47 30l68 -99q56 36 56 117q0 69 -46 98.5t-115 29.5q-57 0 -78 -5v-260q15 -5 70 -5q35 0 60 5z" />
<glyph unicode="&#x48f;" horiz-adv-x="540" d="M68 -200v700h73l15 -60h4q49 73 145 73q98 0 146 -60.5t48 -191.5q0 -146 -79 -219l51 -59l-56 -47l-57 67q-42 -16 -89 -16q-56 0 -99 20v-207h-102zM255 144l41 32l53 -65q43 48 43 152q0 163 -112 163q-86 0 -110 -95v-230q35 -27 90 -27q27 0 46 8z" />
<glyph unicode="&#x490;" horiz-adv-x="449" d="M463 604h-282v-604h-107v700h301l18 142h70v-238z" />
<glyph unicode="&#x491;" horiz-adv-x="372" d="M374 410h-201v-410h-105v500h218l18 142h70v-232z" />
<glyph unicode="&#x492;" horiz-adv-x="493" d="M491 700v-96h-282v-218h218v-78h-218v-308h-107v308h-97v78h97v314h389z" />
<glyph unicode="&#x493;" horiz-adv-x="398" d="M393 500v-90h-201v-133h165v-69h-165v-208h-105v208h-87v69h87v223h306z" />
<glyph unicode="&#x494;" horiz-adv-x="579" d="M181 271v-271h-107v700h389v-96h-282v-240q63 21 135 21q44 0 80 -11.5t68 -38t50 -76.5t18 -120q0 -267 -236 -267q-47 0 -67 4v92q13 -2 66 -2q124 0 124 166q0 159 -137 159q-58 0 -101 -20z" />
<glyph unicode="&#x495;" horiz-adv-x="534" d="M170 166v-166h-102v500h303v-90h-201v-155q54 21 125 21q194 0 194 -232q0 -131 -52.5 -193t-168.5 -62q-47 0 -67 4v89q19 -3 66 -3q117 0 117 155q0 152 -121 152q-50 0 -93 -20z" />
<glyph unicode="&#x496;" horiz-adv-x="836" d="M355 393v307h102v-319l39 14l177 305h120l-185 -305l-43 -33l53 -42l144 -224h69v-223h-75l-15 127h-47l-195 315h-42v-315h-102v327l-40 -14l-194 -313h-125l204 310l51 39l-49 36l-192 315h125l177 -307h43z" />
<glyph unicode="&#x497;" horiz-adv-x="708" d="M557 0l-127 217h-48v-217h-98v227l-43 -14l-127 -213h-116l146 229l34 30l-51 38l-118 203h109l118 -210h48v210h98v-220l43 14l119 206h108l-124 -203l-39 -32l51 -40l81 -135h81v-211h-72l-15 121h-58z" />
<glyph unicode="&#x498;" horiz-adv-x="534" d="M173 322h-43v85h20q70 0 96 6q47 8 77 35t30 68q0 102 -127 102q-87 0 -149 -30l-28 87q25 13 80 25t114 12q45 0 82.5 -8.5t70.5 -27.5t51.5 -54t18.5 -83q0 -54 -32 -98t-93 -63v-4q69 -11 108 -55t39 -115q0 -96 -63 -151t-157 -66l-13 -164h-68l-19 163 q-83 7 -135 32l27 94q64 -31 166 -31q60 0 104.5 32.5t44.5 92.5q0 108 -160 114q-32 2 -42 2z" />
<glyph unicode="&#x499;" horiz-adv-x="437" d="M172 216h-54v76h66q36 0 63 19.5t27 47.5q0 33 -23.5 47.5t-72.5 14.5q-66 0 -120 -34l-25 78q75 43 175 43q168 0 168 -124q0 -37 -22 -70t-61 -46v-4q54 -11 78 -41.5t24 -82.5q0 -55 -37 -94.5t-109 -51.5l-14 -171h-68l-19 167q-60 5 -117 34l25 82q53 -29 127 -29 q110 0 110 74q0 33 -28 49t-93 16z" />
<glyph unicode="&#x49a;" horiz-adv-x="624" d="M456 0l-233 313h-42v-313h-107v700h107v-319l39 14l217 305h122l-221 -298l-47 -35l53 -40l174 -231h98v-223h-75l-15 127h-70z" />
<glyph unicode="&#x49b;" horiz-adv-x="515" d="M358 0l-146 217h-42v-217h-102v500h102v-220l38 14l141 206h110l-140 -196l-46 -35l54 -40l93 -139h86v-211h-72l-15 121h-61z" />
<glyph unicode="&#x49c;" horiz-adv-x="680" d="M217 185v128h-36v-313h-107v700h107v-319l36 3v131h78v-123l22 3l191 305h118l-196 -298l-46 -35l52 -40l220 -327h-129l-207 313h-25v-128h-78z" />
<glyph unicode="&#x49d;" horiz-adv-x="543" d="M199 94v123h-29v-217h-102v500h102v-220l29 3v123h69v-115l22 3l114 206h107l-113 -196l-48 -35l54 -40l126 -229h-117l-119 217h-26v-123h-69z" />
<glyph unicode="&#x49e;" horiz-adv-x="677" d="M0 549v90h136v61h107v-61h109v-84h-109v-174l51 14l208 305h119l-212 -298l-53 -35l56 -40l240 -327h-134l-227 313h-48v-313h-107v549h-136z" />
<glyph unicode="&#x49f;" horiz-adv-x="490" d="M-7 550v69h81v81h102v-81h157v-69h-157v-270l37 14l136 206h115l-138 -196l-45 -35l52 -40l153 -229h-122l-146 217h-42v-217h-102v550h-81z" />
<glyph unicode="&#x4a0;" horiz-adv-x="700" d="M160 595v9h-160v96h267v-319l39 14l216 305h123l-221 -298l-47 -35l53 -40l246 -327h-134l-233 313h-42v-313h-107v595z" />
<glyph unicode="&#x4a1;" horiz-adv-x="525" d="M210 500v-220l38 14l141 206h110l-140 -196l-46 -35l54 -40l153 -229h-122l-146 217h-42v-217h-102v410h-110v90h212z" />
<glyph unicode="&#x4a2;" horiz-adv-x="701" d="M482 0v308h-301v-308h-107v700h107v-296h301v296h107v-604h89v-223h-75l-15 127h-106z" />
<glyph unicode="&#x4a3;" d="M369 0v210h-199v-210h-102v500h102v-200h199v200h102v-410h74v-211h-72l-15 121h-89z" />
<glyph unicode="&#x4a4;" horiz-adv-x="856" d="M871 700v-96h-282v-604h-107v308h-301v-308h-107v700h107v-296h301v296h389z" />
<glyph unicode="&#x4a5;" horiz-adv-x="670" d="M671 500v-90h-200v-410h-102v210h-199v-210h-102v500h102v-200h199v200h302z" />
<glyph unicode="&#x4a6;" horiz-adv-x="974" d="M576 271v-271h-107v604h-288v-604h-107v700h502v-336q63 21 135 21q44 0 80.5 -11.5t68.5 -38t50 -76.5t18 -120q0 -267 -237 -267q-47 0 -67 4v92q14 -2 66 -2q125 0 125 166q0 159 -138 159q-58 0 -101 -20z" />
<glyph unicode="&#x4a7;" horiz-adv-x="830" d="M466 166v-166h-102v410h-194v-410h-102v500h398v-245q54 21 124 21q85 0 139.5 -54t54.5 -178q0 -131 -52.5 -193t-168.5 -62q-47 0 -67 4v89q21 -3 66 -3q115 0 115 155q0 152 -119 152q-49 0 -92 -20z" />
<glyph unicode="&#x4a8;" horiz-adv-x="840" d="M354 713v-94q-90 0 -141.5 -67.5t-51.5 -197.5q0 -116 63.5 -194.5t152.5 -78.5q32 0 46 6q-56 35 -90.5 111t-34.5 166q0 150 67 233t175 83q115 0 174.5 -75.5t59.5 -206.5q0 -111 -44 -196t-106 -119q14 -2 23 -2q67 0 109 30l33 -84q-45 -40 -136 -40q-83 0 -132 38 q-59 -38 -145 -38q-153 0 -240.5 98t-87.5 265q0 174 80 268.5t226 94.5zM411 362q0 -71 31.5 -140t89.5 -105q54 33 91.5 107t37.5 168q0 87 -28.5 140.5t-90.5 53.5q-57 0 -94 -57t-37 -167z" />
<glyph unicode="&#x4a9;" horiz-adv-x="682" d="M270 513v-87q-63 -2 -92.5 -44.5t-29.5 -129.5q0 -78 38.5 -128t106.5 -50q30 0 45 11q-33 21 -55 69t-22 106q0 45 9.5 85t30.5 76t59.5 57.5t90.5 21.5q95 0 138.5 -58.5t43.5 -153.5q0 -70 -33.5 -129.5t-76.5 -82.5q14 -7 34 -7q44 0 74 30l27 -73q-42 -39 -118 -39 q-71 0 -112 39q-55 -39 -144 -39q-115 0 -179 71.5t-64 191.5q0 123 57 191t172 72zM363 261q0 -51 20 -93.5t55 -67.5q39 22 63.5 71.5t24.5 113.5q0 54 -19.5 91t-57.5 37q-86 0 -86 -152z" />
<glyph unicode="&#x4aa;" horiz-adv-x="566" d="M510 115l23 -86q-47 -35 -138 -42l-13 -164h-68l-19 167q-111 18 -179 108.5t-68 251.5q0 96 27 168.5t72.5 113.5t98.5 61t111 20q102 0 166 -25l-23 -93q-45 22 -134 22q-90 0 -147.5 -65.5t-57.5 -201.5q0 -127 58 -197t158 -70q81 0 133 32z" />
<glyph unicode="&#x4ab;" horiz-adv-x="443" d="M387 110l28 -78q-48 -35 -103 -43l-13 -166h-68l-19 164q-170 26 -170 263q0 126 57 194.5t163 68.5q86 0 145 -31l-27 -85q-50 26 -105 26q-126 0 -126 -173q0 -76 32.5 -124.5t100.5 -48.5q61 0 105 33z" />
<glyph unicode="&#x4ac;" horiz-adv-x="561" d="M227 0v604h-212v96h531v-96h-212v-508h90v-223h-75l-15 127h-107z" />
<glyph unicode="&#x4ad;" horiz-adv-x="405" d="M151 0v410h-150v90h403v-90h-148v-320h77v-211h-72l-15 121h-95z" />
<glyph unicode="&#x4ae;" horiz-adv-x="573" d="M234 0v270l-231 430h127l148 -287l16 -67h2l17 69l142 285h115l-229 -429v-271h-107z" />
<glyph unicode="&#x4af;" horiz-adv-x="487" d="M198 0l-195 500h118l109 -312l23 -100h3l20 102l99 310h110l-185 -500v-200h-102v200z" />
<glyph unicode="&#x4b0;" horiz-adv-x="573" d="M81 214v75h143l-221 411h127l148 -287l16 -67h2l17 69l142 285h115l-220 -411h144v-75h-153v-214h-107v214h-153z" />
<glyph unicode="&#x4b1;" horiz-adv-x="487" d="M79 -69v69h119l-195 500h118l109 -312l23 -100h3l20 102l99 310h110l-185 -500h119v-69h-119v-131h-102v131h-119z" />
<glyph unicode="&#x4b2;" horiz-adv-x="656" d="M19 0l225 356l-205 344h129l127 -222l24 -63l24 63l133 222h118l-212 -337l163 -267h103v-223h-75l-15 127h-81l-142 236l-28 66l-25 -66l-145 -236h-118z" />
<glyph unicode="&#x4b3;" horiz-adv-x="533" d="M381 0l-94 138l-30 66l-31 -66l-94 -138h-113l172 256l-160 244h124l81 -124l28 -63l29 63l85 124h112l-161 -240l112 -170h83v-211h-72l-15 121h-56z" />
<glyph unicode="&#x4b4;" horiz-adv-x="838" d="M815 96v-223h-75l-15 127h-498v604h-212v96h483v-96h-164v-508h282v604h107v-604h92z" />
<glyph unicode="&#x4b5;" horiz-adv-x="637" d="M617 90v-211h-72l-15 121h-379v410h-150v90h382v-90h-130v-320h189v410h102v-410h73z" />
<glyph unicode="&#x4b6;" horiz-adv-x="644" d="M425 0v293q-73 -43 -173 -43q-191 0 -191 195v255h107v-228q0 -128 115 -128q96 0 142 40v316h107v-604h89v-223h-75l-15 127h-106z" />
<glyph unicode="&#x4b7;" horiz-adv-x="525" d="M327 0v204q-54 -36 -133 -36q-77 0 -114.5 38t-37.5 134v160h102v-126q0 -63 15.5 -91t62.5 -28q68 0 105 29v216h102v-410h77v-211h-72l-15 121h-92z" />
<glyph unicode="&#x4b8;" horiz-adv-x="627" d="M271 135v115h-16q-194 0 -194 195v255h107v-228q0 -122 103 -128v121h78v-116q67 12 97 35v316h107v-700h-107v293q-35 -21 -97 -33v-125h-78z" />
<glyph unicode="&#x4b9;" horiz-adv-x="514" d="M212 64v104h-18q-78 0 -115.5 38t-37.5 134v160h102v-126q0 -58 14.5 -86.5t54.5 -32.5v124h69v-119q44 8 63 24v216h102v-500h-102v204q-26 -17 -63 -26v-114h-69z" />
<glyph unicode="&#x4ba;" horiz-adv-x="606" d="M544 0h-107v228q0 65 -28 96.5t-86 31.5q-94 0 -142 -40v-316h-107v700h107v-293q75 43 172 43q191 0 191 -195v-255z" />
<glyph unicode="&#x4bb;" horiz-adv-x="546" d="M485 0h-102v284q0 74 -20.5 106.5t-74.5 32.5q-41 0 -74.5 -27t-43.5 -69v-327h-102v700h102v-256h4q54 69 151 69q84 0 122 -45t38 -162v-306z" />
<glyph unicode="&#x4bc;" horiz-adv-x="793" d="M726 307h-421q14 -226 213 -226q76 0 149 46l28 -88q-88 -52 -198 -52q-137 0 -215 80t-85 240h-35q-83 0 -122 36t-39 95q0 50 26 81h94q-25 -24 -25 -65q0 -59 78 -59q15 0 23 1q8 150 80 233.5t199 83.5q124 0 191 -73t67 -205q0 -75 -8 -128zM304 397h323q3 21 3 52 q0 76 -40 125t-112 49q-83 0 -126.5 -58.5t-47.5 -167.5z" />
<glyph unicode="&#x4bd;" horiz-adv-x="630" d="M535 111l36 -70q-67 -54 -181 -54q-108 0 -164.5 62.5t-61.5 176.5h-9q-72 0 -110 34t-38 93q0 50 36 89h92q-40 -31 -40 -80q0 -23 15.5 -38.5t51.5 -15.5h5q13 100 71.5 152.5t154.5 52.5q38 0 70.5 -9t61 -29.5t45 -59t17.5 -92.5q0 -49 -7 -92h-312q2 -79 36 -119.5 t110 -40.5q34 0 68 12t53 28zM393 429q-112 0 -122 -128h219q0 2 0.5 8t0.5 9q0 55 -26 83t-72 28z" />
<glyph unicode="&#x4be;" horiz-adv-x="793" d="M726 307h-421q14 -226 213 -226q76 0 149 46l28 -88q-77 -45 -165 -52l-13 -164h-68l-19 168q-106 18 -166.5 97.5t-66.5 218.5h-35q-83 0 -122 36t-39 95q0 50 26 81h94q-25 -24 -25 -65q0 -59 78 -59q15 0 23 1q8 150 80 233.5t199 83.5q124 0 191 -73t67 -205 q0 -75 -8 -128zM304 397h323q3 21 3 52q0 76 -40 125t-112 49q-83 0 -126.5 -58.5t-47.5 -167.5z" />
<glyph unicode="&#x4bf;" horiz-adv-x="630" d="M535 111l36 -70q-54 -44 -133 -54l-13 -164h-68l-19 165q-164 28 -174 238h-9q-72 0 -110 34t-38 93q0 50 36 89h92q-40 -31 -40 -80q0 -23 15.5 -38.5t51.5 -15.5h5q13 100 71.5 152.5t154.5 52.5q38 0 70.5 -9t61 -29.5t45 -59t17.5 -92.5q0 -49 -7 -92h-312 q2 -79 36 -119.5t110 -40.5q34 0 68 12t53 28zM393 429q-112 0 -122 -128h219q0 2 0.5 8t0.5 9q0 55 -26 83t-72 28z" />
<glyph unicode="&#x4c0;" horiz-adv-x="287" d="M90 0v700h107v-700h-107z" />
<glyph unicode="&#x4c3;" horiz-adv-x="605" d="M433 73q0 121 -50.5 180.5t-159.5 59.5h-42v-313h-107v700h107v-319l39 14l217 305h122l-212 -283l-59 -39h58q103 -25 147 -92t44 -203v-22q0 -270 -201 -270q-20 0 -42 3v91h10q70 0 99.5 43.5t29.5 144.5z" />
<glyph unicode="&#x4c4;" horiz-adv-x="490" d="M351 21q0 95 -34.5 140t-104.5 49h-42v-210h-102v500h102v-227l38 14l141 213h110l-141 -204l-40 -29l42 -4q133 -32 133 -219v-23q0 -117 -47 -174.5t-130 -57.5q-25 0 -48 4v88q14 -2 21 -2q49 0 75.5 36t26.5 106z" />
<glyph unicode="&#x4c5;" horiz-adv-x="635" d="M443 0v604h-183q-9 -211 -26 -333.5t-52 -190.5q-45 -86 -127 -86q-35 0 -62 12l13 92q14 -4 22 -4q37 0 63 45q61 106 69 561h390v-610h95v-26l-93 -194h-72l45 130h-82z" />
<glyph unicode="&#x4c6;" horiz-adv-x="531" d="M338 0v410h-124q-3 -44 -5 -69.5t-6.5 -69.5t-10 -71.5t-13.5 -63t-19 -57.5t-25.5 -43t-34 -31t-42.5 -10q-46 0 -68 12l14 85q17 -5 28 -5q28 0 45.5 32t29.5 124t16 257h317v-410h98v-26l-93 -194h-72l45 130h-80z" />
<glyph unicode="&#x4c7;" horiz-adv-x="663" d="M589 700v-724q0 -186 -142 -186q-24 0 -45 4v86h7q47 0 60 27t13 93v308h-301v-308h-107v700h107v-296h301v296h107z" />
<glyph unicode="&#x4c8;" horiz-adv-x="539" d="M369 0v210h-199v-210h-102v500h102v-200h199v200h102v-524q0 -186 -142 -186q-24 0 -45 4v86h7q47 0 62.5 27.5t15.5 92.5z" />
<glyph unicode="&#x4c9;" horiz-adv-x="682" d="M482 0v308h-301v-308h-107v700h107v-296h301v296h107v-610h103v-26l-93 -194h-72l45 130h-90z" />
<glyph unicode="&#x4ca;" horiz-adv-x="565" d="M369 0v210h-199v-210h-102v500h102v-200h199v200h102v-410h101v-26l-93 -194h-72l45 130h-83z" />
<glyph unicode="&#x4cb;" horiz-adv-x="606" d="M61 700h107v-228q0 -128 115 -128q96 0 142 40v316h107v-700h-107l-15 -127h-75v223h90v197q-73 -43 -173 -43q-191 0 -191 195v255z" />
<glyph unicode="&#x4cc;" horiz-adv-x="497" d="M327 81v129q-49 -33 -133 -33q-77 0 -114.5 39t-37.5 130v154h102v-120q0 -60 15.5 -88t62.5 -28q68 0 105 29v207h102v-500h-103l-15 -121h-72v202h88z" />
<glyph unicode="&#x4cd;" horiz-adv-x="821" d="M614 0v423l12 119h-5l-40 -103l-168 -291h-33l-177 292l-40 102h-5l18 -118v-424h-102v700h90l205 -341l33 -79h3l30 81l195 339h91v-610h110v-26l-93 -194h-72l45 130h-97z" />
<glyph unicode="&#x4ce;" horiz-adv-x="683" d="M488 0v267l6 99h-4l-38 -81l-109 -178h-37l-115 178l-36 81h-5l11 -98v-268h-93v500h104l129 -208l29 -60h2l30 62l120 206h105v-410h103v-26l-93 -194h-72l45 130h-82z" />
<glyph unicode="&#x4cf;" horiz-adv-x="258" d="M78 0v700h102v-700h-102z" />
<glyph unicode="&#x4d0;" horiz-adv-x="594" d="M477 0l-65 177h-239l-63 -177h-105l259 708h66l260 -708h-113zM269 452l-66 -188h183l-67 189l-24 108h-2zM115 852l99 20q8 -70 84 -70t84 69l89 -17q-23 -119 -174 -119q-165 0 -182 117z" />
<glyph unicode="&#x4d1;" horiz-adv-x="496" d="M91 390l-29 75q76 44 202 44q96 0 132 -44t36 -119q0 -38 -3.5 -110.5t-3.5 -104.5q0 -80 16 -132h-80l-21 69h-5q-52 -76 -152 -76q-67 0 -109 39.5t-42 104.5q0 156 252 156q30 0 45 -1q3 25 3 45q0 48 -20 67t-71 19q-88 0 -150 -32zM215 77q83 0 114 70v75 q-32 2 -47 2q-143 0 -143 -75q0 -32 21 -52t55 -20zM83 678l87 25q14 -77 80 -77t80 76l77 -22q-10 -59 -53.5 -91t-106.5 -32q-62 0 -108 30.5t-56 90.5z" />
<glyph unicode="&#x4d2;" horiz-adv-x="594" d="M477 0l-65 177h-239l-63 -177h-105l259 708h66l260 -708h-113zM269 452l-66 -188h183l-67 189l-24 108h-2zM131 796q0 24 17 38t47 14q29 0 45.5 -14t16.5 -38t-16 -37.5t-46 -13.5t-47 13.5t-17 37.5zM333 796q0 24 16.5 38t45.5 14q31 0 47.5 -14t16.5 -38t-16.5 -37.5 t-47.5 -13.5q-29 0 -45.5 14t-16.5 37z" />
<glyph unicode="&#x4d3;" horiz-adv-x="496" d="M91 390l-29 75q76 44 202 44q96 0 132 -44t36 -119q0 -38 -3.5 -110.5t-3.5 -104.5q0 -80 16 -132h-80l-21 69h-5q-52 -76 -152 -76q-67 0 -109 39.5t-42 104.5q0 156 252 156q30 0 45 -1q3 25 3 45q0 48 -20 67t-71 19q-88 0 -150 -32zM215 77q83 0 114 70v75 q-32 2 -47 2q-143 0 -143 -75q0 -32 21 -52t55 -20zM83 632q0 26 16.5 43t42.5 17t42 -17t16 -43q0 -25 -16 -41t-42 -16t-42.5 16t-16.5 41zM287 632q0 26 16 43t42 17q27 0 43 -16.5t16 -43.5q0 -25 -16 -41t-43 -16q-26 0 -42 16t-16 41z" />
<glyph unicode="&#x4d4;" horiz-adv-x="853" d="M397 570h-5l-34 -103l-111 -195h150v298zM397 0v185h-201l-106 -185h-115l419 700h399v-94h-289v-202h264v-94h-264v-216h294v-94h-401z" />
<glyph unicode="&#x4d5;" horiz-adv-x="791" d="M215 77q83 0 114 70v75q-24 2 -38 2q-72 -1 -112 -17t-40 -58q0 -32 21 -52t55 -20zM366 80h-7q-65 -88 -176 -88q-67 0 -109 39.5t-42 104.5q0 157 245 157q18 0 52 -2q3 25 3 45q0 48 -20 67t-71 19q-85 0 -150 -35l-29 75q81 47 202 47q100 0 135 -60q24 31 66 47.5 t89 16.5q38 0 70.5 -9.5t61.5 -30t45.5 -59t16.5 -92.5q0 -48 -7 -91h-313q2 -79 36.5 -119.5t110.5 -40.5q34 0 68 12t53 28l36 -70q-68 -54 -181 -54q-62 0 -111 24.5t-74 68.5zM554 429q-113 0 -123 -128h220v16q0 55 -25.5 83.5t-71.5 28.5z" />
<glyph unicode="&#x4d6;" horiz-adv-x="530" d="M74 0v700h396v-94h-289v-202h264v-94h-264v-216h294v-94h-401zM92 852l99 20q8 -70 84 -70t84 69l89 -17q-23 -119 -174 -119q-165 0 -182 117z" />
<glyph unicode="&#x4d7;" horiz-adv-x="508" d="M413 111l36 -70q-67 -54 -181 -54t-170 69t-56 194q0 128 59.5 195.5t169.5 67.5q38 0 70.5 -9t61 -29.5t45 -59t17.5 -92.5q0 -49 -7 -92h-312q2 -79 36 -119.5t110 -40.5q34 0 68 12t53 28zM271 429q-112 0 -122 -128h219q0 2 0.5 8t0.5 9q0 55 -26 83t-72 28zM100 678 l87 25q14 -77 80 -77t80 76l77 -22q-10 -59 -53.5 -91t-106.5 -32q-62 0 -108 30.5t-56 90.5z" />
<glyph unicode="&#x4d8;" horiz-adv-x="635" d="M480 310h-319q-3 -21 -3 -49q0 -81 39 -132.5t111 -51.5q83 0 127 59t45 174zM56 400h424q-8 110 -56 164.5t-144 54.5q-82 0 -155 -44l-25 89q82 49 199 49q288 0 288 -363q0 -175 -70 -269t-212 -94q-125 0 -192.5 78t-67.5 208q0 64 11 127z" />
<glyph unicode="&#x4d9;" horiz-adv-x="508" d="M96 387l-38 72q67 54 181 54q113 0 169.5 -70t56.5 -193q0 -125 -58.5 -194t-161.5 -69q-98 0 -150.5 60t-52.5 162q0 28 8 74h316q-5 76 -39.5 111t-111.5 35q-34 0 -67 -13t-52 -29zM245 71q53 0 85.5 38.5t32.5 102.5h-224v-20q1 -58 30 -89.5t76 -31.5z" />
<glyph unicode="&#x4da;" horiz-adv-x="635" d="M480 310h-319q-3 -21 -3 -49q0 -81 39 -132.5t111 -51.5q83 0 127 59t45 174zM56 400h424q-8 110 -56 164.5t-144 54.5q-82 0 -155 -44l-25 89q82 49 199 49q288 0 288 -363q0 -175 -70 -269t-212 -94q-125 0 -192.5 78t-67.5 208q0 64 11 127zM146 796q0 24 17 38t47 14 q29 0 45.5 -14t16.5 -38t-16 -37.5t-46 -13.5t-47 13.5t-17 37.5zM348 796q0 24 16.5 38t45.5 14q31 0 47.5 -14t16.5 -38t-16.5 -37.5t-47.5 -13.5q-29 0 -45.5 14t-16.5 37z" />
<glyph unicode="&#x4db;" horiz-adv-x="508" d="M96 387l-38 72q67 54 181 54q113 0 169.5 -70t56.5 -193q0 -125 -58.5 -194t-161.5 -69q-98 0 -150.5 60t-52.5 162q0 28 8 74h316q-5 76 -39.5 111t-111.5 35q-34 0 -67 -13t-52 -29zM245 71q53 0 85.5 38.5t32.5 102.5h-224v-20q1 -58 30 -89.5t76 -31.5zM85 632 q0 26 16.5 43t42.5 17t42 -17t16 -43q0 -25 -16 -41t-42 -16t-42.5 16t-16.5 41zM289 632q0 26 16 43t42 17q27 0 43 -16.5t16 -43.5q0 -25 -16 -41t-43 -16q-26 0 -42 16t-16 41z" />
<glyph unicode="&#x4dc;" horiz-adv-x="821" d="M355 393v307h102v-319l39 14l177 305h120l-185 -305l-43 -33l53 -42l206 -320h-130l-195 315h-42v-315h-102v327l-40 -14l-194 -313h-125l204 310l51 39l-49 36l-192 315h125l177 -307h43zM243 796q0 24 17 38t47 14q29 0 45.5 -14t16.5 -38t-16 -37.5t-46 -13.5 t-47 13.5t-17 37.5zM445 796q0 24 16.5 38t45.5 14q31 0 47.5 -14t16.5 -38t-16.5 -37.5t-47.5 -13.5q-29 0 -45.5 14t-16.5 37z" />
<glyph unicode="&#x4dd;" horiz-adv-x="674" d="M284 227l-43 -14l-127 -213h-116l146 229l34 30l-51 38l-118 203h109l118 -210h48v210h98v-220l43 14l119 206h108l-124 -203l-39 -32l51 -40l136 -225h-119l-127 217h-48v-217h-98v227zM174 632q0 26 16.5 43t42.5 17t42 -17t16 -43q0 -25 -16 -41t-42 -16t-42.5 16 t-16.5 41zM378 632q0 26 16 43t42 17q27 0 43 -16.5t16 -43.5q0 -25 -16 -41t-43 -16q-26 0 -42 16t-16 41z" />
<glyph unicode="&#x4de;" horiz-adv-x="534" d="M173 322h-43v85h20q70 0 96 6q47 8 77 35t30 68q0 102 -127 102q-87 0 -149 -30l-28 87q25 13 80 25t114 12q45 0 82.5 -8.5t70.5 -27.5t51.5 -54t18.5 -83q0 -54 -32 -98t-93 -63v-4q69 -11 108 -55t39 -115q0 -72 -39.5 -123t-98 -72.5t-128.5 -21.5q-122 0 -189 31 l27 94q64 -31 166 -31q60 0 104.5 32.5t44.5 92.5q0 108 -160 114q-32 2 -42 2zM77 796q0 24 17 38t47 14q29 0 45.5 -14t16.5 -38t-16 -37.5t-46 -13.5t-47 13.5t-17 37.5zM279 796q0 24 16.5 38t45.5 14q31 0 47.5 -14t16.5 -38t-16.5 -37.5t-47.5 -13.5q-29 0 -45.5 14 t-16.5 37z" />
<glyph unicode="&#x4df;" horiz-adv-x="437" d="M172 216h-54v76h66q36 0 63 19.5t27 47.5q0 33 -23.5 47.5t-72.5 14.5q-66 0 -120 -34l-25 78q75 43 175 43q168 0 168 -124q0 -37 -22 -70t-61 -46v-4q54 -11 78 -41.5t24 -82.5q0 -66 -54 -108t-157 -42q-85 0 -153 34l25 82q53 -29 127 -29q110 0 110 74q0 33 -28 49 t-93 16zM39 632q0 26 16.5 43t42.5 17t42 -17t16 -43q0 -25 -16 -41t-42 -16t-42.5 16t-16.5 41zM243 632q0 26 16 43t42 17q27 0 43 -16.5t16 -43.5q0 -25 -16 -41t-43 -16q-26 0 -42 16t-16 41z" />
<glyph unicode="&#x4e0;" horiz-adv-x="556" d="M227 81q72 0 119.5 35t47.5 94q0 122 -188 122h-85v41l173 201l44 43l-61 -11h-225v94h422v-50l-186 -216l-40 -31v-3l40 9q97 -1 155 -52t58 -142q0 -106 -74.5 -167t-196.5 -61q-47 0 -101 10.5t-83 26.5l26 94q25 -15 71 -26t84 -11z" />
<glyph unicode="&#x4e1;" horiz-adv-x="479" d="M189 -125q65 0 106.5 35.5t41.5 94.5q0 62 -41.5 94t-118.5 32h-69v38l132 203l49 46l-68 -8h-186v90h376v-47l-150 -215l-37 -29v-2l31 5q77 0 130.5 -53.5t53.5 -140.5q0 -107 -71.5 -168.5t-184.5 -61.5q-91 0 -157 34l33 84q59 -31 130 -31z" />
<glyph unicode="&#x4e2;" horiz-adv-x="674" d="M494 0v436l6 85h-4l-45 -88l-304 -433h-73v700h107v-436l-9 -86h5l47 89l304 433h73v-700h-107zM179 755v74h328v-74h-328z" />
<glyph unicode="&#x4e3;" horiz-adv-x="545" d="M375 0v266l5 66h-3l-42 -68l-205 -264h-62v500h102v-275l-4 -63h4l40 66l205 272h62v-500h-102zM123 574v76h308v-76h-308z" />
<glyph unicode="&#x4e4;" horiz-adv-x="674" d="M494 0v436l6 85h-4l-45 -88l-304 -433h-73v700h107v-436l-9 -86h5l47 89l304 433h73v-700h-107zM172 796q0 24 17 38t47 14q29 0 45.5 -14t16.5 -38t-16 -37.5t-46 -13.5t-47 13.5t-17 37.5zM374 796q0 24 16.5 38t45.5 14q31 0 47.5 -14t16.5 -38t-16.5 -37.5 t-47.5 -13.5q-29 0 -45.5 14t-16.5 37z" />
<glyph unicode="&#x4e5;" horiz-adv-x="545" d="M375 0v266l5 66h-3l-42 -68l-205 -264h-62v500h102v-275l-4 -63h4l40 66l205 272h62v-500h-102zM121 632q0 26 16.5 43t42.5 17t42 -17t16 -43q0 -25 -16 -41t-42 -16t-42.5 16t-16.5 41zM325 632q0 26 16 43t42 17q27 0 43 -16.5t16 -43.5q0 -25 -16 -41t-43 -16 q-26 0 -42 16t-16 41z" />
<glyph unicode="&#x4e6;" horiz-adv-x="678" d="M48 350q0 174 75.5 268.5t214.5 94.5q145 0 218.5 -97t73.5 -266q0 -174 -76.5 -268.5t-215.5 -94.5q-144 0 -217 97t-73 266zM161 350q0 -118 44.5 -193.5t132.5 -75.5q86 0 132.5 66.5t46.5 202.5q0 118 -44.5 193.5t-134.5 75.5q-84 0 -130.5 -67.5t-46.5 -201.5z M174 796q0 24 17 38t47 14q29 0 45.5 -14t16.5 -38t-16 -37.5t-46 -13.5t-47 13.5t-17 37.5zM376 796q0 24 16.5 38t45.5 14q31 0 47.5 -14t16.5 -38t-16.5 -37.5t-47.5 -13.5q-29 0 -45.5 14t-16.5 37z" />
<glyph unicode="&#x4e7;" horiz-adv-x="537" d="M42 250q0 126 59 194.5t167 68.5q112 0 169.5 -70.5t57.5 -192.5q0 -126 -59.5 -194.5t-167.5 -68.5q-112 0 -169 70t-57 193zM149 250q0 -78 29 -127t90 -49q120 0 120 176q0 80 -29 128t-91 48q-119 0 -119 -176zM108 632q0 26 16.5 43t42.5 17t42 -17t16 -43 q0 -25 -16 -41t-42 -16t-42.5 16t-16.5 41zM312 632q0 26 16 43t42 17q27 0 43 -16.5t16 -43.5q0 -25 -16 -41t-43 -16q-26 0 -42 16t-16 41z" />
<glyph unicode="&#x4e8;" horiz-adv-x="678" d="M48 350q0 174 75.5 268.5t214.5 94.5q145 0 218.5 -97t73.5 -266q0 -174 -76.5 -268.5t-215.5 -94.5q-144 0 -217 97t-73 266zM338 81q164 0 179 228h-356q8 -103 52.5 -165.5t124.5 -62.5zM338 619q-77 0 -123 -55t-54 -165h355q-9 99 -53 159.5t-125 60.5z" />
<glyph unicode="&#x4e9;" horiz-adv-x="537" d="M42 250q0 126 59 194.5t167 68.5q112 0 169.5 -70.5t57.5 -192.5q0 -126 -59.5 -194.5t-167.5 -68.5q-112 0 -169 70t-57 193zM149 285h239q-16 141 -120 141q-49 0 -81.5 -34t-37.5 -107zM388 213h-239q5 -66 37.5 -102.5t81.5 -36.5q109 0 120 139z" />
<glyph unicode="&#x4ea;" horiz-adv-x="678" d="M48 350q0 174 75.5 268.5t214.5 94.5q145 0 218.5 -97t73.5 -266q0 -174 -76.5 -268.5t-215.5 -94.5q-144 0 -217 97t-73 266zM338 81q164 0 179 228h-356q8 -103 52.5 -165.5t124.5 -62.5zM338 619q-77 0 -123 -55t-54 -165h355q-9 99 -53 159.5t-125 60.5zM175 796 q0 24 17 38t47 14q29 0 45.5 -14t16.5 -38t-16 -37.5t-46 -13.5t-47 13.5t-17 37.5zM377 796q0 24 16.5 38t45.5 14q31 0 47.5 -14t16.5 -38t-16.5 -37.5t-47.5 -13.5q-29 0 -45.5 14t-16.5 37z" />
<glyph unicode="&#x4eb;" horiz-adv-x="537" d="M42 250q0 126 59 194.5t167 68.5q112 0 169.5 -70.5t57.5 -192.5q0 -126 -59.5 -194.5t-167.5 -68.5q-112 0 -169 70t-57 193zM149 285h239q-16 141 -120 141q-49 0 -81.5 -34t-37.5 -107zM388 213h-239q5 -66 37.5 -102.5t81.5 -36.5q109 0 120 139zM108 632 q0 26 16.5 43t42.5 17t42 -17t16 -43q0 -25 -16 -41t-42 -16t-42.5 16t-16.5 41zM312 632q0 26 16 43t42 17q27 0 43 -16.5t16 -43.5q0 -25 -16 -41t-43 -16q-26 0 -42 16t-16 41z" />
<glyph unicode="&#x4ec;" horiz-adv-x="576" d="M141 312v87h279q-7 105 -63 162.5t-146 57.5t-150 -35l-25 88q73 41 183 41q142 0 225.5 -87.5t83.5 -275.5q0 -97 -26.5 -169.5t-73.5 -113.5t-104.5 -60.5t-125.5 -19.5q-99 0 -164 29l28 93q58 -28 144 -28q87 0 148 57t67 174h-280zM64 796q0 24 17 38t47 14 q29 0 45.5 -14t16.5 -38t-16 -37.5t-46 -13.5t-47 13.5t-17 37.5zM266 796q0 24 16.5 38t45.5 14q31 0 47.5 -14t16.5 -38t-16.5 -37.5t-47.5 -13.5q-29 0 -45.5 14t-16.5 37z" />
<glyph unicode="&#x4ed;" horiz-adv-x="462" d="M116 214v78h200q-5 62 -38.5 98t-93.5 36q-63 0 -120 -34l-31 76q65 45 171 45q217 0 217 -263q0 -128 -60 -195.5t-167 -67.5q-104 0 -161 33l27 83q53 -29 120 -29q66 0 99 34t38 106h-201zM41 632q0 26 16.5 43t42.5 17t42 -17t16 -43q0 -25 -16 -41t-42 -16t-42.5 16 t-16.5 41zM245 632q0 26 16 43t42 17q27 0 43 -16.5t16 -43.5q0 -25 -16 -41t-43 -16q-26 0 -42 16t-16 41z" />
<glyph unicode="&#x4ee;" horiz-adv-x="560" d="M125 700l162 -342l23 -90h6l18 93l121 339h110l-181 -468q-53 -139 -91 -188.5t-108 -49.5q-56 0 -93 23l29 88q29 -15 66 -15q49 0 73 95l-260 515h125zM133 755v74h328v-74h-328z" />
<glyph unicode="&#x4ef;" horiz-adv-x="471" d="M123 500l108 -305l23 -88h6l18 89l88 304h104l-150 -450q-17 -52 -27.5 -81t-28 -67.5t-33.5 -58t-39 -34t-49 -14.5q-44 0 -69 13l18 87q14 -6 27 -6q63 0 88 111l-204 500h120zM93 574v76h308v-76h-308z" />
<glyph unicode="&#x4f0;" horiz-adv-x="560" d="M125 700l162 -342l23 -90h6l18 93l121 339h110l-181 -468q-53 -139 -91 -188.5t-108 -49.5q-56 0 -93 23l29 88q29 -15 66 -15q49 0 73 95l-260 515h125zM135 796q0 24 17 38t47 14q29 0 45.5 -14t16.5 -38t-16 -37.5t-46 -13.5t-47 13.5t-17 37.5zM337 796q0 24 16.5 38 t45.5 14q31 0 47.5 -14t16.5 -38t-16.5 -37.5t-47.5 -13.5q-29 0 -45.5 14t-16.5 37z" />
<glyph unicode="&#x4f1;" horiz-adv-x="471" d="M123 500l108 -305l23 -88h6l18 89l88 304h104l-150 -450q-17 -52 -27.5 -81t-28 -67.5t-33.5 -58t-39 -34t-49 -14.5q-44 0 -69 13l18 87q14 -6 27 -6q63 0 88 111l-204 500h120zM86 632q0 26 16.5 43t42.5 17t42 -17t16 -43q0 -25 -16 -41t-42 -16t-42.5 16t-16.5 41z M290 632q0 26 16 43t42 17q27 0 43 -16.5t16 -43.5q0 -25 -16 -41t-43 -16q-26 0 -42 16t-16 41z" />
<glyph unicode="&#x4f2;" horiz-adv-x="560" d="M125 700l162 -342l23 -90h6l18 93l121 339h110l-181 -468q-53 -139 -91 -188.5t-108 -49.5q-56 0 -93 23l29 88q29 -15 66 -15q49 0 73 95l-260 515h125zM162 741l62 109h111v-16l-100 -93h-73zM302 741l100 109h117v-16l-143 -93h-74z" />
<glyph unicode="&#x4f3;" horiz-adv-x="471" d="M123 500l108 -305l23 -88h6l18 89l88 304h104l-150 -450q-17 -52 -27.5 -81t-28 -67.5t-33.5 -58t-39 -34t-49 -14.5q-44 0 -69 13l18 87q14 -6 27 -6q63 0 88 111l-204 500h120zM145 571l35 129h96v-16l-73 -113h-58zM267 571l73 129h104v-16l-116 -113h-61z" />
<glyph unicode="&#x4f4;" horiz-adv-x="606" d="M61 700h107v-228q0 -128 115 -128q96 0 142 40v316h107v-700h-107v293q-73 -43 -173 -43q-191 0 -191 195v255zM141 796q0 24 17 38t47 14q29 0 45.5 -14t16.5 -38t-16 -37.5t-46 -13.5t-47 13.5t-17 37.5zM343 796q0 24 16.5 38t45.5 14q31 0 47.5 -14t16.5 -38 t-16.5 -37.5t-47.5 -13.5q-29 0 -45.5 14t-16.5 37z" />
<glyph unicode="&#x4f5;" horiz-adv-x="497" d="M42 500h102v-126q0 -63 15.5 -91t62.5 -28q68 0 105 29v216h102v-500h-102v204q-54 -36 -133 -36q-77 0 -114.5 38t-37.5 134v160zM73 632q0 26 16.5 43t42.5 17t42 -17t16 -43q0 -25 -16 -41t-42 -16t-42.5 16t-16.5 41zM277 632q0 26 16 43t42 17q27 0 43 -16.5 t16 -43.5q0 -25 -16 -41t-43 -16q-26 0 -42 16t-16 41z" />
<glyph unicode="&#x4f6;" horiz-adv-x="449" d="M463 700v-96h-282v-508h90v-223h-75l-15 127h-107v700h389z" />
<glyph unicode="&#x4f7;" horiz-adv-x="372" d="M68 0v500h306v-90h-201v-320h81v-211h-72l-15 121h-99z" />
<glyph unicode="&#x4f8;" horiz-adv-x="781" d="M600 0v700h107v-700h-107zM74 7v693h107v-263q37 8 84 8q247 0 247 -216q0 -118 -71 -178t-199 -60q-104 0 -168 16zM250 85q68 0 108.5 34.5t40.5 103.5q0 128 -151 128q-40 0 -67 -9v-251q24 -6 69 -6zM221 796q0 24 17 38t47 14q29 0 45.5 -14t16.5 -38t-16 -37.5 t-46 -13.5t-47 13.5t-17 37.5zM423 796q0 24 16.5 38t45.5 14q31 0 47.5 -14t16.5 -38t-16.5 -37.5t-47.5 -13.5q-29 0 -45.5 14t-16.5 37z" />
<glyph unicode="&#x4f9;" horiz-adv-x="679" d="M170 237v-151q34 -6 65 -6q52 0 75 21t23 63q0 80 -95 80q-39 0 -68 -7zM170 500v-185q45 7 91 7q179 0 179 -152q0 -92 -51.5 -134.5t-168.5 -42.5q-72 0 -152 7v500h102zM509 0v500h102v-500h-102zM172 632q0 26 16.5 43t42.5 17t42 -17t16 -43q0 -25 -16 -41t-42 -16 t-42.5 16t-16.5 41zM376 632q0 26 16 43t42 17q27 0 43 -16.5t16 -43.5q0 -25 -16 -41t-43 -16q-26 0 -42 16t-16 41z" />
<glyph unicode="&#x4fc;" horiz-adv-x="625" d="M468 -33q0 61 -50 139l-81 130l-30 66l-25 -66l-145 -236h-118l225 356l-205 344h129l127 -222l24 -63l24 63l133 222h118l-212 -337l135 -214q58 -90 58 -172q0 -186 -150 -186q-24 0 -45 4v86h7q81 0 81 86z" />
<glyph unicode="&#x4fd;" horiz-adv-x="519" d="M329 260l92 -133q59 -83 59 -158q0 -87 -38.5 -133t-112.5 -46q-25 0 -46 4v83h10q47 0 66 19.5t19 59.5q0 55 -48 124l-41 58l-33 63l-30 -63l-94 -138h-113l172 256l-160 244h124l81 -124l28 -63l29 63l85 124h112z" />
<glyph unicode="&#x4fe;" horiz-adv-x="625" d="M51 312v92h164l-176 296h129l127 -222l24 -63l24 63l133 222h118l-186 -296h169v-92h-164l191 -312h-127l-142 236l-28 66l-25 -66l-145 -236h-118l197 312h-165z" />
<glyph unicode="&#x4ff;" horiz-adv-x="519" d="M45 217v82h118l-132 201h124l81 -124l28 -63l29 63l85 124h112l-135 -201h128v-82h-126l143 -217h-119l-94 138l-30 66l-31 -66l-94 -138h-113l146 217h-120z" />
<glyph unicode="&#x510;" horiz-adv-x="534" d="M411 322h-43q-11 0 -41 -2q-160 -8 -160 -115q0 -60 42.5 -92t112.5 -32q87 0 148 36l31 -83q-75 -47 -192 -47q-119 0 -187 52t-68 157q0 72 37.5 118t105.5 57v5q-59 19 -90.5 64t-31.5 99q0 88 66 130.5t169 42.5q52 0 104.5 -12.5t76.5 -27.5l-30 -85q-70 31 -140 31 q-133 0 -133 -95q0 -45 35 -73.5t84 -37.5q27 -5 84 -5h20v-85z" />
<glyph unicode="&#x511;" horiz-adv-x="437" d="M319 216h-54q-65 0 -93 -16t-28 -49q0 -34 28.5 -54t81.5 -20q74 0 127 32l25 -80q-68 -39 -153 -39q-104 0 -157.5 40t-53.5 110q0 50 24.5 79.5t77.5 44.5v4q-40 13 -61.5 44t-21.5 70q0 61 44.5 93.5t123.5 32.5q100 0 175 -43l-25 -78q-54 34 -120 34 q-49 0 -72.5 -14.5t-23.5 -47.5q0 -28 27 -47.5t63 -19.5h66v-76z" />
<glyph unicode="&#x512;" horiz-adv-x="630" d="M556 700v-724q0 -186 -142 -186q-24 0 -45 4v86h8q47 0 59.5 25.5t12.5 94.5v604h-183q-9 -210 -26.5 -333t-53.5 -191q-45 -86 -125 -86q-41 0 -68 12l17 92q16 -4 23 -4q38 0 64 45q61 106 69 561h390z" />
<glyph unicode="&#x513;" horiz-adv-x="508" d="M338 0v410h-124q-3 -44 -5 -69.5t-6.5 -69.5t-10 -71.5t-13.5 -63t-19 -57.5t-25.5 -43t-34 -31t-42.5 -10q-46 0 -68 12l14 85q17 -5 28 -5q28 0 45.5 32t29.5 124t16 257h317v-524q0 -186 -142 -186q-24 0 -45 4v86h7q47 0 62.5 27.5t15.5 92.5z" />
<glyph unicode="&#x51a;" horiz-adv-x="678" d="M703 -92v-93q-43 -12 -95 -12q-71 0 -190.5 33t-164.5 33q-23 0 -46 -6v93q30 6 58 6q52 0 166 -32t182 -32q46 0 90 10zM48 350q0 174 75.5 268.5t214.5 94.5q145 0 218.5 -97t73.5 -266q0 -174 -76.5 -268.5t-215.5 -94.5q-144 0 -217 97t-73 266zM161 350 q0 -118 44.5 -193.5t132.5 -75.5q86 0 132.5 66.5t46.5 202.5q0 118 -44.5 193.5t-134.5 75.5q-84 0 -130.5 -67.5t-46.5 -201.5z" />
<glyph unicode="&#x51b;" horiz-adv-x="537" d="M469 480v-680h-102v247h-4q-39 -60 -127 -60q-194 0 -194 258q0 129 64.5 197t186.5 68q105 0 176 -30zM260 74q84 0 107 90v243q-33 16 -91 16q-127 0 -127 -176q0 -173 111 -173z" />
<glyph unicode="&#x51c;" horiz-adv-x="843" d="M120 700l111 -434l14 -120h3l16 122l134 432h62l134 -434l15 -120h3l16 122l103 432h108l-194 -708h-67l-134 433l-18 107h-5l-17 -108l-134 -432h-69l-196 708h115z" />
<glyph unicode="&#x51d;" horiz-adv-x="729" d="M334 500h75l104 -276l22 -90h3l17 92l78 274h95l-162 -508h-64l-118 307l-16 74h-4l-17 -75l-112 -306h-66l-168 508h111l87 -273l15 -94h3l21 95z" />
<glyph unicode="&#x524;" horiz-adv-x="689" d="M469 0v604h-288v-604h-107v700h502v-604h90v-223h-75l-15 127h-107z" />
<glyph unicode="&#x525;" horiz-adv-x="563" d="M364 0v410h-194v-410h-102v500h398v-410h77v-211h-72l-15 121h-92z" />
<glyph unicode="&#x526;" horiz-adv-x="649" d="M544 255v-159h89v-223h-75l-15 127h-106v228q0 65 -28 96.5t-86 31.5q-94 0 -142 -40v-316h-107v700h107v-293q75 43 172 43q191 0 191 -195z" />
<glyph unicode="&#x527;" horiz-adv-x="579" d="M383 0v284q0 74 -20.5 106.5t-74.5 32.5q-41 0 -74.5 -27t-43.5 -69v-327h-102v700h102v-256h4q54 69 151 69q84 0 122 -45t38 -162v-216h75v-211h-72l-15 121h-90z" />
<glyph unicode="&#x1e30;" horiz-adv-x="615" d="M456 0l-233 313h-42v-313h-107v700h107v-319l39 14l217 305h122l-221 -298l-47 -35l53 -40l246 -327h-134zM201 752l112 118h134v-25l-162 -93h-84z" />
<glyph unicode="&#x1e31;" horiz-adv-x="484" d="M358 0l-146 217h-42v-217h-102v700h102v-420l37 14l136 206h115l-138 -196l-45 -35l52 -40l153 -229h-122zM238 569l56 151h109v-25l-106 -126h-59z" />
<glyph unicode="&#x1e3e;" horiz-adv-x="795" d="M614 0v423l12 119h-5l-40 -103l-168 -291h-33l-177 292l-40 102h-5l18 -118v-424h-102v700h90l205 -341l33 -79h3l30 81l195 339h91v-700h-107zM326 752l112 118h134v-25l-162 -93h-84z" />
<glyph unicode="&#x1e3f;" horiz-adv-x="809" d="M459 0h-102v278q0 79 -16.5 112t-65.5 33q-39 0 -66 -23.5t-39 -60.5v-339h-102v500h76l15 -63h4q60 76 153 76q96 0 126 -84q50 84 151 84q85 0 120 -45.5t35 -167.5v-300h-102v292q0 71 -16.5 101t-66.5 30q-82 0 -104 -92v-331zM357 569l56 151h109v-25l-106 -126h-59 z" />
<glyph unicode="&#x1e54;" horiz-adv-x="565" d="M74 0v693q69 16 180 16q54 0 99.5 -9.5t88 -32.5t67 -69t24.5 -112q0 -120 -78 -177.5t-193 -57.5q-62 0 -81 4v-255h-107zM259 615q-57 0 -78 -5v-260q15 -5 70 -5q169 0 169 142q0 69 -46 98.5t-115 29.5zM196 752l112 118h134v-25l-162 -93h-84z" />
<glyph unicode="&#x1e55;" horiz-adv-x="541" d="M68 -200v700h73l15 -60h4q49 73 145 73q98 0 146 -60.5t48 -191.5q0 -127 -61.5 -200.5t-168.5 -73.5q-56 0 -99 20v-207h-102zM280 426q-86 0 -110 -95v-230q35 -27 90 -27q63 0 97.5 48t34.5 141q0 163 -112 163zM224 569l56 151h109v-25l-106 -126h-59z" />
<glyph unicode="&#x1e80;" horiz-adv-x="843" d="M120 700l111 -434l14 -120h3l16 122l134 432h62l134 -434l15 -120h3l16 122l103 432h108l-194 -708h-67l-134 433l-18 107h-5l-17 -108l-134 -432h-69l-196 708h115zM403 870l112 -118h-88l-158 93v25h134z" />
<glyph unicode="&#x1e81;" horiz-adv-x="729" d="M334 500h75l104 -276l22 -90h3l17 92l78 274h95l-162 -508h-64l-118 307l-16 74h-4l-17 -75l-112 -306h-66l-168 508h111l87 -273l15 -94h3l21 95zM369 720l63 -151h-57l-119 126v25h113z" />
<glyph unicode="&#x1e82;" horiz-adv-x="843" d="M120 700l111 -434l14 -120h3l16 122l134 432h62l134 -434l15 -120h3l16 122l103 432h108l-194 -708h-67l-134 433l-18 107h-5l-17 -108l-134 -432h-69l-196 708h115zM347 752l112 118h134v-25l-162 -93h-84z" />
<glyph unicode="&#x1e83;" horiz-adv-x="729" d="M334 500h75l104 -276l22 -90h3l17 92l78 274h95l-162 -508h-64l-118 307l-16 74h-4l-17 -75l-112 -306h-66l-168 508h111l87 -273l15 -94h3l21 95zM318 569l56 151h109v-25l-106 -126h-59z" />
<glyph unicode="&#x1e84;" horiz-adv-x="843" d="M120 700l111 -434l14 -120h3l16 122l134 432h62l134 -434l15 -120h3l16 122l103 432h108l-194 -708h-67l-134 433l-18 107h-5l-17 -108l-134 -432h-69l-196 708h115zM262 796q0 24 17 38t47 14q29 0 45.5 -14t16.5 -38t-16 -37.5t-46 -13.5t-47 13.5t-17 37.5zM464 796 q0 24 16.5 38t45.5 14q31 0 47.5 -14t16.5 -38t-16.5 -37.5t-47.5 -13.5q-29 0 -45.5 14t-16.5 37z" />
<glyph unicode="&#x1e85;" horiz-adv-x="729" d="M334 500h75l104 -276l22 -90h3l17 92l78 274h95l-162 -508h-64l-118 307l-16 74h-4l-17 -75l-112 -306h-66l-168 508h111l87 -273l15 -94h3l21 95zM210 652q0 26 16.5 43t42.5 17t42 -17t16 -43q0 -25 -16 -41t-42 -16t-42.5 16t-16.5 41zM414 652q0 26 16 43t42 17 q27 0 43 -16.5t16 -43.5q0 -25 -16 -41t-43 -16q-26 0 -42 16t-16 41z" />
<glyph unicode="&#x1e9e;" horiz-adv-x="678" d="M249 373l176 215q-18 17 -54.5 27.5t-76.5 10.5q-31 0 -52.5 -10t-33.5 -25t-18 -42t-7.5 -49.5t-1.5 -58.5v-441h-107v478q0 113 50.5 174t172.5 61q146 0 262 -90l-150 -189l-34 -29v-4l34 8q101 -4 157.5 -54t56.5 -140q0 -107 -67 -167.5t-187 -60.5q-28 0 -70 6.5 t-62 16.5l20 91q37 -20 108 -20q70 0 107.5 34t37.5 94q0 123 -182 123h-79v41z" />
<glyph unicode="&#x1ef2;" horiz-adv-x="573" d="M234 0v270l-231 430h127l148 -287l16 -67h2l17 69l142 285h115l-229 -429v-271h-107zM253 870l112 -118h-88l-158 93v25h134z" />
<glyph unicode="&#x1ef3;" horiz-adv-x="471" d="M123 500l108 -305l23 -88h6l18 89l88 304h104l-150 -450q-17 -52 -27.5 -81t-28 -67.5t-33.5 -58t-39 -34t-49 -14.5q-44 0 -69 13l18 87q14 -6 27 -6q63 0 88 111l-204 500h120zM238 720l63 -151h-57l-119 126v25h113z" />
<glyph unicode="&#x2000;" horiz-adv-x="660" />
<glyph unicode="&#x2001;" horiz-adv-x="820" />
<glyph unicode="&#x2002;" horiz-adv-x="660" />
<glyph unicode="&#x2003;" horiz-adv-x="820" />
<glyph unicode="&#x2004;" horiz-adv-x="273" />
<glyph unicode="&#x2005;" horiz-adv-x="205" />
<glyph unicode="&#x2006;" horiz-adv-x="137" />
<glyph unicode="&#x2007;" horiz-adv-x="515" />
<glyph unicode="&#x2008;" horiz-adv-x="205" />
<glyph unicode="&#x2009;" horiz-adv-x="164" />
<glyph unicode="&#x200a;" horiz-adv-x="68" />
<glyph unicode="&#x200b;" horiz-adv-x="0" />
<glyph unicode="&#x2010;" horiz-adv-x="360" d="M57 242v92h246v-92h-246z" />
<glyph unicode="&#x2011;" horiz-adv-x="360" d="M57 242v92h246v-92h-246z" />
<glyph unicode="&#x2012;" horiz-adv-x="660" d="M114 322v92h432v-92h-432z" />
<glyph unicode="&#x2013;" horiz-adv-x="660" d="M114 242v92h432v-92h-432z" />
<glyph unicode="&#x2014;" horiz-adv-x="820" d="M114 242v92h592v-92h-592z" />
<glyph unicode="&#x2018;" horiz-adv-x="207" d="M168 619q0 -25 -16.5 -40.5t-42.5 -15.5q-32 0 -51 20.5t-19 56.5q0 63 31.5 99t66.5 48l28 -43q-50 -23 -50 -70h5q21 0 34.5 -15.5t13.5 -39.5z" />
<glyph unicode="&#x2019;" horiz-adv-x="207" d="M39 652q0 25 16.5 40.5t43.5 15.5q31 0 50 -20.5t19 -56.5q0 -63 -31 -98.5t-67 -48.5l-28 43q50 25 50 70h-7q-20 0 -33 15t-13 40z" />
<glyph unicode="&#x201a;" horiz-adv-x="207" d="M39 54q0 25 16.5 40.5t43.5 15.5q31 0 50 -20.5t19 -56.5q0 -63 -31 -98.5t-67 -48.5l-28 43q50 25 50 70h-7q-20 0 -33 15t-13 40z" />
<glyph unicode="&#x201c;" horiz-adv-x="365" d="M326 619q0 -25 -16.5 -40.5t-42.5 -15.5q-32 0 -51 20.5t-19 56.5q0 63 31.5 99t66.5 48l28 -43q-50 -23 -50 -70h5q21 0 34.5 -15.5t13.5 -39.5zM168 619q0 -25 -16.5 -40.5t-42.5 -15.5q-32 0 -51 20.5t-19 56.5q0 63 31.5 99t66.5 48l28 -43q-50 -23 -50 -70h5 q21 0 34.5 -15.5t13.5 -39.5z" />
<glyph unicode="&#x201d;" horiz-adv-x="365" d="M39 652q0 25 16.5 40.5t43.5 15.5q31 0 50 -20.5t19 -56.5q0 -63 -31 -98.5t-67 -48.5l-28 43q50 25 50 70h-7q-20 0 -33 15t-13 40zM197 652q0 25 16.5 40.5t43.5 15.5q31 0 50 -20.5t19 -56.5q0 -63 -31 -98.5t-67 -48.5l-28 43q50 25 50 70h-7q-20 0 -33 15t-13 40z " />
<glyph unicode="&#x201e;" horiz-adv-x="365" d="M197 54q0 25 16.5 40.5t43.5 15.5q31 0 50 -20.5t19 -56.5q0 -63 -31 -98.5t-67 -48.5l-28 43q50 25 50 70h-7q-20 0 -33 15t-13 40zM39 54q0 25 16.5 40.5t43.5 15.5q31 0 50 -20.5t19 -56.5q0 -63 -31 -98.5t-67 -48.5l-28 43q50 25 50 70h-7q-20 0 -33 15t-13 40z" />
<glyph unicode="&#x2020;" horiz-adv-x="496" d="M40 417v90h124l47 -13l-13 50v156h99v-156l-13 -50l47 13h125v-90h-127l-45 13l13 -45v-385l-15 -200h-68l-16 201v384l13 45l-47 -13h-124z" />
<glyph unicode="&#x2021;" horiz-adv-x="496" d="M198 281v106l13 43l-47 -13h-124v90h124l47 -13l-13 48v158h99v-158l-13 -48l47 13h125v-90h-127l-45 13l13 -43v-106l-13 -43l45 13h127v-90h-125l-47 13l13 -48v-126l-16 -200h-66l-17 201v125l13 48l-47 -13h-124v90h124l47 -13z" />
<glyph unicode="&#x2022;" horiz-adv-x="452" d="M81 311q0 63 42 104t103 41q62 0 103.5 -39.5t41.5 -105.5t-41.5 -105.5t-103.5 -39.5t-103.5 39.5t-41.5 105.5z" />
<glyph unicode="&#x2026;" horiz-adv-x="781" d="M587 55q0 30 18.5 48t48.5 18q32 0 50.5 -17.5t18.5 -48.5q0 -30 -19 -48t-50 -18q-30 0 -48.5 18t-18.5 48zM325 55q0 30 18.5 48t48.5 18q32 0 50.5 -17.5t18.5 -48.5q0 -30 -19 -48t-50 -18q-30 0 -48.5 18t-18.5 48zM63 55q0 30 18.5 48t48.5 18q32 0 50.5 -17.5 t18.5 -48.5q0 -30 -19 -48t-50 -18q-30 0 -48.5 18t-18.5 48z" />
<glyph unicode="&#x2030;" horiz-adv-x="1185" d="M62 542q0 86 44.5 128t119.5 42q76 0 120 -40.5t44 -129.5t-44 -129.5t-120 -40.5t-120 40.5t-44 129.5zM155 542q0 -101 71 -101q36 0 53.5 22.5t17.5 78.5t-17.5 78.5t-53.5 22.5t-53.5 -22.5t-17.5 -78.5zM438 170q0 86 44.5 128t119.5 42q76 0 120 -40.5t44 -129.5 t-44 -129.5t-120 -40.5t-120 40.5t-44 129.5zM531 170q0 -101 71 -101q36 0 53.5 22.5t17.5 78.5t-17.5 78.5t-53.5 22.5t-53.5 -22.5t-17.5 -78.5zM809 170q0 86 44.5 128t119.5 42q76 0 120 -40.5t44 -129.5t-44 -129.5t-120 -40.5t-120 40.5t-44 129.5zM902 170 q0 -101 71 -101q36 0 53.5 22.5t17.5 78.5t-17.5 78.5t-53.5 22.5t-53.5 -22.5t-17.5 -78.5zM114 40l541 674l60 -51l-541 -676z" />
<glyph unicode="&#x2039;" horiz-adv-x="301" d="M200 38l-166 221l160 230l63 -51l-91 -137l-48 -41l48 -36l98 -133z" />
<glyph unicode="&#x203a;" horiz-adv-x="301" d="M101 489l166 -221l-160 -230l-63 51l91 137l48 41l-48 36l-98 134z" />
<glyph unicode="&#x203d;" horiz-adv-x="453" d="M144 447v167q-45 -15 -73 -33l-37 78q47 30 110 43v48h100v-38q86 -2 133.5 -47t47.5 -117q0 -53 -22.5 -93.5t-55 -67.5t-64.5 -52.5t-55 -61.5t-23 -82h-86q-1 7 -1 21q0 69 42 123zM111 55q0 30 18.5 48t48.5 18q32 0 50.5 -17.5t18.5 -48.5q0 -30 -19 -48t-50 -18 q-30 0 -48.5 18t-18.5 48zM232 420l-2 -17q32 27 46 40t29 38t15 52q0 85 -88 92v-205z" />
<glyph unicode="&#x2044;" horiz-adv-x="184" d="M-172 31l463 683l66 -42l-462 -685z" />
<glyph unicode="&#x2070;" horiz-adv-x="411" d="M33 590q0 108 45 162.5t127 54.5q173 0 173 -217q0 -107 -45.5 -162t-127.5 -55q-85 0 -128.5 55.5t-43.5 161.5zM123 590q0 -139 82 -139q42 0 62.5 30.5t20.5 108.5q0 139 -82 139q-43 0 -63 -30.5t-20 -108.5z" />
<glyph unicode="&#x2074;" horiz-adv-x="411" d="M394 540v-72h-80v-88h-82v88h-206v50l223 294h65v-272h80zM232 540v110l6 51h-3l-22 -48l-65 -87l-35 -32l52 6h67z" />
<glyph unicode="&#x2075;" horiz-adv-x="411" d="M160 448q40 0 65 18.5t25 48.5q0 65 -95 66l-66 -3v222h235v-75h-163v-83q4 1 18 1.5t20 0.5q67 0 104 -34.5t37 -95.5q0 -69 -49.5 -105t-123.5 -36q-60 0 -109 19l21 70q44 -14 81 -14z" />
<glyph unicode="&#x2076;" horiz-adv-x="411" d="M368 510q0 -60 -42.5 -98.5t-113.5 -38.5q-74 0 -117.5 40.5t-43.5 115.5q0 121 70.5 195.5t184.5 82.5l11 -64q-66 -8 -112 -46t-65 -100q12 15 20 22.5t29 15.5t49 8q57 0 93.5 -36t36.5 -97zM279 505q0 31 -18 50t-53 19q-47 0 -66 -36q-1 -8 -1 -23q0 -33 18 -53 t53 -20q28 0 47.5 17t19.5 46z" />
<glyph unicode="&#x2077;" horiz-adv-x="411" d="M179 380h-86l146 309l40 35l-51 -8h-174v84h301v-50z" />
<glyph unicode="&#x2078;" horiz-adv-x="411" d="M53 485q0 73 82 110q-71 34 -71 103q0 50 39.5 79.5t105.5 29.5q62 0 100.5 -28t38.5 -72q0 -71 -70 -106q39 -20 59.5 -45t20.5 -65q0 -53 -41.5 -85.5t-115.5 -32.5q-67 0 -107.5 30.5t-40.5 81.5zM271 493q0 26 -17 41.5t-55 32.5q-59 -28 -59 -72q0 -24 17.5 -38.5 t46.5 -14.5q31 0 49 13t18 38zM149 696q0 -40 69 -71q45 31 45 71q0 42 -55 42q-59 0 -59 -42z" />
<glyph unicode="&#x2079;" horiz-adv-x="411" d="M45 668q0 63 42 101t120 38q74 0 115 -42.5t41 -114.5q0 -132 -67.5 -202.5t-188.5 -74.5l-16 62q81 8 124.5 39t59.5 93q-33 -33 -90 -33q-63 0 -101.5 37t-38.5 97zM135 674q0 -34 19.5 -52.5t51.5 -18.5q50 0 66 27q1 8 1 25q0 38 -18 60.5t-53 22.5q-67 0 -67 -64z " />
<glyph unicode="&#x207a;" horiz-adv-x="411" d="M52 580v72h115v121h77v-121h115v-72h-115v-121h-77v121h-115z" />
<glyph unicode="&#x207b;" horiz-adv-x="411" d="M52 580v72h307v-72h-307z" />
<glyph unicode="&#x207c;" horiz-adv-x="411" d="M52 643v72h307v-72h-307zM52 517v72h307v-72h-307z" />
<glyph unicode="&#x207d;" horiz-adv-x="256" d="M231 297l-64 -31q-117 122 -117 304q0 180 119 308l61 -29q-93 -121 -93 -279q0 -159 94 -273z" />
<glyph unicode="&#x207e;" horiz-adv-x="256" d="M25 847l64 31q117 -122 117 -304q0 -180 -119 -308l-61 29q93 121 93 279q0 159 -94 273z" />
<glyph unicode="&#x207f;" horiz-adv-x="416" d="M370 380h-90v172q0 46 -14.5 67t-49.5 21q-56 0 -73 -52v-208h-90v324h72l13 -39h2q30 48 108 48q65 0 93.5 -30t28.5 -108v-195z" />
<glyph unicode="&#x2080;" horiz-adv-x="411" d="M33 110q0 108 45 162.5t127 54.5q173 0 173 -217q0 -107 -45.5 -162t-127.5 -55q-85 0 -128.5 55.5t-43.5 161.5zM123 110q0 -139 82 -139q42 0 62.5 30.5t20.5 108.5q0 139 -82 139q-43 0 -63 -30.5t-20 -108.5z" />
<glyph unicode="&#x2081;" horiz-adv-x="411" d="M77 -100v78h102v214l8 41l-28 -30l-70 -43l-37 61l156 106h61v-349h92v-78h-284z" />
<glyph unicode="&#x2082;" horiz-adv-x="411" d="M337 205q0 -54 -30 -101t-88 -106l-47 -29v-2l58 13h125v-80h-301v50q71 54 132 120.5t61 119.5q0 56 -64 56q-43 0 -95 -29l-27 71q58 39 139 39q66 0 101.5 -32t35.5 -90z" />
<glyph unicode="&#x2083;" horiz-adv-x="411" d="M173 -32q92 0 92 65q0 62 -94 62h-49v29l86 100l38 27l-53 -6h-123v75h268v-46l-96 -109l-29 -18v-3l26 3q54 -2 85 -33t31 -85q0 -64 -47.5 -100t-123.5 -36q-62 0 -117 21l18 73q43 -19 88 -19z" />
<glyph unicode="&#x2084;" horiz-adv-x="411" d="M394 60v-72h-80v-88h-82v88h-206v50l223 294h65v-272h80zM232 60v110l6 51h-3l-22 -48l-65 -87l-35 -32l52 6h67z" />
<glyph unicode="&#x2085;" horiz-adv-x="411" d="M160 -32q40 0 65 18.5t25 48.5q0 65 -95 66l-66 -3v222h235v-75h-163v-83q4 1 18 1.5t20 0.5q67 0 104 -34.5t37 -95.5q0 -69 -49.5 -105t-123.5 -36q-60 0 -109 19l21 70q44 -14 81 -14z" />
<glyph unicode="&#x2086;" horiz-adv-x="411" d="M368 30q0 -60 -42.5 -98.5t-113.5 -38.5q-74 0 -117.5 40.5t-43.5 115.5q0 121 70.5 195.5t184.5 82.5l11 -64q-66 -8 -112 -46t-65 -100q12 15 20 22.5t29 15.5t49 8q57 0 93.5 -36t36.5 -97zM279 25q0 31 -18 50t-53 19q-47 0 -66 -36q-1 -8 -1 -23q0 -33 18 -53 t53 -20q28 0 47.5 17t19.5 46z" />
<glyph unicode="&#x2087;" horiz-adv-x="411" d="M179 -100h-86l146 309l40 35l-51 -8h-174v84h301v-50z" />
<glyph unicode="&#x2088;" horiz-adv-x="411" d="M53 5q0 73 82 110q-71 34 -71 103q0 50 39.5 79.5t105.5 29.5q62 0 100.5 -28t38.5 -72q0 -71 -70 -106q39 -20 59.5 -45t20.5 -65q0 -53 -41.5 -85.5t-115.5 -32.5q-67 0 -107.5 30.5t-40.5 81.5zM271 13q0 26 -17 41.5t-55 32.5q-59 -28 -59 -72q0 -24 17.5 -38.5 t46.5 -14.5q31 0 49 13t18 38zM149 216q0 -40 69 -71q45 31 45 71q0 42 -55 42q-59 0 -59 -42z" />
<glyph unicode="&#x2089;" horiz-adv-x="411" d="M45 188q0 63 42 101t120 38q74 0 115 -42.5t41 -114.5q0 -132 -67.5 -202.5t-188.5 -74.5l-16 62q81 8 124.5 39t59.5 93q-33 -33 -90 -33q-63 0 -101.5 37t-38.5 97zM135 194q0 -34 19.5 -52.5t51.5 -18.5q50 0 66 27q1 8 1 25q0 38 -18 60.5t-53 22.5q-67 0 -67 -64z " />
<glyph unicode="&#x208a;" horiz-adv-x="411" d="M52 100v72h115v121h77v-121h115v-72h-115v-121h-77v121h-115z" />
<glyph unicode="&#x208b;" horiz-adv-x="411" d="M52 100v72h307v-72h-307z" />
<glyph unicode="&#x208c;" horiz-adv-x="411" d="M52 163v72h307v-72h-307zM52 37v72h307v-72h-307z" />
<glyph unicode="&#x208d;" horiz-adv-x="256" d="M231 -183l-64 -31q-117 122 -117 304q0 180 119 308l61 -29q-93 -121 -93 -279q0 -159 94 -273z" />
<glyph unicode="&#x208e;" horiz-adv-x="256" d="M25 367l64 31q117 -122 117 -304q0 -180 -119 -308l-61 29q93 121 93 279q0 159 -94 273z" />
<glyph unicode="&#x20ac;" d="M7 389l24 78h62q25 125 100.5 185.5t181.5 60.5q92 0 156 -25l-28 -86q-45 21 -125 21q-142 0 -181 -156h271l-21 -78h-261q-1 -13 -1 -39q0 -23 1 -33h241l-21 -78h-210q38 -162 195 -162q74 0 126 32l24 -80q-57 -42 -168 -42q-115 0 -187.5 62.5t-94.5 189.5h-84 l24 78h53q-1 10 -1 33q0 26 1 39h-77z" />
<glyph unicode="&#x20b4;" d="M43 320h427v-78h-238q-19 -20 -34 -49.5t-15 -53.5q0 -65 112 -65q76 0 134 31l27 -81q-62 -37 -183 -37q-94 0 -143 36t-49 104q0 57 45 115h-83v78zM470 383h-427v78h242q46 46 46 104q0 32 -22 46.5t-71 14.5q-65 0 -119 -28l-31 81q36 18 71.5 26t98.5 8 q175 0 175 -129q0 -68 -47 -123h84v-78z" />
<glyph unicode="&#x20b6;" d="M29 273v76h74v344q71 16 174 16q254 0 254 -214q0 -59 -21.5 -104.5t-58.5 -71t-80 -38t-92 -12.5q-55 0 -74 4v-60h164v-75h-164v-138h-102v138h-74v75h74v60h-74zM283 622q-54 0 -78 -6v-263q16 -4 66 -4q65 0 109 33.5t44 109.5q0 130 -141 130z" />
<glyph unicode="&#x20b7;" d="M29 273v76h74v344q71 16 174 16q254 0 254 -214q0 -59 -21.5 -104.5t-58.5 -71t-80 -38t-92 -12.5q-55 0 -74 4v-60h164v-75h-164v-138h-102v138h-74v75h74v60h-74zM283 622q-54 0 -78 -6v-263q16 -4 66 -4q65 0 109 33.5t44 109.5q0 130 -141 130z" />
<glyph unicode="&#x20b8;" d="M526 551v-81h-195v-470h-107v470h-195v81h497zM526 619h-497v81h497v-81z" />
<glyph unicode="&#x20b9;" d="M29 273v76h74v344q71 16 174 16q254 0 254 -214q0 -59 -21.5 -104.5t-58.5 -71t-80 -38t-92 -12.5q-55 0 -74 4v-60h164v-75h-164v-138h-102v138h-74v75h74v60h-74zM283 622q-54 0 -78 -6v-263q16 -4 66 -4q65 0 109 33.5t44 109.5q0 130 -141 130z" />
<glyph unicode="&#x20ba;" d="M29 273v76h74v344q71 16 174 16q254 0 254 -214q0 -59 -21.5 -104.5t-58.5 -71t-80 -38t-92 -12.5q-55 0 -74 4v-60h164v-75h-164v-138h-102v138h-74v75h74v60h-74zM283 622q-54 0 -78 -6v-263q16 -4 66 -4q65 0 109 33.5t44 109.5q0 130 -141 130z" />
<glyph unicode="&#x20bb;" d="M29 273v76h74v344q71 16 174 16q254 0 254 -214q0 -59 -21.5 -104.5t-58.5 -71t-80 -38t-92 -12.5q-55 0 -74 4v-60h164v-75h-164v-138h-102v138h-74v75h74v60h-74zM283 622q-54 0 -78 -6v-263q16 -4 66 -4q65 0 109 33.5t44 109.5q0 130 -141 130z" />
<glyph unicode="&#x20bc;" d="M29 273v76h74v344q71 16 174 16q254 0 254 -214q0 -59 -21.5 -104.5t-58.5 -71t-80 -38t-92 -12.5q-55 0 -74 4v-60h164v-75h-164v-138h-102v138h-74v75h74v60h-74zM283 622q-54 0 -78 -6v-263q16 -4 66 -4q65 0 109 33.5t44 109.5q0 130 -141 130z" />
<glyph unicode="&#x20bd;" d="M29 273v76h74v344q71 16 174 16q254 0 254 -214q0 -59 -21.5 -104.5t-58.5 -71t-80 -38t-92 -12.5q-55 0 -74 4v-60h164v-75h-164v-138h-102v138h-74v75h74v60h-74zM283 622q-54 0 -78 -6v-263q16 -4 66 -4q65 0 109 33.5t44 109.5q0 130 -141 130z" />
<glyph unicode="&#x20be;" d="M29 273v76h74v344q71 16 174 16q254 0 254 -214q0 -59 -21.5 -104.5t-58.5 -71t-80 -38t-92 -12.5q-55 0 -74 4v-60h164v-75h-164v-138h-102v138h-74v75h74v60h-74zM283 622q-54 0 -78 -6v-263q16 -4 66 -4q65 0 109 33.5t44 109.5q0 130 -141 130z" />
<glyph unicode="&#x20bf;" d="M29 273v76h74v344q71 16 174 16q254 0 254 -214q0 -59 -21.5 -104.5t-58.5 -71t-80 -38t-92 -12.5q-55 0 -74 4v-60h164v-75h-164v-138h-102v138h-74v75h74v60h-74zM283 622q-54 0 -78 -6v-263q16 -4 66 -4q65 0 109 33.5t44 109.5q0 130 -141 130z" />
<glyph unicode="&#x20c0;" d="M29 273v76h74v344q71 16 174 16q254 0 254 -214q0 -59 -21.5 -104.5t-58.5 -71t-80 -38t-92 -12.5q-55 0 -74 4v-60h164v-75h-164v-138h-102v138h-74v75h74v60h-74zM283 622q-54 0 -78 -6v-263q16 -4 66 -4q65 0 109 33.5t44 109.5q0 130 -141 130z" />
<glyph unicode="&#x20c1;" d="M29 273v76h74v344q71 16 174 16q254 0 254 -214q0 -59 -21.5 -104.5t-58.5 -71t-80 -38t-92 -12.5q-55 0 -74 4v-60h164v-75h-164v-138h-102v138h-74v75h74v60h-74zM283 622q-54 0 -78 -6v-263q16 -4 66 -4q65 0 109 33.5t44 109.5q0 130 -141 130z" />
<glyph unicode="&#x20c2;" d="M29 273v76h74v344q71 16 174 16q254 0 254 -214q0 -59 -21.5 -104.5t-58.5 -71t-80 -38t-92 -12.5q-55 0 -74 4v-60h164v-75h-164v-138h-102v138h-74v75h74v60h-74zM283 622q-54 0 -78 -6v-263q16 -4 66 -4q65 0 109 33.5t44 109.5q0 130 -141 130z" />
<glyph unicode="&#x20c3;" d="M29 273v76h74v344q71 16 174 16q254 0 254 -214q0 -59 -21.5 -104.5t-58.5 -71t-80 -38t-92 -12.5q-55 0 -74 4v-60h164v-75h-164v-138h-102v138h-74v75h74v60h-74zM283 622q-54 0 -78 -6v-263q16 -4 66 -4q65 0 109 33.5t44 109.5q0 130 -141 130z" />
<glyph unicode="&#x20c4;" d="M29 273v76h74v344q71 16 174 16q254 0 254 -214q0 -59 -21.5 -104.5t-58.5 -71t-80 -38t-92 -12.5q-55 0 -74 4v-60h164v-75h-164v-138h-102v138h-74v75h74v60h-74zM283 622q-54 0 -78 -6v-263q16 -4 66 -4q65 0 109 33.5t44 109.5q0 130 -141 130z" />
<glyph unicode="&#x20c5;" d="M29 273v76h74v344q71 16 174 16q254 0 254 -214q0 -59 -21.5 -104.5t-58.5 -71t-80 -38t-92 -12.5q-55 0 -74 4v-60h164v-75h-164v-138h-102v138h-74v75h74v60h-74zM283 622q-54 0 -78 -6v-263q16 -4 66 -4q65 0 109 33.5t44 109.5q0 130 -141 130z" />
<glyph unicode="&#x20c6;" d="M29 273v76h74v344q71 16 174 16q254 0 254 -214q0 -59 -21.5 -104.5t-58.5 -71t-80 -38t-92 -12.5q-55 0 -74 4v-60h164v-75h-164v-138h-102v138h-74v75h74v60h-74zM283 622q-54 0 -78 -6v-263q16 -4 66 -4q65 0 109 33.5t44 109.5q0 130 -141 130z" />
<glyph unicode="&#x20c7;" d="M29 273v76h74v344q71 16 174 16q254 0 254 -214q0 -59 -21.5 -104.5t-58.5 -71t-80 -38t-92 -12.5q-55 0 -74 4v-60h164v-75h-164v-138h-102v138h-74v75h74v60h-74zM283 622q-54 0 -78 -6v-263q16 -4 66 -4q65 0 109 33.5t44 109.5q0 130 -141 130z" />
<glyph unicode="&#x20c8;" d="M29 273v76h74v344q71 16 174 16q254 0 254 -214q0 -59 -21.5 -104.5t-58.5 -71t-80 -38t-92 -12.5q-55 0 -74 4v-60h164v-75h-164v-138h-102v138h-74v75h74v60h-74zM283 622q-54 0 -78 -6v-263q16 -4 66 -4q65 0 109 33.5t44 109.5q0 130 -141 130z" />
<glyph unicode="&#x20c9;" d="M29 273v76h74v344q71 16 174 16q254 0 254 -214q0 -59 -21.5 -104.5t-58.5 -71t-80 -38t-92 -12.5q-55 0 -74 4v-60h164v-75h-164v-138h-102v138h-74v75h74v60h-74zM283 622q-54 0 -78 -6v-263q16 -4 66 -4q65 0 109 33.5t44 109.5q0 130 -141 130z" />
<glyph unicode="&#x20ca;" d="M29 273v76h74v344q71 16 174 16q254 0 254 -214q0 -59 -21.5 -104.5t-58.5 -71t-80 -38t-92 -12.5q-55 0 -74 4v-60h164v-75h-164v-138h-102v138h-74v75h74v60h-74zM283 622q-54 0 -78 -6v-263q16 -4 66 -4q65 0 109 33.5t44 109.5q0 130 -141 130z" />
<glyph unicode="&#x20cb;" d="M29 273v76h74v344q71 16 174 16q254 0 254 -214q0 -59 -21.5 -104.5t-58.5 -71t-80 -38t-92 -12.5q-55 0 -74 4v-60h164v-75h-164v-138h-102v138h-74v75h74v60h-74zM283 622q-54 0 -78 -6v-263q16 -4 66 -4q65 0 109 33.5t44 109.5q0 130 -141 130z" />
<glyph unicode="&#x20cc;" d="M29 273v76h74v344q71 16 174 16q254 0 254 -214q0 -59 -21.5 -104.5t-58.5 -71t-80 -38t-92 -12.5q-55 0 -74 4v-60h164v-75h-164v-138h-102v138h-74v75h74v60h-74zM283 622q-54 0 -78 -6v-263q16 -4 66 -4q65 0 109 33.5t44 109.5q0 130 -141 130z" />
<glyph unicode="&#x20cd;" d="M29 273v76h74v344q71 16 174 16q254 0 254 -214q0 -59 -21.5 -104.5t-58.5 -71t-80 -38t-92 -12.5q-55 0 -74 4v-60h164v-75h-164v-138h-102v138h-74v75h74v60h-74zM283 622q-54 0 -78 -6v-263q16 -4 66 -4q65 0 109 33.5t44 109.5q0 130 -141 130z" />
<glyph unicode="&#x20ce;" d="M29 273v76h74v344q71 16 174 16q254 0 254 -214q0 -59 -21.5 -104.5t-58.5 -71t-80 -38t-92 -12.5q-55 0 -74 4v-60h164v-75h-164v-138h-102v138h-74v75h74v60h-74zM283 622q-54 0 -78 -6v-263q16 -4 66 -4q65 0 109 33.5t44 109.5q0 130 -141 130z" />
<glyph unicode="&#x20cf;" d="M29 273v76h74v344q71 16 174 16q254 0 254 -214q0 -59 -21.5 -104.5t-58.5 -71t-80 -38t-92 -12.5q-55 0 -74 4v-60h164v-75h-164v-138h-102v138h-74v75h74v60h-74zM283 622q-54 0 -78 -6v-263q16 -4 66 -4q65 0 109 33.5t44 109.5q0 130 -141 130z" />
<glyph unicode="&#x2105;" horiz-adv-x="808" d="M423 170q0 86 44.5 128t119.5 42q76 0 120 -40.5t44 -129.5t-44 -129.5t-120 -40.5t-120 40.5t-44 129.5zM516 170q0 -101 71 -101q36 0 53.5 22.5t17.5 78.5t-17.5 78.5t-53.5 22.5t-53.5 -22.5t-17.5 -78.5zM318 459l22 -63q-49 -26 -117 -26q-163 0 -163 166 q0 84 43 130.5t120 46.5q49 0 111 -25l-26 -65q-35 17 -70 17q-82 0 -82 -103q0 -95 88 -95q43 0 74 17zM102 40l541 674l60 -51l-541 -676z" />
<glyph unicode="&#x2113;" horiz-adv-x="500" d="M389 80l17 -50q-64 -42 -128 -42q-63 0 -91.5 30.5t-28.5 95.5v104l-50 -44l-35 44l85 74v254q0 84 35.5 125t93.5 41q50 0 80 -30.5t30 -88.5q0 -163 -171 -328v-140q0 -77 58 -77q46 0 105 32zM333 588q0 32 -13 48t-33 16q-61 0 -61 -95v-212q107 124 107 243z" />
<glyph unicode="&#x2116;" horiz-adv-x="1025" d="M663 246v90h294v-90h-294zM506 -8l-285 421l-55 108h-4l14 -104v-417h-102v708h69l287 -421l52 -105h5l-14 101v417h102v-708h-69zM643 542q0 86 44.5 128t119.5 42q76 0 120 -40.5t44 -129.5t-44 -129.5t-120 -40.5t-120 40.5t-44 129.5zM736 542q0 -101 71 -101 q36 0 53.5 22.5t17.5 78.5t-17.5 78.5t-53.5 22.5t-53.5 -22.5t-17.5 -78.5z" />
<glyph unicode="&#x2117;" horiz-adv-x="695" d="M75 451q0 127 78.5 199.5t194.5 72.5q118 0 195 -72.5t77 -199.5t-78 -199.5t-194 -72.5q-118 0 -195.5 72.5t-77.5 199.5zM151 451q0 -96 56.5 -148t140.5 -52q88 0 142 51t54 149q0 96 -55.5 148t-140.5 52q-89 0 -143 -52.5t-54 -147.5zM259 322v259q35 10 100 10 q44 0 73 -23.5t29 -64.5q0 -47 -26 -72t-66 -25q-25 0 -58 5v-89h-52zM348 546q-29 0 -37 -4v-91h34q33 0 47 12t14 38q0 45 -58 45z" />
<glyph unicode="&#x2122;" horiz-adv-x="913" d="M392 700v-87h-128v-273h-102v273h-128v87h358zM783 340v157l13 103h-5l-37 -85l-79 -130h-53l-79 128l-38 87h-5l18 -102v-158h-89v360h100l99 -160l26 -60h1l28 62l91 158h102v-360h-93z" />
<glyph unicode="&#x212e;" horiz-adv-x="600" d="M561 259h-404v-181q62 -59 145 -59q124 0 193 120l35 -21q-87 -135 -228 -135q-116 0 -187 78.5t-71 197.5t72 197.5t186 78.5q119 0 187.5 -78.5t71.5 -197.5zM157 295h291v145q-63 60 -147 60q-85 0 -144 -60v-145z" />
<glyph unicode="&#x2153;" horiz-adv-x="875" d="M158 31l463 683l66 -42l-462 -685zM641 68q92 0 92 65q0 62 -94 62h-49v29l86 100l38 27l-53 -6h-123v75h268v-46l-96 -109l-29 -18v-3l26 3q54 -2 85 -33t31 -85q0 -64 -47.5 -100t-123.5 -36q-62 0 -117 21l18 73q43 -19 88 -19zM163 280v292l8 41l-28 -30l-70 -43 l-37 61l156 106h61v-427h-90z" />
</font>
</defs>
</svg>
