<svg xmlns="http://www.w3.org/2000/svg">
<defs>
<font id="PTSansProBold" horiz-adv-x="567" >
  <font-face 
    font-family="PTSansProBold"
    font-weight="700"
    font-stretch="normal"
    units-per-em="1000"
    panose-1="2 11 7 3 2 2 3 2 2 4"
    ascent="770"
    descent="-230"
    x-height="500"
    cap-height="700"
    bbox="-464 -273 1191 1010"
    underline-thickness="50"
    underline-position="-50"
    unicode-range="U+0020-FB04"
  />
<missing-glyph horiz-adv-x="750" 
d="M50 0v700h650v-700h-650zM620 570l-50 50l-195 -217l-195 217l-50 -50l197 -220l-197 -220l50 -50l195 217l195 -217l50 50l-198 220zM129 63v-36h8v12h4q16 0 16 12t-17 12h-11zM137 57h4q8 0 8 -5q0 -6 -9 -6h-3v11zM189 57v6h-31v-6h12v-30h7v30h12zM222 37
q0 -4 -7 -4q-5 0 -9 2l-3 -7q8 -2 13 -2q14 0 14 12q0 7 -9 10t-9 6t6 3q3 0 9 -2l2 7q-8 2 -11 2q-14 0 -14 -11q0 -7 9 -10.5t9 -5.5zM235 52l2 -5q6 2 9 2q5 0 5 -4v-2l-1 1h-4q-12 0 -12 -10q0 -8 8 -8q6 0 9 5l2 -4h6q-1 1 -1 7v11q0 10 -10 10q-4 0 -13 -3zM245 32
q-4 0 -4 4t5 4h4l1 -1v-3q-1 -4 -6 -4zM284 27h8v16q0 12 -9 12q-7 0 -10 -5l-2 4h-5v-27h7v17q1 4 6 4t5 -6v-15zM299 34l-2 -6q6 -2 10 -2q11 0 11 9q0 5 -8 9q-5 2 -5 3q0 2 3 2q2 0 8 -2l2 6q-6 2 -10 2q-10 0 -10 -9q0 -5 8 -9q5 -2 5 -3q0 -2 -3 -2t-9 2zM338 42
q0 -21 20 -21t20 21q0 20 -20 20q-8 0 -14 -5.5t-6 -14.5zM344 42q0 15 14 15t14 -15t-14 -15t-14 15zM365 33l-1 5q-2 -1 -4 -1q-4 0 -4 5q0 4 4 4h3l2 4q-3 2 -7 2q-9 0 -9 -10q0 -11 9 -11q5 0 7 2zM399 63v-36h8v12h4q16 0 16 12t-17 12h-11zM407 57h4q8 0 8 -5
q0 -6 -9 -6h-3v11zM430 52l2 -5q6 2 9 2q5 0 5 -4v-2l-2 1h-3q-13 0 -13 -10q0 -8 9 -8q6 0 9 5l2 -4h6q-1 1 -1 7v11q0 10 -10 10q-4 0 -13 -3zM440 32q-4 0 -4 4t5 4h3l2 -1v-3q-1 -4 -6 -4zM477 47l1 7q-1 1 -4 1q-4 0 -6 -5h-1l-1 4h-6v-27h8v17q0 4 6 4zM482 52l1 -5
q8 2 9 2q5 0 5 -4v-2l-1 1h-4q-13 0 -13 -10q0 -8 9 -8q7 0 9 5h1l1 -4h6q-1 1 -1 7v11q0 10 -10 10q-3 0 -12 -3zM491 32q-4 0 -4 4t5 4h4l1 -1v-3q-1 -4 -6 -4zM533 57v6h-31v-6h12v-30h7v30h12zM547 39l-6 15h-8l12 -27q-2 -5 -5 -5l-1 1l-2 -6q1 -1 5 -1q6 0 10 13

<glyph glyph-name="IJ" unicode="IJ" horiz-adv-x="609" 
d="M74 0v700h137v-700h-137zM408 223v477h137v-512q0 -87 -41 -143.5t-128 -56.5q-71 0 -122 23l30 112q26 -13 59 -13q39 0 52 28t13 85z" />
    <glyph glyph-name="ij" unicode="ij" horiz-adv-x="509" 
d="M70 0v500h130v-500h-130zM51 641q0 30 22 50t59 20q38 0 61.5 -20t23.5 -50t-23.5 -49t-61.5 -19q-37 0 -59 19t-22 49zM313 16v484h130v-521q0 -187 -151 -187q-30 0 -64 7v109q3 0 7 -0.5t6 -0.5q42 0 57 26.5t15 82.5zM293 641q0 30 22 50t59 20q38 0 61.5 -20
t23.5 -50t-23.5 -49t-61.5 -19q-37 0 -59 19t-22 49z" />
    <glyph glyph-name="uniF374.var.accented" unicode="&#xf374;`" horiz-adv-x="486" 
d="M433 126l25 -104q-52 -33 -158 -33q-55 0 -100.5 14t-82.5 45t-58 85.5t-21 129.5q0 77 23.5 132.5t63.5 85t84 42.5t95 13q85 0 146 -21l-23 -112q-41 18 -114 18q-56 0 -90.5 -28t-46.5 -78h213v-96h-214q10 -51 45 -83t96 -32q71 0 117 22zM237 591l53 154h132v-30
l-111 -124h-74z" />
    <glyph glyph-name="uniF376.var.accented" unicode="&#xf376;`" horiz-adv-x="280" 
d="M75 0v525h130v-525h-130zM79 591l53 154h132v-30l-111 -124h-74z" />
    <glyph glyph-name="uniF377.var.accented" unicode="&#xf377;`" horiz-adv-x="398" 
d="M115 0v525h130v-525h-130zM7 680q0 30 18.5 48t48.5 18q26 0 42.5 -18.5t16.5 -47.5q0 -28 -16 -46t-43 -18q-30 0 -48.5 18t-18.5 46zM266 680q0 29 17 47.5t42 18.5q31 0 49 -18t18 -48q0 -28 -18.5 -46t-48.5 -18q-26 0 -42.5 18t-16.5 46zM139 638l49 173h99v-28
l-101 -145h-47z" />
    <glyph glyph-name="uniF350.var.accented" unicode="&#xf350;`" horiz-adv-x="500" 
d="M363 0l-36 96h-163l-34 -96h-130l197 528h107l196 -528h-137zM229 287l-34 -92h107l-34 92l-19 86h-4zM212 591l53 154h132v-30l-111 -124h-74z" />
    <glyph glyph-name="uniF355.var.accented" unicode="&#xf355;`" horiz-adv-x="456" 
d="M60 0v525h350v-110h-220v-97h200v-108h-200v-100h224v-110h-354zM186 591l53 154h132v-30l-111 -124h-74z" />
    <glyph glyph-name="uniF358.var.accented" unicode="&#xf358;`" horiz-adv-x="569" 
d="M379 0v247l9 83h-5l-42 -83l-186 -247h-95v525h130v-232l-11 -89h6l45 88l184 233h95v-525h-130zM232 591l53 154h132v-30l-111 -124h-74z" />
    <glyph glyph-name="uniF35E.var.accented" unicode="&#xf35e;`" horiz-adv-x="563" 
d="M38 263q0 131 63.5 202t180.5 71q120 0 181.5 -73.5t61.5 -199.5q0 -130 -63.5 -202t-179.5 -72q-122 0 -183 73.5t-61 200.5zM172 263q0 -159 109 -159q110 0 110 159q0 158 -110 158q-109 0 -109 -158zM222 591l53 154h132v-30l-111 -124h-74z" />
    <glyph glyph-name="uniF363.var.accented" unicode="&#xf363;`" horiz-adv-x="467" 
d="M144 525l95 -202l18 -78h6l13 80l71 200h134l-153 -381q-31 -76 -67.5 -113t-99.5 -37q-57 0 -88 21l33 100q20 -11 41 -11q39 0 52 47l-208 374h153zM180 591l53 154h132v-30l-111 -124h-74z" />
    <glyph glyph-name="uniF36B.var.accented" unicode="&#xf36b;`" horiz-adv-x="701" 
d="M510 0v525h130v-525h-130zM60 5v520h130v-178q36 6 66 6q202 0 202 -174q0 -188 -238 -188q-101 0 -160 14zM238 101q86 0 86 76q0 71 -86 71q-32 0 -48 -7v-134q14 -6 48 -6zM283 591l53 154h132v-30l-111 -124h-74z" />
    <glyph glyph-name="uniF36D.var.accented" unicode="&#xf36d;`" horiz-adv-x="488" 
d="M107 216v97h211q-13 108 -138 108q-75 0 -129 -29l-30 108q78 36 167 36q261 0 261 -273q0 -139 -77.5 -206.5t-198.5 -67.5q-93 0 -155 34l33 107q64 -26 131 -26q127 0 137 112h-212zM125 591l53 154h132v-30l-111 -124h-74z" />
    <glyph glyph-name="uniF36E.var.accented" unicode="&#xf36e;`" horiz-adv-x="760" 
d="M190 525v-204h68q11 102 69 158.5t159 56.5q120 0 178 -72.5t58 -200.5q0 -132 -60.5 -203t-176.5 -71q-101 0 -159 58t-68 159h-68v-206h-130v525h130zM386 263q0 -159 100 -159q52 0 77 37t25 122q0 158 -102 158q-100 0 -100 -158zM297 591l53 154h132v-30l-111 -124
h-74z" />
    <glyph glyph-name="uniF36F.var.accented" unicode="&#xf36f;`" horiz-adv-x="506" 
d="M445 520v-520h-130v191l-54 -12l-104 -179h-152l109 165l48 33q-53 13 -85 52.5t-32 105.5q0 178 252 178q95 0 148 -14zM268 424q-39 0 -64 -18.5t-25 -57.5t24.5 -58t65.5 -19h46v149q-16 4 -47 4zM223 591l53 154h132v-30l-111 -124h-74z" />
    <glyph glyph-name="uniF371.var.accented" unicode="&#xf371;`" horiz-adv-x="456" 
d="M60 0v525h350v-110h-220v-97h200v-108h-200v-100h224v-110h-354zM40 680q0 30 18 48t49 18q26 0 42.5 -18.5t16.5 -47.5q0 -28 -16 -46t-43 -18q-30 0 -48.5 18t-18.5 46zM299 680q0 29 17 47.5t42 18.5q30 0 48.5 -18t18.5 -48q0 -28 -18.5 -46t-48.5 -18
q-26 0 -42.5 18t-16.5 46zM172 638l49 173h99v-28l-101 -145h-47z" />
    <glyph glyph-name="uniF38A.var.accented" unicode="&#xf38a;`" horiz-adv-x="504" 
d="M437 363l-136 -366h-108l-206 528h150l99 -271l17 -100h5l14 101l47 146q24 72 56.5 102t90.5 30q50 0 91 -18l-27 -106q-21 9 -40 9q-34 0 -53 -55zM194 591l53 154h132v-30l-111 -124h-74z" />
    <glyph glyph-name="afii10053.var.accented" unicode="&#x404;`" horiz-adv-x="577" 
d="M521 139l28 -110q-59 -43 -191 -43q-67 0 -123 20.5t-101 62t-70.5 113.5t-25.5 168q0 98 28.5 171.5t76.5 114t103 59.5t116 19q108 0 177 -27l-26 -119q-50 24 -139 24q-74 0 -124.5 -44.5t-64.5 -131.5h275v-112h-278q11 -90 63.5 -143t138.5 -53q84 0 137 31z
M274 752l104 118h159v-30l-160 -88h-103z" />
    <glyph glyph-name="afii10055.var.accented" unicode="&#x406;`" horiz-adv-x="285" 
d="M74 0v700h137v-700h-137zM48 752l104 118h159v-30l-160 -88h-103z" />
    <glyph glyph-name="afii10056.var.accented" unicode="&#x407;`" horiz-adv-x="301" 
d="M20 792q0 31 15.5 47.5t44.5 16.5q28 0 43.5 -16.5t15.5 -47.5q0 -30 -15.5 -46t-43.5 -16q-60 0 -60 62zM160 792q0 31 15.5 47.5t43.5 16.5q29 0 44.5 -16.5t15.5 -47.5q0 -62 -60 -62q-28 0 -43.5 16t-15.5 46zM99 868l73 88h139v-26l-129 -62h-83zM82 0v700h137v-700
h-137z" />
    <glyph glyph-name="afii10017.var.accented" unicode="&#x410;`" horiz-adv-x="605" 
d="M461 0l-56 155h-215l-53 -155h-137l252 705h101l252 -705h-144zM276 420l-51 -155h150l-52 156l-21 110h-5zM206 752l104 118h159v-30l-160 -88h-103z" />
    <glyph glyph-name="afii10022.var.accented" unicode="&#x415;`" horiz-adv-x="522" 
d="M60 0v700h415v-122h-278v-163h253v-122h-253v-171h283v-122h-420zM184 752l104 118h159v-30l-160 -88h-103z" />
    <glyph glyph-name="afii10026.var.accented" unicode="&#x418;`" horiz-adv-x="666" 
d="M468 0v388l8 91h-5l-47 -94l-261 -385h-103v700h137v-381l-10 -94h6l49 97l261 378h102v-700h-137zM248 752l104 118h159v-30l-160 -88h-103z" />
    <glyph glyph-name="afii10032.var.accented" unicode="&#x41e;`" horiz-adv-x="670" 
d="M38 350q0 174 77.5 269t219.5 95q147 0 222 -97.5t75 -266.5q0 -174 -78 -269t-219 -95q-148 0 -222.5 97.5t-74.5 266.5zM182 350q0 -111 38 -176.5t115 -65.5q153 0 153 242q0 110 -37 176t-116 66q-153 0 -153 -242zM264 752l104 118h159v-30l-160 -88h-103z" />
    <glyph glyph-name="afii10037.var.accented" unicode="&#x423;`" horiz-adv-x="568" 
d="M152 700l142 -309l20 -91h6l16 94l105 306h141l-186 -484q-48 -123 -90.5 -173t-116.5 -50q-60 0 -98 24l35 111q25 -13 61 -13q47 0 66 74l-262 511h161zM202 752l104 118h159v-30l-160 -88h-103z" />
    <glyph glyph-name="afii10045.var.accented" unicode="&#x42b;`" horiz-adv-x="798" 
d="M600 0v700h137v-700h-137zM60 7v693h137v-251q37 8 82 8q249 0 249 -224q0 -243 -282 -243q-116 0 -186 17zM256 112q128 0 128 115q0 61 -33.5 84.5t-93.5 23.5q-40 0 -60 -8v-209q21 -6 59 -6zM284 752l104 118h159v-30l-160 -88h-103z" />
    <glyph glyph-name="afii10047.var.accented" unicode="&#x42d;`" horiz-adv-x="574" 
d="M130 300v110h269q-6 83 -54 132.5t-133 49.5q-91 0 -159 -37l-29 116q82 43 193 43q149 0 234 -86.5t85 -277.5q0 -100 -27.5 -173.5t-76.5 -113.5t-107 -58.5t-127 -18.5q-106 0 -178 33l36 119q62 -30 152 -30q81 0 133 47.5t59 144.5h-270zM139 752l104 118h159v-30
l-160 -88h-103z" />
    <glyph glyph-name="afii10048.var.accented" unicode="&#x42e;`" horiz-adv-x="897" 
d="M197 700v-285h93q13 144 85 221.5t198 77.5q146 0 216 -96.5t70 -267.5q0 -175 -73 -269.5t-213 -94.5q-128 0 -199.5 82t-83.5 225h-93v-293h-137v700h137zM430 350q0 -242 143 -242q74 0 108 57.5t34 184.5q0 113 -32 177.5t-110 64.5q-72 0 -107.5 -59t-35.5 -183z
M314 752l104 118h159v-30l-160 -88h-103z" />
    <glyph glyph-name="afii10049.var.accented" unicode="&#x42f;`" horiz-adv-x="580" 
d="M519 693v-693h-137v277l-72 -19l-146 -258h-159l144 233l60 43q-69 17 -111.5 70t-42.5 139q0 225 293 225q108 0 171 -17zM331 588q-132 0 -132 -109q0 -59 36 -86t96 -27h51v217q-23 5 -51 5zM255 752l104 118h159v-30l-160 -88h-103z" />
    <glyph glyph-name="afii10023.var.accented" unicode="&#x401;`" horiz-adv-x="522" 
d="M60 0v700h415v-122h-278v-163h253v-122h-253v-171h283v-122h-420zM349 807q0 27 16.5 42.5t46.5 15.5q77 0 77 -58q0 -57 -77 -57q-30 0 -46.5 15.5t-16.5 41.5zM37 807q0 58 76 58q30 0 47 -16t17 -42t-17 -41.5t-47 -15.5q-76 0 -76 57zM175 757l55 135h127v-30
l-103 -105h-79z" />
    <glyph glyph-name="afii10065.var.accented" unicode="&#x430;`" horiz-adv-x="496" 
d="M85 374l-31 97q86 39 210 39q99 0 139.5 -44.5t40.5 -130.5q0 -34 -3.5 -100.5t-3.5 -98.5q0 -83 18 -137h-106l-21 69h-5q-50 -76 -147 -76q-69 0 -111 40.5t-42 105.5q0 161 253 161q25 0 38 -1q2 13 2 34q0 38 -17.5 54.5t-59.5 16.5q-91 0 -154 -29zM219 99
q67 0 96 55v65q-26 2 -38 2q-120 0 -120 -63q0 -28 16.5 -43.5t45.5 -15.5zM188 566l53 154h132v-30l-111 -124h-74z" />
    <glyph glyph-name="afii10070.var.accented" unicode="&#x435;`" horiz-adv-x="508" 
d="M414 128l43 -85q-31 -25 -83 -41t-108 -16q-118 0 -175.5 68.5t-57.5 195.5q0 130 62.5 197t177.5 67q86 0 143 -47.5t57 -154.5q0 -45 -10 -95h-300q3 -64 33 -95.5t95 -31.5q74 0 123 38zM271 410q-95 0 -105 -112h186q0 2 0.5 8t0.5 8q0 96 -82 96zM217 566l53 154
h132v-30l-111 -124h-74z" />
    <glyph glyph-name="afii10074.var.accented" unicode="&#x438;`" horiz-adv-x="545" 
d="M358 0v228l5 71h-3l-43 -73l-178 -226h-82v500h130v-238l-6 -68h4l41 71l180 235h82v-500h-130zM224 566l53 154h132v-30l-111 -124h-74z" />
    <glyph glyph-name="afii10080.var.accented" unicode="&#x43e;`" horiz-adv-x="537" 
d="M33 250q0 126 62 195t174 69q116 0 175.5 -71t59.5 -193q0 -126 -61.5 -195t-173.5 -69q-116 0 -176 71t-60 193zM167 250q0 -70 25 -112t77 -42q101 0 101 154t-101 154q-102 0 -102 -154zM212 566l53 154h132v-30l-111 -124h-74z" />
    <glyph glyph-name="afii10085.var.accented" unicode="&#x443;`" horiz-adv-x="478" 
d="M147 500l92 -281l18 -78h6l13 79l76 280h134l-152 -451q-18 -54 -29.5 -85t-29 -68t-34 -56t-39.5 -32t-50 -13q-52 0 -83 17l24 104q15 -6 30 -6q57 0 77 90l-209 500h156zM200 566l53 154h132v-30l-111 -124h-74z" />
    <glyph glyph-name="afii10093.var.accented" unicode="&#x44b;`" horiz-adv-x="703" 
d="M187 229v-120q30 -6 57 -6q44 0 62.5 16t18.5 52q0 65 -78 65q-33 0 -60 -7zM187 500v-178q45 7 93 7q179 0 179 -155q0 -93 -52.5 -137t-174.5 -44q-94 0 -175 7v500h130zM516 0v500h130v-500h-130zM269 566l53 154h132v-30l-111 -124h-74z" />
    <glyph glyph-name="afii10095.var.accented" unicode="&#x44d;`" horiz-adv-x="459" 
d="M109 207v93h186q-11 104 -116 104q-64 0 -118 -30l-35 94q66 46 178 46q222 0 222 -264q0 -130 -61 -197t-171 -67q-113 0 -171 36l32 102q51 -28 118 -28q62 0 90 26.5t33 84.5h-187zM138 566l53 154h132v-30l-111 -124h-74z" />
    <glyph glyph-name="afii10096.var.accented" unicode="&#x44e;`" horiz-adv-x="734" 
d="M480 -14q-108 0 -158 55t-59 161h-76v-202h-130v500h130v-188h77q11 100 63.5 151t154.5 51q110 0 164 -70t54 -194q0 -128 -55 -196t-165 -68zM387 250q0 -76 21.5 -115t71.5 -39q46 0 66 34.5t20 119.5q0 80 -20 117t-69 37q-47 0 -68.5 -36t-21.5 -118zM279 566
l53 154h132v-30l-111 -124h-74z" />
    <glyph glyph-name="afii10097.var.accented" unicode="&#x44f;`" horiz-adv-x="503" 
d="M321 0v189l-60 -12l-96 -177h-155l97 157l49 37q-50 8 -81.5 47t-31.5 96q0 90 60.5 133.5t185.5 43.5q80 0 162 -16v-498h-130zM285 255l36 2v138q-21 9 -49 9q-95 0 -95 -76q0 -75 108 -73zM222 566l53 154h132v-30l-111 -124h-74z" />
    <glyph glyph-name="afii10071.var.accented" unicode="&#x451;`" horiz-adv-x="508" 
d="M414 128l43 -85q-31 -25 -83 -41t-108 -16q-118 0 -175.5 68.5t-57.5 195.5q0 130 62.5 197t177.5 67q86 0 143 -47.5t57 -154.5q0 -45 -10 -95h-300q3 -64 33 -95.5t95 -31.5q74 0 123 38zM271 410q-95 0 -105 -112h186q0 2 0.5 8t0.5 8q0 96 -82 96zM71 624
q0 30 18.5 48t48.5 18q26 0 42.5 -18.5t16.5 -47.5q0 -28 -16 -46t-43 -18q-30 0 -48.5 18t-18.5 46zM330 624q0 29 17 47.5t42 18.5q31 0 49 -18t18 -48q0 -28 -18.5 -46t-48.5 -18q-26 0 -42.5 18t-16.5 46zM203 582l49 173h99v-28l-101 -145h-47z" />
    <glyph glyph-name="afii10101.var.accented" unicode="&#x454;`" horiz-adv-x="457" 
d="M405 130l30 -99q-62 -45 -165 -45q-117 0 -175 70.5t-58 193.5q0 125 64.5 194.5t173.5 69.5q92 0 153 -32l-30 -106q-48 23 -103 23q-104 0 -123 -102h195v-88h-196q9 -50 42 -79t89 -29q58 0 103 29zM210 566l53 154h132v-30l-111 -124h-74z" />
    <glyph glyph-name="afii10103.var.accented" unicode="&#x456;`" horiz-adv-x="269" 
d="M70 0v500h130v-500h-130zM50 641q0 30 22 50t59 20q38 0 61.5 -20t23.5 -50t-23.5 -49t-61.5 -19q-37 0 -59 19t-22 49zM68 752l104 118h159v-30l-160 -88h-103z" />
    <glyph glyph-name="afii10104.var.accented" unicode="&#x457;`" horiz-adv-x="285" 
d="M17 627q0 64 58 64t58 -64q0 -62 -58 -62t-58 62zM154 627q0 64 57 64q58 0 58 -64q0 -62 -58 -62q-57 0 -57 62zM78 0v500h130v-500h-130zM76 723l104 118h159v-30l-160 -88h-103z" />
    <glyph glyph-name="afii10062.var.accented" unicode="&#x40e;`" horiz-adv-x="568" 
d="M152 700l142 -309l20 -91h6l16 94l105 306h141l-186 -484q-48 -123 -90.5 -173t-116.5 -50q-60 0 -98 24l35 111q25 -13 61 -13q47 0 66 74l-262 511h161zM103 854l124 20q4 -35 22.5 -53t62.5 -18q74 0 90 59l98 -14q-22 -113 -200 -113q-87 0 -137.5 27t-59.5 92z
M261 837l77 118h154v-30l-164 -88h-67z" />
    <glyph glyph-name="afii10110.var.accented" unicode="&#x45e;`" horiz-adv-x="478" 
d="M147 500l92 -281l18 -78h6l13 79l76 280h134l-152 -451q-18 -54 -29.5 -85t-29 -68t-34 -56t-39.5 -32t-50 -13q-52 0 -83 17l24 104q15 -6 30 -6q57 0 77 90l-209 500h156zM68 678l110 26q12 -71 77 -71q69 0 89 70l88 -25q-13 -63 -60.5 -95.5t-119.5 -32.5
q-74 0 -123.5 31t-60.5 97zM223 677l42 154h127v-30l-117 -124h-52z" />
    <glyph glyph-name="afii10148.var.accented" unicode="&#x474;`" horiz-adv-x="629" 
d="M525 510l-178 -515h-98l-262 705h159l140 -411l18 -119h4l16 120l69 229q32 109 71.5 149.5t111.5 40.5q61 0 107 -23l-30 -116q-29 15 -62 15q-22 0 -37.5 -17.5t-28.5 -57.5zM236 752l104 118h159v-30l-160 -88h-103z" />
    <glyph glyph-name="afii10196.var.accented" unicode="&#x475;`" horiz-adv-x="527" 
d="M427 329l-138 -334h-79l-217 505h151l93 -262l17 -77h4l15 79l23 71q36 114 69 156t96 42q53 0 82 -17l-18 -107q-18 9 -34 9q-37 0 -64 -65zM207 566l53 154h132v-30l-111 -124h-74z" />
    <glyph glyph-name="uni04AE.var.accented" unicode="&#x4ae;`" horiz-adv-x="592" 
d="M228 0v260l-230 440h163l128 -263l14 -74h5l15 76l124 261h147l-229 -439v-261h-137zM219 752l104 118h159v-30l-160 -88h-103z" />
    <glyph glyph-name="uni04AF.var.accented" unicode="&#x4af;`" horiz-adv-x="491" 
d="M187 -1l-194 501h151l93 -297l18 -93h4l14 95l85 295h140l-181 -501v-199h-130v199zM199 566l53 154h132v-30l-111 -124h-74z" />
    <glyph glyph-name="uni04B0.var.accented" unicode="&#x4b0;`" horiz-adv-x="592" 
d="M73 203v91h137l-212 406h163l128 -263l14 -74h5l15 76l124 261h147l-212 -406h138v-91h-155v-203h-137v203h-155zM219 752l104 118h159v-30l-160 -88h-103z" />
    <glyph glyph-name="uni04B1.var.accented" unicode="&#x4b1;`" horiz-adv-x="491" 
d="M67 -80v80h119l-193 500h151l93 -297l18 -93h4l14 95l85 295h140l-181 -500h120v-80h-120v-120h-130v120h-120zM193 566l53 154h132v-30l-111 -124h-74z" />
    <glyph glyph-name="uni04D0.var.accented" unicode="&#x4d0;`" horiz-adv-x="605" 
d="M461 0l-56 155h-215l-53 -155h-137l252 705h101l252 -705h-144zM276 420l-51 -155h150l-52 156l-21 110h-5zM105 854l124 20q4 -35 22.5 -53t62.5 -18q74 0 90 59l98 -14q-22 -113 -200 -113q-87 0 -137.5 27t-59.5 92zM263 837l77 118h154v-30l-164 -88h-67z" />
    <glyph glyph-name="uni04D1.var.accented" unicode="&#x4d1;`" horiz-adv-x="496" 
d="M85 374l-31 97q86 39 210 39q99 0 139.5 -44.5t40.5 -130.5q0 -34 -3.5 -100.5t-3.5 -98.5q0 -83 18 -137h-106l-21 69h-5q-50 -76 -147 -76q-69 0 -111 40.5t-42 105.5q0 161 253 161q25 0 38 -1q2 13 2 34q0 38 -17.5 54.5t-59.5 16.5q-91 0 -154 -29zM219 99
q67 0 96 55v65q-26 2 -38 2q-120 0 -120 -63q0 -28 16.5 -43.5t45.5 -15.5zM70 678l110 26q12 -71 77 -71q69 0 89 70l88 -25q-13 -63 -60.5 -95.5t-119.5 -32.5q-74 0 -123.5 31t-60.5 97zM225 677l42 154h127v-30l-117 -124h-52z" />
    <glyph glyph-name="uni04D2.var.accented" unicode="&#x4d2;`" horiz-adv-x="605" 
d="M461 0l-56 155h-215l-53 -155h-137l252 705h101l252 -705h-144zM276 420l-51 -155h150l-52 156l-21 110h-5zM388 807q0 27 16.5 42.5t46.5 15.5q77 0 77 -58q0 -57 -77 -57q-30 0 -46.5 15.5t-16.5 41.5zM76 807q0 58 76 58q30 0 47 -16t17 -42t-17 -41.5t-47 -15.5
q-76 0 -76 57zM214 757l55 135h127v-30l-103 -105h-79z" />
    <glyph glyph-name="uni04D3.var.accented" unicode="&#x4d3;`" horiz-adv-x="496" 
d="M85 374l-31 97q86 39 210 39q99 0 139.5 -44.5t40.5 -130.5q0 -34 -3.5 -100.5t-3.5 -98.5q0 -83 18 -137h-106l-21 69h-5q-50 -76 -147 -76q-69 0 -111 40.5t-42 105.5q0 161 253 161q25 0 38 -1q2 13 2 34q0 38 -17.5 54.5t-59.5 16.5q-91 0 -154 -29zM219 99
q67 0 96 55v65q-26 2 -38 2q-120 0 -120 -63q0 -28 16.5 -43.5t45.5 -15.5zM57 624q0 30 18.5 48t48.5 18q26 0 42.5 -18.5t16.5 -47.5q0 -28 -16 -46t-43 -18q-30 0 -48.5 18t-18.5 46zM316 624q0 29 17 47.5t42 18.5q31 0 49 -18t18 -48q0 -28 -18.5 -46t-48.5 -18
q-26 0 -42.5 18t-16.5 46zM189 582l49 173h99v-28l-101 -145h-47z" />
    <glyph glyph-name="uni04D4.var.accented" unicode="&#x4d4;`" horiz-adv-x="862" 
d="M400 532h-6l-36 -103l-84 -149h126v252zM400 0v170h-186l-99 -170h-144l424 700h419v-122h-277v-163h252v-122h-252v-171h282v-122h-419zM415 752l104 118h159v-30l-160 -88h-103z" />
    <glyph glyph-name="uni04D5.var.accented" unicode="&#x4d5;`" horiz-adv-x="785" 
d="M219 99q67 0 96 55v65q-68 6 -113 -8.5t-45 -52.5q0 -28 16.5 -43.5t45.5 -15.5zM355 76h-5q-67 -84 -174 -84q-69 0 -111 40.5t-42 105.5q0 173 290 160q2 13 2 35q0 37 -17 53.5t-59 16.5q-77 0 -151 -36l-34 94q91 49 210 49q95 0 134 -54q52 58 152 58q41 0 75 -10
t63 -32.5t45.5 -63t16.5 -96.5q0 -44 -10 -95h-301q4 -65 34 -96t95 -31q74 0 123 38l43 -85q-31 -25 -83 -41t-108 -16q-131 0 -188 90zM548 410q-95 0 -105 -112h187q6 112 -82 112zM352 566l53 154h132v-30l-111 -124h-74z" />
    <glyph glyph-name="uni04D6.var.accented" unicode="&#x4d6;`" horiz-adv-x="522" 
d="M60 0v700h415v-122h-278v-163h253v-122h-253v-171h283v-122h-420zM76 854l124 20q4 -35 22.5 -53t62.5 -18q74 0 90 59l98 -14q-22 -113 -200 -113q-87 0 -137.5 27t-59.5 92zM234 837l77 118h154v-30l-164 -88h-67z" />
    <glyph glyph-name="uni04D7.var.accented" unicode="&#x4d7;`" horiz-adv-x="508" 
d="M414 128l43 -85q-31 -25 -83 -41t-108 -16q-118 0 -175.5 68.5t-57.5 195.5q0 130 62.5 197t177.5 67q86 0 143 -47.5t57 -154.5q0 -45 -10 -95h-300q3 -64 33 -95.5t95 -31.5q74 0 123 38zM271 410q-95 0 -105 -112h186q0 2 0.5 8t0.5 8q0 96 -82 96zM85 678l110 26
q12 -71 77 -71q69 0 89 70l88 -25q-13 -63 -60.5 -95.5t-119.5 -32.5q-74 0 -123.5 31t-60.5 97zM240 677l42 154h127v-30l-117 -124h-52z" />
    <glyph glyph-name="uni04D8.var.accented" unicode="&#x4d8;`" horiz-adv-x="630" 
d="M455 296h-271q-3 -19 -3 -38q0 -67 32.5 -113t95.5 -46q70 0 108 50.5t38 146.5zM47 409h409q-13 183 -183 183q-80 0 -155 -45l-29 117q33 20 91 35t116 15q296 0 296 -364t-289 -364q-132 0 -199 81.5t-67 222.5q0 59 10 119zM217 752l104 118h159v-30l-160 -88h-103z
" />
    <glyph glyph-name="afii10846.var.accented" unicode="&#x4d9;`" horiz-adv-x="508" 
d="M96 369l-46 88q31 25 83 41t108 16q117 0 175 -70.5t58 -193.5q0 -125 -62 -194.5t-169 -69.5q-88 0 -148.5 51.5t-60.5 163.5q0 42 10 91h303q-5 62 -35 90t-95 28t-121 -41zM242 90q48 0 74.5 33.5t27.5 87.5h-189q-5 -55 18.5 -88t68.5 -33zM189 566l53 154h132v-30
l-111 -124h-74z" />
    <glyph glyph-name="uni04DA.var.accented" unicode="&#x4da;`" horiz-adv-x="630" 
d="M455 296h-271q-3 -19 -3 -38q0 -67 32.5 -113t95.5 -46q70 0 108 50.5t38 146.5zM47 409h409q-13 183 -183 183q-80 0 -155 -45l-29 117q33 20 91 35t116 15q296 0 296 -364t-289 -364q-132 0 -199 81.5t-67 222.5q0 59 10 119zM389 807q0 27 16.5 42.5t46.5 15.5
q77 0 77 -58q0 -57 -77 -57q-30 0 -46.5 15.5t-16.5 41.5zM77 807q0 58 76 58q30 0 47 -16t17 -42t-17 -41.5t-47 -15.5q-76 0 -76 57zM215 757l55 135h127v-30l-103 -105h-79z" />
    <glyph glyph-name="uni04DB.var.accented" unicode="&#x4db;`" horiz-adv-x="508" 
d="M96 369l-46 88q31 25 83 41t108 16q117 0 175 -70.5t58 -193.5q0 -125 -62 -194.5t-169 -69.5q-88 0 -148.5 51.5t-60.5 163.5q0 42 10 91h303q-5 62 -35 90t-95 28t-121 -41zM242 90q48 0 74.5 33.5t27.5 87.5h-189q-5 -55 18.5 -88t68.5 -33zM59 624q0 30 18.5 48
t48.5 18q26 0 42.5 -18.5t16.5 -47.5q0 -28 -16 -46t-43 -18q-30 0 -48.5 18t-18.5 46zM318 624q0 29 17 47.5t42 18.5q31 0 49 -18t18 -48q0 -28 -18.5 -46t-48.5 -18q-26 0 -42.5 18t-16.5 46zM191 582l49 173h99v-28l-101 -145h-47z" />
    <glyph glyph-name="uni04E2.var.accented" unicode="&#x4e2;`" horiz-adv-x="666" 
d="M468 0v388l8 91h-5l-47 -94l-261 -385h-103v700h137v-381l-10 -94h6l49 97l261 378h102v-700h-137zM166 748v89h343v-89h-343zM257 838l104 118h159v-30l-160 -88h-103z" />
    <glyph glyph-name="uni04E3.var.accented" unicode="&#x4e3;`" horiz-adv-x="545" 
d="M358 0v228l5 71h-3l-43 -73l-178 -226h-82v500h130v-238l-6 -68h4l41 71l180 235h82v-500h-130zM113 555v92h323v-92h-323zM212 676l53 154h132v-30l-111 -124h-74z" />
    <glyph glyph-name="uni04E4.var.accented" unicode="&#x4e4;`" horiz-adv-x="666" 
d="M468 0v388l8 91h-5l-47 -94l-261 -385h-103v700h137v-381l-10 -94h6l49 97l261 378h102v-700h-137zM418 807q0 27 16.5 42.5t46.5 15.5q77 0 77 -58q0 -57 -77 -57q-30 0 -46.5 15.5t-16.5 41.5zM106 807q0 58 76 58q30 0 47 -16t17 -42t-17 -41.5t-47 -15.5
q-76 0 -76 57zM244 757l55 135h127v-30l-103 -105h-79z" />
    <glyph glyph-name="uni04E5.var.accented" unicode="&#x4e5;`" horiz-adv-x="545" 
d="M358 0v228l5 71h-3l-43 -73l-178 -226h-82v500h130v-238l-6 -68h4l41 71l180 235h82v-500h-130zM81 624q0 30 18.5 48t48.5 18q26 0 42.5 -18.5t16.5 -47.5q0 -28 -16 -46t-43 -18q-30 0 -48.5 18t-18.5 46zM340 624q0 29 17 47.5t42 18.5q31 0 49 -18t18 -48
q0 -28 -18.5 -46t-48.5 -18q-26 0 -42.5 18t-16.5 46zM213 582l49 173h99v-28l-101 -145h-47z" />
    <glyph glyph-name="uni04E6.var.accented" unicode="&#x4e6;`" horiz-adv-x="670" 
d="M38 350q0 174 77.5 269t219.5 95q147 0 222 -97.5t75 -266.5q0 -174 -78 -269t-219 -95q-148 0 -222.5 97.5t-74.5 266.5zM182 350q0 -111 38 -176.5t115 -65.5q153 0 153 242q0 110 -37 176t-116 66q-153 0 -153 -242zM425 807q0 27 16.5 42.5t46.5 15.5q77 0 77 -58
q0 -57 -77 -57q-30 0 -46.5 15.5t-16.5 41.5zM113 807q0 58 76 58q30 0 47 -16t17 -42t-17 -41.5t-47 -15.5q-76 0 -76 57zM251 757l55 135h127v-30l-103 -105h-79z" />
    <glyph glyph-name="uni04E7.var.accented" unicode="&#x4e7;`" horiz-adv-x="537" 
d="M33 250q0 126 62 195t174 69q116 0 175.5 -71t59.5 -193q0 -126 -61.5 -195t-173.5 -69q-116 0 -176 71t-60 193zM167 250q0 -70 25 -112t77 -42q101 0 101 154t-101 154q-102 0 -102 -154zM79 624q0 30 18.5 48t48.5 18q26 0 42.5 -18.5t16.5 -47.5q0 -28 -16 -46
t-43 -18q-30 0 -48.5 18t-18.5 46zM338 624q0 29 17 47.5t42 18.5q31 0 49 -18t18 -48q0 -28 -18.5 -46t-48.5 -18q-26 0 -42.5 18t-16.5 46zM211 582l49 173h99v-28l-101 -145h-47z" />
    <glyph glyph-name="uni04E8.var.accented" unicode="&#x4e8;`" horiz-adv-x="670" 
d="M38 350q0 174 77.5 269t219.5 95q147 0 222 -97.5t75 -266.5q0 -174 -78 -269t-219 -95q-148 0 -222.5 97.5t-74.5 266.5zM182 407h306q-7 88 -47.5 136.5t-105.5 48.5q-63 0 -104 -45t-49 -140zM488 297h-306q7 -91 48 -140t105 -49q141 0 153 189zM275 752l104 118h159
v-30l-160 -88h-103z" />
    <glyph glyph-name="uni04E9.var.accented" unicode="&#x4e9;`" horiz-adv-x="537" 
d="M33 250q0 126 62 195t174 69q116 0 175.5 -71t59.5 -193q0 -126 -61.5 -195t-173.5 -69q-116 0 -176 71t-60 193zM167 289h203q-15 115 -101 115q-41 0 -68.5 -27.5t-33.5 -87.5zM370 207h-203q6 -53 33.5 -82t68.5 -29q90 0 101 111zM223 566l53 154h132v-30l-111 -124
h-74z" />
    <glyph glyph-name="uni04EA.var.accented" unicode="&#x4ea;`" horiz-adv-x="670" 
d="M38 350q0 174 77.5 269t219.5 95q147 0 222 -97.5t75 -266.5q0 -174 -78 -269t-219 -95q-148 0 -222.5 97.5t-74.5 266.5zM182 407h306q-7 88 -47.5 136.5t-105.5 48.5q-63 0 -104 -45t-49 -140zM488 297h-306q7 -91 48 -140t105 -49q141 0 153 189zM421 807
q0 27 16.5 42.5t46.5 15.5q77 0 77 -58q0 -57 -77 -57q-30 0 -46.5 15.5t-16.5 41.5zM109 807q0 58 76 58q30 0 47 -16t17 -42t-17 -41.5t-47 -15.5q-76 0 -76 57zM247 757l55 135h127v-30l-103 -105h-79z" />
    <glyph glyph-name="uni04EB.var.accented" unicode="&#x4eb;`" horiz-adv-x="537" 
d="M33 250q0 126 62 195t174 69q116 0 175.5 -71t59.5 -193q0 -126 -61.5 -195t-173.5 -69q-116 0 -176 71t-60 193zM167 289h203q-15 115 -101 115q-41 0 -68.5 -27.5t-33.5 -87.5zM370 207h-203q6 -53 33.5 -82t68.5 -29q90 0 101 111zM80 624q0 30 18 48t49 18
q26 0 42.5 -18.5t16.5 -47.5q0 -28 -16 -46t-43 -18q-30 0 -48.5 18t-18.5 46zM339 624q0 29 17 47.5t42 18.5q30 0 48.5 -18t18.5 -48q0 -28 -18.5 -46t-48.5 -18q-26 0 -42.5 18t-16.5 46zM212 582l49 173h99v-28l-101 -145h-47z" />
    <glyph glyph-name="uni04EC.var.accented" unicode="&#x4ec;`" horiz-adv-x="574" 
d="M130 300v110h269q-6 83 -54 132.5t-133 49.5q-91 0 -159 -37l-29 116q82 43 193 43q149 0 234 -86.5t85 -277.5q0 -100 -27.5 -173.5t-76.5 -113.5t-107 -58.5t-127 -18.5q-106 0 -178 33l36 119q62 -30 152 -30q81 0 133 47.5t59 144.5h-270zM340 807q0 27 16.5 42.5
t46.5 15.5q77 0 77 -58q0 -57 -77 -57q-30 0 -46.5 15.5t-16.5 41.5zM28 807q0 58 76 58q30 0 47 -16t17 -42t-17 -41.5t-47 -15.5q-76 0 -76 57zM166 757l55 135h127v-30l-103 -105h-79z" />
    <glyph glyph-name="uni04ED.var.accented" unicode="&#x4ed;`" horiz-adv-x="459" 
d="M109 207v93h186q-11 104 -116 104q-64 0 -118 -30l-35 94q66 46 178 46q222 0 222 -264q0 -130 -61 -197t-171 -67q-113 0 -171 36l32 102q51 -28 118 -28q62 0 90 26.5t33 84.5h-187zM20 624q0 30 18 48t49 18q26 0 42.5 -18.5t16.5 -47.5q0 -28 -16 -46t-43 -18
q-30 0 -48.5 18t-18.5 46zM279 624q0 29 17 47.5t42 18.5q30 0 48.5 -18t18.5 -48q0 -28 -18.5 -46t-48.5 -18q-26 0 -42.5 18t-16.5 46zM152 582l49 173h99v-28l-101 -145h-47z" />
    <glyph glyph-name="uni04EE.var.accented" unicode="&#x4ee;`" horiz-adv-x="568" 
d="M152 700l142 -309l20 -91h6l16 94l105 306h141l-186 -484q-48 -123 -90.5 -173t-116.5 -50q-60 0 -98 24l35 111q25 -13 61 -13q47 0 66 74l-262 511h161zM127 748v89h343v-89h-343zM218 838l104 118h159v-30l-160 -88h-103z" />
    <glyph glyph-name="uni04EF.var.accented" unicode="&#x4ef;`" horiz-adv-x="478" 
d="M147 500l92 -281l18 -78h6l13 79l76 280h134l-152 -451q-18 -54 -29.5 -85t-29 -68t-34 -56t-39.5 -32t-50 -13q-52 0 -83 17l24 104q15 -6 30 -6q57 0 77 90l-209 500h156zM85 555v92h323v-92h-323zM184 676l53 154h132v-30l-111 -124h-74z" />
    <glyph glyph-name="uni04F0.var.accented" unicode="&#x4f0;`" horiz-adv-x="568" 
d="M152 700l142 -309l20 -91h6l16 94l105 306h141l-186 -484q-48 -123 -90.5 -173t-116.5 -50q-60 0 -98 24l35 111q25 -13 61 -13q47 0 66 74l-262 511h161zM389 807q0 27 16.5 42.5t46.5 15.5q77 0 77 -58q0 -57 -77 -57q-30 0 -46.5 15.5t-16.5 41.5zM77 807q0 58 76 58
q30 0 47 -16t17 -42t-17 -41.5t-47 -15.5q-76 0 -76 57zM215 757l55 135h127v-30l-103 -105h-79z" />
    <glyph glyph-name="uni04F1.var.accented" unicode="&#x4f1;`" horiz-adv-x="478" 
d="M147 500l92 -281l18 -78h6l13 79l76 280h134l-152 -451q-18 -54 -29.5 -85t-29 -68t-34 -56t-39.5 -32t-50 -13q-52 0 -83 17l24 104q15 -6 30 -6q57 0 77 90l-209 500h156zM52 624q0 30 18 48t49 18q26 0 42.5 -18.5t16.5 -47.5q0 -28 -16 -46t-43 -18q-30 0 -48.5 18
t-18.5 46zM311 624q0 29 17 47.5t42 18.5q30 0 48.5 -18t18.5 -48q0 -28 -18.5 -46t-48.5 -18q-26 0 -42.5 18t-16.5 46zM184 582l49 173h99v-28l-101 -145h-47z" />
    <glyph glyph-name="uni04F2.var.accented" unicode="&#x4f2;`" horiz-adv-x="568" 
d="M152 700l142 -309l20 -91h6l16 94l105 306h141l-186 -484q-48 -123 -90.5 -173t-116.5 -50q-60 0 -98 24l35 111q25 -13 61 -13q47 0 66 74l-262 511h161zM97 731l25 89h118v-16l-60 -73h-83zM334 731l133 89h136v-16l-173 -73h-96zM226 752l101 118h131v-19l-138 -99
h-94z" />
    <glyph glyph-name="uni04F3.var.accented" unicode="&#x4f3;`" horiz-adv-x="478" 
d="M147 500l92 -281l18 -78h6l13 79l76 280h134l-152 -451q-18 -54 -29.5 -85t-29 -68t-34 -56t-39.5 -32t-50 -13q-52 0 -83 17l24 104q15 -6 30 -6q57 0 77 90l-209 500h156zM87 571l15 129h113v-16l-56 -113h-72zM284 571l103 129h121v-16l-149 -113h-75zM221 622l55 148
h112v-19l-103 -129h-64z" />
    <glyph glyph-name="uni04F8.var.accented" unicode="&#x4f8;`" horiz-adv-x="798" 
d="M600 0v700h137v-700h-137zM60 7v693h137v-251q37 8 82 8q249 0 249 -224q0 -243 -282 -243q-116 0 -186 17zM256 112q128 0 128 115q0 61 -33.5 84.5t-93.5 23.5q-40 0 -60 -8v-209q21 -6 59 -6zM473 807q0 27 16.5 42.5t46.5 15.5q77 0 77 -58q0 -57 -77 -57
q-30 0 -46.5 15.5t-16.5 41.5zM161 807q0 58 76 58q30 0 47 -16t17 -42t-17 -41.5t-47 -15.5q-76 0 -76 57zM299 757l55 135h127v-30l-103 -105h-79z" />
    <glyph glyph-name="uni04F9.var.accented" unicode="&#x4f9;`" horiz-adv-x="703" 
d="M187 229v-120q30 -6 57 -6q44 0 62.5 16t18.5 52q0 65 -78 65q-33 0 -60 -7zM187 500v-178q45 7 93 7q179 0 179 -155q0 -93 -52.5 -137t-174.5 -44q-94 0 -175 7v500h130zM516 0v500h130v-500h-130zM162 624q0 30 18 48t49 18q26 0 42.5 -18.5t16.5 -47.5q0 -28 -16 -46
t-43 -18q-30 0 -48.5 18t-18.5 46zM421 624q0 29 17 47.5t42 18.5q30 0 48.5 -18t18.5 -48q0 -28 -18.5 -46t-48.5 -18q-26 0 -42.5 18t-16.5 46zM294 582l49 173h99v-28l-101 -145h-47z" />
    <glyph glyph-name="uniF37E.var.accented" unicode="&#xf37e;`" horiz-adv-x="467" 
d="M144 525l95 -202l18 -78h6l13 80l71 200h134l-153 -381q-31 -76 -67.5 -113t-99.5 -37q-57 0 -88 21l33 100q20 -11 41 -11q39 0 52 47l-208 374h153zM62 703l110 26q12 -71 77 -71q69 0 89 70l88 -25q-13 -63 -60.5 -95.5t-119.5 -32.5q-74 0 -123.5 31t-60.5 97z
M217 702l42 154h127v-30l-117 -124h-52z" />
    <glyph glyph-name="uniF3A2.var.accented" unicode="&#xf3a2;`" horiz-adv-x="494" 
d="M181 0v183l-183 342h153l87 -178l15 -65h4l16 66l85 177h138l-185 -341v-184h-130zM199 591l53 154h132v-30l-111 -124h-74z" />
    <glyph glyph-name="uniF3A3.var.accented" unicode="&#xf3a3;`" horiz-adv-x="494" 
d="M73 101v83h107l-182 341h153l87 -178l15 -65h4l16 66l85 177h138l-185 -341h108v-83h-108v-101h-130v101h-108zM203 591l53 154h132v-30l-111 -124h-74z" />
    <glyph glyph-name="uniF3B2.var.accented" unicode="&#xf3b2;`" horiz-adv-x="500" 
d="M363 0l-36 96h-163l-34 -96h-130l197 528h107l196 -528h-137zM229 287l-34 -92h107l-34 92l-19 86h-4zM70 703l110 26q12 -71 77 -71q69 0 89 70l88 -25q-13 -63 -60.5 -95.5t-119.5 -32.5q-74 0 -123.5 31t-60.5 97zM225 702l42 154h127v-30l-117 -124h-52z" />
    <glyph glyph-name="uniF3B3.var.accented" unicode="&#xf3b3;`" horiz-adv-x="500" 
d="M363 0l-36 96h-163l-34 -96h-130l197 528h107l196 -528h-137zM229 287l-34 -92h107l-34 92l-19 86h-4zM56 680q0 30 18 48t49 18q26 0 42.5 -18.5t16.5 -47.5q0 -28 -16 -46t-43 -18q-30 0 -48.5 18t-18.5 46zM315 680q0 29 17 47.5t42 18.5q30 0 48.5 -18t18.5 -48
q0 -28 -18.5 -46t-48.5 -18q-26 0 -42.5 18t-16.5 46zM188 638l49 173h99v-28l-101 -145h-47z" />
    <glyph glyph-name="uniF3B4.var.accented" unicode="&#xf3b4;`" horiz-adv-x="706" 
d="M317 371h-5l-23 -62l-62 -96h90v158zM317 0v114h-142l-70 -114h-134l334 525h354v-110h-215v-97h195v-108h-195v-100h219v-110h-346zM317 591l53 154h132v-30l-111 -124h-74z" />
    <glyph glyph-name="uniF3B5.var.accented" unicode="&#xf3b5;`" horiz-adv-x="456" 
d="M60 0v525h350v-110h-220v-97h200v-108h-200v-100h224v-110h-354zM56 703l110 26q12 -71 77 -71q69 0 89 70l88 -25q-13 -63 -60.5 -95.5t-119.5 -32.5q-74 0 -123.5 31t-60.5 97zM211 702l42 154h127v-30l-117 -124h-52z" />
    <glyph glyph-name="uniF3B6.var.accented" unicode="&#xf3b6;`" horiz-adv-x="527" 
d="M359 221h-189q-2 -16 -2 -24q0 -43 22.5 -70.5t67.5 -27.5q99 0 101 122zM45 312h316q-5 57 -35 85.5t-100 28.5q-69 0 -126 -33l-27 105q26 15 76 26.5t96 11.5q244 0 244 -273q0 -274 -237 -274q-109 0 -162.5 62.5t-53.5 169.5q0 43 9 91zM211 591l53 154h132v-30
l-111 -124h-74z" />
    <glyph glyph-name="uniF3B7.var.accented" unicode="&#xf3b7;`" horiz-adv-x="527" 
d="M359 221h-189q-2 -16 -2 -24q0 -43 22.5 -70.5t67.5 -27.5q99 0 101 122zM45 312h316q-5 57 -35 85.5t-100 28.5q-69 0 -126 -33l-27 105q26 15 76 26.5t96 11.5q244 0 244 -273q0 -274 -237 -274q-109 0 -162.5 62.5t-53.5 169.5q0 43 9 91zM70 680q0 30 18 48t49 18
q26 0 42.5 -18.5t16.5 -47.5q0 -28 -16 -46t-43 -18q-30 0 -48.5 18t-18.5 46zM329 680q0 29 17 47.5t42 18.5q30 0 48.5 -18t18.5 -48q0 -28 -18.5 -46t-48.5 -18q-26 0 -42.5 18t-16.5 46zM202 638l49 173h99v-28l-101 -145h-47z" />
    <glyph glyph-name="uniF3BB.var.accented" unicode="&#xf3bb;`" horiz-adv-x="569" 
d="M379 0v247l9 83h-5l-42 -83l-186 -247h-95v525h130v-232l-11 -89h6l45 88l184 233h95v-525h-130zM131 580v92h323v-92h-323zM230 701l53 154h132v-30l-111 -124h-74z" />
    <glyph glyph-name="uniF3BC.var.accented" unicode="&#xf3bc;`" horiz-adv-x="569" 
d="M379 0v247l9 83h-5l-42 -83l-186 -247h-95v525h130v-232l-11 -89h6l45 88l184 233h95v-525h-130zM98 680q0 30 18 48t49 18q26 0 42.5 -18.5t16.5 -47.5q0 -28 -16 -46t-43 -18q-30 0 -48.5 18t-18.5 46zM357 680q0 29 17 47.5t42 18.5q30 0 48.5 -18t18.5 -48
q0 -28 -18.5 -46t-48.5 -18q-26 0 -42.5 18t-16.5 46zM230 638l49 173h99v-28l-101 -145h-47z" />
    <glyph glyph-name="uniF3BD.var.accented" unicode="&#xf3bd;`" horiz-adv-x="563" 
d="M38 263q0 131 63.5 202t180.5 71q120 0 181.5 -73.5t61.5 -199.5q0 -130 -63.5 -202t-179.5 -72q-122 0 -183 73.5t-61 200.5zM172 263q0 -159 109 -159q110 0 110 159q0 158 -110 158q-109 0 -109 -158zM92 680q0 30 18 48t49 18q26 0 42.5 -18.5t16.5 -47.5
q0 -28 -16 -46t-43 -18q-30 0 -48.5 18t-18.5 46zM351 680q0 29 17 47.5t42 18.5q30 0 48.5 -18t18.5 -48q0 -28 -18.5 -46t-48.5 -18q-26 0 -42.5 18t-16.5 46zM224 638l49 173h99v-28l-101 -145h-47z" />
    <glyph glyph-name="uniF3BE.var.accented" unicode="&#xf3be;`" horiz-adv-x="563" 
d="M38 263q0 131 63.5 202t180.5 71q120 0 181.5 -73.5t61.5 -199.5q0 -130 -63.5 -202t-179.5 -72q-122 0 -183 73.5t-61 200.5zM281 426q-93 0 -109 -116h219q-17 116 -110 116zM281 99q95 0 110 115h-219q17 -115 109 -115zM232 591l53 154h132v-30l-111 -124h-74z" />
    <glyph glyph-name="uniF3BF.var.accented" unicode="&#xf3bf;`" horiz-adv-x="563" 
d="M38 263q0 131 63.5 202t180.5 71q120 0 181.5 -73.5t61.5 -199.5q0 -130 -63.5 -202t-179.5 -72q-122 0 -183 73.5t-61 200.5zM281 426q-93 0 -109 -116h219q-17 116 -110 116zM281 99q95 0 110 115h-219q17 -115 109 -115zM89 680q0 30 18.5 48t48.5 18q26 0 42.5 -18.5
t16.5 -47.5q0 -28 -16 -46t-43 -18q-30 0 -48.5 18t-18.5 46zM348 680q0 29 17 47.5t42 18.5q31 0 49 -18t18 -48q0 -28 -18.5 -46t-48.5 -18q-26 0 -42.5 18t-16.5 46zM221 638l49 173h99v-28l-101 -145h-47z" />
    <glyph glyph-name="uniF3C0.var.accented" unicode="&#xf3c0;`" horiz-adv-x="488" 
d="M108 216v97h211q-13 108 -138 108q-75 0 -129 -29l-30 108q78 36 167 36q261 0 261 -273q0 -139 -77.5 -206.5t-198.5 -67.5q-93 0 -155 34l33 107q64 -26 131 -26q127 0 137 112h-212zM21 680q0 30 18.5 48t48.5 18q26 0 42.5 -18.5t16.5 -47.5q0 -28 -16 -46t-43 -18
q-30 0 -48.5 18t-18.5 46zM280 680q0 29 17 47.5t42 18.5q31 0 49 -18t18 -48q0 -28 -18.5 -46t-48.5 -18q-26 0 -42.5 18t-16.5 46zM153 638l49 173h99v-28l-101 -145h-47z" />
    <glyph glyph-name="uniF3C1.var.accented" unicode="&#xf3c1;`" horiz-adv-x="467" 
d="M144 525l95 -202l18 -78h6l13 80l71 200h134l-153 -381q-31 -76 -67.5 -113t-99.5 -37q-57 0 -88 21l33 100q20 -11 41 -11q39 0 52 47l-208 374h153zM84 580v92h323v-92h-323zM183 701l53 154h132v-30l-111 -124h-74z" />
    <glyph glyph-name="uniF3C2.var.accented" unicode="&#xf3c2;`" horiz-adv-x="467" 
d="M144 525l95 -202l18 -78h6l13 80l71 200h134l-153 -381q-31 -76 -67.5 -113t-99.5 -37q-57 0 -88 21l33 100q20 -11 41 -11q39 0 52 47l-208 374h153zM53 680q0 30 18.5 48t48.5 18q26 0 42.5 -18.5t16.5 -47.5q0 -28 -16 -46t-43 -18q-30 0 -48.5 18t-18.5 46zM312 680
q0 29 17 47.5t42 18.5q31 0 49 -18t18 -48q0 -28 -18.5 -46t-48.5 -18q-26 0 -42.5 18t-16.5 46zM185 638l49 173h99v-28l-101 -145h-47z" />
    <glyph glyph-name="uniF3C3.var.accented" unicode="&#xf3c3;`" horiz-adv-x="467" 
d="M144 525l95 -202l18 -78h6l13 80l71 200h134l-153 -381q-31 -76 -67.5 -113t-99.5 -37q-57 0 -88 21l33 100q20 -11 41 -11q39 0 52 47l-208 374h153zM90 596l15 129h113v-16l-56 -113h-72zM287 596l103 129h121v-16l-149 -113h-75zM224 647l55 148h112v-19l-103 -129
h-64z" />
    <glyph glyph-name="uniF3C6.var.accented" unicode="&#xf3c6;`" horiz-adv-x="701" 
d="M510 0v525h130v-525h-130zM60 5v520h130v-178q36 6 66 6q202 0 202 -174q0 -188 -238 -188q-101 0 -160 14zM238 101q86 0 86 76q0 71 -86 71q-32 0 -48 -7v-134q14 -6 48 -6zM153 680q0 30 18.5 48t48.5 18q26 0 42.5 -18.5t16.5 -47.5q0 -28 -16 -46t-43 -18
q-30 0 -48.5 18t-18.5 46zM412 680q0 29 17 47.5t42 18.5q31 0 49 -18t18 -48q0 -28 -18.5 -46t-48.5 -18q-26 0 -42.5 18t-16.5 46zM285 638l49 173h99v-28l-101 -145h-47z" />
    <glyph glyph-name="uniF684" unicode="&#xf769;&#xf76a;" horiz-adv-x="563" 
d="M75 0v525h130v-525h-130zM368 194v331h130v-363q0 -71 -34 -122t-113 -51q-65 0 -111 20l27 106q24 -11 48 -11q31 0 42 23t11 67z" />
    <glyph glyph-name="f_f" unicode="ff" horiz-adv-x="608" 
d="M367 390h-156v-390h-130v390h-69v110h69v28q0 180 156 180q61 0 111 -18l-25 -102q-24 10 -53 10q-38 0 -48.5 -22t-10.5 -76h156v28q0 180 156 180q80 0 133 -19l-25 -103q-37 12 -77 12q-37 0 -47 -21.5t-10 -76.5h110v-110h-110v-390h-130v390z" />
    <glyph glyph-name="fi" unicode="fi" horiz-adv-x="553" 
d="M211 500h281v-500h-130v390h-151v-390h-130v390h-69v110h69v28q0 182 191 182q139 0 209 -40l-34 -101q-59 31 -145 31q-55 0 -73 -23.5t-18 -76.5z" />
    <glyph glyph-name="fl" unicode="fl" horiz-adv-x="593" 
d="M360 100v496q-30 7 -79 7q-43 0 -56.5 -24t-13.5 -79h75v-110h-75v-390h-130v390h-69v110h69v28q0 96 46.5 140.5t155.5 44.5t207 -18v-527q0 -67 37 -67q25 0 52 11l15 -102q-50 -24 -118 -24q-116 0 -116 114z" />
    <glyph glyph-name="f_f_i" unicode="ffi" horiz-adv-x="839" 
d="M367 390h-156v-390h-130v390h-69v110h69v28q0 180 156 180q61 0 111 -18l-25 -102q-24 10 -53 10q-38 0 -48.5 -22t-10.5 -76h156v28q0 182 190 182q140 0 210 -40l-34 -101q-59 31 -145 31q-55 0 -73 -23.5t-18 -76.5h281v-500h-130v390h-151v-390h-130v390z" />
    <glyph glyph-name="f_f_l" unicode="ffl" horiz-adv-x="879" 
d="M367 390h-156v-390h-130v390h-69v110h69v28q0 180 156 180q61 0 111 -18l-25 -102q-24 10 -53 10q-38 0 -48.5 -22t-10.5 -76h156v28q0 96 46.5 140.5t155.5 44.5t207 -18v-527q0 -67 37 -67q25 0 52 11l15 -102q-50 -24 -118 -24q-116 0 -116 114v496q-28 7 -79 7
q-43 0 -56.5 -24t-13.5 -79h75v-110h-75v-390h-130v390z" />
    <glyph glyph-name=".notdef" horiz-adv-x="750" 
d="M50 0v700h650v-700h-650zM620 570l-50 50l-195 -217l-195 217l-50 -50l197 -220l-197 -220l50 -50l195 217l195 -217l50 50l-198 220zM129 63v-36h8v12h4q16 0 16 12t-17 12h-11zM137 57h4q8 0 8 -5q0 -6 -9 -6h-3v11zM189 57v6h-31v-6h12v-30h7v30h12zM222 37
q0 -4 -7 -4q-5 0 -9 2l-3 -7q8 -2 13 -2q14 0 14 12q0 7 -9 10t-9 6t6 3q3 0 9 -2l2 7q-8 2 -11 2q-14 0 -14 -11q0 -7 9 -10.5t9 -5.5zM235 52l2 -5q6 2 9 2q5 0 5 -4v-2l-1 1h-4q-12 0 -12 -10q0 -8 8 -8q6 0 9 5l2 -4h6q-1 1 -1 7v11q0 10 -10 10q-4 0 -13 -3zM245 32
q-4 0 -4 4t5 4h4l1 -1v-3q-1 -4 -6 -4zM284 27h8v16q0 12 -9 12q-7 0 -10 -5l-2 4h-5v-27h7v17q1 4 6 4t5 -6v-15zM299 34l-2 -6q6 -2 10 -2q11 0 11 9q0 5 -8 9q-5 2 -5 3q0 2 3 2q2 0 8 -2l2 6q-6 2 -10 2q-10 0 -10 -9q0 -5 8 -9q5 -2 5 -3q0 -2 -3 -2t-9 2zM338 42
q0 -21 20 -21t20 21q0 20 -20 20q-8 0 -14 -5.5t-6 -14.5zM344 42q0 15 14 15t14 -15t-14 -15t-14 15zM365 33l-1 5q-2 -1 -4 -1q-4 0 -4 5q0 4 4 4h3l2 4q-3 2 -7 2q-9 0 -9 -10q0 -11 9 -11q5 0 7 2zM399 63v-36h8v12h4q16 0 16 12t-17 12h-11zM407 57h4q8 0 8 -5
q0 -6 -9 -6h-3v11zM430 52l2 -5q6 2 9 2q5 0 5 -4v-2l-2 1h-3q-13 0 -13 -10q0 -8 9 -8q6 0 9 5l2 -4h6q-1 1 -1 7v11q0 10 -10 10q-4 0 -13 -3zM440 32q-4 0 -4 4t5 4h3l2 -1v-3q-1 -4 -6 -4zM477 47l1 7q-1 1 -4 1q-4 0 -6 -5h-1l-1 4h-6v-27h8v17q0 4 6 4zM482 52l1 -5
q8 2 9 2q5 0 5 -4v-2l-1 1h-4q-13 0 -13 -10q0 -8 9 -8q7 0 9 5h1l1 -4h6q-1 1 -1 7v11q0 10 -10 10q-3 0 -12 -3zM491 32q-4 0 -4 4t5 4h4l1 -1v-3q-1 -4 -6 -4zM533 57v6h-31v-6h12v-30h7v30h12zM547 39l-6 15h-8l12 -27q-2 -5 -5 -5l-1 1l-2 -6q1 -1 5 -1q6 0 10 13
l10 25h-8l-5 -15v-5h-1zM565 54v-38h8v12q2 -2 5 -2q14 0 14 15q0 14 -11 14q-5 0 -9 -4h-1l-1 3h-5zM579 49q5 0 5 -8q0 -9 -7 -9q-2 0 -4 2v10q0 5 6 5zM621 29l-3 5q-2 -2 -7 -2q-7 0 -7 6h18v6q0 11 -12 11q-14 0 -14 -15q0 -14 14 -14q5 0 11 3zM610 49q6 0 5 -6h-11
q0 6 6 6z" />
    <glyph glyph-name=".null" horiz-adv-x="0" 
 />
    <glyph glyph-name="nonmarkingreturn" horiz-adv-x="333" 
 />
    <glyph glyph-name="space" unicode=" " horiz-adv-x="253" 
 />
    <glyph glyph-name="exclam" unicode="!" horiz-adv-x="294" 
d="M100 371v329h134v-329l-26 -163h-82zM86 66q0 35 22 55.5t58 20.5q38 0 60 -20.5t22 -55.5t-22 -56t-60 -21q-36 0 -58 21t-22 56z" />
    <glyph glyph-name="quotedbl" unicode="&#x22;" horiz-adv-x="402" 
d="M90 484v216h114l-36 -216h-78zM238 484v216h114l-36 -216h-78z" />
    <glyph glyph-name="numbersign" unicode="#" 
d="M253 51l36 154h-89l-36 -154h-107l36 154h-74l22 97h75l25 106h-72l22 97h73l35 144h106l-34 -144h89l35 144h106l-34 -144h72l-25 -97h-70l-25 -106h69l-24 -97h-68l-36 -154h-107zM248 408l-25 -106h89l25 106h-89z" />
    <glyph glyph-name="dollar" unicode="$" 
d="M238 -100v87q-109 4 -167 35l39 113q48 -28 128 -35v205q-37 17 -62.5 32t-52.5 39.5t-40.5 59t-13.5 78.5q0 83 44.5 132t124.5 63v91h104v-87q73 -5 138 -33l-36 -111q-42 21 -102 28v-187q30 -14 51 -25t46 -29.5t40.5 -38.5t26 -49.5t10.5 -64.5q0 -89 -45.5 -142
t-128.5 -68v-93h-104zM384 188q0 30 -22 50.5t-63 39.5v-178q85 10 85 88zM201 525q0 -28 20.5 -47.5t59.5 -39.5v162q-80 -4 -80 -75z" />
    <glyph glyph-name="percent" unicode="%" horiz-adv-x="840" 
d="M51 542q0 86 47.5 128t128.5 42q175 0 175 -170t-175 -170q-176 0 -176 170zM168 542q0 -86 59 -86q31 0 44.5 19t13.5 67q0 47 -13.5 66.5t-44.5 19.5t-45 -19.5t-14 -66.5zM457 170q0 86 47.5 128t128.5 42q175 0 175 -170t-175 -170q-176 0 -176 170zM574 170
q0 -86 59 -86q31 0 44.5 19t13.5 67q0 47 -13.5 66.5t-44.5 19.5t-45 -19.5t-14 -66.5zM101 55l576 659l73 -66l-576 -662z" />
    <glyph glyph-name="ampersand" unicode="&#x26;" horiz-adv-x="814" 
d="M92 194q0 73 45.5 134.5t122.5 104.5q-57 76 -57 139q0 58 43 100t130 42t128 -37t41 -91q0 -97 -128 -171q71 -110 148 -188q42 46 74 139l94 -50q-13 -35 -39.5 -82.5t-49.5 -75.5q49 -45 105 -76l-69 -96q-56 26 -116 84q-92 -84 -223 -84q-107 0 -178 56t-71 152z
M486 149q-98 103 -166 205q-50 -39 -74 -73.5t-24 -75.5q0 -50 37.5 -79.5t98.5 -29.5q38 0 73.5 15.5t54.5 37.5zM333 566q0 -42 36 -90q74 47 74 89q0 52 -57 52q-53 0 -53 -51z" />
    <glyph glyph-name="quotesingle" unicode="'" horiz-adv-x="254" 
d="M90 484v216h114l-36 -216h-78z" />
    <glyph glyph-name="parenleft" unicode="(" horiz-adv-x="327" 
d="M316 -164l-89 -56q-86 90 -126.5 214.5t-40.5 248.5q0 123 41 248t129 221l84 -54q-124 -167 -124 -415q0 -106 31.5 -216.5t94.5 -190.5z" />
    <glyph glyph-name="parenright" unicode=")" horiz-adv-x="327" 
d="M100 -220l-89 56q63 80 94.5 190.5t31.5 216.5q0 248 -124 415l84 54q88 -96 129 -221t41 -248q0 -124 -40.5 -248.5t-126.5 -214.5z" />
    <glyph glyph-name="asterisk" unicode="*" horiz-adv-x="378" 
d="M80 694l64 37l28 -46l15 -59l15 55l28 49l64 -35l-30 -52l-48 -43l65 16h57v-73h-55l-61 16l50 -47l25 -42l-64 -37l-27 46l-20 64l-13 -58l-29 -49l-64 37l29 49l45 37l-55 -16h-59v74h60l59 -17l-51 44z" />
    <glyph glyph-name="plus" unicode="+" horiz-adv-x="527" 
d="M43 282v112h162v169h117v-169h163v-112h-163v-171h-117v171h-162z" />
    <glyph glyph-name="comma" unicode="," horiz-adv-x="252" 
d="M42 64q0 33 22 53.5t56 20.5q42 0 66 -28t24 -74q0 -80 -41.5 -123.5t-93.5 -60.5l-38 54q27 11 47 36t22 53q-25 -3 -44.5 15.5t-19.5 53.5z" />
    <glyph glyph-name="hyphen" unicode="-" horiz-adv-x="360" 
d="M54 230v115h251v-115h-251z" />
    <glyph glyph-name="period" unicode="." horiz-adv-x="246" 
d="M42 66q0 35 22 55.5t58 20.5q38 0 60 -20.5t22 -55.5t-22 -56t-60 -21q-36 0 -58 21t-22 56z" />
    <glyph glyph-name="slash" unicode="/" horiz-adv-x="408" 
d="M-24 -94l357 806l98 -44l-357 -808z" />
    <glyph glyph-name="zero" unicode="0" 
d="M40 351q0 181 62.5 272t181.5 91q125 0 184.5 -88.5t59.5 -274.5q0 -182 -63 -273.5t-182 -91.5q-243 0 -243 365zM172 351q0 -255 112 -255q59 0 85.5 61t26.5 194q0 126 -26 189.5t-87 63.5q-58 0 -84.5 -61.5t-26.5 -191.5z" />
    <glyph glyph-name="one" unicode="1" 
d="M101 0v110h139v395l15 68l-48 -59l-89 -61l-55 75l228 184h73v-602h136v-110h-399z" />
    <glyph glyph-name="two" unicode="2" 
d="M475 529q0 -155 -196 -387l-53 -41v-5l72 14h192v-110h-421v67q276 290 276 438q0 43 -24.5 68.5t-73.5 25.5q-69 0 -122 -48l-52 92q88 71 205 71q88 0 142.5 -48t54.5 -137z" />
    <glyph glyph-name="three" unicode="3" 
d="M241 96q59 0 93 32t34 81q0 57 -34.5 84t-106.5 27h-72v69l121 165l57 45l-79 -9h-168v110h382v-71l-141 -189l-44 -27v-5l42 6q75 -6 124 -56.5t49 -140.5q0 -112 -71 -171.5t-182 -59.5q-107 0 -167 31l35 108q58 -29 128 -29z" />
    <glyph glyph-name="four" unicode="4" 
d="M553 299v-104h-110v-195h-121v195h-303v74l317 436h107v-406h110zM322 299v153l9 84h-4l-34 -72l-104 -135l-50 -38l64 8h119z" />
    <glyph glyph-name="five" unicode="5" 
d="M220 101q65 0 100.5 32t35.5 88q0 116 -158 116l-79 -3v366h344v-122h-232v-135l41 4q98 -3 156 -62.5t58 -159.5q0 -115 -73 -177t-191 -62q-93 0 -154 28l35 108q48 -21 117 -21z" />
    <glyph glyph-name="six" unicode="6" 
d="M520 217q0 -99 -64 -165t-165 -66q-108 0 -173.5 68t-65.5 197q0 190 102 314.5t253 148.5l29 -103q-96 -16 -165 -84t-88 -155q47 60 132 60q93 0 149 -56.5t56 -158.5zM394 210q0 112 -110 112q-38 0 -66 -17t-40 -43q-2 -14 -2 -35q0 -53 29 -92t83 -39q46 0 76 32
t30 82z" />
    <glyph glyph-name="seven" unicode="7" 
d="M231 0h-127l229 539l44 49l-60 -10h-257v122h451v-38z" />
    <glyph glyph-name="eight" unicode="8" 
d="M61 171q0 65 31.5 108.5t90.5 77.5q-105 66 -105 172q0 81 57.5 133t153.5 52q90 0 145.5 -46.5t55.5 -122.5q0 -106 -104 -175q62 -37 91.5 -79.5t29.5 -105.5q0 -89 -63 -144t-164 -55q-99 0 -159 51t-60 134zM383 184q0 22 -10 41.5t-30 36t-37.5 27t-44.5 25.5
q-82 -48 -82 -121q0 -41 28.5 -69t75.5 -28q46 0 73 22.5t27 65.5zM202 527q0 -23 8 -41t26.5 -33t33 -24t41.5 -22q60 51 60 112q0 40 -24 62.5t-60 22.5q-41 0 -63 -22t-22 -55z" />
    <glyph glyph-name="nine" unicode="9" 
d="M45 481q0 104 61.5 168.5t168.5 64.5q114 0 178 -68.5t64 -195.5q0 -112 -29 -200t-80 -142.5t-114 -85t-137 -36.5l-28 102q106 15 170 75t80 149q-24 -26 -51.5 -36t-73.5 -10h-2q-83 0 -145 56.5t-62 158.5zM171 488q0 -55 31 -85t81 -30q73 0 107 45q3 21 3 40
q0 62 -30 105.5t-89 43.5q-49 0 -76 -31.5t-27 -87.5z" />
    <glyph glyph-name="colon" unicode=":" horiz-adv-x="269" 
d="M93 428q0 35 22 55.5t58 20.5q38 0 60 -20.5t22 -55.5t-22 -56t-60 -21q-36 0 -58 21t-22 56zM93 66q0 35 22 55.5t58 20.5q38 0 60 -20.5t22 -55.5t-22 -56t-60 -21q-36 0 -58 21t-22 56z" />
    <glyph glyph-name="semicolon" unicode=";" horiz-adv-x="290" 
d="M82 64q0 33 22 53.5t56 20.5q42 0 66 -28t24 -74q0 -80 -41.5 -123.5t-93.5 -60.5l-38 54q27 11 47 36t22 53q-25 -3 -44.5 15.5t-19.5 53.5zM82 428q0 35 22 55.5t58 20.5q38 0 60 -20.5t22 -55.5t-22 -56t-60 -21q-36 0 -58 21t-22 56z" />
    <glyph glyph-name="less" unicode="&#x3c;" horiz-adv-x="527" 
d="M431 64l-391 221v70l386 231l57 -90l-224 -139l-91 -35l90 -31l230 -137z" />
    <glyph glyph-name="equal" unicode="=" horiz-adv-x="527" 
d="M43 378v112h442v-112h-442zM43 186v112h442v-112h-442z" />
    <glyph glyph-name="greater" unicode="&#x3e;" horiz-adv-x="527" 
d="M96 586l391 -221v-70l-386 -231l-57 91l224 138l91 36l-90 30l-230 138z" />
    <glyph glyph-name="question" unicode="?" horiz-adv-x="454" 
d="M247 208h-111q-2 22 -2 31q0 49 16.5 87.5t40.5 62t48 43.5t40.5 43.5t16.5 51.5q0 77 -89 77q-32 0 -70 -13.5t-64 -32.5l-50 96q88 60 207 60q93 0 146.5 -45.5t53.5 -122.5q0 -57 -19 -97t-45.5 -63.5t-53.5 -44.5t-46 -54t-19 -79zM116 66q0 35 22 55.5t58 20.5
q38 0 60 -20.5t22 -55.5t-22 -56t-60 -21q-36 0 -58 21t-22 56z" />
    <glyph glyph-name="at" unicode="@" horiz-adv-x="1059" 
d="M648 452l31 32h70l-48 -271q-16 -89 33 -89q57 0 99 52t42 150q0 142 -89 212t-234 70q-156 0 -261.5 -105t-105.5 -263q0 -157 93 -246.5t263 -89.5q71 0 133 28l31 -96q-75 -36 -181 -36q-201 0 -326 114t-125 322q0 141 66.5 251t175.5 167.5t239 57.5
q189 0 310.5 -104t121.5 -282q0 -128 -84.5 -217t-204.5 -89t-108 110h-4q-75 -110 -172 -110q-50 0 -84.5 40.5t-34.5 105.5q0 82 34 156.5t92.5 121t124.5 46.5q58 0 103 -38zM591 225l25 138q-26 23 -62 23q-58 0 -98 -59t-40 -128q0 -75 60 -75q27 0 59.5 30t55.5 71z
" />
    <glyph glyph-name="A" unicode="A" horiz-adv-x="605" 
d="M461 0l-56 155h-215l-53 -155h-137l252 705h101l252 -705h-144zM276 420l-51 -155h150l-52 156l-21 110h-5z" />
    <glyph glyph-name="B" unicode="B" horiz-adv-x="591" 
d="M531 537q0 -58 -30.5 -102.5t-94.5 -59.5v-6q66 -10 106.5 -52.5t40.5 -119.5q0 -102 -79.5 -154.5t-193.5 -52.5q-150 0 -220 15v690q85 15 212 15q259 0 259 -173zM281 103q55 0 92.5 25.5t37.5 75.5q0 41 -23.5 64t-52 28.5t-70.5 5.5h-73v-193q21 -6 89 -6zM192 406
h44q42 0 63 4q93 29 93 99q0 88 -118 88q-61 0 -82 -4v-187z" />
    <glyph glyph-name="C" unicode="C" horiz-adv-x="559" 
d="M506 140l28 -111q-60 -43 -183 -43q-65 0 -120 20.5t-99 62t-69 113.5t-25 168q0 98 28 171.5t75 114t100.5 59.5t112.5 19q101 0 170 -27l-27 -116q-43 21 -131 21q-86 0 -135 -60.5t-49 -181.5q0 -111 50 -176.5t144 -65.5q78 0 130 32z" />
    <glyph glyph-name="D" unicode="D" horiz-adv-x="647" 
d="M60 -1v701q69 10 204 10q179 0 262 -94.5t83 -259.5q0 -74 -18.5 -137t-58.5 -116t-112 -83.5t-169 -30.5q-119 0 -191 10zM275 588q-58 0 -78 -4v-469q22 -4 70 -4q198 0 198 245q0 45 -8.5 83t-28.5 73t-59 55.5t-94 20.5z" />
    <glyph glyph-name="E" unicode="E" horiz-adv-x="522" 
d="M60 0v700h415v-122h-278v-163h253v-122h-253v-171h283v-122h-420z" />
    <glyph glyph-name="F" unicode="F" horiz-adv-x="508" 
d="M60 0v700h415v-122h-278v-173h256v-122h-256v-283h-137z" />
    <glyph glyph-name="G" unicode="G" horiz-adv-x="609" 
d="M307 282v83h261v-312q-80 -67 -216 -67q-142 0 -228 91t-86 273q0 95 28 168t75.5 114t104 61.5t118.5 20.5q100 0 178 -28l-28 -115q-53 21 -135 21q-91 0 -144 -58.5t-53 -184.5q0 -120 51 -180.5t132 -60.5q58 0 93 26v132z" />
    <glyph glyph-name="H" unicode="H" horiz-adv-x="651" 
d="M453 0v293h-256v-293h-137v700h137v-285h256v285h137v-700h-137z" />
    <glyph glyph-name="I" unicode="I" horiz-adv-x="285" 
d="M74 0v700h137v-700h-137z" />
    <glyph glyph-name="J" unicode="J" horiz-adv-x="334" 
d="M131 223v477h137v-512q0 -87 -41 -143.5t-128 -56.5q-71 0 -122 23l30 112q26 -13 59 -13q39 0 52 28t13 85z" />
    <glyph glyph-name="K" unicode="K" horiz-adv-x="620" 
d="M440 0l-207 299h-36v-299h-137v700h137v-310l32 14l193 296h156l-204 -294l-54 -38l56 -39l233 -329h-169z" />
    <glyph glyph-name="L" unicode="L" horiz-adv-x="514" 
d="M503 122v-122h-443v700h137v-578h306z" />
    <glyph glyph-name="M" unicode="M" horiz-adv-x="800" 
d="M603 0v363l15 139h-6l-43 -112l-149 -261h-44l-157 262l-44 111h-5l20 -138v-364h-130v700h125l187 -320l33 -80h4l30 82l177 318h124v-700h-137z" />
    <glyph glyph-name="N" unicode="N" horiz-adv-x="657" 
d="M497 -5l-263 370l-55 110h-5l16 -110v-365h-130v705h100l265 -373l53 -107h5l-16 107v368h130v-705h-100z" />
    <glyph glyph-name="O" unicode="O" horiz-adv-x="670" 
d="M38 350q0 174 77.5 269t219.5 95q147 0 222 -97.5t75 -266.5q0 -174 -78 -269t-219 -95q-148 0 -222.5 97.5t-74.5 266.5zM182 350q0 -111 38 -176.5t115 -65.5q153 0 153 242q0 110 -37 176t-116 66q-153 0 -153 -242z" />
    <glyph glyph-name="P" unicode="P" horiz-adv-x="572" 
d="M60 0v693q87 17 193 17q294 0 294 -232q0 -122 -78 -181.5t-193 -59.5q-60 0 -79 4v-241h-137zM264 592q-42 0 -67 -5v-227q15 -4 59 -4q147 0 147 124q0 61 -39.5 86.5t-99.5 25.5z" />
    <glyph glyph-name="Q" unicode="Q" horiz-adv-x="670" 
d="M702 -83v-119q-48 -13 -97 -13q-72 0 -192 33t-166 33q-23 0 -46 -6v118q29 6 58 6q53 0 168 -31.5t183 -31.5q48 0 92 11zM38 350q0 174 77.5 269t219.5 95q147 0 222 -97.5t75 -266.5q0 -174 -78 -269t-219 -95q-148 0 -222.5 97.5t-74.5 266.5zM182 350
q0 -111 38 -176.5t115 -65.5q153 0 153 242q0 110 -37 176t-116 66q-153 0 -153 -242z" />
    <glyph glyph-name="R" unicode="R" horiz-adv-x="602" 
d="M60 0v693q86 17 200 17q53 0 97.5 -9t83.5 -30.5t61 -61.5t22 -96q0 -83 -39 -138t-108 -77l49 -31l160 -267h-158l-159 274l-72 13v-287h-137zM270 588q-54 0 -73 -5v-203h58q125 0 125 112q0 45 -28.5 70.5t-81.5 25.5z" />
    <glyph glyph-name="S" unicode="S" horiz-adv-x="530" 
d="M362 188q0 34 -33 59t-80 44t-93.5 42.5t-79.5 69.5t-33 111q0 99 63.5 149.5t172.5 50.5q131 0 204 -41l-43 -115q-60 37 -161 37q-47 0 -73 -18.5t-26 -51.5t33 -57.5t80 -44t93.5 -44t79.5 -69.5t33 -107q0 -108 -68.5 -162.5t-187.5 -54.5q-136 0 -216 42l44 117
q75 -40 165 -40q126 0 126 83z" />
    <glyph glyph-name="T" unicode="T" horiz-adv-x="568" 
d="M557 700v-122h-204v-578h-137v578h-205v122h546z" />
    <glyph glyph-name="U" unicode="U" horiz-adv-x="627" 
d="M440 258v442h130v-452q0 -131 -65.5 -195.5t-181.5 -64.5q-266 0 -266 243v469h137v-442q0 -81 30.5 -114.5t96.5 -33.5q62 0 90.5 35t28.5 113z" />
    <glyph glyph-name="V" unicode="V" horiz-adv-x="602" 
d="M150 700l140 -411l18 -119h5l20 120l134 410h144l-260 -705h-98l-262 705h159z" />
    <glyph glyph-name="W" unicode="W" horiz-adv-x="862" 
d="M149 700l93 -391l13 -124h4l14 126l122 389h90l120 -391l14 -124h4l15 126l85 389h139l-193 -705h-92l-125 389l-17 107h-5l-17 -108l-124 -388h-97l-192 705h149z" />
    <glyph glyph-name="X" unicode="X" horiz-adv-x="633" 
d="M10 0l215 356l-195 344h165l108 -202l24 -71l23 71l113 202h149l-202 -337l212 -363h-163l-123 216l-27 74l-26 -74l-124 -216h-149z" />
    <glyph glyph-name="Y" unicode="Y" horiz-adv-x="592" 
d="M228 0v260l-230 440h163l128 -263l14 -74h5l15 76l124 261h147l-229 -439v-261h-137z" />
    <glyph glyph-name="Z" unicode="Z" horiz-adv-x="539" 
d="M27 0v122l296 414l52 42h-348v122h485v-122l-298 -418l-51 -38h349v-122h-485z" />
    <glyph glyph-name="bracketleft" unicode="[" horiz-adv-x="324" 
d="M60 -230v930h235v-110h-111v-710h111v-110h-235z" />
    <glyph glyph-name="backslash" unicode="\" horiz-adv-x="424" 
d="M78 711l360 -806l-99 -45l-363 808z" />
    <glyph glyph-name="bracketright" unicode="]" horiz-adv-x="324" 
d="M264 700v-930h-235v110h111v710h-111v110h235z" />
    <glyph glyph-name="asciicircum" unicode="^" horiz-adv-x="500" 
d="M20 413l196 292h69l185 -292h-131l-71 122l-21 70l-25 -71l-78 -121h-124z" />
    <glyph glyph-name="underscore" unicode="_" horiz-adv-x="444" 
d="M0 -224v107h444v-107h-444z" />
    <glyph glyph-name="grave" unicode="`" horiz-adv-x="316" 
d="M196 720l60 -154h-72l-124 124v30h136z" />
    <glyph glyph-name="a" unicode="a" horiz-adv-x="496" 
d="M85 374l-31 97q86 39 210 39q99 0 139.5 -44.5t40.5 -130.5q0 -34 -3.5 -100.5t-3.5 -98.5q0 -83 18 -137h-106l-21 69h-5q-50 -76 -147 -76q-69 0 -111 40.5t-42 105.5q0 161 253 161q25 0 38 -1q2 13 2 34q0 38 -17.5 54.5t-59.5 16.5q-91 0 -154 -29zM219 99
q67 0 96 55v65q-26 2 -38 2q-120 0 -120 -63q0 -28 16.5 -43.5t45.5 -15.5z" />
    <glyph glyph-name="b" unicode="b" horiz-adv-x="536" 
d="M57 22v678h130v-240h4q45 52 127 52q90 0 137.5 -62.5t47.5 -186.5q0 -133 -66 -204t-183 -71q-125 0 -197 34zM280 402q-68 0 -93 -72v-218q29 -14 74 -14q108 0 108 161q0 143 -89 143z" />
    <glyph glyph-name="c" unicode="c" horiz-adv-x="433" 
d="M381 130l30 -99q-62 -45 -160 -45q-218 0 -218 264q0 126 57.5 195t165.5 69q88 0 149 -32l-31 -106q-48 23 -97 23q-110 0 -110 -149q0 -67 29.5 -108t87.5 -41q54 0 97 29z" />
    <glyph glyph-name="d" unicode="d" horiz-adv-x="539" 
d="M482 700v-524q0 -110 10 -177h-93l-18 65h-4q-45 -78 -146 -78q-198 0 -198 256q0 128 59 199t169 71q52 0 91 -15v203h130zM261 96q72 0 91 72v212q-26 22 -75 22q-56 0 -83 -38t-27 -126q0 -66 23.5 -104t70.5 -38z" />
    <glyph glyph-name="e" unicode="e" horiz-adv-x="508" 
d="M414 128l43 -85q-31 -25 -83 -41t-108 -16q-118 0 -175.5 68.5t-57.5 195.5q0 130 62.5 197t177.5 67q86 0 143 -47.5t57 -154.5q0 -45 -10 -95h-300q3 -64 33 -95.5t95 -31.5q74 0 123 38zM271 410q-95 0 -105 -112h186q0 2 0.5 8t0.5 8q0 96 -82 96z" />
    <glyph glyph-name="f" unicode="f" horiz-adv-x="321" 
d="M11 390v110h69v28q0 180 156 180q80 0 133 -19l-25 -104q-40 13 -77 13t-47 -21.5t-10 -76.5h110v-110h-110v-390h-130v390h-69z" />
    <glyph glyph-name="g" unicode="g" horiz-adv-x="536" 
d="M480 482v-482q0 -107 -58 -159.5t-166 -52.5q-118 0 -176 31l27 103q70 -27 129 -27q65 0 91 27.5t26 84.5v32h-4q-35 -47 -124 -47q-192 0 -192 248q0 133 64 202.5t186 69.5q116 0 197 -30zM260 96q69 0 90 68v225q-31 13 -77 13q-106 0 -106 -157q0 -73 24 -111
t69 -38z" />
    <glyph glyph-name="h" unicode="h" horiz-adv-x="545" 
d="M493 0h-130v284q0 62 -17.5 88.5t-61.5 26.5q-33 0 -60.5 -22.5t-36.5 -57.5v-319h-130v700h130v-256h4q53 70 148 70q80 0 117 -45t37 -158v-311z" />
    <glyph glyph-name="i" unicode="i" horiz-adv-x="269" 
d="M67 0v500h130v-500h-130zM48 641q0 30 22 50t59 20q38 0 61.5 -20t23.5 -50t-23.5 -49t-61.5 -19q-37 0 -59 19t-22 49z" />
    <glyph glyph-name="j" unicode="j" horiz-adv-x="268" 
d="M69 16v484h130v-521q0 -187 -151 -187q-30 0 -64 7v109q3 0 7 -0.5t6 -0.5q42 0 57 26.5t15 82.5zM50 641q0 30 22 50t59 20q38 0 61.5 -20t23.5 -50t-23.5 -49t-61.5 -19q-37 0 -59 19t-22 49z" />
    <glyph glyph-name="k" unicode="k" horiz-adv-x="491" 
d="M344 0l-122 207h-35v-207h-130v700h130v-413l30 14l114 199h143l-120 -190l-51 -38l55 -39l135 -233h-149z" />
    <glyph glyph-name="l" unicode="l" horiz-adv-x="294" 
d="M191 700v-532q0 -67 38 -67q25 0 52 11l14 -102q-50 -24 -117 -24q-117 0 -117 114v600h130z" />
    <glyph glyph-name="m" unicode="m" horiz-adv-x="805" 
d="M471 0h-130v272q0 71 -14 99t-53 28q-61 0 -87 -66v-333h-130v500h101l15 -66h4q58 80 150 80q95 0 126 -85q51 85 146 85q85 0 120.5 -46t35.5 -168v-300h-130v281q0 63 -13.5 90.5t-54.5 27.5q-65 0 -86 -71v-328z" />
    <glyph glyph-name="n" unicode="n" horiz-adv-x="545" 
d="M493 0h-130v284q0 61 -18 88t-59 27q-36 0 -62 -21t-37 -54v-324h-130v500h103l15 -66h4q56 80 159 80q79 0 117 -45.5t38 -157.5v-311z" />
    <glyph glyph-name="o" unicode="o" horiz-adv-x="537" 
d="M33 250q0 126 62 195t174 69q116 0 175.5 -71t59.5 -193q0 -126 -61.5 -195t-173.5 -69q-116 0 -176 71t-60 193zM167 250q0 -70 25 -112t77 -42q101 0 101 154t-101 154q-102 0 -102 -154z" />
    <glyph glyph-name="p" unicode="p" horiz-adv-x="540" 
d="M57 -200v700h95l15 -60h4q52 74 148 74q94 0 141 -61t47 -190q0 -130 -60 -203.5t-169 -73.5q-53 0 -91 19v-205h-130zM280 404q-69 0 -93 -76v-208q30 -24 74 -24q56 0 84 40.5t28 129.5q0 138 -93 138z" />
    <glyph glyph-name="q" unicode="q" horiz-adv-x="536" 
d="M480 482v-682h-130v243h-4q-37 -57 -121 -57q-93 0 -142.5 64t-49.5 190q0 132 67.5 202t193.5 70q105 0 186 -30zM260 96q69 0 90 68v225q-26 13 -77 13q-106 0 -106 -157q0 -73 24 -111t69 -38z" />
    <glyph glyph-name="r" unicode="r" horiz-adv-x="351" 
d="M350 500l-17 -122q-31 11 -56 11q-34 0 -58 -18t-32 -48v-323h-130v500h101l15 -66h4q36 77 114 77q26 0 59 -11z" />
    <glyph glyph-name="s" unicode="s" horiz-adv-x="422" 
d="M264 138q0 21 -23.5 36t-57 26.5t-67 27.5t-57 50t-23.5 84q0 73 44 112.5t127 39.5q107 0 175 -39l-29 -94q-75 29 -129 29q-58 0 -58 -45q0 -20 23.5 -33.5t57 -24.5t67 -27t57 -49t23.5 -82q0 -77 -49.5 -120t-144.5 -43q-104 0 -175 45l36 97q69 -38 139 -38
q64 0 64 48z" />
    <glyph glyph-name="t" unicode="t" horiz-adv-x="349" 
d="M5 390v110h69v94l130 37v-131h122v-110h-122v-192q0 -53 10.5 -75t39.5 -22q32 0 67 16l23 -100q-66 -31 -136 -31q-69 0 -101.5 36t-32.5 116v252h-69z" />
    <glyph glyph-name="u" unicode="u" horiz-adv-x="538" 
d="M52 500h130v-284q0 -62 15.5 -88.5t55.5 -26.5q70 0 98 76v323h130v-348q0 -89 16 -152h-98l-23 74h-4q-24 -39 -66 -63.5t-95 -24.5q-81 0 -120 45.5t-39 157.5v311z" />
    <glyph glyph-name="v" unicode="v" horiz-adv-x="477" 
d="M137 500l93 -262l17 -77h5l14 79l85 260h140l-209 -505h-79l-217 505h151z" />
    <glyph glyph-name="w" unicode="w" horiz-adv-x="721" 
d="M323 500h96l91 -256l18 -83h4l14 84l64 255h119l-154 -505h-96l-101 280l-13 63h-5l-12 -64l-96 -279h-99l-161 505h141l73 -251l12 -89h5l17 90z" />
    <glyph glyph-name="x" unicode="x" horiz-adv-x="525" 
d="M8 0l162 256l-150 244h155l65 -107l28 -70l30 70l68 107h141l-151 -240l161 -260h-151l-77 120l-30 74l-32 -74l-77 -120h-142z" />
    <glyph glyph-name="y" unicode="y" horiz-adv-x="478" 
d="M147 500l92 -281l18 -78h6l13 79l76 280h134l-152 -451q-18 -54 -29.5 -85t-29 -68t-34 -56t-39.5 -32t-50 -13q-52 0 -83 17l24 104q15 -6 30 -6q57 0 77 90l-209 500h156z" />
    <glyph glyph-name="z" unicode="z" horiz-adv-x="458" 
d="M31 0v110l197 237l51 43h-248v110h392v-110l-195 -241l-50 -39h245v-110h-392z" />
    <glyph glyph-name="braceleft" unicode="{" horiz-adv-x="371" 
d="M123 -109v205q0 49 -20 69t-60 20v100q80 0 80 85v209q0 56 27 89t80 33h120v-110h-50q-27 0 -39.5 -14t-12.5 -46v-195q0 -41 -20 -65t-50 -29v-10q29 -4 49.5 -31t20.5 -67v-194q0 -32 12.5 -46t40.5 -14h49v-110h-120q-52 0 -79.5 31.5t-27.5 89.5z" />
    <glyph glyph-name="bar" unicode="|" horiz-adv-x="227" 
d="M60 -130v830h107v-830h-107z" />
    <glyph glyph-name="braceright" unicode="}" horiz-adv-x="371" 
d="M261 580v-205q0 -49 20 -69t60 -20v-100q-80 0 -80 -85v-209q0 -55 -27.5 -88.5t-81.5 -33.5h-117v110h50q27 0 39.5 13.5t12.5 46.5v195q0 41 20 65t50 29v10q-29 4 -49.5 31t-20.5 67v194q0 31 -12.5 45.5t-40.5 14.5h-49v110h119q52 0 79.5 -31.5t27.5 -89.5z" />
    <glyph glyph-name="asciitilde" unicode="~" horiz-adv-x="527" 
d="M72 278l-44 100q81 67 154 67q40 0 102 -26.5t91 -26.5q40 0 77 29l47 -103q-65 -49 -122 -49q-38 0 -98.5 29t-94.5 29q-54 0 -112 -49z" />
    <glyph glyph-name="uni00A0" unicode="&#xa0;" horiz-adv-x="253" 
 />
    <glyph glyph-name="exclamdown" unicode="&#xa1;" horiz-adv-x="293" 
d="M191 129v-329h-134v329l26 162h82zM44 435q0 35 22 55.5t58 20.5q38 0 60 -20.5t22 -55.5t-22 -56t-60 -21q-36 0 -58 21t-22 56z" />
    <glyph glyph-name="cent" unicode="&#xa2;" 
d="M459 129l30 -98q-34 -25 -97 -37v-94h-121v89q-187 25 -187 261q0 111 48 178t139 82v90h121v-90q52 -7 90 -26l-30 -106q-27 12 -67 17v-291q42 5 74 25zM212 250q0 -115 83 -142v286q-83 -21 -83 -144z" />
    <glyph glyph-name="sterling" unicode="&#xa3;" 
d="M51 287v107h68q-32 60 -32 126q0 95 61 144.5t162 49.5q114 0 197 -40l-42 -116q-59 34 -139 34q-49 0 -75.5 -23t-26.5 -67q0 -21 7 -42.5t12.5 -31t20.5 -34.5h141v-107h-98q3 -16 3 -34q0 -76 -41 -117l-43 -32v-4l67 15h230v-115h-472v115q61 1 94 36t33 86
q0 27 -6 50h-121z" />
    <glyph glyph-name="currency" unicode="&#xa4;" 
d="M5 542l76 80l78 -77l19 -37q41 30 105 30q65 0 105 -29l20 36l78 77l77 -80l-77 -78l-37 -16q26 -40 26 -103q0 -64 -26 -101l37 -16l77 -78l-77 -80l-78 77l-18 37q-39 -30 -107 -30q-64 0 -105 29l-19 -36l-78 -77l-76 80l77 78l36 17q-26 45 -26 100q0 53 28 102
l-38 17zM201 346q0 -38 23 -62t60 -24t59.5 24t22.5 62q0 37 -23 61.5t-59 24.5t-59.5 -25t-23.5 -61z" />
    <glyph glyph-name="yen" unicode="&#xa5;" 
d="M85 257v80h90l-189 363h163l128 -263l14 -74h5l15 76l124 261h147l-190 -363h91v-80h-130v-58h130v-80h-130v-119h-137v119h-131v80h131v58h-131z" />
    <glyph glyph-name="brokenbar" unicode="&#xa6;" horiz-adv-x="227" 
d="M60 -130v343h107v-343h-107zM167 700v-343h-107v343h107z" />
    <glyph glyph-name="section" unicode="&#xa7;" horiz-adv-x="530" 
d="M49 353q0 64 56 113l41 14q-60 36 -60 106q0 58 45 93t130 35q118 0 188 -33l-32 -105q-58 28 -134 28q-67 0 -67 -39q0 -20 27.5 -32t66 -21.5t77.5 -24.5t66.5 -50.5t27.5 -89.5q0 -63 -55 -112l-45 -14q63 -37 63 -107q0 -61 -48.5 -94.5t-130.5 -33.5q-110 0 -188 43
l34 100q68 -33 133 -33q70 0 70 40q0 21 -27.5 33.5t-66 22.5t-77.5 25t-66.5 49.5t-27.5 86.5zM351 345q0 31 -25.5 47t-88.5 36q-7 2 -10 3q-48 -30 -48 -76q0 -32 27.5 -49t92.5 -36q52 29 52 75z" />
    <glyph glyph-name="dieresis" unicode="&#xa8;" horiz-adv-x="479" 
d="M60 651q0 32 19.5 51t51.5 19q31 0 50 -19t19 -51q0 -30 -19 -49t-50 -19q-32 0 -51.5 19t-19.5 49zM279 651q0 32 19 51t50 19q32 0 51.5 -19.5t19.5 -50.5q0 -30 -20 -49t-51 -19t-50 19t-19 49z" />
    <glyph glyph-name="copyright" unicode="&#xa9;" horiz-adv-x="833" 
d="M55 290q0 162 103 261.5t258 99.5t258 -99.5t103 -261.5t-103 -261.5t-258 -99.5q-166 0 -263.5 97.5t-97.5 263.5zM153 290q0 -123 73.5 -195.5t189.5 -72.5q117 0 190.5 72.5t73.5 195.5t-73.5 195.5t-190.5 72.5q-116 0 -189.5 -72.5t-73.5 -195.5zM512 219l29 -88
q-47 -31 -127 -31q-79 0 -122.5 51t-43.5 139q0 90 45 140t121 50q64 0 120 -32l-32 -87q-30 15 -61 15q-63 0 -63 -86t70 -86q37 0 64 15z" />
    <glyph glyph-name="ordfeminine" unicode="&#xaa;" horiz-adv-x="420" 
d="M83 610l-22 64q63 34 180 34q74 0 103 -26.5t29 -85.5q0 -23 -1.5 -66.5t-1.5 -63.5q0 -53 8 -86h-101l-13 46h-4q-39 -50 -104 -50q-51 0 -82.5 27.5t-31.5 71.5q0 111 190 111q4 0 13 -0.5t14 -0.5q2 27 -8 38t-43 11q-60 0 -125 -24zM194 454q45 0 65 35v35
q-24 2 -35 2q-67 0 -67 -38q0 -15 10.5 -24.5t26.5 -9.5z" />
    <glyph glyph-name="guillemotleft" unicode="&#xab;" horiz-adv-x="488" 
d="M383 48l-160 213l154 216l71 -56l-81 -122l-46 -39l46 -35l87 -121zM195 38l-166 221l160 230l79 -62l-87 -126l-48 -41l48 -36l93 -124z" />
    <glyph glyph-name="logicalnot" unicode="&#xac;" horiz-adv-x="527" 
d="M45 300v112h442v-226h-120v114h-322z" />
    <glyph glyph-name="uni00AD" unicode="&#xad;" horiz-adv-x="360" 
d="M49 230v115h262v-115h-262z" />
    <glyph glyph-name="registered" unicode="&#xae;" horiz-adv-x="690" 
d="M62 451q0 130 81.5 206t201.5 76q122 0 202 -75.5t80 -206.5q0 -130 -81 -206t-201 -76q-122 0 -202.5 75.5t-80.5 206.5zM156 451q0 -92 54 -142.5t135 -50.5q84 0 136 49t52 144q0 92 -53.5 142t-134.5 50q-86 0 -137.5 -51.5t-51.5 -140.5zM242 322v259q35 10 100 10
q46 0 74 -19t28 -59q0 -31 -20 -48.5t-51 -19.5l28 -14l65 -109h-61l-63 104l-48 15v-119h-52zM331 546q-29 0 -37 -4v-71h34q61 0 61 40q0 35 -58 35z" />
    <glyph glyph-name="macron" unicode="&#xaf;" horiz-adv-x="443" 
d="M60 566v92h323v-92h-323z" />
    <glyph glyph-name="degree" unicode="&#xb0;" horiz-adv-x="437" 
d="M60 548q0 72 47.5 119t116.5 47q71 0 119 -45t48 -121q0 -75 -48 -119.5t-119 -44.5q-70 0 -117 44.5t-47 119.5zM160 548q0 -31 18.5 -50t46.5 -19t47.5 19t19.5 50t-19.5 51t-47.5 20t-46.5 -19.5t-18.5 -51.5z" />
    <glyph glyph-name="plusminus" unicode="&#xb1;" horiz-adv-x="527" 
d="M43 406v112h162v164h117v-164h163v-112h-163v-107h-117v107h-162zM43 141v112h442v-112h-442z" />
    <glyph glyph-name="twosuperior" unicode="&#xb2;" horiz-adv-x="412" 
d="M348 680q0 -54 -26 -94.5t-76 -86.5l-47 -25v-4l58 11h107v-101h-313v71q43 29 79.5 59t69.5 72t33 74q0 49 -57 49q-46 0 -92 -28l-34 90q64 40 150 40q71 0 109.5 -33t38.5 -94z" />
    <glyph glyph-name="threesuperior" unicode="&#xb3;" horiz-adv-x="412" 
d="M169 468q82 0 82 51q0 49 -90 49h-42v38l73 80l43 25l-58 -6h-115v95h283v-62l-87 -92l-34 -18v-5l30 3q52 -2 82 -32t30 -83q0 -68 -51 -103t-129 -35q-73 0 -130 24l24 90q41 -19 89 -19z" />
    <glyph glyph-name="acute" unicode="&#xb4;" horiz-adv-x="305" 
d="M60 566l53 154h132v-30l-111 -124h-74z" />
    <glyph glyph-name="mu" unicode="&#xb5;" horiz-adv-x="569" 
d="M52 500h130v-273q0 -66 21.5 -97.5t70.5 -31.5q88 0 114 87v315h130v-337q0 -103 15 -163h-96l-32 74h-4q-43 -86 -136 -86q-36 0 -57 12.5t-42 37.5h-5l21 -105v-133h-130v700z" />
    <glyph glyph-name="mu" unicode="&#x3bc;" horiz-adv-x="569" 
d="M52 500h130v-273q0 -66 21.5 -97.5t70.5 -31.5q88 0 114 87v315h130v-337q0 -103 15 -163h-96l-32 74h-4q-43 -86 -136 -86q-36 0 -57 12.5t-42 37.5h-5l21 -105v-133h-130v700z" />
    <glyph glyph-name="paragraph" unicode="&#xb6;" horiz-adv-x="529" 
d="M362 -130v830h107v-830h-107zM178 -130v424q-65 0 -108.5 60.5t-43.5 143.5t51.5 142.5t132.5 59.5h74v-830h-106z" />
    <glyph glyph-name="periodcentered" unicode="&#xb7;" horiz-adv-x="253" 
d="M45 316q0 35 22 55.5t58 20.5q38 0 60 -20.5t22 -55.5t-22 -56t-60 -21q-36 0 -58 21t-22 56z" />
    <glyph glyph-name="cedilla" unicode="&#xb8;" horiz-adv-x="332" 
d="M124 0h84l-24 -43q88 -8 88 -75q0 -44 -41.5 -68t-106.5 -24q-31 0 -64 6l9 48q9 -1 24 -1q60 0 60 30q0 28 -86 32z" />
    <glyph glyph-name="onesuperior" unicode="&#xb9;" horiz-adv-x="412" 
d="M72 380v100h97v164l10 46l-30 -32l-59 -39l-49 77l158 111h85v-327h88v-100h-300z" />
    <glyph glyph-name="ordmasculine" unicode="&#xba;" horiz-adv-x="419" 
d="M34 542q0 86 47.5 128t128.5 42q175 0 175 -170t-175 -170q-176 0 -176 170zM151 542q0 -86 59 -86q31 0 44.5 19t13.5 67q0 47 -13.5 66.5t-44.5 19.5t-45 -19.5t-14 -66.5z" />
    <glyph glyph-name="guillemotright" unicode="&#xbb;" horiz-adv-x="488" 
d="M104 479l160 -213l-153 -216l-72 56l82 122l45 39l-45 35l-87 121zM293 489l166 -221l-160 -230l-79 62l87 126l48 41l-48 36l-93 124z" />
    <glyph glyph-name="onequarter" unicode="&#xbc;" horiz-adv-x="880" 
d="M178 39l431 676l85 -50l-430 -679zM833 167v-89h-76v-78h-101v78h-207v67l218 283h90v-261h76zM656 167v86l6 53h-5l-22 -49l-49 -66l-35 -32l52 8h53zM164 280v264l10 46l-30 -32l-59 -39l-49 77l158 111h85v-427h-115z" />
    <glyph glyph-name="onehalf" unicode="&#xbd;" horiz-adv-x="903" 
d="M178 39l431 676l85 -50l-430 -679zM841 300q0 -54 -26 -94.5t-76 -86.5l-47 -25v-4l58 11h107v-101h-313v71q43 29 79.5 59t69.5 72t33 74q0 49 -57 49q-46 0 -92 -28l-34 90q64 40 150 40q71 0 109.5 -33t38.5 -94zM164 280v264l10 46l-30 -32l-59 -39l-49 77l158 111
h85v-427h-115z" />
    <glyph glyph-name="threequarters" unicode="&#xbe;" horiz-adv-x="905" 
d="M203 39l431 676l85 -50l-430 -679zM858 167v-89h-76v-78h-101v78h-207v67l218 283h90v-261h76zM681 167v86l6 53h-5l-22 -49l-49 -66l-35 -32l52 8h53zM160 368q82 0 82 51q0 49 -90 49h-42v38l73 80l43 25l-58 -6h-115v95h283v-62l-87 -92l-34 -18v-5l30 3q52 -2 82 -32
t30 -83q0 -68 -51 -103t-129 -35q-73 0 -130 24l24 90q41 -19 89 -19z" />
    <glyph glyph-name="questiondown" unicode="&#xbf;" horiz-adv-x="454" 
d="M206 293h111q2 -22 2 -33q0 -49 -16.5 -87t-40.5 -61t-48 -43t-40.5 -43t-16.5 -51q0 -77 90 -77q32 0 70 13.5t64 33.5l49 -97q-86 -60 -206 -60q-93 0 -147 45t-54 123q0 48 13.5 84.5t34 56.5t44 41t44 38.5t34 47.5t13.5 69zM178 435q0 35 22 55.5t58 20.5
q38 0 60 -20.5t22 -55.5t-22 -56t-60 -21q-36 0 -58 21t-22 56z" />
    <glyph glyph-name="Agrave" unicode="&#xc0;" horiz-adv-x="605" 
d="M461 0l-56 155h-215l-53 -155h-137l252 705h101l252 -705h-144zM276 420l-51 -155h150l-52 156l-21 110h-5zM295 870l104 -118h-105l-158 88v30h159z" />
    <glyph glyph-name="Aacute" unicode="&#xc1;" horiz-adv-x="605" 
d="M461 0l-56 155h-215l-53 -155h-137l252 705h101l252 -705h-144zM276 420l-51 -155h150l-52 156l-21 110h-5zM205 752l104 118h159v-30l-160 -88h-103z" />
    <glyph glyph-name="Acircumflex" unicode="&#xc2;" horiz-adv-x="605" 
d="M461 0l-56 155h-215l-53 -155h-137l252 705h101l252 -705h-144zM276 420l-51 -155h150l-52 156l-21 110h-5zM124 778l133 92h96l127 -93v-39h-99l-57 41l-20 34l-21 -33l-62 -42h-97v40z" />
    <glyph glyph-name="Atilde" unicode="&#xc3;" horiz-adv-x="605" 
d="M461 0l-56 155h-215l-53 -155h-137l252 705h101l252 -705h-144zM276 420l-51 -155h150l-52 156l-21 110h-5zM137 737l-24 63q55 61 120 61q31 0 86.5 -17.5t78.5 -17.5q35 0 60 24l25 -67q-50 -47 -106 -47q-31 0 -85.5 18t-79.5 18q-41 0 -75 -35z" />
    <glyph glyph-name="Adieresis" unicode="&#xc4;" horiz-adv-x="605" 
d="M461 0l-56 155h-215l-53 -155h-137l252 705h101l252 -705h-144zM276 420l-51 -155h150l-52 156l-21 110h-5zM124 798q0 58 76 58q75 0 75 -58q0 -57 -75 -57q-76 0 -76 57zM338 798q0 58 75 58q76 0 76 -58q0 -57 -76 -57q-75 0 -75 57z" />
    <glyph glyph-name="Aring" unicode="&#xc5;" horiz-adv-x="605" 
d="M175 771q0 90 128 90t128 -90q0 -64 -73 -82l247 -689h-144l-56 155h-215l-53 -155h-137l246 689q-71 16 -71 82zM276 420l-51 -155h150l-52 156l-21 110h-5zM259 771q0 -31 44 -31q45 0 45 31q0 33 -45 33q-44 0 -44 -33z" />
    <glyph glyph-name="AE" unicode="&#xc6;" horiz-adv-x="862" 
d="M400 532h-6l-36 -103l-84 -149h126v252zM400 0v170h-186l-99 -170h-144l424 700h419v-122h-277v-163h252v-122h-252v-171h282v-122h-419z" />
    <glyph glyph-name="Ccedilla" unicode="&#xc7;" horiz-adv-x="559" 
d="M506 141l28 -112q-49 -35 -149 -42l-16 -30q88 -8 88 -75q0 -44 -41.5 -68t-106.5 -24q-31 0 -64 6l9 48q9 -1 24 -1q60 0 60 30q0 28 -86 32l50 84q-118 15 -191 103.5t-73 257.5q0 98 28 171.5t75 114t100.5 59.5t112.5 19q101 0 170 -27l-27 -116q-43 21 -131 21
q-86 0 -135 -60.5t-49 -181.5q0 -111 50 -176t144 -65q78 0 130 32z" />
    <glyph glyph-name="Egrave" unicode="&#xc8;" horiz-adv-x="522" 
d="M60 0v700h415v-122h-278v-163h253v-122h-253v-171h283v-122h-420zM248 870l104 -118h-105l-158 88v30h159z" />
    <glyph glyph-name="Eacute" unicode="&#xc9;" horiz-adv-x="522" 
d="M60 0v700h415v-122h-278v-163h253v-122h-253v-171h283v-122h-420zM189 752l104 118h159v-30l-160 -88h-103z" />
    <glyph glyph-name="Ecircumflex" unicode="&#xca;" horiz-adv-x="522" 
d="M60 0v700h415v-122h-278v-163h253v-122h-253v-171h283v-122h-420zM86 778l133 92h96l127 -93v-39h-99l-57 41l-20 34l-21 -33l-62 -42h-97v40z" />
    <glyph glyph-name="Edieresis" unicode="&#xcb;" horiz-adv-x="522" 
d="M60 0v700h415v-122h-278v-163h253v-122h-253v-171h283v-122h-420zM84 798q0 58 76 58q75 0 75 -58q0 -57 -75 -57q-76 0 -76 57zM298 798q0 58 75 58q76 0 76 -58q0 -57 -76 -57q-75 0 -75 57z" />
    <glyph glyph-name="Igrave" unicode="&#xcc;" horiz-adv-x="285" 
d="M74 0v700h137v-700h-137zM136 870l104 -118h-105l-158 88v30h159z" />
    <glyph glyph-name="Iacute" unicode="&#xcd;" horiz-adv-x="285" 
d="M74 0v700h137v-700h-137zM48 752l104 118h159v-30l-160 -88h-103z" />
    <glyph glyph-name="Icircumflex" unicode="&#xce;" horiz-adv-x="285" 
d="M74 0v700h137v-700h-137zM-37 778l133 92h96l127 -93v-39h-99l-57 41l-20 34l-21 -33l-62 -42h-97v40z" />
    <glyph glyph-name="Idieresis" unicode="&#xcf;" horiz-adv-x="285" 
d="M74 0v700h137v-700h-137zM-39 798q0 58 76 58q75 0 75 -58q0 -57 -75 -57q-76 0 -76 57zM175 798q0 58 75 58q76 0 76 -58q0 -57 -76 -57q-75 0 -75 57z" />
    <glyph glyph-name="Eth" unicode="&#xd0;" horiz-adv-x="669" 
d="M-6 321v80h88v299q69 10 204 10q179 0 262 -94.5t83 -259.5q0 -74 -18.5 -137t-58.5 -116t-112 -83.5t-169 -30.5q-119 0 -191 10v322h-88zM219 584v-183h140v-80h-140v-207q16 -3 70 -3q198 0 198 245q0 45 -8.5 83t-28.5 73t-59 55.5t-94 20.5q-58 0 -78 -4z" />
    <glyph glyph-name="Ntilde" unicode="&#xd1;" horiz-adv-x="657" 
d="M497 -5l-263 370l-55 110h-5l16 -110v-365h-130v705h100l265 -373l53 -107h5l-16 107v368h130v-705h-100zM162 737l-24 63q55 61 120 61q31 0 86.5 -17.5t78.5 -17.5q35 0 60 24l25 -67q-50 -47 -106 -47q-31 0 -85.5 18t-79.5 18q-41 0 -75 -35z" />
    <glyph glyph-name="Ograve" unicode="&#xd2;" horiz-adv-x="670" 
d="M38 350q0 174 77.5 269t219.5 95q147 0 222 -97.5t75 -266.5q0 -174 -78 -269t-219 -95q-148 0 -222.5 97.5t-74.5 266.5zM182 350q0 -111 38 -176.5t115 -65.5q153 0 153 242q0 110 -37 176t-116 66q-153 0 -153 -242zM308 870l104 -118h-105l-158 88v30h159z" />
    <glyph glyph-name="Oacute" unicode="&#xd3;" horiz-adv-x="670" 
d="M38 350q0 174 77.5 269t219.5 95q147 0 222 -97.5t75 -266.5q0 -174 -78 -269t-219 -95q-148 0 -222.5 97.5t-74.5 266.5zM182 350q0 -111 38 -176.5t115 -65.5q153 0 153 242q0 110 -37 176t-116 66q-153 0 -153 -242zM264 752l104 118h159v-30l-160 -88h-103z" />
    <glyph glyph-name="Ocircumflex" unicode="&#xd4;" horiz-adv-x="670" 
d="M38 350q0 174 77.5 269t219.5 95q147 0 222 -97.5t75 -266.5q0 -174 -78 -269t-219 -95q-148 0 -222.5 97.5t-74.5 266.5zM182 350q0 -111 38 -176.5t115 -65.5q153 0 153 242q0 110 -37 176t-116 66q-153 0 -153 -242zM154 778l133 92h96l127 -93v-39h-99l-57 41l-20 34
l-21 -33l-62 -42h-97v40z" />
    <glyph glyph-name="Otilde" unicode="&#xd5;" horiz-adv-x="670" 
d="M38 350q0 174 77.5 269t219.5 95q147 0 222 -97.5t75 -266.5q0 -174 -78 -269t-219 -95q-148 0 -222.5 97.5t-74.5 266.5zM182 350q0 -111 38 -176.5t115 -65.5q153 0 153 242q0 110 -37 176t-116 66q-153 0 -153 -242zM168 737l-24 63q55 61 120 61q31 0 86.5 -17.5
t78.5 -17.5q35 0 60 24l25 -67q-50 -47 -106 -47q-31 0 -85.5 18t-79.5 18q-41 0 -75 -35z" />
    <glyph glyph-name="Odieresis" unicode="&#xd6;" horiz-adv-x="670" 
d="M38 350q0 174 77.5 269t219.5 95q147 0 222 -97.5t75 -266.5q0 -174 -78 -269t-219 -95q-148 0 -222.5 97.5t-74.5 266.5zM182 350q0 -111 38 -176.5t115 -65.5q153 0 153 242q0 110 -37 176t-116 66q-153 0 -153 -242zM150 798q0 58 76 58q75 0 75 -58q0 -57 -75 -57
q-76 0 -76 57zM364 798q0 58 75 58q76 0 76 -58q0 -57 -76 -57q-75 0 -75 57z" />
    <glyph glyph-name="multiply" unicode="&#xd7;" horiz-adv-x="527" 
d="M56 466l78 81l131 -130l130 130l79 -81l-130 -127l130 -129l-79 -82l-130 131l-132 -132l-79 81l131 131z" />
    <glyph glyph-name="Oslash" unicode="&#xd8;" horiz-adv-x="670" 
d="M81 39l30 47q-73 95 -73 264q0 174 77.5 269t219.5 95q87 0 152 -38l25 39l85 -50l-35 -56q70 -94 70 -259q0 -174 -78 -269t-219 -95q-83 0 -147 33l-21 -33zM182 350q0 -75 16 -127l219 342q-35 27 -82 27q-153 0 -153 -242zM488 350q0 71 -14 120l-215 -340
q33 -22 76 -22q153 0 153 242z" />
    <glyph glyph-name="Ugrave" unicode="&#xd9;" horiz-adv-x="627" 
d="M440 258v442h130v-452q0 -131 -65.5 -195.5t-181.5 -64.5q-266 0 -266 243v469h137v-442q0 -81 30.5 -114.5t96.5 -33.5q62 0 90.5 35t28.5 113zM291 870l104 -118h-105l-158 88v30h159z" />
    <glyph glyph-name="Uacute" unicode="&#xda;" horiz-adv-x="627" 
d="M440 258v442h130v-452q0 -131 -65.5 -195.5t-181.5 -64.5q-266 0 -266 243v469h137v-442q0 -81 30.5 -114.5t96.5 -33.5q62 0 90.5 35t28.5 113zM261 752l104 118h159v-30l-160 -88h-103z" />
    <glyph glyph-name="Ucircumflex" unicode="&#xdb;" horiz-adv-x="627" 
d="M440 258v442h130v-452q0 -131 -65.5 -195.5t-181.5 -64.5q-266 0 -266 243v469h137v-442q0 -81 30.5 -114.5t96.5 -33.5q62 0 90.5 35t28.5 113zM140 778l133 92h96l127 -93v-39h-99l-57 41l-20 34l-21 -33l-62 -42h-97v40z" />
    <glyph glyph-name="Udieresis" unicode="&#xdc;" horiz-adv-x="627" 
d="M440 258v442h130v-452q0 -131 -65.5 -195.5t-181.5 -64.5q-266 0 -266 243v469h137v-442q0 -81 30.5 -114.5t96.5 -33.5q62 0 90.5 35t28.5 113zM133 798q0 58 76 58q75 0 75 -58q0 -57 -75 -57q-76 0 -76 57zM347 798q0 58 75 58q76 0 76 -58q0 -57 -76 -57
q-75 0 -75 57z" />
    <glyph glyph-name="Yacute" unicode="&#xdd;" horiz-adv-x="592" 
d="M228 0v260l-230 440h163l128 -263l14 -74h5l15 76l124 261h147l-229 -439v-261h-137zM222 752l104 118h159v-30l-160 -88h-103z" />
    <glyph glyph-name="Thorn" unicode="&#xde;" horiz-adv-x="572" 
d="M60 0v700h137v-72q38 2 56 2q294 0 294 -232q0 -122 -78 -181.5t-193 -59.5q-60 0 -79 4v-161h-137zM197 507v-227q15 -4 59 -4q147 0 147 124q0 61 -39.5 86.5t-99.5 25.5q-42 0 -67 -5z" />
    <glyph glyph-name="germandbls" unicode="&#xdf;" horiz-adv-x="630" 
d="M386 537q0 25 -25.5 43t-57.5 18q-49 0 -70.5 -24t-21.5 -86v-488h-130v390h-69v110h69q0 208 215 208q101 0 160.5 -43.5t59.5 -116.5q0 -29 -11.5 -52t-28 -37.5t-33.5 -27t-28.5 -26.5t-11.5 -30q0 -20 20.5 -33.5t49.5 -24.5t58.5 -26t50 -46.5t20.5 -77.5
q0 -76 -48.5 -128.5t-139.5 -52.5q-90 0 -154 40l35 97q49 -27 79 -31q14 -2 29 -2q30 0 49.5 20t19.5 50q0 23 -20.5 39t-50 27.5t-58.5 25.5t-49.5 41.5t-20.5 67.5q0 32 11.5 56t28.5 38t33.5 25.5t28 25.5t11.5 31z" />
    <glyph glyph-name="agrave" unicode="&#xe0;" horiz-adv-x="496" 
d="M85 374l-31 97q86 39 210 39q99 0 139.5 -44.5t40.5 -130.5q0 -34 -3.5 -100.5t-3.5 -98.5q0 -83 18 -137h-106l-21 69h-5q-50 -76 -147 -76q-69 0 -111 40.5t-42 105.5q0 161 253 161q25 0 38 -1q2 13 2 34q0 38 -17.5 54.5t-59.5 16.5q-91 0 -154 -29zM219 99
q67 0 96 55v65q-26 2 -38 2q-120 0 -120 -63q0 -28 16.5 -43.5t45.5 -15.5zM251 720l60 -154h-72l-124 124v30h136z" />
    <glyph glyph-name="aacute" unicode="&#xe1;" horiz-adv-x="496" 
d="M85 374l-31 97q86 39 210 39q99 0 139.5 -44.5t40.5 -130.5q0 -34 -3.5 -100.5t-3.5 -98.5q0 -83 18 -137h-106l-21 69h-5q-50 -76 -147 -76q-69 0 -111 40.5t-42 105.5q0 161 253 161q25 0 38 -1q2 13 2 34q0 38 -17.5 54.5t-59.5 16.5q-91 0 -154 -29zM219 99
q67 0 96 55v65q-26 2 -38 2q-120 0 -120 -63q0 -28 16.5 -43.5t45.5 -15.5zM184 566l53 154h132v-30l-111 -124h-74z" />
    <glyph glyph-name="acircumflex" unicode="&#xe2;" horiz-adv-x="496" 
d="M85 374l-31 97q86 39 210 39q99 0 139.5 -44.5t40.5 -130.5q0 -34 -3.5 -100.5t-3.5 -98.5q0 -83 18 -137h-106l-21 69h-5q-50 -76 -147 -76q-69 0 -111 40.5t-42 105.5q0 161 253 161q25 0 38 -1q2 13 2 34q0 38 -17.5 54.5t-59.5 16.5q-91 0 -154 -29zM219 99
q67 0 96 55v65q-26 2 -38 2q-120 0 -120 -63q0 -28 16.5 -43.5t45.5 -15.5zM93 550l123 182h86l111 -182h-103l-39 66l-17 49l-17 -49l-45 -66h-99z" />
    <glyph glyph-name="atilde" unicode="&#xe3;" horiz-adv-x="496" 
d="M85 374l-31 97q86 39 210 39q99 0 139.5 -44.5t40.5 -130.5q0 -34 -3.5 -100.5t-3.5 -98.5q0 -83 18 -137h-106l-21 69h-5q-50 -76 -147 -76q-69 0 -111 40.5t-42 105.5q0 161 253 161q25 0 38 -1q2 13 2 34q0 38 -17.5 54.5t-59.5 16.5q-91 0 -154 -29zM219 99
q67 0 96 55v65q-26 2 -38 2q-120 0 -120 -63q0 -28 16.5 -43.5t45.5 -15.5zM105 593l-19 65q54 65 108 65q28 0 75 -22t70 -22q31 0 59 27l20 -70q-49 -56 -101 -56q-28 0 -76.5 21t-71.5 21q-34 0 -64 -29z" />
    <glyph glyph-name="adieresis" unicode="&#xe4;" horiz-adv-x="496" 
d="M85 374l-31 97q86 39 210 39q99 0 139.5 -44.5t40.5 -130.5q0 -34 -3.5 -100.5t-3.5 -98.5q0 -83 18 -137h-106l-21 69h-5q-50 -76 -147 -76q-69 0 -111 40.5t-42 105.5q0 161 253 161q25 0 38 -1q2 13 2 34q0 38 -17.5 54.5t-59.5 16.5q-91 0 -154 -29zM219 99
q67 0 96 55v65q-26 2 -38 2q-120 0 -120 -63q0 -28 16.5 -43.5t45.5 -15.5zM75 651q0 32 19.5 51t51.5 19q31 0 50 -19t19 -51q0 -30 -19 -49t-50 -19q-32 0 -51.5 19t-19.5 49zM294 651q0 32 19 51t50 19q32 0 51.5 -19.5t19.5 -50.5q0 -30 -20 -49t-51 -19t-50 19t-19 49z
" />
    <glyph glyph-name="aring" unicode="&#xe5;" horiz-adv-x="496" 
d="M85 374l-31 97q86 39 210 39q99 0 139.5 -44.5t40.5 -130.5q0 -34 -3.5 -100.5t-3.5 -98.5q0 -83 18 -137h-106l-21 69h-5q-50 -76 -147 -76q-69 0 -111 40.5t-42 105.5q0 161 253 161q25 0 38 -1q2 13 2 34q0 38 -17.5 54.5t-59.5 16.5q-91 0 -154 -29zM219 99
q67 0 96 55v65q-26 2 -38 2q-120 0 -120 -63q0 -28 16.5 -43.5t45.5 -15.5zM144 647q0 43 29 69.5t82 26.5q52 0 81.5 -25t29.5 -71q0 -40 -30.5 -67t-80.5 -27q-52 0 -81.5 25.5t-29.5 68.5zM216 647q0 -15 11.5 -24t27.5 -9q39 0 39 33q0 16 -11 25t-28 9q-39 0 -39 -34z
" />
    <glyph glyph-name="ae" unicode="&#xe6;" horiz-adv-x="785" 
d="M219 99q67 0 96 55v65q-68 6 -113 -8.5t-45 -52.5q0 -28 16.5 -43.5t45.5 -15.5zM355 76h-5q-67 -84 -174 -84q-69 0 -111 40.5t-42 105.5q0 173 290 160q2 13 2 35q0 37 -17 53.5t-59 16.5q-77 0 -151 -36l-34 94q91 49 210 49q95 0 134 -54q52 58 152 58q41 0 75 -10
t63 -32.5t45.5 -63t16.5 -96.5q0 -44 -10 -95h-301q4 -65 34 -96t95 -31q74 0 123 38l43 -85q-31 -25 -83 -41t-108 -16q-131 0 -188 90zM548 410q-95 0 -105 -112h187q6 112 -82 112z" />
    <glyph glyph-name="ccedilla" unicode="&#xe7;" horiz-adv-x="433" 
d="M381 130l30 -99q-44 -32 -115 -42l-18 -32q88 -8 88 -75q0 -44 -41.5 -68t-106.5 -24q-31 0 -64 6l9 48q9 -1 24 -1q60 0 60 30q0 28 -86 32l50 84q-178 22 -178 261q0 126 57.5 195t165.5 69q88 0 149 -32l-31 -106q-48 23 -97 23q-110 0 -110 -149q0 -67 29.5 -108
t87.5 -41q54 0 97 29z" />
    <glyph glyph-name="egrave" unicode="&#xe8;" horiz-adv-x="508" 
d="M414 128l43 -85q-31 -25 -83 -41t-108 -16q-118 0 -175.5 68.5t-57.5 195.5q0 130 62.5 197t177.5 67q86 0 143 -47.5t57 -154.5q0 -45 -10 -95h-300q3 -64 33 -95.5t95 -31.5q74 0 123 38zM271 410q-95 0 -105 -112h186q0 2 0.5 8t0.5 8q0 96 -82 96zM269 720l60 -154
h-72l-124 124v30h136z" />
    <glyph glyph-name="eacute" unicode="&#xe9;" horiz-adv-x="508" 
d="M414 128l43 -85q-31 -25 -83 -41t-108 -16q-118 0 -175.5 68.5t-57.5 195.5q0 130 62.5 197t177.5 67q86 0 143 -47.5t57 -154.5q0 -45 -10 -95h-300q3 -64 33 -95.5t95 -31.5q74 0 123 38zM271 410q-95 0 -105 -112h186q0 2 0.5 8t0.5 8q0 96 -82 96zM221 566l53 154
h132v-30l-111 -124h-74z" />
    <glyph glyph-name="ecircumflex" unicode="&#xea;" horiz-adv-x="508" 
d="M414 128l43 -85q-31 -25 -83 -41t-108 -16q-118 0 -175.5 68.5t-57.5 195.5q0 130 62.5 197t177.5 67q86 0 143 -47.5t57 -154.5q0 -45 -10 -95h-300q3 -64 33 -95.5t95 -31.5q74 0 123 38zM271 410q-95 0 -105 -112h186q0 2 0.5 8t0.5 8q0 96 -82 96zM98 550l123 182h86
l111 -182h-103l-39 66l-17 49l-17 -49l-45 -66h-99z" />
    <glyph glyph-name="edieresis" unicode="&#xeb;" horiz-adv-x="508" 
d="M414 128l43 -85q-31 -25 -83 -41t-108 -16q-118 0 -175.5 68.5t-57.5 195.5q0 130 62.5 197t177.5 67q86 0 143 -47.5t57 -154.5q0 -45 -10 -95h-300q3 -64 33 -95.5t95 -31.5q74 0 123 38zM271 410q-95 0 -105 -112h186q0 2 0.5 8t0.5 8q0 96 -82 96zM82 651
q0 32 19.5 51t51.5 19q31 0 50 -19t19 -51q0 -30 -19 -49t-50 -19q-32 0 -51.5 19t-19.5 49zM301 651q0 32 19 51t50 19q32 0 51.5 -19.5t19.5 -50.5q0 -30 -20 -49t-51 -19t-50 19t-19 49z" />
    <glyph glyph-name="igrave" unicode="&#xec;" horiz-adv-x="269" 
d="M70 0v500h130v-500h-130zM133 720l60 -154h-72l-124 124v30h136z" />
    <glyph glyph-name="iacute" unicode="&#xed;" horiz-adv-x="269" 
d="M70 0v500h130v-500h-130zM71 566l53 154h132v-30l-111 -124h-74z" />
    <glyph glyph-name="icircumflex" unicode="&#xee;" horiz-adv-x="269" 
d="M70 0v500h130v-500h-130zM-31 550l123 182h86l111 -182h-103l-39 66l-17 49l-17 -49l-45 -66h-99z" />
    <glyph glyph-name="idieresis" unicode="&#xef;" horiz-adv-x="269" 
d="M70 0v500h130v-500h-130zM-46 651q0 32 19.5 51t51.5 19q31 0 50 -19t19 -51q0 -30 -19 -49t-50 -19q-32 0 -51.5 19t-19.5 49zM173 651q0 32 19 51t50 19q32 0 51.5 -19.5t19.5 -50.5q0 -30 -20 -49t-51 -19t-50 19t-19 49z" />
    <glyph glyph-name="eth" unicode="&#xf0;" horiz-adv-x="563" 
d="M240 529l-43 55l44 30q-38 16 -69 21l52 80q64 -20 104 -42l53 36l42 -55l-33 -22q136 -114 136 -330q0 -156 -67.5 -236t-182.5 -80t-177 71t-62 188q0 108 65 181t167 73q84 0 123 -41q-24 70 -85 117zM163 243q0 -71 32.5 -109t88.5 -38q54 0 86 46.5t32 137.5
q0 45 -7 67q-29 42 -110 42q-58 0 -90 -40.5t-32 -105.5z" />
    <glyph glyph-name="ntilde" unicode="&#xf1;" horiz-adv-x="545" 
d="M493 0h-130v284q0 61 -18 88t-59 27q-36 0 -62 -21t-37 -54v-324h-130v500h103l15 -66h4q56 80 159 80q79 0 117 -45.5t38 -157.5v-311zM126 593l-19 65q54 65 108 65q28 0 75 -22t70 -22q31 0 59 27l20 -70q-49 -56 -101 -56q-28 0 -76.5 21t-71.5 21q-34 0 -64 -29z
" />
    <glyph glyph-name="ograve" unicode="&#xf2;" horiz-adv-x="537" 
d="M33 250q0 126 62 195t174 69q116 0 175.5 -71t59.5 -193q0 -126 -61.5 -195t-173.5 -69q-116 0 -176 71t-60 193zM167 250q0 -70 25 -112t77 -42q101 0 101 154t-101 154q-102 0 -102 -154zM271 720l60 -154h-72l-124 124v30h136z" />
    <glyph glyph-name="oacute" unicode="&#xf3;" horiz-adv-x="537" 
d="M33 250q0 126 62 195t174 69q116 0 175.5 -71t59.5 -193q0 -126 -61.5 -195t-173.5 -69q-116 0 -176 71t-60 193zM167 250q0 -70 25 -112t77 -42q101 0 101 154t-101 154q-102 0 -102 -154zM222 566l53 154h132v-30l-111 -124h-74z" />
    <glyph glyph-name="ocircumflex" unicode="&#xf4;" horiz-adv-x="537" 
d="M33 250q0 126 62 195t174 69q116 0 175.5 -71t59.5 -193q0 -126 -61.5 -195t-173.5 -69q-116 0 -176 71t-60 193zM167 250q0 -70 25 -112t77 -42q101 0 101 154t-101 154q-102 0 -102 -154zM108 550l123 182h86l111 -182h-103l-39 66l-17 49l-17 -49l-45 -66h-99z" />
    <glyph glyph-name="otilde" unicode="&#xf5;" horiz-adv-x="537" 
d="M33 250q0 126 62 195t174 69q116 0 175.5 -71t59.5 -193q0 -126 -61.5 -195t-173.5 -69q-116 0 -176 71t-60 193zM167 250q0 -70 25 -112t77 -42q101 0 101 154t-101 154q-102 0 -102 -154zM123 593l-19 65q54 65 108 65q28 0 75 -22t70 -22q31 0 59 27l20 -70
q-49 -56 -101 -56q-28 0 -76.5 21t-71.5 21q-34 0 -64 -29z" />
    <glyph glyph-name="odieresis" unicode="&#xf6;" horiz-adv-x="537" 
d="M33 250q0 126 62 195t174 69q116 0 175.5 -71t59.5 -193q0 -126 -61.5 -195t-173.5 -69q-116 0 -176 71t-60 193zM167 250q0 -70 25 -112t77 -42q101 0 101 154t-101 154q-102 0 -102 -154zM88 651q0 32 19.5 51t51.5 19q31 0 50 -19t19 -51q0 -30 -19 -49t-50 -19
q-32 0 -51.5 19t-19.5 49zM307 651q0 32 19 51t50 19q32 0 51.5 -19.5t19.5 -50.5q0 -30 -20 -49t-51 -19t-50 19t-19 49z" />
    <glyph glyph-name="divide" unicode="&#xf7;" horiz-adv-x="527" 
d="M43 282v112h442v-112h-442zM183 532q0 35 22 55.5t58 20.5q38 0 60 -20.5t22 -55.5t-22 -56t-60 -21q-36 0 -58 21t-22 56zM183 145q0 35 22 55.5t58 20.5q38 0 60 -20.5t22 -55.5t-22 -56t-60 -21q-36 0 -58 21t-22 56z" />
    <glyph glyph-name="oslash" unicode="&#xf8;" horiz-adv-x="536" 
d="M33 250q0 126 61.5 195t173.5 69q60 0 109 -22l24 34l80 -59l-27 -38q49 -67 49 -179q0 -126 -61.5 -195t-173.5 -69q-64 0 -115 24l-25 -34l-83 60l31 43q-43 65 -43 171zM369 250q0 37 -8 71l-149 -207q22 -18 56 -18q101 0 101 154zM167 250q0 -35 6 -65l147 204
q-21 15 -52 15q-101 0 -101 -154z" />
    <glyph glyph-name="ugrave" unicode="&#xf9;" horiz-adv-x="538" 
d="M52 500h130v-284q0 -62 15.5 -88.5t55.5 -26.5q70 0 98 76v323h130v-348q0 -89 16 -152h-98l-23 74h-4q-24 -39 -66 -63.5t-95 -24.5q-81 0 -120 45.5t-39 157.5v311zM258 720l60 -154h-72l-124 124v30h136z" />
    <glyph glyph-name="uacute" unicode="&#xfa;" horiz-adv-x="538" 
d="M52 500h130v-284q0 -62 15.5 -88.5t55.5 -26.5q70 0 98 76v323h130v-348q0 -89 16 -152h-98l-23 74h-4q-24 -39 -66 -63.5t-95 -24.5q-81 0 -120 45.5t-39 157.5v311zM208 566l53 154h132v-30l-111 -124h-74z" />
    <glyph glyph-name="ucircumflex" unicode="&#xfb;" horiz-adv-x="538" 
d="M52 500h130v-284q0 -62 15.5 -88.5t55.5 -26.5q70 0 98 76v323h130v-348q0 -89 16 -152h-98l-23 74h-4q-24 -39 -66 -63.5t-95 -24.5q-81 0 -120 45.5t-39 157.5v311zM109 550l123 182h86l111 -182h-103l-39 66l-17 49l-17 -49l-45 -66h-99z" />
    <glyph glyph-name="udieresis" unicode="&#xfc;" horiz-adv-x="538" 
d="M52 500h130v-284q0 -62 15.5 -88.5t55.5 -26.5q70 0 98 76v323h130v-348q0 -89 16 -152h-98l-23 74h-4q-24 -39 -66 -63.5t-95 -24.5q-81 0 -120 45.5t-39 157.5v311zM88 651q0 32 19.5 51t51.5 19q31 0 50 -19t19 -51q0 -30 -19 -49t-50 -19q-32 0 -51.5 19t-19.5 49z
M307 651q0 32 19 51t50 19q32 0 51.5 -19.5t19.5 -50.5q0 -30 -20 -49t-51 -19t-50 19t-19 49z" />
    <glyph glyph-name="yacute" unicode="&#xfd;" horiz-adv-x="478" 
d="M147 500l92 -281l18 -78h6l13 79l76 280h134l-152 -451q-18 -54 -29.5 -85t-29 -68t-34 -56t-39.5 -32t-50 -13q-52 0 -83 17l24 104q15 -6 30 -6q57 0 77 90l-209 500h156zM201 566l53 154h132v-30l-111 -124h-74z" />
    <glyph glyph-name="thorn" unicode="&#xfe;" horiz-adv-x="540" 
d="M57 -200v900h130v-243h4q47 57 128 57q94 0 141 -61t47 -190q0 -130 -60 -203.5t-169 -73.5q-53 0 -91 19v-205h-130zM280 404q-69 0 -93 -76v-208q30 -24 74 -24q56 0 84 40.5t28 129.5q0 138 -93 138z" />
    <glyph glyph-name="ydieresis" unicode="&#xff;" horiz-adv-x="478" 
d="M147 500l92 -281l18 -78h6l13 79l76 280h134l-152 -451q-18 -54 -29.5 -85t-29 -68t-34 -56t-39.5 -32t-50 -13q-52 0 -83 17l24 104q15 -6 30 -6q57 0 77 90l-209 500h156zM66 651q0 32 19.5 51t51.5 19q31 0 50 -19t19 -51q0 -30 -19 -49t-50 -19q-32 0 -51.5 19
t-19.5 49zM285 651q0 32 19 51t50 19q32 0 51.5 -19.5t19.5 -50.5q0 -30 -20 -49t-51 -19t-50 19t-19 49z" />
    <glyph glyph-name="Amacron" unicode="&#x100;" horiz-adv-x="605" 
d="M461 0l-56 155h-215l-53 -155h-137l252 705h101l252 -705h-144zM276 420l-51 -155h150l-52 156l-21 110h-5zM129 767v89h343v-89h-343z" />
    <glyph glyph-name="amacron" unicode="&#x101;" horiz-adv-x="496" 
d="M85 374l-31 97q86 39 210 39q99 0 139.5 -44.5t40.5 -130.5q0 -34 -3.5 -100.5t-3.5 -98.5q0 -83 18 -137h-106l-21 69h-5q-50 -76 -147 -76q-69 0 -111 40.5t-42 105.5q0 161 253 161q25 0 38 -1q2 13 2 34q0 38 -17.5 54.5t-59.5 16.5q-91 0 -154 -29zM219 99
q67 0 96 55v65q-26 2 -38 2q-120 0 -120 -63q0 -28 16.5 -43.5t45.5 -15.5zM91 566v92h323v-92h-323z" />
    <glyph glyph-name="Abreve" unicode="&#x102;" horiz-adv-x="605" 
d="M461 0l-56 155h-215l-53 -155h-137l252 705h101l252 -705h-144zM276 420l-51 -155h150l-52 156l-21 110h-5zM112 838l52 37q42 -54 143 -54q93 0 137 54l49 -32q-22 -55 -74 -84t-113 -29q-60 0 -114 26.5t-80 81.5z" />
    <glyph glyph-name="abreve" unicode="&#x103;" horiz-adv-x="496" 
d="M85 374l-31 97q86 39 210 39q99 0 139.5 -44.5t40.5 -130.5q0 -34 -3.5 -100.5t-3.5 -98.5q0 -83 18 -137h-106l-21 69h-5q-50 -76 -147 -76q-69 0 -111 40.5t-42 105.5q0 161 253 161q25 0 38 -1q2 13 2 34q0 38 -17.5 54.5t-59.5 16.5q-91 0 -154 -29zM219 99
q67 0 96 55v65q-26 2 -38 2q-120 0 -120 -63q0 -28 16.5 -43.5t45.5 -15.5zM80 688l63 32q34 -59 112 -59q76 0 106 59l60 -27q-5 -51 -52.5 -90t-114.5 -39q-66 0 -113 33.5t-61 90.5z" />
    <glyph glyph-name="Aogonek" unicode="&#x104;" horiz-adv-x="605" 
d="M461 0l-56 155h-215l-53 -155h-137l252 705h101l252 -705h-21q-58 -22 -58 -73q0 -19 11 -31t31 -12q18 0 42 12l19 -62q-17 -13 -49.5 -24t-65.5 -11q-54 0 -84.5 25t-30.5 66q0 73 87 110h-25zM276 420l-51 -155h150l-52 156l-21 110h-5z" />
    <glyph glyph-name="aogonek" unicode="&#x105;" horiz-adv-x="496" 
d="M88 367l-34 94q91 49 210 49q99 0 139.5 -44.5t40.5 -130.5q0 -34 -3.5 -100.5t-3.5 -98.5q0 -83 18 -137h-23q-56 -24 -56 -72q0 -19 11 -31t31 -12q18 0 42 12l19 -62q-17 -13 -49.5 -24t-65.5 -11q-54 0 -84.5 25t-30.5 66q0 78 98 114l-19 64h-5q-50 -76 -147 -76
q-69 0 -111 40.5t-42 105.5q0 161 253 161q25 0 38 -1q2 13 2 34q0 38 -17.5 54.5t-59.5 16.5q-77 0 -151 -36zM219 99q67 0 96 55v65q-26 2 -38 2q-120 0 -120 -63q0 -28 16.5 -43.5t45.5 -15.5z" />
    <glyph glyph-name="Cacute" unicode="&#x106;" horiz-adv-x="559" 
d="M506 140l28 -111q-60 -43 -183 -43q-65 0 -120 20.5t-99 62t-69 113.5t-25 168q0 98 28 171.5t75 114t100.5 59.5t112.5 19q101 0 170 -27l-27 -116q-43 21 -131 21q-86 0 -135 -60.5t-49 -181.5q0 -111 50 -176.5t144 -65.5q78 0 130 32zM272 752l104 118h159v-30
l-160 -88h-103z" />
    <glyph glyph-name="cacute" unicode="&#x107;" horiz-adv-x="433" 
d="M381 130l30 -99q-62 -45 -160 -45q-218 0 -218 264q0 126 57.5 195t165.5 69q88 0 149 -32l-31 -106q-48 23 -97 23q-110 0 -110 -149q0 -67 29.5 -108t87.5 -41q54 0 97 29zM197 566l53 154h132v-30l-111 -124h-74z" />
    <glyph glyph-name="Ccircumflex" unicode="&#x108;" horiz-adv-x="559" 
d="M506 140l28 -111q-60 -43 -183 -43q-65 0 -120 20.5t-99 62t-69 113.5t-25 168q0 98 28 171.5t75 114t100.5 59.5t112.5 19q101 0 170 -27l-27 -116q-43 21 -131 21q-86 0 -135 -60.5t-49 -181.5q0 -111 50 -176.5t144 -65.5q78 0 130 32zM155 778l133 92h96l127 -93v-39
h-99l-57 41l-20 34l-21 -33l-62 -42h-97v40z" />
    <glyph glyph-name="ccircumflex" unicode="&#x109;" horiz-adv-x="433" 
d="M381 130l30 -99q-62 -45 -160 -45q-218 0 -218 264q0 126 57.5 195t165.5 69q88 0 149 -32l-31 -106q-48 23 -97 23q-110 0 -110 -149q0 -67 29.5 -108t87.5 -41q54 0 97 29zM81 550l123 182h86l111 -182h-103l-39 66l-17 49l-17 -49l-45 -66h-99z" />
    <glyph glyph-name="Cdotaccent" unicode="&#x10a;" horiz-adv-x="559" 
d="M506 140l28 -111q-60 -43 -183 -43q-65 0 -120 20.5t-99 62t-69 113.5t-25 168q0 98 28 171.5t75 114t100.5 59.5t112.5 19q101 0 170 -27l-27 -116q-43 21 -131 21q-86 0 -135 -60.5t-49 -181.5q0 -111 50 -176.5t144 -65.5q78 0 130 32zM253 799q0 26 22.5 43t63.5 17
t65 -17t24 -43q0 -27 -23.5 -44.5t-65.5 -17.5q-41 0 -63.5 17.5t-22.5 44.5z" />
    <glyph glyph-name="cdotaccent" unicode="&#x10b;" horiz-adv-x="433" 
d="M381 130l30 -99q-62 -45 -160 -45q-218 0 -218 264q0 126 57.5 195t165.5 69q88 0 149 -32l-31 -106q-48 23 -97 23q-110 0 -110 -149q0 -67 29.5 -108t87.5 -41q54 0 97 29zM166 641q0 30 22 50t59 20q38 0 61.5 -20t23.5 -50t-23.5 -49t-61.5 -19q-37 0 -59 19t-22 49z
" />
    <glyph glyph-name="Ccaron" unicode="&#x10c;" horiz-adv-x="559" 
d="M506 140l28 -111q-60 -43 -183 -43q-65 0 -120 20.5t-99 62t-69 113.5t-25 168q0 98 28 171.5t75 114t100.5 59.5t112.5 19q101 0 170 -27l-27 -116q-43 21 -131 21q-86 0 -135 -60.5t-49 -181.5q0 -111 50 -176.5t144 -65.5q78 0 130 32zM519 830l-133 -93h-94l-127 94
v39h105l53 -45l19 -30l21 29l56 46h100v-40z" />
    <glyph glyph-name="ccaron" unicode="&#x10d;" horiz-adv-x="433" 
d="M381 130l30 -99q-62 -45 -160 -45q-218 0 -218 264q0 126 57.5 195t165.5 69q88 0 149 -32l-31 -106q-48 23 -97 23q-110 0 -110 -149q0 -67 29.5 -108t87.5 -41q54 0 97 29zM409 732l-123 -182h-91l-115 182h110l39 -66l16 -49l18 49l45 66h101z" />
    <glyph glyph-name="Dcaron" unicode="&#x10e;" horiz-adv-x="647" 
d="M60 -1v701q69 10 204 10q179 0 262 -94.5t83 -259.5q0 -74 -18.5 -137t-58.5 -116t-112 -83.5t-169 -30.5q-119 0 -191 10zM275 588q-58 0 -78 -4v-469q22 -4 70 -4q198 0 198 245q0 45 -8.5 83t-28.5 73t-59 55.5t-94 20.5zM461 830l-133 -93h-94l-127 94v39h105l53 -45
l19 -30l21 29l56 46h100v-40z" />
    <glyph glyph-name="dcaron" unicode="&#x10f;" horiz-adv-x="639" 
d="M482 700v-524q0 -110 10 -177h-93l-18 65h-4q-45 -78 -146 -78q-198 0 -198 256q0 128 59 199t169 71q52 0 91 -15v203h130zM261 96q72 0 91 72v212q-26 22 -75 22q-56 0 -83 -38t-27 -126q0 -66 23.5 -104t70.5 -38zM541 700h114q-3 -54 -33.5 -117t-57.5 -87l-58 31
q35 73 35 173z" />
    <glyph glyph-name="Dcroat" unicode="&#x110;" horiz-adv-x="669" 
d="M-6 321v80h88v299q69 10 204 10q179 0 262 -94.5t83 -259.5q0 -74 -18.5 -137t-58.5 -116t-112 -83.5t-169 -30.5q-119 0 -191 10v322h-88zM219 584v-183h140v-80h-140v-207q16 -3 70 -3q198 0 198 245q0 45 -8.5 83t-28.5 73t-59 55.5t-94 20.5q-58 0 -78 -4z" />
    <glyph glyph-name="dcroat" unicode="&#x111;" horiz-adv-x="550" 
d="M482 700v-59h76v-80h-76v-385q0 -110 10 -177h-93l-18 65h-4q-45 -78 -146 -78q-198 0 -198 256q0 128 59 199t169 71q52 0 91 -15v64h-148v80h148v59h130zM261 96q72 0 91 72v212q-26 22 -75 22q-56 0 -83 -38t-27 -126q0 -66 23.5 -104t70.5 -38z" />
    <glyph glyph-name="Emacron" unicode="&#x112;" horiz-adv-x="522" 
d="M60 0v700h415v-122h-278v-163h253v-122h-253v-171h283v-122h-420zM95 767v89h343v-89h-343z" />
    <glyph glyph-name="emacron" unicode="&#x113;" horiz-adv-x="508" 
d="M414 128l43 -85q-31 -25 -83 -41t-108 -16q-118 0 -175.5 68.5t-57.5 195.5q0 130 62.5 197t177.5 67q86 0 143 -47.5t57 -154.5q0 -45 -10 -95h-300q3 -64 33 -95.5t95 -31.5q74 0 123 38zM271 410q-95 0 -105 -112h186q0 2 0.5 8t0.5 8q0 96 -82 96zM97 566v92h323v-92
h-323z" />
    <glyph glyph-name="Ebreve" unicode="&#x114;" horiz-adv-x="522" 
d="M60 0v700h415v-122h-278v-163h253v-122h-253v-171h283v-122h-420zM86 838l52 37q42 -54 143 -54q93 0 137 54l49 -32q-22 -55 -74 -84t-113 -29q-60 0 -114 26.5t-80 81.5z" />
    <glyph glyph-name="ebreve" unicode="&#x115;" horiz-adv-x="508" 
d="M414 128l43 -85q-31 -25 -83 -41t-108 -16q-118 0 -175.5 68.5t-57.5 195.5q0 130 62.5 197t177.5 67q86 0 143 -47.5t57 -154.5q0 -45 -10 -95h-300q3 -64 33 -95.5t95 -31.5q74 0 123 38zM271 410q-95 0 -105 -112h186q0 2 0.5 8t0.5 8q0 96 -82 96zM89 688l63 32
q34 -59 112 -59q76 0 106 59l60 -27q-5 -51 -52.5 -90t-114.5 -39q-66 0 -113 33.5t-61 90.5z" />
    <glyph glyph-name="Edotaccent" unicode="&#x116;" horiz-adv-x="522" 
d="M60 0v700h415v-122h-278v-163h253v-122h-253v-171h283v-122h-420zM191 799q0 26 22.5 43t63.5 17t65 -17t24 -43q0 -27 -23.5 -44.5t-65.5 -17.5q-41 0 -63.5 17.5t-22.5 44.5z" />
    <glyph glyph-name="edotaccent" unicode="&#x117;" horiz-adv-x="508" 
d="M414 128l43 -85q-31 -25 -83 -41t-108 -16q-118 0 -175.5 68.5t-57.5 195.5q0 130 62.5 197t177.5 67q86 0 143 -47.5t57 -154.5q0 -45 -10 -95h-300q3 -64 33 -95.5t95 -31.5q74 0 123 38zM271 410q-95 0 -105 -112h186q0 2 0.5 8t0.5 8q0 96 -82 96zM186 641
q0 30 22 50t59 20q38 0 61.5 -20t23.5 -50t-23.5 -49t-61.5 -19q-37 0 -59 19t-22 49z" />
    <glyph glyph-name="Eogonek" unicode="&#x118;" horiz-adv-x="522" 
d="M60 0v700h415v-122h-278v-163h253v-122h-253v-171h283v-122h-27q-58 -22 -58 -73q0 -19 11 -31t31 -12q18 0 42 12l19 -62q-17 -13 -49.5 -24t-65.5 -11q-54 0 -84.5 25t-30.5 66q0 73 87 110h-295z" />
    <glyph glyph-name="eogonek" unicode="&#x119;" horiz-adv-x="508" 
d="M414 128l43 -85q-25 -20 -62 -34q-54 -31 -52 -78q1 -19 12.5 -32.5t32.5 -13.5q18 0 39 11l19 -62q-17 -13 -49.5 -24.5t-64.5 -11.5q-55 0 -85.5 27t-30.5 69q0 55 47 92q-116 1 -173 69.5t-57 194.5q0 130 62.5 197t177.5 67q86 0 143 -47.5t57 -154.5q0 -45 -10 -95
h-300q3 -64 33 -95.5t95 -31.5q74 0 123 38zM271 410q-95 0 -105 -112h186q4 54 -17 83t-64 29z" />
    <glyph glyph-name="Ecaron" unicode="&#x11a;" horiz-adv-x="522" 
d="M60 0v700h415v-122h-278v-163h253v-122h-253v-171h283v-122h-420zM441 830l-133 -93h-94l-127 94v39h105l53 -45l19 -30l21 29l56 46h100v-40z" />
    <glyph glyph-name="ecaron" unicode="&#x11b;" horiz-adv-x="508" 
d="M414 128l43 -85q-31 -25 -83 -41t-108 -16q-118 0 -175.5 68.5t-57.5 195.5q0 130 62.5 197t177.5 67q86 0 143 -47.5t57 -154.5q0 -45 -10 -95h-300q3 -64 33 -95.5t95 -31.5q74 0 123 38zM271 410q-95 0 -105 -112h186q0 2 0.5 8t0.5 8q0 96 -82 96zM427 732l-123 -182
h-91l-115 182h110l39 -66l16 -49l18 49l45 66h101z" />
    <glyph glyph-name="Gcircumflex" unicode="&#x11c;" horiz-adv-x="609" 
d="M307 282v83h261v-312q-80 -67 -216 -67q-142 0 -228 91t-86 273q0 95 28 168t75.5 114t104 61.5t118.5 20.5q100 0 178 -28l-28 -115q-53 21 -135 21q-91 0 -144 -58.5t-53 -184.5q0 -120 51 -180.5t132 -60.5q58 0 93 26v132zM170 778l133 92h96l127 -93v-39h-99l-57 41
l-20 34l-21 -33l-62 -42h-97v40z" />
    <glyph glyph-name="gcircumflex" unicode="&#x11d;" horiz-adv-x="536" 
d="M480 482v-482q0 -107 -58 -159.5t-166 -52.5q-118 0 -176 31l27 103q70 -27 129 -27q65 0 91 27.5t26 84.5v32h-4q-35 -47 -124 -47q-192 0 -192 248q0 133 64 202.5t186 69.5q116 0 197 -30zM260 96q69 0 90 68v225q-31 13 -77 13q-106 0 -106 -157q0 -73 24 -111
t69 -38zM115 550l123 182h86l111 -182h-103l-39 66l-17 49l-17 -49l-45 -66h-99z" />
    <glyph glyph-name="Gbreve" unicode="&#x11e;" horiz-adv-x="609" 
d="M307 282v83h261v-312q-80 -67 -216 -67q-142 0 -228 91t-86 273q0 95 28 168t75.5 114t104 61.5t118.5 20.5q100 0 178 -28l-28 -115q-53 21 -135 21q-91 0 -144 -58.5t-53 -184.5q0 -120 51 -180.5t132 -60.5q58 0 93 26v132zM144 838l52 37q42 -54 143 -54q93 0 137 54
l49 -32q-22 -55 -74 -84t-113 -29q-60 0 -114 26.5t-80 81.5z" />
    <glyph glyph-name="gbreve" unicode="&#x11f;" horiz-adv-x="536" 
d="M480 482v-482q0 -107 -58 -159.5t-166 -52.5q-118 0 -176 31l27 103q70 -27 129 -27q65 0 91 27.5t26 84.5v32h-4q-35 -47 -124 -47q-192 0 -192 248q0 133 64 202.5t186 69.5q116 0 197 -30zM260 96q69 0 90 68v225q-31 13 -77 13q-106 0 -106 -157q0 -73 24 -111
t69 -38zM95 688l63 32q34 -59 112 -59q76 0 106 59l60 -27q-5 -51 -52.5 -90t-114.5 -39q-66 0 -113 33.5t-61 90.5z" />
    <glyph glyph-name="Gdotaccent" unicode="&#x120;" horiz-adv-x="609" 
d="M307 282v83h261v-312q-80 -67 -216 -67q-142 0 -228 91t-86 273q0 95 28 168t75.5 114t104 61.5t118.5 20.5q100 0 178 -28l-28 -115q-53 21 -135 21q-91 0 -144 -58.5t-53 -184.5q0 -120 51 -180.5t132 -60.5q58 0 93 26v132zM274 799q0 26 22.5 43t63.5 17t65 -17
t24 -43q0 -27 -23.5 -44.5t-65.5 -17.5q-41 0 -63.5 17.5t-22.5 44.5z" />
    <glyph glyph-name="gdotaccent" unicode="&#x121;" horiz-adv-x="536" 
d="M480 482v-482q0 -107 -58 -159.5t-166 -52.5q-118 0 -176 31l27 103q70 -27 129 -27q65 0 91 27.5t26 84.5v32h-4q-35 -47 -124 -47q-192 0 -192 248q0 133 64 202.5t186 69.5q116 0 197 -30zM260 96q69 0 90 68v225q-31 13 -77 13q-106 0 -106 -157q0 -73 24 -111
t69 -38zM194 641q0 30 22 50t59 20q38 0 61.5 -20t23.5 -50t-23.5 -49t-61.5 -19q-37 0 -59 19t-22 49z" />
    <glyph glyph-name="Gcommaaccent" unicode="&#x122;" horiz-adv-x="609" 
d="M307 282v83h261v-312q-80 -67 -216 -67q-142 0 -228 91t-86 273q0 95 28 168t75.5 114t104 61.5t118.5 20.5q100 0 178 -28l-28 -115q-53 21 -135 21q-91 0 -144 -58.5t-53 -184.5q0 -120 51 -180.5t132 -60.5q58 0 93 26v132zM278 -105q0 28 19 45.5t49 17.5
q35 0 57 -23.5t22 -64.5q0 -59 -33 -94.5t-70 -48.5l-34 54q40 19 44 53q-21 -1 -37.5 15.5t-16.5 45.5z" />
    <glyph glyph-name="gcommaaccent" unicode="&#x123;" horiz-adv-x="536" 
d="M480 482v-482q0 -107 -58 -159.5t-166 -52.5q-118 0 -176 31l27 103q70 -27 129 -27q65 0 91 27.5t26 84.5v32h-4q-35 -47 -124 -47q-192 0 -192 248q0 133 64 202.5t186 69.5q116 0 197 -30zM260 96q69 0 90 68v225q-31 13 -77 13q-106 0 -106 -157q0 -73 24 -111
t69 -38zM359 614q0 -28 -19 -45.5t-49 -17.5q-35 0 -57 23.5t-22 64.5q0 59 33 94.5t70 48.5l34 -54q-40 -19 -44 -53q21 1 37.5 -15.5t16.5 -45.5z" />
    <glyph glyph-name="Hcircumflex" unicode="&#x124;" horiz-adv-x="651" 
d="M453 0v293h-256v-293h-137v700h137v-285h256v285h137v-700h-137zM145 778l133 92h96l127 -93v-39h-99l-57 41l-20 34l-21 -33l-62 -42h-97v40z" />
    <glyph glyph-name="hcircumflex" unicode="&#x125;" horiz-adv-x="545" 
d="M493 0h-130v284q0 62 -17.5 88.5t-61.5 26.5q-33 0 -60.5 -22.5t-36.5 -57.5v-319h-130v700h130v-256h4q53 70 148 70q80 0 117 -45t37 -158v-311zM-46 778l133 92h96l127 -93v-39h-99l-57 41l-20 34l-21 -33l-62 -42h-97v40z" />
    <glyph glyph-name="Hbar" unicode="&#x126;" horiz-adv-x="683" 
d="M2 516v82h75v102h137v-102h256v102h137v-102h74v-82h-74v-516h-137v293h-256v-293h-137v516h-75zM214 415h256v101h-256v-101z" />
    <glyph glyph-name="hbar" unicode="&#x127;" horiz-adv-x="556" 
d="M-6 561v80h74v59h130v-59h161v-80h-161v-117h4q53 70 148 70q80 0 117 -45t37 -158v-311h-130v284q0 62 -17.5 88.5t-61.5 26.5q-33 0 -60.5 -22.5t-36.5 -57.5v-319h-130v561h-74z" />
    <glyph glyph-name="Itilde" unicode="&#x128;" horiz-adv-x="285" 
d="M74 0v700h137v-700h-137zM-21 737l-24 63q55 61 120 61q31 0 86.5 -17.5t78.5 -17.5q35 0 60 24l25 -67q-50 -47 -106 -47q-31 0 -85.5 18t-79.5 18q-41 0 -75 -35z" />
    <glyph glyph-name="itilde" unicode="&#x129;" horiz-adv-x="269" 
d="M70 0v500h130v-500h-130zM-13 593l-19 65q54 65 108 65q28 0 75 -22t70 -22q31 0 59 27l20 -70q-49 -56 -101 -56q-28 0 -76.5 21t-71.5 21q-34 0 -64 -29z" />
    <glyph glyph-name="Imacron" unicode="&#x12a;" horiz-adv-x="285" 
d="M74 0v700h137v-700h-137zM-26 767v89h343v-89h-343z" />
    <glyph glyph-name="imacron" unicode="&#x12b;" horiz-adv-x="269" 
d="M70 0v500h130v-500h-130zM-28 566v92h323v-92h-323z" />
    <glyph glyph-name="Ibreve" unicode="&#x12c;" horiz-adv-x="285" 
d="M74 0v700h137v-700h-137zM-46 838l52 37q42 -54 143 -54q93 0 137 54l49 -32q-22 -55 -74 -84t-113 -29q-60 0 -114 26.5t-80 81.5z" />
    <glyph glyph-name="ibreve" unicode="&#x12d;" horiz-adv-x="269" 
d="M70 0v500h130v-500h-130zM-37 688l63 32q34 -59 112 -59q76 0 106 59l60 -27q-5 -51 -52.5 -90t-114.5 -39q-66 0 -113 33.5t-61 90.5z" />
    <glyph glyph-name="Iogonek" unicode="&#x12e;" horiz-adv-x="285" 
d="M74 0v700h137v-700h-14q-49 -26 -48 -73q0 -19 11 -31t31 -12q17 0 41 12l20 -62q-17 -13 -50 -24.5t-65 -11.5q-55 0 -85 25t-30 67q0 73 87 110h-35z" />
    <glyph glyph-name="iogonek" unicode="&#x12f;" horiz-adv-x="270" 
d="M70 0v500h130v-500h-13q-48 -31 -47 -73q1 -19 12 -31t31 -12q17 0 41 12l19 -62q-17 -13 -49.5 -24.5t-64.5 -11.5q-55 0 -85.5 25t-30.5 67q0 73 87 110h-30zM51 641q0 30 22 50t59 20q38 0 61.5 -20t23.5 -50t-23.5 -49t-61.5 -19q-37 0 -59 19t-22 49z" />
    <glyph glyph-name="Idotaccent" unicode="&#x130;" horiz-adv-x="285" 
d="M74 0v700h137v-700h-137zM56 799q0 26 22.5 43t63.5 17t65 -17t24 -43q0 -27 -23.5 -44.5t-65.5 -17.5q-41 0 -63.5 17.5t-22.5 44.5z" />
    <glyph glyph-name="dotlessi" unicode="&#x131;" horiz-adv-x="269" 
d="M70 0v500h130v-500h-130z" />
    <glyph glyph-name="Jcircumflex" unicode="&#x134;" horiz-adv-x="334" 
d="M131 223v477h137v-512q0 -87 -41 -143.5t-128 -56.5q-71 0 -122 23l30 112q26 -13 59 -13q39 0 52 28t13 85zM20 778l133 92h96l127 -93v-39h-99l-57 41l-20 34l-21 -33l-62 -42h-97v40z" />
    <glyph glyph-name="jcircumflex" unicode="&#x135;" horiz-adv-x="268" 
d="M69 16v484h130v-521q0 -187 -151 -187q-30 0 -64 7v109q3 0 7 -0.5t6 -0.5q42 0 57 26.5t15 82.5zM-27 550l123 182h86l111 -182h-103l-39 66l-17 49l-17 -49l-45 -66h-99z" />
    <glyph glyph-name="Kcommaaccent" unicode="&#x136;" horiz-adv-x="620" 
d="M440 0l-207 299h-36v-299h-137v700h137v-310l32 14l193 296h156l-204 -294l-54 -38l56 -39l233 -329h-169zM221 -105q0 28 19 45.5t49 17.5q35 0 57 -23.5t22 -64.5q0 -59 -33 -94.5t-70 -48.5l-34 54q40 19 44 53q-21 -1 -37.5 15.5t-16.5 45.5z" />
    <glyph glyph-name="kcommaaccent" unicode="&#x137;" horiz-adv-x="491" 
d="M344 0l-122 207h-35v-207h-130v700h130v-413l30 14l114 199h143l-120 -190l-51 -38l55 -39l135 -233h-149zM179 -105q0 28 19 45.5t49 17.5q35 0 57 -23.5t22 -64.5q0 -59 -33 -94.5t-70 -48.5l-34 54q40 19 44 53q-21 -1 -37.5 15.5t-16.5 45.5z" />
    <glyph glyph-name="kgreenlandic" unicode="&#x138;" horiz-adv-x="489" 
d="M344 0l-122 207h-35v-207h-130v500h130v-213l31 14l117 199h139l-121 -190l-51 -38l56 -39l135 -233h-149z" />
    <glyph glyph-name="Lacute" unicode="&#x139;" horiz-adv-x="514" 
d="M503 122v-122h-443v700h137v-578h306zM104 752l104 118h159v-30l-160 -88h-103z" />
    <glyph glyph-name="lacute" unicode="&#x13a;" horiz-adv-x="294" 
d="M191 700v-532q0 -67 38 -67q25 0 52 11l14 -102q-50 -24 -117 -24q-117 0 -117 114v600h130zM70 752l104 118h159v-30l-160 -88h-103z" />
    <glyph glyph-name="Lcommaaccent" unicode="&#x13b;" horiz-adv-x="514" 
d="M503 122v-122h-443v700h137v-578h306zM181 -105q0 28 19 45.5t49 17.5q35 0 57 -23.5t22 -64.5q0 -59 -33 -94.5t-70 -48.5l-34 54q40 19 44 53q-21 -1 -37.5 15.5t-16.5 45.5z" />
    <glyph glyph-name="lcommaaccent" unicode="&#x13c;" horiz-adv-x="294" 
d="M191 700v-532q0 -67 38 -67q25 0 52 11l14 -102q-50 -24 -117 -24q-117 0 -117 114v600h130zM95 -105q0 28 19 45.5t49 17.5q35 0 57 -23.5t22 -64.5q0 -59 -33 -94.5t-70 -48.5l-34 54q40 19 44 53q-21 -1 -37.5 15.5t-16.5 45.5z" />
    <glyph glyph-name="Lcaron" unicode="&#x13d;" horiz-adv-x="514" 
d="M503 122v-122h-443v700h137v-578h306zM349 700h114q-3 -54 -33.5 -117t-57.5 -87l-58 31q35 73 35 173z" />
    <glyph glyph-name="lcaron" unicode="&#x13e;" horiz-adv-x="294" 
d="M191 700v-532q0 -67 38 -67q25 0 52 11l14 -102q-50 -24 -117 -24q-117 0 -117 114v600h130zM252 700h114q-3 -54 -33.5 -117t-57.5 -87l-58 31q35 73 35 173z" />
    <glyph glyph-name="Ldot" unicode="&#x13f;" horiz-adv-x="514" 
d="M304 397q0 32 20 54t56 22q37 0 58 -22t21 -54q0 -31 -21 -52t-58 -21q-36 0 -56 21t-20 52zM503 122v-122h-443v700h137v-578h306z" />
    <glyph glyph-name="ldot" unicode="&#x140;" horiz-adv-x="369" 
d="M238 371q0 32 18 54t52 22q35 0 54.5 -22.5t19.5 -53.5t-19 -52t-55 -21q-32 0 -51 21t-19 52zM191 700v-532q0 -67 38 -67q25 0 52 11l14 -102q-50 -24 -117 -24q-117 0 -117 114v600h130z" />
    <glyph glyph-name="Lslash" unicode="&#x141;" horiz-adv-x="525" 
d="M3 197v121l68 45v337h137v-245l100 67v-125l-100 -66v-209h306v-122h-443v241z" />
    <glyph glyph-name="lslash" unicode="&#x142;" horiz-adv-x="319" 
d="M6 186v121l79 53v340h130v-253l96 64v-125l-96 -63v-155q0 -67 38 -67q25 0 52 11l14 -102q-50 -24 -117 -24q-117 0 -117 114v138z" />
    <glyph glyph-name="Nacute" unicode="&#x143;" horiz-adv-x="657" 
d="M497 -5l-263 370l-55 110h-5l16 -110v-365h-130v705h100l265 -373l53 -107h5l-16 107v368h130v-705h-100zM262 752l104 118h159v-30l-160 -88h-103z" />
    <glyph glyph-name="nacute" unicode="&#x144;" horiz-adv-x="545" 
d="M493 0h-130v284q0 61 -18 88t-59 27q-36 0 -62 -21t-37 -54v-324h-130v500h103l15 -66h4q56 80 159 80q79 0 117 -45.5t38 -157.5v-311zM224 566l53 154h132v-30l-111 -124h-74z" />
    <glyph glyph-name="Ncommaaccent" unicode="&#x145;" horiz-adv-x="657" 
d="M497 -5l-263 370l-55 110h-5l16 -110v-365h-130v705h100l265 -373l53 -107h5l-16 107v368h130v-705h-100zM254 -105q0 28 19 45.5t49 17.5q35 0 57 -23.5t22 -64.5q0 -59 -33 -94.5t-70 -48.5l-34 54q40 19 44 53q-21 -1 -37.5 15.5t-16.5 45.5z" />
    <glyph glyph-name="ncommaaccent" unicode="&#x146;" horiz-adv-x="545" 
d="M493 0h-130v284q0 61 -18 88t-59 27q-36 0 -62 -21t-37 -54v-324h-130v500h103l15 -66h4q56 80 159 80q79 0 117 -45.5t38 -157.5v-311zM198 -105q0 28 19 45.5t49 17.5q35 0 57 -23.5t22 -64.5q0 -59 -33 -94.5t-70 -48.5l-34 54q40 19 44 53q-21 -1 -37.5 15.5
t-16.5 45.5z" />
    <glyph glyph-name="Ncaron" unicode="&#x147;" horiz-adv-x="657" 
d="M497 -5l-263 370l-55 110h-5l16 -110v-365h-130v705h100l265 -373l53 -107h5l-16 107v368h130v-705h-100zM510 830l-133 -93h-94l-127 94v39h105l53 -45l19 -30l21 29l56 46h100v-40z" />
    <glyph glyph-name="ncaron" unicode="&#x148;" horiz-adv-x="545" 
d="M493 0h-130v284q0 61 -18 88t-59 27q-36 0 -62 -21t-37 -54v-324h-130v500h103l15 -66h4q56 80 159 80q79 0 117 -45.5t38 -157.5v-311zM441 732l-123 -182h-91l-115 182h110l39 -66l16 -49l18 49l45 66h101z" />
    <glyph glyph-name="napostrophe" unicode="&#x149;" horiz-adv-x="605" 
d="M557 0h-130v284q0 61 -18 88t-59 27q-36 0 -62 -21t-37 -54v-324h-130v500h103l15 -66h4q56 80 159 80q79 0 117 -45.5t38 -157.5v-311zM-29 644q0 29 19.5 47t49.5 18q36 0 57 -24t21 -63q0 -37 -12 -67t-31.5 -48t-35.5 -28t-33 -16l-33 55q49 22 53 62
q-22 -1 -38.5 16.5t-16.5 47.5z" />
    <glyph glyph-name="Eng" unicode="&#x14a;" horiz-adv-x="657" 
d="M467 0v36l-233 329l-55 110h-5l16 -110v-365h-130v705h100l265 -373l53 -107h5l-16 107v368h130v-721q0 -187 -151 -187q-30 0 -64 7v109q2 0 7 -0.5t8 -0.5q41 0 55.5 22.5t14.5 70.5z" />
    <glyph glyph-name="eng" unicode="&#x14b;" horiz-adv-x="541" 
d="M363 2v282q0 61 -18 88t-59 27q-36 0 -62 -21t-37 -54v-324h-130v500h103l15 -66h4q56 80 159 80q79 0 117 -45.5t38 -157.5v-332q0 -187 -151 -187q-30 0 -64 7v109q2 0 7 -0.5t8 -0.5q41 0 55.5 23.5t14.5 71.5z" />
    <glyph glyph-name="Omacron" unicode="&#x14c;" horiz-adv-x="670" 
d="M38 350q0 174 77.5 269t219.5 95q147 0 222 -97.5t75 -266.5q0 -174 -78 -269t-219 -95q-148 0 -222.5 97.5t-74.5 266.5zM182 350q0 -111 38 -176.5t115 -65.5q153 0 153 242q0 110 -37 176t-116 66q-153 0 -153 -242zM167 767v89h343v-89h-343z" />
    <glyph glyph-name="omacron" unicode="&#x14d;" horiz-adv-x="537" 
d="M33 250q0 126 62 195t174 69q116 0 175.5 -71t59.5 -193q0 -126 -61.5 -195t-173.5 -69q-116 0 -176 71t-60 193zM167 250q0 -70 25 -112t77 -42q101 0 101 154t-101 154q-102 0 -102 -154zM107 566v92h323v-92h-323z" />
    <glyph glyph-name="Obreve" unicode="&#x14e;" horiz-adv-x="670" 
d="M38 350q0 174 77.5 269t219.5 95q147 0 222 -97.5t75 -266.5q0 -174 -78 -269t-219 -95q-148 0 -222.5 97.5t-74.5 266.5zM182 350q0 -111 38 -176.5t115 -65.5q153 0 153 242q0 110 -37 176t-116 66q-153 0 -153 -242zM145 838l52 37q42 -54 143 -54q93 0 137 54l49 -32
q-22 -55 -74 -84t-113 -29q-60 0 -114 26.5t-80 81.5z" />
    <glyph glyph-name="obreve" unicode="&#x14f;" horiz-adv-x="537" 
d="M33 250q0 126 62 195t174 69q116 0 175.5 -71t59.5 -193q0 -126 -61.5 -195t-173.5 -69q-116 0 -176 71t-60 193zM167 250q0 -70 25 -112t77 -42q101 0 101 154t-101 154q-102 0 -102 -154zM99 688l63 32q34 -59 112 -59q76 0 106 59l60 -27q-5 -51 -52.5 -90t-114.5 -39
q-66 0 -113 33.5t-61 90.5z" />
    <glyph glyph-name="Ohungarumlaut" unicode="&#x150;" horiz-adv-x="670" 
d="M38 350q0 174 77.5 269t219.5 95q147 0 222 -97.5t75 -266.5q0 -174 -78 -269t-219 -95q-148 0 -222.5 97.5t-74.5 266.5zM182 350q0 -111 38 -176.5t115 -65.5q153 0 153 242q0 110 -37 176t-116 66q-153 0 -153 -242zM191 741l59 109h134v-16l-100 -93h-93zM351 741
l97 109h140v-16l-143 -93h-94z" />
    <glyph glyph-name="ohungarumlaut" unicode="&#x151;" horiz-adv-x="537" 
d="M33 250q0 126 62 195t174 69q116 0 175.5 -71t59.5 -193q0 -126 -61.5 -195t-173.5 -69q-116 0 -176 71t-60 193zM167 250q0 -70 25 -112t77 -42q101 0 101 154t-101 154q-102 0 -102 -154zM145 571l35 129h119v-16l-76 -113h-78zM285 571l73 129h126v-16l-118 -113h-81z
" />
    <glyph glyph-name="OE" unicode="&#x152;" horiz-adv-x="915" 
d="M453 127v440q-50 25 -118 25q-153 0 -153 -242q0 -112 39 -177t121 -65q65 0 111 19zM453 0q-39 -14 -118 -14q-148 0 -222.5 97.5t-74.5 266.5q0 174 77.5 269t219.5 95q60 0 118 -14h415v-122h-278v-163h253v-122h-253v-171h283v-122h-420z" />
    <glyph glyph-name="oe" unicode="&#x153;" horiz-adv-x="841" 
d="M167 250q0 -70 25 -112t77 -42q101 0 101 154t-101 154q-102 0 -102 -154zM431 60q-55 -74 -162 -74q-116 0 -176 71t-60 193q0 126 62 195t174 69q107 0 169 -72q57 72 168 72q86 0 143 -47.5t57 -154.5q0 -45 -10 -95h-301q3 -64 33.5 -95.5t95.5 -31.5q74 0 123 38
l43 -85q-31 -25 -83 -41t-108 -16q-111 0 -168 74zM604 410q-95 0 -105 -112h186q0 2 0.5 8t0.5 8q0 96 -82 96z" />
    <glyph glyph-name="Racute" unicode="&#x154;" horiz-adv-x="602" 
d="M60 0v693q86 17 200 17q53 0 97.5 -9t83.5 -30.5t61 -61.5t22 -96q0 -83 -39 -138t-108 -77l49 -31l160 -267h-158l-159 274l-72 13v-287h-137zM270 588q-54 0 -73 -5v-203h58q125 0 125 112q0 45 -28.5 70.5t-81.5 25.5zM188 752l104 118h159v-30l-160 -88h-103z" />
    <glyph glyph-name="racute" unicode="&#x155;" horiz-adv-x="351" 
d="M350 500l-17 -122q-31 11 -56 11q-34 0 -58 -18t-32 -48v-323h-130v500h101l15 -66h4q36 77 114 77q26 0 59 -11zM119 566l53 154h132v-30l-111 -124h-74z" />
    <glyph glyph-name="Rcommaaccent" unicode="&#x156;" horiz-adv-x="602" 
d="M60 0v693q86 17 200 17q53 0 97.5 -9t83.5 -30.5t61 -61.5t22 -96q0 -83 -39 -138t-108 -77l49 -31l160 -267h-158l-159 274l-72 13v-287h-137zM270 588q-54 0 -73 -5v-203h58q125 0 125 112q0 45 -28.5 70.5t-81.5 25.5zM228 -105q0 28 19 45.5t49 17.5q35 0 57 -23.5
t22 -64.5q0 -59 -33 -94.5t-70 -48.5l-34 54q40 19 44 53q-21 -1 -37.5 15.5t-16.5 45.5z" />
    <glyph glyph-name="rcommaaccent" unicode="&#x157;" horiz-adv-x="351" 
d="M350 500l-17 -122q-31 11 -56 11q-34 0 -58 -18t-32 -48v-323h-130v500h101l15 -66h4q36 77 114 77q26 0 59 -11zM85 -105q0 28 19 45.5t49 17.5q35 0 57 -23.5t22 -64.5q0 -59 -33 -94.5t-70 -48.5l-34 54q40 19 44 53q-21 -1 -37.5 15.5t-16.5 45.5z" />
    <glyph glyph-name="Rcaron" unicode="&#x158;" horiz-adv-x="602" 
d="M60 0v693q86 17 200 17q53 0 97.5 -9t83.5 -30.5t61 -61.5t22 -96q0 -83 -39 -138t-108 -77l49 -31l160 -267h-158l-159 274l-72 13v-287h-137zM270 588q-54 0 -73 -5v-203h58q125 0 125 112q0 45 -28.5 70.5t-81.5 25.5zM436 830l-133 -93h-94l-127 94v39h105l53 -45
l19 -30l21 29l56 46h100v-40z" />
    <glyph glyph-name="rcaron" unicode="&#x159;" horiz-adv-x="351" 
d="M350 500l-17 -122q-31 11 -56 11q-34 0 -58 -18t-32 -48v-323h-130v500h101l15 -66h4q36 77 114 77q26 0 59 -11zM361 732l-123 -182h-91l-115 182h110l39 -66l16 -49l18 49l45 66h101z" />
    <glyph glyph-name="Sacute" unicode="&#x15a;" horiz-adv-x="530" 
d="M362 188q0 34 -33 59t-80 44t-93.5 42.5t-79.5 69.5t-33 111q0 99 63.5 149.5t172.5 50.5q131 0 204 -41l-43 -115q-60 37 -161 37q-47 0 -73 -18.5t-26 -51.5t33 -57.5t80 -44t93.5 -44t79.5 -69.5t33 -107q0 -108 -68.5 -162.5t-187.5 -54.5q-136 0 -216 42l44 117
q75 -40 165 -40q126 0 126 83zM198 752l104 118h159v-30l-160 -88h-103z" />
    <glyph glyph-name="sacute" unicode="&#x15b;" horiz-adv-x="422" 
d="M264 138q0 21 -23.5 36t-57 26.5t-67 27.5t-57 50t-23.5 84q0 73 44 112.5t127 39.5q107 0 175 -39l-29 -94q-75 29 -129 29q-58 0 -58 -45q0 -20 23.5 -33.5t57 -24.5t67 -27t57 -49t23.5 -82q0 -77 -49.5 -120t-144.5 -43q-104 0 -175 45l36 97q69 -38 139 -38
q64 0 64 48zM155 566l53 154h132v-30l-111 -124h-74z" />
    <glyph glyph-name="Scircumflex" unicode="&#x15c;" horiz-adv-x="530" 
d="M362 188q0 34 -33 59t-80 44t-93.5 42.5t-79.5 69.5t-33 111q0 99 63.5 149.5t172.5 50.5q131 0 204 -41l-43 -115q-60 37 -161 37q-47 0 -73 -18.5t-26 -51.5t33 -57.5t80 -44t93.5 -44t79.5 -69.5t33 -107q0 -108 -68.5 -162.5t-187.5 -54.5q-136 0 -216 42l44 117
q75 -40 165 -40q126 0 126 83zM97 778l133 92h96l127 -93v-39h-99l-57 41l-20 34l-21 -33l-62 -42h-97v40z" />
    <glyph glyph-name="scircumflex" unicode="&#x15d;" horiz-adv-x="422" 
d="M264 138q0 21 -23.5 36t-57 26.5t-67 27.5t-57 50t-23.5 84q0 73 44 112.5t127 39.5q107 0 175 -39l-29 -94q-75 29 -129 29q-58 0 -58 -45q0 -20 23.5 -33.5t57 -24.5t67 -27t57 -49t23.5 -82q0 -77 -49.5 -120t-144.5 -43q-104 0 -175 45l36 97q69 -38 139 -38
q64 0 64 48zM53 550l123 182h86l111 -182h-103l-39 66l-17 49l-17 -49l-45 -66h-99z" />
    <glyph glyph-name="Scedilla" unicode="&#x15e;" horiz-adv-x="530" 
d="M362 188q0 34 -33 59t-80 44t-93.5 42.5t-79.5 69.5t-33 111q0 99 63.5 149.5t172.5 50.5q131 0 204 -41l-43 -115q-60 37 -161 37q-47 0 -73 -18.5t-26 -51.5t33 -57.5t80 -44t93.5 -44t79.5 -69.5t33 -107q0 -92 -50.5 -145.5t-140.5 -66.5l-18 -34q88 -8 88 -75
q0 -44 -41.5 -68t-106.5 -24q-31 0 -64 6l9 48q9 -1 24 -1q60 0 60 30q0 28 -86 32l48 81q-125 4 -194 42l44 117q75 -40 165 -40q126 0 126 83z" />
    <glyph glyph-name="scedilla" unicode="&#x15f;" horiz-adv-x="422" 
d="M264 138q0 21 -23.5 36t-57 26.5t-67 27.5t-57 50t-23.5 84q0 73 44 112.5t127 39.5q107 0 175 -39l-29 -94q-75 29 -129 29q-58 0 -58 -45q0 -20 23.5 -33.5t57 -24.5t67 -27t57 -49t23.5 -82q0 -65 -35.5 -106t-103.5 -52l-18 -34q88 -8 88 -75q0 -44 -41.5 -68
t-106.5 -24q-31 0 -64 6l9 48q9 -1 24 -1q60 0 60 30q0 28 -86 32l49 83q-90 8 -144 43l36 97q69 -38 139 -38q64 0 64 48z" />
    <glyph glyph-name="Scaron" unicode="&#x160;" horiz-adv-x="530" 
d="M362 188q0 34 -33 59t-80 44t-93.5 42.5t-79.5 69.5t-33 111q0 99 63.5 149.5t172.5 50.5q131 0 204 -41l-43 -115q-60 37 -161 37q-47 0 -73 -18.5t-26 -51.5t33 -57.5t80 -44t93.5 -44t79.5 -69.5t33 -107q0 -108 -68.5 -162.5t-187.5 -54.5q-136 0 -216 42l44 117
q75 -40 165 -40q126 0 126 83zM461 830l-133 -93h-94l-127 94v39h105l53 -45l19 -30l21 29l56 46h100v-40z" />
    <glyph glyph-name="scaron" unicode="&#x161;" horiz-adv-x="422" 
d="M264 138q0 21 -23.5 36t-57 26.5t-67 27.5t-57 50t-23.5 84q0 73 44 112.5t127 39.5q107 0 175 -39l-29 -94q-75 29 -129 29q-58 0 -58 -45q0 -20 23.5 -33.5t57 -24.5t67 -27t57 -49t23.5 -82q0 -77 -49.5 -120t-144.5 -43q-104 0 -175 45l36 97q69 -38 139 -38
q64 0 64 48zM375 732l-123 -182h-91l-115 182h110l39 -66l16 -49l18 49l45 66h101z" />
    <glyph glyph-name="Tcedilla" unicode="&#x162;" horiz-adv-x="568" 
d="M242 0h-26v578h-205v122h546v-122h-204v-578h-27l-24 -43q88 -8 88 -75q0 -44 -41.5 -68t-106.5 -24q-31 0 -64 6l9 48q9 -1 24 -1q60 0 60 30q0 28 -86 32z" />
    <glyph glyph-name="tcedilla" unicode="&#x163;" horiz-adv-x="349" 
d="M5 390v110h69v94l130 37v-131h122v-110h-122v-192q0 -53 10.5 -75.5t39.5 -22.5q32 0 67 16l23 -99q-34 -16 -89 -26l-18 -34q88 -8 88 -75q0 -44 -41.5 -68t-106.5 -24q-31 0 -64 6l9 48q9 -1 24 -1q60 0 60 30q0 28 -86 32l50 84q-96 18 -96 149v252h-69z" />
    <glyph glyph-name="Tcaron" unicode="&#x164;" horiz-adv-x="568" 
d="M557 700v-122h-204v-578h-137v578h-205v122h546zM460 830l-133 -93h-94l-127 94v39h105l53 -45l19 -30l21 29l56 46h100v-40z" />
    <glyph glyph-name="tcaron" unicode="&#x165;" horiz-adv-x="360" 
d="M5 390v110h69v94l130 37v-131h122v-110h-122v-192q0 -53 10.5 -75t39.5 -22q32 0 67 16l23 -100q-66 -31 -136 -31q-69 0 -101.5 36t-32.5 116v252h-69zM261 723h114q-3 -54 -33.5 -117t-57.5 -87l-58 31q35 73 35 173z" />
    <glyph glyph-name="Tbar" unicode="&#x166;" horiz-adv-x="600" 
d="M573 700v-122h-204v-173h202v-115h-202v-290h-137v290h-204v115h204v173h-205v122h546z" />
    <glyph glyph-name="tbar" unicode="&#x167;" horiz-adv-x="383" 
d="M27 407v93h69v94l130 37v-131h122v-93h-122v-99h122v-92h-122v-13q0 -54 10.5 -78t38.5 -24q33 0 68 16l22 -100q-66 -31 -135 -31t-101.5 36t-32.5 116v78h-69v92h69v99h-69z" />
    <glyph glyph-name="Utilde" unicode="&#x168;" horiz-adv-x="627" 
d="M440 258v442h130v-452q0 -131 -65.5 -195.5t-181.5 -64.5q-266 0 -266 243v469h137v-442q0 -81 30.5 -114.5t96.5 -33.5q62 0 90.5 35t28.5 113zM153 737l-24 63q55 61 120 61q31 0 86.5 -17.5t78.5 -17.5q35 0 60 24l25 -67q-50 -47 -106 -47q-31 0 -85.5 18t-79.5 18
q-41 0 -75 -35z" />
    <glyph glyph-name="utilde" unicode="&#x169;" horiz-adv-x="538" 
d="M52 500h130v-284q0 -62 15.5 -88.5t55.5 -26.5q70 0 98 76v323h130v-348q0 -89 16 -152h-98l-23 74h-4q-24 -39 -66 -63.5t-95 -24.5q-81 0 -120 45.5t-39 157.5v311zM127 593l-19 65q54 65 108 65q28 0 75 -22t70 -22q31 0 59 27l20 -70q-49 -56 -101 -56
q-28 0 -76.5 21t-71.5 21q-34 0 -64 -29z" />
    <glyph glyph-name="Umacron" unicode="&#x16a;" horiz-adv-x="627" 
d="M440 258v442h130v-452q0 -131 -65.5 -195.5t-181.5 -64.5q-266 0 -266 243v469h137v-442q0 -81 30.5 -114.5t96.5 -33.5q62 0 90.5 35t28.5 113zM145 767v89h343v-89h-343z" />
    <glyph glyph-name="umacron" unicode="&#x16b;" horiz-adv-x="538" 
d="M52 500h130v-284q0 -62 15.5 -88.5t55.5 -26.5q70 0 98 76v323h130v-348q0 -89 16 -152h-98l-23 74h-4q-24 -39 -66 -63.5t-95 -24.5q-81 0 -120 45.5t-39 157.5v311zM106 566v92h323v-92h-323z" />
    <glyph glyph-name="Ubreve" unicode="&#x16c;" horiz-adv-x="627" 
d="M440 258v442h130v-452q0 -131 -65.5 -195.5t-181.5 -64.5q-266 0 -266 243v469h137v-442q0 -81 30.5 -114.5t96.5 -33.5q62 0 90.5 35t28.5 113zM121 838l52 37q42 -54 143 -54q93 0 137 54l49 -32q-22 -55 -74 -84t-113 -29q-60 0 -114 26.5t-80 81.5z" />
    <glyph glyph-name="ubreve" unicode="&#x16d;" horiz-adv-x="538" 
d="M52 500h130v-284q0 -62 15.5 -88.5t55.5 -26.5q70 0 98 76v323h130v-348q0 -89 16 -152h-98l-23 74h-4q-24 -39 -66 -63.5t-95 -24.5q-81 0 -120 45.5t-39 157.5v311zM96 688l63 32q34 -59 112 -59q76 0 106 59l60 -27q-5 -51 -52.5 -90t-114.5 -39q-66 0 -113 33.5
t-61 90.5z" />
    <glyph glyph-name="Uring" unicode="&#x16e;" horiz-adv-x="627" 
d="M440 258v442h130v-452q0 -131 -65.5 -195.5t-181.5 -64.5q-266 0 -266 243v469h137v-442q0 -81 30.5 -114.5t96.5 -33.5q62 0 90.5 35t28.5 113zM192 772q0 90 128 90t128 -90q0 -87 -128 -87t-128 87zM276 772q0 -31 44 -31q45 0 45 31q0 33 -45 33q-44 0 -44 -33z" />
    <glyph glyph-name="uring" unicode="&#x16f;" horiz-adv-x="538" 
d="M52 500h130v-284q0 -62 15.5 -88.5t55.5 -26.5q70 0 98 76v323h130v-348q0 -89 16 -152h-98l-23 74h-4q-24 -39 -66 -63.5t-95 -24.5q-81 0 -120 45.5t-39 157.5v311zM155 647q0 43 29 69.5t82 26.5q52 0 81.5 -25t29.5 -71q0 -40 -30.5 -67t-80.5 -27q-52 0 -81.5 25.5
t-29.5 68.5zM227 647q0 -15 11.5 -24t27.5 -9q39 0 39 33q0 16 -11 25t-28 9q-39 0 -39 -34z" />
    <glyph glyph-name="Uhungarumlaut" unicode="&#x170;" horiz-adv-x="627" 
d="M440 258v442h130v-452q0 -131 -65.5 -195.5t-181.5 -64.5q-266 0 -266 243v469h137v-442q0 -81 30.5 -114.5t96.5 -33.5q62 0 90.5 35t28.5 113zM166 741l59 109h134v-16l-100 -93h-93zM326 741l97 109h140v-16l-143 -93h-94z" />
    <glyph glyph-name="uhungarumlaut" unicode="&#x171;" horiz-adv-x="538" 
d="M52 500h130v-284q0 -62 15.5 -88.5t55.5 -26.5q70 0 98 76v323h130v-348q0 -89 16 -152h-98l-23 74h-4q-24 -39 -66 -63.5t-95 -24.5q-81 0 -120 45.5t-39 157.5v311zM131 571l35 129h119v-16l-76 -113h-78zM271 571l73 129h126v-16l-118 -113h-81z" />
    <glyph glyph-name="Uogonek" unicode="&#x172;" horiz-adv-x="627" 
d="M440 258v442h130v-452q0 -188 -136 -241q-50 -33 -50 -76q0 -19 12 -32.5t33 -13.5q18 0 39 11l19 -62q-17 -14 -49.5 -25t-65.5 -11q-54 0 -84.5 27t-30.5 69q0 55 54 94q-254 6 -254 243v469h137v-442q0 -81 30.5 -114.5t96.5 -33.5q62 0 90.5 35t28.5 113z" />
    <glyph glyph-name="uogonek" unicode="&#x173;" horiz-adv-x="538" 
d="M52 500h130v-284q0 -62 15.5 -88.5t55.5 -26.5q70 0 98 76v323h130v-348q0 -89 16 -152h-14q-62 -19 -60 -73q1 -19 12 -31t31 -12q17 0 41 12l19 -62q-17 -13 -49.5 -24.5t-64.5 -11.5q-55 0 -85.5 25t-30.5 67q0 81 101 115l-21 69h-4q-24 -39 -66 -63.5t-95 -24.5
q-81 0 -120 45.5t-39 157.5v311z" />
    <glyph glyph-name="Wcircumflex" unicode="&#x174;" horiz-adv-x="862" 
d="M149 700l93 -391l13 -124h4l14 126l122 389h90l120 -391l14 -124h4l15 126l85 389h139l-193 -705h-92l-125 389l-17 107h-5l-17 -108l-124 -388h-97l-192 705h149zM258 778l133 92h96l127 -93v-39h-99l-57 41l-20 34l-21 -33l-62 -42h-97v40z" />
    <glyph glyph-name="wcircumflex" unicode="&#x175;" horiz-adv-x="721" 
d="M323 500h96l91 -256l18 -83h4l14 84l64 255h119l-154 -505h-96l-101 280l-13 63h-5l-12 -64l-96 -279h-99l-161 505h141l73 -251l12 -89h5l17 90zM211 550l123 182h86l111 -182h-103l-39 66l-17 49l-17 -49l-45 -66h-99z" />
    <glyph glyph-name="Ycircumflex" unicode="&#x176;" horiz-adv-x="592" 
d="M228 0v260l-230 440h163l128 -263l14 -74h5l15 76l124 261h147l-229 -439v-261h-137zM120 778l133 92h96l127 -93v-39h-99l-57 41l-20 34l-21 -33l-62 -42h-97v40z" />
    <glyph glyph-name="ycircumflex" unicode="&#x177;" horiz-adv-x="478" 
d="M147 500l92 -281l18 -78h6l13 79l76 280h134l-152 -451q-18 -54 -29.5 -85t-29 -68t-34 -56t-39.5 -32t-50 -13q-52 0 -83 17l24 104q15 -6 30 -6q57 0 77 90l-209 500h156zM90 550l123 182h86l111 -182h-103l-39 66l-17 49l-17 -49l-45 -66h-99z" />
    <glyph glyph-name="Ydieresis" unicode="&#x178;" horiz-adv-x="592" 
d="M228 0v260l-230 440h163l128 -263l14 -74h5l15 76l124 261h147l-229 -439v-261h-137zM116 798q0 58 76 58q75 0 75 -58q0 -57 -75 -57q-76 0 -76 57zM330 798q0 58 75 58q76 0 76 -58q0 -57 -76 -57q-75 0 -75 57z" />
    <glyph glyph-name="Zacute" unicode="&#x179;" horiz-adv-x="539" 
d="M27 0v122l296 414l52 42h-348v122h485v-122l-298 -418l-51 -38h349v-122h-485zM194 752l104 118h159v-30l-160 -88h-103z" />
    <glyph glyph-name="zacute" unicode="&#x17a;" horiz-adv-x="458" 
d="M31 0v110l197 237l51 43h-248v110h392v-110l-195 -241l-50 -39h245v-110h-392zM169 566l53 154h132v-30l-111 -124h-74z" />
    <glyph glyph-name="Zdotaccent" unicode="&#x17b;" horiz-adv-x="539" 
d="M27 0v122l296 414l52 42h-348v122h485v-122l-298 -418l-51 -38h349v-122h-485zM186 799q0 26 22.5 43t63.5 17t65 -17t24 -43q0 -27 -23.5 -44.5t-65.5 -17.5q-41 0 -63.5 17.5t-22.5 44.5z" />
    <glyph glyph-name="zdotaccent" unicode="&#x17c;" horiz-adv-x="458" 
d="M31 0v110l197 237l51 43h-248v110h392v-110l-195 -241l-50 -39h245v-110h-392zM151 641q0 30 22 50t59 20q38 0 61.5 -20t23.5 -50t-23.5 -49t-61.5 -19q-37 0 -59 19t-22 49z" />
    <glyph glyph-name="Zcaron" unicode="&#x17d;" horiz-adv-x="539" 
d="M27 0v122l296 414l52 42h-348v122h485v-122l-298 -418l-51 -38h349v-122h-485zM442 830l-133 -93h-94l-127 94v39h105l53 -45l19 -30l21 29l56 46h100v-40z" />
    <glyph glyph-name="zcaron" unicode="&#x17e;" horiz-adv-x="458" 
d="M31 0v110l197 237l51 43h-248v110h392v-110l-195 -241l-50 -39h245v-110h-392zM392 732l-123 -182h-91l-115 182h110l39 -66l16 -49l18 49l45 66h101z" />
    <glyph glyph-name="longs" unicode="&#x17f;" horiz-adv-x="249" 
d="M12 390v110h69v28q0 180 156 180q76 0 134 -24l-26 -101q-42 15 -77 15q-37 0 -47 -21.5t-10 -76.5v-500h-130v390h-69z" />
    <glyph glyph-name="uni018F" unicode="&#x18f;" horiz-adv-x="630" 
d="M455 296h-271q-3 -19 -3 -38q0 -67 32.5 -113t95.5 -46q70 0 108 50.5t38 146.5zM47 409h409q-13 183 -183 183q-80 0 -155 -45l-29 117q33 20 91 35t116 15q296 0 296 -364t-289 -364q-132 0 -199 81.5t-67 222.5q0 59 10 119z" />
    <glyph glyph-name="florin" unicode="&#x192;" 
d="M480 390h-138l-71 -424q-13 -82 -53 -128t-122 -46q-30 0 -77.5 7.5t-70.5 16.5l21 105q45 -19 93 -19q36 0 56 25t29 81l61 382h-78v110h96l11 67q13 78 48 112.5t117 34.5q33 0 78.5 -9.5t75.5 -22.5l-32 -97q-49 19 -95 19q-31 0 -44 -15t-19 -56l-5 -33h119v-110z
" />
    <glyph glyph-name="uni01DD" unicode="&#x1dd;" horiz-adv-x="508" 
d="M96 369l-46 88q31 25 83 41t108 16q117 0 175 -70.5t58 -193.5q0 -125 -62 -194.5t-169 -69.5q-88 0 -148.5 51.5t-60.5 163.5q0 42 10 91h303q-5 62 -35 90t-95 28t-121 -41zM242 90q48 0 74.5 33.5t27.5 87.5h-189q-5 -55 18.5 -88t68.5 -33z" />
    <glyph glyph-name="Gcaron" unicode="&#x1e6;" horiz-adv-x="609" 
d="M307 282v83h261v-312q-80 -67 -216 -67q-142 0 -228 91t-86 273q0 95 28 168t75.5 114t104 61.5t118.5 20.5q100 0 178 -28l-28 -115q-53 21 -135 21q-91 0 -144 -58.5t-53 -184.5q0 -120 51 -180.5t132 -60.5q58 0 93 26v132zM529 830l-133 -93h-94l-127 94v39h105
l53 -45l19 -30l21 29l56 46h100v-40z" />
    <glyph glyph-name="gcaron" unicode="&#x1e7;" horiz-adv-x="536" 
d="M480 482v-482q0 -107 -58 -159.5t-166 -52.5q-118 0 -176 31l27 103q70 -27 129 -27q65 0 91 27.5t26 84.5v32h-4q-35 -47 -124 -47q-192 0 -192 248q0 133 64 202.5t186 69.5q116 0 197 -30zM260 96q69 0 90 68v225q-31 13 -77 13q-106 0 -106 -157q0 -73 24 -111
t69 -38zM435 732l-123 -182h-91l-115 182h110l39 -66l16 -49l18 49l45 66h101z" />
    <glyph glyph-name="uni01F4" unicode="&#x1f4;" horiz-adv-x="609" 
d="M307 282v83h261v-312q-80 -67 -216 -67q-142 0 -228 91t-86 273q0 95 28 168t75.5 114t104 61.5t118.5 20.5q100 0 178 -28l-28 -115q-53 21 -135 21q-91 0 -144 -58.5t-53 -184.5q0 -120 51 -180.5t132 -60.5q58 0 93 26v132zM287 752l104 118h159v-30l-160 -88h-103z
" />
    <glyph glyph-name="uni01F5" unicode="&#x1f5;" horiz-adv-x="536" 
d="M480 482v-482q0 -107 -58 -159.5t-166 -52.5q-118 0 -176 31l27 103q70 -27 129 -27q65 0 91 27.5t26 84.5v32h-4q-35 -47 -124 -47q-192 0 -192 248q0 133 64 202.5t186 69.5q116 0 197 -30zM260 96q69 0 90 68v225q-31 13 -77 13q-106 0 -106 -157q0 -73 24 -111
t69 -38zM225 566l53 154h132v-30l-111 -124h-74z" />
    <glyph glyph-name="Aringacute" unicode="&#x1fa;" horiz-adv-x="605" 
d="M175 771q0 90 128 90t128 -90q0 -64 -73 -82l247 -689h-144l-56 155h-215l-53 -155h-137l246 689q-71 16 -71 82zM276 420l-51 -155h150l-52 156l-21 110h-5zM259 771q0 -31 44 -31q45 0 45 31q0 33 -45 33q-44 0 -44 -33zM235 882l104 118h159v-30l-160 -88h-103z" />
    <glyph glyph-name="aringacute" unicode="&#x1fb;" horiz-adv-x="496" 
d="M85 374l-31 97q86 39 210 39q99 0 139.5 -44.5t40.5 -130.5q0 -34 -3.5 -100.5t-3.5 -98.5q0 -83 18 -137h-106l-21 69h-5q-50 -76 -147 -76q-69 0 -111 40.5t-42 105.5q0 161 253 161q25 0 38 -1q2 13 2 34q0 38 -17.5 54.5t-59.5 16.5q-91 0 -154 -29zM219 99
q67 0 96 55v65q-26 2 -38 2q-120 0 -120 -63q0 -28 16.5 -43.5t45.5 -15.5zM139 637q0 43 29 69.5t82 26.5q52 0 81.5 -25t29.5 -71q0 -40 -30.5 -67t-80.5 -27q-52 0 -81.5 25.5t-29.5 68.5zM211 637q0 -15 11.5 -24t27.5 -9q39 0 39 33q0 16 -11 25t-28 9q-39 0 -39 -34z
M180 752l104 118h159v-30l-160 -88h-103z" />
    <glyph glyph-name="AEacute" unicode="&#x1fc;" horiz-adv-x="862" 
d="M400 532h-6l-36 -103l-84 -149h126v252zM400 0v170h-186l-99 -170h-144l424 700h419v-122h-277v-163h252v-122h-252v-171h282v-122h-419zM419 752l104 118h159v-30l-160 -88h-103z" />
    <glyph glyph-name="aeacute" unicode="&#x1fd;" horiz-adv-x="785" 
d="M219 99q67 0 96 55v65q-68 6 -113 -8.5t-45 -52.5q0 -28 16.5 -43.5t45.5 -15.5zM355 76h-5q-67 -84 -174 -84q-69 0 -111 40.5t-42 105.5q0 173 290 160q2 13 2 35q0 37 -17 53.5t-59 16.5q-77 0 -151 -36l-34 94q91 49 210 49q95 0 134 -54q52 58 152 58q41 0 75 -10
t63 -32.5t45.5 -63t16.5 -96.5q0 -44 -10 -95h-301q4 -65 34 -96t95 -31q74 0 123 38l43 -85q-31 -25 -83 -41t-108 -16q-131 0 -188 90zM548 410q-95 0 -105 -112h187q6 112 -82 112zM346 566l53 154h132v-30l-111 -124h-74z" />
    <glyph glyph-name="Oslashacute" unicode="&#x1fe;" horiz-adv-x="670" 
d="M81 39l30 47q-73 95 -73 264q0 174 77.5 269t219.5 95q87 0 152 -38l25 39l85 -50l-35 -56q70 -94 70 -259q0 -174 -78 -269t-219 -95q-83 0 -147 33l-21 -33zM182 350q0 -75 16 -127l219 342q-35 27 -82 27q-153 0 -153 -242zM488 350q0 71 -14 120l-215 -340
q33 -22 76 -22q153 0 153 242zM275 752l104 118h159v-30l-160 -88h-103z" />
    <glyph glyph-name="oslashacute" unicode="&#x1ff;" horiz-adv-x="536" 
d="M33 250q0 126 61.5 195t173.5 69q60 0 109 -22l24 34l80 -59l-27 -38q49 -67 49 -179q0 -126 -61.5 -195t-173.5 -69q-64 0 -115 24l-25 -34l-83 60l31 43q-43 65 -43 171zM369 250q0 37 -8 71l-149 -207q22 -18 56 -18q101 0 101 154zM167 250q0 -35 6 -65l147 204
q-21 15 -52 15q-101 0 -101 -154zM217 566l53 154h132v-30l-111 -124h-74z" />
    <glyph glyph-name="Scommaaccent" unicode="&#x218;" horiz-adv-x="530" 
d="M362 188q0 34 -33 59t-80 44t-93.5 42.5t-79.5 69.5t-33 111q0 99 63.5 149.5t172.5 50.5q131 0 204 -41l-43 -115q-60 37 -161 37q-47 0 -73 -18.5t-26 -51.5t33 -57.5t80 -44t93.5 -44t79.5 -69.5t33 -107q0 -108 -68.5 -162.5t-187.5 -54.5q-136 0 -216 42l44 117
q75 -40 165 -40q126 0 126 83zM185 -105q0 28 19 45.5t49 17.5q35 0 57 -23.5t22 -64.5q0 -59 -33 -94.5t-70 -48.5l-34 54q40 19 44 53q-21 -1 -37.5 15.5t-16.5 45.5z" />
    <glyph glyph-name="scommaaccent" unicode="&#x219;" horiz-adv-x="422" 
d="M264 138q0 21 -23.5 36t-57 26.5t-67 27.5t-57 50t-23.5 84q0 73 44 112.5t127 39.5q107 0 175 -39l-29 -94q-75 29 -129 29q-58 0 -58 -45q0 -20 23.5 -33.5t57 -24.5t67 -27t57 -49t23.5 -82q0 -77 -49.5 -120t-144.5 -43q-104 0 -175 45l36 97q69 -38 139 -38
q64 0 64 48zM141 -105q0 28 19 45.5t49 17.5q35 0 57 -23.5t22 -64.5q0 -59 -33 -94.5t-70 -48.5l-34 54q40 19 44 53q-21 -1 -37.5 15.5t-16.5 45.5z" />
    <glyph glyph-name="Tcommaaccent" unicode="&#x21a;" horiz-adv-x="568" 
d="M557 700v-122h-204v-578h-137v578h-205v122h546zM205 -105q0 28 19 45.5t49 17.5q35 0 57 -23.5t22 -64.5q0 -59 -33 -94.5t-70 -48.5l-34 54q40 19 44 53q-21 -1 -37.5 15.5t-16.5 45.5z" />
    <glyph glyph-name="tcommaaccent" unicode="&#x21b;" horiz-adv-x="349" 
d="M5 390v110h69v94l130 37v-131h122v-110h-122v-192q0 -53 10.5 -75t39.5 -22q32 0 67 16l23 -100q-66 -31 -136 -31q-69 0 -101.5 36t-32.5 116v252h-69zM109 -105q0 28 19 45.5t49 17.5q35 0 57 -23.5t22 -64.5q0 -59 -33 -94.5t-70 -48.5l-34 54q40 19 44 53
q-21 -1 -37.5 15.5t-16.5 45.5z" />
    <glyph glyph-name="uni0237" unicode="&#x237;" horiz-adv-x="268" 
d="M69 16v484h130v-521q0 -187 -151 -187q-30 0 -64 7v109q3 0 7 -0.5t6 -0.5q42 0 57 26.5t15 82.5z" />
    <glyph glyph-name="uni0259" unicode="&#x259;" horiz-adv-x="508" 
d="M96 369l-46 88q31 25 83 41t108 16q117 0 175 -70.5t58 -193.5q0 -125 -62 -194.5t-169 -69.5q-88 0 -148.5 51.5t-60.5 163.5q0 42 10 91h303q-5 62 -35 90t-95 28t-121 -41zM242 90q48 0 74.5 33.5t27.5 87.5h-189q-5 -55 18.5 -88t68.5 -33z" />
    <glyph glyph-name="afii57929" unicode="&#x2bc;" horiz-adv-x="223" 
d="M38 644q0 29 19.5 47t49.5 18q36 0 57 -24t21 -63q0 -37 -12 -67t-31.5 -48t-35.5 -28t-33 -16l-33 55q49 22 53 62q-22 -1 -38.5 16.5t-16.5 47.5z" />
    <glyph glyph-name="circumflex" unicode="&#x2c6;" horiz-adv-x="440" 
d="M60 550l123 182h86l111 -182h-103l-39 66l-17 49l-17 -49l-45 -66h-99z" />
    <glyph glyph-name="caron" unicode="&#x2c7;" horiz-adv-x="449" 
d="M389 732l-123 -182h-91l-115 182h110l39 -66l16 -49l18 49l45 66h101z" />
    <glyph glyph-name="breve" unicode="&#x2d8;" horiz-adv-x="461" 
d="M60 688l63 32q34 -59 112 -59q76 0 106 59l60 -27q-5 -51 -52.5 -90t-114.5 -39q-66 0 -113 33.5t-61 90.5z" />
    <glyph glyph-name="dotaccent" unicode="&#x2d9;" horiz-adv-x="286" 
d="M60 641q0 30 22 50t59 20q38 0 61.5 -20t23.5 -50t-23.5 -49t-61.5 -19q-37 0 -59 19t-22 49z" />
    <glyph glyph-name="ring" unicode="&#x2da;" horiz-adv-x="342" 
d="M60 647q0 43 29 69.5t82 26.5q52 0 81.5 -25t29.5 -71q0 -40 -30.5 -67t-80.5 -27q-52 0 -81.5 25.5t-29.5 68.5zM132 647q0 -15 11.5 -24t27.5 -9q39 0 39 33q0 16 -11 25t-28 9q-39 0 -39 -34z" />
    <glyph glyph-name="ogonek" unicode="&#x2db;" horiz-adv-x="350" 
d="M163 10h100q-76 -22 -76 -79q0 -19 11 -31t31 -12q18 0 42 12l19 -62q-17 -13 -49.5 -24t-65.5 -11q-54 0 -84.5 25t-30.5 66q0 80 103 116z" />
    <glyph glyph-name="tilde" unicode="&#x2dc;" horiz-adv-x="452" 
d="M79 593l-19 65q54 65 108 65q28 0 75 -22t70 -22q31 0 59 27l20 -70q-49 -56 -101 -56q-28 0 -76.5 21t-71.5 21q-34 0 -64 -29z" />
    <glyph glyph-name="hungarumlaut" unicode="&#x2dd;" horiz-adv-x="459" 
d="M60 571l35 129h119v-16l-76 -113h-78zM200 571l73 129h126v-16l-118 -113h-81z" />
    <glyph glyph-name="gravecomb" unicode="&#x300;" horiz-adv-x="2" 
d="M-244 720l60 -154h-72l-124 124v30h136z" />
    <glyph glyph-name="acutecomb" unicode="&#x301;" horiz-adv-x="2" 
d="M-306 566l53 154h132v-30l-111 -124h-74z" />
    <glyph glyph-name="uni0394" unicode="&#x394;" horiz-adv-x="585" 
d="M575 0h-563v71l241 634h79l243 -634v-71zM264 413l-106 -298h270l-112 299l-23 100h-5z" />
    <glyph glyph-name="uni0394" unicode="&#x2206;" horiz-adv-x="585" 
d="M575 0h-563v71l241 634h79l243 -634v-71zM264 413l-106 -298h270l-112 299l-23 100h-5z" />
    <glyph glyph-name="uni03A9" unicode="&#x3a9;" horiz-adv-x="778" 
d="M58 0v110h105l85 -13v28l-46 9q-64 30 -103.5 97t-39.5 166q0 145 90.5 231t239.5 86q154 0 242 -88t88 -233q0 -96 -40 -161.5t-101 -96.5l-49 -10v-28l85 13h106v-110h-300v203q62 11 108.5 57.5t46.5 131.5q0 84 -45.5 142t-141.5 58q-89 0 -137 -51.5t-48 -151.5
q0 -84 45.5 -130.5t108.5 -55.5v-203h-299z" />
    <glyph glyph-name="uni03A9" unicode="&#x2126;" horiz-adv-x="778" 
d="M58 0v110h105l85 -13v28l-46 9q-64 30 -103.5 97t-39.5 166q0 145 90.5 231t239.5 86q154 0 242 -88t88 -233q0 -96 -40 -161.5t-101 -96.5l-49 -10v-28l85 13h106v-110h-300v203q62 11 108.5 57.5t46.5 131.5q0 84 -45.5 142t-141.5 58q-89 0 -137 -51.5t-48 -151.5
q0 -84 45.5 -130.5t108.5 -55.5v-203h-299z" />
    <glyph glyph-name="pi" unicode="&#x3c0;" horiz-adv-x="696" 
d="M566 390v-234q0 -50 32 -50q20 0 44 6l20 -90q-61 -28 -128 -28q-53 0 -75.5 28.5t-22.5 83.5v284h-140v-390h-130v390h-14q-35 0 -57 -44l-76 48q39 106 147 106h483v-110h-83z" />
    <glyph glyph-name="afii10023" unicode="&#x401;" horiz-adv-x="522" 
d="M60 0v700h415v-122h-278v-163h253v-122h-253v-171h283v-122h-420zM82 798q0 58 76 58q75 0 75 -58q0 -57 -75 -57q-76 0 -76 57zM296 798q0 58 75 58q76 0 76 -58q0 -57 -76 -57q-75 0 -75 57z" />
    <glyph glyph-name="afii10051" unicode="&#x402;" horiz-adv-x="740" 
d="M353 317v-317h-137v578h-205v122h546v-122h-204v-143q58 22 138 22q42 0 77 -10.5t66.5 -34.5t49.5 -70t18 -110q0 -119 -58.5 -179t-182.5 -60q-50 0 -63 4v117q14 -3 57 -3q103 0 103 115q0 64 -30.5 86.5t-89.5 22.5q-51 0 -85 -18z" />
    <glyph glyph-name="afii10052" unicode="&#x403;" horiz-adv-x="458" 
d="M467 700v-122h-270v-578h-137v700h407zM188 752l104 118h159v-30l-160 -88h-103z" />
    <glyph glyph-name="afii10053" unicode="&#x404;" horiz-adv-x="577" 
d="M521 139l28 -110q-59 -43 -191 -43q-67 0 -123 20.5t-101 62t-70.5 113.5t-25.5 168q0 98 28.5 171.5t76.5 114t103 59.5t116 19q108 0 177 -27l-26 -119q-50 24 -139 24q-74 0 -124.5 -44.5t-64.5 -131.5h275v-112h-278q11 -90 63.5 -143t138.5 -53q84 0 137 31z" />
    <glyph glyph-name="afii10054" unicode="&#x405;" horiz-adv-x="530" 
d="M362 188q0 34 -33 59t-80 44t-93.5 42.5t-79.5 69.5t-33 111q0 99 63.5 149.5t172.5 50.5q131 0 204 -41l-43 -115q-60 37 -161 37q-47 0 -73 -18.5t-26 -51.5t33 -57.5t80 -44t93.5 -44t79.5 -69.5t33 -107q0 -108 -68.5 -162.5t-187.5 -54.5q-136 0 -216 42l44 117
q75 -40 165 -40q126 0 126 83z" />
    <glyph glyph-name="afii10055" unicode="&#x406;" horiz-adv-x="285" 
d="M74 0v700h137v-700h-137z" />
    <glyph glyph-name="afii10056" unicode="&#x407;" horiz-adv-x="296" 
d="M19 792q0 31 15.5 47.5t44.5 16.5q28 0 43.5 -16.5t15.5 -47.5q0 -30 -15.5 -46t-43.5 -16q-60 0 -60 62zM159 792q0 31 15.5 47.5t43.5 16.5q29 0 44.5 -16.5t15.5 -47.5q0 -62 -60 -62q-28 0 -43.5 16t-15.5 46zM79 0v700h137v-700h-137z" />
    <glyph glyph-name="afii10057" unicode="&#x408;" horiz-adv-x="334" 
d="M131 223v477h137v-512q0 -87 -41 -143.5t-128 -56.5q-71 0 -122 23l30 112q26 -13 59 -13q39 0 52 28t13 85z" />
    <glyph glyph-name="afii10058" unicode="&#x409;" horiz-adv-x="935" 
d="M426 0v578h-149q-8 -214 -24.5 -327.5t-56.5 -179.5q-48 -78 -140 -78q-38 0 -69 14l15 118q16 -4 24 -4q37 0 58 35q59 93 66 544h413v-251q37 8 95 8q254 0 254 -225q0 -118 -74.5 -180t-213.5 -62q-94 0 -161 10h-37zM631 112q137 0 137 114q0 63 -37 86t-100 23
q-41 0 -68 -8v-209q23 -6 68 -6z" />
    <glyph glyph-name="afii10059" unicode="&#x40a;" horiz-adv-x="962" 
d="M453 3v302h-256v-305h-137v700h137v-273h256v273h137v-266q37 8 95 8q54 0 96 -9.5t79.5 -32t58 -67t20.5 -108.5q0 -235 -288 -235q-108 0 -198 13zM658 112q67 0 102 24.5t35 82.5q0 59 -34.5 80t-102.5 21q-46 0 -68 -9v-193q22 -6 68 -6z" />
    <glyph glyph-name="afii10060" unicode="&#x40b;" horiz-adv-x="758" 
d="M353 291v-291h-137v578h-205v122h546v-122h-204v-177q68 41 172 41q89 0 140 -47t51 -147v-248h-137v206q0 119 -102 119q-84 0 -124 -34z" />
    <glyph glyph-name="afii10061" unicode="&#x40c;" horiz-adv-x="620" 
d="M440 0l-207 299h-36v-299h-137v700h137v-310l32 14l193 296h156l-204 -294l-54 -38l56 -39l233 -329h-169zM214 752l104 118h159v-30l-160 -88h-103z" />
    <glyph glyph-name="afii10062" unicode="&#x40e;" horiz-adv-x="568" 
d="M152 700l142 -309l20 -91h6l16 94l105 306h141l-186 -484q-48 -123 -90.5 -173t-116.5 -50q-60 0 -98 24l35 111q25 -13 61 -13q47 0 66 74l-262 511h161zM104 854l124 20q7 -60 74 -60t74 59l111 -17q-20 -121 -186 -121q-87 0 -137.5 27t-59.5 92z" />
    <glyph glyph-name="afii10145" unicode="&#x40f;" horiz-adv-x="639" 
d="M256 0h-196v700h137v-578h245v578h137v-700h-200l-15 -175h-88z" />
    <glyph glyph-name="afii10017" unicode="&#x410;" horiz-adv-x="605" 
d="M461 0l-56 155h-215l-53 -155h-137l252 705h101l252 -705h-144zM276 420l-51 -155h150l-52 156l-21 110h-5z" />
    <glyph glyph-name="afii10018" unicode="&#x411;" horiz-adv-x="570" 
d="M60 7v693h431v-122h-294v-146q52 9 90 9q255 0 255 -216q0 -115 -74 -175t-205 -60q-127 0 -203 17zM273 103q55 0 90 28t35 84q0 66 -36 89.5t-101 23.5q-38 0 -64 -7v-213q19 -5 76 -5z" />
    <glyph glyph-name="afii10019" unicode="&#x412;" horiz-adv-x="591" 
d="M531 537q0 -58 -30.5 -102.5t-94.5 -59.5v-6q66 -10 106.5 -52.5t40.5 -119.5q0 -102 -79.5 -154.5t-193.5 -52.5q-150 0 -220 15v690q85 15 212 15q259 0 259 -173zM281 103q55 0 92.5 25.5t37.5 75.5q0 41 -23.5 64t-52 28.5t-70.5 5.5h-73v-193q21 -6 89 -6zM192 406
h44q42 0 63 4q93 29 93 99q0 88 -118 88q-61 0 -82 -4v-187z" />
    <glyph glyph-name="afii10020" unicode="&#x413;" horiz-adv-x="458" 
d="M467 700v-122h-270v-578h-137v700h407z" />
    <glyph glyph-name="afii10021" unicode="&#x414;" horiz-adv-x="691" 
d="M674 122v-247h-97l-15 125h-450l-15 -125h-97v247h75q10 15 23 49.5t29.5 98t27.5 169.5t11 232v29h419v-578h89zM219 122h229v456h-155q-11 -319 -74 -456z" />
    <glyph glyph-name="afii10022" unicode="&#x415;" horiz-adv-x="522" 
d="M60 0v700h415v-122h-278v-163h253v-122h-253v-171h283v-122h-420z" />
    <glyph glyph-name="afii10024" unicode="&#x416;" horiz-adv-x="839" 
d="M350 401v299h130v-311l35 14l145 297h154l-163 -307l-47 -34l57 -42l184 -317h-165l-161 304h-39v-304h-130v316l-36 -14l-161 -302h-160l183 307l54 39l-52 37l-171 317h159l145 -299h39z" />
    <glyph glyph-name="afii10025" unicode="&#x417;" horiz-adv-x="526" 
d="M147 310h-27v107h24q74 0 96 6q38 8 61.5 29.5t23.5 54.5q0 83 -111 83q-80 0 -143 -35l-35 116q26 14 83 27.5t116 13.5q48 0 87 -8.5t73.5 -27t54 -54t19.5 -85.5q0 -55 -29 -98t-87 -62v-5q66 -13 102 -56.5t36 -114.5q0 -106 -78.5 -160.5t-191.5 -54.5
q-131 0 -203 37l35 119q75 -34 168 -34q51 0 88.5 26t37.5 78q0 49 -36.5 72.5t-124.5 24.5q-8 0 -18 0.5t-21 0.5z" />
    <glyph glyph-name="afii10026" unicode="&#x418;" horiz-adv-x="666" 
d="M468 0v388l8 91h-5l-47 -94l-261 -385h-103v700h137v-381l-10 -94h6l49 97l261 378h102v-700h-137z" />
    <glyph glyph-name="afii10027" unicode="&#x419;" horiz-adv-x="666" 
d="M468 0v388l8 91h-5l-47 -94l-261 -385h-103v700h137v-381l-10 -94h6l49 97l261 378h102v-700h-137zM149 854l124 20q7 -60 74 -60t74 59l111 -17q-20 -121 -186 -121q-87 0 -137.5 27t-59.5 92z" />
    <glyph glyph-name="afii10028" unicode="&#x41a;" horiz-adv-x="620" 
d="M440 0l-207 299h-36v-299h-137v700h137v-310l32 14l193 296h156l-204 -294l-54 -38l56 -39l233 -329h-169z" />
    <glyph glyph-name="afii10029" unicode="&#x41b;" horiz-adv-x="623" 
d="M426 0v578h-149q-8 -214 -24.5 -327.5t-56.5 -179.5q-48 -78 -140 -78q-38 0 -69 14l15 118q16 -4 24 -4q36 0 58 35q59 93 66 544h413v-700h-137z" />
    <glyph glyph-name="afii10030" unicode="&#x41c;" horiz-adv-x="800" 
d="M603 0v363l15 139h-6l-43 -112l-149 -261h-44l-157 262l-44 111h-5l20 -138v-364h-130v700h125l187 -320l33 -80h4l30 82l177 318h124v-700h-137z" />
    <glyph glyph-name="afii10031" unicode="&#x41d;" horiz-adv-x="651" 
d="M453 0v293h-256v-293h-137v700h137v-285h256v285h137v-700h-137z" />
    <glyph glyph-name="afii10032" unicode="&#x41e;" horiz-adv-x="670" 
d="M38 350q0 174 77.5 269t219.5 95q147 0 222 -97.5t75 -266.5q0 -174 -78 -269t-219 -95q-148 0 -222.5 97.5t-74.5 266.5zM182 350q0 -111 38 -176.5t115 -65.5q153 0 153 242q0 110 -37 176t-116 66q-153 0 -153 -242z" />
    <glyph glyph-name="afii10033" unicode="&#x41f;" horiz-adv-x="639" 
d="M442 0v578h-245v-578h-137v700h519v-700h-137z" />
    <glyph glyph-name="afii10034" unicode="&#x420;" horiz-adv-x="572" 
d="M60 0v693q87 17 193 17q294 0 294 -232q0 -122 -78 -181.5t-193 -59.5q-60 0 -79 4v-241h-137zM264 592q-42 0 -67 -5v-227q15 -4 59 -4q147 0 147 124q0 61 -39.5 86.5t-99.5 25.5z" />
    <glyph glyph-name="afii10035" unicode="&#x421;" horiz-adv-x="559" 
d="M506 140l28 -111q-60 -43 -183 -43q-65 0 -120 20.5t-99 62t-69 113.5t-25 168q0 98 28 171.5t75 114t100.5 59.5t112.5 19q101 0 170 -27l-27 -116q-43 21 -131 21q-86 0 -135 -60.5t-49 -181.5q0 -111 50 -176.5t144 -65.5q78 0 130 32z" />
    <glyph glyph-name="afii10036" unicode="&#x422;" horiz-adv-x="568" 
d="M557 700v-122h-204v-578h-137v578h-205v122h546z" />
    <glyph glyph-name="afii10037" unicode="&#x423;" horiz-adv-x="568" 
d="M152 700l142 -309l20 -91h6l16 94l105 306h141l-186 -484q-48 -123 -90.5 -173t-116.5 -50q-60 0 -98 24l35 111q25 -13 61 -13q47 0 66 74l-262 511h161z" />
    <glyph glyph-name="afii10038" unicode="&#x424;" horiz-adv-x="802" 
d="M334 -20v96q-31 -5 -82 -5q-101 0 -163.5 71t-62.5 208q0 134 67 212t178 78q43 0 63 -5v85h134v-88q27 8 83 8q100 0 162.5 -73t62.5 -207q0 -136 -68.5 -212.5t-171.5 -76.5q-43 0 -68 7v-98h-134zM519 530q-39 0 -56 -5v-342q10 -2 45 -2q58 0 94.5 44.5t36.5 133.5
q0 79 -32 125t-88 46zM287 181q37 0 52 5v341q-19 3 -47 3q-58 0 -93.5 -45t-35.5 -134q0 -80 34 -125t90 -45z" />
    <glyph glyph-name="afii10039" unicode="&#x425;" horiz-adv-x="633" 
d="M10 0l215 356l-195 344h165l108 -202l24 -71l23 71l113 202h149l-202 -337l212 -363h-163l-123 216l-27 74l-26 -74l-124 -216h-149z" />
    <glyph glyph-name="afii10040" unicode="&#x426;" horiz-adv-x="682" 
d="M665 122v-247h-97l-15 125h-493v700h137v-578h241v578h137v-578h90z" />
    <glyph glyph-name="afii10041" unicode="&#x427;" horiz-adv-x="606" 
d="M46 700h137v-222q0 -61 24 -90t77 -29q87 0 125 34v307h137v-700h-137v282q-68 -40 -173 -40q-88 0 -139 46.5t-51 146.5v265z" />
    <glyph glyph-name="afii10042" unicode="&#x428;" horiz-adv-x="861" 
d="M801 0h-741v700h137v-578h165v578h137v-578h165v578h137v-700z" />
    <glyph glyph-name="afii10043" unicode="&#x429;" horiz-adv-x="911" 
d="M782 0h-722v700h137v-578h165v578h137v-578h165v578h137v-578h92v-247h-96z" />
    <glyph glyph-name="afii10044" unicode="&#x42a;" horiz-adv-x="664" 
d="M155 7v571h-159v122h296v-251q37 8 96 8q253 0 253 -225q0 -119 -74 -180.5t-214 -61.5q-127 0 -198 17zM360 112q137 0 137 114q0 63 -37 86t-100 23q-41 0 -68 -8v-209q22 -6 68 -6z" />
    <glyph glyph-name="afii10045" unicode="&#x42b;" horiz-adv-x="798" 
d="M600 0v700h137v-700h-137zM60 7v693h137v-251q37 8 82 8q249 0 249 -224q0 -243 -282 -243q-116 0 -186 17zM256 112q128 0 128 115q0 61 -33.5 84.5t-93.5 23.5q-40 0 -60 -8v-209q21 -6 59 -6z" />
    <glyph glyph-name="afii10046" unicode="&#x42c;" horiz-adv-x="569" 
d="M60 7v693h137v-251q37 8 95 8q254 0 254 -225q0 -118 -74.5 -180t-213.5 -62q-125 0 -198 17zM265 112q137 0 137 114q0 63 -37 86t-100 23q-41 0 -68 -8v-209q23 -6 68 -6z" />
    <glyph glyph-name="afii10047" unicode="&#x42d;" horiz-adv-x="574" 
d="M130 300v110h269q-6 83 -54 132.5t-133 49.5q-91 0 -159 -37l-29 116q82 43 193 43q149 0 234 -86.5t85 -277.5q0 -100 -27.5 -173.5t-76.5 -113.5t-107 -58.5t-127 -18.5q-106 0 -178 33l36 119q62 -30 152 -30q81 0 133 47.5t59 144.5h-270z" />
    <glyph glyph-name="afii10048" unicode="&#x42e;" horiz-adv-x="897" 
d="M197 700v-285h93q13 144 85 221.5t198 77.5q146 0 216 -96.5t70 -267.5q0 -175 -73 -269.5t-213 -94.5q-128 0 -199.5 82t-83.5 225h-93v-293h-137v700h137zM430 350q0 -242 143 -242q74 0 108 57.5t34 184.5q0 113 -32 177.5t-110 64.5q-72 0 -107.5 -59t-35.5 -183z
" />
    <glyph glyph-name="afii10049" unicode="&#x42f;" horiz-adv-x="580" 
d="M519 693v-693h-137v277l-72 -19l-146 -258h-159l144 233l60 43q-69 17 -111.5 70t-42.5 139q0 225 293 225q108 0 171 -17zM331 588q-132 0 -132 -109q0 -59 36 -86t96 -27h51v217q-23 5 -51 5z" />
    <glyph glyph-name="afii10065" unicode="&#x430;" horiz-adv-x="496" 
d="M85 374l-31 97q86 39 210 39q99 0 139.5 -44.5t40.5 -130.5q0 -34 -3.5 -100.5t-3.5 -98.5q0 -83 18 -137h-106l-21 69h-5q-50 -76 -147 -76q-69 0 -111 40.5t-42 105.5q0 161 253 161q25 0 38 -1q2 13 2 34q0 38 -17.5 54.5t-59.5 16.5q-91 0 -154 -29zM219 99
q67 0 96 55v65q-26 2 -38 2q-120 0 -120 -63q0 -28 16.5 -43.5t45.5 -15.5z" />
    <glyph glyph-name="afii10066" unicode="&#x431;" horiz-adv-x="537" 
d="M142 406q56 83 164 83q93 0 145.5 -57.5t52.5 -170.5q0 -133 -61 -204t-172 -71q-238 0 -238 317q0 72 8 128.5t20 95.5t34 67.5t43 45t53.5 27.5t58.5 15t66 8q116 10 144 37l5 -115q-33 -27 -157 -36q-42 -3 -67.5 -10t-48.5 -24.5t-35 -50.5t-18 -85h3zM167 244
q0 -67 26 -107.5t76 -40.5q101 0 101 148q0 135 -95 135q-54 0 -81 -35.5t-27 -99.5z" />
    <glyph glyph-name="afii10067" unicode="&#x432;" horiz-adv-x="505" 
d="M57 1v498q103 9 191 9q108 0 155.5 -31t47.5 -95q0 -38 -21 -70t-62 -46v-4q102 -23 102 -121q0 -75 -58.5 -112t-183.5 -37q-88 0 -171 9zM184 216v-116q24 -4 56 -4q53 0 76.5 15t23.5 46q0 59 -89 59h-67zM184 296h69q32 0 52.5 15.5t20.5 39.5q0 27 -18.5 40
t-62.5 13q-19 0 -61 -3v-105z" />
    <glyph glyph-name="afii10068" unicode="&#x433;" horiz-adv-x="376" 
d="M380 500v-115h-189v-385h-134v500h323z" />
    <glyph glyph-name="afii10069" unicode="&#x434;" horiz-adv-x="568" 
d="M554 115v-229h-95l-15 114h-336l-15 -114h-95v229h59q15 20 29.5 56t30.5 126t16 203h348v-385h73zM187 109h164v281h-105q-4 -78 -20 -158.5t-39 -122.5z" />
    <glyph glyph-name="afii10070" unicode="&#x435;" horiz-adv-x="508" 
d="M414 128l43 -85q-31 -25 -83 -41t-108 -16q-118 0 -175.5 68.5t-57.5 195.5q0 130 62.5 197t177.5 67q86 0 143 -47.5t57 -154.5q0 -45 -10 -95h-300q3 -64 33 -95.5t95 -31.5q74 0 123 38zM271 410q-95 0 -105 -112h186q0 2 0.5 8t0.5 8q0 96 -82 96z" />
    <glyph glyph-name="afii10072" unicode="&#x436;" horiz-adv-x="693" 
d="M280 217l-38 -14l-102 -203h-146l131 229l34 30l-51 38l-103 203h139l93 -203h43v203h124v-213l38 14l94 199h138l-109 -203l-39 -32l51 -40l121 -225h-149l-102 207h-43v-207h-124v217z" />
    <glyph glyph-name="afii10073" unicode="&#x437;" horiz-adv-x="432" 
d="M158 207h-49v91h61q35 0 57.5 14.5t22.5 36.5q0 50 -81 50q-64 0 -117 -31l-28 99q73 42 185 42q171 0 171 -125q0 -37 -20 -69.5t-58 -46.5v-4q97 -22 97 -124q0 -67 -54.5 -109t-159.5 -42q-95 0 -163 38l28 101q53 -29 128 -29q91 0 91 58q0 27 -24.5 38.5t-86.5 11.5
z" />
    <glyph glyph-name="afii10074" unicode="&#x438;" horiz-adv-x="545" 
d="M358 0v228l5 71h-3l-43 -73l-178 -226h-82v500h130v-238l-6 -68h4l41 71l180 235h82v-500h-130z" />
    <glyph glyph-name="afii10075" unicode="&#x439;" horiz-adv-x="545" 
d="M358 0v228l5 71h-3l-43 -73l-178 -226h-82v500h130v-238l-6 -68h4l41 71l180 235h82v-500h-130zM109 678l110 26q12 -71 66 -71q56 0 67 70l99 -25q-12 -62 -57.5 -95t-111.5 -33q-67 0 -114.5 31.5t-58.5 96.5z" />
    <glyph glyph-name="afii10076" unicode="&#x43a;" horiz-adv-x="489" 
d="M344 0l-122 207h-35v-207h-130v500h130v-213l31 14l117 199h139l-121 -190l-51 -38l56 -39l135 -233h-149z" />
    <glyph glyph-name="afii10077" unicode="&#x43b;" horiz-adv-x="515" 
d="M329 0v385h-99q-4 -49 -7 -82t-9.5 -78t-14 -74.5t-20 -62t-28 -51t-37.5 -31t-49 -12.5q-58 0 -82 15l16 108q17 -6 30 -6q28 0 45 32.5t27.5 117.5t14.5 239h343v-500h-130z" />
    <glyph glyph-name="afii10078" unicode="&#x43c;" horiz-adv-x="666" 
d="M485 0v229l8 104h-5l-40 -86l-94 -155h-47l-103 155l-38 86h-6l13 -103v-230h-116v500h135l115 -188l28 -63h4l29 65l106 186h136v-500h-125z" />
    <glyph glyph-name="afii10079" unicode="&#x43d;" horiz-adv-x="537" 
d="M350 0v197h-163v-197h-130v500h130v-188h163v188h130v-500h-130z" />
    <glyph glyph-name="afii10080" unicode="&#x43e;" horiz-adv-x="537" 
d="M33 250q0 126 62 195t174 69q116 0 175.5 -71t59.5 -193q0 -126 -61.5 -195t-173.5 -69q-116 0 -176 71t-60 193zM167 250q0 -70 25 -112t77 -42q101 0 101 154t-101 154q-102 0 -102 -154z" />
    <glyph glyph-name="afii10081" unicode="&#x43f;" horiz-adv-x="532" 
d="M345 0v385h-158v-385h-130v500h418v-500h-130z" />
    <glyph glyph-name="afii10082" unicode="&#x440;" horiz-adv-x="540" 
d="M57 -200v700h95l15 -60h4q52 74 148 74q94 0 141 -61t47 -190q0 -130 -60 -203.5t-169 -73.5q-53 0 -91 19v-205h-130zM280 404q-69 0 -93 -76v-208q30 -24 74 -24q56 0 84 40.5t28 129.5q0 138 -93 138z" />
    <glyph glyph-name="afii10083" unicode="&#x441;" horiz-adv-x="433" 
d="M381 130l30 -99q-62 -45 -160 -45q-218 0 -218 264q0 126 57.5 195t165.5 69q88 0 149 -32l-31 -106q-48 23 -97 23q-110 0 -110 -149q0 -67 29.5 -108t87.5 -41q54 0 97 29z" />
    <glyph glyph-name="afii10084" unicode="&#x442;" horiz-adv-x="418" 
d="M417 500v-115h-141v-385h-134v385h-141v115h416z" />
    <glyph glyph-name="afii10085" unicode="&#x443;" horiz-adv-x="478" 
d="M147 500l92 -281l18 -78h6l13 79l76 280h134l-152 -451q-18 -54 -29.5 -85t-29 -68t-34 -56t-39.5 -32t-50 -13q-52 0 -83 17l24 104q15 -6 30 -6q57 0 77 90l-209 500h156z" />
    <glyph glyph-name="afii10086" unicode="&#x444;" horiz-adv-x="700" 
d="M286 -200v194q-23 -8 -69 -8q-92 0 -140.5 66t-48.5 198q0 126 54 193t156 67q28 0 48 -4v194h128v-195q30 5 59 5q101 0 150 -59.5t49 -190.5q0 -127 -53 -200.5t-150 -73.5q-35 0 -55 7v-193h-128zM444 407q-13 0 -36 -5v-310q11 -3 41 -3q48 0 70.5 40t22.5 131
q0 78 -22.5 112.5t-75.5 34.5zM251 89q16 0 41 5v309q-19 4 -39 4q-47 0 -71 -36.5t-24 -120.5q0 -161 93 -161z" />
    <glyph glyph-name="afii10087" unicode="&#x445;" horiz-adv-x="525" 
d="M8 0l162 256l-150 244h155l65 -107l28 -70l30 70l68 107h141l-151 -240l161 -260h-151l-77 120l-30 74l-32 -74l-77 -120h-142z" />
    <glyph glyph-name="afii10088" unicode="&#x446;" horiz-adv-x="559" 
d="M545 115v-229h-95l-15 114h-378v500h130v-385h155v385h130v-385h73z" />
    <glyph glyph-name="afii10089" unicode="&#x447;" horiz-adv-x="505" 
d="M33 500h130v-114q0 -66 13.5 -92t55.5 -26q53 0 86 24v208h130v-500h-130v196q-54 -38 -129 -38q-78 0 -117 38.5t-39 133.5v170z" />
    <glyph glyph-name="afii10090" unicode="&#x448;" horiz-adv-x="754" 
d="M697 0h-640v500h130v-385h125v385h130v-385h125v385h130v-500z" />
    <glyph glyph-name="afii10091" unicode="&#x449;" horiz-adv-x="783" 
d="M769 115v-245h-94l-15 130h-603v500h130v-385h125v385h130v-385h125v385h130v-385h72z" />
    <glyph glyph-name="afii10092" unicode="&#x44a;" horiz-adv-x="539" 
d="M235 229v-120q29 -6 57 -6q48 0 70 16.5t22 51.5q0 65 -89 65q-35 0 -60 -7zM235 500v-178q45 7 94 7q98 0 143.5 -41.5t45.5 -113.5q0 -93 -55.5 -137t-181.5 -44q-95 0 -176 7v385h-110v115h240z" />
    <glyph glyph-name="afii10093" unicode="&#x44b;" horiz-adv-x="703" 
d="M187 229v-120q30 -6 57 -6q44 0 62.5 16t18.5 52q0 65 -78 65q-33 0 -60 -7zM187 500v-178q45 7 93 7q179 0 179 -155q0 -93 -52.5 -137t-174.5 -44q-94 0 -175 7v500h130zM516 0v500h130v-500h-130z" />
    <glyph glyph-name="afii10094" unicode="&#x44c;" horiz-adv-x="490" 
d="M187 229v-120q30 -6 57 -6q47 0 69 16.5t22 51.5q0 65 -88 65q-33 0 -60 -7zM187 500v-178q45 7 93 7q98 0 143.5 -41.5t45.5 -113.5q0 -93 -55.5 -137t-181.5 -44q-94 0 -175 7v500h130z" />
    <glyph glyph-name="afii10095" unicode="&#x44d;" horiz-adv-x="459" 
d="M109 207v93h186q-11 104 -116 104q-64 0 -118 -30l-35 94q66 46 178 46q222 0 222 -264q0 -130 -61 -197t-171 -67q-113 0 -171 36l32 102q51 -28 118 -28q62 0 90 26.5t33 84.5h-187z" />
    <glyph glyph-name="afii10096" unicode="&#x44e;" horiz-adv-x="734" 
d="M480 -14q-108 0 -158 55t-59 161h-76v-202h-130v500h130v-188h77q11 100 63.5 151t154.5 51q110 0 164 -70t54 -194q0 -128 -55 -196t-165 -68zM387 250q0 -76 21.5 -115t71.5 -39q46 0 66 34.5t20 119.5q0 80 -20 117t-69 37q-47 0 -68.5 -36t-21.5 -118z" />
    <glyph glyph-name="afii10097" unicode="&#x44f;" horiz-adv-x="503" 
d="M321 0v189l-60 -12l-96 -177h-155l97 157l49 37q-50 8 -81.5 47t-31.5 96q0 90 60.5 133.5t185.5 43.5q80 0 162 -16v-498h-130zM285 255l36 2v138q-21 9 -49 9q-95 0 -95 -76q0 -75 108 -73z" />
    <glyph glyph-name="afii10071" unicode="&#x451;" horiz-adv-x="508" 
d="M414 128l43 -85q-31 -25 -83 -41t-108 -16q-118 0 -175.5 68.5t-57.5 195.5q0 130 62.5 197t177.5 67q86 0 143 -47.5t57 -154.5q0 -45 -10 -95h-300q3 -64 33 -95.5t95 -31.5q74 0 123 38zM271 410q-95 0 -105 -112h186q0 2 0.5 8t0.5 8q0 96 -82 96zM85 631
q0 32 19.5 51t51.5 19q31 0 50 -19t19 -51q0 -30 -19 -49t-50 -19q-32 0 -51.5 19t-19.5 49zM304 631q0 32 19 51t50 19q32 0 51.5 -19.5t19.5 -50.5q0 -30 -20 -49t-51 -19t-50 19t-19 49z" />
    <glyph glyph-name="afii10099" unicode="&#x452;" horiz-adv-x="550" 
d="M-12 420v80h74v200h130v-200h161v-80h-161v-130h4q52 70 149 70q80 0 116.5 -45t36.5 -158v-178q0 -187 -151 -187q-30 0 -64 7v109q3 0 8 -0.5t7 -0.5q41 0 55.5 22.5t14.5 70.5v130q0 62 -17 88.5t-61 26.5q-33 0 -61.5 -22.5t-36.5 -56.5v-166h-130v420h-74z" />
    <glyph glyph-name="afii10100" unicode="&#x453;" horiz-adv-x="376" 
d="M380 500v-115h-189v-385h-134v500h323zM164 566l53 154h132v-30l-111 -124h-74z" />
    <glyph glyph-name="afii10101" unicode="&#x454;" horiz-adv-x="457" 
d="M405 130l30 -99q-62 -45 -165 -45q-117 0 -175 70.5t-58 193.5q0 125 64.5 194.5t173.5 69.5q92 0 153 -32l-30 -106q-48 23 -103 23q-104 0 -123 -102h195v-88h-196q9 -50 42 -79t89 -29q58 0 103 29z" />
    <glyph glyph-name="afii10102" unicode="&#x455;" horiz-adv-x="422" 
d="M264 138q0 21 -23.5 36t-57 26.5t-67 27.5t-57 50t-23.5 84q0 73 44 112.5t127 39.5q107 0 175 -39l-29 -94q-75 29 -129 29q-58 0 -58 -45q0 -20 23.5 -33.5t57 -24.5t67 -27t57 -49t23.5 -82q0 -77 -49.5 -120t-144.5 -43q-104 0 -175 45l36 97q69 -38 139 -38
q64 0 64 48z" />
    <glyph glyph-name="afii10103" unicode="&#x456;" horiz-adv-x="269" 
d="M70 0v500h130v-500h-130zM51 641q0 30 22 50t59 20q38 0 61.5 -20t23.5 -50t-23.5 -49t-61.5 -19q-37 0 -59 19t-22 49z" />
    <glyph glyph-name="afii10104" unicode="&#x457;" horiz-adv-x="318" 
d="M21 642q0 32 16 51t47 19t47 -19t16 -51q0 -31 -16 -50t-47 -19t-47 19t-16 50zM172 642q0 32 16 51t47 19t47 -19t16 -51q0 -31 -16 -50t-47 -19t-47 19t-16 50zM93 0v500h130v-500h-130z" />
    <glyph glyph-name="afii10105" unicode="&#x458;" horiz-adv-x="268" 
d="M69 16v484h130v-521q0 -187 -151 -187q-30 0 -64 7v109q3 0 7 -0.5t6 -0.5q42 0 57 26.5t15 82.5zM50 641q0 30 22 50t59 20q38 0 61.5 -20t23.5 -50t-23.5 -49t-61.5 -19q-37 0 -59 19t-22 49z" />
    <glyph glyph-name="afii10106" unicode="&#x459;" horiz-adv-x="762" 
d="M459 500v-178q45 7 93 7q98 0 143.5 -41.5t45.5 -113.5q0 -93 -55.5 -137t-181.5 -44q-94 0 -175 7v385h-99q-4 -49 -7 -82t-9.5 -78t-14 -74.5t-20 -62t-28 -51t-37.5 -31t-49 -12.5q-58 0 -82 15l16 108q17 -6 30 -6q28 0 45 32.5t27.5 117.5t14.5 239h343zM519 236
q-35 0 -60 -7v-121q24 -5 57 -5q47 0 69 16.5t22 51.5q0 65 -88 65z" />
    <glyph glyph-name="afii10107" unicode="&#x45a;" horiz-adv-x="784" 
d="M480 500v-179q45 7 94 7q98 0 143.5 -41.5t45.5 -112.5q0 -93 -55.5 -137t-181.5 -44q-96 0 -176 7v199h-163v-199h-130v500h130v-186h163v186h130zM480 228v-119q29 -6 57 -6q48 0 70 16.5t22 51.5q0 64 -89 64q-35 0 -60 -7z" />
    <glyph glyph-name="afii10108" unicode="&#x45b;" horiz-adv-x="550" 
d="M-12 420v80h74v200h130v-200h161v-80h-161v-130h4q52 70 149 70q80 0 116.5 -45t36.5 -158v-157h-130v130q0 62 -17 88.5t-61 26.5q-33 0 -61.5 -22.5t-36.5 -56.5v-166h-130v420h-74z" />
    <glyph glyph-name="afii10109" unicode="&#x45c;" horiz-adv-x="489" 
d="M344 0l-122 207h-35v-207h-130v500h130v-213l31 14l117 199h139l-121 -190l-51 -38l56 -39l135 -233h-149zM191 566l53 154h132v-30l-111 -124h-74z" />
    <glyph glyph-name="afii10110" unicode="&#x45e;" horiz-adv-x="478" 
d="M147 500l92 -281l18 -78h6l13 79l76 280h134l-152 -451q-18 -54 -29.5 -85t-29 -68t-34 -56t-39.5 -32t-50 -13q-52 0 -83 17l24 104q15 -6 30 -6q57 0 77 90l-209 500h156zM75 678l110 26q12 -71 66 -71q56 0 67 70l99 -25q-12 -62 -57.5 -95t-111.5 -33
q-67 0 -114.5 31.5t-58.5 96.5z" />
    <glyph glyph-name="afii10193" unicode="&#x45f;" horiz-adv-x="532" 
d="M204 0h-147v500h130v-385h158v385h130v-500h-148l-15 -175h-88z" />
    <glyph glyph-name="afii10146" unicode="&#x462;" horiz-adv-x="651" 
d="M0 533v115h142v77h137v-77h200v-115h-200v-90q37 8 95 8q254 0 254 -219q0 -118 -74.5 -180t-213.5 -62q-125 0 -198 17v526h-142zM347 112q137 0 137 114q0 63 -37 86.5t-100 23.5q-41 0 -68 -8v-210q22 -6 68 -6z" />
    <glyph glyph-name="afii10194" unicode="&#x463;" horiz-adv-x="539" 
d="M-5 407v93h110v200h130v-200h160v-93h-160v-85q45 7 94 7q98 0 143.5 -41.5t45.5 -113.5q0 -93 -55.5 -137t-181.5 -44q-95 0 -176 7v407h-110zM235 229v-120q29 -6 57 -6q48 0 70 16.5t22 51.5q0 65 -89 65q-35 0 -60 -7z" />
    <glyph glyph-name="afii10147" unicode="&#x472;" horiz-adv-x="670" 
d="M38 350q0 174 77.5 269t219.5 95q147 0 222 -97.5t75 -266.5q0 -174 -78 -269t-219 -95q-148 0 -222.5 97.5t-74.5 266.5zM182 407h306q-7 88 -47.5 136.5t-105.5 48.5q-63 0 -104 -45t-49 -140zM488 297h-306q7 -91 48 -140t105 -49q141 0 153 189z" />
    <glyph glyph-name="afii10195" unicode="&#x473;" horiz-adv-x="537" 
d="M33 250q0 126 62 195t174 69q116 0 175.5 -71t59.5 -193q0 -126 -61.5 -195t-173.5 -69q-116 0 -176 71t-60 193zM167 289h203q-15 115 -101 115q-41 0 -68.5 -27.5t-33.5 -87.5zM370 207h-203q6 -53 33.5 -82t68.5 -29q90 0 101 111z" />
    <glyph glyph-name="afii10148" unicode="&#x474;" horiz-adv-x="629" 
d="M525 510l-178 -515h-98l-262 705h159l140 -411l18 -119h4l16 120l69 229q32 109 71.5 149.5t111.5 40.5q61 0 107 -23l-30 -116q-29 15 -62 15q-22 0 -37.5 -17.5t-28.5 -57.5z" />
    <glyph glyph-name="afii10196" unicode="&#x475;" horiz-adv-x="527" 
d="M427 329l-138 -334h-79l-217 505h151l93 -262l17 -77h4l15 79l23 71q36 114 69 156t96 42q53 0 82 -17l-18 -107q-18 9 -34 9q-37 0 -64 -65z" />
    <glyph glyph-name="uni048A" unicode="&#x48a;" horiz-adv-x="712" 
d="M468 0v388l8 91h-5l-47 -94l-261 -385h-103v700h137v-381l-10 -94h6l49 97l261 378h102v-585h117v-31l-96 -214h-94l45 130h-109zM136 854l124 20q7 -60 74 -60t74 59l111 -17q-20 -121 -186 -121q-87 0 -137.5 27t-59.5 92z" />
    <glyph glyph-name="uni048B" unicode="&#x48b;" horiz-adv-x="590" 
d="M358 0v228l5 71h-3l-43 -73l-178 -226h-82v500h130v-238l-6 -68h4l41 71l180 235h82v-385h107v-31l-96 -214h-94l45 130h-92zM109 678l110 26q12 -71 66 -71q56 0 67 70l99 -25q-12 -62 -57.5 -95t-111.5 -33q-67 0 -114.5 31.5t-58.5 96.5z" />
    <glyph glyph-name="uni048C" unicode="&#x48c;" horiz-adv-x="651" 
d="M0 533v115h142v77h137v-77h200v-115h-200v-90q37 8 95 8q254 0 254 -219q0 -118 -74.5 -180t-213.5 -62q-125 0 -198 17v526h-142zM347 112q137 0 137 114q0 63 -37 86.5t-100 23.5q-41 0 -68 -8v-210q22 -6 68 -6z" />
    <glyph glyph-name="uni048D" unicode="&#x48d;" horiz-adv-x="539" 
d="M-5 407v93h110v200h130v-200h160v-93h-160v-85q45 7 94 7q98 0 143.5 -41.5t45.5 -113.5q0 -93 -55.5 -137t-181.5 -44q-95 0 -176 7v407h-110zM235 229v-120q29 -6 57 -6q48 0 70 16.5t22 51.5q0 65 -89 65q-35 0 -60 -7z" />
    <glyph glyph-name="uni048E" unicode="&#x48e;" horiz-adv-x="572" 
d="M60 0v693q87 17 193 17q294 0 294 -232q0 -128 -92 -192l64 -91l-79 -58l-77 109q-42 -9 -87 -9q-60 0 -79 4v-241h-137zM251 444l52 34l63 -92q37 32 37 94q0 61 -39.5 86.5t-99.5 25.5q-42 0 -67 -5v-227q15 -4 59 -4q32 0 53 5z" />
    <glyph glyph-name="uni048F" unicode="&#x48f;" horiz-adv-x="540" 
d="M57 -200v700h95l15 -60h4q52 74 148 74q94 0 141 -61t47 -190q0 -142 -70 -215l47 -56l-73 -61l-55 67q-41 -12 -78 -12q-53 0 -91 19v-205h-130zM251 158l43 35l48 -60q31 43 31 133q0 138 -93 138q-69 0 -93 -76v-208q30 -24 74 -24q23 0 37 5z" />
    <glyph glyph-name="afii10050" unicode="&#x490;" horiz-adv-x="458" 
d="M466 852l1 -152v-122h-270v-578h-137v700h298l21 152h87z" />
    <glyph glyph-name="afii10098" unicode="&#x491;" horiz-adv-x="376" 
d="M380 385h-189v-385h-134v500h215l21 152h87v-267z" />
    <glyph glyph-name="uni0492" unicode="&#x492;" horiz-adv-x="508" 
d="M503 700v-122h-270v-191h224v-93h-224v-294h-137v294h-96v93h96v313h407z" />
    <glyph glyph-name="uni0493" unicode="&#x493;" horiz-adv-x="414" 
d="M406 500v-115h-189v-111h162v-80h-162v-194h-134v194h-83v80h83v226h323z" />
    <glyph glyph-name="uni0494" unicode="&#x494;" horiz-adv-x="582" 
d="M197 257v-257h-137v700h407v-122h-270v-203q58 22 131 22q218 0 218 -255q0 -269 -241 -269q-49 0 -62 4v118q13 -3 56 -3q103 0 103 144q0 77 -31.5 108t-87.5 31q-50 0 -86 -18z" />
    <glyph glyph-name="uni0495" unicode="&#x495;" horiz-adv-x="534" 
d="M187 147v-147h-130v500h318v-115h-188v-126q55 21 124 21q189 0 189 -238q0 -131 -52 -193t-175 -62q-46 0 -63 5v112q20 -2 57 -2q99 0 99 132q0 131 -99 131q-44 0 -80 -18z" />
    <glyph glyph-name="uni0496" unicode="&#x496;" horiz-adv-x="857" 
d="M350 401v299h130v-311l35 14l145 297h154l-163 -307l-47 -34l57 -42l113 -195h78v-247h-96l-15 125h-61l-161 304h-39v-304h-130v316l-36 -14l-161 -302h-160l183 307l54 39l-52 37l-171 317h159l145 -299h39z" />
    <glyph glyph-name="uni0497" unicode="&#x497;" horiz-adv-x="727" 
d="M280 217l-38 -14l-102 -203h-146l131 229l34 30l-51 38l-103 203h139l93 -203h43v203h124v-213l38 14l94 199h138l-109 -203l-39 -32l51 -40l59 -110h84v-229h-95l-15 114h-61l-102 207h-43v-207h-124v217z" />
    <glyph glyph-name="uni0498" unicode="&#x498;" horiz-adv-x="526" 
d="M147 310h-27v107h24q74 0 96 6q38 8 61.5 29.5t23.5 54.5q0 83 -111 83q-80 0 -143 -35l-35 116q26 14 83 27.5t116 13.5q48 0 87 -8.5t73.5 -27t54 -54t19.5 -85.5q0 -55 -29 -98t-87 -62v-5q66 -13 102 -56.5t36 -114.5q0 -92 -60 -145t-153 -66l-14 -165h-88l-19 164
q-91 9 -139 34l35 119q75 -34 168 -34q51 0 88.5 26t37.5 78q0 48 -36.5 71t-124.5 26q-16 1 -39 1z" />
    <glyph glyph-name="uni0499" unicode="&#x499;" horiz-adv-x="432" 
d="M158 207h-49v91h61q35 0 57.5 14.5t22.5 37.5q0 26 -19.5 37.5t-60.5 11.5q-63 0 -118 -32l-28 100q73 42 185 42q171 0 171 -125q0 -37 -20 -69.5t-58 -46.5v-4q97 -22 97 -124q0 -53 -35.5 -91.5t-104.5 -52.5l-14 -171h-88l-19 167q-66 7 -116 35l28 101
q55 -30 129 -30q90 0 90 58q0 27 -24.5 39t-86.5 12z" />
    <glyph glyph-name="uni049A" unicode="&#x49a;" horiz-adv-x="635" 
d="M440 0l-207 299h-36v-299h-137v700h137v-310l32 14l193 296h156l-204 -294l-54 -38l56 -39l146 -207h106v-247h-96l-15 125h-77z" />
    <glyph glyph-name="uni049B" unicode="&#x49b;" horiz-adv-x="527" 
d="M344 0l-122 207h-35v-207h-130v500h130v-213l31 14l117 199h139l-121 -190l-51 -38l56 -39l68 -118h93v-229h-95l-15 114h-65z" />
    <glyph glyph-name="uni049C" unicode="&#x49c;" horiz-adv-x="716" 
d="M251 172v127h-54v-299h-137v700h137v-310l54 4v133h93v-125l22 2l162 296h148l-171 -294l-54 -38l56 -39l198 -329h-159l-176 299h-26v-127h-93z" />
    <glyph glyph-name="uni049D" unicode="&#x49d;" horiz-adv-x="587" 
d="M229 89v118h-42v-207h-130v500h130v-213l42 4v120h76v-112l22 2l92 199h136l-96 -190l-53 -38l56 -39l110 -233h-144l-97 207h-26v-118h-76z" />
    <glyph glyph-name="uni049E" unicode="&#x49e;" horiz-adv-x="692" 
d="M0 539v104h132v57h137v-57h93v-93h-93v-160l54 14l177 296h150l-188 -294l-64 -38l61 -39l222 -329h-169l-196 299h-47v-299h-137v539h-132z" />
    <glyph glyph-name="uni049F" unicode="&#x49f;" horiz-adv-x="502" 
d="M-14 546v80h82v74h130v-74h153v-80h-153v-259l30 14l114 199h143l-120 -190l-51 -38l55 -39l135 -233h-149l-122 207h-35v-207h-130v546h-82z" />
    <glyph glyph-name="uni04A0" unicode="&#x4a0;" horiz-adv-x="719" 
d="M159 561v17h-159v122h296v-310l32 14l193 296h156l-204 -294l-54 -38l56 -39l233 -329h-169l-207 299h-36v-299h-137v561z" />
    <glyph glyph-name="uni04A1" unicode="&#x4a1;" horiz-adv-x="540" 
d="M235 500v-213l32 14l116 199h140l-121 -190l-52 -38l57 -39l134 -233h-149l-121 207h-36v-207h-130v385h-110v115h240z" />
    <glyph glyph-name="uni04A2" unicode="&#x4a2;" horiz-adv-x="696" 
d="M453 0v293h-256v-293h-137v700h137v-285h256v285h137v-578h88v-247h-96l-15 125h-114z" />
    <glyph glyph-name="uni04A3" unicode="&#x4a3;" 
d="M350 0v197h-163v-197h-130v500h130v-188h163v188h130v-385h78v-229h-95l-15 114h-98z" />
    <glyph glyph-name="uni04A4" unicode="&#x4a4;" horiz-adv-x="851" 
d="M860 700v-122h-270v-578h-137v293h-256v-293h-137v700h137v-285h256v285h407z" />
    <glyph glyph-name="uni04A5" unicode="&#x4a5;" horiz-adv-x="664" 
d="M668 500v-115h-188v-385h-130v197h-163v-197h-130v500h130v-188h163v188h318z" />
    <glyph glyph-name="uni04A6" unicode="&#x4a6;" horiz-adv-x="962" 
d="M579 257v-257h-137v578h-245v-578h-137v700h519v-325q58 22 131 22q218 0 218 -255q0 -269 -241 -269q-49 0 -62 4v118q13 -3 56 -3q103 0 103 144q0 77 -31.5 108t-88.5 31q-49 0 -85 -18z" />
    <glyph glyph-name="uni04A7" unicode="&#x4a7;" horiz-adv-x="822" 
d="M474 147l1 -147h-130v385h-158v-385h-130v500h418v-241q55 21 124 21q82 0 135.5 -54.5t53.5 -183.5q0 -131 -52 -193t-175 -62q-46 0 -63 5v112q20 -2 57 -2q99 0 99 132q0 131 -99 131q-45 0 -81 -18z" />
    <glyph glyph-name="uni04A8" unicode="&#x4a8;" horiz-adv-x="876" 
d="M355 714v-122q-81 0 -127 -59.5t-46 -174.5q0 -111 60.5 -180.5t137.5 -69.5q31 0 44 6q-48 30 -79.5 98.5t-31.5 154.5q0 149 69 231t187 82q122 0 183.5 -77.5t61.5 -204.5q0 -103 -43.5 -182t-96.5 -106q14 -2 24 -2q59 0 103 30l42 -107q-45 -45 -145 -45
q-41 0 -84 13t-67 35q-68 -48 -168 -48q-161 0 -251 97t-90 267q0 175 81.5 269.5t235.5 94.5zM457 371q0 -63 27.5 -123.5t76.5 -94.5q48 34 78.5 98t30.5 141q0 166 -102 166q-52 0 -81.5 -47.5t-29.5 -139.5z" />
    <glyph glyph-name="uni04A9" unicode="&#x4a9;" horiz-adv-x="709" 
d="M272 514v-110q-55 -4 -80.5 -40t-25.5 -110q0 -71 36.5 -114.5t93.5 -43.5q27 0 39 9q-28 21 -47.5 65t-19.5 98q0 41 10.5 80t32.5 74t63 56.5t96 21.5q103 0 149 -57.5t46 -150.5q0 -64 -30.5 -119t-69.5 -79q13 -6 30 -6q41 0 67 26l30 -89q-44 -39 -121 -39t-124 42
q-60 -42 -157 -42q-122 0 -190 72t-68 192q0 252 240 264zM394 268q0 -89 65 -141q33 21 52.5 63t19.5 95q0 46 -17 75.5t-48 29.5q-72 0 -72 -122z" />
    <glyph glyph-name="uni04AA" unicode="&#x4aa;" horiz-adv-x="559" 
d="M506 141l28 -112q-44 -31 -131 -40l-14 -164h-88l-19 168q-111 20 -177.5 108t-66.5 249q0 98 28 171.5t75 114t100.5 59.5t112.5 19q101 0 170 -27l-27 -116q-43 21 -131 21q-86 0 -135 -60.5t-49 -181.5q0 -111 50 -176t144 -65q78 0 130 32z" />
    <glyph glyph-name="uni04AB" unicode="&#x4ab;" horiz-adv-x="433" 
d="M381 130l30 -99q-38 -27 -94 -38l-14 -168h-88l-19 166q-163 30 -163 259q0 126 57.5 195t165.5 69q88 0 149 -32l-31 -106q-48 23 -97 23q-110 0 -110 -149q0 -67 29.5 -108t87.5 -41q54 0 97 29z" />
    <glyph glyph-name="uni04AC" unicode="&#x4ac;" horiz-adv-x="568" 
d="M216 0v578h-205v122h546v-122h-204v-456h87v-247h-96l-15 125h-113z" />
    <glyph glyph-name="uni04AD" unicode="&#x4ad;" horiz-adv-x="418" 
d="M142 0v385h-141v115h416v-115h-141v-270h84v-229h-95l-15 114h-108z" />
    <glyph glyph-name="uni04AE" unicode="&#x4ae;" horiz-adv-x="592" 
d="M228 0v260l-230 440h163l128 -263l14 -74h5l15 76l124 261h147l-229 -439v-261h-137z" />
    <glyph glyph-name="uni04AF" unicode="&#x4af;" horiz-adv-x="491" 
d="M187 -1l-194 501h151l93 -297l18 -93h4l14 95l85 295h140l-181 -501v-199h-130v199z" />
    <glyph glyph-name="uni04B0" unicode="&#x4b0;" horiz-adv-x="592" 
d="M73 203v91h137l-212 406h163l128 -263l14 -74h5l15 76l124 261h147l-212 -406h138v-91h-155v-203h-137v203h-155z" />
    <glyph glyph-name="uni04B1" unicode="&#x4b1;" horiz-adv-x="491" 
d="M67 -80v80h119l-193 500h151l93 -297l18 -93h4l14 95l85 295h140l-181 -500h120v-80h-120v-120h-130v120h-120z" />
    <glyph glyph-name="uni04B2" unicode="&#x4b2;" horiz-adv-x="667" 
d="M10 0l215 356l-195 344h165l108 -202l24 -71l23 71l113 202h149l-202 -337l140 -241h110v-247h-96l-15 125h-90l-123 216l-27 74l-26 -74l-124 -216h-149z" />
    <glyph glyph-name="uni04B3" unicode="&#x4b3;" horiz-adv-x="542" 
d="M8 0l162 256l-150 244h155l65 -107l28 -70l30 70l68 107h141l-151 -240l90 -145h89v-229h-95l-15 114h-59l-77 120l-30 74l-32 -74l-77 -120h-142z" />
    <glyph glyph-name="uni04B4" unicode="&#x4b4;" horiz-adv-x="838" 
d="M820 122v-247h-97l-15 125h-493v578h-204v122h483v-122h-142v-456h241v578h137v-578h90z" />
    <glyph glyph-name="uni04B5" unicode="&#x4b5;" horiz-adv-x="647" 
d="M631 115v-229h-95l-15 114h-379v385h-141v115h376v-115h-105v-270h156v385h130v-385h73z" />
    <glyph glyph-name="uni04B6" unicode="&#x4b6;" horiz-adv-x="651" 
d="M409 0v282q-68 -40 -173 -40q-88 0 -139 46.5t-51 146.5v265h137v-222q0 -61 24 -90t77 -29q87 0 125 34v307h137v-578h87v-247h-96l-15 125h-113z" />
    <glyph glyph-name="uni04B7" unicode="&#x4b7;" horiz-adv-x="546" 
d="M33 500h130v-114q0 -66 13.5 -92t55.5 -26q53 0 86 24v208h130v-385h84v-229h-95l-15 114h-104v196q-54 -38 -129 -38q-78 0 -117 38.5t-39 133.5v170z" />
    <glyph glyph-name="uni04B8" unicode="&#x4b8;" horiz-adv-x="645" 
d="M272 122v121q-10 -1 -30 -1q-196 0 -196 193v265h137v-222q0 -58 21 -86.5t68 -32.5v118h93v-112q56 10 82 28v307h137v-700h-137v282q-27 -16 -82 -28v-132h-93z" />
    <glyph glyph-name="uni04B9" unicode="&#x4b9;" horiz-adv-x="536" 
d="M223 59v100q-12 -1 -35 -1q-78 0 -117 38.5t-39 133.5v170h130v-114q0 -58 13 -85.5t48 -32.5v118h76v-113q34 6 51 18v209h130v-500h-130v196q-15 -11 -51 -22v-115h-76z" />
    <glyph glyph-name="uni04BA" unicode="&#x4ba;" horiz-adv-x="606" 
d="M560 0h-137v222q0 61 -24 90t-77 29q-87 0 -125 -34v-307h-137v700h137v-282q68 40 173 40q88 0 139 -46.5t51 -146.5v-265z" />
    <glyph glyph-name="uni04BB" unicode="&#x4bb;" horiz-adv-x="545" 
d="M493 0h-130v284q0 62 -17.5 88.5t-61.5 26.5q-33 0 -60.5 -22.5t-36.5 -57.5v-319h-130v700h130v-256h4q53 70 148 70q80 0 117 -45t37 -158v-311z" />
    <glyph glyph-name="uni04BC" unicode="&#x4bc;" horiz-adv-x="794" 
d="M746 293h-403q6 -86 53 -135.5t137 -49.5q79 0 153 49l35 -116q-94 -55 -213 -55q-138 0 -216.5 78.5t-85.5 228.5h-32q-89 0 -131.5 40t-42.5 101v11q3 51 24 76h115q-20 -23 -20 -57v-5q3 -60 87 -51q9 142 81.5 224t201.5 82q132 0 199.5 -76.5t67.5 -222.5
q0 -59 -10 -122zM343 408h279q3 20 3 39q0 66 -33.5 109t-98.5 43q-144 0 -150 -191z" />
    <glyph glyph-name="uni04BD" unicode="&#x4bd;" horiz-adv-x="647" 
d="M553 128l43 -85q-31 -25 -83 -41t-108 -16q-213 0 -232 222h-7q-77 0 -118.5 35.5t-41.5 100.5v7q1 42 29 76h109q-30 -27 -30 -69q0 -48 62 -48q13 100 74 152t162 52q86 0 143 -47.5t57 -154.5q0 -45 -10 -95h-299q3 -65 32.5 -96t94.5 -31q74 0 123 38zM410 410
q-93 0 -103 -112h184q0 2 0.5 8t0.5 8q0 96 -82 96z" />
    <glyph glyph-name="uni04BE" unicode="&#x4be;" horiz-adv-x="794" 
d="M746 293h-403q6 -86 53 -135.5t137 -49.5q79 0 153 49l35 -116q-76 -43 -166 -52l-14 -164h-88l-19 168q-104 19 -163 95t-65 205h-32q-92 0 -133 43t-41 109q3 51 24 76h115q-20 -23 -20 -57v-5q3 -60 87 -51q9 142 81.5 224t201.5 82q132 0 199.5 -76.5t67.5 -222.5
q0 -59 -10 -122zM343 408h279q3 20 3 39q0 66 -33.5 109t-98.5 43q-144 0 -150 -191z" />
    <glyph glyph-name="uni04BF" unicode="&#x4bf;" horiz-adv-x="647" 
d="M553 128l43 -85q-48 -38 -131 -52l-14 -166h-88l-19 167q-155 29 -171 216h-7q-77 0 -118.5 35.5t-41.5 100.5v7q1 42 29 76h109q-30 -27 -30 -69q0 -48 62 -48q13 100 74 152t162 52q86 0 143 -47.5t57 -154.5q0 -45 -10 -95h-299q3 -65 32.5 -96t94.5 -31q74 0 123 38z
M410 410q-93 0 -103 -112h184q0 2 0.5 8t0.5 8q0 96 -82 96z" />
    <glyph glyph-name="uni04C0" unicode="&#x4c0;" horiz-adv-x="285" 
d="M74 0v700h137v-700h-137z" />
    <glyph glyph-name="uni04C3" unicode="&#x4c3;" horiz-adv-x="611" 
d="M424 76q0 223 -191 223h-36v-299h-137v700h137v-310l32 14l193 296h156l-197 -280l-61 -40h52q97 -25 139.5 -90.5t42.5 -195.5v-27q0 -137 -55 -205.5t-154 -68.5q-29 0 -60 6v111h15q64 0 94 39.5t30 126.5z" />
    <glyph glyph-name="uni04C4" unicode="&#x4c4;" horiz-adv-x="501" 
d="M338 27q0 87 -28 128.5t-88 46.5h-35v-202h-130v500h130v-217l31 14l117 203h139l-122 -197l-46 -32l41 -2q121 -33 121 -224v-17q0 -237 -178 -237q-33 0 -65 7v110q16 -2 23 -2q90 0 90 121z" />
    <glyph glyph-name="uni04C5" unicode="&#x4c5;" horiz-adv-x="651" 
d="M426 0v578h-149q-8 -214 -24.5 -327.5t-56.5 -179.5q-48 -78 -140 -78q-38 0 -69 14l15 118q16 -4 24 -4q37 0 58 35q59 93 66 544h413v-585h98v-31l-96 -214h-94l45 130h-90z" />
    <glyph glyph-name="uni04C6" unicode="&#x4c6;" horiz-adv-x="550" 
d="M329 0v385h-99q-4 -49 -7 -82t-9.5 -78t-14 -74.5t-20 -62t-28 -51t-37.5 -31t-49 -12.5q-58 0 -82 15l16 108q17 -6 30 -6q28 0 45 32.5t27.5 117.5t14.5 239h343v-385h95v-31l-96 -214h-94l45 130h-80z" />
    <glyph glyph-name="uni04C7" unicode="&#x4c7;" horiz-adv-x="651" 
d="M590 700v-721q0 -187 -150 -187q-32 0 -64 7v109q3 0 8 -0.5t7 -0.5q40 0 51 21.5t11 71.5v293h-256v-293h-137v700h137v-285h256v285h137z" />
    <glyph glyph-name="uni04C8" unicode="&#x4c8;" horiz-adv-x="537" 
d="M350 0v197h-163v-197h-130v500h130v-188h163v188h130v-521q0 -187 -151 -187q-30 0 -64 7v109q3 0 8 -0.5t7 -0.5q41 0 55.5 22.5t14.5 70.5z" />
    <glyph glyph-name="uni04C9" unicode="&#x4c9;" horiz-adv-x="683" 
d="M453 0v293h-256v-293h-137v700h137v-285h256v285h137v-585h103v-31l-96 -214h-94l45 130h-95z" />
    <glyph glyph-name="uni04CA" unicode="&#x4ca;" horiz-adv-x="576" 
d="M350 0v197h-163v-197h-130v500h130v-188h163v188h130v-385h101v-31l-96 -214h-94l45 130h-86z" />
    <glyph glyph-name="uni04CB" unicode="&#x4cb;" horiz-adv-x="606" 
d="M46 700h137v-222q0 -61 24 -90t77 -29q87 0 125 34v307h137v-700h-112l-15 -125h-96v247h86v160q-68 -40 -173 -40q-88 0 -139 46.5t-51 146.5v265z" />
    <glyph glyph-name="uni04CC" unicode="&#x4cc;" horiz-adv-x="505" 
d="M318 98v109q-47 -33 -129 -33q-156 0 -156 167v159h130v-103q0 -61 14 -87t55 -26q53 0 86 24v192h130v-500h-120l-15 -114h-95v212h100z" />
    <glyph glyph-name="uni04CD" unicode="&#x4cd;" horiz-adv-x="846" 
d="M603 0v363l15 139h-6l-43 -112l-149 -261h-44l-157 262l-44 111h-5l20 -138v-364h-130v700h125l187 -320l33 -80h4l30 82l177 318h124v-585h116v-31l-96 -214h-94l45 130h-108z" />
    <glyph glyph-name="uni04CE" unicode="&#x4ce;" horiz-adv-x="710" 
d="M485 0v229l8 104h-5l-40 -86l-94 -155h-47l-103 155l-38 86h-6l13 -103v-230h-116v500h135l115 -188l28 -63h4l29 65l106 186h136v-385h105v-31l-96 -214h-94l45 130h-85z" />
    <glyph glyph-name="uni04CF" unicode="&#x4cf;" horiz-adv-x="262" 
d="M66 0v700h130v-700h-130z" />
    <glyph glyph-name="uni04D0" unicode="&#x4d0;" horiz-adv-x="605" 
d="M461 0l-56 155h-215l-53 -155h-137l252 705h101l252 -705h-144zM276 420l-51 -155h150l-52 156l-21 110h-5zM105 854l124 20q7 -60 74 -60t74 59l111 -17q-20 -121 -186 -121q-87 0 -137.5 27t-59.5 92z" />
    <glyph glyph-name="uni04D1" unicode="&#x4d1;" horiz-adv-x="496" 
d="M85 374l-31 97q86 39 210 39q99 0 139.5 -44.5t40.5 -130.5q0 -34 -3.5 -100.5t-3.5 -98.5q0 -83 18 -137h-106l-21 69h-5q-50 -76 -147 -76q-69 0 -111 40.5t-42 105.5q0 161 253 161q25 0 38 -1q2 13 2 34q0 38 -17.5 54.5t-59.5 16.5q-91 0 -154 -29zM219 99
q67 0 96 55v65q-26 2 -38 2q-120 0 -120 -63q0 -28 16.5 -43.5t45.5 -15.5zM77 678l110 26q12 -71 66 -71q56 0 67 70l99 -25q-12 -62 -57.5 -95t-111.5 -33q-67 0 -114.5 31.5t-58.5 96.5z" />
    <glyph glyph-name="uni04D2" unicode="&#x4d2;" horiz-adv-x="605" 
d="M461 0l-56 155h-215l-53 -155h-137l252 705h101l252 -705h-144zM276 420l-51 -155h150l-52 156l-21 110h-5zM119 798q0 58 76 58q75 0 75 -58q0 -57 -75 -57q-76 0 -76 57zM333 798q0 58 75 58q76 0 76 -58q0 -57 -76 -57q-75 0 -75 57z" />
    <glyph glyph-name="uni04D3" unicode="&#x4d3;" horiz-adv-x="496" 
d="M85 374l-31 97q86 39 210 39q99 0 139.5 -44.5t40.5 -130.5q0 -34 -3.5 -100.5t-3.5 -98.5q0 -83 18 -137h-106l-21 69h-5q-50 -76 -147 -76q-69 0 -111 40.5t-42 105.5q0 161 253 161q25 0 38 -1q2 13 2 34q0 38 -17.5 54.5t-59.5 16.5q-91 0 -154 -29zM219 99
q67 0 96 55v65q-26 2 -38 2q-120 0 -120 -63q0 -28 16.5 -43.5t45.5 -15.5zM67 631q0 32 19.5 51t51.5 19q31 0 50 -19t19 -51q0 -30 -19 -49t-50 -19q-32 0 -51.5 19t-19.5 49zM286 631q0 32 19 51t50 19q32 0 51.5 -19.5t19.5 -50.5q0 -30 -20 -49t-51 -19t-50 19t-19 49z
" />
    <glyph glyph-name="uni04D4" unicode="&#x4d4;" horiz-adv-x="862" 
d="M400 532h-6l-36 -103l-84 -149h126v252zM400 0v170h-186l-99 -170h-144l424 700h419v-122h-277v-163h252v-122h-252v-171h282v-122h-419z" />
    <glyph glyph-name="uni04D5" unicode="&#x4d5;" horiz-adv-x="785" 
d="M219 99q67 0 96 55v65q-68 6 -113 -8.5t-45 -52.5q0 -28 16.5 -43.5t45.5 -15.5zM355 76h-5q-67 -84 -174 -84q-69 0 -111 40.5t-42 105.5q0 173 290 160q2 13 2 35q0 37 -17 53.5t-59 16.5q-77 0 -151 -36l-34 94q91 49 210 49q95 0 134 -54q52 58 152 58q41 0 75 -10
t63 -32.5t45.5 -63t16.5 -96.5q0 -44 -10 -95h-301q4 -65 34 -96t95 -31q74 0 123 38l43 -85q-31 -25 -83 -41t-108 -16q-131 0 -188 90zM548 410q-95 0 -105 -112h187q6 112 -82 112z" />
    <glyph glyph-name="uni04D6" unicode="&#x4d6;" horiz-adv-x="522" 
d="M60 0v700h415v-122h-278v-163h253v-122h-253v-171h283v-122h-420zM74 854l124 20q7 -60 74 -60t74 59l111 -17q-20 -121 -186 -121q-87 0 -137.5 27t-59.5 92z" />
    <glyph glyph-name="uni04D7" unicode="&#x4d7;" horiz-adv-x="508" 
d="M414 128l43 -85q-31 -25 -83 -41t-108 -16q-118 0 -175.5 68.5t-57.5 195.5q0 130 62.5 197t177.5 67q86 0 143 -47.5t57 -154.5q0 -45 -10 -95h-300q3 -64 33 -95.5t95 -31.5q74 0 123 38zM271 410q-95 0 -105 -112h186q0 2 0.5 8t0.5 8q0 96 -82 96zM89 678l110 26
q12 -71 66 -71q56 0 67 70l99 -25q-12 -62 -57.5 -95t-111.5 -33q-67 0 -114.5 31.5t-58.5 96.5z" />
    <glyph glyph-name="uni04D8" unicode="&#x4d8;" horiz-adv-x="630" 
d="M455 296h-271q-3 -19 -3 -38q0 -67 32.5 -113t95.5 -46q70 0 108 50.5t38 146.5zM47 409h409q-13 183 -183 183q-80 0 -155 -45l-29 117q33 20 91 35t116 15q296 0 296 -364t-289 -364q-132 0 -199 81.5t-67 222.5q0 59 10 119z" />
    <glyph glyph-name="afii10846" unicode="&#x4d9;" horiz-adv-x="508" 
d="M96 369l-46 88q31 25 83 41t108 16q117 0 175 -70.5t58 -193.5q0 -125 -62 -194.5t-169 -69.5q-88 0 -148.5 51.5t-60.5 163.5q0 42 10 91h303q-5 62 -35 90t-95 28t-121 -41zM242 90q48 0 74.5 33.5t27.5 87.5h-189q-5 -55 18.5 -88t68.5 -33z" />
    <glyph glyph-name="uni04DA" unicode="&#x4da;" horiz-adv-x="630" 
d="M455 296h-271q-3 -19 -3 -38q0 -67 32.5 -113t95.5 -46q70 0 108 50.5t38 146.5zM47 409h409q-13 183 -183 183q-80 0 -155 -45l-29 117q33 20 91 35t116 15q296 0 296 -364t-289 -364q-132 0 -199 81.5t-67 222.5q0 59 10 119zM127 798q0 58 76 58q75 0 75 -58
q0 -57 -75 -57q-76 0 -76 57zM341 798q0 58 75 58q76 0 76 -58q0 -57 -76 -57q-75 0 -75 57z" />
    <glyph glyph-name="uni04DB" unicode="&#x4db;" horiz-adv-x="508" 
d="M94 369l-46 88q31 25 83 41t108 16q117 0 175 -70.5t58 -193.5q0 -125 -62 -194.5t-169 -69.5q-88 0 -148.5 51.5t-60.5 163.5q0 42 10 91h303q-5 62 -35 90t-95 28t-121 -41zM240 90q48 0 74.5 33.5t27.5 87.5h-189q-5 -55 18.5 -88t68.5 -33zM64 631q0 32 19.5 51
t51.5 19q31 0 50 -19t19 -51q0 -30 -19 -49t-50 -19q-32 0 -51.5 19t-19.5 49zM283 631q0 32 19 51t50 19q32 0 51.5 -19.5t19.5 -50.5q0 -30 -20 -49t-51 -19t-50 19t-19 49z" />
    <glyph glyph-name="uni04DC" unicode="&#x4dc;" horiz-adv-x="839" 
d="M350 401v299h130v-311l35 14l145 297h154l-163 -307l-47 -34l57 -42l184 -317h-165l-161 304h-39v-304h-130v316l-36 -14l-161 -302h-160l183 307l54 39l-52 37l-171 317h159l145 -299h39zM235 798q0 58 76 58q75 0 75 -58q0 -57 -75 -57q-76 0 -76 57zM449 798
q0 58 75 58q76 0 76 -58q0 -57 -76 -57q-75 0 -75 57z" />
    <glyph glyph-name="uni04DD" unicode="&#x4dd;" horiz-adv-x="693" 
d="M280 217l-38 -14l-102 -203h-146l131 229l34 30l-51 38l-103 203h139l93 -203h43v203h124v-213l38 14l94 199h138l-109 -203l-39 -32l51 -40l121 -225h-149l-102 207h-43v-207h-124v217zM165 631q0 32 19.5 51t51.5 19q31 0 50 -19t19 -51q0 -30 -19 -49t-50 -19
q-32 0 -51.5 19t-19.5 49zM384 631q0 32 19 51t50 19q32 0 51.5 -19.5t19.5 -50.5q0 -30 -20 -49t-51 -19t-50 19t-19 49z" />
    <glyph glyph-name="uni04DE" unicode="&#x4de;" horiz-adv-x="526" 
d="M147 310h-27v107h24q74 0 96 6q38 8 61.5 29.5t23.5 54.5q0 83 -111 83q-80 0 -143 -35l-35 116q26 14 83 27.5t116 13.5q48 0 87 -8.5t73.5 -27t54 -54t19.5 -85.5q0 -55 -29 -98t-87 -62v-5q66 -13 102 -56.5t36 -114.5q0 -106 -78.5 -160.5t-191.5 -54.5
q-131 0 -203 37l35 119q75 -34 168 -34q51 0 88.5 26t37.5 78q0 49 -36.5 72.5t-124.5 24.5q-8 0 -18 0.5t-21 0.5zM57 798q0 58 76 58q75 0 75 -58q0 -57 -75 -57q-76 0 -76 57zM271 798q0 58 75 58q76 0 76 -58q0 -57 -76 -57q-75 0 -75 57z" />
    <glyph glyph-name="uni04DF" unicode="&#x4df;" horiz-adv-x="432" 
d="M158 207h-49v91h61q35 0 57.5 14.5t22.5 36.5q0 50 -81 50q-64 0 -117 -31l-28 99q73 42 185 42q171 0 171 -125q0 -37 -20 -69.5t-58 -46.5v-4q97 -22 97 -124q0 -67 -54.5 -109t-159.5 -42q-95 0 -163 38l28 101q53 -29 128 -29q91 0 91 58q0 27 -24.5 38.5t-86.5 11.5
zM18 631q0 32 19.5 51t51.5 19q31 0 50 -19t19 -51q0 -30 -19 -49t-50 -19q-32 0 -51.5 19t-19.5 49zM237 631q0 32 19 51t50 19q32 0 51.5 -19.5t19.5 -50.5q0 -30 -20 -49t-51 -19t-50 19t-19 49z" />
    <glyph glyph-name="uni04E0" unicode="&#x4e0;" horiz-adv-x="548" 
d="M222 108q62 0 102.5 28.5t40.5 80.5q0 55 -43 79t-130 24h-81v58l156 174l45 43l-59 -12h-207v117h431v-75l-170 -188l-45 -32v-4l46 10q91 -1 144.5 -50.5t53.5 -143.5q0 -107 -74.5 -169t-200.5 -62q-50 0 -107.5 10t-89.5 29l32 120q28 -15 73 -26t83 -11z" />
    <glyph glyph-name="uni04E1" unicode="&#x4e1;" horiz-adv-x="484" 
d="M191 -102q60 0 96.5 29t36.5 80q0 111 -160 111h-64v53l117 177l54 49l-73 -7h-171v110h396v-70l-139 -185l-40 -29v-2l31 3q72 0 125.5 -54t53.5 -140q0 -109 -74 -172t-197 -63q-101 0 -173 42l46 103q66 -35 135 -35z" />
    <glyph glyph-name="uni04E2" unicode="&#x4e2;" horiz-adv-x="666" 
d="M468 0v388l8 91h-5l-47 -94l-261 -385h-103v700h137v-381l-10 -94h6l49 97l261 378h102v-700h-137zM166 767v89h343v-89h-343z" />
    <glyph glyph-name="uni04E3" unicode="&#x4e3;" horiz-adv-x="545" 
d="M358 0v228l5 71h-3l-43 -73l-178 -226h-82v500h130v-238l-6 -68h4l41 71l180 235h82v-500h-130zM114 566v92h323v-92h-323z" />
    <glyph glyph-name="uni04E4" unicode="&#x4e4;" horiz-adv-x="666" 
d="M468 0v388l8 91h-5l-47 -94l-261 -385h-103v700h137v-381l-10 -94h6l49 97l261 378h102v-700h-137zM150 798q0 58 76 58q75 0 75 -58q0 -57 -75 -57q-76 0 -76 57zM364 798q0 58 75 58q76 0 76 -58q0 -57 -76 -57q-75 0 -75 57z" />
    <glyph glyph-name="uni04E5" unicode="&#x4e5;" horiz-adv-x="545" 
d="M358 0v228l5 71h-3l-43 -73l-178 -226h-82v500h130v-238l-6 -68h4l41 71l180 235h82v-500h-130zM103 631q0 32 19.5 51t51.5 19q31 0 50 -19t19 -51q0 -30 -19 -49t-50 -19q-32 0 -51.5 19t-19.5 49zM322 631q0 32 19 51t50 19q32 0 51.5 -19.5t19.5 -50.5q0 -30 -20 -49
t-51 -19t-50 19t-19 49z" />
    <glyph glyph-name="uni04E6" unicode="&#x4e6;" horiz-adv-x="670" 
d="M38 350q0 174 77.5 269t219.5 95q147 0 222 -97.5t75 -266.5q0 -174 -78 -269t-219 -95q-148 0 -222.5 97.5t-74.5 266.5zM182 350q0 -111 38 -176.5t115 -65.5q153 0 153 242q0 110 -37 176t-116 66q-153 0 -153 -242zM152 798q0 58 76 58q75 0 75 -58q0 -57 -75 -57
q-76 0 -76 57zM366 798q0 58 75 58q76 0 76 -58q0 -57 -76 -57q-75 0 -75 57z" />
    <glyph glyph-name="uni04E7" unicode="&#x4e7;" horiz-adv-x="537" 
d="M33 250q0 126 62 195t174 69q116 0 175.5 -71t59.5 -193q0 -126 -61.5 -195t-173.5 -69q-116 0 -176 71t-60 193zM167 250q0 -70 25 -112t77 -42q101 0 101 154t-101 154q-102 0 -102 -154zM88 631q0 32 19.5 51t51.5 19q31 0 50 -19t19 -51q0 -30 -19 -49t-50 -19
q-32 0 -51.5 19t-19.5 49zM307 631q0 32 19 51t50 19q32 0 51.5 -19.5t19.5 -50.5q0 -30 -20 -49t-51 -19t-50 19t-19 49z" />
    <glyph glyph-name="uni04E8" unicode="&#x4e8;" horiz-adv-x="670" 
d="M38 350q0 174 77.5 269t219.5 95q147 0 222 -97.5t75 -266.5q0 -174 -78 -269t-219 -95q-148 0 -222.5 97.5t-74.5 266.5zM182 407h306q-7 88 -47.5 136.5t-105.5 48.5q-63 0 -104 -45t-49 -140zM488 297h-306q7 -91 48 -140t105 -49q141 0 153 189z" />
    <glyph glyph-name="uni04E9" unicode="&#x4e9;" horiz-adv-x="537" 
d="M33 250q0 126 62 195t174 69q116 0 175.5 -71t59.5 -193q0 -126 -61.5 -195t-173.5 -69q-116 0 -176 71t-60 193zM167 289h203q-15 115 -101 115q-41 0 -68.5 -27.5t-33.5 -87.5zM370 207h-203q6 -53 33.5 -82t68.5 -29q90 0 101 111z" />
    <glyph glyph-name="uni04EA" unicode="&#x4ea;" horiz-adv-x="670" 
d="M38 350q0 174 77.5 269t219.5 95q147 0 222 -97.5t75 -266.5q0 -174 -78 -269t-219 -95q-148 0 -222.5 97.5t-74.5 266.5zM182 407h306q-7 88 -47.5 136.5t-105.5 48.5q-63 0 -104 -45t-49 -140zM488 297h-306q7 -91 48 -140t105 -49q141 0 153 189zM153 798q0 58 76 58
q75 0 75 -58q0 -57 -75 -57q-76 0 -76 57zM367 798q0 58 75 58q76 0 76 -58q0 -57 -76 -57q-75 0 -75 57z" />
    <glyph glyph-name="uni04EB" unicode="&#x4eb;" horiz-adv-x="537" 
d="M33 250q0 126 62 195t174 69q116 0 175.5 -71t59.5 -193q0 -126 -61.5 -195t-173.5 -69q-116 0 -176 71t-60 193zM167 289h203q-15 115 -101 115q-41 0 -68.5 -27.5t-33.5 -87.5zM370 207h-203q6 -53 33.5 -82t68.5 -29q90 0 101 111zM88 631q0 32 19.5 51t51.5 19
q31 0 50 -19t19 -51q0 -30 -19 -49t-50 -19q-32 0 -51.5 19t-19.5 49zM307 631q0 32 19 51t50 19q32 0 51.5 -19.5t19.5 -50.5q0 -30 -20 -49t-51 -19t-50 19t-19 49z" />
    <glyph glyph-name="uni04EC" unicode="&#x4ec;" horiz-adv-x="574" 
d="M130 300v110h269q-6 83 -54 132.5t-133 49.5q-91 0 -159 -37l-29 116q82 43 193 43q149 0 234 -86.5t85 -277.5q0 -100 -27.5 -173.5t-76.5 -113.5t-107 -58.5t-127 -18.5q-106 0 -178 33l36 119q62 -30 152 -30q81 0 133 47.5t59 144.5h-270zM47 798q0 58 76 58
q75 0 75 -58q0 -57 -75 -57q-76 0 -76 57zM261 798q0 58 75 58q76 0 76 -58q0 -57 -76 -57q-75 0 -75 57z" />
    <glyph glyph-name="uni04ED" unicode="&#x4ed;" horiz-adv-x="459" 
d="M109 207v93h186q-11 104 -116 104q-64 0 -118 -30l-35 94q66 46 178 46q222 0 222 -264q0 -130 -61 -197t-171 -67q-113 0 -171 36l32 102q51 -28 118 -28q62 0 90 26.5t33 84.5h-187zM23 631q0 32 19.5 51t51.5 19q31 0 50 -19t19 -51q0 -30 -19 -49t-50 -19
q-32 0 -51.5 19t-19.5 49zM242 631q0 32 19 51t50 19q32 0 51.5 -19.5t19.5 -50.5q0 -30 -20 -49t-51 -19t-50 19t-19 49z" />
    <glyph glyph-name="uni04EE" unicode="&#x4ee;" horiz-adv-x="568" 
d="M152 700l142 -309l20 -91h6l16 94l105 306h141l-186 -484q-48 -123 -90.5 -173t-116.5 -50q-60 0 -98 24l35 111q25 -13 61 -13q47 0 66 74l-262 511h161zM126 767v89h343v-89h-343z" />
    <glyph glyph-name="uni04EF" unicode="&#x4ef;" horiz-adv-x="478" 
d="M147 500l92 -281l18 -78h6l13 79l76 280h134l-152 -451q-18 -54 -29.5 -85t-29 -68t-34 -56t-39.5 -32t-50 -13q-52 0 -83 17l24 104q15 -6 30 -6q57 0 77 90l-209 500h156zM86 566v92h323v-92h-323z" />
    <glyph glyph-name="uni04F0" unicode="&#x4f0;" horiz-adv-x="568" 
d="M152 700l142 -309l20 -91h6l16 94l105 306h141l-186 -484q-48 -123 -90.5 -173t-116.5 -50q-60 0 -98 24l35 111q25 -13 61 -13q47 0 66 74l-262 511h161zM123 798q0 58 76 58q75 0 75 -58q0 -57 -75 -57q-76 0 -76 57zM337 798q0 58 75 58q76 0 76 -58q0 -57 -76 -57
q-75 0 -75 57z" />
    <glyph glyph-name="uni04F1" unicode="&#x4f1;" horiz-adv-x="478" 
d="M147 500l92 -281l18 -78h6l13 79l76 280h134l-152 -451q-18 -54 -29.5 -85t-29 -68t-34 -56t-39.5 -32t-50 -13q-52 0 -83 17l24 104q15 -6 30 -6q57 0 77 90l-209 500h156zM72 631q0 32 19.5 51t51.5 19q31 0 50 -19t19 -51q0 -30 -19 -49t-50 -19q-32 0 -51.5 19
t-19.5 49zM291 631q0 32 19 51t50 19q32 0 51.5 -19.5t19.5 -50.5q0 -30 -20 -49t-51 -19t-50 19t-19 49z" />
    <glyph glyph-name="uni04F2" unicode="&#x4f2;" horiz-adv-x="568" 
d="M152 700l142 -309l20 -91h6l16 94l105 306h141l-186 -484q-48 -123 -90.5 -173t-116.5 -50q-60 0 -98 24l35 111q25 -13 61 -13q47 0 66 74l-262 511h161zM143 741l59 109h134v-16l-100 -93h-93zM303 741l97 109h140v-16l-143 -93h-94z" />
    <glyph glyph-name="uni04F3" unicode="&#x4f3;" horiz-adv-x="478" 
d="M147 500l92 -281l18 -78h6l13 79l76 280h134l-152 -451q-18 -54 -29.5 -85t-29 -68t-34 -56t-39.5 -32t-50 -13q-52 0 -83 17l24 104q15 -6 30 -6q57 0 77 90l-209 500h156zM126 571l35 129h119v-16l-76 -113h-78zM266 571l73 129h126v-16l-118 -113h-81z" />
    <glyph glyph-name="uni04F4" unicode="&#x4f4;" horiz-adv-x="606" 
d="M46 700h137v-222q0 -61 24 -90t77 -29q87 0 125 34v307h137v-700h-137v282q-68 -40 -173 -40q-88 0 -139 46.5t-51 146.5v265zM121 798q0 58 76 58q75 0 75 -58q0 -57 -75 -57q-76 0 -76 57zM335 798q0 58 75 58q76 0 76 -58q0 -57 -76 -57q-75 0 -75 57z" />
    <glyph glyph-name="uni04F5" unicode="&#x4f5;" horiz-adv-x="505" 
d="M33 500h130v-114q0 -66 13.5 -92t55.5 -26q53 0 86 24v208h130v-500h-130v196q-54 -38 -129 -38q-78 0 -117 38.5t-39 133.5v170zM60 631q0 32 19.5 51t51.5 19q31 0 50 -19t19 -51q0 -30 -19 -49t-50 -19q-32 0 -51.5 19t-19.5 49zM279 631q0 32 19 51t50 19
q32 0 51.5 -19.5t19.5 -50.5q0 -30 -20 -49t-51 -19t-50 19t-19 49z" />
    <glyph glyph-name="uni04F6" unicode="&#x4f6;" horiz-adv-x="458" 
d="M467 700v-122h-270v-456h88v-247h-96l-15 125h-114v700h407z" />
    <glyph glyph-name="uni04F7" unicode="&#x4f7;" horiz-adv-x="376" 
d="M57 0v500h323v-115h-189v-270h90v-229h-95l-15 114h-114z" />
    <glyph glyph-name="uni04F8" unicode="&#x4f8;" horiz-adv-x="798" 
d="M600 0v700h137v-700h-137zM60 7v693h137v-251q37 8 82 8q249 0 249 -224q0 -243 -282 -243q-116 0 -186 17zM256 112q128 0 128 115q0 61 -33.5 84.5t-93.5 23.5q-40 0 -60 -8v-209q21 -6 59 -6zM212 798q0 58 76 58q75 0 75 -58q0 -57 -75 -57q-76 0 -76 57zM426 798
q0 58 75 58q76 0 76 -58q0 -57 -76 -57q-75 0 -75 57z" />
    <glyph glyph-name="uni04F9" unicode="&#x4f9;" horiz-adv-x="703" 
d="M187 229v-120q30 -6 57 -6q44 0 62.5 16t18.5 52q0 65 -78 65q-33 0 -60 -7zM187 500v-178q45 7 93 7q179 0 179 -155q0 -93 -52.5 -137t-174.5 -44q-94 0 -175 7v500h130zM516 0v500h130v-500h-130zM164 631q0 32 19.5 51t51.5 19q31 0 50 -19t19 -51q0 -30 -19 -49
t-50 -19q-32 0 -51.5 19t-19.5 49zM383 631q0 32 19 51t50 19q32 0 51.5 -19.5t19.5 -50.5q0 -30 -20 -49t-51 -19t-50 19t-19 49z" />
    <glyph glyph-name="uni04FC" unicode="&#x4fc;" horiz-adv-x="633" 
d="M452 -21q0 49 -44 121l-71 116l-28 74l-26 -74l-124 -216h-149l215 356l-195 344h165l108 -202l24 -71l23 71l113 202h149l-202 -337l130 -213q53 -88 53 -170q0 -91 -41 -139t-121 -48q-33 0 -65 7v109q3 0 8 -0.5t7 -0.5q71 0 71 71z" />
    <glyph glyph-name="uni04FD" unicode="&#x4fd;" horiz-adv-x="525" 
d="M356 260l87 -132q52 -80 52 -153q0 -183 -156 -183q-31 0 -65 7v104q7 -1 19 -1q72 0 72 63v3q0 44 -39 101l-34 51l-34 72l-31 -72l-77 -120h-142l162 256l-150 244h155l65 -107l28 -70l30 70l68 107h141z" />
    <glyph glyph-name="uni04FE" unicode="&#x4fe;" horiz-adv-x="633" 
d="M43 300v115h148l-161 285h165l108 -202l24 -71l23 71l113 202h149l-171 -285h152v-115h-146l175 -300h-163l-123 216l-27 74l-26 -74l-124 -216h-149l181 300h-148z" />
    <glyph glyph-name="uni04FF" unicode="&#x4ff;" horiz-adv-x="525" 
d="M32 206v104h105l-117 190h155l65 -107l28 -70l30 70l68 107h141l-120 -190h116v-104h-114l128 -206h-151l-77 120l-30 74l-32 -74l-77 -120h-142l130 206h-106z" />
    <glyph glyph-name="uni0510" unicode="&#x510;" horiz-adv-x="526" 
d="M411 310h-27q-10 0 -21 -0.5t-18 -0.5q-161 -3 -161 -100q0 -49 36.5 -75t93.5 -26q85 0 157 36l37 -108q-31 -20 -88 -35t-117 -15q-124 0 -193.5 52t-69.5 157q0 72 35.5 117t100.5 58v5q-56 21 -85 64.5t-29 97.5q0 62 34.5 102.5t86.5 56.5t120 16q54 0 109.5 -14
t81.5 -29l-36 -109q-71 30 -137 30q-115 0 -115 -78q0 -36 26.5 -58.5t65.5 -30.5q22 -6 89 -6h24v-107z" />
    <glyph glyph-name="uni0511" unicode="&#x511;" horiz-adv-x="432" 
d="M323 207h-49q-63 0 -87 -12t-24 -39t23 -42t67 -15q76 0 129 32l28 -101q-70 -41 -163 -41q-106 0 -160 41t-54 110q0 96 97 124v4q-38 14 -58 44.5t-20 67.5q0 63 45.5 96t125.5 33q112 0 185 -42l-28 -99q-53 31 -118 31q-41 0 -60.5 -11.5t-19.5 -37.5
q0 -23 22.5 -37.5t57.5 -14.5h61v-91z" />
    <glyph glyph-name="uni0512" unicode="&#x512;" horiz-adv-x="634" 
d="M574 700v-721q0 -187 -150 -187q-32 0 -64 7v109q3 0 8.5 -0.5t7.5 -0.5q39 0 50 21t11 72v578h-149q-8 -204 -26 -322t-58 -185q-46 -78 -137 -78q-47 0 -80 15l22 117q13 -5 27 -5q36 0 59 36q59 91 66 544h413z" />
    <glyph glyph-name="uni0513" unicode="&#x513;" horiz-adv-x="515" 
d="M329 0v385h-99q-4 -49 -7 -82t-9.5 -78t-14 -74.5t-20 -62t-28 -51t-37.5 -31t-49 -12.5q-58 0 -82 15l16 108q17 -6 30 -6q28 0 45 32.5t27.5 117.5t14.5 239h343v-521q0 -187 -151 -187q-30 0 -64 7v109q2 0 7 -0.5t8 -0.5q41 0 55.5 22.5t14.5 70.5z" />
    <glyph glyph-name="uni051A" unicode="&#x51a;" horiz-adv-x="670" 
d="M702 -83v-119q-48 -13 -97 -13q-72 0 -192 33t-166 33q-23 0 -46 -6v118q29 6 58 6q53 0 168 -31.5t183 -31.5q48 0 92 11zM38 350q0 174 77.5 269t219.5 95q147 0 222 -97.5t75 -266.5q0 -174 -78 -269t-219 -95q-148 0 -222.5 97.5t-74.5 266.5zM182 350
q0 -111 38 -176.5t115 -65.5q153 0 153 242q0 110 -37 176t-116 66q-153 0 -153 -242z" />
    <glyph glyph-name="uni051B" unicode="&#x51b;" horiz-adv-x="536" 
d="M480 482v-682h-130v243h-4q-37 -57 -121 -57q-93 0 -142.5 64t-49.5 190q0 132 67.5 202t193.5 70q105 0 186 -30zM260 96q69 0 90 68v225q-26 13 -77 13q-106 0 -106 -157q0 -73 24 -111t69 -38z" />
    <glyph glyph-name="uni051C" unicode="&#x51c;" horiz-adv-x="862" 
d="M149 700l93 -391l13 -124h4l14 126l122 389h90l120 -391l14 -124h4l15 126l85 389h139l-193 -705h-92l-125 389l-17 107h-5l-17 -108l-124 -388h-97l-192 705h149z" />
    <glyph glyph-name="uni051D" unicode="&#x51d;" horiz-adv-x="721" 
d="M323 500h96l91 -256l18 -83h4l14 84l64 255h119l-154 -505h-96l-101 280l-13 63h-5l-12 -64l-96 -279h-99l-161 505h141l73 -251l12 -89h5l17 90z" />
    <glyph glyph-name="uni0524" unicode="&#x524;" horiz-adv-x="684" 
d="M442 0v578h-245v-578h-137v700h519v-578h87v-247h-96l-15 125h-113z" />
    <glyph glyph-name="uni0525" unicode="&#x525;" horiz-adv-x="574" 
d="M345 0v385h-158v-385h-130v500h418v-385h83v-229h-95l-15 114h-103z" />
    <glyph glyph-name="uni0526" unicode="&#x526;" horiz-adv-x="661" 
d="M423 0v222q0 61 -24 90t-77 29q-87 0 -125 -34v-307h-137v700h137v-282q68 40 173 40q88 0 139 -46.5t51 -146.5v-143h88v-247h-96l-15 125h-114z" />
    <glyph glyph-name="uni0527" unicode="&#x527;" horiz-adv-x="590" 
d="M493 311v-196h80v-229h-95l-15 114h-100v284q0 62 -17.5 88.5t-61.5 26.5q-33 0 -60.5 -22.5t-36.5 -57.5v-319h-130v700h130v-256h4q53 70 148 70q80 0 117 -45t37 -158z" />
    <glyph glyph-name="uni1E30" unicode="&#x1e30;" horiz-adv-x="620" 
d="M440 0l-207 299h-36v-299h-137v700h137v-310l32 14l193 296h156l-204 -294l-54 -38l56 -39l233 -329h-169zM206 752l104 118h159v-30l-160 -88h-103z" />
    <glyph glyph-name="uni1E31" unicode="&#x1e31;" horiz-adv-x="491" 
d="M344 0l-122 207h-35v-207h-130v700h130v-413l30 14l114 199h143l-120 -190l-51 -38l55 -39l135 -233h-149zM246 566l53 154h132v-30l-111 -124h-74z" />
    <glyph glyph-name="uni1E3E" unicode="&#x1e3e;" horiz-adv-x="800" 
d="M603 0v363l15 139h-6l-43 -112l-149 -261h-44l-157 262l-44 111h-5l20 -138v-364h-130v700h125l187 -320l33 -80h4l30 82l177 318h124v-700h-137zM318 752l104 118h159v-30l-160 -88h-103z" />
    <glyph glyph-name="uni1E3F" unicode="&#x1e3f;" horiz-adv-x="805" 
d="M471 0h-130v272q0 71 -14 99t-53 28q-61 0 -87 -66v-333h-130v500h101l15 -66h4q58 80 150 80q95 0 126 -85q51 85 146 85q85 0 120.5 -46t35.5 -168v-300h-130v281q0 63 -13.5 90.5t-54.5 27.5q-65 0 -86 -71v-328zM346 566l53 154h132v-30l-111 -124h-74z" />
    <glyph glyph-name="uni1E54" unicode="&#x1e54;" horiz-adv-x="572" 
d="M60 0v693q87 17 193 17q294 0 294 -232q0 -122 -78 -181.5t-193 -59.5q-60 0 -79 4v-241h-137zM264 592q-42 0 -67 -5v-227q15 -4 59 -4q147 0 147 124q0 61 -39.5 86.5t-99.5 25.5zM188 752l104 118h159v-30l-160 -88h-103z" />
    <glyph glyph-name="uni1E55" unicode="&#x1e55;" horiz-adv-x="540" 
d="M57 -200v700h95l15 -60h4q52 74 148 74q94 0 141 -61t47 -190q0 -130 -60 -203.5t-169 -73.5q-53 0 -91 19v-205h-130zM280 404q-69 0 -93 -76v-208q30 -24 74 -24q56 0 84 40.5t28 129.5q0 138 -93 138zM211 566l53 154h132v-30l-111 -124h-74z" />
    <glyph glyph-name="Wgrave" unicode="&#x1e80;" horiz-adv-x="862" 
d="M149 700l93 -391l13 -124h4l14 126l122 389h90l120 -391l14 -124h4l15 126l85 389h139l-193 -705h-92l-125 389l-17 107h-5l-17 -108l-124 -388h-97l-192 705h149zM431 870l104 -118h-105l-158 88v30h159z" />
    <glyph glyph-name="wgrave" unicode="&#x1e81;" horiz-adv-x="721" 
d="M323 500h96l91 -256l18 -83h4l14 84l64 255h119l-154 -505h-96l-101 280l-13 63h-5l-12 -64l-96 -279h-99l-161 505h141l73 -251l12 -89h5l17 90zM378 720l60 -154h-72l-124 124v30h136z" />
    <glyph glyph-name="Wacute" unicode="&#x1e82;" horiz-adv-x="862" 
d="M149 700l93 -391l13 -124h4l14 126l122 389h90l120 -391l14 -124h4l15 126l85 389h139l-193 -705h-92l-125 389l-17 107h-5l-17 -108l-124 -388h-97l-192 705h149zM340 752l104 118h159v-30l-160 -88h-103z" />
    <glyph glyph-name="wacute" unicode="&#x1e83;" horiz-adv-x="721" 
d="M323 500h96l91 -256l18 -83h4l14 84l64 255h119l-154 -505h-96l-101 280l-13 63h-5l-12 -64l-96 -279h-99l-161 505h141l73 -251l12 -89h5l17 90zM308 566l53 154h132v-30l-111 -124h-74z" />
    <glyph glyph-name="Wdieresis" unicode="&#x1e84;" horiz-adv-x="862" 
d="M149 700l93 -391l13 -124h4l14 126l122 389h90l120 -391l14 -124h4l15 126l85 389h139l-193 -705h-92l-125 389l-17 107h-5l-17 -108l-124 -388h-97l-192 705h149zM255 798q0 58 76 58q75 0 75 -58q0 -57 -75 -57q-76 0 -76 57zM469 798q0 58 75 58q76 0 76 -58
q0 -57 -76 -57q-75 0 -75 57z" />
    <glyph glyph-name="wdieresis" unicode="&#x1e85;" horiz-adv-x="721" 
d="M323 500h96l91 -256l18 -83h4l14 84l64 255h119l-154 -505h-96l-101 280l-13 63h-5l-12 -64l-96 -279h-99l-161 505h141l73 -251l12 -89h5l17 90zM193 651q0 32 19.5 51t51.5 19q31 0 50 -19t19 -51q0 -30 -19 -49t-50 -19q-32 0 -51.5 19t-19.5 49zM412 651q0 32 19 51
t50 19q32 0 51.5 -19.5t19.5 -50.5q0 -30 -20 -49t-51 -19t-50 19t-19 49z" />
    </font>
</defs>
</svg>
